<svg width="1349" height="428" viewBox="0 0 1349 428" fill="none" xmlns="http://www.w3.org/2000/svg">
<mask id="mask0_87_12211" style="mask-type:luminance" maskUnits="userSpaceOnUse" x="-1" y="54" width="1454" height="375">
<path d="M1453 54.667H-0.00012207V428H1453V54.667Z" fill="white"/>
</mask>
<g mask="url(#mask0_87_12211)">
<path d="M1448.96 58.0782C1327.08 68.1303 1192.56 80.823 1114.85 112.417C1067.93 131.484 1053.99 154.594 1040.8 177.323C1027.13 201.073 1009.82 224.615 985.725 247.651C940.195 291.099 871.186 333.198 766.35 366.979C673.173 396.995 549.603 420.99 410.755 426.62C277.43 432.026 137.683 420.109 38.5089 392.984C26.0548 389.573 14.324 385.958 3.31641 382.136C0.282227 381.094 5.43323 379.568 8.48499 380.615C97.9745 411.573 234.758 427.755 371.911 425.568C512.805 423.328 641.227 401.375 738.989 372.292C848.236 339.844 921.267 298.412 969.672 255.323C994.845 232.563 1014.41 209.391 1028.36 185.802C1042.23 163.042 1051.33 139.281 1091.58 118.943C1157.35 85.7657 1283.42 70.3178 1402.78 59.7605C1417.47 58.4637 1432.24 57.1928 1447.02 56.0053C1447.95 55.9532 1448.82 56.0001 1449.61 56.1512C1450.42 56.297 1450.95 56.5105 1451.2 56.7762C1451.47 57.047 1451.38 57.3074 1450.94 57.5574C1450.51 57.8074 1449.84 57.9793 1448.96 58.0782Z" fill="#055EA8" fill-opacity="0.1"/>
</g>
<mask id="mask1_87_12211" style="mask-type:luminance" maskUnits="userSpaceOnUse" x="-1" y="48" width="1454" height="352">
<path d="M1453 48H-0.00012207V400H1453V48Z" fill="white"/>
</mask>
<g mask="url(#mask1_87_12211)">
<path d="M1448.93 51.0259C1329.52 60.2812 1196.19 71.6926 1116.33 101.5C1068.39 119.411 1053.87 141.646 1040.46 163.552C1026.51 186.297 1008.57 208.807 983.909 230.755C937.039 272.286 865.736 312.026 760.353 343.271C665.236 371.505 542.053 392.891 406.523 397.792C276.372 402.469 139.024 391.708 39.3389 366.198C26.6378 362.943 14.6423 359.474 3.35254 355.786C0.300781 354.802 5.29297 353.323 8.32715 354.318C98.875 383.771 234.265 398.323 367.732 396.646C505.75 394.932 634.189 375.26 734.016 347.885C843.068 317.943 918.234 279.073 967.962 237.995C993.911 216.208 1014.04 193.963 1028.36 171.26C1042.49 149.474 1051.97 126.719 1093.07 107.583C1160.81 76.0572 1287.25 62.1666 1403.45 52.4999C1417.95 51.302 1432.43 50.1562 1446.93 49.0259C1447.87 48.9426 1448.77 48.9739 1449.61 49.1093C1450.48 49.2499 1451.04 49.453 1451.33 49.7291C1451.59 50.0051 1451.5 50.2707 1451.03 50.5259C1450.57 50.7759 1449.86 50.9478 1448.93 51.0259Z" fill="#055EA8" fill-opacity="0.1"/>
</g>
<mask id="mask2_87_12211" style="mask-type:luminance" maskUnits="userSpaceOnUse" x="-1" y="41" width="1454" height="330">
<path d="M1453 41.333H-0.00012207V370.666H1453V41.333Z" fill="white"/>
</mask>
<g mask="url(#mask2_87_12211)">
<path d="M1448.89 43.9788C1386.87 48.484 1324.7 53.3903 1265.84 60.7861C1210.27 67.7913 1156.82 77.2392 1117.27 90.9163C1095.34 98.5725 1078.74 107.125 1067.47 116.578C1054.43 127.333 1047.38 138.609 1040.06 149.786C1025.87 171.416 1007.62 192.781 982.32 213.526C934.144 253.047 860.849 290.27 755.712 318.989C658.214 345.625 534.397 364.927 400.983 368.989C273.443 372.864 138.671 363.119 38.6852 339.005C26.3193 336.041 14.5708 332.88 3.43982 329.515C0.388062 328.593 5.20386 327.172 8.23792 328.099C99.7737 355.979 233.593 369.005 363.567 367.791C498.781 366.515 626.973 349.088 728.758 323.427C838.022 295.901 915.728 259.317 966.955 219.994C993.028 199.635 1013.33 178.781 1027.81 157.437C1042.31 136.494 1052.05 114.588 1094.05 96.5361C1163.57 66.6923 1289.23 54.234 1402.27 45.4007C1417.21 44.2444 1432.13 43.1403 1447.07 42.0882C1451.32 41.7809 1453.12 43.7132 1448.89 44.0205V43.9788Z" fill="#055EA8" fill-opacity="0.1"/>
</g>
<mask id="mask3_87_12211" style="mask-type:luminance" maskUnits="userSpaceOnUse" x="-1" y="34" width="1454" height="308">
<path d="M1453 34.667H-0.00012207V341.334H1453V34.667Z" fill="white"/>
</mask>
<g mask="url(#mask3_87_12211)">
<path d="M1448.87 36.9534C1387.76 41.0628 1326.91 45.5107 1268.59 52.2764C1213.87 58.6305 1160.1 67.1878 1119.4 79.9847C1096.98 87.0472 1079.85 95.0889 1068.02 104.115C1054.68 114.183 1047.46 124.828 1040.07 135.375C1025.59 155.964 1006.94 176.266 981.102 195.891C931.162 233.75 854.956 268.703 749.043 295.037C649.481 319.792 526.016 336.823 395.442 340.162C270.266 343.349 137.029 334.49 36.5848 311.578C25.0481 308.943 14.0051 306.131 3.49158 303.146C0.439697 302.287 5.07922 300.912 8.13098 301.776C100.672 328.063 232.922 339.657 359.562 338.808C491.9 337.953 619.457 322.599 723.218 298.74C832.235 273.672 912.481 239.62 965.437 202.183C992.586 182.714 1013.63 162.683 1028.54 142.089C1043.3 122.245 1053.78 101.646 1096.5 85.0055C1130.62 71.7139 1178.48 62.2191 1229.16 55.1826C1284.64 47.4847 1343.98 42.4378 1403.36 38.1253C1417.91 37.068 1432.5 36.0472 1447.12 35.0732C1451.22 34.792 1452.93 36.6566 1448.87 36.9274V36.9534Z" fill="#055EA8" fill-opacity="0.1"/>
</g>
<mask id="mask4_87_12211" style="mask-type:luminance" maskUnits="userSpaceOnUse" x="-1" y="28" width="1454" height="284">
<path d="M1453 28H-0.00012207V312H1453V28Z" fill="white"/>
</mask>
<g mask="url(#mask4_87_12211)">
<path d="M1448.82 29.8802C1388.61 33.6615 1328.32 37.7604 1270.33 43.9271C1215.98 49.7083 1161.99 57.4844 1120.28 69.5208C1098.36 75.8177 1081.25 83.1042 1068.95 91.3698C1054.68 101.01 1047.27 111.37 1039.53 121.594C1025.26 141.083 1005.15 160.031 979.214 178.448C927.598 214.375 848.781 246.635 743.574 270.5C641.948 293.589 518.254 308.609 389.727 311.281C268.008 313.844 137.576 305.995 37.3079 284.76C25.6123 282.281 14.3754 279.625 3.61475 276.797C0.704102 275.995 5.06128 274.682 8.07776 275.479C100.884 299.99 230.47 310.255 353.035 309.844C483.009 309.432 609.808 296.156 715.738 274.214C824.544 251.682 907.612 220.318 962.861 184.786C991.051 166.438 1012.89 147.448 1028.36 127.828C1043.5 109.01 1054.45 89.7083 1097 74.2969C1131.96 61.6458 1180.7 52.9115 1230.99 46.5365C1286.33 39.5208 1344.76 34.875 1403.36 30.9687C1417.95 29.9635 1432.55 29.0052 1447.16 28.0937C1451.09 27.8437 1452.79 29.6302 1448.82 29.8802Z" fill="#055EA8" fill-opacity="0.1"/>
</g>
<mask id="mask5_87_12211" style="mask-type:luminance" maskUnits="userSpaceOnUse" x="-1" y="20" width="1454" height="264">
<path d="M1453 20H-0.00012207V284H1453V20Z" fill="white"/>
</mask>
<g mask="url(#mask5_87_12211)">
<path d="M1448.64 22.8336C1388.81 26.2971 1328.94 30.0367 1270.97 35.7086C1217.57 40.9429 1163.72 47.9065 1121.12 59.094C1099.74 64.6669 1082.71 71.2242 1070.05 78.7711C1054.86 87.9325 1047.15 97.9377 1039.04 107.797C1024.31 126.271 1003.49 144.136 976.606 161.38C922.803 195.255 841.27 224.745 736.733 246.068C633.061 267.214 509.825 280.287 383.679 282.38C264.413 284.36 136.785 277.36 36.1642 257.62C24.8921 255.407 14.0255 253.026 3.58252 250.485C0.689453 249.755 4.88782 248.505 7.86914 249.224C101.716 272.021 229.132 281.021 348.716 280.875C476.026 280.755 601.731 269.302 709.143 249.287C817.226 229.141 903.152 200.526 960.748 166.891C989.625 149.813 1012.03 132.026 1027.94 113.526C1036.2 104.162 1042.42 94.6148 1053.85 85.5107C1063.84 77.1877 1078.78 69.7294 1098.66 63.1304C1134.49 51.5002 1182.68 43.7971 1231.6 38.0523C1286.97 31.5419 1345.17 27.3492 1403.36 23.7294C1417.95 22.8544 1432.56 21.9794 1447.2 21.1148C1450.99 20.8908 1452.61 22.6096 1448.79 22.8231L1448.64 22.8336Z" fill="#055EA8" fill-opacity="0.1"/>
</g>
<mask id="mask6_87_12211" style="mask-type:luminance" maskUnits="userSpaceOnUse" x="-1" y="13" width="1454" height="242">
<path d="M1453 13.333H-0.00012207V254.666H1453V13.333Z" fill="white"/>
</mask>
<g mask="url(#mask6_87_12211)">
<path d="M1448.64 15.7808C1389.2 18.9319 1329.8 22.3277 1271.83 27.484C1219.67 32.1454 1166.72 38.2444 1123.6 48.3485C1101.62 53.3954 1083.88 59.5204 1070.4 66.7183C1055.16 75.0465 1047.2 84.26 1039.07 93.3538C1023.86 110.791 1002.43 127.531 974.753 143.578C960.782 151.526 945.064 159.161 927.6 166.484C910.136 173.802 891.085 180.744 870.446 187.307C849.807 193.869 827.756 199.994 804.33 205.677C780.886 211.364 756.26 216.557 730.434 221.26C704.203 226.046 677.037 230.328 648.971 234.104C620.905 237.885 592.152 241.125 562.692 243.838C533.233 246.546 503.333 248.698 472.956 250.296C442.579 251.89 411.991 252.921 381.191 253.385C263.918 255.036 138.495 248.942 36.9747 230.791C25.7378 228.776 14.889 226.604 4.39294 224.27C1.5 223.614 4.39294 222.135 7.28601 222.791C101.627 243.776 225.691 251.671 341.941 251.927C373.253 251.958 404.458 251.395 435.523 250.239C466.605 249.083 497.299 247.343 527.606 245.02C557.929 242.698 587.6 239.807 616.654 236.354C645.708 232.901 673.897 228.911 701.204 224.385C727.894 219.994 753.455 215.093 777.869 209.671C802.301 204.255 825.357 198.369 847.055 192.02C868.752 185.666 888.88 178.911 907.438 171.75C925.995 164.588 942.824 157.083 957.907 149.239C988.054 133.286 1011.43 116.51 1028.04 98.9163C1036.51 90.1038 1043.04 81.0881 1054.84 72.5777C1065.25 64.9058 1080.31 58.1402 1100.02 52.2756C1136.57 41.5413 1184.53 34.6819 1232.5 29.536C1288.2 23.5517 1346.38 19.7704 1404.49 16.4683C1418.73 15.661 1432.96 14.885 1447.21 14.1402C1450.87 13.9423 1452.44 15.5673 1448.64 15.7808Z" fill="#055EA8" fill-opacity="0.1"/>
</g>
<mask id="mask7_87_12211" style="mask-type:luminance" maskUnits="userSpaceOnUse" x="-1" y="6" width="1454" height="220">
<path d="M1453 6.66699H-0.00012207V225.334H1453V6.66699Z" fill="white"/>
</mask>
<g mask="url(#mask7_87_12211)">
<path d="M1448.64 8.72437C1389.92 11.5473 1331.11 14.5837 1273.63 19.2035C1221.98 23.3442 1169.61 28.7087 1125.49 37.8702C1103.84 42.2244 1085.96 47.6619 1071.84 54.1775C1055.53 61.9692 1047.18 70.8129 1038.54 79.5317C1022.77 95.8233 1000.61 111.318 972.053 126.016C912.976 155.959 825.568 179.907 722.795 196.443C696.035 200.724 668.534 204.537 640.292 207.881C612.049 211.219 583.243 214.068 553.871 216.427C524.518 218.782 494.776 220.636 464.699 221.974C434.605 223.318 404.352 224.141 373.94 224.454C259.877 225.605 138.529 220.287 37.4679 203.922C26.1074 202.084 15.0646 200.089 4.35693 197.933C1.46387 197.344 4.18054 195.922 7.26758 196.521C102.19 215.667 223.397 222.511 336.63 222.927C367.554 223.042 398.389 222.62 429.137 221.657C459.884 220.698 490.349 219.204 520.496 217.183C550.661 215.162 580.297 212.625 609.439 209.573C638.58 206.516 667.017 202.969 694.73 198.927C800.237 183.459 891.825 160.568 955.207 131.105C986.219 116.521 1010.37 101.006 1027.67 84.5629C1036.37 76.4535 1042.97 68.1358 1054.72 60.3442C1065.74 52.9796 1081.46 46.6306 1101.9 41.3025C1139.58 31.5004 1187.27 25.4848 1234.51 20.9431C1289.58 15.6358 1346.58 12.2608 1403.57 9.31812C1418.05 8.56291 1432.55 7.85458 1447.21 7.15145C1450.72 7.01604 1452.22 8.56291 1448.64 8.72437Z" fill="#055EA8" fill-opacity="0.1"/>
</g>
<mask id="mask8_87_12211" style="mask-type:luminance" maskUnits="userSpaceOnUse" x="-1" y="0" width="1454" height="196">
<path d="M1453 0H-0.00012207V196H1453V0Z" fill="white"/>
</mask>
<g mask="url(#mask8_87_12211)">
<path d="M1448.64 1.68732C1390.68 4.19253 1332.69 6.88003 1275.61 10.9582C1224.74 14.5936 1173 19.2134 1128.15 27.3644C1107.46 31.13 1088.29 35.755 1073.96 41.5988C1056.57 48.7342 1047.5 57.1196 1038.35 65.4009C1021.84 80.6248 998.762 94.9269 969.127 108.307C906.839 136.057 816.785 157.068 715.511 171.297C661.056 178.88 604.536 184.708 545.917 188.781C487.316 192.854 427.903 195.083 367.714 195.469C255.822 196.255 137.279 191.62 36.1288 176.797C25.2976 175.203 14.6605 173.474 4.25269 171.604C1.34204 171.078 4.02344 169.729 6.91638 170.26C52.5873 178.531 103.727 183.948 155.695 187.614C213.308 191.609 271.698 193.713 330.864 193.937C391.952 194.291 452.476 192.745 512.453 189.291C572.413 185.844 630.485 180.568 686.652 173.469C790.695 160.14 885.335 140.166 952.086 112.849C984.244 99.5988 1009.43 85.2759 1027.64 69.88C1036.6 62.3644 1043.46 54.5884 1055.72 47.4529C1067.47 40.7081 1083.54 35.0311 1103.93 30.4217C1142.28 21.6352 1189.38 16.4269 1235.58 12.479C1290.99 7.71336 1348.04 4.69774 1405.02 2.06232C1419.1 1.41128 1433.19 0.781069 1447.27 0.171693C1450.6 0.0362764 1452.07 1.54148 1448.64 1.68732Z" fill="#055EA8" fill-opacity="0.1"/>
</g>
</svg>
