<svg width="101" height="100" viewBox="0 0 101 100" fill="none" xmlns="http://www.w3.org/2000/svg">
<g id="solar:book-2-outline">
<path id="Vector" fill-rule="evenodd" clip-rule="evenodd" d="M41.9374 5.2085H59.0624C64.7624 5.2085 69.3541 5.2085 72.9666 5.696C76.7166 6.196 79.8749 7.27933 82.3833 9.7835C84.8916 12.2918 85.9666 15.4502 86.4749 19.2002C86.9583 22.8127 86.9583 27.4085 86.9583 33.1043V66.896C86.9583 72.5918 86.9583 77.1877 86.4749 80.8002C85.9708 84.5502 84.8916 87.7085 82.3833 90.2168C79.8749 92.7252 76.7166 93.8002 72.9666 94.3085C69.3541 94.7918 64.7583 94.7918 59.0624 94.7918H41.9374C36.2416 94.7918 31.6458 94.7918 28.0333 94.3085C24.2833 93.8002 21.1249 92.7252 18.6166 90.2168C16.1124 87.7085 15.0333 84.5502 14.5291 80.8002C14.3613 79.4957 14.2473 78.1849 14.1874 76.871C14.0199 76.3423 13.9969 75.7783 14.1208 75.2377C14.0521 72.4577 14.0257 69.6768 14.0416 66.896V33.1043C14.0416 27.4085 14.0416 22.8127 14.5291 19.2002C15.0291 15.4502 16.1124 12.2918 18.6208 9.7835C21.1249 7.27516 24.2874 6.20016 28.0374 5.696C31.6458 5.2085 36.2416 5.2085 41.9374 5.2085ZM20.4041 76.0418C20.4666 77.5127 20.5666 78.8085 20.7208 79.9668C21.1333 83.0252 21.8874 84.6418 23.0374 85.796C24.1916 86.9502 25.8124 87.7002 28.8708 88.1127C32.0166 88.5335 36.1874 88.5418 42.1666 88.5418H58.8333C64.8166 88.5418 68.9874 88.5335 72.1333 88.1127C75.1916 87.7002 76.8083 86.946 77.9666 85.796C78.7833 84.9793 79.3958 83.9252 79.8333 82.2918H33.8333C33.0045 82.2918 32.2096 81.9626 31.6236 81.3765C31.0375 80.7905 30.7083 79.9956 30.7083 79.1668C30.7083 78.338 31.0375 77.5432 31.6236 76.9571C32.2096 76.3711 33.0045 76.0418 33.8333 76.0418H80.5958C80.6749 74.246 80.6999 72.1877 80.7041 69.7918H33.4083C29.3333 69.7918 27.9083 69.8168 26.8166 70.1127C25.3465 70.5054 23.9941 71.25 22.8762 72.2823C21.7582 73.3146 20.9083 74.6035 20.3999 76.0377L20.4041 76.0418ZM80.7083 63.5418H32.9249C29.5166 63.5418 27.1916 63.5418 25.1958 64.0752C23.4407 64.5452 21.781 65.3179 20.2916 66.3585V33.3335C20.2916 27.3543 20.2999 23.1793 20.7208 20.0335C21.1333 16.9752 21.8874 15.3585 23.0374 14.2043C24.1916 13.0502 25.8124 12.3002 28.8708 11.8877C32.0166 11.4668 36.1874 11.4585 42.1666 11.4585H58.8333C64.8166 11.4585 68.9874 11.4668 72.1333 11.8877C75.1916 12.3002 76.8083 13.0543 77.9666 14.2043C79.1166 15.3585 79.8666 16.9752 80.2791 20.0377C80.7041 23.1793 80.7083 27.3543 80.7083 33.3335V63.5418ZM30.7083 29.1668C30.7083 28.338 31.0375 27.5432 31.6236 26.9571C32.2096 26.3711 33.0045 26.0418 33.8333 26.0418H67.1666C67.9954 26.0418 68.7903 26.3711 69.3763 26.9571C69.9624 27.5432 70.2916 28.338 70.2916 29.1668C70.2916 29.9956 69.9624 30.7905 69.3763 31.3765C68.7903 31.9626 67.9954 32.2918 67.1666 32.2918H33.8333C33.0045 32.2918 32.2096 31.9626 31.6236 31.3765C31.0375 30.7905 30.7083 29.9956 30.7083 29.1668ZM30.7083 43.7502C30.7083 42.9214 31.0375 42.1265 31.6236 41.5405C32.2096 40.9544 33.0045 40.6252 33.8333 40.6252H54.6666C55.4954 40.6252 56.2903 40.9544 56.8763 41.5405C57.4624 42.1265 57.7916 42.9214 57.7916 43.7502C57.7916 44.579 57.4624 45.3738 56.8763 45.9599C56.2903 46.5459 55.4954 46.8752 54.6666 46.8752H33.8333C33.0045 46.8752 32.2096 46.5459 31.6236 45.9599C31.0375 45.3738 30.7083 44.579 30.7083 43.7502Z" fill="#E49F64"/>
</g>
</svg>
