<svg width="80" height="68" viewBox="0 0 80 68" fill="none" xmlns="http://www.w3.org/2000/svg">
<path id="Vector" d="M74.2188 0.40625H5.46875C4.01835 0.40625 2.62735 0.982421 1.60176 2.00801C0.576171 3.0336 0 4.4246 0 5.875V62.125C0 63.5754 0.576171 64.9664 1.60176 65.992C2.62735 67.0176 4.01835 67.5938 5.46875 67.5938H10.6992C11.1427 67.5936 11.5771 67.4677 11.9519 67.2305C12.3266 66.9933 12.6264 66.6547 12.8164 66.2539C14.3991 62.9114 16.8983 60.0869 20.0232 58.109C23.1482 56.1312 26.7705 55.0812 30.4688 55.0812C34.167 55.0812 37.7893 56.1312 40.9143 58.109C44.0392 60.0869 46.5384 62.9114 48.1211 66.2539C48.3111 66.6547 48.6109 66.9933 48.9856 67.2305C49.3604 67.4677 49.7948 67.5936 50.2383 67.5938H74.2188C75.6692 67.5938 77.0602 67.0176 78.0857 65.992C79.1113 64.9664 79.6875 63.5754 79.6875 62.125V5.875C79.6875 4.4246 79.1113 3.0336 78.0857 2.00801C77.0602 0.982421 75.6692 0.40625 74.2188 0.40625ZM20.3125 40.25C20.3125 38.2413 20.9082 36.2777 22.0241 34.6075C23.1401 32.9373 24.7263 31.6356 26.5821 30.8668C28.4379 30.0981 30.48 29.897 32.4501 30.2889C34.4203 30.6808 36.2299 31.6481 37.6503 33.0684C39.0707 34.4888 40.038 36.2985 40.4298 38.2686C40.8217 40.2387 40.6206 42.2808 39.8519 44.1366C39.0832 45.9924 37.7814 47.5786 36.1113 48.6946C34.4411 49.8106 32.4775 50.4062 30.4688 50.4062C27.7751 50.4062 25.1919 49.3362 23.2872 47.4316C21.3825 45.5269 20.3125 42.9436 20.3125 40.25ZM75 62.125C75 62.3322 74.9177 62.5309 74.7712 62.6774C74.6247 62.8239 74.4259 62.9062 74.2188 62.9062H51.668C48.9351 58.001 44.5909 54.1909 39.3711 52.1211C41.8644 50.2524 43.7064 47.6465 44.6362 44.6726C45.566 41.6987 45.5364 38.5076 44.5515 35.5515C43.5667 32.5953 41.6766 30.0241 39.149 28.202C36.6215 26.3799 33.5846 25.3994 30.4688 25.3994C27.3529 25.3994 24.316 26.3799 21.7885 28.202C19.2609 30.0241 17.3708 32.5953 16.386 35.5515C15.4011 38.5076 15.3715 41.6987 16.3013 44.6726C17.2311 47.6465 19.0731 50.2524 21.5664 52.1211C16.3466 54.1909 12.0024 58.001 9.26953 62.9062H5.46875C5.26155 62.9062 5.06284 62.8239 4.91632 62.6774C4.76981 62.5309 4.6875 62.3322 4.6875 62.125V5.875C4.6875 5.6678 4.76981 5.46909 4.91632 5.32257C5.06284 5.17606 5.26155 5.09375 5.46875 5.09375H74.2188C74.4259 5.09375 74.6247 5.17606 74.7712 5.32257C74.9177 5.46909 75 5.6678 75 5.875V62.125ZM67.1875 15.25V52.75C67.1875 53.3716 66.9406 53.9677 66.501 54.4073C66.0615 54.8468 65.4654 55.0938 64.8438 55.0938H58.5938C57.9721 55.0938 57.376 54.8468 56.9365 54.4073C56.4969 53.9677 56.25 53.3716 56.25 52.75C56.25 52.1284 56.4969 51.5323 56.9365 51.0927C57.376 50.6532 57.9721 50.4062 58.5938 50.4062H62.5V17.5938H17.1875V21.5C17.1875 22.1216 16.9406 22.7177 16.501 23.1573C16.0615 23.5968 15.4654 23.8438 14.8438 23.8438C14.2221 23.8438 13.626 23.5968 13.1865 23.1573C12.7469 22.7177 12.5 22.1216 12.5 21.5V15.25C12.5 14.6284 12.7469 14.0323 13.1865 13.5927C13.626 13.1532 14.2221 12.9062 14.8438 12.9062H64.8438C65.4654 12.9062 66.0615 13.1532 66.501 13.5927C66.9406 14.0323 67.1875 14.6284 67.1875 15.25Z" fill="#E49F64"/>
</svg>
