<svg width="101" height="100" viewBox="0 0 101 100" fill="none" xmlns="http://www.w3.org/2000/svg">
<g id="solar:course-up-bold">
<path id="Vector" fill-rule="evenodd" clip-rule="evenodd" d="M65.5334 29.1665C65.5334 28.3377 65.8626 27.5428 66.4487 26.9568C67.0347 26.3707 67.8296 26.0415 68.6584 26.0415H91.9167C92.7455 26.0415 93.5404 26.3707 94.1264 26.9568C94.7125 27.5428 95.0417 28.3377 95.0417 29.1665V52.2748C95.0417 53.1036 94.7125 53.8985 94.1264 54.4845C93.5404 55.0706 92.7455 55.3998 91.9167 55.3998C91.0879 55.3998 90.2931 55.0706 89.707 54.4845C89.121 53.8985 88.7917 53.1036 88.7917 52.2748V36.679L63.2251 62.0832C61.2709 64.0248 59.5876 65.6998 58.0584 66.8623C56.4167 68.104 54.6001 69.0457 52.3542 69.0457C50.1126 69.0457 48.2917 68.104 46.6501 66.8582C45.1209 65.6998 43.4417 64.0248 41.4834 62.0832L40.3417 60.9457C38.2001 58.8165 36.8126 57.4457 35.6542 56.5665C34.5709 55.7415 34.0626 55.6498 33.7251 55.6498C33.3917 55.6498 32.8834 55.7457 31.8001 56.5665C30.6459 57.4457 29.2584 58.8165 27.1167 60.9498L10.7876 77.2082C10.1941 77.7591 9.41002 78.0582 8.60043 78.0424C7.79085 78.0266 7.019 77.6972 6.4475 77.1235C5.87601 76.5499 5.5495 75.7768 5.53676 74.9671C5.52403 74.1575 5.82606 73.3745 6.37922 72.7832L22.8501 56.3748C24.8084 54.4332 26.4876 52.754 28.0167 51.5915C29.6584 50.3415 31.4792 49.404 33.7251 49.3998C35.9709 49.3998 37.7917 50.3415 39.4334 51.5873C40.9626 52.7498 42.6459 54.4248 44.6001 56.3707L45.7459 57.504C47.8876 59.6332 49.2751 61.004 50.4292 61.879C51.5126 62.704 52.0209 62.7957 52.3542 62.7957C52.6876 62.7957 53.1959 62.704 54.2792 61.879C55.4376 61.004 56.8209 59.6332 58.9667 57.504L84.3417 32.2873H68.6584C67.8296 32.2873 67.0347 31.9581 66.4487 31.372C65.8626 30.786 65.5334 29.9953 65.5334 29.1665Z" fill="#E49F64"/>
</g>
</svg>
