<svg width="150" height="143" viewBox="0 0 150 143" fill="none" xmlns="http://www.w3.org/2000/svg">
<g id="&#240;&#159;&#166;&#134; icon &#34;digital marketing&#34;">
<path id="Vector" d="M15.4354 123.77C10.7584 123.77 6.95361 119.859 6.95361 115.052V36.0896C6.95361 31.2827 10.7584 27.3721 15.4354 27.3721H134.565C139.242 27.3721 143.047 31.2827 143.047 36.0896V115.052C143.047 119.859 139.242 123.77 134.565 123.77H15.4354Z" fill="#CECECE"/>
<path id="Vector_2" d="M134.565 27.3721H125.461C130.137 27.3721 133.943 31.2827 133.943 36.0896V115.052C133.943 119.858 130.138 123.77 125.461 123.77H134.565C139.242 123.77 143.046 119.859 143.046 115.052V36.0896C143.046 31.2833 139.242 27.3721 134.565 27.3721Z" fill="#E2E2E2"/>
<path id="Vector_3" d="M15.4354 27.3721H24.539C19.8627 27.3721 16.0573 31.2827 16.0573 36.0896V115.052C16.0573 119.858 19.8621 123.77 24.539 123.77H15.4354C10.7584 123.77 6.95361 119.859 6.95361 115.052V36.0896C6.95361 31.2833 10.7584 27.3721 15.4354 27.3721Z" fill="#AFAFAF"/>
<path id="Vector_4" d="M137.827 36.1049V115.037C137.827 116.897 136.359 118.405 134.549 118.405H15.45C13.64 118.405 12.1727 116.897 12.1727 115.037V36.1049C12.1727 34.2447 13.64 32.7366 15.45 32.7366H134.549C136.359 32.7366 137.827 34.2447 137.827 36.1049Z" fill="#63BCE7"/>
<path id="Vector_5" d="M134.55 32.7366H125.446C127.256 32.7366 128.723 34.2447 128.723 36.1049V115.037C128.723 116.897 127.256 118.405 125.446 118.405H134.55C136.36 118.405 137.827 116.897 137.827 115.037V36.1049C137.827 34.2447 136.36 32.7366 134.55 32.7366Z" fill="#63E2E7"/>
<path id="Vector_6" d="M15.45 32.7366H24.5537C22.7437 32.7366 21.2764 34.2447 21.2764 36.1049V115.037C21.2764 116.897 22.7437 118.405 24.5537 118.405H15.45C13.64 118.405 12.1727 116.897 12.1727 115.037V36.1049C12.1727 34.2447 13.64 32.7366 15.45 32.7366Z" fill="#6377E7"/>
<path id="Vector_7" d="M75.0001 123.769H0.931152L2.82612 128.25C4.53364 132.288 8.40924 134.899 12.6926 134.899H75.0001H137.308C141.592 134.899 145.467 132.288 147.175 128.25L149.07 123.769H75.0001Z" fill="#CECECE"/>
<path id="Vector_8" d="M139.965 123.769L138.07 128.25C136.362 132.288 132.487 134.899 128.203 134.899H137.307C141.591 134.899 145.466 132.288 147.174 128.25L149.069 123.769H139.965Z" fill="#E2E2E2"/>
<path id="Vector_9" d="M10.0337 123.769L11.9287 128.25C13.6362 132.288 17.5118 134.899 21.7952 134.899H12.6915C8.40814 134.899 4.53254 132.288 2.82502 128.25L0.930054 123.769H10.0337Z" fill="#AFAFAF"/>
<path id="Vector_10" d="M46.7225 123.769L49.3419 127.206C50.3654 128.55 51.9332 129.334 53.5936 129.334H96.4057C98.0661 129.334 99.634 128.55 100.657 127.206L103.277 123.769H46.7225Z" fill="#707070"/>
<path id="Vector_11" d="M100.378 108.241C112.206 108.241 121.796 98.3852 121.796 86.2275C121.796 74.0697 112.206 64.2139 100.378 64.2139C88.5486 64.2139 78.9594 74.0697 78.9594 86.2275C78.9594 98.3852 88.5486 108.241 100.378 108.241Z" fill="#CECECE"/>
<path id="Vector_12" d="M49.6223 108.241C61.4512 108.241 71.0405 98.3852 71.0405 86.2275C71.0405 74.0697 61.4512 64.2139 49.6223 64.2139C37.7934 64.2139 28.2041 74.0697 28.2041 86.2275C28.2041 98.3852 37.7934 108.241 49.6223 108.241Z" fill="#F8AF23"/>
<path id="Vector_13" d="M58.8136 98.8637H40.43C38.7163 98.8637 37.3265 97.4354 37.3265 95.674V76.7793C37.3265 75.018 38.7163 73.5896 40.43 73.5896H58.8136C60.5273 73.5896 61.9171 75.018 61.9171 76.7793V95.674C61.9171 97.436 60.5273 98.8637 58.8136 98.8637Z" fill="#CECECE"/>
<path id="Vector_14" d="M109.569 98.8969H91.1852C89.4715 98.8969 88.0818 97.4686 88.0818 95.7072V76.8125C88.0818 75.0512 89.4715 73.6228 91.1852 73.6228H109.569C111.283 73.6228 112.672 75.0512 112.672 76.8125V95.7072C112.672 97.4692 111.283 98.8969 109.569 98.8969Z" fill="#F46275"/>
<path id="Vector_15" d="M74.9997 64.7988C92.1523 64.7988 106.057 50.5074 106.057 32.8779C106.057 15.2485 92.1523 0.957031 74.9997 0.957031C57.8471 0.957031 43.9421 15.2485 43.9421 32.8779C43.9421 50.5074 57.8471 64.7988 74.9997 64.7988Z" fill="#CECECE"/>
<path id="Vector_16" d="M53.0458 32.8779C53.0458 16.8381 64.5571 3.56559 79.5512 1.30152C78.0652 1.07696 76.5464 0.957031 74.9997 0.957031C57.8469 0.957031 43.9421 15.2483 43.9421 32.8779C43.9421 50.5069 57.8469 64.7988 74.9997 64.7988C76.5464 64.7988 78.0652 64.6789 79.5512 64.4543C64.5571 62.1903 53.0458 48.9178 53.0458 32.8779Z" fill="#AFAFAF"/>
<path id="Vector_17" d="M90.3293 38.4787C93.7593 38.4787 96.5399 35.6208 96.5399 32.0954C96.5399 28.5701 93.7593 25.7122 90.3293 25.7122C86.8993 25.7122 84.1187 28.5701 84.1187 32.0954C84.1187 35.6208 86.8993 38.4787 90.3293 38.4787Z" fill="#F8AF23"/>
<path id="Vector_18" d="M84.5213 47.0977L69.9952 39.2631V24.9195L84.5213 17.0842V47.0977Z" fill="#F8AF23"/>
<path id="Vector_19" d="M84.5209 17.0842H90.3287V47.0977H84.5209V17.0842Z" fill="#F46275"/>
<path id="Vector_20" d="M57.7783 24.9197H69.9954V39.2696H57.7783V24.9197Z" fill="#CECECE"/>
<path id="Vector_21" d="M50.4708 28.502H57.7776V35.6801H50.4708V28.502Z" fill="#F46275"/>
<path id="Vector_22" d="M61.1912 39.2688H66.58V50.4941H61.1912V39.2688Z" fill="#CECECE"/>
<g id="Group">
<path id="Vector_23" d="M148.028 128.632L149.923 124.152C150.048 123.856 150.02 123.515 149.848 123.245C149.676 122.976 149.383 122.814 149.069 122.814H140.161C142.471 121.049 143.978 118.232 143.978 115.053V36.0899C143.978 30.7554 139.755 26.4154 134.565 26.4154H106.364C103.435 11.3707 90.4866 0 75.0003 0C59.5141 0 46.5652 11.3714 43.6356 26.4154H15.4351C10.2449 26.4154 6.0223 30.7554 6.0223 36.0899V115.052C6.0223 118.231 7.52872 121.048 9.83893 122.813H0.930771C0.617322 122.813 0.324356 122.976 0.152425 123.245C-0.0195068 123.515 -0.0480588 123.856 0.0773208 124.151L1.97229 128.632C2.91388 130.859 4.46312 132.683 6.36678 133.942H1.33608C0.821529 133.942 0.405046 134.371 0.405046 134.899C0.405046 135.428 0.821529 135.856 1.33608 135.856H12.6916H137.308H148.663C149.178 135.856 149.594 135.428 149.594 134.899C149.594 134.371 149.178 133.942 148.663 133.942H143.633C145.537 132.684 147.086 130.859 148.028 128.632ZM134.549 33.6937C135.843 33.6937 136.896 34.7757 136.896 36.1052V115.037C136.896 116.366 135.843 117.448 134.549 117.448H15.45C14.1565 117.448 13.1038 116.366 13.1038 115.037V36.1052C13.1038 34.7757 14.1565 33.6937 15.45 33.6937H43.0316C43.4556 51.4459 57.6278 65.7556 74.9997 65.7556C92.3716 65.7556 106.544 51.4459 106.968 33.6937H134.549ZM74.9997 1.91448C91.6112 1.91448 105.126 15.8045 105.126 32.8785C105.126 49.9524 91.6112 63.8418 74.9997 63.8418C58.3881 63.8418 44.8732 49.9512 44.8732 32.8778C44.8732 15.8045 58.3881 1.91448 74.9997 1.91448ZM7.88437 115.052V36.0899C7.88437 31.8105 11.2715 28.3293 15.4351 28.3293H43.3246C43.1713 29.4623 43.0757 30.6131 43.0385 31.7799H15.45C13.1292 31.7799 11.2417 33.7205 11.2417 36.1052V115.037C11.2417 117.422 13.1298 119.362 15.45 119.362H134.549C136.87 119.362 138.758 117.422 138.758 115.037V36.1052C138.758 33.7199 136.87 31.7799 134.549 31.7799H106.961C106.924 30.6137 106.828 29.4623 106.675 28.3293H134.564C138.728 28.3293 142.115 31.8105 142.115 36.0899V115.052C142.115 119.332 138.728 122.813 134.564 122.813H103.277H46.7223H15.4351C11.2715 122.813 7.88437 119.332 7.88437 115.052ZM101.365 124.727L99.9248 126.617C99.0713 127.736 97.789 128.378 96.4061 128.378H53.5939C52.2104 128.378 50.9281 127.737 50.0752 126.617L48.6346 124.727H101.365ZM137.308 133.943H12.6916C9.72038 133.943 6.96885 132.568 5.13223 130.292H23.2192C23.7337 130.292 24.1502 129.864 24.1502 129.335C24.1502 128.806 23.7337 128.378 23.2192 128.378H3.91692C3.83498 128.211 3.75305 128.043 3.67919 127.869L2.35029 124.727H15.4351H46.2691L48.6092 127.798C49.8176 129.384 51.6344 130.293 53.5939 130.293H96.4061C98.3656 130.293 100.182 129.384 101.391 127.798L103.731 124.727H134.565H147.65L146.321 127.869C146.248 128.043 146.166 128.211 146.083 128.378H126.781C126.266 128.378 125.85 128.806 125.85 129.335C125.85 129.864 126.266 130.292 126.781 130.292H144.868C143.031 132.568 140.278 133.943 137.308 133.943Z" fill="#3F3679"/>
<path id="Vector_24" d="M36.0327 128.378H29.593C29.0785 128.378 28.662 128.806 28.662 129.335C28.662 129.864 29.0785 130.292 29.593 130.292H36.0327C36.5472 130.292 36.9637 129.864 36.9637 129.335C36.9637 128.806 36.5466 128.378 36.0327 128.378Z" fill="#3F3679"/>
<path id="Vector_25" d="M120.406 128.378H113.966C113.452 128.378 113.035 128.806 113.035 129.335C113.035 129.864 113.452 130.292 113.966 130.292H120.406C120.921 130.292 121.337 129.864 121.337 129.335C121.337 128.806 120.921 128.378 120.406 128.378Z" fill="#3F3679"/>
<path id="Vector_26" d="M12.5104 140.943H1.33607C0.821513 140.943 0.405029 141.371 0.405029 141.9C0.405029 142.429 0.821513 142.857 1.33607 142.857H12.5104C13.0249 142.857 13.4414 142.429 13.4414 141.9C13.4414 141.371 13.0249 140.943 12.5104 140.943Z" fill="#3F3679"/>
<path id="Vector_27" d="M148.664 140.943H137.49C136.975 140.943 136.559 141.371 136.559 141.9C136.559 142.429 136.975 142.857 137.49 142.857H148.664C149.179 142.857 149.595 142.429 149.595 141.9C149.595 141.371 149.179 140.943 148.664 140.943Z" fill="#3F3679"/>
<path id="Vector_28" d="M131.159 140.943H18.8399C18.3253 140.943 17.9088 141.371 17.9088 141.9C17.9088 142.429 18.3253 142.857 18.8399 142.857H131.159C131.674 142.857 132.091 142.429 132.091 141.9C132.091 141.371 131.673 140.943 131.159 140.943Z" fill="#3F3679"/>
<path id="Vector_29" d="M78.0272 86.2283C78.0272 98.8941 88.0532 109.199 100.376 109.199C112.7 109.199 122.726 98.8941 122.726 86.2283C122.726 73.5625 112.7 63.2578 100.376 63.2578C88.0532 63.2578 78.0272 73.5625 78.0272 86.2283ZM100.376 65.1717C111.673 65.1717 120.864 74.6177 120.864 86.2283C120.864 97.8389 111.673 107.285 100.376 107.285C89.0799 107.285 79.8893 97.8389 79.8893 86.2283C79.8893 74.6177 89.0799 65.1717 100.376 65.1717Z" fill="#3F3679"/>
<path id="Vector_30" d="M49.6217 63.2578C37.2985 63.2578 27.2725 73.5625 27.2725 86.2283C27.2725 98.8941 37.2985 109.199 49.6217 109.199C61.9449 109.199 71.9709 98.8941 71.9709 86.2283C71.9709 73.5625 61.9449 63.2578 49.6217 63.2578ZM49.6217 107.285C38.3251 107.285 29.1345 97.8389 29.1345 86.2283C29.1345 74.6177 38.3251 65.1717 49.6217 65.1717C60.9183 65.1717 70.1088 74.6177 70.1088 86.2283C70.1088 97.8389 60.9183 107.285 49.6217 107.285Z" fill="#3F3679"/>
<path id="Vector_31" d="M58.8141 72.6331H40.4305C38.2059 72.6331 36.396 74.4933 36.396 76.7797V95.6744C36.396 97.9608 38.2059 99.821 40.4305 99.821H58.8141C61.0387 99.821 62.8486 97.9608 62.8486 95.6744V76.7797C62.8486 74.4933 61.0387 72.6331 58.8141 72.6331ZM60.9865 95.6737C60.9865 96.905 60.012 97.9066 58.8141 97.9066H40.4305C39.2326 97.9066 38.2581 96.905 38.2581 95.6737V76.7791C38.2581 75.5478 39.2326 74.5463 40.4305 74.5463H58.8141C60.012 74.5463 60.9865 75.5478 60.9865 76.7791V95.6737Z" fill="#3F3679"/>
<path id="Vector_32" d="M53.646 76.9919C50.5344 76.9919 48.0033 79.5935 48.0033 82.7915V84.0106H45.7191C45.2046 84.0106 44.7881 84.4387 44.7881 84.9676C44.7881 85.4964 45.2046 85.9245 45.7191 85.9245H48.0033V94.5061C48.0033 95.035 48.4197 95.463 48.9343 95.463C49.4489 95.463 49.8653 95.035 49.8653 94.5061V85.9245H52.1501C52.6647 85.9245 53.0811 85.4964 53.0811 84.9676C53.0811 84.4387 52.6647 84.0106 52.1501 84.0106H49.8653V82.7915C49.8653 80.6487 51.5611 78.9058 53.646 78.9058C54.1605 78.9058 54.577 78.4777 54.577 77.9489C54.577 77.42 54.1599 76.9919 53.646 76.9919Z" fill="#3F3679"/>
<path id="Vector_33" d="M91.1857 99.8542H109.569C111.794 99.8542 113.604 97.994 113.604 95.7076V76.8129C113.604 74.5265 111.794 72.6663 109.569 72.6663H91.1857C88.9612 72.6663 87.1512 74.5265 87.1512 76.8129V95.7076C87.1512 97.994 88.9612 99.8542 91.1857 99.8542ZM89.0133 76.8129C89.0133 75.5817 89.9878 74.5801 91.1857 74.5801H109.569C110.767 74.5801 111.742 75.5817 111.742 76.8129V95.7076C111.742 96.9388 110.767 97.9404 109.569 97.9404H91.1857C89.9878 97.9404 89.0133 96.9388 89.0133 95.7076V76.8129Z" fill="#3F3679"/>
<path id="Vector_34" d="M100.377 93.9295C104.491 93.9295 107.838 90.4891 107.838 86.2608C107.838 82.0325 104.491 78.592 100.377 78.592C96.2632 78.592 92.9158 82.0325 92.9158 86.2608C92.9158 90.4891 96.2632 93.9295 100.377 93.9295ZM100.377 80.5059C103.464 80.5059 105.976 83.0876 105.976 86.2608C105.976 89.4339 103.464 92.0157 100.377 92.0157C97.2898 92.0157 94.7778 89.4339 94.7778 86.2608C94.7778 83.0876 97.2898 80.5059 100.377 80.5059Z" fill="#3F3679"/>
<path id="Vector_35" d="M108.577 80.1332C109.29 80.1332 109.869 79.5386 109.869 78.8056C109.869 78.0726 109.29 77.478 108.577 77.478C107.864 77.478 107.285 78.0726 107.285 78.8056C107.285 79.5386 107.863 80.1332 108.577 80.1332Z" fill="#3F3679"/>
<path id="Vector_36" d="M50.4713 36.637H56.8471V39.2692C56.8471 39.798 57.2635 40.2261 57.7781 40.2261H60.2609V50.4945C60.2609 51.0233 60.6773 51.4514 61.1919 51.4514H66.5807C67.0953 51.4514 67.5118 51.0233 67.5118 50.4945V40.2261H69.7767L84.0886 47.9452V47.9408C84.2183 48.0116 84.3641 48.055 84.5212 48.055H90.329C90.8435 48.055 91.26 47.6269 91.26 47.098V39.3649C94.7582 38.8934 97.4707 35.8166 97.4707 32.0942C97.4707 28.3718 94.7589 25.295 91.26 24.8235V17.0846C91.26 16.5557 90.8435 16.1277 90.329 16.1277H84.5212C84.3641 16.1277 84.2183 16.1717 84.0886 16.2419V16.2374L69.7655 23.9623H57.7775C57.2629 23.9623 56.8464 24.3904 56.8464 24.9192V27.545H50.4713C49.9568 27.545 49.5403 27.9731 49.5403 28.5019V35.6795C49.5403 36.2089 49.9568 36.637 50.4713 36.637ZM95.6086 32.0942C95.6086 34.7589 93.7279 36.977 91.26 37.4306V26.7578C93.7279 27.212 95.6086 29.4295 95.6086 32.0942ZM85.4522 18.0415H89.398V46.1411H85.4522V18.0415ZM65.6503 49.5382H62.1235V40.2261H65.6503V49.5382ZM83.5901 45.5153L70.9262 38.6848V25.4978L83.5901 18.6673V45.5153ZM58.7091 25.8768H69.0641V38.3129H66.5814H61.1925H58.7097V35.6807V28.5026L58.7091 25.8768ZM51.4024 29.4595H56.8471V34.7232H51.4024V29.4595Z" fill="#3F3679"/>
</g>
</g>
</svg>
