<svg width="143" height="144" viewBox="0 0 143 144" fill="none" xmlns="http://www.w3.org/2000/svg">
<g id="Frame 227">
<rect width="142.9" height="142.9" transform="translate(0 0.550049)" fill="white"/>
<g id="&#240;&#159;&#166;&#134; icon &#34;website coding&#34;">
<path id="Vector" d="M133.224 41.1907V112.284C133.221 113.038 132.797 113.76 132.047 114.293C131.296 114.826 130.278 115.126 129.217 115.128H13.0108C11.949 115.126 10.9316 114.826 10.1808 114.293C9.43003 113.76 9.00683 113.038 9.00366 112.284V41.1907H133.224Z" fill="#DFE1EA"/>
<path id="Vector_2" d="M129.217 26.9719C130.278 26.9742 131.296 27.2745 132.047 27.8073C132.797 28.3401 133.221 29.0622 133.224 29.8157V41.1907H9.00366V29.8157C9.00683 29.0622 9.43003 28.3401 10.1808 27.8073C10.9316 27.2745 11.949 26.9742 13.0108 26.9719H129.217Z" fill="white"/>
<path id="Vector_3" d="M86.3407 55.4088C71.1137 55.4088 71.1137 52.5651 55.8868 52.5651C40.6598 52.5651 40.6598 55.4088 25.4328 55.4088C19.8694 55.4696 14.3266 54.9151 9.00366 53.7652V65.1402C14.3266 66.2901 19.8694 66.8446 25.4328 66.7838C40.6598 66.7838 40.6598 63.9401 55.8868 63.9401C71.1137 63.9401 71.1137 66.7838 86.3407 66.7838C101.568 66.7838 101.568 63.9401 116.795 63.9401C122.358 63.8808 127.901 64.4358 133.224 65.5852V54.2102C127.901 53.0608 122.358 52.5058 116.795 52.5651C101.568 52.5651 101.568 55.4088 86.3407 55.4088Z" fill="#CDD2E1"/>
<path id="Vector_4" d="M9.00366 41.1907V53.7657C14.3266 54.9157 19.8694 55.4702 25.4328 55.4094C40.6598 55.4094 40.6598 52.5657 55.8868 52.5657C71.1137 52.5657 71.1137 55.4094 86.3407 55.4094C101.568 55.4094 101.568 52.5657 116.795 52.5657C122.358 52.5063 127.901 53.0613 133.224 54.2108V41.1907H9.00366Z" fill="#F6FAFD"/>
<path id="Vector_5" d="M129.325 48.3H85.0301C84.7811 48.2999 84.5345 48.3345 84.3044 48.4021C84.0743 48.4696 83.8653 48.5687 83.6892 48.6936C83.5132 48.8185 83.3736 48.9669 83.2784 49.1302C83.1833 49.2935 83.1344 49.4684 83.1347 49.6451V78.2362C83.135 78.4129 83.0861 78.5879 82.991 78.7512C82.8958 78.9145 82.7562 79.0628 82.5802 79.1878C82.4041 79.3127 82.1951 79.4118 81.965 79.4793C81.7349 79.5468 81.4883 79.5815 81.2393 79.5813H75.0123C74.7633 79.5811 74.5167 79.6158 74.2867 79.6833C74.0566 79.7508 73.8475 79.8499 73.6715 79.9749C73.4954 80.0998 73.3558 80.2481 73.2607 80.4114C73.1655 80.5747 73.1167 80.7497 73.1169 80.9264V113.783C73.1167 113.96 73.1655 114.135 73.2607 114.298C73.3558 114.461 73.4954 114.61 73.6715 114.735C73.8475 114.86 74.0566 114.959 74.2867 115.026C74.5167 115.094 74.7633 115.128 75.0123 115.128H119.307C119.556 115.128 119.802 115.094 120.032 115.026C120.263 114.959 120.472 114.86 120.648 114.735C120.824 114.61 120.963 114.461 121.058 114.298C121.154 114.135 121.202 113.96 121.202 113.783V85.192C121.202 85.0153 121.251 84.8403 121.346 84.6771C121.441 84.5138 121.581 84.3654 121.757 84.2405C121.933 84.1155 122.142 84.0165 122.372 83.9489C122.602 83.8814 122.849 83.8467 123.098 83.8469H129.325C129.574 83.8471 129.82 83.8124 130.05 83.7449C130.28 83.6774 130.489 83.5783 130.665 83.4534C130.841 83.3284 130.981 83.1801 131.076 83.0168C131.171 82.8535 131.22 82.6785 131.22 82.5018V49.6451C131.22 49.4684 131.171 49.2935 131.076 49.1302C130.981 48.9669 130.841 48.8185 130.665 48.6936C130.489 48.5687 130.28 48.4696 130.05 48.4021C129.82 48.3345 129.574 48.2999 129.325 48.3Z" fill="white"/>
<path id="Vector_6" d="M47.0708 88.1126C61.4557 88.1126 73.117 79.8368 73.117 69.6282C73.117 59.4195 61.4557 51.1438 47.0708 51.1438C32.6859 51.1438 21.0247 59.4195 21.0247 69.6282C21.0247 79.8368 32.6859 88.1126 47.0708 88.1126Z" fill="white"/>
<path id="Vector_7" d="M83.1353 58.2532H123.206V78.1594H83.1353V58.2532Z" fill="white"/>
<path id="Vector_8" d="M83.1353 46.8782H123.206V58.2532H83.1353V46.8782Z" fill="#FFA426"/>
<path id="Vector_9" d="M89.146 62.5188H117.196V73.8938H89.146V62.5188Z" fill="#DFE1EA"/>
<path id="Vector_10" d="M73.1169 89.5344H113.188V109.441H73.1169V89.5344Z" fill="white"/>
<path id="Vector_11" d="M73.1169 78.1594H113.188V89.5344H73.1169V78.1594Z" fill="#8DD5F6"/>
<path id="Vector_12" d="M79.1274 93.8H107.177V105.175H79.1274V93.8Z" fill="#DFE1EA"/>
<g id="Group">
<path id="Vector_13" d="M43.0635 83.8469C57.4484 83.8469 69.1097 75.5712 69.1097 65.3626C69.1097 55.1539 57.4484 46.8782 43.0635 46.8782C28.6786 46.8782 17.0173 55.1539 17.0173 65.3626C17.0173 75.5712 28.6786 83.8469 43.0635 83.8469Z" fill="white"/>
<path id="Vector_14" d="M17.0173 32.6594H21.0244V35.5032H17.0173V32.6594Z" fill="white"/>
<path id="Vector_15" d="M35.05 32.6594H125.21V35.5032H35.05V32.6594Z" fill="white"/>
<path id="Vector_16" d="M89.1458 51.1438H93.1529V53.9875H89.1458V51.1438Z" fill="white"/>
<path id="Vector_17" d="M97.1597 51.1438H101.167V53.9875H97.1597V51.1438Z" fill="white"/>
<path id="Vector_18" d="M87.1423 82.425H91.1494V85.2688H87.1423V82.425Z" fill="white"/>
<path id="Vector_19" d="M79.1274 82.425H83.1345V85.2688H79.1274V82.425Z" fill="white"/>
</g>
<path id="Vector_20" d="M129.217 25.55H13.0107C11.4165 25.55 9.8877 25.9995 8.76048 26.7994C7.63326 27.5994 7 28.6844 7 29.8157L7 112.284C7 113.416 7.63326 114.501 8.76048 115.301C9.8877 116.101 11.4165 116.55 13.0107 116.55H129.217C130.811 116.55 132.34 116.101 133.467 115.301C134.594 114.501 135.227 113.416 135.227 112.284V29.8157C135.227 28.6844 134.594 27.5994 133.467 26.7994C132.34 25.9995 130.811 25.55 129.217 25.55ZM13.0107 28.3938H129.217C129.748 28.3938 130.258 28.5436 130.633 28.8103C131.009 29.0769 131.22 29.4386 131.22 29.8157V39.7688H11.0071V29.8157C11.0071 29.4386 11.2182 29.0769 11.5939 28.8103C11.9697 28.5436 12.4793 28.3938 13.0107 28.3938ZM129.217 113.706H13.0107C12.4793 113.706 11.9697 113.556 11.5939 113.29C11.2182 113.023 11.0071 112.662 11.0071 112.284V42.6125H131.22V112.284C131.22 112.662 131.009 113.023 130.633 113.29C130.258 113.556 129.748 113.706 129.217 113.706Z" fill="black"/>
<path id="Vector_21" d="M43.0639 85.2688C48.6116 85.2688 54.0347 84.1013 58.6475 81.914C63.2602 79.7267 66.8554 76.6177 68.9784 72.9804C71.1015 69.343 71.6569 65.3405 70.5746 61.479C69.4923 57.6176 66.8208 54.0707 62.898 51.2867C58.9752 48.5028 53.9772 46.6069 48.5361 45.8388C43.095 45.0707 37.4551 45.4649 32.3297 46.9716C27.2043 48.4782 22.8235 51.0297 19.7414 54.3032C16.6592 57.5768 15.0142 61.4255 15.0142 65.3626C15.0221 70.6403 17.9799 75.7002 23.2385 79.4322C28.4971 83.1641 35.6271 85.2632 43.0639 85.2688ZM43.0639 48.3001C47.8191 48.3001 52.4675 49.3008 56.4212 51.1756C60.375 53.0505 63.4566 55.7153 65.2764 58.833C67.0961 61.9508 67.5722 65.3815 66.6445 68.6913C65.7168 72.0011 63.427 75.0413 60.0646 77.4276C56.7022 79.8138 52.4182 81.4389 47.7544 82.0972C43.0905 82.7556 38.2564 82.4177 33.8632 81.1263C29.47 79.8348 25.715 77.6479 23.0732 74.842C20.4313 72.0361 19.0213 68.7372 19.0213 65.3626C19.0282 60.8388 21.5634 56.5017 26.0708 53.303C30.5782 50.1042 36.6895 48.305 43.0639 48.3001Z" fill="black"/>
<path id="Vector_22" d="M36.4664 71.467L27.8652 65.3629L36.4664 59.2588L33.6334 57.2483L23.6157 64.3577C23.2401 64.6243 23.0291 64.9859 23.0291 65.3629C23.0291 65.74 23.2401 66.1016 23.6157 66.3682L33.6334 73.4776L36.4664 71.467Z" fill="black"/>
<path id="Vector_23" d="M52.4942 73.4776L62.5119 66.3682C62.8875 66.1016 63.0985 65.74 63.0985 65.3629C63.0985 64.9859 62.8875 64.6243 62.5119 64.3577L52.4942 57.2483L49.6611 59.2588L58.2624 65.3629L49.6611 71.467L52.4942 73.4776Z" fill="black"/>
<path id="Vector_24" d="M123.206 45.4563H83.1346C82.6032 45.4563 82.0936 45.6061 81.7179 45.8728C81.3421 46.1394 81.131 46.5011 81.131 46.8782V76.7375H73.1168C72.5855 76.7375 72.0758 76.8874 71.7001 77.154C71.3244 77.4207 71.1133 77.7823 71.1133 78.1594V109.441C71.1133 109.818 71.3244 110.179 71.7001 110.446C72.0758 110.713 72.5855 110.863 73.1168 110.863H113.188C113.719 110.863 114.229 110.713 114.605 110.446C114.98 110.179 115.191 109.818 115.191 109.441V79.5813H123.206C123.737 79.5813 124.247 79.4315 124.622 79.1648C124.998 78.8982 125.209 78.5365 125.209 78.1594V46.8782C125.209 46.5011 124.998 46.1394 124.622 45.8728C124.247 45.6061 123.737 45.4563 123.206 45.4563ZM121.202 48.3V56.8313H85.1381V48.3H121.202ZM75.1204 108.019V90.9563H111.184V108.019H75.1204ZM111.184 88.1125H75.1204V79.5813H111.184V88.1125ZM113.188 76.7375H85.1381V59.675H121.202V76.7375H113.188Z" fill="black"/>
<path id="Vector_25" d="M21.0247 105.175H63.0992V108.019H21.0247V105.175Z" fill="black"/>
<path id="Vector_26" d="M21.0247 98.0657H63.0992V100.909H21.0247V98.0657Z" fill="black"/>
<path id="Vector_27" d="M37.0535 90.9563H63.0996V93.8H37.0535V90.9563Z" fill="black"/>
<path id="Vector_28" d="M21.0247 90.9563H29.0389V93.8H21.0247V90.9563Z" fill="black"/>
<path id="Vector_29" d="M25.0317 32.6594H29.0388V35.5032H25.0317V32.6594Z" fill="black"/>
<path id="Vector_30" d="M39.083 73.6604L43.0943 56.5977L47.0468 57.0657L43.0355 74.1284L39.083 73.6604Z" fill="black"/>
</g>
</g>
</svg>
