<svg width="144" height="144" viewBox="0 0 144 144" fill="none" xmlns="http://www.w3.org/2000/svg">
<g id="Frame 228">
<rect width="142.9" height="142.9" transform="translate(0.899902 0.550049)" fill="white"/>
<g id="&#240;&#159;&#166;&#134; icon &#34;writer&#34;">
<path id="Vector" d="M111.592 66.3437H32.2086L30.3625 62.5612L32.2086 58.7783H111.592L113.438 62.5612L111.592 66.3437Z" fill="#656D78"/>
<path id="Vector_2" opacity="0.2" d="M31.1377 58.7783H112.477V60.6698H31.1377V58.7783Z" fill="black"/>
<path id="Vector_3" opacity="0.2" d="M31.1377 64.4521H112.477V66.3434H31.1377V64.4521Z" fill="black"/>
<path id="Vector_4" d="M107.899 11.4956C104.84 11.4956 102.361 14.0351 102.361 17.1695V19.061H113.438V17.1695C113.438 14.0354 110.959 11.4956 107.899 11.4956Z" fill="#F6BB42"/>
<path id="Vector_5" opacity="0.2" d="M107.899 11.4956C104.84 11.4956 102.361 14.0351 102.361 17.1695V19.061C102.361 15.9266 104.84 13.3871 107.899 13.3871C110.959 13.3871 113.438 15.9266 113.438 19.061V17.1695C113.438 14.0354 110.959 11.4956 107.899 11.4956Z" fill="black"/>
<path id="Vector_6" d="M48.8235 11.4956H107.899C104.834 11.4956 102.361 14.0297 102.361 17.1695V62.561V66.3434H43.2852V62.561V17.1695C43.2852 14.0297 45.7587 11.4956 48.8235 11.4956Z" fill="#FFCE54"/>
<path id="Vector_7" d="M41.439 75.7999C32.2083 75.7999 31.1375 77.6913 31.1375 77.6913L30.51 77.5972L30.7877 75.6875C31.563 70.5418 36.3621 66.3435 41.439 66.3435H43.285H102.361C107.438 66.3435 112.237 70.5418 113.012 75.6875L113.29 77.5972L112.662 77.6913C112.662 77.6913 109.745 75.7999 100.515 75.7999C91.2843 75.7999 83.8999 81.4738 71.8999 81.4738C59.9001 81.4738 50.6694 75.7999 41.439 75.7999Z" fill="#82878E"/>
<path id="Vector_8" d="M41.439 75.7999C32.2083 75.7999 31.1375 77.6913 31.1375 77.6913L30.51 77.5972L30.7877 75.6875C31.563 70.5418 36.3621 66.3435 41.439 66.3435H43.285H102.361C107.438 66.3435 112.237 70.5418 113.012 75.6875L113.29 77.5972L112.662 77.6913C112.662 77.6913 109.745 75.7999 100.515 75.7999C91.2843 75.7999 83.8999 81.4738 71.8999 81.4738C59.9001 81.4738 50.6694 75.7999 41.439 75.7999Z" fill="#82878E"/>
<path id="Vector_9" opacity="0.2" d="M34.4801 75.6875C35.2553 70.5418 40.0547 66.3435 45.1313 66.3435H43.285H41.439C36.3621 66.3435 31.563 70.5418 30.7877 75.6875L30.51 77.5972L31.1375 77.6913C31.1375 77.6913 31.5972 76.908 34.3843 76.3483L34.4801 75.6875Z" fill="white"/>
<path id="Vector_10" opacity="0.2" d="M109.394 75.6875C108.619 70.5418 103.819 66.3435 98.7427 66.3435H100.589H102.435C107.512 66.3435 112.311 70.5418 113.086 75.6875L113.364 77.5972L112.736 77.6913C112.736 77.6913 112.277 76.908 109.489 76.3483L109.394 75.6875Z" fill="black"/>
<path id="Vector_11" d="M32.7438 124.974H111.056C115.542 124.974 118.792 121.701 118.958 117.409H118.976V123.083C118.792 127.375 115.542 130.648 111.056 130.648H32.7438C28.2584 130.648 25.0077 127.375 24.8237 123.083V117.409H24.8417C25.0077 121.701 28.2584 124.974 32.7438 124.974Z" fill="#434A54"/>
<path id="Vector_12" d="M88.515 96.6045C88.515 95.5647 87.2784 94.7132 85.7459 94.7132C84.2134 94.7132 82.9769 95.5647 82.9769 96.6045C82.9769 97.6442 84.2134 98.4959 85.7459 98.4959C87.2784 98.4959 88.515 97.6444 88.515 96.6045ZM90.361 90.9305C91.8938 90.9305 93.1303 90.0791 93.1303 89.0393C93.1303 87.9996 91.8938 87.1481 90.361 87.1481C88.8287 87.1481 87.592 87.9996 87.592 89.0393C87.592 90.0791 88.8287 90.9305 90.361 90.9305ZM90.361 106.061C91.8938 106.061 93.1303 105.21 93.1303 104.17C93.1303 103.13 91.8938 102.279 90.361 102.279C88.8287 102.279 87.592 103.13 87.592 104.17C87.592 105.21 88.8287 106.061 90.361 106.061ZM97.7457 96.6045C97.7457 95.5647 96.5089 94.7132 94.9764 94.7132C93.4439 94.7132 92.2073 95.5647 92.2073 96.6045C92.2073 97.6442 93.4439 98.4959 94.9764 98.4959C96.5089 98.4959 97.7457 97.6444 97.7457 96.6045ZM99.5917 102.278C98.0592 102.278 96.8227 103.13 96.8227 104.17C96.8227 105.209 98.0592 106.061 99.5917 106.061C101.124 106.061 102.361 105.209 102.361 104.17C102.361 103.13 101.124 102.278 99.5917 102.278ZM99.5917 90.9305C101.124 90.9305 102.361 90.0791 102.361 89.0393C102.361 87.9996 101.124 87.1481 99.5917 87.1481C98.0592 87.1481 96.8227 87.9996 96.8227 89.0393C96.8227 90.0791 98.0594 90.9305 99.5917 90.9305ZM101.438 96.6045C101.438 97.6442 102.675 98.4959 104.207 98.4959C105.739 98.4959 106.976 97.6442 106.976 96.6045C106.976 95.5647 105.739 94.7132 104.207 94.7132C102.675 94.7132 101.438 95.5647 101.438 96.6045ZM60.8231 96.6045C60.8231 95.5647 59.5864 94.7132 58.0538 94.7132C56.5213 94.7132 55.2848 95.5647 55.2848 96.6045C55.2848 97.6442 56.5213 98.4959 58.0538 98.4959C59.5864 98.4959 60.8231 97.6444 60.8231 96.6045ZM65.4385 104.17C65.4385 103.13 64.2019 102.279 62.6694 102.279C61.1369 102.279 59.9001 103.13 59.9001 104.17C59.9001 105.21 61.1369 106.061 62.6694 106.061C64.2019 106.061 65.4385 105.21 65.4385 104.17ZM62.6694 90.9305C64.2019 90.9305 65.4385 90.0791 65.4385 89.0393C65.4385 87.9996 64.2019 87.1481 62.6694 87.1481C61.1369 87.1481 59.9001 87.9996 59.9001 89.0393C59.9001 90.0791 61.1369 90.9305 62.6694 90.9305ZM70.0538 96.6045C70.0538 95.5647 68.8171 94.7132 67.2845 94.7132C65.752 94.7132 64.5152 95.5647 64.5152 96.6045C64.5152 97.6442 65.752 98.4959 67.2845 98.4959C68.8171 98.4959 70.0538 97.6444 70.0538 96.6045ZM69.1308 89.0393C69.1308 90.0791 70.3674 90.9305 71.8999 90.9305C73.4324 90.9305 74.6689 90.0791 74.6689 89.0393C74.6689 87.9996 73.4324 87.1481 71.8999 87.1481C70.3676 87.1481 69.1308 87.9993 69.1308 89.0393ZM74.6689 104.17C74.6689 103.13 73.4324 102.279 71.8999 102.279C70.3676 102.279 69.1308 103.13 69.1308 104.17C69.1308 105.21 70.3674 106.061 71.8999 106.061C73.4324 106.061 74.6689 105.21 74.6689 104.17ZM79.2843 96.6045C79.2843 95.5647 78.0478 94.7132 76.5152 94.7132C74.9827 94.7132 73.7459 95.5647 73.7459 96.6045C73.7459 97.6442 74.9827 98.4959 76.5152 98.4959C78.0478 98.4959 79.2843 97.6444 79.2843 96.6045ZM83.8999 89.0393C83.8999 87.9996 82.6631 87.1481 81.1306 87.1481C79.5981 87.1481 78.3615 87.9996 78.3615 89.0393C78.3615 90.0791 79.5981 90.9305 81.1306 90.9305C82.6631 90.9305 83.8999 90.0791 83.8999 89.0393ZM81.1303 102.278C79.5978 102.278 78.3613 103.13 78.3613 104.17C78.3613 105.209 79.5978 106.061 81.1303 106.061C82.6629 106.061 83.8996 105.209 83.8996 104.17C83.8996 103.13 82.6629 102.278 81.1303 102.278ZM32.7437 124.974C28.2583 124.974 25.0076 121.701 24.8417 117.409C24.8056 116.823 24.8417 116.236 24.9335 115.63L30.5098 77.5974L31.1373 77.6915C31.1373 77.6915 32.2081 75.8 41.4387 75.8C50.6692 75.8 59.8999 81.474 71.8997 81.474C83.8996 81.474 91.2841 75.8 100.515 75.8C109.745 75.8 112.662 77.6915 112.662 77.6915L113.29 77.5974L118.866 115.63C118.957 116.236 118.994 116.823 118.957 117.409C118.792 121.701 115.541 124.974 111.055 124.974H32.7437ZM39.5927 98.4959C41.1252 98.4959 42.362 97.6442 42.362 96.6045C42.362 95.5647 41.1252 94.7132 39.5927 94.7132C38.0604 94.7132 36.8234 95.5647 36.8234 96.6045C36.8234 97.6442 38.0604 98.4959 39.5927 98.4959ZM46.9773 104.17C46.9773 103.13 45.7406 102.279 44.208 102.279C42.6755 102.279 41.439 103.13 41.439 104.17C41.439 105.21 42.6755 106.061 44.208 106.061C45.7406 106.061 46.9773 105.21 46.9773 104.17ZM44.208 90.9305C45.7406 90.9305 46.9773 90.0791 46.9773 89.0393C46.9773 87.9996 45.7406 87.1481 44.208 87.1481C42.6755 87.1481 41.439 87.9996 41.439 89.0393C41.439 90.0791 42.6755 90.9305 44.208 90.9305ZM48.8234 94.7132C47.2909 94.7132 46.0541 95.5647 46.0541 96.6045C46.0541 97.6442 47.2909 98.4959 48.8234 98.4959C50.3559 98.4959 51.5925 97.6442 51.5925 96.6045C51.5925 95.5647 50.3559 94.7132 48.8234 94.7132ZM53.4387 102.278C51.9062 102.278 50.6694 103.13 50.6694 104.17C50.6694 105.209 51.9062 106.061 53.4387 106.061C54.9713 106.061 56.208 105.209 56.208 104.17C56.208 103.13 54.9713 102.278 53.4387 102.278ZM50.6694 89.0393C50.6694 90.0791 51.9062 90.9305 53.4387 90.9305C54.9713 90.9305 56.208 90.0791 56.208 89.0393C56.208 87.9996 54.9713 87.1481 53.4387 87.1481C51.9062 87.1481 50.6694 87.9993 50.6694 89.0393ZM90.361 109.844H53.4387C51.9062 109.844 50.6694 110.695 50.6694 111.735C50.6694 112.775 51.9062 113.626 53.4387 113.626H90.361C91.8938 113.626 93.1303 112.775 93.1303 111.735C93.1303 110.695 91.8938 109.844 90.361 109.844Z" fill="#656D78"/>
<g id="Group" opacity="0.2">
<path id="Vector_13" d="M99.5921 89.9851C101.125 89.9851 102.361 90.8366 102.361 91.8763C102.361 92.9161 101.125 93.7678 99.5921 93.7678C98.0595 93.7678 96.823 92.9161 96.823 91.8763C96.823 90.8366 98.0598 89.9851 99.5921 89.9851Z" fill="black"/>
<path id="Vector_14" d="M104.207 97.5503C105.74 97.5503 106.977 98.402 106.977 99.4418C106.977 100.482 105.74 101.333 104.207 101.333C102.675 101.333 101.438 100.482 101.438 99.4418C101.438 98.402 102.675 97.5503 104.207 97.5503Z" fill="black"/>
<path id="Vector_15" d="M99.5921 105.115C101.125 105.115 102.361 105.967 102.361 107.007C102.361 108.046 101.125 108.898 99.5921 108.898C98.0595 108.898 96.823 108.046 96.823 107.007C96.823 105.967 98.0598 105.115 99.5921 105.115Z" fill="black"/>
<path id="Vector_16" d="M94.9763 97.5503C96.5089 97.5503 97.7456 98.402 97.7456 99.4418C97.7456 100.482 96.5089 101.333 94.9763 101.333C93.4438 101.333 92.2073 100.482 92.2073 99.4418C92.2073 98.402 93.4438 97.5503 94.9763 97.5503Z" fill="black"/>
<path id="Vector_17" d="M90.3611 89.9851C91.8939 89.9851 93.1304 90.8366 93.1304 91.8763C93.1304 92.9161 91.8939 93.7678 90.3611 93.7678C88.8288 93.7678 87.592 92.9161 87.592 91.8763C87.592 90.8366 88.8288 89.9851 90.3611 89.9851Z" fill="black"/>
<path id="Vector_18" d="M81.1304 89.9851C82.6629 89.9851 83.8997 90.8366 83.8997 91.8763C83.8997 92.9161 82.6629 93.7678 81.1304 93.7678C79.5979 93.7678 78.3613 92.9161 78.3613 91.8763C78.3613 90.8366 79.5981 89.9851 81.1304 89.9851Z" fill="black"/>
<path id="Vector_19" d="M85.7459 97.5503C87.2784 97.5503 88.5149 98.402 88.5149 99.4418C88.5149 100.482 87.2784 101.333 85.7459 101.333C84.2133 101.333 82.9768 100.482 82.9768 99.4418C82.9768 98.402 84.2133 97.5503 85.7459 97.5503Z" fill="black"/>
<path id="Vector_20" d="M93.1304 107.007C93.1304 108.046 91.8939 108.898 90.3611 108.898C88.8288 108.898 87.592 108.046 87.592 107.007C87.592 105.967 88.8288 105.115 90.3611 105.115C91.8939 105.115 93.1304 105.967 93.1304 107.007Z" fill="black"/>
<path id="Vector_21" d="M90.3613 112.681C91.894 112.681 93.1306 113.532 93.1306 114.572C93.1306 115.612 91.894 116.463 90.3613 116.463H53.439C51.9065 116.463 50.6697 115.612 50.6697 114.572C50.6697 113.532 51.9065 112.681 53.439 112.681H90.3613Z" fill="black"/>
<path id="Vector_22" d="M81.1304 105.115C82.6629 105.115 83.8997 105.967 83.8997 107.007C83.8997 108.046 82.6629 108.898 81.1304 108.898C79.5979 108.898 78.3613 108.046 78.3613 107.007C78.3613 105.967 79.5981 105.115 81.1304 105.115Z" fill="black"/>
<path id="Vector_23" d="M71.8999 105.115C73.4325 105.115 74.669 105.967 74.669 107.007C74.669 108.046 73.4325 108.898 71.8999 108.898C70.3676 108.898 69.1309 108.046 69.1309 107.007C69.1309 105.967 70.3676 105.115 71.8999 105.115Z" fill="black"/>
<path id="Vector_24" d="M76.5154 97.5503C78.0479 97.5503 79.2845 98.402 79.2845 99.4418C79.2845 100.482 78.0479 101.333 76.5154 101.333C74.9829 101.333 73.7461 100.482 73.7461 99.4418C73.7461 98.402 74.9831 97.5503 76.5154 97.5503Z" fill="black"/>
<path id="Vector_25" d="M71.8999 89.9851C73.4325 89.9851 74.669 90.8366 74.669 91.8763C74.669 92.9161 73.4325 93.7678 71.8999 93.7678C70.3676 93.7678 69.1309 92.9161 69.1309 91.8763C69.1309 90.8366 70.3676 89.9851 71.8999 89.9851Z" fill="black"/>
<path id="Vector_26" d="M67.2849 97.5503C68.8172 97.5503 70.0542 98.402 70.0542 99.4418C70.0542 100.482 68.8174 101.333 67.2849 101.333C65.7524 101.333 64.5156 100.482 64.5156 99.4418C64.5156 98.402 65.7524 97.5503 67.2849 97.5503Z" fill="black"/>
<path id="Vector_27" d="M58.0542 97.5503C59.5867 97.5503 60.8235 98.402 60.8235 99.4418C60.8235 100.482 59.5867 101.333 58.0542 101.333C56.5217 101.333 55.2852 100.482 55.2852 99.4418C55.2852 98.402 56.5217 97.5503 58.0542 97.5503Z" fill="black"/>
<path id="Vector_28" d="M62.6697 89.9851C64.2022 89.9851 65.4388 90.8366 65.4388 91.8763C65.4388 92.9161 64.2022 93.7678 62.6697 93.7678C61.1372 93.7678 59.9004 92.9161 59.9004 91.8763C59.9004 90.8366 61.1372 89.9851 62.6697 89.9851Z" fill="black"/>
<path id="Vector_29" d="M53.439 89.9851C54.9715 89.9851 56.2083 90.8366 56.2083 91.8763C56.2083 92.9161 54.9715 93.7678 53.439 93.7678C51.9065 93.7678 50.6697 92.9161 50.6697 91.8763C50.6697 90.8366 51.9065 89.9851 53.439 89.9851Z" fill="black"/>
<path id="Vector_30" d="M48.8237 97.5503C50.3563 97.5503 51.5928 98.402 51.5928 99.4418C51.5928 100.482 50.3563 101.333 48.8237 101.333C47.2912 101.333 46.0544 100.482 46.0544 99.4418C46.0544 98.402 47.2915 97.5503 48.8237 97.5503Z" fill="black"/>
<path id="Vector_31" d="M44.2083 89.9851C45.7408 89.9851 46.9776 90.8366 46.9776 91.8763C46.9776 92.9161 45.7408 93.7678 44.2083 93.7678C42.6758 93.7678 41.4392 92.9161 41.4392 91.8763C41.4392 90.8366 42.6758 89.9851 44.2083 89.9851Z" fill="black"/>
<path id="Vector_32" d="M39.5928 97.5503C41.1253 97.5503 42.3621 98.402 42.3621 99.4418C42.3621 100.482 41.1253 101.333 39.5928 101.333C38.0605 101.333 36.8235 100.482 36.8235 99.4418C36.8235 98.402 38.0605 97.5503 39.5928 97.5503Z" fill="black"/>
<path id="Vector_33" d="M44.2083 105.115C45.7408 105.115 46.9776 105.967 46.9776 107.007C46.9776 108.046 45.7408 108.898 44.2083 108.898C42.6758 108.898 41.4392 108.046 41.4392 107.007C41.4392 105.967 42.6758 105.115 44.2083 105.115Z" fill="black"/>
<path id="Vector_34" d="M56.2083 107.007C56.2083 108.046 54.9715 108.898 53.439 108.898C51.9065 108.898 50.6697 108.046 50.6697 107.007C50.6697 105.967 51.9065 105.115 53.439 105.115C54.9715 105.115 56.2083 105.967 56.2083 107.007Z" fill="black"/>
<path id="Vector_35" d="M62.6697 105.115C64.2022 105.115 65.4388 105.967 65.4388 107.007C65.4388 108.046 64.2022 108.898 62.6697 108.898C61.1372 108.898 59.9004 108.046 59.9004 107.007C59.9004 105.967 61.1372 105.115 62.6697 105.115Z" fill="black"/>
</g>
<path id="Vector_36" d="M99.5918 87.1479C101.124 87.1479 102.361 87.9994 102.361 89.0392C102.361 90.0789 101.124 90.9304 99.5918 90.9304C98.0593 90.9304 96.8228 90.0789 96.8228 89.0392C96.8228 87.9994 98.0595 87.1479 99.5918 87.1479Z" fill="#E6E9ED"/>
<path id="Vector_37" d="M104.207 94.7131C105.74 94.7131 106.976 95.5646 106.976 96.6044C106.976 97.6441 105.74 98.4958 104.207 98.4958C102.675 98.4958 101.438 97.6441 101.438 96.6044C101.438 95.5646 102.675 94.7131 104.207 94.7131Z" fill="#E6E9ED"/>
<path id="Vector_38" d="M99.5918 102.278C101.124 102.278 102.361 103.13 102.361 104.17C102.361 105.209 101.124 106.061 99.5918 106.061C98.0593 106.061 96.8228 105.209 96.8228 104.17C96.8228 103.13 98.0595 102.278 99.5918 102.278Z" fill="#E6E9ED"/>
<path id="Vector_39" d="M94.9763 94.7131C96.5089 94.7131 97.7456 95.5646 97.7456 96.6044C97.7456 97.6441 96.5089 98.4958 94.9763 98.4958C93.4438 98.4958 92.2073 97.6441 92.2073 96.6044C92.2073 95.5646 93.4438 94.7131 94.9763 94.7131Z" fill="#E6E9ED"/>
<path id="Vector_40" d="M90.3611 87.1479C91.8939 87.1479 93.1304 87.9994 93.1304 89.0392C93.1304 90.0789 91.8939 90.9304 90.3611 90.9304C88.8288 90.9304 87.592 90.0789 87.592 89.0392C87.592 87.9994 88.8288 87.1479 90.3611 87.1479Z" fill="#E6E9ED"/>
<path id="Vector_41" d="M81.1304 87.1479C82.6629 87.1479 83.8997 87.9994 83.8997 89.0392C83.8997 90.0789 82.6629 90.9304 81.1304 90.9304C79.5979 90.9304 78.3613 90.0789 78.3613 89.0392C78.3613 87.9994 79.5981 87.1479 81.1304 87.1479Z" fill="#E6E9ED"/>
<path id="Vector_42" d="M85.7459 94.7131C87.2784 94.7131 88.5149 95.5646 88.5149 96.6044C88.5149 97.6441 87.2784 98.4958 85.7459 98.4958C84.2133 98.4958 82.9768 97.6441 82.9768 96.6044C82.9768 95.5646 84.2133 94.7131 85.7459 94.7131Z" fill="#E6E9ED"/>
<path id="Vector_43" d="M93.1304 104.17C93.1304 105.209 91.8939 106.061 90.3611 106.061C88.8288 106.061 87.592 105.209 87.592 104.17C87.592 103.13 88.8288 102.278 90.3611 102.278C91.8939 102.278 93.1304 103.13 93.1304 104.17Z" fill="#E6E9ED"/>
<path id="Vector_44" d="M90.3613 109.844C91.894 109.844 93.1306 110.695 93.1306 111.735C93.1306 112.774 91.894 113.626 90.3613 113.626H53.439C51.9065 113.626 50.6697 112.774 50.6697 111.735C50.6697 110.695 51.9065 109.844 53.439 109.844H90.3613Z" fill="#E6E9ED"/>
<path id="Vector_45" d="M81.1304 102.278C82.6629 102.278 83.8997 103.13 83.8997 104.17C83.8997 105.209 82.6629 106.061 81.1304 106.061C79.5979 106.061 78.3613 105.209 78.3613 104.17C78.3613 103.13 79.5981 102.278 81.1304 102.278Z" fill="#E6E9ED"/>
<path id="Vector_46" d="M71.8999 102.278C73.4325 102.278 74.669 103.13 74.669 104.17C74.669 105.209 73.4325 106.061 71.8999 106.061C70.3676 106.061 69.1309 105.209 69.1309 104.17C69.1309 103.13 70.3676 102.278 71.8999 102.278Z" fill="#E6E9ED"/>
<path id="Vector_47" d="M76.5154 94.7131C78.0479 94.7131 79.2845 95.5646 79.2845 96.6044C79.2845 97.6441 78.0479 98.4958 76.5154 98.4958C74.9829 98.4958 73.7461 97.6441 73.7461 96.6044C73.7461 95.5646 74.9831 94.7131 76.5154 94.7131Z" fill="#E6E9ED"/>
<path id="Vector_48" d="M71.8999 87.1479C73.4325 87.1479 74.669 87.9994 74.669 89.0392C74.669 90.0789 73.4325 90.9304 71.8999 90.9304C70.3676 90.9304 69.1309 90.0789 69.1309 89.0392C69.1309 87.9994 70.3676 87.1479 71.8999 87.1479Z" fill="#E6E9ED"/>
<path id="Vector_49" d="M67.2849 94.7131C68.8172 94.7131 70.0542 95.5646 70.0542 96.6044C70.0542 97.6441 68.8174 98.4958 67.2849 98.4958C65.7524 98.4958 64.5156 97.6441 64.5156 96.6044C64.5156 95.5646 65.7524 94.7131 67.2849 94.7131Z" fill="#E6E9ED"/>
<path id="Vector_50" d="M58.0542 94.7131C59.5867 94.7131 60.8235 95.5646 60.8235 96.6044C60.8235 97.6441 59.5867 98.4958 58.0542 98.4958C56.5217 98.4958 55.2852 97.6441 55.2852 96.6044C55.2852 95.5646 56.5217 94.7131 58.0542 94.7131Z" fill="#E6E9ED"/>
<path id="Vector_51" d="M62.6697 87.1479C64.2022 87.1479 65.4388 87.9994 65.4388 89.0392C65.4388 90.0789 64.2022 90.9304 62.6697 90.9304C61.1372 90.9304 59.9004 90.0789 59.9004 89.0392C59.9004 87.9994 61.1372 87.1479 62.6697 87.1479Z" fill="#E6E9ED"/>
<path id="Vector_52" d="M53.439 87.1479C54.9715 87.1479 56.2083 87.9994 56.2083 89.0392C56.2083 90.0789 54.9715 90.9304 53.439 90.9304C51.9065 90.9304 50.6697 90.0789 50.6697 89.0392C50.6697 87.9994 51.9065 87.1479 53.439 87.1479Z" fill="#E6E9ED"/>
<path id="Vector_53" d="M48.8237 94.7131C50.3563 94.7131 51.5928 95.5646 51.5928 96.6044C51.5928 97.6441 50.3563 98.4958 48.8237 98.4958C47.2912 98.4958 46.0544 97.6441 46.0544 96.6044C46.0544 95.5646 47.2915 94.7131 48.8237 94.7131Z" fill="#E6E9ED"/>
<path id="Vector_54" d="M44.2083 87.1479C45.7408 87.1479 46.9776 87.9994 46.9776 89.0392C46.9776 90.0789 45.7408 90.9304 44.2083 90.9304C42.6758 90.9304 41.4392 90.0789 41.4392 89.0392C41.4392 87.9994 42.6758 87.1479 44.2083 87.1479Z" fill="#E6E9ED"/>
<path id="Vector_55" d="M39.5928 94.7131C41.1253 94.7131 42.3621 95.5646 42.3621 96.6044C42.3621 97.6441 41.1253 98.4958 39.5928 98.4958C38.0605 98.4958 36.8235 97.6441 36.8235 96.6044C36.8235 95.5646 38.0605 94.7131 39.5928 94.7131Z" fill="#E6E9ED"/>
<path id="Vector_56" d="M44.2083 102.278C45.7408 102.278 46.9776 103.13 46.9776 104.17C46.9776 105.209 45.7408 106.061 44.2083 106.061C42.6758 106.061 41.4392 105.209 41.4392 104.17C41.4392 103.13 42.6758 102.278 44.2083 102.278Z" fill="#E6E9ED"/>
<path id="Vector_57" d="M56.2083 104.17C56.2083 105.209 54.9715 106.061 53.439 106.061C51.9065 106.061 50.6697 105.209 50.6697 104.17C50.6697 103.13 51.9065 102.278 53.439 102.278C54.9715 102.278 56.2083 103.13 56.2083 104.17Z" fill="#E6E9ED"/>
<path id="Vector_58" d="M62.6697 102.278C64.2022 102.278 65.4388 103.13 65.4388 104.17C65.4388 105.209 64.2022 106.061 62.6697 106.061C61.1372 106.061 59.9004 105.209 59.9004 104.17C59.9004 103.13 61.1372 102.278 62.6697 102.278Z" fill="#E6E9ED"/>
<path id="Vector_59" opacity="0.2" d="M113.29 79.4886L113.021 77.6381L112.662 77.6917C112.662 77.6917 109.745 75.8003 100.515 75.8003C91.2843 75.8003 83.8999 81.474 71.8999 81.474C59.9001 81.474 50.6694 75.8 41.439 75.8C32.2083 75.8 31.1375 77.6915 31.1375 77.6915L30.7787 77.6378L30.51 79.4884L31.1375 79.5825C31.1375 79.5825 32.2083 77.6913 41.439 77.6913C50.6694 77.6913 59.9001 83.3652 71.8999 83.3652C83.8999 83.3652 91.2843 77.6913 100.515 77.6913C109.745 77.6913 112.662 79.5825 112.662 79.5825L113.29 79.4886Z" fill="black"/>
<g id="Group_2" opacity="0.2">
<path id="Vector_60" d="M42.7965 75.8511C42.344 75.8247 41.8915 75.8 41.439 75.8C41.8915 75.8 42.344 75.8247 42.7946 75.8511H42.7965Z" fill="white"/>
<path id="Vector_61" d="M28.5342 117.409C28.4982 116.824 28.5342 116.236 28.6261 115.63L34.0996 78.2956C31.5556 78.8496 31.1375 79.5828 31.1375 79.5828L30.51 79.4886L30.7787 77.6381L31.1375 77.6918L30.51 77.5977L24.9338 115.631C24.8419 116.236 24.8059 116.824 24.8419 117.409C25.0077 121.702 28.2583 124.974 32.7439 124.974H36.4362C31.9504 124.974 28.7 121.702 28.5342 117.409Z" fill="white"/>
</g>
<g id="Group_3" opacity="0.2">
<path id="Vector_62" d="M112.663 77.6915H112.665C112.663 77.6877 111.587 75.8 102.363 75.8C102.204 75.8 102.044 75.8131 101.885 75.8185C110.029 75.9942 112.663 77.6915 112.663 77.6915Z" fill="black"/>
<path id="Vector_63" d="M118.868 115.631L113.292 77.5977L112.984 77.6438L113.021 77.6383L113.29 79.4889L112.663 79.583C112.663 79.583 111.844 79.0622 109.742 78.5653L115.176 115.63C115.268 116.236 115.304 116.824 115.268 117.409C115.102 121.702 111.851 124.974 107.366 124.974H111.058C115.544 124.974 118.794 121.702 118.96 117.409C118.996 116.824 118.96 116.236 118.868 115.631Z" fill="black"/>
</g>
<path id="Vector_64" opacity="0.2" d="M43.2852 64.4521H102.361V66.3434H43.2852V64.4521Z" fill="black"/>
<path id="Vector_65" opacity="0.2" d="M48.8235 13.3868H103.794C104.807 12.2326 106.261 11.4956 107.899 11.4956H48.8235C45.7587 11.4956 43.2852 14.0297 43.2852 17.1695V19.061C43.2852 15.9209 45.7587 13.3868 48.8235 13.3868Z" fill="black"/>
<path id="Vector_66" opacity="0.5" d="M43.2852 19.0608V64.4521H45.1314V17.1694C45.1314 16.0871 45.4415 15.088 45.9517 14.2273C44.358 15.2228 43.2852 17.0031 43.2852 19.0608Z" fill="white"/>
<g id="Group_4" opacity="0.2">
<path id="Vector_67" d="M105.541 12.0528C105.572 12.0378 105.599 12.017 105.63 12.0017C105.599 12.0167 105.572 12.0375 105.541 12.0528Z" fill="black"/>
<path id="Vector_68" d="M106.545 11.6872C106.608 11.6703 106.668 11.64 106.733 11.6267C106.668 11.642 106.609 11.6703 106.545 11.6872Z" fill="black"/>
<path id="Vector_69" d="M103.794 13.387H101.948C101.066 14.3917 100.515 15.7087 100.515 17.1696V64.4523H102.361V17.1696C102.361 15.7087 102.912 14.3917 103.794 13.387Z" fill="black"/>
</g>
<g id="Group_5">
<path id="Vector_70" d="M111.056 125.92H32.7438C27.8202 125.92 24.1099 122.357 23.9187 117.446C23.8809 116.838 23.915 116.19 24.0215 115.484L29.8752 75.549C30.7172 69.9488 35.9058 65.3979 41.4388 65.3979H102.361C107.894 65.3979 113.082 69.9489 113.924 75.5435L119.778 115.49C119.884 116.19 119.918 116.838 119.879 117.468C119.69 122.357 115.98 125.92 111.056 125.92ZM41.4391 67.2892C36.7785 67.2892 32.4104 71.1218 31.7 75.8314L25.846 115.77C25.7595 116.343 25.7325 116.856 25.7632 117.35C25.9128 121.228 28.8478 124.028 32.7438 124.028H111.056C114.952 124.028 117.887 121.228 118.035 117.372C118.068 116.856 118.04 116.343 117.954 115.776L112.1 75.8259C111.39 71.1218 107.021 67.2892 102.361 67.2892H41.4391Z" fill="#3A3847"/>
<path id="Vector_71" d="M111.056 131.593H32.7438C27.8311 131.593 24.1118 128.032 23.9008 123.123C23.8791 122.602 24.2741 122.161 24.7843 122.136C25.2855 122.107 25.7219 122.519 25.747 123.042C25.9109 126.9 28.855 129.702 32.7438 129.702H111.056C114.945 129.702 117.889 126.9 118.053 123.042C118.077 122.519 118.495 122.109 119.016 122.136C119.526 122.161 119.921 122.602 119.899 123.123C119.688 128.032 115.969 131.593 111.056 131.593Z" fill="#3A3847"/>
<path id="Vector_72" d="M44.2082 91.8758C42.1387 91.8758 40.5161 90.6291 40.5161 89.039C40.5161 87.4488 42.1387 86.2021 44.2082 86.2021C46.278 86.2021 47.9005 87.4488 47.9005 89.039C47.9005 90.6291 46.278 91.8758 44.2082 91.8758ZM44.2082 88.0934C43.0977 88.0934 42.3622 88.6622 42.3622 89.039C42.3622 89.416 43.0977 89.9846 44.2082 89.9846C45.3189 89.9846 46.0545 89.416 46.0545 89.039C46.0545 88.6622 45.3189 88.0934 44.2082 88.0934Z" fill="#3A3847"/>
<path id="Vector_73" d="M48.8234 99.4412C46.7537 99.4412 45.1311 98.1945 45.1311 96.6042C45.1311 95.0138 46.7537 93.7673 48.8234 93.7673C50.8932 93.7673 52.5157 95.014 52.5157 96.6042C52.5157 98.1943 50.8932 99.4412 48.8234 99.4412ZM48.8234 95.6586C47.7127 95.6586 46.9774 96.2274 46.9774 96.6042C46.9774 96.981 47.7129 97.5498 48.8234 97.5498C49.9339 97.5498 50.6695 96.981 50.6695 96.6042C50.6695 96.2274 49.9341 95.6586 48.8234 95.6586Z" fill="#3A3847"/>
<path id="Vector_74" d="M58.0544 99.4412C55.9846 99.4412 54.3623 98.1945 54.3623 96.6042C54.3623 95.0138 55.9846 93.7673 58.0544 93.7673C60.1242 93.7673 61.7467 95.014 61.7467 96.6042C61.7467 98.1943 60.1242 99.4412 58.0544 99.4412ZM58.0544 95.6586C56.9439 95.6586 56.2084 96.2274 56.2084 96.6042C56.2084 96.981 56.9439 97.5498 58.0544 97.5498C59.1651 97.5498 59.9007 96.981 59.9007 96.6042C59.9007 96.2274 59.1649 95.6586 58.0544 95.6586Z" fill="#3A3847"/>
<path id="Vector_75" d="M67.2851 99.4412C65.2153 99.4412 63.5928 98.1945 63.5928 96.6042C63.5928 95.0138 65.2153 93.7673 67.2851 93.7673C69.3546 93.7673 70.9774 95.014 70.9774 96.6042C70.9774 98.1943 69.3546 99.4412 67.2851 99.4412ZM67.2851 95.6586C66.1746 95.6586 65.4388 96.2274 65.4388 96.6042C65.4388 96.981 66.1746 97.5498 67.2851 97.5498C68.3956 97.5498 69.1314 96.981 69.1314 96.6042C69.1314 96.2274 68.3956 95.6586 67.2851 95.6586Z" fill="#3A3847"/>
<path id="Vector_76" d="M76.5156 99.4412C74.4458 99.4412 72.8232 98.1945 72.8232 96.6042C72.8232 95.0138 74.4458 93.7673 76.5156 93.7673C78.5851 93.7673 80.2077 95.014 80.2077 96.6042C80.2077 98.1943 78.5851 99.4412 76.5156 99.4412ZM76.5156 95.6586C75.4048 95.6586 74.6693 96.2274 74.6693 96.6042C74.6693 96.981 75.4051 97.5498 76.5156 97.5498C77.6261 97.5498 78.3616 96.981 78.3616 96.6042C78.3616 96.2274 77.6261 95.6586 76.5156 95.6586Z" fill="#3A3847"/>
<path id="Vector_77" d="M85.746 99.4412C83.6763 99.4412 82.054 98.1945 82.054 96.6042C82.054 95.0138 83.6763 93.7673 85.746 93.7673C87.8158 93.7673 89.4381 95.014 89.4381 96.6042C89.4381 98.1943 87.8158 99.4412 85.746 99.4412ZM85.746 95.6586C84.6353 95.6586 83.9 96.2274 83.9 96.6042C83.9 96.981 84.6356 97.5498 85.746 97.5498C86.8565 97.5498 87.5921 96.981 87.5921 96.6042C87.5921 96.2274 86.8565 95.6586 85.746 95.6586Z" fill="#3A3847"/>
<path id="Vector_78" d="M94.9765 99.4412C92.907 99.4412 91.2844 98.1945 91.2844 96.6042C91.2844 95.0138 92.907 93.7673 94.9765 93.7673C97.0463 93.7673 98.6688 95.014 98.6688 96.6042C98.6688 98.1943 97.0463 99.4412 94.9765 99.4412ZM94.9765 95.6586C93.866 95.6586 93.1305 96.2274 93.1305 96.6042C93.1305 96.981 93.8663 97.5498 94.9765 97.5498C96.0872 97.5498 96.8228 96.981 96.8228 96.6042C96.8228 96.2274 96.0872 95.6586 94.9765 95.6586Z" fill="#3A3847"/>
<path id="Vector_79" d="M104.207 99.4412C102.138 99.4412 100.515 98.1945 100.515 96.6042C100.515 95.0138 102.138 93.7673 104.207 93.7673C106.277 93.7673 107.9 95.014 107.9 96.6042C107.9 98.1943 106.277 99.4412 104.207 99.4412ZM104.207 95.6586C103.097 95.6586 102.361 96.2274 102.361 96.6042C102.361 96.981 103.097 97.5498 104.207 97.5498C105.318 97.5498 106.054 96.981 106.054 96.6042C106.054 96.2274 105.318 95.6586 104.207 95.6586Z" fill="#3A3847"/>
<path id="Vector_80" d="M39.593 99.4412C37.5234 99.4412 35.9006 98.1945 35.9006 96.6042C35.9006 95.0138 37.5232 93.7673 39.593 93.7673C41.6627 93.7673 43.2853 95.014 43.2853 96.6042C43.2853 98.1943 41.6627 99.4412 39.593 99.4412ZM39.593 95.6586C38.4825 95.6586 37.7467 96.2274 37.7467 96.6042C37.7467 96.981 38.4825 97.5498 39.593 97.5498C40.7034 97.5498 41.4392 96.981 41.4392 96.6042C41.4392 96.2274 40.7037 95.6586 39.593 95.6586Z" fill="#3A3847"/>
<path id="Vector_81" d="M53.4389 91.8758C51.3694 91.8758 49.7466 90.6291 49.7466 89.039C49.7466 87.4488 51.3691 86.2021 53.4389 86.2021C55.5087 86.2021 57.1312 87.4488 57.1312 89.039C57.1312 90.6291 55.5084 91.8758 53.4389 91.8758ZM53.4389 88.0934C52.3284 88.0934 51.5926 88.6622 51.5926 89.039C51.5926 89.416 52.3284 89.9846 53.4389 89.9846C54.5494 89.9846 55.2852 89.416 55.2852 89.039C55.2852 88.6622 54.5494 88.0934 53.4389 88.0934Z" fill="#3A3847"/>
<path id="Vector_82" d="M62.6694 91.8758C60.5996 91.8758 58.9771 90.6291 58.9771 89.039C58.9771 87.4488 60.5996 86.2021 62.6694 86.2021C64.7389 86.2021 66.3615 87.4488 66.3615 89.039C66.3615 90.6291 64.7389 91.8758 62.6694 91.8758ZM62.6694 88.0934C61.5587 88.0934 60.8231 88.6622 60.8231 89.039C60.8231 89.416 61.5587 89.9846 62.6694 89.9846C63.7799 89.9846 64.5154 89.416 64.5154 89.039C64.5154 88.6622 63.7799 88.0934 62.6694 88.0934Z" fill="#3A3847"/>
<path id="Vector_83" d="M71.9001 91.8758C69.8306 91.8758 68.208 90.6291 68.208 89.039C68.208 87.4488 69.8306 86.2021 71.9001 86.2021C73.9699 86.2021 75.5922 87.4488 75.5922 89.039C75.5922 90.6291 73.9699 91.8758 71.9001 91.8758ZM71.9001 88.0934C70.7896 88.0934 70.0541 88.6622 70.0541 89.039C70.0541 89.416 70.7896 89.9846 71.9001 89.9846C73.0108 89.9846 73.7461 89.416 73.7461 89.039C73.7461 88.6622 73.0108 88.0934 71.9001 88.0934Z" fill="#3A3847"/>
<path id="Vector_84" d="M81.1306 91.8758C79.061 91.8758 77.4385 90.6291 77.4385 89.039C77.4385 87.4488 79.061 86.2021 81.1306 86.2021C83.2003 86.2021 84.8229 87.4488 84.8229 89.039C84.8229 90.6291 83.2003 91.8758 81.1306 91.8758ZM81.1306 88.0934C80.0201 88.0934 79.2845 88.6622 79.2845 89.039C79.2845 89.416 80.0203 89.9846 81.1306 89.9846C82.2413 89.9846 82.9768 89.416 82.9768 89.039C82.9771 88.6622 82.2413 88.0934 81.1306 88.0934Z" fill="#3A3847"/>
<path id="Vector_85" d="M90.3613 91.8758C88.2918 91.8758 86.6692 90.6291 86.6692 89.039C86.6692 87.4488 88.2918 86.2021 90.3613 86.2021C92.431 86.2021 94.0536 87.4488 94.0536 89.039C94.0536 90.6291 92.431 91.8758 90.3613 91.8758ZM90.3613 88.0934C89.2508 88.0934 88.5152 88.6622 88.5152 89.039C88.5152 89.416 89.251 89.9846 90.3613 89.9846C91.472 89.9846 92.2076 89.416 92.2076 89.039C92.2076 88.6622 91.4718 88.0934 90.3613 88.0934Z" fill="#3A3847"/>
<path id="Vector_86" d="M99.592 91.8758C97.5222 91.8758 95.8997 90.6291 95.8997 89.039C95.8997 87.4488 97.5222 86.2021 99.592 86.2021C101.662 86.2021 103.284 87.4488 103.284 89.039C103.284 90.6291 101.662 91.8758 99.592 91.8758ZM99.592 88.0934C98.4813 88.0934 97.7459 88.6622 97.7459 89.039C97.7459 89.416 98.4815 89.9846 99.592 89.9846C100.702 89.9846 101.438 89.416 101.438 89.039C101.438 88.6622 100.703 88.0934 99.592 88.0934Z" fill="#3A3847"/>
<path id="Vector_87" d="M44.2082 107.006C42.1387 107.006 40.5161 105.759 40.5161 104.169C40.5161 102.579 42.1387 101.333 44.2082 101.333C46.278 101.333 47.9005 102.579 47.9005 104.169C47.9005 105.759 46.278 107.006 44.2082 107.006ZM44.2082 103.224C43.0977 103.224 42.3622 103.793 42.3622 104.169C42.3622 104.546 43.0977 105.115 44.2082 105.115C45.3189 105.115 46.0545 104.546 46.0545 104.169C46.0545 103.793 45.3189 103.224 44.2082 103.224Z" fill="#3A3847"/>
<path id="Vector_88" d="M53.4389 107.006C51.3694 107.006 49.7466 105.759 49.7466 104.169C49.7466 102.579 51.3691 101.333 53.4389 101.333C55.5087 101.333 57.1312 102.579 57.1312 104.169C57.1312 105.759 55.5084 107.006 53.4389 107.006ZM53.4389 103.224C52.3284 103.224 51.5926 103.793 51.5926 104.169C51.5926 104.546 52.3284 105.115 53.4389 105.115C54.5494 105.115 55.2852 104.546 55.2852 104.169C55.2852 103.793 54.5494 103.224 53.4389 103.224Z" fill="#3A3847"/>
<path id="Vector_89" d="M62.6694 107.006C60.5996 107.006 58.9771 105.759 58.9771 104.169C58.9771 102.579 60.5996 101.333 62.6694 101.333C64.7389 101.333 66.3615 102.579 66.3615 104.169C66.3615 105.759 64.7389 107.006 62.6694 107.006ZM62.6694 103.224C61.5587 103.224 60.8231 103.793 60.8231 104.169C60.8231 104.546 61.5587 105.115 62.6694 105.115C63.7799 105.115 64.5154 104.546 64.5154 104.169C64.5154 103.793 63.7799 103.224 62.6694 103.224Z" fill="#3A3847"/>
<path id="Vector_90" d="M71.9001 107.006C69.8306 107.006 68.208 105.759 68.208 104.169C68.208 102.579 69.8306 101.333 71.9001 101.333C73.9699 101.333 75.5922 102.579 75.5922 104.169C75.5922 105.759 73.9699 107.006 71.9001 107.006ZM71.9001 103.224C70.7896 103.224 70.0541 103.793 70.0541 104.169C70.0541 104.546 70.7896 105.115 71.9001 105.115C73.0108 105.115 73.7461 104.546 73.7461 104.169C73.7461 103.793 73.0108 103.224 71.9001 103.224Z" fill="#3A3847"/>
<path id="Vector_91" d="M81.1306 107.006C79.061 107.006 77.4385 105.759 77.4385 104.169C77.4385 102.579 79.061 101.333 81.1306 101.333C83.2003 101.333 84.8229 102.579 84.8229 104.169C84.8229 105.759 83.2003 107.006 81.1306 107.006ZM81.1306 103.224C80.0201 103.224 79.2845 103.793 79.2845 104.169C79.2845 104.546 80.0203 105.115 81.1306 105.115C82.2413 105.115 82.9768 104.546 82.9768 104.169C82.9771 103.793 82.2413 103.224 81.1306 103.224Z" fill="#3A3847"/>
<path id="Vector_92" d="M90.3613 107.006C88.2918 107.006 86.6692 105.759 86.6692 104.169C86.6692 102.579 88.2918 101.333 90.3613 101.333C92.431 101.333 94.0536 102.579 94.0536 104.169C94.0536 105.759 92.431 107.006 90.3613 107.006ZM90.3613 103.224C89.2508 103.224 88.5152 103.793 88.5152 104.169C88.5152 104.546 89.251 105.115 90.3613 105.115C91.472 105.115 92.2076 104.546 92.2076 104.169C92.2076 103.793 91.4718 103.224 90.3613 103.224Z" fill="#3A3847"/>
<path id="Vector_93" d="M99.592 107.006C97.5222 107.006 95.8997 105.759 95.8997 104.169C95.8997 102.579 97.5222 101.333 99.592 101.333C101.662 101.333 103.284 102.579 103.284 104.169C103.284 105.759 101.662 107.006 99.592 107.006ZM99.592 103.224C98.4813 103.224 97.7459 103.793 97.7459 104.169C97.7459 104.546 98.4815 105.115 99.592 105.115C100.702 105.115 101.438 104.546 101.438 104.169C101.438 103.793 100.703 103.224 99.592 103.224Z" fill="#3A3847"/>
<path id="Vector_94" d="M90.3612 114.572H53.4389C51.3694 114.572 49.7466 113.325 49.7466 111.735C49.7466 110.144 51.3691 108.898 53.4389 108.898H90.3612C92.431 108.898 94.0535 110.145 94.0535 111.735C94.0535 113.325 92.431 114.572 90.3612 114.572ZM53.4389 110.789C52.3284 110.789 51.5926 111.358 51.5926 111.735C51.5926 112.112 52.3284 112.68 53.4389 112.68H90.3612C91.4719 112.68 92.2075 112.112 92.2075 111.735C92.2075 111.358 91.4717 110.789 90.3612 110.789H53.4389Z" fill="#3A3847"/>
<path id="Vector_95" d="M71.9 82.4194C65.3809 82.4194 59.8047 80.8179 54.4106 79.2687C49.8927 77.9721 45.6253 76.7455 41.4391 76.7455C33.3335 76.7455 31.8894 78.2417 31.8748 78.2566C31.6172 78.7091 31.0815 78.8105 30.6436 78.5558C30.2038 78.2937 30.0828 77.6693 30.3388 77.2169C30.6526 76.6627 32.3814 74.8545 41.4391 74.8545C45.8795 74.8545 50.2658 76.1142 54.91 77.4477C60.1815 78.9622 65.6335 80.5284 71.9 80.5284C78.1541 80.5284 83.0848 78.9659 87.8537 77.455C92.0759 76.118 96.0621 74.8545 100.515 74.8545C109.906 74.8545 113.029 76.8086 113.157 76.8917C113.588 77.1726 113.716 77.7559 113.443 78.1975C113.169 78.6388 112.603 78.7642 112.176 78.4948C112.104 78.4522 109.17 76.7455 100.515 76.7455C96.3414 76.7455 92.4833 77.9683 88.3981 79.2614C83.7269 80.7422 78.4318 82.4194 71.9 82.4194Z" fill="#3A3847"/>
<path id="Vector_96" d="M111.592 122.136H32.2084C31.6984 122.136 31.2854 121.714 31.2854 121.191C31.2854 120.668 31.6984 120.245 32.2084 120.245H111.592C112.102 120.245 112.515 120.668 112.515 121.191C112.515 121.714 112.102 122.136 111.592 122.136Z" fill="#3A3847"/>
<path id="Vector_97" d="M32.2085 67.2889C30.6294 67.2889 29.4392 65.2553 29.4392 62.5608C29.4392 59.8659 30.6291 57.8325 32.2085 57.8325H39.5929C40.1031 57.8325 40.5162 58.2554 40.5162 58.7781C40.5162 59.3008 40.1031 59.7237 39.5929 59.7237H32.2085C32.0264 59.7237 31.2855 60.6362 31.2855 62.5608C31.2855 64.4854 32.0264 65.3976 32.2085 65.3976C32.7187 65.3976 33.1318 65.8205 33.1318 66.3433C33.1318 66.866 32.7187 67.2889 32.2085 67.2889Z" fill="#3A3847"/>
<path id="Vector_98" d="M111.592 67.2889C111.081 67.2889 110.668 66.866 110.668 66.3433C110.668 65.8205 111.081 65.3976 111.592 65.3976C111.774 65.3976 112.515 64.4854 112.515 62.5608C112.515 60.6362 111.774 59.7237 111.592 59.7237H106.053C105.543 59.7237 105.13 59.3008 105.13 58.7781C105.13 58.2554 105.543 57.8325 106.053 57.8325H111.592C113.171 57.8325 114.361 59.8661 114.361 62.5608C114.361 65.2553 113.171 67.2889 111.592 67.2889Z" fill="#3A3847"/>
<path id="Vector_99" d="M30.3624 63.5067H29.4394C28.9292 63.5067 28.5164 63.0836 28.5164 62.5611C28.5164 62.0384 28.9292 61.6152 29.4394 61.6152H30.3624C30.8726 61.6152 31.2857 62.0384 31.2857 62.5611C31.2854 63.0836 30.8724 63.5067 30.3624 63.5067Z" fill="#3A3847"/>
<path id="Vector_100" d="M114.361 63.5067H113.438C112.927 63.5067 112.515 63.0836 112.515 62.5611C112.515 62.0384 112.927 61.6152 113.438 61.6152H114.361C114.871 61.6152 115.284 62.0384 115.284 62.5611C115.284 63.0836 114.871 63.5067 114.361 63.5067Z" fill="#3A3847"/>
<path id="Vector_101" d="M78.3614 68.235H65.4386C64.9284 68.235 64.5156 67.8118 64.5156 67.2891C64.5156 66.7664 64.9284 66.3435 65.4386 66.3435H78.3614C78.8717 66.3435 79.2844 66.7664 79.2844 67.2891C79.2844 67.8118 78.8717 68.235 78.3614 68.235Z" fill="#3A3847"/>
<path id="Vector_102" d="M43.2851 63.5066C42.7749 63.5066 42.3621 63.0834 42.3621 62.561V17.1695C42.3621 16.647 42.7749 16.2239 43.2851 16.2239C43.7953 16.2239 44.2081 16.647 44.2081 17.1695V62.561C44.2081 63.0834 43.7953 63.5066 43.2851 63.5066Z" fill="#3A3847"/>
<path id="Vector_103" d="M113.438 20.0066C112.927 20.0066 112.515 19.5837 112.515 19.0609V17.1695C112.515 16.647 112.927 16.2239 113.438 16.2239C113.948 16.2239 114.361 16.647 114.361 17.1695V19.0609C114.361 19.5837 113.948 20.0066 113.438 20.0066Z" fill="#3A3847"/>
<path id="Vector_104" d="M102.361 63.5066C101.851 63.5066 101.438 63.0834 101.438 62.561V17.1695C101.438 16.647 101.851 16.2239 102.361 16.2239C102.871 16.2239 103.284 16.647 103.284 17.1695V62.561C103.284 63.0834 102.871 63.5066 102.361 63.5066Z" fill="#3A3847"/>
<path id="Vector_105" d="M107.899 12.4413H48.8234C48.3132 12.4413 47.9004 12.0184 47.9004 11.4957C47.9004 10.9729 48.3132 10.55 48.8234 10.55H107.899C108.409 10.55 108.822 10.9729 108.822 11.4957C108.822 12.0184 108.41 12.4413 107.899 12.4413Z" fill="#3A3847"/>
<path id="Vector_106" d="M113.438 20.0065H104.207C103.697 20.0065 103.284 19.5836 103.284 19.0608C103.284 18.5381 103.697 18.1152 104.207 18.1152H113.438C113.948 18.1152 114.361 18.5381 114.361 19.0608C114.361 19.5836 113.948 20.0065 113.438 20.0065Z" fill="#3A3847"/>
<path id="Vector_107" d="M43.2851 18.1154C42.7749 18.1154 42.3621 17.6923 42.3621 17.1696C42.3621 13.52 45.2611 10.55 48.8235 10.55C49.3337 10.55 49.7465 10.9729 49.7465 11.4957C49.7465 12.0184 49.3337 12.4413 48.8235 12.4413C46.2779 12.4413 44.2081 14.5617 44.2081 17.1696C44.2081 17.6923 43.7953 18.1154 43.2851 18.1154Z" fill="#3A3847"/>
<path id="Vector_108" d="M102.361 18.1154C101.851 18.1154 101.438 17.6923 101.438 17.1696C101.438 13.52 104.337 10.55 107.899 10.55C108.409 10.55 108.822 10.9729 108.822 11.4957C108.822 12.0184 108.409 12.4413 107.899 12.4413C105.354 12.4413 103.284 14.5617 103.284 17.1696C103.284 17.6923 102.871 18.1154 102.361 18.1154Z" fill="#3A3847"/>
<path id="Vector_109" d="M113.438 18.1154C112.928 18.1154 112.515 17.6923 112.515 17.1696C112.515 14.5617 110.445 12.4413 107.9 12.4413C107.389 12.4413 106.977 12.0184 106.977 11.4957C106.977 10.9729 107.389 10.55 107.9 10.55C111.462 10.55 114.361 13.52 114.361 17.1696C114.361 17.6923 113.948 18.1154 113.438 18.1154Z" fill="#3A3847"/>
<path id="Vector_110" d="M93.1304 23.7894H52.5158C52.0056 23.7894 51.5925 23.3663 51.5925 22.8436C51.5925 22.3211 52.0056 21.8979 52.5158 21.8979H93.1304C93.6406 21.8979 94.0534 22.3211 94.0534 22.8436C94.0534 23.3665 93.6406 23.7894 93.1304 23.7894Z" fill="#3A3847"/>
<path id="Vector_111" d="M93.1304 31.3546H52.5158C52.0056 31.3546 51.5925 30.9315 51.5925 30.4087C51.5925 29.8863 52.0056 29.4631 52.5158 29.4631H93.1304C93.6406 29.4631 94.0534 29.8863 94.0534 30.4087C94.0534 30.9315 93.6406 31.3546 93.1304 31.3546Z" fill="#3A3847"/>
<path id="Vector_112" d="M93.1304 38.9198H52.5158C52.0056 38.9198 51.5925 38.4966 51.5925 37.9739C51.5925 37.4515 52.0056 37.0283 52.5158 37.0283H93.1304C93.6406 37.0283 94.0534 37.4515 94.0534 37.9739C94.0534 38.4966 93.6406 38.9198 93.1304 38.9198Z" fill="#3A3847"/>
<path id="Vector_113" d="M93.1304 46.485H52.5158C52.0056 46.485 51.5925 46.0618 51.5925 45.5394C51.5925 45.0166 52.0056 44.5935 52.5158 44.5935H93.1304C93.6406 44.5935 94.0534 45.0166 94.0534 45.5394C94.0534 46.0621 93.6406 46.485 93.1304 46.485Z" fill="#3A3847"/>
<path id="Vector_114" d="M72.823 54.0502H52.5158C52.0056 54.0502 51.5925 53.627 51.5925 53.1045C51.5925 52.5818 52.0056 52.1587 52.5158 52.1587H72.823C73.3332 52.1587 73.746 52.5818 73.746 53.1045C73.746 53.627 73.3332 54.0502 72.823 54.0502Z" fill="#3A3847"/>
<path id="Vector_115" d="M118.976 124.028C118.466 124.028 118.053 123.605 118.053 123.083V117.409C118.053 116.886 118.466 116.463 118.976 116.463C119.486 116.463 119.899 116.886 119.899 117.409V123.083C119.899 123.605 119.486 124.028 118.976 124.028Z" fill="#3A3847"/>
<path id="Vector_116" d="M24.8241 124.028C24.3142 124.028 23.9011 123.605 23.9011 123.083V117.409C23.9011 116.886 24.3142 116.463 24.8241 116.463C25.3344 116.463 25.7474 116.886 25.7474 117.409V123.083C25.7472 123.605 25.3344 124.028 24.8241 124.028Z" fill="#3A3847"/>
</g>
</g>
</g>
</svg>
