<?xml version="1.0" encoding="UTF-8"?>
<!DOCTYPE svg PUBLIC "-//W3C//DTD SVG 1.1//EN" "http://www.w3.org/Graphics/SVG/1.1/DTD/svg11.dtd">
<svg xmlns="http://www.w3.org/2000/svg" version="1.1" width="977px" height="200px" style="shape-rendering:geometricPrecision; text-rendering:geometricPrecision; image-rendering:optimizeQuality; fill-rule:evenodd; clip-rule:evenodd" xmlns:xlink="http://www.w3.org/1999/xlink">
<g><path style="opacity:0.97" fill="#301d5c" d="M 32.5,0.5 C 49.6471,2.84593 57.4804,12.8459 56,30.5C 64.8392,29.1104 73.6725,29.4437 82.5,31.5C 90.9514,29.3798 99.2847,29.5465 107.5,32C 109.09,33.0458 110.59,34.2125 112,35.5C 112.903,34.2986 114.069,33.4652 115.5,33C 125.275,29.9357 135.109,29.4357 145,31.5C 157.498,30.2409 169.998,29.2409 182.5,28.5C 189.142,29.1284 195.642,30.4617 202,32.5C 218.479,27.0935 234.812,27.4269 251,33.5C 261.055,29.7756 271.222,29.2756 281.5,32C 282.459,33.4638 283.792,34.2972 285.5,34.5C 293.228,31.5683 301.228,29.9016 309.5,29.5C 313.89,30.3024 318.056,31.6357 322,33.5C 338.294,27.3382 354.794,26.8382 371.5,32C 374.265,33.1294 376.765,34.6294 379,36.5C 397.837,26.273 416.837,25.9397 436,35.5C 445.551,29.6894 455.884,28.0227 467,30.5C 477.277,27.6369 487.444,27.9703 497.5,31.5C 498.209,25.4116 499.376,19.4116 501,13.5C 503.552,9.28114 507.052,6.11447 511.5,4C 521.207,0.920742 530.873,0.587409 540.5,3C 542.833,4.5 545.167,6 547.5,7.5C 561.573,3.47412 572.739,7.47412 581,19.5C 582.15,22.7679 582.984,26.1012 583.5,29.5C 587.697,29.4292 591.863,29.7625 596,30.5C 607.298,27.6249 618.465,28.1249 629.5,32C 633.513,34.0055 637.18,36.5055 640.5,39.5C 659.845,26.5899 679.845,25.4233 700.5,36C 709.73,42.951 715.564,52.1177 718,63.5C 723.323,42.5654 736.823,31.0654 758.5,29C 771.482,27.7961 783.649,30.2961 795,36.5C 813.303,26.2531 831.803,25.9197 850.5,35.5C 860.102,29.7369 870.435,28.0703 881.5,30.5C 892.907,27.4928 904.074,28.1594 915,32.5C 931.285,26.1625 946.785,27.6625 961.5,37C 969.788,43.8412 974.288,52.6745 975,63.5C 975.943,80.8864 975.61,98.2197 974,115.5C 970.016,122.805 963.85,126.971 955.5,128C 946.239,129.559 937.572,128.059 929.5,123.5C 916.833,130.167 904.167,130.167 891.5,123.5C 877.849,130.371 864.349,130.038 851,122.5C 832.819,131.803 814.653,131.803 796.5,122.5C 776.555,131.763 756.555,131.763 736.5,122.5C 725.506,130.382 713.839,131.382 701.5,125.5C 682.429,131.577 663.763,130.577 645.5,122.5C 639.398,126.694 632.564,128.694 625,128.5C 618.123,128.596 611.79,126.929 606,123.5C 600.21,126.929 593.877,128.596 587,128.5C 581.949,128.223 576.949,127.557 572,126.5C 562.169,129.143 552.335,129.143 542.5,126.5C 532.167,129.167 521.833,129.167 511.5,126.5C 501.112,129.329 490.778,129.162 480.5,126C 478.167,122.667 475.833,122.667 473.5,126C 463.167,129.333 452.833,129.333 442.5,126C 440.391,124.859 438.558,123.359 437,121.5C 417.146,132.348 397.48,132.015 378,120.5C 368.873,126.119 358.873,129.119 348,129.5C 339.534,128.984 331.201,127.65 323,125.5C 313.817,128.412 304.484,129.078 295,127.5C 280.346,130.862 266.513,128.862 253.5,121.5C 244.744,126.622 235.244,129.289 225,129.5C 214.925,128.952 205.092,127.118 195.5,124C 191.592,121.968 188.425,119.134 186,115.5C 182.016,122.805 175.85,126.971 167.5,128C 160.241,128.803 153.075,128.303 146,126.5C 133.164,127.727 120.33,128.727 107.5,129.5C 99.6857,129.038 92.1857,127.371 85,124.5C 74.8301,128.751 64.3301,129.584 53.5,127C 50.5424,126.771 48.0424,125.604 46,123.5C 34.4833,129.512 22.65,130.012 10.5,125C 5.48693,121.81 2.32026,117.31 1,111.5C 1.26081,80.8512 1.59414,50.1845 2,19.5C 3.16617,13.3379 6.33283,8.50452 11.5,5C 18.4482,2.64541 25.4482,1.14541 32.5,0.5 Z"/></g>
<g><path style="opacity:1" fill="#f9f9fa" d="M 36.5,21.5 C 36.1673,36.5148 36.5007,51.5148 37.5,66.5C 38.1067,66.3764 38.44,66.0431 38.5,65.5C 44.3299,59.8377 50.3299,54.3377 56.5,49C 62.8333,48.3333 69.1667,48.3333 75.5,49C 76.0219,49.5613 76.3552,50.228 76.5,51C 67.9793,59.6107 58.9793,67.7774 49.5,75.5C 58.5192,85.3515 67.3526,95.3515 76,105.5C 76.6838,106.784 76.5171,107.951 75.5,109C 69.5,109.667 63.5,109.667 57.5,109C 50.9584,101.962 44.6251,94.7954 38.5,87.5C 38.2172,86.7109 37.7172,86.0442 37,85.5C 36.5007,90.4889 36.3341,95.4889 36.5,100.5C 36.846,103.602 36.1793,106.435 34.5,109C 29.5,109.667 24.5,109.667 19.5,109C 18.9415,108.275 18.6082,107.442 18.5,106.5C 19.3169,78.5233 19.8169,50.5233 20,22.5C 24.7916,19.8526 29.9582,19.0193 35.5,20C 36.056,20.3826 36.3893,20.8826 36.5,21.5 Z"/></g>
<g><path style="opacity:1" fill="#f59402" d="M 524.5,19.5 C 527.777,19.2161 530.943,19.5495 534,20.5C 534.187,49.0192 534.687,77.5192 535.5,106C 535.415,107.107 535.081,108.107 534.5,109C 529.5,109.667 524.5,109.667 519.5,109C 518.809,107.933 518.309,106.766 518,105.5C 517.333,77.5 517.333,49.5 518,21.5C 520.277,20.8828 522.444,20.2161 524.5,19.5 Z"/></g>
<g><path style="opacity:1" fill="#7b6f98" d="M 36.5,21.5 C 37.1667,36.1667 37.8333,50.8333 38.5,65.5C 38.44,66.0431 38.1067,66.3764 37.5,66.5C 36.5007,51.5148 36.1673,36.5148 36.5,21.5 Z"/></g>
<g><path style="opacity:1" fill="#f93522" d="M 553.5,24.5 C 562.478,24.3098 566.311,28.6431 565,37.5C 559.833,45.0791 554.167,45.4124 548,38.5C 546.025,32.1772 547.858,27.5105 553.5,24.5 Z"/></g>
<g><path style="opacity:1" fill="#fbfafc" d="M 175.5,47.5 C 181.262,47.1493 186.928,47.6493 192.5,49C 194.121,53.0164 194.621,57.1831 194,61.5C 188.581,61.9082 183.081,62.0749 177.5,62C 174.898,62.8834 172.731,64.3834 171,66.5C 169.701,80.4064 169.034,94.4064 169,108.5C 163.667,109.833 158.333,109.833 153,108.5C 152.759,88.4833 152.259,68.4833 151.5,48.5C 156.511,48.3341 161.511,48.5007 166.5,49C 167.047,49.9246 167.713,50.7579 168.5,51.5C 170.765,49.8726 173.099,48.5392 175.5,47.5 Z"/></g>
<g><path style="opacity:1" fill="#fafafb" d="M 213.5,47.5 C 222.874,47.2687 232.208,47.7687 241.5,49C 244.09,52.1051 245.424,55.7718 245.5,60C 245.561,61.7106 244.894,63.044 243.5,64C 237.06,63.1762 230.56,62.3428 224,61.5C 218.228,61.2265 216.728,63.3932 219.5,68C 227.602,70.3662 235.269,73.6995 242.5,78C 248.583,84.518 250.083,92.018 247,100.5C 244.778,104.388 241.612,107.221 237.5,109C 226.763,111.171 216.097,110.838 205.5,108C 204.069,107.535 202.903,106.701 202,105.5C 201.593,102.318 201.093,99.1514 200.5,96C 200.585,94.8926 200.919,93.8926 201.5,93C 208.947,94.1016 216.447,95.2683 224,96.5C 225.833,96.3333 227.667,96.1667 229.5,96C 231.56,94.5074 231.893,92.6741 230.5,90.5C 222.844,88.0063 215.511,84.8396 208.5,81C 199.088,72.1321 198.088,62.4655 205.5,52C 208.099,50.205 210.766,48.705 213.5,47.5 Z"/></g>
<g><path style="opacity:1" fill="#fbfafc" d="M 336.5,47.5 C 345.541,47.2829 354.541,47.7829 363.5,49C 364.931,49.4652 366.097,50.2986 367,51.5C 367.796,55.7548 367.629,59.9215 366.5,64C 360.033,63.3409 353.533,62.5076 347,61.5C 341.228,61.2265 339.728,63.3932 342.5,68C 348.421,70.5294 354.421,72.8628 360.5,75C 370.574,80.886 373.741,89.386 370,100.5C 364.247,108.372 356.414,111.706 346.5,110.5C 338.979,110.895 331.813,109.562 325,106.5C 323.42,101.99 323.254,97.4897 324.5,93C 331.864,94.532 339.364,95.6987 347,96.5C 348.833,96.3333 350.667,96.1667 352.5,96C 355.167,94 355.167,92 352.5,90C 345.674,87.7248 339.007,85.0581 332.5,82C 323.129,74.5791 320.963,65.4124 326,54.5C 328.998,51.2623 332.498,48.9289 336.5,47.5 Z"/></g>
<g><path style="opacity:1" fill="#f49404" d="M 398.5,47.5 C 429.319,44.8204 442.486,58.8204 438,89.5C 435.167,100.333 428.333,107.167 417.5,110C 387.2,112.693 374.366,98.8598 379,68.5C 381.923,58.0805 388.423,51.0805 398.5,47.5 Z"/></g>
<g><path style="opacity:1" fill="#f69501" d="M 472.5,47.5 C 478.176,47.3339 483.843,47.5006 489.5,48C 497.444,50.277 502.278,55.4437 504,63.5C 504.824,78.7412 504.657,93.9078 503.5,109C 498.249,109.804 493.082,109.637 488,108.5C 487.667,94.5 487.333,80.5 487,66.5C 485.336,62.9158 482.503,61.2492 478.5,61.5C 472.828,61.5817 468.994,64.2484 467,69.5C 466.667,82.5 466.333,95.5 466,108.5C 460.667,109.833 455.333,109.833 450,108.5C 449.617,88.7929 449.284,69.1263 449,49.5C 454.082,48.363 459.249,48.1963 464.5,49C 465.126,49.7504 465.626,50.5838 466,51.5C 468.314,50.2668 470.481,48.9334 472.5,47.5 Z"/></g>
<g><path style="opacity:1" fill="#f69501" d="M 601.5,47.5 C 607.176,47.3339 612.843,47.5006 618.5,48C 626.435,50.2684 631.268,55.4351 633,63.5C 633.824,78.7412 633.657,93.9078 632.5,109C 627.249,109.804 622.082,109.637 617,108.5C 616.667,94.5 616.333,80.5 616,66.5C 614.336,62.9158 611.503,61.2492 607.5,61.5C 602.317,61.6724 598.484,64.0058 596,68.5C 595.667,81.8333 595.333,95.1667 595,108.5C 589.667,109.833 584.333,109.833 579,108.5C 578.617,88.7929 578.284,69.1263 578,49.5C 583.082,48.363 588.249,48.1963 593.5,49C 594.126,49.7504 594.626,50.5838 595,51.5C 597.314,50.2668 599.481,48.9334 601.5,47.5 Z"/></g>
<g><path style="opacity:1" fill="#faf9fb" d="M 754.5,47.5 C 761.175,47.3337 767.842,47.5004 774.5,48C 785.013,49.1681 788.679,54.8348 785.5,65C 780.481,64.4474 775.481,63.4474 770.5,62C 757.497,59.8366 751.164,65.3366 751.5,78.5C 750.816,89.4678 755.816,95.4678 766.5,96.5C 771.887,95.8202 777.221,94.8202 782.5,93.5C 783.167,93.8333 783.833,94.1667 784.5,94.5C 786.309,98.9625 786.642,103.462 785.5,108C 775.295,110.343 764.962,111.01 754.5,110C 742.028,106.181 735.528,97.6811 735,84.5C 731.624,66.5698 738.124,54.2365 754.5,47.5 Z"/></g>
<g><path style="opacity:1" fill="#fbfafc" d="M 813.5,47.5 C 843.823,44.6564 856.99,58.323 853,88.5C 850.464,100.369 843.297,107.536 831.5,110C 817.05,113.52 805.55,109.354 797,97.5C 793.63,87.7897 792.63,77.7897 794,67.5C 797.351,57.6498 803.851,50.9831 813.5,47.5 Z"/></g>
<g><path style="opacity:1" fill="#fafafb" d="M 887.5,47.5 C 897.994,45.7179 907.327,48.0512 915.5,54.5C 922.908,47.8087 931.575,45.6421 941.5,48C 950.423,49.9241 955.59,55.4241 957,64.5C 957.667,79.1667 957.667,93.8333 957,108.5C 951.667,109.833 946.333,109.833 941,108.5C 940.667,94.8333 940.333,81.1667 940,67.5C 938.839,63.1668 936.005,61.1668 931.5,61.5C 926.317,61.6724 922.484,64.0058 920,68.5C 919.824,82.075 919.324,95.575 918.5,109C 913.249,109.804 908.082,109.637 903,108.5C 902.667,95.1667 902.333,81.8333 902,68.5C 901.403,63.4516 898.57,61.1182 893.5,61.5C 888.527,61.3237 884.694,63.3237 882,67.5C 881.816,81.2117 881.316,94.8784 880.5,108.5C 875.533,109.662 870.533,109.829 865.5,109C 864.766,88.89 864.099,68.7234 863.5,48.5C 868.511,48.3341 873.511,48.5007 878.5,49C 879.047,49.9246 879.713,50.7579 880.5,51.5C 882.765,49.8726 885.099,48.5392 887.5,47.5 Z"/></g>
<g><path style="opacity:1" fill="#f49304" d="M 664.5,47.5 C 692.873,45.0397 704.873,57.873 700.5,86C 687.5,86.3333 674.5,86.6667 661.5,87C 662.297,90.604 664.297,93.2707 667.5,95C 677.245,95.6442 686.912,95.3109 696.5,94C 697.743,98.7417 697.409,103.408 695.5,108C 685.295,110.343 674.962,111.01 664.5,110C 656.721,108.553 650.887,104.387 647,97.5C 641.827,83.7781 642.494,70.4448 649,57.5C 653.194,52.4965 658.361,49.1631 664.5,47.5 Z"/></g>
<g><path style="opacity:1" fill="#fcfbfc" d="M 89.5,48.5 C 93.1064,48.2108 96.6064,48.5442 100,49.5C 100.333,63.1667 100.667,76.8333 101,90.5C 101.891,94.5615 104.391,96.5615 108.5,96.5C 114.821,96.2751 118.987,93.2751 121,87.5C 121.333,75.1667 121.667,62.8333 122,50.5C 127.258,48.5066 132.591,48.1732 138,49.5C 138.198,68.3537 138.698,87.187 139.5,106C 139.415,107.107 139.081,108.107 138.5,109C 133.5,109.667 128.5,109.667 123.5,109C 122.874,108.25 122.374,107.416 122,106.5C 119.457,108.354 116.624,109.521 113.5,110C 103.074,112.653 94.2411,110.153 87,102.5C 85.8476,99.5597 84.8476,96.5597 84,93.5C 83.3333,79.1667 83.3333,64.8333 84,50.5C 85.9483,49.8906 87.7816,49.224 89.5,48.5 Z"/></g>
<g><path style="opacity:1" fill="#fcfbfc" d="M 263.5,48.5 C 267.106,48.2108 270.606,48.5442 274,49.5C 274.333,63.1667 274.667,76.8333 275,90.5C 275.891,94.5615 278.391,96.5615 282.5,96.5C 288.248,96.2143 292.415,93.5476 295,88.5C 295.333,75.8333 295.667,63.1667 296,50.5C 301.258,48.5066 306.591,48.1732 312,49.5C 312.191,68.5245 312.691,87.5245 313.5,106.5C 313.392,107.442 313.059,108.275 312.5,109C 307.5,109.667 302.5,109.667 297.5,109C 296.953,108.075 296.287,107.242 295.5,106.5C 293.205,108.48 290.539,109.647 287.5,110C 277.074,112.653 268.241,110.153 261,102.5C 259.257,99.0433 258.257,95.3767 258,91.5C 257.333,77.8333 257.333,64.1667 258,50.5C 259.948,49.8906 261.782,49.224 263.5,48.5 Z"/></g>
<g><path style="opacity:1" fill="#f49404" d="M 553.5,48.5 C 557.106,48.2108 560.606,48.5442 564,49.5C 564.205,68.1842 564.705,86.8509 565.5,105.5C 565.43,106.772 565.097,107.938 564.5,109C 559.833,109.667 555.167,109.667 550.5,109C 548.996,107.509 548.163,105.676 548,103.5C 547.333,85.8333 547.333,68.1667 548,50.5C 549.948,49.8906 551.782,49.224 553.5,48.5 Z"/></g>
<g><path style="opacity:1" fill="#311c5b" d="M 404.5,61.5 C 411.789,60.6435 417.289,63.3102 421,69.5C 422.126,77.0454 421.46,84.3788 419,91.5C 417.786,93.0488 416.286,94.2155 414.5,95C 410.167,95.6667 405.833,95.6667 401.5,95C 398.533,92.8995 396.7,90.0662 396,86.5C 395.13,80.0828 395.464,73.7494 397,67.5C 399.134,64.8474 401.634,62.8474 404.5,61.5 Z"/></g>
<g><path style="opacity:1" fill="#331d5a" d="M 667.5,62.5 C 671.967,62.1326 676.3,62.6326 680.5,64C 682.202,66.2354 683.202,68.7354 683.5,71.5C 676.137,71.8306 668.803,71.4973 661.5,70.5C 662.561,67.0087 664.561,64.342 667.5,62.5 Z"/></g>
<g><path style="opacity:1" fill="#321f5e" d="M 818.5,61.5 C 826.188,60.2626 832.021,62.9293 836,69.5C 836.667,75.5 836.667,81.5 836,87.5C 831.781,95.6872 825.281,98.1872 816.5,95C 813.447,92.9486 811.614,90.1152 811,86.5C 810.333,80.8333 810.333,75.1667 811,69.5C 812.69,65.9791 815.19,63.3124 818.5,61.5 Z"/></g>
<g><path style="opacity:1" fill="#7e729a" d="M 38.5,87.5 C 37.8333,91.8333 37.1667,96.1667 36.5,100.5C 36.3341,95.4889 36.5007,90.4889 37,85.5C 37.7172,86.0442 38.2172,86.7109 38.5,87.5 Z"/></g>
<g><path style="opacity:1" fill="#f7f6f9" d="M 713.5,91.5 C 721.168,90.4859 725.834,93.6526 727.5,101C 726.12,109.027 721.453,112.027 713.5,110C 709.112,107.39 707.278,103.557 708,98.5C 709.666,96.0043 711.5,93.671 713.5,91.5 Z"/></g>
<g><path style="opacity:0.084" fill="#6b6c6c" d="M 739.5,144.5 C 738.078,144.291 736.745,143.791 735.5,143C 732.631,139.796 729.465,136.963 726,134.5C 725.993,137.479 726.327,140.479 727,143.5C 727.49,142.207 727.657,140.873 727.5,139.5C 728.791,139.263 729.791,139.596 730.5,140.5C 729.624,140.369 728.957,140.702 728.5,141.5C 729.309,143.071 729.643,144.738 729.5,146.5C 728.778,146.082 728.278,145.416 728,144.5C 727.857,152.279 728.857,159.946 731,167.5C 731.497,164.854 731.664,162.187 731.5,159.5C 732.477,162.287 732.81,165.287 732.5,168.5C 731.936,176.5 732.936,184.5 735.5,192.5C 734.5,192.5 733.5,192.5 732.5,192.5C 729.066,172.562 726.066,152.562 723.5,132.5C 724.873,132.343 726.207,132.51 727.5,133C 731.425,137.089 735.425,140.922 739.5,144.5 Z"/></g>
<g><path style="opacity:1" fill="#f0efef" d="M 730.5,140.5 C 741.656,149.924 752.656,159.59 763.5,169.5C 758.68,170.023 754.013,171.023 749.5,172.5C 753.633,179.267 757.633,186.101 761.5,193C 760.902,194.301 759.902,195.135 758.5,195.5C 754.61,189.398 750.943,183.065 747.5,176.5C 746.758,175.713 745.925,175.047 745,174.5C 741.975,178.024 739.142,181.691 736.5,185.5C 735.151,179.798 733.818,174.131 732.5,168.5C 732.81,165.287 732.477,162.287 731.5,159.5C 730.437,155.361 729.77,151.028 729.5,146.5C 729.643,144.738 729.309,143.071 728.5,141.5C 728.957,140.702 729.624,140.369 730.5,140.5 Z"/></g>
<g><path style="opacity:0.118" fill="#73777b" d="M 741.5,145.5 C 746.208,149.843 750.875,154.176 755.5,158.5C 749.509,155.507 744.843,151.173 741.5,145.5 Z"/></g>
<g><path style="opacity:0.822" fill="#2f1c5c" d="M 104.5,150.5 C 121.649,149.482 129.482,157.482 128,174.5C 126.614,182.22 122.114,187.053 114.5,189C 99.6155,191.075 91.2821,184.742 89.5,170C 90.1987,160.141 95.1987,153.641 104.5,150.5 Z M 106.5,157.5 C 114.74,157.569 119.406,161.736 120.5,170C 118.451,181.524 112.118,184.857 101.5,180C 98.6374,175.219 97.804,170.052 99,164.5C 100.767,161.228 103.267,158.895 106.5,157.5 Z"/></g>
<g><path style="opacity:0.827" fill="#2f1c5c" d="M 452.5,150.5 C 456.605,150.234 460.605,150.734 464.5,152C 469.192,152.958 470.692,155.458 469,159.5C 468.275,160.059 467.442,160.392 466.5,160.5C 451.5,154.413 444.666,159.413 446,175.5C 449.655,182.07 455.155,184.237 462.5,182C 463.406,180.301 463.739,178.467 463.5,176.5C 458.094,177.265 456.094,174.931 457.5,169.5C 461.833,169.5 466.167,169.5 470.5,169.5C 470.829,175.206 470.495,180.872 469.5,186.5C 459.507,191.224 450.174,190.224 441.5,183.5C 434.575,172.879 435.575,163.046 444.5,154C 447.158,152.522 449.825,151.355 452.5,150.5 Z"/></g>
<g><path style="opacity:0.807" fill="#2f1c5c" d="M 18.5,151.5 C 25.175,151.334 31.8417,151.5 38.5,152C 44.0838,153.758 46.7504,157.591 46.5,163.5C 46.8424,168.983 44.5091,172.816 39.5,175C 35.6049,176.266 31.6049,176.766 27.5,176.5C 27.5,180.833 27.5,185.167 27.5,189.5C 24.5,189.5 21.5,189.5 18.5,189.5C 18.5,176.833 18.5,164.167 18.5,151.5 Z M 27.5,157.5 C 33.1826,156.169 36.8492,158.169 38.5,163.5C 36.8492,168.831 33.1826,170.831 27.5,169.5C 27.5,165.5 27.5,161.5 27.5,157.5 Z"/></g>
<g><path style="opacity:0.877" fill="#2f1c5c" d="M 47.5,151.5 C 57.5,151.5 67.5,151.5 77.5,151.5C 77.5,153.5 77.5,155.5 77.5,157.5C 73.8333,157.5 70.1667,157.5 66.5,157.5C 66.5,168.167 66.5,178.833 66.5,189.5C 63.8333,189.5 61.1667,189.5 58.5,189.5C 58.5,178.833 58.5,168.167 58.5,157.5C 54.8333,157.5 51.1667,157.5 47.5,157.5C 47.5,155.5 47.5,153.5 47.5,151.5 Z"/></g>
<g><path style="opacity:0.877" fill="#2f1c5c" d="M 128.5,151.5 C 138.5,151.5 148.5,151.5 158.5,151.5C 158.5,153.5 158.5,155.5 158.5,157.5C 154.833,157.5 151.167,157.5 147.5,157.5C 147.5,168.167 147.5,178.833 147.5,189.5C 144.833,189.5 142.167,189.5 139.5,189.5C 139.5,178.833 139.5,168.167 139.5,157.5C 135.833,157.5 132.167,157.5 128.5,157.5C 128.5,155.5 128.5,153.5 128.5,151.5 Z"/></g>
<g><path style="opacity:0.82" fill="#2f1c5c" d="M 168.5,151.5 C 171.777,151.216 174.943,151.549 178,152.5C 183.008,164.694 187.508,177.028 191.5,189.5C 189.143,189.663 186.81,189.497 184.5,189C 182.789,186.544 181.456,183.877 180.5,181C 175.511,180.501 170.511,180.334 165.5,180.5C 165.694,188.651 162.027,191.318 154.5,188.5C 159.464,176.245 164.131,163.912 168.5,151.5 Z M 172.5,161.5 C 174.772,165.452 176.772,169.618 178.5,174C 175.118,174.824 171.784,174.657 168.5,173.5C 170.043,169.539 171.376,165.539 172.5,161.5 Z"/></g>
<g><path style="opacity:0.822" fill="#2f1c5c" d="M 194.5,151.5 C 197.167,151.5 199.833,151.5 202.5,151.5C 202.5,156.5 202.5,161.5 202.5,166.5C 203.822,166.67 204.989,166.337 206,165.5C 209.138,160.729 212.638,156.229 216.5,152C 219.833,151.333 223.167,151.333 226.5,152C 221.833,157.667 217.167,163.333 212.5,169C 218.236,175.212 222.902,182.046 226.5,189.5C 223.421,189.74 220.421,189.407 217.5,188.5C 213.808,183.975 210.308,179.308 207,174.5C 205.644,173.62 204.144,173.286 202.5,173.5C 202.5,178.833 202.5,184.167 202.5,189.5C 199.833,189.5 197.167,189.5 194.5,189.5C 194.5,176.833 194.5,164.167 194.5,151.5 Z"/></g>
<g><path style="opacity:0.803" fill="#2f1c5c" d="M 241.5,151.5 C 244.5,151.5 247.5,151.5 250.5,151.5C 250.173,156.544 250.506,161.544 251.5,166.5C 255.845,162.153 259.845,157.486 263.5,152.5C 266.833,151.167 270.167,151.167 273.5,152.5C 268.783,157.882 264.45,163.549 260.5,169.5C 265.155,174.811 269.322,180.478 273,186.5C 277.777,175.279 282.277,163.946 286.5,152.5C 289.446,151.345 292.446,151.179 295.5,152C 300.86,164.248 305.527,176.748 309.5,189.5C 306.753,189.813 304.086,189.48 301.5,188.5C 300.305,186.249 299.305,183.915 298.5,181.5C 293.5,180.167 288.5,180.167 283.5,181.5C 282.593,184.057 281.593,186.557 280.5,189C 275.5,189.667 270.5,189.667 265.5,189C 261.95,185.117 258.783,180.951 256,176.5C 254.736,174.393 252.903,173.393 250.5,173.5C 250.5,178.833 250.5,184.167 250.5,189.5C 247.5,189.5 244.5,189.5 241.5,189.5C 241.5,176.833 241.5,164.167 241.5,151.5 Z M 290.5,161.5 C 292.772,165.452 294.772,169.618 296.5,174C 293.118,174.824 289.784,174.657 286.5,173.5C 288.043,169.539 289.376,165.539 290.5,161.5 Z"/></g>
<g><path style="opacity:0.856" fill="#2f1c5c" d="M 312.5,151.5 C 314.857,151.337 317.19,151.503 319.5,152C 324.971,159.771 330.804,167.271 337,174.5C 337.5,166.841 337.666,159.174 337.5,151.5C 339.833,151.5 342.167,151.5 344.5,151.5C 344.5,164.167 344.5,176.833 344.5,189.5C 342.473,189.662 340.473,189.495 338.5,189C 331.972,181.439 325.805,173.606 320,165.5C 319.5,173.493 319.334,181.493 319.5,189.5C 317.167,189.5 314.833,189.5 312.5,189.5C 312.5,176.833 312.5,164.167 312.5,151.5 Z"/></g>
<g><path style="opacity:0.818" fill="#2f1c5c" d="M 361.5,151.5 C 364.572,151.183 367.572,151.516 370.5,152.5C 375.963,164.558 380.629,176.891 384.5,189.5C 381.753,189.813 379.086,189.48 376.5,188.5C 375.305,186.249 374.305,183.915 373.5,181.5C 368.5,180.167 363.5,180.167 358.5,181.5C 357.593,184.057 356.593,186.557 355.5,189C 352.854,189.497 350.187,189.664 347.5,189.5C 351.966,176.768 356.633,164.102 361.5,151.5 Z M 365.5,161.5 C 367.737,165.534 369.404,169.868 370.5,174.5C 367.428,174.817 364.428,174.484 361.5,173.5C 363.039,169.55 364.372,165.55 365.5,161.5 Z"/></g>
<g><path style="opacity:0.856" fill="#2f1c5c" d="M 387.5,151.5 C 389.857,151.337 392.19,151.503 394.5,152C 399.971,159.771 405.804,167.271 412,174.5C 412.5,166.841 412.666,159.174 412.5,151.5C 414.833,151.5 417.167,151.5 419.5,151.5C 419.5,164.167 419.5,176.833 419.5,189.5C 417.473,189.662 415.473,189.495 413.5,189C 406.972,181.439 400.805,173.606 395,165.5C 394.5,173.493 394.334,181.493 394.5,189.5C 392.167,189.5 389.833,189.5 387.5,189.5C 387.5,176.833 387.5,164.167 387.5,151.5 Z"/></g>
<g><path style="opacity:0.895" fill="#1d1e1e" d="M 729.5,146.5 C 729.77,151.028 730.437,155.361 731.5,159.5C 731.664,162.187 731.497,164.854 731,167.5C 728.857,159.946 727.857,152.279 728,144.5C 728.278,145.416 728.778,146.082 729.5,146.5 Z"/></g>
<g><path style="opacity:0.89" fill="#2e2f2f" d="M 739.5,144.5 C 740.167,144.833 740.833,145.167 741.5,145.5C 744.843,151.173 749.509,155.507 755.5,158.5C 760.286,161.739 764.953,165.239 769.5,169C 771.037,170.11 771.703,171.61 771.5,173.5C 765.768,173.283 760.101,173.783 754.5,175C 759.74,181.128 763.24,187.961 765,195.5C 762.833,196.488 761,197.821 759.5,199.5C 758.833,199.5 758.167,199.5 757.5,199.5C 754,192.494 750,185.827 745.5,179.5C 742.167,183.833 738.833,188.167 735.5,192.5C 732.936,184.5 731.936,176.5 732.5,168.5C 733.818,174.131 735.151,179.798 736.5,185.5C 739.142,181.691 741.975,178.024 745,174.5C 745.925,175.047 746.758,175.713 747.5,176.5C 750.943,183.065 754.61,189.398 758.5,195.5C 759.902,195.135 760.902,194.301 761.5,193C 757.633,186.101 753.633,179.267 749.5,172.5C 754.013,171.023 758.68,170.023 763.5,169.5C 752.656,159.59 741.656,149.924 730.5,140.5C 729.791,139.596 728.791,139.263 727.5,139.5C 727.657,140.873 727.49,142.207 727,143.5C 726.327,140.479 725.993,137.479 726,134.5C 729.465,136.963 732.631,139.796 735.5,143C 736.745,143.791 738.078,144.291 739.5,144.5 Z"/></g>
<g><path style="opacity:0.762" fill="#2f1c5c" d="M 474.5,161.5 C 476.527,161.338 478.527,161.505 480.5,162C 481.529,165.057 482.862,165.057 484.5,162C 486.81,161.503 489.143,161.337 491.5,161.5C 491.663,163.857 491.497,166.19 491,168.5C 488.101,168.977 485.434,169.977 483,171.5C 482.501,177.491 482.334,183.491 482.5,189.5C 479.833,189.5 477.167,189.5 474.5,189.5C 474.5,180.167 474.5,170.833 474.5,161.5 Z"/></g>
<g><path style="opacity:0.807" fill="#2f1c5c" d="M 500.5,161.5 C 515.321,160.159 521.154,166.826 518,181.5C 516.833,185.333 514.333,187.833 510.5,189C 495.037,190.532 489.204,183.698 493,168.5C 494.742,165.254 497.242,162.921 500.5,161.5 Z M 503.5,167.5 C 508.641,167.644 510.975,170.311 510.5,175.5C 510.599,183.026 507.433,185.026 501,181.5C 498.425,176.034 499.258,171.367 503.5,167.5 Z"/></g>
<g><path style="opacity:0.802" fill="#2f1c5c" d="M 522.5,161.5 C 524.833,161.5 527.167,161.5 529.5,161.5C 529.334,167.842 529.5,174.175 530,180.5C 532.088,184.179 534.755,184.512 538,181.5C 538.5,174.842 538.666,168.175 538.5,161.5C 541.167,161.5 543.833,161.5 546.5,161.5C 546.5,170.833 546.5,180.167 546.5,189.5C 543.518,189.896 540.851,189.229 538.5,187.5C 533.384,190.42 528.55,190.087 524,186.5C 522.562,178.277 522.062,169.943 522.5,161.5 Z"/></g>
<g><path style="opacity:0.836" fill="#2f1c5c" d="M 551.5,161.5 C 554.144,161.16 556.477,161.827 558.5,163.5C 566.655,159.252 572.488,161.252 576,169.5C 577.393,175.924 576.227,181.757 572.5,187C 568.394,189.555 564.061,190.055 559.5,188.5C 558.516,191.428 558.183,194.428 558.5,197.5C 556.167,197.5 553.833,197.5 551.5,197.5C 551.5,185.5 551.5,173.5 551.5,161.5 Z M 562.5,167.5 C 566.876,168.212 568.876,170.879 568.5,175.5C 568.337,182.876 565.171,184.876 559,181.5C 558.333,177.833 558.333,174.167 559,170.5C 560.145,169.364 561.312,168.364 562.5,167.5 Z"/></g>
<g><path style="opacity:0.212" fill="#828282" d="M 745.5,179.5 C 750,185.827 754,192.494 757.5,199.5C 756.833,199.5 756.167,199.5 755.5,199.5C 752.169,192.838 748.836,186.171 745.5,179.5 Z"/></g>
</svg>
