<svg width="121" height="120" viewBox="0 0 121 120" fill="none" xmlns="http://www.w3.org/2000/svg">
<g id="ph:student-light">
<path id="Vector" d="M106.641 27.3327L61.6406 12.3327C61.0626 12.1397 60.4374 12.1397 59.8594 12.3327L14.8594 27.3327C14.2998 27.5196 13.8131 27.8776 13.4682 28.3563C13.1233 28.8349 12.9376 29.4099 12.9375 29.9999V67.4999C12.9375 68.2458 13.2338 68.9612 13.7613 69.4887C14.2887 70.0161 15.0041 70.3124 15.75 70.3124C16.4959 70.3124 17.2113 70.0161 17.7387 69.4887C18.2662 68.9612 18.5625 68.2458 18.5625 67.4999V33.8999L36.6938 39.9468C34.4073 43.3258 32.8579 47.1484 32.1465 51.1658C31.435 55.1831 31.5773 59.3053 32.5643 63.264C33.5512 67.2228 35.3605 70.9293 37.8746 74.1426C40.3887 77.3558 43.5512 80.0037 47.1562 81.914C38.1328 84.9749 30.2812 91.0968 24.6562 99.7265C24.3329 100.346 24.2516 101.063 24.4282 101.739C24.6048 102.415 25.0267 103.001 25.6116 103.383C26.1966 103.765 26.9028 103.916 27.5927 103.806C28.2825 103.695 28.9068 103.332 29.3438 102.787C36.5953 91.6827 48.0375 85.3124 60.75 85.3124C73.4625 85.3124 84.9047 91.6827 92.1562 102.787C92.5906 103.344 93.2184 103.717 93.915 103.832C94.6115 103.947 95.326 103.796 95.9163 103.409C96.5067 103.022 96.9298 102.427 97.1016 101.742C97.2734 101.057 97.1814 100.333 96.8438 99.7124C91.2188 91.0968 83.3766 84.9749 74.3438 81.8999C77.9469 79.9876 81.1071 77.3382 83.6188 74.124C86.1306 70.9098 87.9375 67.2028 88.9222 63.2443C89.9069 59.2857 90.0472 55.1642 89.334 51.1479C88.6208 47.1315 87.0701 43.3103 84.7828 39.9327L106.641 32.6671C107.2 32.48 107.686 32.1218 108.031 31.6432C108.375 31.1645 108.561 30.5897 108.561 29.9999C108.561 29.4102 108.375 28.8353 108.031 28.3567C107.686 27.878 107.2 27.5198 106.641 27.3327ZM84.1875 56.2499C84.1892 59.9846 83.2983 63.6656 81.5892 66.9862C79.88 70.3069 77.4021 73.171 74.3618 75.34C71.3216 77.509 67.807 78.92 64.1109 79.4556C60.4148 79.9911 56.6443 79.6356 53.1134 78.4188C49.5825 77.2019 46.3936 75.1589 43.8122 72.4599C41.2309 69.761 39.3319 66.4842 38.2735 62.9027C37.215 59.3211 37.0278 55.5385 37.7274 51.8699C38.427 48.2014 39.9931 44.7531 42.2953 41.8124L59.8594 47.6671C60.4374 47.8601 61.0626 47.8601 61.6406 47.6671L79.2047 41.8124C82.4382 45.9297 84.1932 51.0147 84.1875 56.2499ZM60.75 42.0374L24.6562 29.9999L60.75 17.9624L96.8438 29.9999L60.75 42.0374Z" fill="#E49F64"/>
</g>
</svg>
