<svg width="126" height="124" viewBox="0 0 126 124" fill="none" xmlns="http://www.w3.org/2000/svg">
<path fill-rule="evenodd" clip-rule="evenodd" d="M63.0703 0.862793C97.7985 0.862793 125.951 28.3973 125.951 62.3628C125.951 96.3283 97.7985 123.863 63.0703 123.863C28.3422 123.863 0.189453 96.3283 0.189453 62.3628C0.189453 28.3973 28.3422 0.862793 63.0703 0.862793Z" fill="white"/>
<path d="M43.4541 95.202C49.425 98.0723 56.0717 99.6844 63.0859 99.6844C70.1009 99.6844 76.7496 98.0714 82.7214 95.2V89.9983H43.4793C43.4793 89.9983 43.4616 93.3543 43.4541 95.202Z" fill="#2B414D"/>
<path d="M63.0847 83.2153C73.9289 83.2153 82.7202 86.2524 82.7202 89.9982C82.7202 93.7449 73.9289 96.782 63.0847 96.782C52.2405 96.782 43.4492 93.7449 43.4492 89.9982C43.4492 86.2524 52.2405 83.2153 63.0847 83.2153Z" fill="#324D5B"/>
<path d="M83.6742 32.9233C83.6761 29.9541 83.6078 27.9775 83.6078 27.9775C73.862 27.9542 56.0056 27.963 42.526 27.9775C42.526 27.9775 42.4653 29.9551 42.4774 32.9262C33.1467 31.3927 22.8812 44.1993 47.7275 61.7065C51.7212 68.4951 57.1732 73.8152 57.1732 73.8152C57.1554 73.819 57.592 73.9509 58.2249 74.1341C58.6428 76.1049 59.6421 82.5949 56.6684 89.8954C56.5833 90.004 56.5384 90.1165 56.5384 90.2318C56.5384 91.1682 59.4692 91.9282 63.0833 91.9282C66.6974 91.9282 69.6291 91.1692 69.6291 90.2328C69.6291 90.1155 69.5833 90.0011 69.4954 89.8896C66.4824 82.5736 67.5182 76.0748 67.9426 74.1215C68.5718 73.947 69.0121 73.8229 69.0195 73.8152C69.0195 73.8152 74.5202 68.4477 78.5176 61.6163C103.214 44.1721 92.9965 31.4217 83.6742 32.9233ZM42.5316 36.7379C42.6513 41.5974 42.999 47.5941 43.9096 52.3238C44.1517 53.584 44.5294 54.849 45.0006 56.1024C31.4556 43.1349 35.3156 36.1524 42.5316 36.7379ZM81.2314 55.9968C81.683 54.7783 82.0476 53.5491 82.2831 52.3247C83.1946 47.5941 83.5274 41.5955 83.6321 36.735C90.8145 36.1785 94.6381 43.1204 81.2314 55.9968Z" fill="#FFA726"/>
<path d="M65.4232 54.123H64.9558V44.429H65.4232C66.1972 44.429 66.8254 43.7776 66.8254 42.975C66.8254 42.1723 66.1972 41.5209 65.4232 41.5209H60.7489C59.9749 41.5209 59.3467 42.1723 59.3467 42.975C59.3467 43.7776 59.9749 44.429 60.7489 44.429H61.2164V54.123H60.7489C59.9749 54.123 59.3467 54.7744 59.3467 55.577C59.3467 56.3797 59.9749 57.0311 60.7489 57.0311H65.4232C66.1972 57.0311 66.8254 56.3797 66.8254 55.577C66.8254 54.7744 66.1972 54.123 65.4232 54.123Z" fill="white"/>
<path d="M58.2926 74.4734C58.7348 76.7747 59.4901 82.9701 56.6697 89.8964C56.5846 90.005 56.5398 90.1175 56.5398 90.2328C56.5398 90.7175 57.3288 91.1537 58.588 91.4639C60.2717 85.5807 60.9504 81.5645 59.5013 74.4744L58.2926 74.4734ZM59.9781 73.8162C59.9781 73.8162 48.7403 62.8582 46.7145 52.3238C44.8719 42.7501 45.3319 27.9775 45.3319 27.9775C52.4302 27.9698 60.7353 27.964 68.4375 27.963C59.9884 27.962 50.4969 27.9688 42.5274 27.9775C42.5274 27.9775 42.0683 42.7501 43.91 52.3238C45.9367 62.8582 57.1736 73.8162 57.1736 73.8162C57.1128 73.8307 62.7425 75.4467 63.1042 75.4457H63.1229L64.428 75.089C62.6508 74.613 59.9351 73.8259 59.9781 73.8162Z" fill="#DCB757"/>
<path d="M57.1728 73.4991C57.1728 73.4991 60.1297 74.2747 63.0857 74.2747C66.0426 74.2747 68.9986 73.4991 68.9986 73.4991C69.8699 73.4991 70.5757 74.1942 70.5757 75.0502C70.5757 75.9071 69.0818 76.6022 68.2115 76.6022C68.2115 76.6022 65.6575 77.3777 63.0988 77.3777C60.5327 77.3777 57.9609 76.6022 57.9609 76.6022C57.0896 76.6022 55.5967 75.9071 55.5967 75.0502C55.5957 74.1942 56.3016 73.4991 57.1728 73.4991Z" fill="#CFB061"/>
<path d="M63.0849 25.0412C74.4461 25.0412 83.6571 26.3412 83.6571 27.9436C83.6571 29.5469 74.4461 30.8469 63.0849 30.8469C51.7237 30.8469 42.5127 29.5469 42.5127 27.9436C42.5127 26.3412 51.7237 25.0412 63.0849 25.0412Z" fill="#C7A13E"/>
</svg>
