<svg width="1440" height="298" viewBox="0 0 1440 298" fill="none" xmlns="http://www.w3.org/2000/svg">
<mask id="mask0_115_6022" style="mask-type:luminance" maskUnits="userSpaceOnUse" x="-5" y="54" width="1454" height="375">
<path d="M1449 54.667H-4.00012V428H1449V54.667Z" fill="white"/>
</mask>
<g mask="url(#mask0_115_6022)">
<path d="M1444.96 58.0782C1323.08 68.1303 1188.56 80.823 1110.85 112.417C1063.93 131.484 1049.99 154.594 1036.8 177.323C1023.13 201.073 1005.82 224.615 981.725 247.651C936.195 291.099 867.186 333.198 762.35 366.979C669.173 396.995 545.603 420.99 406.755 426.62C273.43 432.026 133.683 420.109 34.5089 392.984C22.0548 389.573 10.324 385.958 -0.683594 382.136C-3.71777 381.094 1.43323 379.568 4.48499 380.615C93.9745 411.573 230.758 427.755 367.911 425.568C508.805 423.328 637.227 401.375 734.989 372.292C844.236 339.844 917.267 298.412 965.672 255.323C990.845 232.563 1010.41 209.391 1024.36 185.802C1038.23 163.042 1047.33 139.281 1087.58 118.943C1153.35 85.7657 1279.42 70.3178 1398.78 59.7605C1413.47 58.4637 1428.24 57.1928 1443.02 56.0053C1443.95 55.9532 1444.82 56.0001 1445.61 56.1512C1446.42 56.297 1446.95 56.5105 1447.2 56.7762C1447.47 57.047 1447.38 57.3074 1446.94 57.5574C1446.51 57.8074 1445.84 57.9793 1444.96 58.0782Z" fill="#055EA8" fill-opacity="0.1"/>
</g>
<mask id="mask1_115_6022" style="mask-type:luminance" maskUnits="userSpaceOnUse" x="-5" y="48" width="1454" height="352">
<path d="M1449 48H-4.00012V400H1449V48Z" fill="white"/>
</mask>
<g mask="url(#mask1_115_6022)">
<path d="M1444.93 51.0259C1325.52 60.2812 1192.19 71.6926 1112.33 101.5C1064.39 119.411 1049.87 141.646 1036.46 163.552C1022.51 186.297 1004.57 208.807 979.909 230.755C933.039 272.286 861.736 312.026 756.353 343.271C661.236 371.505 538.053 392.891 402.523 397.792C272.372 402.469 135.024 391.708 35.3389 366.198C22.6378 362.943 10.6423 359.474 -0.647461 355.786C-3.69922 354.802 1.29297 353.323 4.32715 354.318C94.875 383.771 230.265 398.323 363.732 396.646C501.75 394.932 630.189 375.26 730.016 347.885C839.068 317.943 914.234 279.073 963.962 237.995C989.911 216.208 1010.04 193.963 1024.36 171.26C1038.49 149.474 1047.97 126.719 1089.07 107.583C1156.81 76.0572 1283.25 62.1666 1399.45 52.4999C1413.95 51.302 1428.43 50.1562 1442.93 49.0259C1443.87 48.9426 1444.77 48.9739 1445.61 49.1093C1446.48 49.2499 1447.04 49.453 1447.33 49.7291C1447.59 50.0051 1447.5 50.2707 1447.03 50.5259C1446.57 50.7759 1445.86 50.9478 1444.93 51.0259Z" fill="#055EA8" fill-opacity="0.1"/>
</g>
<mask id="mask2_115_6022" style="mask-type:luminance" maskUnits="userSpaceOnUse" x="-5" y="41" width="1454" height="330">
<path d="M1449 41.333H-4.00012V370.666H1449V41.333Z" fill="white"/>
</mask>
<g mask="url(#mask2_115_6022)">
<path d="M1444.89 43.9788C1382.87 48.484 1320.7 53.3903 1261.84 60.7861C1206.27 67.7913 1152.82 77.2392 1113.27 90.9163C1091.34 98.5725 1074.74 107.125 1063.47 116.578C1050.43 127.333 1043.38 138.609 1036.06 149.786C1021.87 171.416 1003.62 192.781 978.32 213.526C930.144 253.047 856.849 290.27 751.712 318.989C654.214 345.625 530.397 364.927 396.983 368.989C269.443 372.864 134.671 363.119 34.6852 339.005C22.3193 336.041 10.5708 332.88 -0.560181 329.515C-3.61194 328.593 1.20386 327.172 4.23792 328.099C95.7737 355.979 229.593 369.005 359.567 367.791C494.781 366.515 622.973 349.088 724.758 323.427C834.022 295.901 911.728 259.317 962.955 219.994C989.028 199.635 1009.33 178.781 1023.81 157.437C1038.31 136.494 1048.05 114.588 1090.05 96.5361C1159.57 66.6923 1285.23 54.234 1398.27 45.4007C1413.21 44.2444 1428.13 43.1403 1443.07 42.0882C1447.32 41.7809 1449.12 43.7132 1444.89 44.0205V43.9788Z" fill="#055EA8" fill-opacity="0.1"/>
</g>
<mask id="mask3_115_6022" style="mask-type:luminance" maskUnits="userSpaceOnUse" x="-5" y="34" width="1454" height="308">
<path d="M1449 34.667H-4.00012V341.334H1449V34.667Z" fill="white"/>
</mask>
<g mask="url(#mask3_115_6022)">
<path d="M1444.87 36.9534C1383.76 41.0628 1322.91 45.5107 1264.59 52.2764C1209.87 58.6305 1156.1 67.1878 1115.4 79.9847C1092.98 87.0472 1075.85 95.0889 1064.02 104.115C1050.68 114.183 1043.46 124.828 1036.07 135.375C1021.59 155.964 1002.94 176.266 977.102 195.891C927.162 233.75 850.956 268.703 745.043 295.037C645.481 319.792 522.016 336.823 391.442 340.162C266.266 343.349 133.029 334.49 32.5848 311.578C21.0481 308.943 10.0051 306.131 -0.508423 303.146C-3.5603 302.287 1.07922 300.912 4.13098 301.776C96.6722 328.063 228.922 339.657 355.562 338.808C487.9 337.953 615.457 322.599 719.218 298.74C828.235 273.672 908.481 239.62 961.437 202.183C988.586 182.714 1009.63 162.683 1024.54 142.089C1039.3 122.245 1049.78 101.646 1092.5 85.0055C1126.62 71.7139 1174.48 62.2191 1225.16 55.1826C1280.64 47.4847 1339.98 42.4378 1399.36 38.1253C1413.91 37.068 1428.5 36.0472 1443.12 35.0732C1447.22 34.792 1448.93 36.6566 1444.87 36.9274V36.9534Z" fill="#055EA8" fill-opacity="0.1"/>
</g>
<mask id="mask4_115_6022" style="mask-type:luminance" maskUnits="userSpaceOnUse" x="-5" y="28" width="1454" height="284">
<path d="M1449 28H-4.00012V312H1449V28Z" fill="white"/>
</mask>
<g mask="url(#mask4_115_6022)">
<path d="M1444.82 29.8802C1384.61 33.6615 1324.32 37.7604 1266.33 43.9271C1211.98 49.7083 1157.99 57.4844 1116.28 69.5208C1094.36 75.8177 1077.25 83.1042 1064.95 91.3698C1050.68 101.01 1043.27 111.37 1035.53 121.594C1021.26 141.083 1001.15 160.031 975.214 178.448C923.598 214.375 844.781 246.635 739.574 270.5C637.948 293.589 514.254 308.609 385.727 311.281C264.008 313.844 133.576 305.995 33.3079 284.76C21.6123 282.281 10.3754 279.625 -0.385254 276.797C-3.2959 275.995 1.06128 274.682 4.07776 275.479C96.8837 299.99 226.47 310.255 349.035 309.844C479.009 309.432 605.808 296.156 711.738 274.214C820.544 251.682 903.612 220.318 958.861 184.786C987.051 166.438 1008.89 147.448 1024.36 127.828C1039.5 109.01 1050.45 89.7083 1093 74.2969C1127.96 61.6458 1176.7 52.9115 1226.99 46.5365C1282.33 39.5208 1340.76 34.875 1399.36 30.9687C1413.95 29.9635 1428.55 29.0052 1443.16 28.0937C1447.09 27.8437 1448.79 29.6302 1444.82 29.8802Z" fill="#055EA8" fill-opacity="0.1"/>
</g>
<mask id="mask5_115_6022" style="mask-type:luminance" maskUnits="userSpaceOnUse" x="-5" y="20" width="1454" height="264">
<path d="M1449 20H-4.00012V284H1449V20Z" fill="white"/>
</mask>
<g mask="url(#mask5_115_6022)">
<path d="M1444.64 22.8336C1384.81 26.2971 1324.94 30.0367 1266.97 35.7086C1213.57 40.9429 1159.72 47.9065 1117.12 59.094C1095.74 64.6669 1078.71 71.2242 1066.05 78.7711C1050.86 87.9325 1043.15 97.9377 1035.04 107.797C1020.31 126.271 999.49 144.136 972.606 161.38C918.803 195.255 837.27 224.745 732.733 246.068C629.061 267.214 505.825 280.287 379.679 282.38C260.413 284.36 132.785 277.36 32.1642 257.62C20.8921 255.407 10.0255 253.026 -0.41748 250.485C-3.31055 249.755 0.887817 248.505 3.86914 249.224C97.7157 272.021 225.132 281.021 344.716 280.875C472.026 280.755 597.731 269.302 705.143 249.287C813.226 229.141 899.152 200.526 956.748 166.891C985.625 149.813 1008.03 132.026 1023.94 113.526C1032.2 104.162 1038.42 94.6148 1049.85 85.5107C1059.84 77.1877 1074.78 69.7294 1094.66 63.1304C1130.49 51.5002 1178.68 43.7971 1227.6 38.0523C1282.97 31.5419 1341.17 27.3492 1399.36 23.7294C1413.95 22.8544 1428.56 21.9794 1443.2 21.1148C1446.99 20.8908 1448.61 22.6096 1444.79 22.8231L1444.64 22.8336Z" fill="#055EA8" fill-opacity="0.1"/>
</g>
<mask id="mask6_115_6022" style="mask-type:luminance" maskUnits="userSpaceOnUse" x="-5" y="13" width="1454" height="242">
<path d="M1449 13.333H-4.00012V254.666H1449V13.333Z" fill="white"/>
</mask>
<g mask="url(#mask6_115_6022)">
<path d="M1444.64 15.7808C1385.2 18.9319 1325.8 22.3277 1267.83 27.484C1215.67 32.1454 1162.72 38.2444 1119.6 48.3485C1097.62 53.3954 1079.88 59.5204 1066.4 66.7183C1051.16 75.0465 1043.2 84.26 1035.07 93.3538C1019.86 110.791 998.431 127.531 970.753 143.578C956.782 151.526 941.064 159.161 923.6 166.484C906.136 173.802 887.085 180.744 866.446 187.307C845.807 193.869 823.756 199.994 800.33 205.677C776.886 211.364 752.26 216.557 726.434 221.26C700.203 226.046 673.037 230.328 644.971 234.104C616.905 237.885 588.152 241.125 558.692 243.838C529.233 246.546 499.333 248.698 468.956 250.296C438.579 251.89 407.991 252.921 377.191 253.385C259.918 255.036 134.495 248.942 32.9747 230.791C21.7378 228.776 10.889 226.604 0.392944 224.27C-2.5 223.614 0.392944 222.135 3.28601 222.791C97.6266 243.776 221.691 251.671 337.941 251.927C369.253 251.958 400.458 251.395 431.523 250.239C462.605 249.083 493.299 247.343 523.606 245.02C553.929 242.698 583.6 239.807 612.654 236.354C641.708 232.901 669.897 228.911 697.204 224.385C723.894 219.994 749.455 215.093 773.869 209.671C798.301 204.255 821.357 198.369 843.055 192.02C864.752 185.666 884.88 178.911 903.438 171.75C921.995 164.588 938.824 157.083 953.907 149.239C984.054 133.286 1007.43 116.51 1024.04 98.9163C1032.51 90.1038 1039.04 81.0881 1050.84 72.5777C1061.25 64.9058 1076.31 58.1402 1096.02 52.2756C1132.57 41.5413 1180.53 34.6819 1228.5 29.536C1284.2 23.5517 1342.38 19.7704 1400.49 16.4683C1414.73 15.661 1428.96 14.885 1443.21 14.1402C1446.87 13.9423 1448.44 15.5673 1444.64 15.7808Z" fill="#055EA8" fill-opacity="0.1"/>
</g>
<mask id="mask7_115_6022" style="mask-type:luminance" maskUnits="userSpaceOnUse" x="-5" y="6" width="1454" height="220">
<path d="M1449 6.66699H-4.00012V225.334H1449V6.66699Z" fill="white"/>
</mask>
<g mask="url(#mask7_115_6022)">
<path d="M1444.64 8.72437C1385.92 11.5473 1327.11 14.5837 1269.63 19.2035C1217.98 23.3442 1165.61 28.7087 1121.49 37.8702C1099.84 42.2244 1081.96 47.6619 1067.84 54.1775C1051.53 61.9692 1043.18 70.8129 1034.54 79.5317C1018.77 95.8233 996.613 111.318 968.053 126.016C908.976 155.959 821.568 179.907 718.795 196.443C692.035 200.724 664.534 204.537 636.292 207.881C608.049 211.219 579.243 214.068 549.871 216.427C520.518 218.782 490.776 220.636 460.699 221.974C430.605 223.318 400.352 224.141 369.94 224.454C255.877 225.605 134.529 220.287 33.4679 203.922C22.1074 202.084 11.0646 200.089 0.356934 197.933C-2.53613 197.344 0.180542 195.922 3.26758 196.521C98.1903 215.667 219.397 222.511 332.63 222.927C363.554 223.042 394.389 222.62 425.137 221.657C455.884 220.698 486.349 219.204 516.496 217.183C546.661 215.162 576.297 212.625 605.439 209.573C634.58 206.516 663.017 202.969 690.73 198.927C796.237 183.459 887.825 160.568 951.207 131.105C982.219 116.521 1006.37 101.006 1023.67 84.5629C1032.37 76.4535 1038.97 68.1358 1050.72 60.3442C1061.74 52.9796 1077.46 46.6306 1097.9 41.3025C1135.58 31.5004 1183.27 25.4848 1230.51 20.9431C1285.58 15.6358 1342.58 12.2608 1399.57 9.31812C1414.05 8.56291 1428.55 7.85458 1443.21 7.15145C1446.72 7.01604 1448.22 8.56291 1444.64 8.72437Z" fill="#055EA8" fill-opacity="0.1"/>
</g>
<mask id="mask8_115_6022" style="mask-type:luminance" maskUnits="userSpaceOnUse" x="-5" y="0" width="1454" height="196">
<path d="M1449 0H-4.00012V196H1449V0Z" fill="white"/>
</mask>
<g mask="url(#mask8_115_6022)">
<path d="M1444.64 1.68732C1386.68 4.19253 1328.69 6.88003 1271.61 10.9582C1220.74 14.5936 1169 19.2134 1124.15 27.3644C1103.46 31.13 1084.29 35.755 1069.96 41.5988C1052.57 48.7342 1043.5 57.1196 1034.35 65.4009C1017.84 80.6248 994.762 94.9269 965.127 108.307C902.839 136.057 812.785 157.068 711.511 171.297C657.056 178.88 600.536 184.708 541.917 188.781C483.316 192.854 423.903 195.083 363.714 195.469C251.822 196.255 133.279 191.62 32.1288 176.797C21.2976 175.203 10.6605 173.474 0.252686 171.604C-2.65796 171.078 0.0234375 169.729 2.91638 170.26C48.5873 178.531 99.7267 183.948 151.695 187.614C209.308 191.609 267.698 193.713 326.864 193.937C387.952 194.291 448.476 192.745 508.453 189.291C568.413 185.844 626.485 180.568 682.652 173.469C786.695 160.14 881.335 140.166 948.086 112.849C980.244 99.5988 1005.43 85.2759 1023.64 69.88C1032.6 62.3644 1039.46 54.5884 1051.72 47.4529C1063.47 40.7081 1079.54 35.0311 1099.93 30.4217C1138.28 21.6352 1185.38 16.4269 1231.58 12.479C1286.99 7.71336 1344.04 4.69774 1401.02 2.06232C1415.1 1.41128 1429.19 0.781069 1443.27 0.171693C1446.6 0.0362764 1448.07 1.54148 1444.64 1.68732Z" fill="#055EA8" fill-opacity="0.1"/>
</g>
</svg>
