<svg width="1440" height="428" viewBox="0 0 1440 428" fill="none" xmlns="http://www.w3.org/2000/svg">
<mask id="mask0_87_12323" style="mask-type:luminance" maskUnits="userSpaceOnUse" x="-1" y="54" width="1441" height="375">
<path d="M-1 54.667H1440V428H-1V54.667Z" fill="white"/>
</mask>
<g mask="url(#mask0_87_12323)">
<path d="M3.00615 58.0782C123.877 68.1303 257.291 80.823 334.355 112.417C380.891 131.484 394.712 154.594 407.798 177.323C421.356 201.073 438.518 224.615 462.416 247.651C507.57 291.099 576.009 333.198 679.979 366.979C772.386 396.995 894.936 420.99 1032.64 426.62C1164.86 432.026 1303.45 420.109 1401.81 392.984C1414.16 389.573 1425.79 385.958 1436.71 382.136C1439.72 381.094 1434.61 379.568 1431.58 380.615C1342.83 411.573 1207.18 427.755 1071.16 425.568C931.43 423.328 804.069 401.375 707.114 372.292C598.769 339.844 526.341 298.412 478.336 255.323C453.371 232.563 433.97 209.391 420.131 185.802C406.38 163.042 397.353 139.281 357.43 118.943C292.21 85.7657 167.176 70.3178 48.8072 59.7605C34.2341 58.4637 19.5911 57.1928 4.93056 56.0053C4.00335 55.9532 3.14611 56.0001 2.35885 56.1512C1.55409 56.297 1.02925 56.5105 0.784331 56.7762C0.52191 57.047 0.609382 57.3074 1.04675 57.5574C1.46662 57.8074 2.13142 57.9793 3.00615 58.0782Z" fill="#055EA8" fill-opacity="0.1"/>
</g>
<mask id="mask1_87_12323" style="mask-type:luminance" maskUnits="userSpaceOnUse" x="-1" y="48" width="1441" height="352">
<path d="M-1 48H1440V400H-1V48Z" fill="white"/>
</mask>
<g mask="url(#mask1_87_12323)">
<path d="M3.04072 51.0259C121.462 60.2812 253.687 71.6926 332.885 101.5C380.435 119.411 394.834 141.646 408.129 163.552C421.968 186.297 439.76 208.807 464.217 230.755C510.701 272.286 581.414 312.026 685.927 343.271C780.258 371.505 902.424 392.891 1036.83 397.792C1165.91 402.469 1302.12 391.708 1400.99 366.198C1413.58 362.943 1425.48 359.474 1436.68 355.786C1439.7 354.802 1434.75 353.323 1431.74 354.318C1341.94 383.771 1207.67 398.323 1075.31 396.646C938.427 394.932 811.049 375.26 712.047 347.885C603.895 317.943 529.35 279.073 480.033 237.995C454.298 216.208 434.336 193.963 420.131 171.26C406.118 149.474 396.723 126.719 355.96 107.583C288.781 76.0572 163.379 62.1666 48.1419 52.4999C33.7613 51.302 19.3982 50.1562 5.01761 49.0259C4.09039 48.9426 3.19817 48.9739 2.35842 49.1093C1.50119 49.2499 0.941357 49.453 0.661442 49.7291C0.399021 50.0051 0.486493 50.2707 0.95885 50.5259C1.41371 50.7759 2.1135 50.9478 3.04072 51.0259Z" fill="#055EA8" fill-opacity="0.1"/>
</g>
<mask id="mask2_87_12323" style="mask-type:luminance" maskUnits="userSpaceOnUse" x="-1" y="41" width="1441" height="330">
<path d="M-1 41.333H1440V370.666H-1V41.333Z" fill="white"/>
</mask>
<g mask="url(#mask2_87_12323)">
<path d="M3.07651 43.9788C64.5877 48.484 126.239 53.3903 184.619 60.7861C239.727 67.7913 292.736 77.2392 331.959 90.9163C353.704 98.5725 370.167 107.125 381.346 116.578C394.275 127.333 401.272 138.609 408.533 149.786C422.598 171.416 440.705 192.781 465.793 213.526C513.571 253.047 586.261 290.27 690.529 318.989C787.222 345.625 910.017 364.927 1042.33 368.989C1168.82 372.864 1302.47 363.119 1401.63 339.005C1413.9 336.041 1425.55 332.88 1436.59 329.515C1439.62 328.593 1434.84 327.172 1431.83 328.099C1341.05 355.979 1208.34 369.005 1079.44 367.791C945.339 366.515 818.205 349.088 717.261 323.427C608.899 295.901 531.835 259.317 481.031 219.994C455.173 199.635 435.037 178.781 420.674 157.437C406.293 136.494 396.636 114.588 354.982 96.5361C286.035 66.6923 161.421 54.234 49.3149 45.4007C34.4969 44.2444 19.6964 43.1403 4.87846 42.0882C0.662248 41.7809 -1.12221 43.7132 3.07651 44.0205V43.9788Z" fill="#055EA8" fill-opacity="0.1"/>
</g>
<mask id="mask3_87_12323" style="mask-type:luminance" maskUnits="userSpaceOnUse" x="-1" y="34" width="1441" height="308">
<path d="M-1 34.667H1440V341.334H-1V34.667Z" fill="white"/>
</mask>
<g mask="url(#mask3_87_12323)">
<path d="M3.09543 36.9534C63.6969 41.0628 124.053 45.5107 181.891 52.2764C236.159 58.6305 289.483 67.1878 329.843 79.9847C352.079 87.0472 369.066 95.0889 380.805 104.115C394.031 114.183 401.186 124.828 408.517 135.375C422.88 155.964 441.372 176.266 467.001 195.891C516.529 233.75 592.106 268.703 697.144 295.037C795.883 319.792 918.329 336.823 1047.82 340.162C1171.97 343.349 1304.1 334.49 1403.72 311.578C1415.16 308.943 1426.11 306.131 1436.54 303.146C1439.56 302.287 1434.96 300.912 1431.94 301.776C1340.16 328.063 1209 339.657 1083.41 338.808C952.163 337.953 825.659 322.599 722.756 298.74C614.639 273.672 535.056 239.62 482.537 202.183C455.612 182.714 434.741 162.683 419.958 142.089C405.315 122.245 394.923 101.646 352.551 85.0055C318.717 71.7139 271.254 62.2191 220.991 55.1826C165.971 47.4847 107.119 42.4378 48.2317 38.1253C33.7986 37.068 19.3305 36.0472 4.8274 35.0732C0.768641 34.792 -0.92834 36.6566 3.09543 36.9274V36.9534Z" fill="#055EA8" fill-opacity="0.1"/>
</g>
<mask id="mask4_87_12323" style="mask-type:luminance" maskUnits="userSpaceOnUse" x="-1" y="28" width="1441" height="284">
<path d="M-1 28H1440V312H-1V28Z" fill="white"/>
</mask>
<g mask="url(#mask4_87_12323)">
<path d="M3.14757 29.8802C62.8568 33.6615 122.654 37.7604 180.159 43.9271C234.06 49.7083 287.611 57.4844 328.968 69.5208C350.714 75.8177 367.684 83.1042 379.878 91.3698C394.031 101.01 401.378 111.37 409.059 121.594C423.212 141.083 443.156 160.031 468.873 178.448C520.062 214.375 598.228 246.635 702.566 270.5C803.353 293.589 926.026 308.609 1053.49 311.281C1174.2 313.844 1303.56 305.995 1403 284.76C1414.6 282.281 1425.74 279.625 1436.41 276.797C1439.3 275.995 1434.98 274.682 1431.99 275.479C1339.95 299.99 1211.43 310.255 1089.88 309.844C960.98 309.432 835.228 296.156 730.173 274.214C622.266 251.682 539.884 220.318 485.09 184.786C457.134 166.438 435.476 147.448 420.133 127.828C405.122 109.01 394.258 89.7083 352.061 74.2969C317.387 61.6458 269.049 52.9115 219.172 46.5365C164.291 39.5208 106.349 34.875 48.2313 30.9687C33.7632 29.9635 19.2776 29.0052 4.79207 28.0937C0.890759 27.8437 -0.788729 29.6302 3.14757 29.8802Z" fill="#055EA8" fill-opacity="0.1"/>
</g>
<mask id="mask5_87_12323" style="mask-type:luminance" maskUnits="userSpaceOnUse" x="-1" y="20" width="1441" height="264">
<path d="M-1 20H1440V284H-1V20Z" fill="white"/>
</mask>
<g mask="url(#mask5_87_12323)">
<path d="M3.31977 22.8336C62.6616 26.2971 122.039 30.0367 179.526 35.7086C232.482 40.9429 285.893 47.9065 328.143 59.094C349.347 64.6669 366.229 71.2242 378.79 78.7711C393.853 87.9325 401.498 97.9377 409.546 107.797C424.154 126.271 444.797 144.136 471.459 161.38C524.818 195.255 605.678 224.745 709.352 246.068C812.168 267.214 934.385 280.287 1059.49 282.38C1177.77 284.36 1304.34 277.36 1404.13 257.62C1415.31 255.407 1426.09 253.026 1436.45 250.485C1439.32 249.755 1435.15 248.505 1432.2 249.224C1339.12 272.021 1212.76 281.021 1094.16 280.875C967.905 280.755 843.238 269.302 736.713 249.287C629.524 229.141 544.307 200.526 487.187 166.891C458.548 149.813 436.33 132.026 420.55 113.526C412.362 104.162 406.187 94.6148 394.85 85.5107C384.948 77.1877 370.13 69.7294 350.414 63.1304C314.882 51.5002 267.087 43.7971 218.574 38.0523C163.658 31.5419 105.943 27.3492 48.2286 23.7294C33.7605 22.8544 19.2749 21.9794 4.75433 21.1148C0.992977 20.8908 -0.61653 22.6096 3.17981 22.8231L3.31977 22.8336Z" fill="#055EA8" fill-opacity="0.1"/>
</g>
<mask id="mask6_87_12323" style="mask-type:luminance" maskUnits="userSpaceOnUse" x="-1" y="13" width="1441" height="242">
<path d="M-1 13.333H1440V254.666H-1V13.333Z" fill="white"/>
</mask>
<g mask="url(#mask6_87_12323)">
<path d="M3.32105 15.7808C62.278 18.9319 121.183 22.3277 178.67 27.484C230.402 32.1454 282.921 38.2444 325.678 48.3485C347.476 53.3954 365.076 59.5204 378.442 66.7183C393.557 75.0465 401.447 84.26 409.512 93.3538C424.592 110.791 445.848 127.531 473.298 143.578C487.153 151.526 502.741 159.161 520.061 166.484C537.38 173.802 556.275 180.744 576.743 187.307C597.212 193.869 619.081 199.994 642.313 205.677C665.564 211.364 689.986 216.557 715.599 221.26C741.613 226.046 768.555 230.328 796.389 234.104C824.223 237.885 852.739 241.125 881.955 243.838C911.171 246.546 940.825 248.698 970.951 250.296C1001.08 251.89 1031.41 252.921 1061.96 253.385C1178.26 255.036 1302.65 248.942 1403.33 230.791C1414.48 228.776 1425.23 226.604 1435.64 224.27C1438.51 223.614 1435.64 222.135 1432.77 222.791C1339.21 243.776 1216.17 251.671 1100.88 251.927C1069.83 251.958 1038.88 251.395 1008.07 250.239C977.249 249.083 946.808 247.343 916.752 245.02C886.679 242.698 857.253 239.807 828.439 236.354C799.625 232.901 771.669 228.911 744.587 224.385C718.118 219.994 692.768 215.093 668.555 209.671C644.325 204.255 621.46 198.369 599.941 192.02C578.423 185.666 558.462 178.911 540.057 171.75C521.653 164.588 504.963 157.083 490.005 149.239C460.107 133.286 436.926 116.51 420.446 98.9163C412.049 90.1038 405.576 81.0881 393.872 72.5777C383.55 64.9058 368.61 58.1402 349.068 52.2756C312.819 41.5413 265.251 34.6819 217.683 29.536C162.435 23.5517 104.738 19.7704 47.1102 16.4683C32.992 15.661 18.8738 14.885 4.73812 14.1402C1.11672 13.9423 -0.440299 15.5673 3.32105 15.7808Z" fill="#055EA8" fill-opacity="0.1"/>
</g>
<mask id="mask7_87_12323" style="mask-type:luminance" maskUnits="userSpaceOnUse" x="-1" y="6" width="1441" height="220">
<path d="M-1 6.66699H1440V225.334H-1V6.66699Z" fill="white"/>
</mask>
<g mask="url(#mask7_87_12323)">
<path d="M3.32127 8.72437C61.561 11.5473 119.888 14.5837 176.886 19.2035C228.11 23.3442 280.052 28.7087 323.806 37.8702C345.272 42.2244 363.011 47.6619 377.007 54.1775C393.19 61.9692 401.465 70.8129 410.037 79.5317C425.677 95.8233 447.651 111.318 475.974 126.016C534.564 155.959 621.25 179.907 723.174 196.443C749.713 200.724 776.988 204.537 804.996 207.881C833.005 211.219 861.574 214.068 890.703 216.427C919.814 218.782 949.31 220.636 979.138 221.974C1008.98 223.318 1038.99 224.141 1069.15 224.454C1182.27 225.605 1302.61 220.287 1402.84 203.922C1414.11 202.084 1425.06 200.089 1435.68 197.933C1438.55 197.344 1435.85 195.922 1432.79 196.521C1338.65 215.667 1218.45 222.511 1106.15 222.927C1075.48 223.042 1044.9 222.62 1014.41 221.657C983.914 220.698 953.701 219.204 923.803 217.183C893.887 215.162 864.496 212.625 835.595 209.573C806.693 206.516 778.492 202.969 751.008 198.927C646.372 183.459 555.54 160.568 492.682 131.105C461.926 116.521 437.976 101.006 420.814 84.5629C412.189 76.4535 405.646 68.1358 393.994 60.3442C383.06 52.9796 367.473 46.6306 347.196 41.3025C309.828 31.5004 262.54 25.4848 215.689 20.9431C161.071 15.6358 104.545 12.2608 48.0201 9.31812C33.657 8.56291 19.2764 7.85458 4.73834 7.15145C1.2569 7.01604 -0.230143 8.56291 3.32127 8.72437Z" fill="#055EA8" fill-opacity="0.1"/>
</g>
<mask id="mask8_87_12323" style="mask-type:luminance" maskUnits="userSpaceOnUse" x="-1" y="0" width="1441" height="196">
<path d="M-1 0H1440V196H-1V0Z" fill="white"/>
</mask>
<g mask="url(#mask8_87_12323)">
<path d="M3.31948 1.68732C60.8069 4.19253 118.312 6.88003 174.925 10.9582C225.379 14.5936 276.691 19.2134 321.162 27.3644C341.684 31.13 360.7 35.755 374.906 41.5988C392.156 48.7342 401.148 57.1196 410.228 65.4009C426.603 80.6248 449.486 94.9269 478.877 108.307C540.65 136.057 629.961 157.068 730.398 171.297C784.404 178.88 840.456 184.708 898.591 188.781C956.708 192.854 1015.63 195.083 1075.32 195.469C1186.29 196.255 1303.85 191.62 1404.17 176.797C1414.91 175.203 1425.46 173.474 1435.78 171.604C1438.67 171.078 1436.01 169.729 1433.14 170.26C1387.85 178.531 1337.13 183.948 1285.59 187.614C1228.45 191.609 1170.55 193.713 1111.87 193.937C1051.28 194.291 991.26 192.745 931.779 189.291C872.314 185.844 814.722 180.568 759.019 173.469C655.835 160.14 561.976 140.166 495.777 112.849C463.884 99.5988 438.902 85.2759 420.847 69.88C411.96 62.3644 405.154 54.5884 392.996 47.4529C381.344 40.7081 365.406 35.0311 345.183 30.4217C307.149 21.6352 260.439 16.4269 214.62 12.479C159.669 7.71336 103.092 4.69774 46.5838 2.06232C32.623 1.41128 18.6448 0.781069 4.68406 0.171693C1.37757 0.0362764 -0.0744851 1.54148 3.31948 1.68732Z" fill="#055EA8" fill-opacity="0.1"/>
</g>
</svg>
