<svg width="941" height="964" viewBox="0 0 941 964" fill="none" xmlns="http://www.w3.org/2000/svg">
<path d="M-115 2.68818C-115 2.68818 17.3163 -27.8495 129.01 116.927C240.705 261.703 135.924 397.179 294.108 374.276C452.411 351.511 466 560 466 560H-115V2.68818Z" fill="#ACC9E2"/>
<g clip-path="url(#clip0_0_1)">
<path d="M-9 335.977C-9 335.977 207.141 301.5 389.595 464.955C572.049 628.409 400.888 781.364 659.284 755.506C917.874 729.804 940.072 965.191 940.072 965.191H-9V335.977Z" fill="#ACC9E2"/>
<path opacity="0.32" d="M766.381 965.192C766.381 965.192 733.473 685.14 429.123 682.163C124.774 679.185 -9 965.192 -9 965.192H766.381Z" fill="#055EA8"/>
<path opacity="0.46" d="M483.45 965.192C483.45 965.192 472.935 796.879 245.696 746.103C18.4557 695.327 -8.99997 600.2 -8.99997 516.514V965.192H483.45Z" fill="#055EA8"/>
</g>
<g clip-path="url(#clip1_0_1)">
<path d="M581.069 682.084C581.069 686.367 577.559 689.876 573.277 689.876H151.486C147.203 689.876 143.694 686.367 143.694 682.084L140.152 439.699C140.152 435.417 145.207 427.046 154.448 427.69L566.709 417C572.086 416.871 577.302 418.932 581.101 422.731C584.9 426.53 586.993 431.714 586.864 437.091L581.069 682.084Z" fill="url(#paint0_linear_0_1)"/>
<path d="M573.374 674.614C573.374 678.671 570.057 681.988 566 681.988H161.628C157.571 681.988 154.255 678.671 154.255 674.614L150.938 454.574C151.325 441.341 162.948 436.576 169.967 436.866L565.066 426.273C568.834 426.176 572.504 427.625 575.177 430.297C577.849 432.97 579.33 436.64 579.233 440.407L573.374 674.614Z" fill="url(#paint1_linear_0_1)"/>
<g opacity="0.65">
<path d="M158.634 569.682C158.247 569.682 157.958 569.392 157.925 569.006L157.668 551.168C157.668 550.782 157.958 550.46 158.344 550.46C158.73 550.428 159.052 550.75 159.052 551.136L159.31 568.973C159.342 569.36 159.02 569.682 158.634 569.682Z" fill="white"/>
<path d="M157.99 525.957C157.603 525.957 157.314 525.668 157.281 525.281L156.283 456.925C156.315 452.321 157.732 448.65 160.501 446.01C165.556 441.181 173.412 441.438 173.767 441.438L299.918 438.057C300.304 438.025 300.626 438.347 300.626 438.734C300.626 439.12 300.336 439.442 299.95 439.442L173.734 442.823C173.38 442.823 166.071 442.597 161.467 447.008C158.988 449.391 157.7 452.74 157.7 456.925L158.698 525.249C158.698 525.635 158.376 525.957 157.99 525.957Z" fill="white"/>
</g>
<path d="M182.911 631.727C183.265 616.304 183.136 479.753 182.267 467.969C181.397 456.185 199.75 453.963 227.955 452.643C256.161 451.323 494.07 446.075 500.188 445.559C513.969 444.432 516.802 465.039 515.417 509.697C514.387 543.28 512.681 598.563 511.876 624C511.65 631.566 505.436 637.587 497.87 637.587C440.622 637.748 221.194 638.36 206.576 638.811C189.769 639.326 182.782 637.845 182.911 631.727Z" fill="url(#paint2_linear_0_1)"/>
<path d="M604.638 710H128.657C122.797 710 118 705.235 118 699.375C118 693.515 122.797 688.717 128.657 688.717H604.638C610.498 688.717 615.295 693.515 615.295 699.375C615.295 705.235 610.498 710 604.638 710Z" fill="#055EA8"/>
<g clip-path="url(#clip2_0_1)">
<path d="M320.371 591.565C317.582 584.454 313.455 578.961 308.909 573.523C305.479 569.424 300.153 567.444 294.883 568.281C270.092 572.185 235.987 575.615 220.817 577.511C215.519 578.18 210.667 580.829 207.181 584.873C194.186 599.931 166.635 639.585 193.071 681.303C193.35 681.749 193.824 682 194.354 682H213.595C214.181 681.08 214.376 680.773 214.989 679.853C209.384 667.388 210.165 653.723 216.439 638.721C216.997 637.41 218.865 637.494 219.284 638.86C224.192 654.365 227.092 668.587 228.821 680.717C228.932 681.47 229.574 682.028 230.327 682.028H289.138C289.863 682.028 290.505 681.498 290.616 680.773C296.026 649.819 310.555 616.384 315.295 605.927C316.243 603.835 317.917 602.134 319.98 601.214C320.622 600.907 321.263 600.628 321.904 600.322C322.574 599.987 322.908 599.234 322.713 598.509C322.044 596.167 321.263 593.824 320.371 591.565Z" fill="#044E8C"/>
<path d="M372.685 559.636C371.318 558.297 371.374 556.094 372.824 554.839L542.567 403.39C543.041 402.972 543.738 402.86 544.296 403.139C545.3 403.613 545.495 404.98 544.686 405.733L377.147 559.719C375.864 560.863 373.912 560.835 372.685 559.636Z" fill="url(#paint3_linear_0_1)"/>
<path d="M215.575 631.163C210.555 616.719 211.615 599.959 211.95 596.027C211.978 595.553 212.424 595.218 212.87 595.274C213.316 595.33 213.651 595.72 213.623 596.166C213.288 599.959 212.256 616.44 217.164 630.606C217.304 631.052 217.109 631.526 216.662 631.665C216.216 631.833 215.742 631.61 215.575 631.163Z" fill="#044E8C"/>
<path d="M376.282 576.451C352.691 585.068 299.763 568.309 299.763 568.309L298.982 607.963C339.25 620.679 365.435 616.998 382.473 606.289C383.505 594.131 379.852 583.562 376.282 576.451Z" fill="#044E8C"/>
<path d="M413.845 534.036L403.973 532.084C403.973 532.084 401.268 563.484 379.294 575.113C378.346 575.615 377.342 576.033 376.282 576.423C379.852 583.562 383.505 594.103 382.445 606.261C417.052 584.566 413.845 534.036 413.845 534.036Z" fill="url(#paint4_linear_0_1)"/>
<path d="M404.475 534.845L403.973 532.112C403.973 532.112 401.909 525.42 407.375 518.839C415.239 509.33 420.816 512.09 420.816 512.09C420.816 512.09 420.621 514.879 420.649 516.664C420.677 518.114 421.848 518.671 422.908 517.695L436.321 505.342C436.321 505.342 439.918 524.806 412.367 537.69L404.475 534.845Z" fill="url(#paint5_linear_0_1)"/>
<path d="M245.971 544.271L244.186 575.168C244.13 576.089 244.716 576.897 245.608 577.12C249.54 578.096 260.36 580.076 269.785 574.722C271.012 574.025 271.57 572.575 271.179 571.209L263.288 543.462L245.971 544.271Z" fill="url(#paint6_linear_0_1)"/>
<path d="M270.51 512.843C270.51 512.843 279.155 532.67 279.713 543.099C280.298 553.501 282.529 560.277 270.51 562.368C258.464 564.46 248.341 558.464 242.847 548.091C242.847 548.091 234.231 532.112 236.183 525.559C238.079 519.006 270.51 512.843 270.51 512.843Z" fill="url(#paint7_linear_0_1)"/>
<path d="M246.947 540.617L247.644 540.311C248.508 539.92 248.899 538.888 248.452 538.052C246.751 534.761 243.433 527.26 247.727 525.503C253.249 523.244 275.056 518.783 279.768 511.058C284.286 503.613 280.27 494.02 274.247 491.287C273.857 491.092 273.355 491.259 273.159 491.649L272.658 492.598C272.323 493.239 271.347 493.155 271.152 492.43C270.956 491.761 270.064 491.621 269.674 492.207C268.224 494.522 264.32 498.286 253.862 500.21C238.999 502.943 229.183 508.967 228.96 519.229C228.932 519.87 228.263 520.233 227.705 519.898C226.618 519.229 224.861 518.922 222.518 520.902C218.447 524.332 220.12 533.228 229.044 540.534C229.462 540.868 229.462 541.538 229.016 541.844C227.398 542.904 224.972 545.414 231.247 548.76C237.716 552.218 242.568 551.939 244.409 551.632C244.883 551.549 245.162 551.102 245.078 550.656L243.098 541.649C242.987 541.147 243.377 540.645 243.907 540.645H246.947V540.617Z" fill="url(#paint8_linear_0_1)"/>
<path d="M247.309 542.513C247.309 542.513 244.019 529.853 238.33 533.395C232.641 536.936 241.286 547.589 245.831 548.063L247.309 542.513Z" fill="url(#paint9_linear_0_1)"/>
<g clip-path="url(#clip3_0_1)">
<g opacity="0.74">
<path d="M330.073 542.203C330.041 542.203 330.009 542.203 329.977 542.203L323.05 541.369C322.697 541.337 322.441 541.08 322.377 540.728L321.19 535.212C318.689 534.282 316.348 532.968 314.232 531.3L308.877 533.16C308.556 533.256 308.203 533.16 307.979 532.903L303.65 527.388C303.425 527.131 303.425 526.747 303.618 526.458L306.696 521.712C305.574 519.275 304.868 516.678 304.548 514.016L299.481 511.547C299.16 511.387 299 511.066 299.032 510.713L299.866 503.787C299.898 503.434 300.154 503.177 300.507 503.113L306.023 501.927C306.953 499.426 308.267 497.085 309.935 494.968L308.075 489.613C307.979 489.292 308.075 488.94 308.332 488.715L313.847 484.386C314.104 484.162 314.488 484.162 314.777 484.354L319.523 487.433C321.96 486.31 324.557 485.605 327.219 485.284L329.688 480.185C329.848 479.865 330.169 479.704 330.522 479.736L337.448 480.57C337.801 480.602 338.058 480.859 338.122 481.212L339.308 486.727C341.809 487.657 344.15 488.972 346.267 490.639L351.622 488.779C351.943 488.683 352.295 488.779 352.52 489.036L356.849 494.551C357.073 494.808 357.073 495.193 356.881 495.481L353.802 500.227C354.925 502.664 355.63 505.262 355.951 507.923L361.017 510.392C361.338 510.553 361.498 510.873 361.466 511.226L360.633 518.153C360.601 518.505 360.344 518.762 359.991 518.826L354.476 520.013C353.546 522.514 352.231 524.855 350.564 526.971L352.424 532.326C352.52 532.647 352.424 533 352.167 533.224L346.651 537.553C346.395 537.778 346.01 537.778 345.722 537.585L340.976 534.507C338.539 535.629 335.941 536.335 333.28 536.655L330.778 541.754C330.65 542.042 330.361 542.203 330.073 542.203ZM314.328 530.563L314.456 530.659C316.605 532.358 318.978 533.705 321.543 534.635L321.703 534.699L322.954 540.567C322.954 540.632 323.018 540.696 323.082 540.696L330.009 541.529C330.073 541.529 330.137 541.497 330.169 541.433L332.799 536.046L332.991 536.014C335.685 535.725 338.346 534.988 340.815 533.833L340.976 533.769L346.01 537.04C346.074 537.072 346.138 537.072 346.203 537.04L351.718 532.711C351.782 532.679 351.782 532.615 351.782 532.551L349.826 526.875L349.922 526.747C351.622 524.598 352.969 522.225 353.899 519.66L353.963 519.499L359.831 518.249C359.895 518.249 359.959 518.185 359.959 518.121L360.793 511.194C360.793 511.13 360.761 511.066 360.697 511.034L355.31 508.404L355.277 508.212C354.989 505.518 354.251 502.857 353.097 500.388L353.033 500.227L356.304 495.193C356.336 495.129 356.336 495.064 356.304 495L351.975 489.485C351.943 489.421 351.878 489.421 351.814 489.421L346.138 491.409L346.01 491.313C343.862 489.613 341.489 488.266 338.923 487.336L338.763 487.24L337.48 481.372C337.48 481.308 337.416 481.244 337.352 481.244L330.426 480.41C330.361 480.41 330.297 480.442 330.265 480.506L327.636 485.893L327.443 485.925C324.75 486.214 322.088 486.952 319.619 488.106L319.459 488.17L314.424 484.899C314.36 484.867 314.296 484.867 314.232 484.899L308.748 489.228C308.684 489.26 308.684 489.324 308.684 489.389L310.64 495.064L310.544 495.225C308.845 497.373 307.498 499.746 306.568 502.312L306.504 502.472L300.603 503.723C300.539 503.723 300.475 503.787 300.475 503.851L299.641 510.777C299.641 510.841 299.673 510.905 299.738 510.938L305.125 513.567L305.157 513.759C305.445 516.453 306.183 519.115 307.337 521.584L307.402 521.744L304.131 526.779C304.099 526.843 304.099 526.907 304.131 526.971L308.46 532.454C308.492 532.519 308.556 532.519 308.62 532.519L314.328 530.563ZM330.394 528.093C329.688 528.093 328.983 528.061 328.277 527.965C325.167 527.58 322.249 526.394 319.811 524.47C319.683 524.374 319.651 524.149 319.747 524.021C319.844 523.893 320.068 523.861 320.196 523.957C322.537 525.785 325.359 526.939 328.341 527.324C337.416 528.414 345.657 521.937 346.748 512.894C347.838 503.819 341.36 495.578 332.318 494.487C323.243 493.397 315.001 499.874 313.911 508.917C313.783 510.104 313.751 511.29 313.847 512.445C313.879 512.637 313.719 512.765 313.558 512.797C313.366 512.83 313.238 512.669 313.206 512.509C313.109 511.29 313.109 510.072 313.27 508.853C314.424 499.426 323.018 492.691 332.414 493.814C341.841 494.968 348.543 503.53 347.421 512.958C346.876 517.511 344.567 521.584 340.944 524.438C337.897 526.811 334.21 528.093 330.394 528.093Z" fill="white"/>
<path d="M330.233 517.511C329.432 517.511 328.63 517.351 327.892 517.062C324.525 515.78 322.858 511.964 324.14 508.629C325.423 505.262 329.239 503.594 332.574 504.877C335.941 506.16 337.609 509.976 336.326 513.311C335.685 514.946 334.466 516.229 332.863 516.934C332.029 517.319 331.131 517.511 330.233 517.511ZM324.75 508.853C323.595 511.868 325.102 515.299 328.117 516.453C329.592 517.03 331.195 516.966 332.606 516.357C334.049 515.716 335.139 514.561 335.717 513.086C336.871 510.072 335.364 506.641 332.35 505.486C329.303 504.332 325.904 505.839 324.75 508.853Z" fill="white"/>
<path d="M379.969 497.437C379.809 497.437 379.648 497.373 379.552 497.245L377.853 495.225C376.602 495.385 375.383 495.353 374.133 495.129L372.337 497.053C372.177 497.213 371.92 497.277 371.696 497.181L368.617 495.834C368.393 495.738 368.264 495.513 368.297 495.289L368.521 492.659C367.527 491.89 366.693 490.992 365.956 489.966L363.326 490.062C363.102 490.062 362.877 489.934 362.781 489.709L361.563 486.567C361.466 486.342 361.53 486.086 361.723 485.957L363.743 484.258C363.583 483.007 363.615 481.789 363.839 480.538L361.915 478.742C361.755 478.582 361.691 478.325 361.787 478.101L363.134 475.023C363.23 474.798 363.454 474.67 363.679 474.702L366.308 474.926C367.078 473.932 367.976 473.099 369.002 472.361L368.906 469.796C368.906 469.571 369.034 469.347 369.259 469.251L372.401 468.032C372.626 467.936 372.882 468 373.01 468.192L374.71 470.213C375.961 470.052 377.179 470.084 378.43 470.309L380.225 468.385C380.386 468.224 380.642 468.16 380.867 468.256L383.945 469.603C384.17 469.699 384.298 469.924 384.266 470.148L384.041 472.778C385.035 473.548 385.869 474.445 386.607 475.472L389.236 475.375C389.461 475.375 389.685 475.504 389.781 475.728L391 478.871C391.096 479.095 391.032 479.352 390.84 479.48L388.787 481.147C388.948 482.398 388.916 483.617 388.691 484.867L390.615 486.663C390.775 486.823 390.84 487.08 390.743 487.304L389.397 490.383C389.3 490.607 389.076 490.735 388.851 490.703L386.222 490.479C385.452 491.473 384.554 492.307 383.528 493.044L383.625 495.674C383.625 495.898 383.496 496.123 383.272 496.219L380.129 497.437C380.097 497.405 380.033 497.437 379.969 497.437ZM378.109 494.551L380.001 496.764L383.015 495.61L382.919 492.691L383.079 492.595C384.138 491.858 385.1 490.96 385.869 489.934L385.965 489.805L388.884 490.062L390.198 487.112L388.05 485.124L388.082 484.963C388.306 483.681 388.338 482.398 388.178 481.115L388.146 480.923L390.359 479.031L389.204 476.017L386.286 476.113L386.19 475.953C385.452 474.894 384.554 473.932 383.528 473.163L383.4 473.066L383.657 470.148L380.706 468.834L378.718 470.982L378.558 470.95C377.275 470.726 375.993 470.694 374.71 470.854L374.453 470.886L372.561 468.673L369.547 469.828L369.643 472.746L369.483 472.842C368.425 473.58 367.463 474.477 366.693 475.504L366.597 475.632L363.679 475.375L362.364 478.325L364.513 480.314L364.481 480.474C364.256 481.757 364.224 483.039 364.384 484.322L364.416 484.514L362.204 486.406L363.358 489.421L366.276 489.324L366.373 489.485C367.11 490.543 368.008 491.505 369.034 492.275L369.227 492.371L368.97 495.289L371.92 496.604L373.908 494.455L374.069 494.487C375.351 494.712 376.634 494.744 377.917 494.583L378.109 494.551ZM376.345 491.152C375.191 491.152 374.037 490.896 372.946 490.415C371.535 489.805 370.349 488.811 369.451 487.561C369.355 487.4 369.387 487.208 369.515 487.112C369.675 487.016 369.868 487.048 369.964 487.176C370.766 488.33 371.888 489.228 373.171 489.805C375.063 490.639 377.179 490.703 379.135 489.934C381.091 489.196 382.598 487.721 383.432 485.829C384.266 483.937 384.33 481.821 383.56 479.865C382.855 477.941 381.412 476.401 379.488 475.568C377.596 474.734 375.48 474.67 373.523 475.439C371.567 476.177 370.06 477.652 369.227 479.544C369.002 480.057 368.842 480.57 368.713 481.115C368.681 481.276 368.521 481.404 368.329 481.372C368.168 481.34 368.04 481.179 368.072 480.987C368.2 480.41 368.361 479.833 368.617 479.287C369.515 477.235 371.183 475.632 373.299 474.83C375.415 474.029 377.692 474.061 379.744 474.991C381.797 475.888 383.4 477.556 384.202 479.672C385.003 481.789 384.971 484.065 384.041 486.118C383.144 488.17 381.476 489.773 379.36 490.575C378.398 490.96 377.371 491.152 376.345 491.152Z" fill="white"/>
</g>
</g>
</g>
</g>
<path d="M580.764 877.087H573.001V961.202H580.764V877.087Z" fill="#17181A"/>
<path d="M610.928 962.81H542.782V959.428C542.782 958.485 543.558 957.765 544.445 957.765H609.209C610.152 957.765 610.873 958.541 610.873 959.428V962.81H610.928Z" fill="#17181A"/>
<path d="M621.02 874.148C621.02 878.75 617.249 882.521 612.647 882.521H543.724C539.122 882.521 535.352 878.75 535.352 874.148V866.607C535.352 862.005 539.122 858.234 543.724 858.234H612.647C617.249 858.234 621.02 862.005 621.02 866.607V874.148Z" fill="#17181A"/>
<path d="M519.438 820.973C519.438 820.973 507.905 822.747 494.874 831.452C492.823 832.839 491.714 835.223 491.991 837.663C493.543 849.972 499.92 889.895 521.046 928.82C522.155 930.872 522.488 933.256 521.988 935.529L518.329 952.607L511.509 958.984H529.03L540.675 927.434L535.684 925.881C531.803 924.661 529.141 921.113 529.086 917.065L528.476 883.241C528.975 868.159 519.216 857.79 519.216 857.79L547.162 856.404L519.438 820.973Z" fill="url(#paint10_linear_0_1)"/>
<path d="M504.744 962.089C503.136 964.196 521.878 966.913 531.359 962.366C531.359 962.366 544.501 939.522 544.501 927.766C544.501 927.766 543.447 925.382 535.74 925.937C535.74 925.937 531.304 952.996 526.646 956.045C521.988 959.095 513.616 956.378 513.616 956.378C513.616 956.378 507.073 958.984 504.744 962.089Z" fill="#ACC9E2"/>
<path d="M543.78 858.234C543.613 857.957 513.671 854.63 513.671 854.63C513.671 854.63 514.669 863.723 511.564 876.255C508.514 888.786 464.544 943.126 464.544 943.126L468.813 957.764C454.563 962.755 442.032 962.311 428.225 959.04L455.672 943.126C455.672 943.126 482.398 851.968 498.811 835.722L528.864 825.353L543.78 858.234Z" fill="url(#paint11_linear_0_1)"/>
<path d="M610.928 805.17C610.928 805.17 628.173 830.843 629.614 842.542C631.056 854.242 624.624 862.892 606.769 859.787C547.828 859.343 533.799 881.8 529.862 910.134C529.807 910.578 529.419 910.91 528.975 910.91C508.515 911.576 487.777 907.306 468.98 897.991C468.093 897.547 467.76 896.494 468.203 895.606C496.926 839.326 475.079 828.181 536.96 811.491C545.277 810.548 610.928 805.17 610.928 805.17Z" fill="#2D1365"/>
<path d="M467.372 952.83C467.372 952.83 472.362 957.654 468.98 962.977C468.98 962.977 429.667 969.963 418.965 966.803C418.965 966.803 421.682 961.646 433.659 955.879L432.273 956.656C431.164 957.543 431.829 959.317 433.215 959.206C441.255 958.763 457.613 957.321 467.372 952.83Z" fill="#ACC9E2"/>
<path d="M564.24 801.788C564.24 801.788 544.168 782.658 534.243 769.96C528.92 763.085 527.201 754.102 529.696 745.785C534.187 730.592 542.227 714.789 542.948 712.349C544.057 708.579 566.625 708.745 566.625 708.745C566.625 708.745 618.025 732.144 628.394 786.262L608.821 792.362C608.821 792.362 597.232 772.955 585.81 760.59C585.81 760.59 605.605 786.761 606.326 797.463L564.24 801.788Z" fill="#EA2CC1"/>
<path d="M540.287 691.334C540.508 692.111 546.386 711.628 546.885 712.017C547.329 712.405 559.804 713.07 565.627 709.078L555.701 688.285L540.287 691.334Z" fill="url(#paint12_linear_0_1)"/>
<path d="M549.935 650.358C549.935 650.358 539.344 654.849 532.08 670.208C524.872 685.568 530.25 692.609 537.015 693.608C543.78 694.606 553.927 694.439 564.628 684.514C575.385 674.589 563.741 645.035 549.935 650.358Z" fill="url(#paint13_linear_0_1)"/>
<path d="M523.319 803.23L538.069 788.979L558.474 797.629C558.474 797.629 578.823 800.79 590.468 797.629C602.112 794.469 602.112 794.469 602.112 794.469L628.394 786.262L632.497 797.962C633.551 800.901 632.497 804.228 629.947 806.057C627.673 807.665 625.012 809.44 623.293 810.216C619.855 811.713 537.902 809.162 537.902 809.162L523.319 803.23Z" fill="url(#paint14_linear_0_1)"/>
<path d="M579.212 809.939C579.156 809.939 579.101 809.939 578.99 809.939L493.322 809.828C491.215 809.828 489.496 808.109 489.496 806.002C489.496 803.895 491.215 802.121 493.322 802.176L578.99 802.287C581.097 802.287 582.816 804.006 582.816 806.113C582.816 808.164 581.208 809.828 579.212 809.939Z" fill="url(#paint15_linear_0_1)"/>
<path d="M416.359 732.145H487.666C492.934 732.145 497.702 735.194 499.976 739.963L532.967 809.883H444.305C440.923 809.883 437.873 807.832 436.598 804.671L411.036 739.963C409.594 736.192 412.311 732.145 416.359 732.145Z" fill="url(#paint16_linear_0_1)"/>
<path d="M466.596 768.02C468.148 772.844 466.984 777.501 464.045 778.444C461.106 779.387 457.447 776.282 455.894 771.458C454.341 766.634 455.506 761.976 458.445 761.033C461.439 760.091 465.043 763.196 466.596 768.02Z" fill="white"/>
<path d="M358.027 978.669C357.639 978.669 357.195 978.558 356.807 978.391C355.199 977.67 354.479 975.785 355.144 974.177L420.906 817.701C421.571 816.093 423.457 815.317 425.009 816.038C426.617 816.759 427.338 818.644 426.673 820.252L360.911 976.728C360.412 977.948 359.247 978.669 358.027 978.669Z" fill="#45484F"/>
<path d="M432.162 978.669C430.942 978.669 429.778 977.948 429.279 976.728L363.517 820.252C362.851 818.644 363.572 816.759 365.18 816.038C366.788 815.317 368.618 816.093 369.283 817.701L435.045 974.177C435.711 975.785 434.99 977.67 433.382 978.391C432.994 978.558 432.55 978.669 432.162 978.669Z" fill="#45484F"/>
<path d="M617.083 978.669C616.695 978.669 616.251 978.558 615.863 978.391C614.255 977.67 613.534 975.785 614.199 974.177L679.961 817.701C680.627 816.093 682.512 815.317 684.065 816.038C685.673 816.759 686.394 818.644 685.728 820.252L619.966 976.728C619.467 977.948 618.303 978.669 617.083 978.669Z" fill="#45484F"/>
<path d="M691.218 978.669C689.998 978.669 688.833 977.948 688.334 976.728L622.572 820.252C621.907 818.644 622.628 816.759 624.236 816.038C625.844 815.317 627.673 816.093 628.339 817.701L694.101 974.177C694.766 975.785 694.045 977.67 692.437 978.391C692.049 978.558 691.606 978.669 691.218 978.669Z" fill="#45484F"/>
<path d="M698.925 813.044C699.147 812.046 698.869 811.048 698.204 810.327C697.539 809.55 696.541 809.107 695.487 809.107H338.066C336.679 809.107 335.404 809.772 334.628 810.881C333.907 811.99 333.796 813.376 334.351 814.541L338.232 822.415C339.119 824.189 341.06 825.353 343.167 825.353H693.047C694.988 825.353 696.707 824.023 697.095 822.248L698.925 813.044Z" fill="#17181A"/>
<path d="M577.714 663.554C570.839 657.344 568.732 642.429 574.72 636.496C590.19 621.192 611.039 648.75 593.85 662.612C591.188 664.774 587.861 666.327 584.424 666.327C581.873 666.327 579.6 665.273 577.714 663.554Z" fill="#805700"/>
<path d="M533.633 654.461C532.801 657.4 535.463 660.172 538.457 659.507C541.451 658.786 545.166 658.176 548.382 658.287C570.062 659.119 561.634 673.203 561.634 675.476C561.634 680.078 566.181 673.092 566.403 674.644C566.957 678.027 559.971 688.229 559.971 688.229C559.971 688.229 578.213 685.346 582.705 678.581C587.196 671.817 585.644 656.568 582.705 651.134C579.932 645.922 567.623 638.27 561.413 638.27C555.535 638.215 538.124 638.104 533.633 654.461Z" fill="#805700"/>
<path d="M559.694 678.803C559.694 678.803 563.741 667.214 569.12 671.872C574.498 676.474 564.739 682.573 560.913 684.514L559.694 678.803Z" fill="url(#paint17_linear_0_1)"/>
<path d="M130.642 366.588L141.324 384.624C142.769 387.073 143.077 390.026 142.202 392.71C139.953 399.486 133.416 412.382 115.073 423.017C96.4508 433.824 83.5782 431.361 77.7249 429.026C75.6072 428.194 73.7896 426.662 72.6142 424.727L61.1109 405.705L130.642 366.588Z" fill="#044E8C"/>
<path d="M81.1 353.075L141.564 353.616C144.676 353.657 146.5 357.146 144.744 359.71C136.183 372.239 116.842 401.29 110.744 416.777C110.079 418.425 108.394 419.435 106.631 419.193L43.3859 411.015C40.5126 410.649 39.0446 407.39 40.6506 404.998C49.0716 392.311 70.5996 360.481 78.6162 353.91C79.2863 353.369 80.1825 353.062 81.1 353.075Z" fill="#055EA8"/>
<path d="M90.1645 381.798C90.1645 381.798 65.3123 408.813 64.1673 413.757C63.0527 418.693 72.9546 437.104 72.9546 437.104C72.7264 454.987 76.9079 473.245 87.4254 480.522C87.4254 480.522 91.3508 456.026 84.4804 447.992C77.61 439.959 74.8875 436.647 74.8875 436.647C74.8875 436.647 65.401 416.753 65.8042 413.413C65.7656 413.391 93.0098 382.302 90.1645 381.798Z" fill="#17181A"/>
<path d="M135.403 360.895L114.293 397.05L109.029 406.077L107.71 408.326L107.036 409.455C106.836 409.803 106.568 410.137 106.29 410.44C105.174 411.623 103.528 412.296 101.859 412.159L80.9605 410.918C80.792 410.898 80.6646 411.03 80.6448 411.199C80.6251 411.367 80.7574 411.495 80.9259 411.515L101.805 412.925C103.642 413.081 105.562 412.334 106.836 411.011C107.166 410.66 107.465 410.318 107.679 409.902L108.353 408.773L109.702 406.516L115.044 397.533L136.424 361.533C136.602 361.224 136.503 360.859 136.194 360.681C135.946 360.487 135.581 360.586 135.403 360.895Z" fill="#91B3FA"/>
<path d="M77.8649 446.581L77.9422 446.625L78.0277 446.7L78.1905 446.819L78.5547 447.08C78.8029 447.274 79.0207 447.476 79.2386 447.678L79.8781 448.354C80.0738 448.595 80.2694 448.836 80.465 449.077C80.6607 449.318 80.8563 449.559 81.0298 449.838C81.195 450.087 81.3988 450.359 81.564 450.608L82.0457 451.424C82.2191 451.704 82.3844 451.953 82.497 452.249L82.9178 453.082C83.0608 453.37 83.2038 453.657 83.3164 453.953C83.5416 454.545 83.7972 455.129 84.0224 455.721L84.6067 457.521C84.6478 457.674 84.7193 457.817 84.7604 457.97L84.8837 458.426L85.0998 459.347C85.4285 460.563 85.6133 461.852 85.8507 463.093C85.9025 463.406 85.9542 463.718 85.9756 464.039L86.07 464.992C86.1431 465.625 86.2162 466.258 86.2589 466.9C86.3138 468.19 86.3909 469.443 86.4154 470.742L86.3812 474.602C86.3837 474.732 86.4692 474.807 86.5991 474.805C86.729 474.802 86.8038 474.717 86.8013 474.587L86.935 470.732C86.9409 469.425 86.886 468.134 86.8697 466.865C86.827 466.224 86.7844 465.583 86.7031 464.919L86.639 463.957C86.6177 463.637 86.5964 463.316 86.5446 463.004C86.3294 461.724 86.2054 460.419 85.8989 459.163L85.705 458.204L85.6122 457.739C85.5711 457.587 85.53 457.435 85.4807 457.253L84.9408 455.375C84.7074 454.753 84.4822 454.161 84.2488 453.538C84.1362 453.242 83.9849 452.924 83.8419 452.636L83.4351 451.734C83.3225 451.438 83.149 451.159 82.9674 450.849L82.4775 450.002C82.3041 449.722 82.1002 449.451 81.9268 449.172C81.7533 448.892 81.5495 448.621 81.3456 448.349C81.1418 448.078 80.9379 447.807 80.7423 447.566L80.0559 446.837C79.7994 446.613 79.5734 446.38 79.3169 446.156L78.9363 445.834L78.7267 445.662L78.6107 445.596L78.4866 445.499C78.2079 445.313 77.8043 445.389 77.6266 445.698C77.449 446.008 77.5172 446.381 77.8263 446.558L77.8649 446.581Z" fill="#91B3FA"/>
<path d="M79.0396 454.554L79.3519 455.71L79.7052 457.018L80.3897 459.673L81.7283 464.99L84.3751 475.634C84.4244 475.816 84.6176 475.927 84.7697 475.886C84.9522 475.837 85.0714 475.674 85.0221 475.492L82.6491 464.774L81.4322 459.424L80.8086 456.752L80.4774 455.406L80.327 454.728L80.2366 454.394C80.1956 454.242 80.1545 454.089 80.083 453.946C79.9704 453.65 79.6308 453.48 79.3044 453.601C79.0085 453.714 78.8613 454.014 78.9435 454.319L79.0396 454.554Z" fill="#91B3FA"/>
<path d="M279.684 380.631L282.539 381.619C282.539 381.619 322.509 349.006 353.255 352.52L364.455 349.555C364.455 349.555 374.777 334.182 388.173 331.327C401.46 328.472 413.539 338.245 413.539 338.245L416.064 337.147C416.064 337.147 401.131 322.323 389.601 321.884C378.071 321.445 314.712 342.418 314.712 342.418L279.684 380.631Z" fill="#044E8C"/>
<path d="M303.732 271.812C303.732 271.812 257.393 259.074 225 292.566L279.684 380.631C279.684 380.631 315.701 348.677 353.255 349.556L303.732 271.812Z" fill="#044E8C"/>
<path d="M363.577 346.261L353.365 349.555L303.732 271.812L313.944 268.408L363.577 346.261Z" fill="#044E8C"/>
<path d="M313.944 268.408C313.944 268.408 331.842 246.117 363.577 256.878L416.065 337.147C416.065 337.147 387.954 312.221 363.686 346.261L313.944 268.408Z" fill="#044E8C"/>
<path d="M303.732 271.811C303.732 271.811 272.766 253.583 227.855 283.561L283.417 369.65C283.417 369.65 320.971 335.17 353.474 349.665L303.732 271.811Z" fill="#C9C9F1"/>
<path d="M357.098 348.347L353.365 349.555C353.365 349.555 319.324 330.449 286.163 362.952L231.369 278.949C231.369 278.949 271.778 249.082 307.246 270.604L357.098 348.347Z" fill="#E7E7FD"/>
<path d="M357.098 348.347L354.902 349.116C354.902 349.116 328.329 327.154 288.029 351.751L235.542 271.153C235.542 271.153 274.743 243.042 309.222 269.945L357.098 348.347Z" fill="#F7F7FF"/>
<path d="M357.098 348.347L360.063 347.359C360.063 347.359 383.891 310.574 415.735 332.755L365.883 258.305C365.883 258.305 323.497 234.807 309.332 269.945L357.098 348.347Z" fill="#C9C9F1"/>
<path d="M357.098 348.347L358.635 347.908C358.635 347.908 382.793 308.597 414.198 329.021L368.408 260.172C368.408 260.172 324.815 229.426 309.222 269.945L357.098 348.347Z" fill="#E7E7FD"/>
<path d="M305.159 272.361C276.06 260.172 248.279 275.545 247.95 275.655L247.071 274.228C247.401 274.118 274.633 259.074 303.732 270.055L305.159 272.361Z" fill="#C9C9F1"/>
<path d="M308.234 277.631C279.794 265.553 251.573 280.706 251.354 280.926L250.585 279.498C250.915 279.388 278.366 264.455 306.916 275.325L308.234 277.631Z" fill="#C9C9F1"/>
<path d="M311.199 282.792C283.308 270.823 254.868 285.867 254.538 285.977L253.77 284.549C254.099 284.44 281.77 269.725 309.771 280.486L311.199 282.792Z" fill="#C9C9F1"/>
<path d="M314.273 287.953C286.931 276.094 258.272 290.918 257.942 291.138L257.174 289.6C257.393 289.381 285.394 274.886 312.846 285.538L314.273 287.953Z" fill="#C9C9F1"/>
<path d="M317.238 293.114C290.555 281.365 261.456 296.079 261.127 296.189L260.358 294.652C260.687 294.542 288.908 280.157 315.811 290.589L317.238 293.114Z" fill="#C9C9F1"/>
<path d="M320.313 298.275C294.069 286.636 264.75 301.13 264.531 301.35L263.762 299.813C264.091 299.703 292.531 285.538 318.885 295.86L320.313 298.275Z" fill="#C9C9F1"/>
<path d="M323.277 303.436C297.692 291.907 268.044 306.291 267.825 306.401L267.056 304.864C267.386 304.754 296.045 290.809 321.85 300.911L323.277 303.436Z" fill="#C9C9F1"/>
<path d="M326.352 308.597C301.316 297.177 271.449 311.342 271.119 311.562L270.35 310.025C270.68 309.915 299.559 296.079 324.925 306.181L326.352 308.597Z" fill="#C9C9F1"/>
<path d="M329.317 313.758C304.83 302.448 274.743 316.503 274.413 316.723L273.645 315.186C273.974 315.076 303.073 301.46 327.889 311.342L329.317 313.758Z" fill="#C9C9F1"/>
<path d="M332.282 318.919C308.453 307.719 278.037 321.664 277.707 321.774L277.049 320.237C277.378 320.127 306.697 306.73 330.964 316.394L332.282 318.919Z" fill="#C9C9F1"/>
<path d="M335.356 324.08C311.967 312.989 281.331 326.715 281.002 326.935L280.343 325.398C280.672 325.288 310.21 312.001 333.929 321.554L335.356 324.08Z" fill="#C9C9F1"/>
<path d="M338.321 329.241C315.481 318.37 284.625 331.876 284.296 332.096L283.637 330.559C283.967 330.449 313.724 317.382 336.894 326.825L338.321 329.241Z" fill="#C9C9F1"/>
<path d="M341.396 334.292C319.105 323.531 287.92 336.927 287.59 337.037L286.931 335.5C288.249 334.951 317.348 322.433 339.968 331.766L341.396 334.292Z" fill="#C9C9F1"/>
<path d="M344.36 339.453C322.619 328.911 291.214 342.088 290.884 342.198L290.225 340.661C291.543 340.112 320.752 327.813 342.933 336.927L344.36 339.453Z" fill="#C9C9F1"/>
<path d="M514.173 282.44L513.843 283.318C512.635 284.746 509.231 284.965 506.047 284.307C502.643 283.648 499.349 282.11 499.129 280.134V279.475L514.173 282.44Z" fill="#044E8C"/>
<path d="M531.412 258.392C530.424 263.663 527.349 267.945 523.396 270.8C521.31 272.228 519.553 273.985 518.016 275.961C516.479 277.938 515.161 280.134 514.282 282.44C514.173 282.769 514.063 282.989 513.843 283.209C512.635 284.636 509.231 284.856 506.047 284.197C502.643 283.538 499.349 282.001 499.129 280.024C499.129 279.805 499.129 279.585 499.129 279.365C499.129 274.314 497.701 269.373 495.066 265.2C492.211 260.698 491.223 255.208 492.541 249.608C494.956 239.945 504.4 233.466 514.392 234.674C525.922 236.211 533.718 247.192 531.412 258.392Z" fill="#E7B84B"/>
<path d="M503.521 284.087C503.302 284.087 503.192 283.868 503.192 283.758C503.192 283.538 505.059 265.64 505.498 257.075C505.498 256.635 505.278 256.306 504.949 256.086L500.996 254.11C500.776 254 500.776 253.781 500.886 253.671C500.996 253.451 501.215 253.451 501.325 253.561L505.278 255.537C505.937 255.867 506.266 256.526 506.266 257.185C505.827 265.859 503.96 283.758 503.96 283.977C503.851 283.977 503.741 284.087 503.521 284.087Z" fill="white"/>
<path d="M505.059 284.856C504.839 284.856 504.729 284.636 504.839 284.417L507.474 272.997C507.474 272.777 507.694 272.667 507.914 272.777C508.133 272.777 508.243 272.997 508.133 273.216L505.498 284.746C505.498 284.856 505.278 284.966 505.059 284.856Z" fill="white"/>
<path d="M508.353 284.966C508.243 284.966 508.243 284.966 508.353 284.966C508.133 284.856 508.023 284.637 508.133 284.527L516.918 259.82C517.247 258.722 518.235 257.953 519.333 257.844L522.079 257.514C522.298 257.514 522.408 257.624 522.518 257.844C522.518 258.063 522.408 258.173 522.188 258.283L519.443 258.612C518.565 258.722 517.796 259.271 517.577 260.15L508.792 284.856C508.682 284.966 508.463 285.076 508.353 284.966Z" fill="white"/>
<path d="M504.29 258.283C503.411 258.063 502.862 257.294 503.082 256.416C503.302 255.538 504.07 254.988 504.949 255.208C505.827 255.428 506.376 256.196 506.157 257.075C505.937 257.843 505.168 258.393 504.29 258.283ZM504.729 255.867C504.29 255.757 503.851 256.087 503.741 256.526C503.631 256.965 503.96 257.404 504.4 257.514C504.839 257.624 505.278 257.294 505.388 256.855C505.498 256.416 505.278 255.977 504.729 255.867Z" fill="white"/>
<path d="M518.455 261.028C517.577 260.808 517.028 260.04 517.247 259.161C517.467 258.283 518.235 257.734 519.114 257.953C519.992 258.173 520.541 258.941 520.322 259.82C520.102 260.698 519.333 261.247 518.455 261.028ZM518.894 258.722C518.455 258.612 518.016 258.941 517.906 259.381C517.796 259.82 518.126 260.259 518.565 260.369C519.004 260.479 519.443 260.149 519.553 259.71C519.663 259.161 519.333 258.722 518.894 258.722Z" fill="white"/>
<path d="M494.188 252.243C494.188 252.243 498.251 234.674 512.855 236.76C512.855 236.76 500.556 239.944 494.188 252.243Z" fill="white"/>
<path d="M487.16 247.192C487.16 247.192 480.462 245.984 482.328 243.458C484.305 240.713 487.16 247.192 487.16 247.192Z" fill="#E7B84B"/>
<path d="M499.349 232.697C499.349 232.697 495.505 227.097 498.58 226.548C501.984 226.109 499.349 232.697 499.349 232.697Z" fill="#E7B84B"/>
<path d="M518.235 231.16C518.235 231.16 519.443 224.462 521.969 226.328C524.824 228.305 518.235 231.16 518.235 231.16Z" fill="#E7B84B"/>
<path d="M533.279 243.348C533.279 243.348 536.463 237.309 538.33 239.835C540.417 242.58 533.279 243.348 533.279 243.348Z" fill="#E7B84B"/>
<path d="M534.377 262.565C534.377 262.565 539.428 257.953 540.307 261.028C541.295 264.322 534.377 262.565 534.377 262.565Z" fill="#E7B84B"/>
<path d="M513.843 283.209L511.427 289.358C510.769 292.652 498.251 290.127 498.909 286.832L499.019 280.024C499.349 281.891 502.533 283.428 505.937 284.197C509.231 284.856 512.635 284.636 513.843 283.209Z" fill="#044E8C"/>
<path d="M505.388 286.942C503.521 286.613 501.764 285.954 500.556 285.295C498.69 284.307 498.47 283.318 498.58 282.66C498.58 282.55 498.69 282.44 498.909 282.44C499.019 282.44 499.129 282.55 499.129 282.769C498.909 284.087 501.655 285.624 505.498 286.393C509.451 287.162 512.525 286.722 512.855 285.405C512.855 285.295 512.965 285.185 513.184 285.185C513.294 285.185 513.404 285.295 513.404 285.515C512.965 287.601 509.121 287.711 505.388 286.942Z" fill="#E1E1FD"/>
<path d="M505.059 288.919C503.302 288.589 501.655 288.04 500.447 287.381C498.69 286.393 498.47 285.405 498.58 284.746C498.58 284.636 498.69 284.526 498.909 284.526C499.019 284.526 499.129 284.636 499.129 284.856C498.8 286.393 501.984 287.821 505.168 288.479C508.353 289.138 511.757 288.919 512.086 287.491C512.086 287.381 512.196 287.272 512.416 287.272C512.525 287.272 512.635 287.381 512.635 287.601C512.196 289.358 508.463 289.577 505.059 288.919Z" fill="#E1E1FD"/>
<path opacity="0.69" d="M565.485 488.427L654.813 489.651C658.246 489.711 660.963 492.248 660.784 495.264L659.291 521.955C659.142 524.791 656.455 527.03 653.201 527.03H565.396C562.022 527.03 559.305 524.642 559.305 521.686V493.801C559.305 490.785 562.082 488.367 565.485 488.427Z" fill="#055EA8" fill-opacity="0.2"/>
<path d="M651.391 447.157C659.137 445.308 663.918 437.529 662.069 429.782C660.219 422.035 652.44 417.255 644.694 419.104C636.947 420.953 632.166 428.732 634.016 436.479C635.865 444.225 643.644 449.006 651.391 447.157Z" fill="#055EA8" fill-opacity="0.2"/>
<path d="M625.539 438.575C628.543 431.199 624.997 422.785 617.621 419.782C610.245 416.778 601.831 420.323 598.827 427.7C595.824 435.076 599.369 443.49 606.745 446.494C614.122 449.497 622.536 445.952 625.539 438.575Z" fill="#055EA8" fill-opacity="0.2"/>
<path d="M586.525 443.817C592.156 438.185 592.156 429.055 586.525 423.424C580.894 417.792 571.763 417.792 566.132 423.424C560.501 429.055 560.5 438.185 566.132 443.817C571.763 449.448 580.894 449.448 586.525 443.817Z" fill="#055EA8" fill-opacity="0.2"/>
<path d="M639.467 430.089C639.019 431.164 638.78 432.358 638.78 433.612C638.78 438.718 642.93 442.868 648.036 442.868C653.141 442.868 657.291 438.718 657.291 433.612C657.291 428.507 653.141 424.357 648.036 424.357C647.886 424.357 647.737 424.357 647.558 424.357V421.999C647.707 421.999 647.857 421.999 648.036 421.999C654.455 421.999 659.649 427.193 659.649 433.612C659.649 440.031 654.455 445.226 648.036 445.226C641.617 445.226 636.422 440.031 636.422 433.612C636.422 432.03 636.75 430.537 637.318 429.164L639.467 430.089Z" fill="url(#paint18_linear_0_1)"/>
<path d="M607.402 441.434C608.835 442.33 610.537 442.868 612.328 442.868C617.434 442.868 621.584 438.718 621.584 433.612C621.584 428.507 617.434 424.357 612.328 424.357C612.179 424.357 612.03 424.357 611.851 424.357V421.999C612 421.999 612.149 421.999 612.328 421.999C618.747 421.999 623.942 427.193 623.942 433.612C623.942 440.031 618.747 445.226 612.328 445.226C610.089 445.226 607.999 444.599 606.238 443.494L607.402 441.434Z" fill="url(#paint19_linear_0_1)"/>
<path d="M568.59 438.807C570.262 441.255 573.069 442.868 576.263 442.868C581.368 442.868 585.518 438.718 585.518 433.612C585.518 428.507 581.368 424.357 576.263 424.357C576.114 424.357 575.964 424.357 575.785 424.357V421.999C575.935 421.999 576.084 421.999 576.263 421.999C582.682 421.999 587.877 427.193 587.877 433.612C587.877 440.031 582.682 445.226 576.263 445.226C572.292 445.226 568.799 443.226 566.709 440.21L568.59 438.807Z" fill="url(#paint20_linear_0_1)"/>
<g opacity="0.69">
<path d="M636.273 453.675H659.769C661.232 453.675 662.426 454.87 662.426 456.332C662.426 457.795 661.232 458.99 659.769 458.99H636.273C634.81 458.99 633.615 457.795 633.615 456.332C633.615 454.87 634.81 453.675 636.273 453.675Z" fill="#055EA8" fill-opacity="0.2"/>
<path d="M600.446 453.675H623.942C625.405 453.675 626.599 454.87 626.599 456.332C626.599 457.795 625.405 458.99 623.942 458.99H600.446C598.983 458.99 597.789 457.795 597.789 456.332C597.789 454.87 598.953 453.675 600.446 453.675Z" fill="#055EA8" fill-opacity="0.2"/>
<path d="M588.086 459.019H564.59C563.127 459.019 561.932 457.825 561.932 456.362C561.932 454.899 563.127 453.705 564.59 453.705H588.086C589.549 453.705 590.743 454.899 590.743 456.362C590.743 457.825 589.579 459.019 588.086 459.019Z" fill="#055EA8" fill-opacity="0.2"/>
<path d="M636.273 461.975H659.769C661.232 461.975 662.426 463.169 662.426 464.632V480.366C662.426 481.829 661.232 483.023 659.769 483.023H636.273C634.81 483.023 633.615 481.829 633.615 480.366V464.632C633.615 463.169 634.81 461.975 636.273 461.975Z" fill="#055EA8" fill-opacity="0.2"/>
<path d="M600.446 461.975H623.942C625.405 461.975 626.599 463.169 626.599 464.632V480.366C626.599 481.829 625.405 483.023 623.942 483.023H600.446C598.983 483.023 597.789 481.829 597.789 480.366V464.632C597.759 463.169 598.953 461.975 600.446 461.975Z" fill="#055EA8" fill-opacity="0.2"/>
<path d="M564.59 461.975H588.086C589.549 461.975 590.743 463.169 590.743 464.632V480.366C590.743 481.829 589.549 483.023 588.086 483.023H564.59C563.127 483.023 561.932 481.829 561.932 480.366V464.632C561.903 463.169 563.097 461.975 564.59 461.975Z" fill="#055EA8" fill-opacity="0.2"/>
</g>
<path d="M530.972 362.287L662.157 360.735C664.725 360.705 665.322 362.765 665.322 363.87L665.621 406.861C665.621 407.996 664.456 408.951 661.889 408.951C638.153 408.832 534.704 408.384 530.047 408.503C525.419 408.623 527.27 374.528 527.897 365.78C527.957 364.705 528.494 362.317 530.972 362.287Z" fill="#055EA8"/>
<path d="M662.008 407.548C643.139 407.488 548.169 407.16 530.763 407.22H530.674L530.644 407.13C528.972 403.607 528.882 389.127 530.435 370.318C530.465 370.079 530.823 369.99 531.122 369.99L662.307 368.497C662.516 368.497 662.665 368.527 662.754 368.557C662.963 368.646 663.023 368.766 662.993 368.855L662.725 407.22C662.665 407.429 662.336 407.548 662.008 407.548ZM535.152 406.921C560.32 406.921 644.363 407.19 661.978 407.249H662.008C662.187 407.249 662.336 407.19 662.366 407.16L662.635 368.825C662.635 368.825 662.605 368.796 662.575 368.796C662.516 368.766 662.426 368.736 662.247 368.736L531.062 370.229C530.823 370.229 530.704 370.288 530.674 370.318C529.151 388.918 529.211 403.249 530.823 406.861C531.987 406.921 533.42 406.921 535.152 406.921Z" fill="#91B3FA"/>
<path d="M595.43 379.962C594.893 379.395 594.147 379.096 593.4 379.096L541.243 379.186C540.466 379.186 539.75 379.484 539.212 380.052C538.675 380.589 538.406 381.335 538.406 382.112L538.914 400.204C538.944 401.727 540.198 402.951 541.75 402.951L592.713 403.1C594.236 403.1 595.49 401.906 595.55 400.383L596.207 382.052C596.236 381.246 595.968 380.499 595.43 379.962Z" fill="#91B3FA"/>
<path d="M603.641 372.558L538.018 373.185C537.272 373.185 536.764 373.961 536.764 374.856V374.886C536.764 375.812 537.272 376.558 538.018 376.558L603.67 376.767C604.835 376.767 605.73 375.842 605.73 374.677V374.648C605.73 373.483 604.775 372.558 603.641 372.558Z" fill="#BDD0FB"/>
<path d="M656.604 380.2C656.246 379.842 655.709 379.633 655.201 379.633L602.596 379.454C602.088 379.454 601.551 379.663 601.222 380.051C600.864 380.439 600.685 380.947 600.715 381.454L600.774 382.499C600.834 383.485 601.67 384.231 602.625 384.231L655.261 383.873C656.246 383.873 657.231 383.096 657.261 382.081L657.291 381.574C657.321 381.036 656.962 380.559 656.604 380.2Z" fill="#91B3FA"/>
<path d="M656.335 387.336C655.977 386.978 655.44 386.769 654.932 386.769L602.327 386.59C601.819 386.59 601.282 386.799 600.954 387.187C600.595 387.575 600.416 388.083 600.446 388.59L600.506 389.635C600.565 390.62 601.401 391.367 602.357 391.367L654.992 391.008C655.977 391.008 656.962 390.232 656.992 389.217L657.022 388.71C657.052 388.202 656.694 387.724 656.335 387.336Z" fill="#91B3FA"/>
<path d="M656.097 394.501C655.738 394.143 655.201 393.934 654.693 393.934L602.088 393.755C601.581 393.755 601.043 393.964 600.715 394.352C600.356 394.74 600.177 395.248 600.207 395.755L600.267 396.8C600.327 397.785 601.163 398.532 602.118 398.532L654.753 398.173C655.738 398.173 656.724 397.397 656.753 396.382L656.783 395.875C656.783 395.367 656.425 394.86 656.097 394.501Z" fill="#91B3FA"/>
<path d="M645.11 364.586C645.11 365.959 643.886 367.064 642.512 367.064H640.631C639.258 367.064 638.004 365.93 638.004 364.556V364.497C638.004 363.123 639.228 362.019 640.602 362.019H642.482C643.856 362.019 645.11 363.153 645.11 364.526V364.586Z" fill="#BDD0FB"/>
<path d="M652.992 364.616C652.992 365.989 651.827 367.094 650.454 367.094H648.752C647.379 367.094 646.304 365.959 646.304 364.586V364.526C646.304 363.153 647.379 362.019 648.782 362.048H650.514C651.887 362.048 653.021 363.183 652.992 364.556V364.616Z" fill="#BDD0FB"/>
<path d="M660.844 364.675C660.844 366.049 659.769 367.183 658.395 367.153H656.664C655.29 367.153 654.156 366.019 654.186 364.646V364.586C654.186 363.213 655.35 362.108 656.724 362.108H658.425C659.799 362.108 660.873 363.242 660.873 364.616L660.844 364.675Z" fill="#BDD0FB"/>
<path d="M662.426 353.48H530.286C528.494 353.48 527.001 352.017 527.001 350.196V342.284C527.001 340.493 528.464 339 530.286 339H662.426C664.217 339 665.71 340.463 665.71 342.284V350.196C665.71 352.017 664.217 353.48 662.426 353.48Z" fill="#055EA8"/>
<path d="M641.199 345.986C641.169 347.748 639.646 349.151 637.915 349.151H635.526C633.765 349.151 632.182 347.718 632.212 345.956V345.867C632.242 344.105 633.765 342.702 635.496 342.702H637.885C639.646 342.702 641.229 344.135 641.199 345.897V345.986Z" fill="#BDD0FB"/>
<path d="M651.17 346.046C651.141 347.807 649.708 349.211 647.946 349.211H645.767C644.005 349.211 642.632 347.777 642.662 346.016V345.926C642.691 344.165 644.035 342.762 645.796 342.762H648.006C649.767 342.762 651.17 344.195 651.17 345.956V346.046Z" fill="#BDD0FB"/>
<path d="M661.172 346.076C661.142 347.837 659.799 349.24 658.037 349.24H655.828C654.066 349.24 652.663 347.807 652.663 346.046V345.956C652.693 344.195 654.126 342.792 655.888 342.792H658.067C659.829 342.792 661.202 344.225 661.172 345.986V346.076Z" fill="#BDD0FB"/>
<path d="M627.226 348.345H587.757C586.623 348.345 585.667 347.419 585.667 346.255V345.807C585.667 344.673 586.593 343.717 587.757 343.717H627.226C628.361 343.717 629.316 344.643 629.316 345.807V346.255C629.316 347.39 628.391 348.345 627.226 348.345Z" fill="#BDD0FB"/>
<defs>
<linearGradient id="paint0_linear_0_1" x1="340.81" y1="744.136" x2="387.175" y2="315.261" gradientUnits="userSpaceOnUse">
<stop stop-color="#09005D"/>
<stop offset="1" stop-color="#1A0F91"/>
</linearGradient>
<linearGradient id="paint1_linear_0_1" x1="559.924" y1="434.742" x2="163.247" y2="689.749" gradientUnits="userSpaceOnUse">
<stop offset="0.0885417" stop-color="#F68A26"/>
<stop offset="1" stop-color="#F39947"/>
</linearGradient>
<linearGradient id="paint2_linear_0_1" x1="182.224" y1="542.219" x2="515.725" y2="542.219" gradientUnits="userSpaceOnUse">
<stop stop-color="#E15B3D"/>
<stop offset="0.109375" stop-color="#F4735C"/>
<stop offset="1" stop-color="#EAB059"/>
</linearGradient>
<linearGradient id="paint3_linear_0_1" x1="478.377" y1="438.715" x2="268.886" y2="880.704" gradientUnits="userSpaceOnUse">
<stop stop-color="#09005D"/>
<stop offset="1" stop-color="#1A0F91"/>
</linearGradient>
<linearGradient id="paint4_linear_0_1" x1="353.004" y1="634.907" x2="413.238" y2="543.441" gradientUnits="userSpaceOnUse">
<stop stop-color="#FF928E"/>
<stop offset="1" stop-color="#FEB3B1"/>
</linearGradient>
<linearGradient id="paint5_linear_0_1" x1="346.838" y1="630.846" x2="407.071" y2="539.38" gradientUnits="userSpaceOnUse">
<stop stop-color="#FF928E"/>
<stop offset="1" stop-color="#FEB3B1"/>
</linearGradient>
<linearGradient id="paint6_linear_0_1" x1="263.84" y1="535.854" x2="238.56" y2="645.103" gradientUnits="userSpaceOnUse">
<stop stop-color="#FF928E"/>
<stop offset="1" stop-color="#FEB3B1"/>
</linearGradient>
<linearGradient id="paint7_linear_0_1" x1="240.303" y1="485.378" x2="265.958" y2="557.324" gradientUnits="userSpaceOnUse">
<stop stop-color="#FF928E"/>
<stop offset="1" stop-color="#FEB3B1"/>
</linearGradient>
<linearGradient id="paint8_linear_0_1" x1="247.055" y1="512.61" x2="293.025" y2="571.798" gradientUnits="userSpaceOnUse">
<stop stop-color="#09005D"/>
<stop offset="1" stop-color="#1A0F91"/>
</linearGradient>
<linearGradient id="paint9_linear_0_1" x1="224.397" y1="491.049" x2="250.053" y2="562.995" gradientUnits="userSpaceOnUse">
<stop stop-color="#FF928E"/>
<stop offset="1" stop-color="#FEB3B1"/>
</linearGradient>
<linearGradient id="paint10_linear_0_1" x1="491.993" y1="889.987" x2="547.297" y2="889.987" gradientUnits="userSpaceOnUse">
<stop stop-color="#FF928E"/>
<stop offset="1" stop-color="#FEB3B1"/>
</linearGradient>
<linearGradient id="paint11_linear_0_1" x1="428.208" y1="893.402" x2="543.76" y2="893.402" gradientUnits="userSpaceOnUse">
<stop stop-color="#FF928E"/>
<stop offset="1" stop-color="#FEB3B1"/>
</linearGradient>
<linearGradient id="paint12_linear_0_1" x1="550.58" y1="689.19" x2="567.769" y2="769.591" gradientUnits="userSpaceOnUse">
<stop stop-color="#FF928E"/>
<stop offset="1" stop-color="#FEB3B1"/>
</linearGradient>
<linearGradient id="paint13_linear_0_1" x1="531.646" y1="672.455" x2="577.668" y2="670.791" gradientUnits="userSpaceOnUse">
<stop stop-color="#FF928E"/>
<stop offset="1" stop-color="#FEB3B1"/>
</linearGradient>
<linearGradient id="paint14_linear_0_1" x1="537.931" y1="860.017" x2="573.418" y2="809.559" gradientUnits="userSpaceOnUse">
<stop stop-color="#FF928E"/>
<stop offset="1" stop-color="#FEB3B1"/>
</linearGradient>
<linearGradient id="paint15_linear_0_1" x1="282.146" y1="647.868" x2="488.581" y2="776.403" gradientUnits="userSpaceOnUse">
<stop stop-color="#09005D"/>
<stop offset="1" stop-color="#1A0F91"/>
</linearGradient>
<linearGradient id="paint16_linear_0_1" x1="394.599" y1="720.92" x2="594.429" y2="859.494" gradientUnits="userSpaceOnUse">
<stop stop-color="#09005D"/>
<stop offset="1" stop-color="#1A0F91"/>
</linearGradient>
<linearGradient id="paint17_linear_0_1" x1="531.875" y1="678.8" x2="577.897" y2="677.136" gradientUnits="userSpaceOnUse">
<stop stop-color="#FF928E"/>
<stop offset="1" stop-color="#FEB3B1"/>
</linearGradient>
<linearGradient id="paint18_linear_0_1" x1="717.309" y1="399.431" x2="453.966" y2="531.555" gradientUnits="userSpaceOnUse">
<stop stop-color="#4042E2"/>
<stop offset="1" stop-color="#4F52FF"/>
</linearGradient>
<linearGradient id="paint19_linear_0_1" x1="710.132" y1="385.124" x2="446.788" y2="517.249" gradientUnits="userSpaceOnUse">
<stop stop-color="#4042E2"/>
<stop offset="1" stop-color="#4F52FF"/>
</linearGradient>
<linearGradient id="paint20_linear_0_1" x1="702.877" y1="370.665" x2="439.532" y2="502.79" gradientUnits="userSpaceOnUse">
<stop stop-color="#4042E2"/>
<stop offset="1" stop-color="#4F52FF"/>
</linearGradient>
<clipPath id="clip0_0_1">
<rect width="949.072" height="632.192" fill="white" transform="matrix(-1 0 0 1 940.072 333)"/>
</clipPath>
<clipPath id="clip1_0_1">
<rect width="497.295" height="293" fill="white" transform="translate(118 417)"/>
</clipPath>
<clipPath id="clip2_0_1">
<rect width="363.216" height="279" fill="white" transform="translate(182 403)"/>
</clipPath>
<clipPath id="clip3_0_1">
<rect width="92" height="74.2029" fill="white" transform="translate(299 468)"/>
</clipPath>
</defs>
</svg>
