<svg width="1440" height="428" viewBox="0 0 1440 428" fill="none" xmlns="http://www.w3.org/2000/svg">
<mask id="mask0_164_96" style="mask-type:luminance" maskUnits="userSpaceOnUse" x="-6" y="54" width="1453" height="375">
<path d="M1447 54.6674H-6.00012V428.001H1447V54.6674Z" fill="white"/>
</mask>
<g mask="url(#mask0_164_96)">
<path d="M1442.96 58.0786C1321.08 68.1307 1186.56 80.8234 1108.85 112.417C1061.93 131.485 1047.99 154.594 1034.8 177.323C1021.13 201.073 1003.82 224.615 979.725 247.652C934.195 291.099 865.186 333.198 760.35 366.98C667.173 396.995 543.603 420.99 404.755 426.62C271.43 432.027 131.683 420.11 32.5089 392.985C20.0548 389.573 8.32397 385.959 -2.68359 382.136C-5.71777 381.094 -0.566772 379.568 2.48499 380.615C91.9745 411.573 228.758 427.756 365.911 425.568C506.805 423.329 635.227 401.375 732.989 372.292C842.236 339.844 915.267 298.412 963.672 255.323C988.845 232.563 1008.41 209.391 1022.36 185.803C1036.23 163.042 1045.33 139.282 1085.58 118.943C1151.35 85.7661 1277.42 70.3182 1396.78 59.7609C1411.47 58.464 1426.24 57.1932 1441.02 56.0057C1441.95 55.9536 1442.82 56.0005 1443.61 56.1515C1444.42 56.2974 1444.95 56.5109 1445.2 56.7765C1445.47 57.0474 1445.38 57.3078 1444.94 57.5578C1444.51 57.8078 1443.84 57.9797 1442.96 58.0786Z" fill="#055EA8" fill-opacity="0.1"/>
</g>
<mask id="mask1_164_96" style="mask-type:luminance" maskUnits="userSpaceOnUse" x="-6" y="48" width="1453" height="353">
<path d="M1447 48.0004H-6.00012V400H1447V48.0004Z" fill="white"/>
</mask>
<g mask="url(#mask1_164_96)">
<path d="M1442.93 51.0263C1323.52 60.2815 1190.19 71.693 1110.33 101.5C1062.39 119.412 1047.87 141.646 1034.46 163.552C1020.51 186.297 1002.57 208.808 977.909 230.755C931.039 272.287 859.736 312.026 754.353 343.271C659.236 371.505 536.053 392.891 400.523 397.792C270.372 402.469 133.024 391.709 33.3389 366.198C20.6378 362.943 8.64233 359.474 -2.64746 355.787C-5.69922 354.802 -0.707031 353.323 2.32715 354.318C92.875 383.771 228.265 398.323 361.732 396.646C499.75 394.933 628.189 375.261 728.016 347.886C837.068 317.943 912.234 279.073 961.962 237.995C987.911 216.209 1008.04 193.964 1022.36 171.261C1036.49 149.474 1045.97 126.719 1087.07 107.584C1154.81 76.0576 1281.25 62.1669 1397.45 52.5003C1411.95 51.3024 1426.43 50.1565 1440.93 49.0263C1441.87 48.943 1442.77 48.9742 1443.61 49.1096C1444.48 49.2503 1445.04 49.4534 1445.33 49.7294C1445.59 50.0055 1445.5 50.2711 1445.03 50.5263C1444.57 50.7763 1443.86 50.9482 1442.93 51.0263Z" fill="#055EA8" fill-opacity="0.1"/>
</g>
<mask id="mask2_164_96" style="mask-type:luminance" maskUnits="userSpaceOnUse" x="-6" y="41" width="1453" height="330">
<path d="M1447 41.3334H-6.00012V370.667H1447V41.3334Z" fill="white"/>
</mask>
<g mask="url(#mask2_164_96)">
<path d="M1442.89 43.9792C1380.87 48.4844 1318.7 53.3906 1259.84 60.7865C1204.27 67.7917 1150.82 77.2396 1111.27 90.9167C1089.34 98.5729 1072.74 107.125 1061.47 116.578C1048.43 127.333 1041.38 138.609 1034.06 149.786C1019.87 171.417 1001.62 192.781 976.32 213.526C928.145 253.047 854.849 290.271 749.713 318.99C652.214 345.625 528.397 364.927 394.983 368.99C267.443 372.865 132.671 363.12 32.6854 339.005C20.3196 336.042 8.57104 332.88 -2.55994 329.516C-5.61169 328.594 -0.795898 327.172 2.23816 328.099C93.7739 355.979 227.594 369.005 357.568 367.792C492.781 366.516 620.973 349.089 722.758 323.427C832.022 295.901 909.728 259.318 960.956 219.995C987.028 199.635 1007.33 178.781 1021.81 157.438C1036.32 136.495 1046.05 114.589 1088.05 96.5365C1157.57 66.6927 1283.23 54.2344 1396.27 45.401C1411.21 44.2448 1426.13 43.1406 1441.07 42.0885C1445.32 41.7812 1447.12 43.7135 1442.89 44.0208V43.9792Z" fill="#055EA8" fill-opacity="0.1"/>
</g>
<mask id="mask3_164_96" style="mask-type:luminance" maskUnits="userSpaceOnUse" x="-6" y="34" width="1453" height="308">
<path d="M1447 34.6674H-6.00012V341.334H1447V34.6674Z" fill="white"/>
</mask>
<g mask="url(#mask3_164_96)">
<path d="M1442.87 36.9538C1381.76 41.0632 1320.91 45.5111 1262.59 52.2767C1207.87 58.6309 1154.1 67.1882 1113.4 79.9851C1090.98 87.0476 1073.85 95.0892 1062.02 104.115C1048.68 114.183 1041.46 124.829 1034.07 135.376C1019.59 155.964 1000.94 176.266 975.102 195.891C925.162 233.751 848.956 268.704 743.043 295.037C643.481 319.792 520.016 336.824 389.442 340.162C264.266 343.35 131.029 334.49 30.5848 311.579C19.0481 308.943 8.00513 306.131 -2.50842 303.147C-5.5603 302.287 -0.920776 300.912 2.13098 301.777C94.6722 328.063 226.922 339.657 353.562 338.808C485.9 337.954 613.457 322.6 717.218 298.74C826.235 273.673 906.481 239.62 959.437 202.183C986.586 182.714 1007.63 162.683 1022.54 142.089C1037.3 122.245 1047.78 101.647 1090.5 85.0059C1124.62 71.7142 1172.48 62.2194 1223.16 55.183C1278.64 47.4851 1337.98 42.4382 1397.36 38.1257C1411.91 37.0684 1426.5 36.0476 1441.12 35.0736C1445.22 34.7924 1446.93 36.6569 1442.87 36.9278V36.9538Z" fill="#055EA8" fill-opacity="0.1"/>
</g>
<mask id="mask4_164_96" style="mask-type:luminance" maskUnits="userSpaceOnUse" x="-6" y="28" width="1453" height="285">
<path d="M1447 28.0004H-6.00012V312H1447V28.0004Z" fill="white"/>
</mask>
<g mask="url(#mask4_164_96)">
<path d="M1442.82 29.8806C1382.61 33.6618 1322.32 37.7608 1264.33 43.9274C1209.98 49.7087 1155.99 57.4847 1114.28 69.5212C1092.36 75.8181 1075.25 83.1045 1062.95 91.3702C1048.68 101.011 1041.27 111.37 1033.53 121.594C1019.26 141.084 999.145 160.032 973.214 178.448C921.598 214.375 842.781 246.636 737.574 270.5C635.948 293.589 512.254 308.61 383.727 311.282C262.008 313.844 131.576 305.995 31.3079 284.761C19.6123 282.282 8.37537 279.625 -2.38525 276.797C-5.2959 275.995 -0.938721 274.683 2.07776 275.48C94.8837 299.99 224.47 310.256 347.035 309.844C477.009 309.433 603.808 296.157 709.738 274.214C818.544 251.683 901.612 220.318 956.861 184.787C985.051 166.438 1006.89 147.448 1022.36 127.828C1037.5 109.011 1048.45 89.7087 1091 74.2972C1125.96 61.6462 1174.7 52.9118 1224.99 46.5368C1280.33 39.5212 1338.76 34.8754 1397.36 30.9691C1411.95 29.9639 1426.55 29.0056 1441.16 28.0941C1445.09 27.8441 1446.79 29.6306 1442.82 29.8806Z" fill="#055EA8" fill-opacity="0.1"/>
</g>
<mask id="mask5_164_96" style="mask-type:luminance" maskUnits="userSpaceOnUse" x="-6" y="20" width="1453" height="265">
<path d="M1447 20.0004H-6.00012V284H1447V20.0004Z" fill="white"/>
</mask>
<g mask="url(#mask5_164_96)">
<path d="M1442.64 22.8339C1382.81 26.2975 1322.94 30.037 1264.97 35.7089C1211.57 40.9433 1157.72 47.9068 1115.12 59.0943C1093.74 64.6673 1076.71 71.2246 1064.05 78.7714C1048.86 87.9329 1041.15 97.9381 1033.04 107.797C1018.31 126.271 997.49 144.136 970.606 161.381C916.803 195.256 835.27 224.745 730.733 246.068C627.061 267.214 503.825 280.287 377.679 282.381C258.413 284.36 130.785 277.36 30.1642 257.62C18.8921 255.407 8.02551 253.027 -2.41748 250.485C-5.31055 249.756 -1.11218 248.506 1.86914 249.225C95.7157 272.021 223.132 281.021 342.716 280.876C470.026 280.756 595.731 269.303 703.143 249.287C811.226 229.141 897.152 200.527 954.748 166.891C983.625 149.813 1006.03 132.027 1021.94 113.527C1030.2 104.162 1036.42 94.6152 1047.85 85.511C1057.84 77.1881 1072.78 69.7298 1092.66 63.1308C1128.49 51.5006 1176.68 43.7975 1225.6 38.0527C1280.97 31.5423 1339.17 27.3495 1397.36 23.7298C1411.95 22.8548 1426.56 21.9798 1441.2 21.1152C1444.99 20.8912 1446.61 22.61 1442.79 22.8235L1442.64 22.8339Z" fill="#055EA8" fill-opacity="0.1"/>
</g>
<mask id="mask6_164_96" style="mask-type:luminance" maskUnits="userSpaceOnUse" x="-6" y="13" width="1453" height="242">
<path d="M1447 13.3334H-6.00012V254.667H1447V13.3334Z" fill="white"/>
</mask>
<g mask="url(#mask6_164_96)">
<path d="M1442.64 15.7812C1383.2 18.9322 1323.8 22.3281 1265.83 27.4843C1213.67 32.1458 1160.72 38.2447 1117.6 48.3489C1095.62 53.3958 1077.88 59.5208 1064.4 66.7187C1049.16 75.0468 1041.2 84.2604 1033.07 93.3541C1017.86 110.792 996.431 127.531 968.753 143.578C954.782 151.526 939.064 159.161 921.6 166.484C904.136 173.802 885.085 180.745 864.446 187.307C843.807 193.87 821.756 199.995 798.33 205.677C774.886 211.365 750.26 216.557 724.434 221.26C698.203 226.047 671.037 230.328 642.971 234.104C614.905 237.885 586.152 241.125 556.692 243.839C527.233 246.547 497.333 248.698 466.956 250.297C436.579 251.891 405.991 252.922 375.191 253.385C257.918 255.036 132.495 248.943 30.9747 230.792C19.7378 228.776 8.88904 226.604 -1.60706 224.271C-4.5 223.615 -1.60706 222.135 1.28601 222.792C95.6266 243.776 219.691 251.672 335.941 251.927C367.253 251.958 398.458 251.396 429.523 250.24C460.605 249.083 491.299 247.344 521.606 245.021C551.929 242.698 581.6 239.807 610.654 236.354C639.708 232.901 667.897 228.911 695.204 224.385C721.894 219.995 747.455 215.094 771.869 209.672C796.301 204.255 819.357 198.37 841.055 192.021C862.752 185.667 882.88 178.911 901.438 171.75C919.995 164.589 936.824 157.083 951.907 149.24C982.054 133.286 1005.43 116.51 1022.04 98.9166C1030.51 90.1041 1037.04 81.0885 1048.84 72.5781C1059.25 64.9062 1074.31 58.1406 1094.02 52.276C1130.57 41.5416 1178.53 34.6822 1226.5 29.5364C1282.2 23.552 1340.38 19.7708 1398.49 16.4687C1412.73 15.6614 1426.96 14.8854 1441.21 14.1406C1444.87 13.9427 1446.44 15.5677 1442.64 15.7812Z" fill="#055EA8" fill-opacity="0.1"/>
</g>
<mask id="mask7_164_96" style="mask-type:luminance" maskUnits="userSpaceOnUse" x="-6" y="6" width="1453" height="220">
<path d="M1447 6.66736H-6.00012V225.334H1447V6.66736Z" fill="white"/>
</mask>
<g mask="url(#mask7_164_96)">
<path d="M1442.64 8.72474C1383.92 11.5477 1325.11 14.5841 1267.63 19.2039C1215.98 23.3445 1163.61 28.7091 1119.49 37.8706C1097.84 42.2247 1079.96 47.6622 1065.84 54.1779C1049.53 61.9695 1041.18 70.8133 1032.54 79.532C1016.77 95.8237 994.613 111.318 966.053 126.016C906.976 155.959 819.568 179.907 716.795 196.443C690.035 200.725 662.534 204.537 634.292 207.881C606.049 211.22 577.243 214.068 547.871 216.428C518.518 218.782 488.776 220.636 458.699 221.975C428.605 223.318 398.352 224.141 367.94 224.454C253.877 225.605 132.529 220.287 31.4679 203.923C20.1074 202.084 9.06458 200.089 -1.64307 197.933C-4.53613 197.345 -1.81946 195.923 1.26758 196.522C96.1903 215.667 217.397 222.511 330.63 222.928C361.554 223.042 392.389 222.621 423.137 221.657C453.884 220.699 484.349 219.204 514.496 217.183C544.661 215.162 574.297 212.626 603.439 209.574C632.58 206.516 661.017 202.97 688.73 198.928C794.237 183.459 885.825 160.568 949.207 131.105C980.219 116.522 1004.37 101.006 1021.67 84.5633C1030.37 76.4539 1036.97 68.1362 1048.72 60.3445C1059.74 52.9799 1075.46 46.631 1095.9 41.3029C1133.58 31.5008 1181.27 25.4852 1228.51 20.9435C1283.58 15.6362 1340.58 12.2612 1397.57 9.31849C1412.05 8.56328 1426.55 7.85495 1441.21 7.15182C1444.72 7.0164 1446.22 8.56328 1442.64 8.72474Z" fill="#055EA8" fill-opacity="0.1"/>
</g>
<mask id="mask8_164_96" style="mask-type:luminance" maskUnits="userSpaceOnUse" x="-6" y="0" width="1453" height="197">
<path d="M1447 0.000366211H-6.00012V196H1447V0.000366211Z" fill="white"/>
</mask>
<g mask="url(#mask8_164_96)">
<path d="M1442.64 1.68768C1384.68 4.19289 1326.69 6.88039 1269.61 10.9585C1218.74 14.5939 1167 19.2137 1122.15 27.3648C1101.46 31.1304 1082.29 35.7554 1067.96 41.5991C1050.57 48.7346 1041.5 57.12 1032.35 65.4012C1015.84 80.6252 992.763 94.9273 963.127 108.307C900.839 136.057 810.785 157.068 709.512 171.297C655.056 178.88 598.536 184.709 539.917 188.781C481.316 192.854 421.903 195.084 361.715 195.469C249.822 196.255 131.279 191.62 30.129 176.797C19.2979 175.203 8.66077 173.474 -1.74707 171.604C-4.65771 171.078 -1.97632 169.729 0.916626 170.261C46.5875 178.531 97.7269 183.948 149.695 187.615C207.309 191.61 265.698 193.714 324.864 193.938C385.952 194.292 446.476 192.745 506.454 189.292C566.413 185.844 624.485 180.568 680.652 173.469C784.695 160.141 879.335 140.167 946.086 112.849C978.245 99.5991 1003.44 85.2762 1021.64 69.8804C1030.6 62.3648 1037.46 54.5887 1049.72 47.4533C1061.47 40.7085 1077.54 35.0314 1097.93 30.4221C1136.28 21.6356 1183.38 16.4273 1229.58 12.4794C1284.99 7.71373 1342.04 4.6981 1399.02 2.06268C1413.1 1.41164 1427.19 0.781435 1441.27 0.172059C1444.6 0.0366426 1446.07 1.54185 1442.64 1.68768Z" fill="#055EA8" fill-opacity="0.1"/>
</g>
</svg>
