<svg width="1440" height="428" viewBox="0 0 1440 428" fill="none" xmlns="http://www.w3.org/2000/svg">
<mask id="mask0_115_6531" style="mask-type:luminance" maskUnits="userSpaceOnUse" x="0" y="54" width="1441" height="375">
<path d="M0 54.667H1441V428H0V54.667Z" fill="white"/>
</mask>
<g mask="url(#mask0_115_6531)">
<path d="M4.00639 58.0782C124.877 68.1303 258.291 80.823 335.355 112.417C381.891 131.484 395.712 154.594 408.798 177.323C422.356 201.073 439.518 224.615 463.416 247.651C508.57 291.099 577.009 333.198 680.98 366.979C773.386 396.995 895.937 420.99 1033.64 426.62C1165.86 432.026 1304.45 420.109 1402.81 392.984C1415.16 389.573 1426.79 385.958 1437.71 382.136C1440.72 381.094 1435.61 379.568 1432.59 380.615C1343.83 411.573 1208.18 427.755 1072.16 425.568C932.43 423.328 805.069 401.375 708.114 372.292C599.769 339.844 527.342 298.412 479.336 255.323C454.371 232.563 434.97 209.391 421.132 185.802C407.381 163.042 398.353 139.281 358.431 118.943C293.211 85.7657 168.176 70.3178 49.8074 59.7605C35.2344 58.4637 20.5913 57.1928 5.93081 56.0053C5.00359 55.9532 4.14635 56.0001 3.35909 56.1512C2.55434 56.297 2.0295 56.5105 1.78458 56.7762C1.52215 57.047 1.60963 57.3074 2.04699 57.5574C2.46686 57.8074 3.13166 57.9793 4.00639 58.0782Z" fill="#055EA8" fill-opacity="0.1"/>
</g>
<mask id="mask1_115_6531" style="mask-type:luminance" maskUnits="userSpaceOnUse" x="0" y="48" width="1441" height="352">
<path d="M0 48H1441V400H0V48Z" fill="white"/>
</mask>
<g mask="url(#mask1_115_6531)">
<path d="M4.04047 51.0259C122.462 60.2812 254.686 71.6926 333.885 101.5C381.435 119.411 395.833 141.646 409.129 163.552C422.967 186.297 440.76 208.807 465.217 230.755C511.7 272.286 582.414 312.026 686.927 343.271C781.258 371.505 903.423 392.891 1037.83 397.792C1166.91 402.469 1303.12 391.708 1401.99 366.198C1414.58 362.943 1426.48 359.474 1437.68 355.786C1440.7 354.802 1435.75 353.323 1432.74 354.318C1342.94 383.771 1208.67 398.323 1076.31 396.646C939.427 394.932 812.049 375.26 713.046 347.885C604.894 317.943 530.35 279.073 481.032 237.995C455.298 216.208 435.336 193.963 421.131 171.26C407.117 149.474 397.723 126.719 356.96 107.583C289.781 76.0572 164.379 62.1666 49.1417 52.4999C34.7611 51.302 20.398 50.1562 6.01737 49.0259C5.09015 48.9426 4.19792 48.9739 3.35818 49.1093C2.50094 49.2499 1.94111 49.453 1.6612 49.7291C1.39878 50.0051 1.48625 50.2707 1.95861 50.5259C2.41346 50.7759 3.11325 50.9478 4.04047 51.0259Z" fill="#055EA8" fill-opacity="0.1"/>
</g>
<mask id="mask2_115_6531" style="mask-type:luminance" maskUnits="userSpaceOnUse" x="0" y="41" width="1441" height="330">
<path d="M0 41.333H1441V370.666H0V41.333Z" fill="white"/>
</mask>
<g mask="url(#mask2_115_6531)">
<path d="M4.07651 43.9788C65.5877 48.484 127.239 53.3903 185.619 60.7861C240.727 67.7913 293.736 77.2392 332.959 90.9163C354.704 98.5725 371.167 107.125 382.346 116.578C395.275 127.333 402.272 138.609 409.533 149.786C423.598 171.416 441.705 192.781 466.793 213.526C514.571 253.047 587.261 290.27 691.529 318.989C788.222 345.625 911.017 364.927 1043.33 368.989C1169.82 372.864 1303.47 363.119 1402.63 339.005C1414.9 336.041 1426.55 332.88 1437.59 329.515C1440.62 328.593 1435.84 327.172 1432.83 328.099C1342.05 355.979 1209.34 369.005 1080.44 367.791C946.339 366.515 819.205 349.088 718.261 323.427C609.899 295.901 532.835 259.317 482.031 219.994C456.173 199.635 436.037 178.781 421.674 157.437C407.293 136.494 397.636 114.588 355.982 96.5361C287.035 66.6923 162.421 54.234 50.3149 45.4007C35.4969 44.2444 20.6964 43.1403 5.87846 42.0882C1.66225 41.7809 -0.122209 43.7132 4.07651 44.0205V43.9788Z" fill="#055EA8" fill-opacity="0.1"/>
</g>
<mask id="mask3_115_6531" style="mask-type:luminance" maskUnits="userSpaceOnUse" x="0" y="34" width="1441" height="308">
<path d="M0 34.667H1441V341.334H0V34.667Z" fill="white"/>
</mask>
<g mask="url(#mask3_115_6531)">
<path d="M4.09519 36.9534C64.6967 41.0628 125.053 45.5107 182.891 52.2764C237.159 58.6305 290.483 67.1878 330.843 79.9847C353.079 87.0472 370.066 95.0889 381.805 104.115C395.031 114.183 402.186 124.828 409.516 135.375C423.88 155.964 442.371 176.266 468.001 195.891C517.528 233.75 593.105 268.703 698.143 295.037C796.883 319.792 919.328 336.823 1048.82 340.162C1172.97 343.349 1305.1 334.49 1404.72 311.578C1416.16 308.943 1427.11 306.131 1437.54 303.146C1440.56 302.287 1435.96 300.912 1432.94 301.776C1341.16 328.063 1210 339.657 1084.41 338.808C953.163 337.953 826.659 322.599 723.756 298.74C615.639 273.672 536.055 239.62 483.536 202.183C456.612 182.714 435.741 162.683 420.958 142.089C406.315 122.245 395.923 101.646 353.551 85.0055C319.716 71.7139 272.253 62.2191 221.991 55.1826C166.97 47.4847 108.118 42.4378 49.2314 38.1253C34.7983 37.068 20.3302 36.0472 5.82716 35.0732C1.7684 34.792 0.0714158 36.6566 4.09519 36.9274V36.9534Z" fill="#055EA8" fill-opacity="0.1"/>
</g>
<mask id="mask4_115_6531" style="mask-type:luminance" maskUnits="userSpaceOnUse" x="0" y="28" width="1441" height="284">
<path d="M0 28H1441V312H0V28Z" fill="white"/>
</mask>
<g mask="url(#mask4_115_6531)">
<path d="M4.14781 29.8802C63.8571 33.6615 123.654 37.7604 181.159 43.9271C235.06 49.7083 288.611 57.4844 329.968 69.5208C351.714 75.8177 368.684 83.1042 380.878 91.3698C395.031 101.01 402.379 111.37 410.059 121.594C424.212 141.083 444.156 160.031 469.873 178.448C521.062 214.375 599.229 246.635 703.567 270.5C804.353 293.589 927.026 308.609 1054.49 311.281C1175.21 313.844 1304.56 305.995 1404 284.76C1415.6 282.281 1426.74 279.625 1437.42 276.797C1440.3 275.995 1435.98 274.682 1432.99 275.479C1340.95 299.99 1212.43 310.255 1090.88 309.844C961.98 309.432 836.229 296.156 731.173 274.214C623.266 251.682 540.884 220.318 486.091 184.786C458.134 166.438 436.476 147.448 421.133 127.828C406.123 109.01 395.258 89.7083 353.061 74.2969C318.387 61.6458 270.049 52.9115 220.172 46.5365C165.291 39.5208 107.349 34.875 49.2316 30.9687C34.7635 29.9635 20.2779 29.0052 5.79231 28.0937C1.891 27.8437 0.211515 29.6302 4.14781 29.8802Z" fill="#055EA8" fill-opacity="0.1"/>
</g>
<mask id="mask5_115_6531" style="mask-type:luminance" maskUnits="userSpaceOnUse" x="0" y="20" width="1441" height="264">
<path d="M0 20H1441V284H0V20Z" fill="white"/>
</mask>
<g mask="url(#mask5_115_6531)">
<path d="M4.31977 22.8336C63.6616 26.2971 123.039 30.0367 180.526 35.7086C233.482 40.9429 286.893 47.9065 329.143 59.094C350.347 64.6669 367.229 71.2242 379.79 78.7711C394.853 87.9325 402.498 97.9377 410.546 107.797C425.154 126.271 445.797 144.136 472.459 161.38C525.818 195.255 606.678 224.745 710.352 246.068C813.168 267.214 935.385 280.287 1060.49 282.38C1178.77 284.36 1305.34 277.36 1405.13 257.62C1416.31 255.407 1427.09 253.026 1437.45 250.485C1440.32 249.755 1436.15 248.505 1433.2 249.224C1340.12 272.021 1213.76 281.021 1095.16 280.875C968.905 280.755 844.238 269.302 737.713 249.287C630.524 229.141 545.307 200.526 488.187 166.891C459.548 149.813 437.33 132.026 421.55 113.526C413.362 104.162 407.187 94.6148 395.85 85.5107C385.948 77.1877 371.13 69.7294 351.414 63.1304C315.882 51.5002 268.087 43.7971 219.574 38.0523C164.658 31.5419 106.943 27.3492 49.2286 23.7294C34.7605 22.8544 20.2749 21.9794 5.75433 21.1148C1.99298 20.8908 0.38347 22.6096 4.17981 22.8231L4.31977 22.8336Z" fill="#055EA8" fill-opacity="0.1"/>
</g>
<mask id="mask6_115_6531" style="mask-type:luminance" maskUnits="userSpaceOnUse" x="0" y="13" width="1441" height="242">
<path d="M0 13.333H1441V254.666H0V13.333Z" fill="white"/>
</mask>
<g mask="url(#mask6_115_6531)">
<path d="M4.32105 15.7808C63.278 18.9319 122.183 22.3277 179.67 27.484C231.402 32.1454 283.921 38.2444 326.678 48.3485C348.476 53.3954 366.076 59.5204 379.442 66.7183C394.557 75.0465 402.447 84.26 410.512 93.3538C425.592 110.791 446.848 127.531 474.298 143.578C488.153 151.526 503.741 159.161 521.061 166.484C538.38 173.802 557.275 180.744 577.743 187.307C598.212 193.869 620.081 199.994 643.313 205.677C666.564 211.364 690.986 216.557 716.599 221.26C742.613 226.046 769.555 230.328 797.389 234.104C825.223 237.885 853.739 241.125 882.955 243.838C912.171 246.546 941.825 248.698 971.951 250.296C1002.08 251.89 1032.41 252.921 1062.96 253.385C1179.26 255.036 1303.65 248.942 1404.33 230.791C1415.48 228.776 1426.23 226.604 1436.64 224.27C1439.51 223.614 1436.64 222.135 1433.77 222.791C1340.21 243.776 1217.17 251.671 1101.88 251.927C1070.83 251.958 1039.88 251.395 1009.07 250.239C978.249 249.083 947.808 247.343 917.752 245.02C887.679 242.698 858.253 239.807 829.439 236.354C800.625 232.901 772.669 228.911 745.587 224.385C719.118 219.994 693.768 215.093 669.555 209.671C645.325 204.255 622.46 198.369 600.941 192.02C579.423 185.666 559.462 178.911 541.057 171.75C522.653 164.588 505.963 157.083 491.005 149.239C461.107 133.286 437.926 116.51 421.446 98.9163C413.049 90.1038 406.576 81.0881 394.872 72.5777C384.55 64.9058 369.61 58.1402 350.068 52.2756C313.819 41.5413 266.251 34.6819 218.683 29.536C163.435 23.5517 105.738 19.7704 48.1102 16.4683C33.992 15.661 19.8738 14.885 5.73812 14.1402C2.11672 13.9423 0.559701 15.5673 4.32105 15.7808Z" fill="#055EA8" fill-opacity="0.1"/>
</g>
<mask id="mask7_115_6531" style="mask-type:luminance" maskUnits="userSpaceOnUse" x="0" y="6" width="1441" height="220">
<path d="M0 6.66699H1441V225.334H0V6.66699Z" fill="white"/>
</mask>
<g mask="url(#mask7_115_6531)">
<path d="M4.32103 8.72437C62.5607 11.5473 120.888 14.5837 177.886 19.2035C229.11 23.3442 281.052 28.7087 324.806 37.8702C346.272 42.2244 364.011 47.6619 378.007 54.1775C394.189 61.9692 402.464 70.8129 411.037 79.5317C426.677 95.8233 448.65 111.318 476.974 126.016C535.564 155.959 622.25 179.907 724.174 196.443C750.713 200.724 777.987 204.537 805.996 207.881C834.005 211.219 862.574 214.068 891.703 216.427C920.814 218.782 950.31 220.636 980.138 221.974C1009.98 223.318 1039.99 224.141 1070.15 224.454C1183.27 225.605 1303.61 220.287 1403.84 203.922C1415.11 202.084 1426.06 200.089 1436.68 197.933C1439.55 197.344 1436.85 195.922 1433.79 196.521C1339.65 215.667 1219.45 222.511 1107.15 222.927C1076.48 223.042 1045.9 222.62 1015.41 221.657C984.914 220.698 954.701 219.204 924.802 217.183C894.887 215.162 865.496 212.625 836.594 209.573C807.693 206.516 779.492 202.969 752.008 198.927C647.372 183.459 556.54 160.568 493.682 131.105C462.926 116.521 438.976 101.006 421.814 84.5629C413.189 76.4535 406.646 68.1358 394.994 60.3442C384.06 52.9796 368.472 46.6306 348.196 41.3025C310.827 31.5004 263.539 25.4848 216.689 20.9431C162.07 15.6358 105.545 12.2608 49.0199 9.31812C34.6568 8.56291 20.2762 7.85458 5.7381 7.15145C2.25666 7.01604 0.769613 8.56291 4.32103 8.72437Z" fill="#055EA8" fill-opacity="0.1"/>
</g>
<mask id="mask8_115_6531" style="mask-type:luminance" maskUnits="userSpaceOnUse" x="0" y="0" width="1441" height="196">
<path d="M0 0H1441V196H0V0Z" fill="white"/>
</mask>
<g mask="url(#mask8_115_6531)">
</g>
<mask id="mask9_115_6531" style="mask-type:luminance" maskUnits="userSpaceOnUse" x="0" y="0" width="1441" height="196">
<path d="M0 0H1441V196H0V0Z" fill="white"/>
</mask>
<g mask="url(#mask9_115_6531)">
<path d="M4.31948 1.68732C61.8069 4.19253 119.312 6.88003 175.925 10.9582C226.379 14.5936 277.691 19.2134 322.162 27.3644C342.684 31.13 361.7 35.755 375.906 41.5988C393.156 48.7342 402.148 57.1196 411.228 65.4009C427.603 80.6248 450.486 94.9269 479.877 108.307C541.65 136.057 630.961 157.068 731.398 171.297C785.404 178.88 841.456 184.708 899.591 188.781C957.708 192.854 1016.63 195.083 1076.32 195.469C1187.29 196.255 1304.85 191.62 1405.17 176.797C1415.91 175.203 1426.46 173.474 1436.78 171.604C1439.67 171.078 1437.01 169.729 1434.14 170.26C1388.85 178.531 1338.13 183.948 1286.59 187.614C1229.45 191.609 1171.55 193.713 1112.87 193.937C1052.28 194.291 992.26 192.745 932.779 189.291C873.314 185.844 815.722 180.568 760.019 173.469C656.835 160.14 562.976 140.166 496.777 112.849C464.884 99.5988 439.902 85.2759 421.847 69.88C412.96 62.3644 406.154 54.5884 393.996 47.4529C382.344 40.7081 366.406 35.0311 346.183 30.4217C308.149 21.6352 261.439 16.4269 215.62 12.479C160.669 7.71336 104.092 4.69774 47.5838 2.06232C33.623 1.41128 19.6448 0.781069 5.68406 0.171693C2.37757 0.0362764 0.925515 1.54148 4.31948 1.68732Z" fill="#055EA8" fill-opacity="0.1"/>
</g>
</svg>
