<svg width="50" height="51" viewBox="0 0 50 51" fill="none" xmlns="http://www.w3.org/2000/svg">
<circle cx="25" cy="25.5044" r="25" fill="#D0CFFF"/>
<path d="M29.8719 39.0525H20.1305C15.686 39.0525 13.1289 36.4059 13.1289 31.8058V19.2029C13.1289 14.6028 15.686 11.9562 20.1305 11.9562H29.8719C34.3164 11.9562 36.8735 14.6028 36.8735 19.2029V31.8058C36.8735 36.4059 34.3164 39.0525 29.8719 39.0525ZM20.1305 13.8466C16.648 13.8466 14.9554 15.5984 14.9554 19.2029V31.8058C14.9554 35.4103 16.648 37.1621 20.1305 37.1621H29.8719C33.3544 37.1621 35.047 35.4103 35.047 31.8058V19.2029C35.047 15.5984 33.3544 13.8466 29.8719 13.8466H20.1305Z" fill="#3A36DB"/>
<path d="M21.3492 24.3827C21.1422 24.3827 20.9352 24.3449 20.7404 24.2567C20.1803 24.0046 19.8271 23.4375 19.8271 22.8199V12.9014C19.8271 12.3847 20.2412 11.9562 20.7404 11.9562H29.2641C29.7633 11.9562 30.1773 12.3847 30.1773 12.9014V22.8073C30.1773 23.4375 29.8242 24.0046 29.2641 24.2441C28.7161 24.4961 28.0708 24.3827 27.6202 23.9542L25.0022 21.4714L22.3842 23.9668C22.092 24.2441 21.7267 24.3827 21.3492 24.3827ZM25.0022 19.4676C25.3675 19.4676 25.745 19.6061 26.0373 19.8834L28.3508 22.0889V13.8466H21.6537V22.0889L23.9672 19.8834C24.2595 19.6061 24.6369 19.4676 25.0022 19.4676Z" fill="#3A36DB"/>
<path d="M31.6987 28.9704H26.5236C26.0244 28.9704 25.6104 28.5419 25.6104 28.0252C25.6104 27.5085 26.0244 27.08 26.5236 27.08H31.6987C32.1979 27.08 32.612 27.5085 32.612 28.0252C32.612 28.5419 32.1979 28.9704 31.6987 28.9704Z" fill="#3A36DB"/>
<path d="M31.698 34.0115H21.3478C20.8486 34.0115 20.4346 33.583 20.4346 33.0663C20.4346 32.5496 20.8486 32.1211 21.3478 32.1211H31.698C32.1973 32.1211 32.6113 32.5496 32.6113 33.0663C32.6113 33.583 32.1973 34.0115 31.698 34.0115Z" fill="#3A36DB"/>
</svg>
