<svg width="301" height="137" viewBox="0 0 301 137" fill="none" xmlns="http://www.w3.org/2000/svg">
<g filter="url(#filter0_d_9_6444)">
<path d="M131.379 70.3578C131.379 58.8732 128.417 47.586 122.783 37.6043C117.149 27.6225 109.038 19.2893 99.2451 13.4227C89.4521 7.55617 78.3143 4.35788 66.9251 4.14185C55.5358 3.92581 44.2866 6.69946 34.2817 12.1905L64.9042 68.9036C65.1544 68.7663 65.4356 68.697 65.7203 68.7024C66.0051 68.7078 66.2835 68.7878 66.5283 68.9344C66.7731 69.0811 66.9759 69.2894 67.1168 69.539C67.2576 69.7885 67.3317 70.0707 67.3317 70.3578H131.379Z" fill="#EC767E"/>
</g>
<path d="M34.2819 12.1904C24.093 17.7825 15.5547 25.9951 9.53524 35.9932C3.51577 45.9913 0.229846 57.4182 0.0116258 69.1119C-0.206594 80.8057 2.65068 92.3491 8.29286 102.568C13.9351 112.788 22.1609 121.318 32.1339 127.293C42.107 133.267 53.4715 136.472 65.0717 136.582C76.672 136.692 88.0943 133.703 98.177 127.919C108.26 122.135 116.643 113.762 122.475 103.651C128.307 93.5408 131.379 82.0535 131.379 70.3577H67.3318C67.3318 70.6501 67.255 70.9373 67.1092 71.1901C66.9634 71.4428 66.7538 71.6522 66.5018 71.7968C66.2497 71.9414 65.9642 72.0161 65.6742 72.0134C65.3841 72.0106 65.1 71.9305 64.8507 71.7811C64.6014 71.6318 64.3957 71.4185 64.2547 71.163C64.1136 70.9075 64.0422 70.6189 64.0477 70.3266C64.0531 70.0342 64.1352 69.7486 64.2857 69.4986C64.4362 69.2487 64.6497 69.0434 64.9044 68.9035L34.2819 12.1904Z" fill="#56C854"/>
<path d="M225.576 34.3569C225.024 34.3569 224.528 34.2609 224.088 34.0689C223.656 33.8689 223.316 33.5969 223.068 33.2529C222.82 32.9009 222.692 32.4969 222.684 32.0409H223.848C223.888 32.4329 224.048 32.7649 224.328 33.0369C224.616 33.3009 225.032 33.4329 225.576 33.4329C226.096 33.4329 226.504 33.3049 226.8 33.0489C227.104 32.7849 227.256 32.4489 227.256 32.0409C227.256 31.7209 227.168 31.4609 226.992 31.2609C226.816 31.0609 226.596 30.9089 226.332 30.8049C226.068 30.7009 225.712 30.5889 225.264 30.4689C224.712 30.3249 224.268 30.1809 223.932 30.0369C223.604 29.8929 223.32 29.6689 223.08 29.3649C222.848 29.0529 222.732 28.6369 222.732 28.1169C222.732 27.6609 222.848 27.2569 223.08 26.9049C223.312 26.5529 223.636 26.2809 224.052 26.0889C224.476 25.8969 224.96 25.8009 225.504 25.8009C226.288 25.8009 226.928 25.9969 227.424 26.3889C227.928 26.7809 228.212 27.3009 228.276 27.9489H227.076C227.036 27.6289 226.868 27.3489 226.572 27.1089C226.276 26.8609 225.884 26.7369 225.396 26.7369C224.94 26.7369 224.568 26.8569 224.28 27.0969C223.992 27.3289 223.848 27.6569 223.848 28.0809C223.848 28.3849 223.932 28.6329 224.1 28.8249C224.276 29.0169 224.488 29.1649 224.736 29.2689C224.992 29.3649 225.348 29.4769 225.804 29.6049C226.356 29.7569 226.8 29.9089 227.136 30.0609C227.472 30.2049 227.76 30.4329 228 30.7449C228.24 31.0489 228.36 31.4649 228.36 31.9929C228.36 32.4009 228.252 32.7849 228.036 33.1449C227.82 33.5049 227.5 33.7969 227.076 34.0209C226.652 34.2449 226.152 34.3569 225.576 34.3569ZM230.531 26.6289C230.323 26.6289 230.147 26.5569 230.003 26.4129C229.859 26.2689 229.787 26.0929 229.787 25.8849C229.787 25.6769 229.859 25.5009 230.003 25.3569C230.147 25.2129 230.323 25.1409 230.531 25.1409C230.731 25.1409 230.899 25.2129 231.035 25.3569C231.179 25.5009 231.251 25.6769 231.251 25.8849C231.251 26.0929 231.179 26.2689 231.035 26.4129C230.899 26.5569 230.731 26.6289 230.531 26.6289ZM231.059 27.6969V34.2729H229.967V27.6969H231.059ZM235.248 34.3809C234.744 34.3809 234.292 34.2969 233.892 34.1289C233.492 33.9529 233.176 33.7129 232.944 33.4089C232.712 33.0969 232.584 32.7409 232.56 32.3409H233.688C233.72 32.6689 233.872 32.9369 234.144 33.1449C234.424 33.3529 234.788 33.4569 235.236 33.4569C235.652 33.4569 235.98 33.3649 236.22 33.1809C236.46 32.9969 236.58 32.7649 236.58 32.4849C236.58 32.1969 236.452 31.9849 236.196 31.8489C235.94 31.7049 235.544 31.5649 235.008 31.4289C234.52 31.3009 234.12 31.1729 233.808 31.0449C233.504 30.9089 233.24 30.7129 233.016 30.4569C232.8 30.1929 232.692 29.8489 232.692 29.4249C232.692 29.0889 232.792 28.7809 232.992 28.5009C233.192 28.2209 233.476 28.0009 233.844 27.8409C234.212 27.6729 234.632 27.5889 235.104 27.5889C235.832 27.5889 236.42 27.7729 236.868 28.1409C237.316 28.5089 237.556 29.0129 237.588 29.6529H236.496C236.472 29.3089 236.332 29.0329 236.076 28.8249C235.828 28.6169 235.492 28.5129 235.068 28.5129C234.676 28.5129 234.364 28.5969 234.132 28.7649C233.9 28.9329 233.784 29.1529 233.784 29.4249C233.784 29.6409 233.852 29.8209 233.988 29.9649C234.132 30.1009 234.308 30.2129 234.516 30.3009C234.732 30.3809 235.028 30.4729 235.404 30.5769C235.876 30.7049 236.26 30.8329 236.556 30.9609C236.852 31.0809 237.104 31.2649 237.312 31.5129C237.528 31.7609 237.64 32.0849 237.648 32.4849C237.648 32.8449 237.548 33.1689 237.348 33.4569C237.148 33.7449 236.864 33.9729 236.496 34.1409C236.136 34.3009 235.72 34.3809 235.248 34.3809ZM247.95 27.6969L245.898 34.2729H244.77L243.186 29.0529L241.602 34.2729H240.474L238.41 27.6969H239.526L241.038 33.2169L242.67 27.6969H243.786L245.382 33.2289L246.87 27.6969H247.95ZM248.625 30.9609C248.625 30.2889 248.761 29.7009 249.033 29.1969C249.305 28.6849 249.677 28.2889 250.149 28.0089C250.629 27.7289 251.161 27.5889 251.745 27.5889C252.321 27.5889 252.821 27.7129 253.245 27.9609C253.669 28.2089 253.985 28.5209 254.193 28.8969V27.6969H255.297V34.2729H254.193V33.0489C253.977 33.4329 253.653 33.7529 253.221 34.0089C252.797 34.2569 252.301 34.3809 251.733 34.3809C251.149 34.3809 250.621 34.2369 250.149 33.9489C249.677 33.6609 249.305 33.2569 249.033 32.7369C248.761 32.2169 248.625 31.6249 248.625 30.9609ZM254.193 30.9729C254.193 30.4769 254.093 30.0449 253.893 29.6769C253.693 29.3089 253.421 29.0289 253.077 28.8369C252.741 28.6369 252.369 28.5369 251.961 28.5369C251.553 28.5369 251.181 28.6329 250.845 28.8249C250.509 29.0169 250.241 29.2969 250.041 29.6649C249.841 30.0329 249.741 30.4649 249.741 30.9609C249.741 31.4649 249.841 31.9049 250.041 32.2809C250.241 32.6489 250.509 32.9329 250.845 33.1329C251.181 33.3249 251.553 33.4209 251.961 33.4209C252.369 33.4209 252.741 33.3249 253.077 33.1329C253.421 32.9329 253.693 32.6489 253.893 32.2809C254.093 31.9049 254.193 31.4689 254.193 30.9729ZM262.67 34.3809C262.166 34.3809 261.714 34.2969 261.314 34.1289C260.914 33.9529 260.598 33.7129 260.366 33.4089C260.134 33.0969 260.006 32.7409 259.982 32.3409H261.11C261.142 32.6689 261.294 32.9369 261.566 33.1449C261.846 33.3529 262.21 33.4569 262.658 33.4569C263.074 33.4569 263.402 33.3649 263.642 33.1809C263.882 32.9969 264.002 32.7649 264.002 32.4849C264.002 32.1969 263.874 31.9849 263.618 31.8489C263.362 31.7049 262.966 31.5649 262.43 31.4289C261.942 31.3009 261.542 31.1729 261.23 31.0449C260.926 30.9089 260.662 30.7129 260.438 30.4569C260.222 30.1929 260.114 29.8489 260.114 29.4249C260.114 29.0889 260.214 28.7809 260.414 28.5009C260.614 28.2209 260.898 28.0009 261.266 27.8409C261.634 27.6729 262.054 27.5889 262.526 27.5889C263.254 27.5889 263.842 27.7729 264.29 28.1409C264.738 28.5089 264.978 29.0129 265.01 29.6529H263.918C263.894 29.3089 263.754 29.0329 263.498 28.8249C263.25 28.6169 262.914 28.5129 262.49 28.5129C262.098 28.5129 261.786 28.5969 261.554 28.7649C261.322 28.9329 261.206 29.1529 261.206 29.4249C261.206 29.6409 261.274 29.8209 261.41 29.9649C261.554 30.1009 261.73 30.2129 261.938 30.3009C262.154 30.3809 262.45 30.4729 262.826 30.5769C263.298 30.7049 263.682 30.8329 263.978 30.9609C264.274 31.0809 264.526 31.2649 264.734 31.5129C264.95 31.7609 265.062 32.0849 265.07 32.4849C265.07 32.8449 264.97 33.1689 264.77 33.4569C264.57 33.7449 264.286 33.9729 263.918 34.1409C263.558 34.3009 263.142 34.3809 262.67 34.3809ZM272.612 30.7329C272.612 30.9409 272.6 31.1609 272.576 31.3929H267.32C267.36 32.0409 267.58 32.5489 267.98 32.9169C268.388 33.2769 268.88 33.4569 269.456 33.4569C269.928 33.4569 270.32 33.3489 270.632 33.1329C270.952 32.9089 271.176 32.6129 271.304 32.2449H272.48C272.304 32.8769 271.952 33.3929 271.424 33.7929C270.896 34.1849 270.24 34.3809 269.456 34.3809C268.832 34.3809 268.272 34.2409 267.776 33.9609C267.288 33.6809 266.904 33.2849 266.624 32.7729C266.344 32.2529 266.204 31.6529 266.204 30.9729C266.204 30.2929 266.34 29.6969 266.612 29.1849C266.884 28.6729 267.264 28.2809 267.752 28.0089C268.248 27.7289 268.816 27.5889 269.456 27.5889C270.08 27.5889 270.632 27.7249 271.112 27.9969C271.592 28.2689 271.96 28.6449 272.216 29.1249C272.48 29.5969 272.612 30.1329 272.612 30.7329ZM271.484 30.5049C271.484 30.0889 271.392 29.7329 271.208 29.4369C271.024 29.1329 270.772 28.9049 270.452 28.7529C270.14 28.5929 269.792 28.5129 269.408 28.5129C268.856 28.5129 268.384 28.6889 267.992 29.0409C267.608 29.3929 267.388 29.8809 267.332 30.5049H271.484ZM275.145 25.3929V34.2729H274.053V25.3929H275.145ZM283.006 30.7329C283.006 30.9409 282.994 31.1609 282.97 31.3929H277.714C277.754 32.0409 277.974 32.5489 278.374 32.9169C278.782 33.2769 279.274 33.4569 279.85 33.4569C280.322 33.4569 280.714 33.3489 281.026 33.1329C281.346 32.9089 281.57 32.6129 281.698 32.2449H282.874C282.698 32.8769 282.346 33.3929 281.818 33.7929C281.29 34.1849 280.634 34.3809 279.85 34.3809C279.226 34.3809 278.666 34.2409 278.17 33.9609C277.682 33.6809 277.298 33.2849 277.018 32.7729C276.738 32.2529 276.598 31.6529 276.598 30.9729C276.598 30.2929 276.734 29.6969 277.006 29.1849C277.278 28.6729 277.658 28.2809 278.146 28.0089C278.642 27.7289 279.21 27.5889 279.85 27.5889C280.474 27.5889 281.026 27.7249 281.506 27.9969C281.986 28.2689 282.354 28.6449 282.61 29.1249C282.874 29.5969 283.006 30.1329 283.006 30.7329ZM281.878 30.5049C281.878 30.0889 281.786 29.7329 281.602 29.4369C281.418 29.1329 281.166 28.9049 280.846 28.7529C280.534 28.5929 280.186 28.5129 279.802 28.5129C279.25 28.5129 278.778 28.6889 278.386 29.0409C278.002 29.3929 277.782 29.8809 277.726 30.5049H281.878ZM286.775 34.3809C286.271 34.3809 285.819 34.2969 285.419 34.1289C285.019 33.9529 284.703 33.7129 284.471 33.4089C284.239 33.0969 284.111 32.7409 284.087 32.3409H285.215C285.247 32.6689 285.399 32.9369 285.671 33.1449C285.951 33.3529 286.315 33.4569 286.763 33.4569C287.179 33.4569 287.507 33.3649 287.747 33.1809C287.987 32.9969 288.107 32.7649 288.107 32.4849C288.107 32.1969 287.979 31.9849 287.723 31.8489C287.467 31.7049 287.071 31.5649 286.535 31.4289C286.047 31.3009 285.647 31.1729 285.335 31.0449C285.031 30.9089 284.767 30.7129 284.543 30.4569C284.327 30.1929 284.219 29.8489 284.219 29.4249C284.219 29.0889 284.319 28.7809 284.519 28.5009C284.719 28.2209 285.003 28.0009 285.371 27.8409C285.739 27.6729 286.159 27.5889 286.631 27.5889C287.359 27.5889 287.947 27.7729 288.395 28.1409C288.843 28.5089 289.083 29.0129 289.115 29.6529H288.023C287.999 29.3089 287.859 29.0329 287.603 28.8249C287.355 28.6169 287.019 28.5129 286.595 28.5129C286.203 28.5129 285.891 28.5969 285.659 28.7649C285.427 28.9329 285.311 29.1529 285.311 29.4249C285.311 29.6409 285.379 29.8209 285.515 29.9649C285.659 30.1009 285.835 30.2129 286.043 30.3009C286.259 30.3809 286.555 30.4729 286.931 30.5769C287.403 30.7049 287.787 30.8329 288.083 30.9609C288.379 31.0809 288.631 31.2649 288.839 31.5129C289.055 31.7609 289.167 32.0849 289.175 32.4849C289.175 32.8449 289.075 33.1689 288.875 33.4569C288.675 33.7449 288.391 33.9729 288.023 34.1409C287.663 34.3009 287.247 34.3809 286.775 34.3809ZM290.309 30.9609C290.309 30.2889 290.445 29.7009 290.717 29.1969C290.989 28.6849 291.361 28.2889 291.833 28.0089C292.313 27.7289 292.845 27.5889 293.429 27.5889C294.005 27.5889 294.505 27.7129 294.929 27.9609C295.353 28.2089 295.669 28.5209 295.877 28.8969V27.6969H296.981V34.2729H295.877V33.0489C295.661 33.4329 295.337 33.7529 294.905 34.0089C294.481 34.2569 293.985 34.3809 293.417 34.3809C292.833 34.3809 292.305 34.2369 291.833 33.9489C291.361 33.6609 290.989 33.2569 290.717 32.7369C290.445 32.2169 290.309 31.6249 290.309 30.9609ZM295.877 30.9729C295.877 30.4769 295.777 30.0449 295.577 29.6769C295.377 29.3089 295.105 29.0289 294.761 28.8369C294.425 28.6369 294.053 28.5369 293.645 28.5369C293.237 28.5369 292.865 28.6329 292.529 28.8249C292.193 29.0169 291.925 29.2969 291.725 29.6649C291.525 30.0329 291.425 30.4649 291.425 30.9609C291.425 31.4649 291.525 31.9049 291.725 32.2809C291.925 32.6489 292.193 32.9329 292.529 33.1329C292.865 33.3249 293.237 33.4209 293.645 33.4209C294.053 33.4209 294.425 33.3249 294.761 33.1329C295.105 32.9329 295.377 32.6489 295.577 32.2809C295.777 31.9049 295.877 31.4689 295.877 30.9729ZM299.39 26.6289C299.182 26.6289 299.006 26.5569 298.862 26.4129C298.718 26.2689 298.646 26.0929 298.646 25.8849C298.646 25.6769 298.718 25.5009 298.862 25.3569C299.006 25.2129 299.182 25.1409 299.39 25.1409C299.59 25.1409 299.758 25.2129 299.894 25.3569C300.038 25.5009 300.11 25.6769 300.11 25.8849C300.11 26.0929 300.038 26.2689 299.894 26.4129C299.758 26.5569 299.59 26.6289 299.39 26.6289ZM299.918 27.6969V34.2729H298.826V27.6969H299.918Z" fill="#87796F"/>
<path d="M225.576 72.7783C225.024 72.7783 224.528 72.6823 224.088 72.4903C223.656 72.2903 223.316 72.0183 223.068 71.6743C222.82 71.3223 222.692 70.9183 222.684 70.4623H223.848C223.888 70.8543 224.048 71.1863 224.328 71.4583C224.616 71.7223 225.032 71.8543 225.576 71.8543C226.096 71.8543 226.504 71.7263 226.8 71.4703C227.104 71.2063 227.256 70.8703 227.256 70.4623C227.256 70.1423 227.168 69.8823 226.992 69.6823C226.816 69.4823 226.596 69.3303 226.332 69.2263C226.068 69.1223 225.712 69.0103 225.264 68.8903C224.712 68.7463 224.268 68.6023 223.932 68.4583C223.604 68.3143 223.32 68.0903 223.08 67.7863C222.848 67.4743 222.732 67.0583 222.732 66.5383C222.732 66.0823 222.848 65.6783 223.08 65.3263C223.312 64.9743 223.636 64.7023 224.052 64.5103C224.476 64.3183 224.96 64.2223 225.504 64.2223C226.288 64.2223 226.928 64.4183 227.424 64.8103C227.928 65.2023 228.212 65.7223 228.276 66.3703H227.076C227.036 66.0503 226.868 65.7703 226.572 65.5303C226.276 65.2823 225.884 65.1583 225.396 65.1583C224.94 65.1583 224.568 65.2783 224.28 65.5183C223.992 65.7503 223.848 66.0783 223.848 66.5023C223.848 66.8063 223.932 67.0543 224.1 67.2463C224.276 67.4383 224.488 67.5863 224.736 67.6903C224.992 67.7863 225.348 67.8983 225.804 68.0263C226.356 68.1783 226.8 68.3303 227.136 68.4823C227.472 68.6263 227.76 68.8543 228 69.1663C228.24 69.4703 228.36 69.8863 228.36 70.4143C228.36 70.8223 228.252 71.2063 228.036 71.5663C227.82 71.9263 227.5 72.2183 227.076 72.4423C226.652 72.6663 226.152 72.7783 225.576 72.7783ZM230.531 65.0503C230.323 65.0503 230.147 64.9783 230.003 64.8343C229.859 64.6903 229.787 64.5143 229.787 64.3063C229.787 64.0983 229.859 63.9223 230.003 63.7783C230.147 63.6343 230.323 63.5623 230.531 63.5623C230.731 63.5623 230.899 63.6343 231.035 63.7783C231.179 63.9223 231.251 64.0983 231.251 64.3063C231.251 64.5143 231.179 64.6903 231.035 64.8343C230.899 64.9783 230.731 65.0503 230.531 65.0503ZM231.059 66.1183V72.6943H229.967V66.1183H231.059ZM235.248 72.8023C234.744 72.8023 234.292 72.7183 233.892 72.5503C233.492 72.3743 233.176 72.1343 232.944 71.8303C232.712 71.5183 232.584 71.1623 232.56 70.7623H233.688C233.72 71.0903 233.872 71.3583 234.144 71.5663C234.424 71.7743 234.788 71.8783 235.236 71.8783C235.652 71.8783 235.98 71.7863 236.22 71.6023C236.46 71.4183 236.58 71.1863 236.58 70.9063C236.58 70.6183 236.452 70.4063 236.196 70.2703C235.94 70.1263 235.544 69.9863 235.008 69.8503C234.52 69.7223 234.12 69.5943 233.808 69.4663C233.504 69.3303 233.24 69.1343 233.016 68.8783C232.8 68.6143 232.692 68.2703 232.692 67.8463C232.692 67.5103 232.792 67.2023 232.992 66.9223C233.192 66.6423 233.476 66.4223 233.844 66.2623C234.212 66.0943 234.632 66.0103 235.104 66.0103C235.832 66.0103 236.42 66.1943 236.868 66.5623C237.316 66.9303 237.556 67.4343 237.588 68.0743H236.496C236.472 67.7303 236.332 67.4543 236.076 67.2463C235.828 67.0383 235.492 66.9343 235.068 66.9343C234.676 66.9343 234.364 67.0183 234.132 67.1863C233.9 67.3543 233.784 67.5743 233.784 67.8463C233.784 68.0623 233.852 68.2423 233.988 68.3863C234.132 68.5223 234.308 68.6343 234.516 68.7223C234.732 68.8023 235.028 68.8943 235.404 68.9983C235.876 69.1263 236.26 69.2543 236.556 69.3823C236.852 69.5023 237.104 69.6863 237.312 69.9343C237.528 70.1823 237.64 70.5063 237.648 70.9063C237.648 71.2663 237.548 71.5903 237.348 71.8783C237.148 72.1663 236.864 72.3943 236.496 72.5623C236.136 72.7223 235.72 72.8023 235.248 72.8023ZM247.95 66.1183L245.898 72.6943H244.77L243.186 67.4743L241.602 72.6943H240.474L238.41 66.1183H239.526L241.038 71.6383L242.67 66.1183H243.786L245.382 71.6503L246.87 66.1183H247.95ZM248.625 69.3823C248.625 68.7103 248.761 68.1223 249.033 67.6183C249.305 67.1063 249.677 66.7103 250.149 66.4303C250.629 66.1503 251.161 66.0103 251.745 66.0103C252.321 66.0103 252.821 66.1343 253.245 66.3823C253.669 66.6303 253.985 66.9423 254.193 67.3183V66.1183H255.297V72.6943H254.193V71.4703C253.977 71.8543 253.653 72.1743 253.221 72.4303C252.797 72.6783 252.301 72.8023 251.733 72.8023C251.149 72.8023 250.621 72.6583 250.149 72.3703C249.677 72.0823 249.305 71.6783 249.033 71.1583C248.761 70.6383 248.625 70.0463 248.625 69.3823ZM254.193 69.3943C254.193 68.8983 254.093 68.4663 253.893 68.0983C253.693 67.7303 253.421 67.4503 253.077 67.2583C252.741 67.0583 252.369 66.9583 251.961 66.9583C251.553 66.9583 251.181 67.0543 250.845 67.2463C250.509 67.4383 250.241 67.7183 250.041 68.0863C249.841 68.4543 249.741 68.8863 249.741 69.3823C249.741 69.8863 249.841 70.3263 250.041 70.7023C250.241 71.0703 250.509 71.3543 250.845 71.5543C251.181 71.7463 251.553 71.8423 251.961 71.8423C252.369 71.8423 252.741 71.7463 253.077 71.5543C253.421 71.3543 253.693 71.0703 253.893 70.7023C254.093 70.3263 254.193 69.8903 254.193 69.3943ZM261.434 67.3423C261.658 66.9503 261.986 66.6303 262.418 66.3823C262.85 66.1343 263.342 66.0103 263.894 66.0103C264.486 66.0103 265.018 66.1503 265.49 66.4303C265.962 66.7103 266.334 67.1063 266.606 67.6183C266.878 68.1223 267.014 68.7103 267.014 69.3823C267.014 70.0463 266.878 70.6383 266.606 71.1583C266.334 71.6783 265.958 72.0823 265.478 72.3703C265.006 72.6583 264.478 72.8023 263.894 72.8023C263.326 72.8023 262.826 72.6783 262.394 72.4303C261.97 72.1823 261.65 71.8663 261.434 71.4823V72.6943H260.342V63.8143H261.434V67.3423ZM265.898 69.3823C265.898 68.8863 265.798 68.4543 265.598 68.0863C265.398 67.7183 265.126 67.4383 264.782 67.2463C264.446 67.0543 264.074 66.9583 263.666 66.9583C263.266 66.9583 262.894 67.0583 262.55 67.2583C262.214 67.4503 261.942 67.7343 261.734 68.1103C261.534 68.4783 261.434 68.9063 261.434 69.3943C261.434 69.8903 261.534 70.3263 261.734 70.7023C261.942 71.0703 262.214 71.3543 262.55 71.5543C262.894 71.7463 263.266 71.8423 263.666 71.8423C264.074 71.8423 264.446 71.7463 264.782 71.5543C265.126 71.3543 265.398 71.0703 265.598 70.7023C265.798 70.3263 265.898 69.8863 265.898 69.3823ZM274.451 69.1543C274.451 69.3623 274.439 69.5823 274.415 69.8143H269.159C269.199 70.4623 269.419 70.9703 269.819 71.3383C270.227 71.6983 270.719 71.8783 271.295 71.8783C271.767 71.8783 272.159 71.7703 272.471 71.5543C272.791 71.3303 273.015 71.0343 273.143 70.6663H274.319C274.143 71.2983 273.791 71.8143 273.263 72.2143C272.735 72.6063 272.079 72.8023 271.295 72.8023C270.671 72.8023 270.111 72.6623 269.615 72.3823C269.127 72.1023 268.743 71.7063 268.463 71.1943C268.183 70.6743 268.043 70.0743 268.043 69.3943C268.043 68.7143 268.179 68.1183 268.451 67.6063C268.723 67.0943 269.103 66.7023 269.591 66.4303C270.087 66.1503 270.655 66.0103 271.295 66.0103C271.919 66.0103 272.471 66.1463 272.951 66.4183C273.431 66.6903 273.799 67.0663 274.055 67.5463C274.319 68.0183 274.451 68.5543 274.451 69.1543ZM273.323 68.9263C273.323 68.5103 273.231 68.1543 273.047 67.8583C272.863 67.5543 272.611 67.3263 272.291 67.1743C271.979 67.0143 271.631 66.9343 271.247 66.9343C270.695 66.9343 270.223 67.1103 269.831 67.4623C269.447 67.8143 269.227 68.3023 269.171 68.9263H273.323ZM276.985 63.8143V72.6943H275.893V63.8143H276.985ZM284.678 66.1183V72.6943H283.586V71.7223C283.378 72.0583 283.086 72.3223 282.71 72.5143C282.342 72.6983 281.934 72.7903 281.486 72.7903C280.974 72.7903 280.514 72.6863 280.106 72.4783C279.698 72.2623 279.374 71.9423 279.134 71.5183C278.902 71.0943 278.786 70.5783 278.786 69.9703V66.1183H279.866V69.8263C279.866 70.4743 280.03 70.9743 280.358 71.3263C280.686 71.6703 281.134 71.8423 281.702 71.8423C282.286 71.8423 282.746 71.6623 283.082 71.3023C283.418 70.9423 283.586 70.4183 283.586 69.7303V66.1183H284.678ZM294.43 65.9983C294.942 65.9983 295.398 66.1063 295.798 66.3223C296.198 66.5303 296.514 66.8463 296.746 67.2703C296.978 67.6943 297.094 68.2103 297.094 68.8183V72.6943H296.014V68.9743C296.014 68.3183 295.85 67.8183 295.522 67.4743C295.202 67.1223 294.766 66.9463 294.214 66.9463C293.646 66.9463 293.194 67.1303 292.858 67.4983C292.522 67.8583 292.354 68.3823 292.354 69.0703V72.6943H291.274V68.9743C291.274 68.3183 291.11 67.8183 290.782 67.4743C290.462 67.1223 290.026 66.9463 289.474 66.9463C288.906 66.9463 288.454 67.1303 288.118 67.4983C287.782 67.8583 287.614 68.3823 287.614 69.0703V72.6943H286.522V66.1183H287.614V67.0663C287.83 66.7223 288.118 66.4583 288.478 66.2743C288.846 66.0903 289.25 65.9983 289.69 65.9983C290.242 65.9983 290.73 66.1223 291.154 66.3703C291.578 66.6183 291.894 66.9823 292.102 67.4623C292.286 66.9983 292.59 66.6383 293.014 66.3823C293.438 66.1263 293.91 65.9983 294.43 65.9983ZM225.252 90.8023C224.748 90.8023 224.296 90.7183 223.896 90.5503C223.496 90.3743 223.18 90.1343 222.948 89.8303C222.716 89.5183 222.588 89.1623 222.564 88.7623H223.692C223.724 89.0903 223.876 89.3583 224.148 89.5663C224.428 89.7743 224.792 89.8783 225.24 89.8783C225.656 89.8783 225.984 89.7863 226.224 89.6023C226.464 89.4183 226.584 89.1863 226.584 88.9063C226.584 88.6183 226.456 88.4063 226.2 88.2703C225.944 88.1263 225.548 87.9863 225.012 87.8503C224.524 87.7223 224.124 87.5943 223.812 87.4663C223.508 87.3303 223.244 87.1343 223.02 86.8783C222.804 86.6143 222.696 86.2703 222.696 85.8463C222.696 85.5103 222.796 85.2023 222.996 84.9223C223.196 84.6423 223.48 84.4223 223.848 84.2623C224.216 84.0943 224.636 84.0103 225.108 84.0103C225.836 84.0103 226.424 84.1943 226.872 84.5623C227.32 84.9303 227.56 85.4343 227.592 86.0743H226.5C226.476 85.7303 226.336 85.4543 226.08 85.2463C225.832 85.0383 225.496 84.9343 225.072 84.9343C224.68 84.9343 224.368 85.0183 224.136 85.1863C223.904 85.3543 223.788 85.5743 223.788 85.8463C223.788 86.0623 223.856 86.2423 223.992 86.3863C224.136 86.5223 224.312 86.6343 224.52 86.7223C224.736 86.8023 225.032 86.8943 225.408 86.9983C225.88 87.1263 226.264 87.2543 226.56 87.3823C226.856 87.5023 227.108 87.6863 227.316 87.9343C227.532 88.1823 227.644 88.5063 227.652 88.9063C227.652 89.2663 227.552 89.5903 227.352 89.8783C227.152 90.1663 226.868 90.3943 226.5 90.5623C226.14 90.7223 225.724 90.8023 225.252 90.8023ZM235.194 87.1543C235.194 87.3623 235.182 87.5823 235.158 87.8143H229.902C229.942 88.4623 230.162 88.9703 230.562 89.3383C230.97 89.6983 231.462 89.8783 232.038 89.8783C232.51 89.8783 232.902 89.7703 233.214 89.5543C233.534 89.3303 233.758 89.0343 233.886 88.6663H235.062C234.886 89.2983 234.534 89.8143 234.006 90.2143C233.478 90.6063 232.822 90.8023 232.038 90.8023C231.414 90.8023 230.854 90.6623 230.358 90.3823C229.87 90.1023 229.486 89.7063 229.206 89.1943C228.926 88.6743 228.786 88.0743 228.786 87.3943C228.786 86.7143 228.922 86.1183 229.194 85.6063C229.466 85.0943 229.846 84.7023 230.334 84.4303C230.83 84.1503 231.398 84.0103 232.038 84.0103C232.662 84.0103 233.214 84.1463 233.694 84.4183C234.174 84.6903 234.542 85.0663 234.798 85.5463C235.062 86.0183 235.194 86.5543 235.194 87.1543ZM234.066 86.9263C234.066 86.5103 233.974 86.1543 233.79 85.8583C233.606 85.5543 233.354 85.3263 233.034 85.1743C232.722 85.0143 232.374 84.9343 231.99 84.9343C231.438 84.9343 230.966 85.1103 230.574 85.4623C230.19 85.8143 229.97 86.3023 229.914 86.9263H234.066ZM237.727 81.8143V90.6943H236.635V81.8143H237.727ZM245.588 87.1543C245.588 87.3623 245.576 87.5823 245.552 87.8143H240.296C240.336 88.4623 240.556 88.9703 240.956 89.3383C241.364 89.6983 241.856 89.8783 242.432 89.8783C242.904 89.8783 243.296 89.7703 243.608 89.5543C243.928 89.3303 244.152 89.0343 244.28 88.6663H245.456C245.28 89.2983 244.928 89.8143 244.4 90.2143C243.872 90.6063 243.216 90.8023 242.432 90.8023C241.808 90.8023 241.248 90.6623 240.752 90.3823C240.264 90.1023 239.88 89.7063 239.6 89.1943C239.32 88.6743 239.18 88.0743 239.18 87.3943C239.18 86.7143 239.316 86.1183 239.588 85.6063C239.86 85.0943 240.24 84.7023 240.728 84.4303C241.224 84.1503 241.792 84.0103 242.432 84.0103C243.056 84.0103 243.608 84.1463 244.088 84.4183C244.568 84.6903 244.936 85.0663 245.192 85.5463C245.456 86.0183 245.588 86.5543 245.588 87.1543ZM244.46 86.9263C244.46 86.5103 244.368 86.1543 244.184 85.8583C244 85.5543 243.748 85.3263 243.428 85.1743C243.116 85.0143 242.768 84.9343 242.384 84.9343C241.832 84.9343 241.36 85.1103 240.968 85.4623C240.584 85.8143 240.364 86.3023 240.308 86.9263H244.46ZM249.357 90.8023C248.853 90.8023 248.401 90.7183 248.001 90.5503C247.601 90.3743 247.285 90.1343 247.053 89.8303C246.821 89.5183 246.693 89.1623 246.669 88.7623H247.797C247.829 89.0903 247.981 89.3583 248.253 89.5663C248.533 89.7743 248.897 89.8783 249.345 89.8783C249.761 89.8783 250.089 89.7863 250.329 89.6023C250.569 89.4183 250.689 89.1863 250.689 88.9063C250.689 88.6183 250.561 88.4063 250.305 88.2703C250.049 88.1263 249.653 87.9863 249.117 87.8503C248.629 87.7223 248.229 87.5943 247.917 87.4663C247.613 87.3303 247.349 87.1343 247.125 86.8783C246.909 86.6143 246.801 86.2703 246.801 85.8463C246.801 85.5103 246.901 85.2023 247.101 84.9223C247.301 84.6423 247.585 84.4223 247.953 84.2623C248.321 84.0943 248.741 84.0103 249.213 84.0103C249.941 84.0103 250.529 84.1943 250.977 84.5623C251.425 84.9303 251.665 85.4343 251.697 86.0743H250.605C250.581 85.7303 250.441 85.4543 250.185 85.2463C249.937 85.0383 249.601 84.9343 249.177 84.9343C248.785 84.9343 248.473 85.0183 248.241 85.1863C248.009 85.3543 247.893 85.5743 247.893 85.8463C247.893 86.0623 247.961 86.2423 248.097 86.3863C248.241 86.5223 248.417 86.6343 248.625 86.7223C248.841 86.8023 249.137 86.8943 249.513 86.9983C249.985 87.1263 250.369 87.2543 250.665 87.3823C250.961 87.5023 251.213 87.6863 251.421 87.9343C251.637 88.1823 251.749 88.5063 251.757 88.9063C251.757 89.2663 251.657 89.5903 251.457 89.8783C251.257 90.1663 250.973 90.3943 250.605 90.5623C250.245 90.7223 249.829 90.8023 249.357 90.8023ZM252.891 87.3823C252.891 86.7103 253.027 86.1223 253.299 85.6183C253.571 85.1063 253.943 84.7103 254.415 84.4303C254.895 84.1503 255.427 84.0103 256.011 84.0103C256.587 84.0103 257.087 84.1343 257.511 84.3823C257.935 84.6303 258.251 84.9423 258.459 85.3183V84.1183H259.563V90.6943H258.459V89.4703C258.243 89.8543 257.919 90.1743 257.487 90.4303C257.063 90.6783 256.567 90.8023 255.999 90.8023C255.415 90.8023 254.887 90.6583 254.415 90.3703C253.943 90.0823 253.571 89.6783 253.299 89.1583C253.027 88.6383 252.891 88.0463 252.891 87.3823ZM258.459 87.3943C258.459 86.8983 258.359 86.4663 258.159 86.0983C257.959 85.7303 257.687 85.4503 257.343 85.2583C257.007 85.0583 256.635 84.9583 256.227 84.9583C255.819 84.9583 255.447 85.0543 255.111 85.2463C254.775 85.4383 254.507 85.7183 254.307 86.0863C254.107 86.4543 254.007 86.8863 254.007 87.3823C254.007 87.8863 254.107 88.3263 254.307 88.7023C254.507 89.0703 254.775 89.3543 255.111 89.5543C255.447 89.7463 255.819 89.8423 256.227 89.8423C256.635 89.8423 257.007 89.7463 257.343 89.5543C257.687 89.3543 257.959 89.0703 258.159 88.7023C258.359 88.3263 258.459 87.8903 258.459 87.3943ZM261.972 83.0503C261.764 83.0503 261.588 82.9783 261.444 82.8343C261.3 82.6903 261.228 82.5143 261.228 82.3063C261.228 82.0983 261.3 81.9223 261.444 81.7783C261.588 81.6343 261.764 81.5623 261.972 81.5623C262.172 81.5623 262.34 81.6343 262.476 81.7783C262.62 81.9223 262.692 82.0983 262.692 82.3063C262.692 82.5143 262.62 82.6903 262.476 82.8343C262.34 82.9783 262.172 83.0503 261.972 83.0503ZM262.5 84.1183V90.6943H261.408V84.1183H262.5Z" fill="#87796F"/>
<rect x="201" y="26.9231" width="10" height="11.3004" rx="2" fill="#34BD32"/>
<rect x="201" y="64.2144" width="10" height="11.3004" rx="2" fill="#EC767E"/>
<defs>
<filter id="filter0_d_9_6444" x="24.2817" y="0.130127" width="117.097" height="86.2278" filterUnits="userSpaceOnUse" color-interpolation-filters="sRGB">
<feFlood flood-opacity="0" result="BackgroundImageFix"/>
<feColorMatrix in="SourceAlpha" type="matrix" values="0 0 0 0 0 0 0 0 0 0 0 0 0 0 0 0 0 0 127 0" result="hardAlpha"/>
<feOffset dy="6"/>
<feGaussianBlur stdDeviation="5"/>
<feComposite in2="hardAlpha" operator="out"/>
<feColorMatrix type="matrix" values="0 0 0 0 0 0 0 0 0 0 0 0 0 0 0 0 0 0 0.25 0"/>
<feBlend mode="normal" in2="BackgroundImageFix" result="effect1_dropShadow_9_6444"/>
<feBlend mode="normal" in="SourceGraphic" in2="effect1_dropShadow_9_6444" result="shape"/>
</filter>
</defs>
</svg>
