<svg width="308" height="297" viewBox="0 0 308 297" fill="none" xmlns="http://www.w3.org/2000/svg">
<path d="M39.92 278.169H40.9768V284.408C40.9768 284.964 40.8745 285.437 40.67 285.827C40.4654 286.216 40.1771 286.511 39.8049 286.713C39.4328 286.915 38.9939 287.016 38.4882 287.016C38.0109 287.016 37.5862 286.929 37.214 286.756C36.8419 286.579 36.5492 286.329 36.3362 286.006C36.1231 285.682 36.0166 285.297 36.0166 284.851H37.0564C37.0564 285.098 37.1174 285.314 37.2396 285.499C37.3646 285.68 37.535 285.822 37.751 285.925C37.9669 286.027 38.2126 286.078 38.4882 286.078C38.7921 286.078 39.0507 286.014 39.2637 285.886C39.4768 285.758 39.6387 285.571 39.7495 285.324C39.8632 285.074 39.92 284.768 39.92 284.408V278.169ZM44.8845 287.05C44.4697 287.05 44.0933 286.972 43.7552 286.815C43.4171 286.656 43.1487 286.427 42.9498 286.129C42.751 285.828 42.6515 285.464 42.6515 285.038C42.6515 284.663 42.7254 284.359 42.8731 284.126C43.0208 283.891 43.2183 283.706 43.4654 283.572C43.7126 283.439 43.9853 283.339 44.2836 283.274C44.5848 283.206 44.8873 283.152 45.1913 283.112C45.589 283.061 45.9115 283.023 46.1586 282.997C46.4086 282.969 46.5904 282.922 46.7041 282.856C46.8206 282.791 46.8788 282.677 46.8788 282.516V282.481C46.8788 282.061 46.7637 281.734 46.5336 281.501C46.3064 281.268 45.9612 281.152 45.4981 281.152C45.018 281.152 44.6416 281.257 44.3689 281.467C44.0961 281.677 43.9044 281.902 43.7936 282.141L42.839 281.8C43.0095 281.402 43.2367 281.092 43.5208 280.871C43.8078 280.646 44.1203 280.49 44.4583 280.402C44.7992 280.311 45.1345 280.266 45.464 280.266C45.6742 280.266 45.9157 280.291 46.1885 280.342C46.464 280.391 46.7296 280.491 46.9853 280.645C47.2439 280.798 47.4583 281.03 47.6288 281.339C47.7992 281.649 47.8845 282.064 47.8845 282.584V286.896H46.8788V286.01H46.8277C46.7595 286.152 46.6458 286.304 46.4867 286.466C46.3277 286.628 46.116 286.766 45.8518 286.879C45.5876 286.993 45.2652 287.05 44.8845 287.05ZM45.0379 286.146C45.4356 286.146 45.7708 286.068 46.0436 285.912C46.3191 285.756 46.5265 285.554 46.6657 285.307C46.8078 285.06 46.8788 284.8 46.8788 284.527V283.606C46.8362 283.658 46.7424 283.704 46.5975 283.747C46.4555 283.787 46.2907 283.822 46.1032 283.854C45.9186 283.882 45.7382 283.908 45.562 283.93C45.3887 283.95 45.2481 283.967 45.1402 283.981C44.8788 284.016 44.6345 284.071 44.4072 284.148C44.1828 284.222 44.001 284.334 43.8617 284.484C43.7254 284.632 43.6572 284.834 43.6572 285.089C43.6572 285.439 43.7865 285.703 44.045 285.882C44.3064 286.058 44.6373 286.146 45.0379 286.146ZM50.7257 282.959V286.896H49.7201V280.351H50.6916V281.374H50.7769C50.9303 281.041 51.1632 280.774 51.4757 280.572C51.7882 280.368 52.1916 280.266 52.686 280.266C53.1291 280.266 53.5169 280.356 53.8493 280.538C54.1817 280.717 54.4402 280.99 54.6249 281.356C54.8095 281.72 54.9019 282.18 54.9019 282.737V286.896H53.8962V282.805C53.8962 282.291 53.7627 281.891 53.4956 281.604C53.2286 281.314 52.8621 281.169 52.3962 281.169C52.0752 281.169 51.7882 281.239 51.5354 281.378C51.2854 281.517 51.088 281.72 50.9431 281.987C50.7982 282.254 50.7257 282.578 50.7257 282.959Z" fill="#788B9A"/>
<path d="M85.4597 286.896V278.169H90.6926V279.106H86.5165V282.055H90.3006V282.993H86.5165V286.896H85.4597ZM94.6301 287.033C93.9994 287.033 93.4554 286.893 92.998 286.615C92.5435 286.334 92.1926 285.942 91.9455 285.439C91.7011 284.933 91.579 284.345 91.579 283.675C91.579 283.004 91.7011 282.413 91.9455 281.902C92.1926 281.388 92.5364 280.987 92.9767 280.7C93.4199 280.41 93.9369 280.266 94.5278 280.266C94.8688 280.266 95.2054 280.322 95.5378 280.436C95.8702 280.55 96.1727 280.734 96.4455 280.99C96.7182 281.243 96.9355 281.578 97.0974 281.996C97.2594 282.413 97.3403 282.927 97.3403 283.538V283.964H92.2949V283.095H96.3176C96.3176 282.726 96.2438 282.396 96.096 282.106C95.9511 281.817 95.7438 281.588 95.4739 281.42C95.2068 281.253 94.8915 281.169 94.5278 281.169C94.1273 281.169 93.7807 281.268 93.4881 281.467C93.1983 281.663 92.9753 281.919 92.819 282.234C92.6628 282.55 92.5847 282.888 92.5847 283.249V283.828C92.5847 284.322 92.6699 284.741 92.8403 285.085C93.0136 285.426 93.2537 285.686 93.5605 285.865C93.8673 286.041 94.2239 286.129 94.6301 286.129C94.8943 286.129 95.133 286.092 95.346 286.018C95.5619 285.942 95.748 285.828 95.9043 285.677C96.0605 285.524 96.1813 285.334 96.2665 285.106L97.2381 285.379C97.1358 285.709 96.9639 285.999 96.7224 286.249C96.481 286.496 96.1827 286.689 95.8276 286.828C95.4724 286.964 95.0733 287.033 94.6301 287.033ZM99.0065 286.896V278.169H100.012V281.391H100.097C100.171 281.277 100.274 281.132 100.404 280.956C100.538 280.777 100.728 280.618 100.975 280.479C101.225 280.337 101.563 280.266 101.989 280.266C102.541 280.266 103.026 280.403 103.447 280.679C103.867 280.954 104.195 281.345 104.431 281.851C104.667 282.356 104.785 282.953 104.785 283.641C104.785 284.334 104.667 284.935 104.431 285.443C104.195 285.949 103.869 286.341 103.451 286.619C103.034 286.895 102.552 287.033 102.007 287.033C101.586 287.033 101.249 286.963 100.997 286.824C100.744 286.682 100.549 286.521 100.413 286.342C100.276 286.16 100.171 286.01 100.097 285.891H99.9781V286.896H99.0065ZM99.9952 283.624C99.9952 284.118 100.068 284.554 100.213 284.932C100.357 285.307 100.569 285.601 100.847 285.814C101.126 286.024 101.467 286.129 101.87 286.129C102.291 286.129 102.641 286.018 102.923 285.797C103.207 285.572 103.42 285.271 103.562 284.893C103.707 284.513 103.779 284.089 103.779 283.624C103.779 283.163 103.708 282.749 103.566 282.379C103.427 282.007 103.215 281.713 102.931 281.497C102.65 281.278 102.296 281.169 101.87 281.169C101.461 281.169 101.117 281.273 100.839 281.48C100.561 281.685 100.35 281.972 100.208 282.341C100.066 282.707 99.9952 283.135 99.9952 283.624Z" fill="#788B9A"/>
<path d="M132.208 278.169H133.469L136.435 285.413H136.537L139.503 278.169H140.765V286.896H139.776V280.266H139.691L136.964 286.896H136.009L133.282 280.266H133.197V286.896H132.208V278.169ZM144.673 287.05C144.259 287.05 143.882 286.972 143.544 286.815C143.206 286.656 142.938 286.427 142.739 286.129C142.54 285.828 142.44 285.464 142.44 285.038C142.44 284.663 142.514 284.359 142.662 284.126C142.81 283.891 143.007 283.706 143.254 283.572C143.502 283.439 143.774 283.339 144.073 283.274C144.374 283.206 144.676 283.152 144.98 283.112C145.378 283.061 145.7 283.023 145.948 282.997C146.198 282.969 146.379 282.922 146.493 282.856C146.61 282.791 146.668 282.677 146.668 282.516V282.481C146.668 282.061 146.553 281.734 146.323 281.501C146.095 281.268 145.75 281.152 145.287 281.152C144.807 281.152 144.431 281.257 144.158 281.467C143.885 281.677 143.693 281.902 143.583 282.141L142.628 281.8C142.798 281.402 143.026 281.092 143.31 280.871C143.597 280.646 143.909 280.49 144.247 280.402C144.588 280.311 144.923 280.266 145.253 280.266C145.463 280.266 145.705 280.291 145.977 280.342C146.253 280.391 146.519 280.491 146.774 280.645C147.033 280.798 147.247 281.03 147.418 281.339C147.588 281.649 147.673 282.064 147.673 282.584V286.896H146.668V286.01H146.617C146.548 286.152 146.435 286.304 146.276 286.466C146.117 286.628 145.905 286.766 145.641 286.879C145.377 286.993 145.054 287.05 144.673 287.05ZM144.827 286.146C145.225 286.146 145.56 286.068 145.833 285.912C146.108 285.756 146.315 285.554 146.455 285.307C146.597 285.06 146.668 284.8 146.668 284.527V283.606C146.625 283.658 146.531 283.704 146.387 283.747C146.244 283.787 146.08 283.822 145.892 283.854C145.708 283.882 145.527 283.908 145.351 283.93C145.178 283.95 145.037 283.967 144.929 283.981C144.668 284.016 144.423 284.071 144.196 284.148C143.972 284.222 143.79 284.334 143.651 284.484C143.514 284.632 143.446 284.834 143.446 285.089C143.446 285.439 143.575 285.703 143.834 285.882C144.095 286.058 144.426 286.146 144.827 286.146ZM149.509 286.896V280.351H150.481V281.339H150.549C150.668 281.016 150.884 280.753 151.197 280.551C151.509 280.349 151.861 280.249 152.253 280.249C152.327 280.249 152.42 280.25 152.53 280.253C152.641 280.256 152.725 280.26 152.782 280.266V281.288C152.748 281.28 152.67 281.267 152.547 281.25C152.428 281.23 152.302 281.22 152.168 281.22C151.85 281.22 151.566 281.287 151.316 281.42C151.069 281.551 150.873 281.733 150.728 281.966C150.586 282.196 150.515 282.459 150.515 282.754V286.896H149.509Z" fill="#788B9A"/>
<path d="M179.638 286.896H178.53L181.734 278.169H182.825L186.03 286.896H184.922L182.314 279.55H182.246L179.638 286.896ZM180.047 283.487H184.513V284.425H180.047V283.487ZM187.253 289.351V280.351H188.224V281.391H188.344C188.418 281.277 188.52 281.132 188.65 280.956C188.784 280.777 188.974 280.618 189.222 280.479C189.472 280.337 189.81 280.266 190.236 280.266C190.787 280.266 191.273 280.403 191.693 280.679C192.114 280.954 192.442 281.345 192.677 281.851C192.913 282.356 193.031 282.953 193.031 283.641C193.031 284.334 192.913 284.935 192.677 285.443C192.442 285.949 192.115 286.341 191.697 286.619C191.28 286.895 190.798 287.033 190.253 287.033C189.832 287.033 189.496 286.963 189.243 286.824C188.99 286.682 188.795 286.521 188.659 286.342C188.523 286.16 188.418 286.01 188.344 285.891H188.258V289.351H187.253ZM188.241 283.624C188.241 284.118 188.314 284.554 188.459 284.932C188.604 285.307 188.815 285.601 189.094 285.814C189.372 286.024 189.713 286.129 190.116 286.129C190.537 286.129 190.888 286.018 191.169 285.797C191.453 285.572 191.666 285.271 191.808 284.893C191.953 284.513 192.025 284.089 192.025 283.624C192.025 283.163 191.954 282.749 191.812 282.379C191.673 282.007 191.462 281.713 191.177 281.497C190.896 281.278 190.543 281.169 190.116 281.169C189.707 281.169 189.364 281.273 189.085 281.48C188.807 281.685 188.597 281.972 188.454 282.341C188.312 282.707 188.241 283.135 188.241 283.624ZM194.565 286.896V280.351H195.537V281.339H195.605C195.724 281.016 195.94 280.753 196.253 280.551C196.565 280.349 196.918 280.249 197.31 280.249C197.383 280.249 197.476 280.25 197.587 280.253C197.697 280.256 197.781 280.26 197.838 280.266V281.288C197.804 281.28 197.726 281.267 197.604 281.25C197.484 281.23 197.358 281.22 197.224 281.22C196.906 281.22 196.622 281.287 196.372 281.42C196.125 281.551 195.929 281.733 195.784 281.966C195.642 282.196 195.571 282.459 195.571 282.754V286.896H194.565Z" fill="#788B9A"/>
<path d="M12.3304 239.213C11.6884 239.213 11.1415 239.038 10.6898 238.688C10.2381 238.336 9.89294 237.826 9.6543 237.159C9.41567 236.488 9.29635 235.678 9.29635 234.73C9.29635 233.786 9.41567 232.981 9.6543 232.313C9.89578 231.643 10.2424 231.132 10.6941 230.779C11.1486 230.424 11.6941 230.247 12.3304 230.247C12.9668 230.247 13.5108 230.424 13.9625 230.779C14.4171 231.132 14.7637 231.643 15.0023 232.313C15.2438 232.981 15.3645 233.786 15.3645 234.73C15.3645 235.678 15.2452 236.488 15.0066 237.159C14.7679 237.826 14.4228 238.336 13.9711 238.688C13.5194 239.038 12.9725 239.213 12.3304 239.213ZM12.3304 238.275C12.9668 238.275 13.4611 237.968 13.8134 237.355C14.1657 236.741 14.3418 235.866 14.3418 234.73C14.3418 233.974 14.2608 233.33 14.0989 232.799C13.9398 232.268 13.7097 231.863 13.4086 231.585C13.1103 231.306 12.7509 231.167 12.3304 231.167C11.6998 231.167 11.2069 231.478 10.8517 232.1C10.4966 232.72 10.3191 233.596 10.3191 234.73C10.3191 235.485 10.3986 236.127 10.5577 236.656C10.7168 237.184 10.9455 237.586 11.2438 237.862C11.5449 238.137 11.9071 238.275 12.3304 238.275Z" fill="#788B9A"/>
<path d="M2.21813 180.958V180.191L5.09881 177.037C5.43688 176.668 5.71529 176.347 5.93404 176.074C6.15279 175.799 6.31472 175.54 6.41984 175.299C6.52779 175.054 6.58177 174.799 6.58177 174.532C6.58177 174.225 6.5079 173.959 6.36018 173.735C6.21529 173.51 6.01643 173.337 5.76359 173.215C5.51074 173.093 5.22665 173.032 4.91131 173.032C4.57609 173.032 4.28347 173.101 4.03347 173.24C3.78631 173.377 3.59455 173.569 3.45819 173.816C3.32467 174.063 3.2579 174.353 3.2579 174.685H2.25222C2.25222 174.174 2.37012 173.725 2.60592 173.338C2.84171 172.952 3.16273 172.651 3.56898 172.435C3.97807 172.219 4.43688 172.111 4.9454 172.111C5.45677 172.111 5.90989 172.219 6.30478 172.435C6.69967 172.651 7.00932 172.942 7.23376 173.309C7.45819 173.675 7.5704 174.083 7.5704 174.532C7.5704 174.853 7.51217 175.167 7.39569 175.473C7.28205 175.777 7.08319 176.117 6.7991 176.492C6.51785 176.864 6.12722 177.319 5.62722 177.855L3.66699 179.952V180.02H7.72381V180.958H2.21813ZM12.3303 181.077C11.6883 181.077 11.1414 180.902 10.6897 180.553C10.238 180.201 9.89285 179.691 9.65421 179.023C9.41557 178.353 9.29626 177.543 9.29626 176.594C9.29626 175.651 9.41557 174.846 9.65421 174.178C9.89569 173.507 10.2423 172.996 10.694 172.644C11.1485 172.289 11.694 172.111 12.3303 172.111C12.9667 172.111 13.5107 172.289 13.9624 172.644C14.417 172.996 14.7636 173.507 15.0022 174.178C15.2437 174.846 15.3644 175.651 15.3644 176.594C15.3644 177.543 15.2451 178.353 15.0065 179.023C14.7678 179.691 14.4227 180.201 13.971 180.553C13.5193 180.902 12.9724 181.077 12.3303 181.077ZM12.3303 180.14C12.9667 180.14 13.461 179.833 13.8133 179.219C14.1656 178.605 14.3417 177.73 14.3417 176.594C14.3417 175.838 14.2607 175.195 14.0988 174.664C13.9397 174.132 13.7096 173.728 13.4085 173.449C13.1102 173.171 12.7508 173.032 12.3303 173.032C11.6997 173.032 11.2068 173.343 10.8517 173.965C10.4965 174.584 10.319 175.461 10.319 176.594C10.319 177.35 10.3985 177.992 10.5576 178.52C10.7167 179.049 10.9454 179.451 11.2437 179.726C11.5448 180.002 11.9071 180.14 12.3303 180.14Z" fill="#788B9A"/>
<path d="M1.5805 121.033V120.164L5.41573 114.096H6.04641V115.442H5.62027L2.72254 120.028V120.096H7.88732V121.033H1.5805ZM5.68845 122.823V120.769V120.364V114.096H6.69414V122.823H5.68845ZM12.3309 122.942C11.6888 122.942 11.1419 122.768 10.6902 122.418C10.2385 122.066 9.89335 121.556 9.65472 120.888C9.41608 120.218 9.29676 119.408 9.29676 118.459C9.29676 117.516 9.41608 116.711 9.65472 116.043C9.8962 115.373 10.2428 114.861 10.6945 114.509C11.149 114.154 11.6945 113.976 12.3309 113.976C12.9672 113.976 13.5113 114.154 13.963 114.509C14.4175 114.861 14.7641 115.373 15.0027 116.043C15.2442 116.711 15.3649 117.516 15.3649 118.459C15.3649 119.408 15.2456 120.218 15.007 120.888C14.7684 121.556 14.4232 122.066 13.9715 122.418C13.5198 122.768 12.9729 122.942 12.3309 122.942ZM12.3309 122.005C12.9672 122.005 13.4615 121.698 13.8138 121.084C14.1661 120.471 14.3422 119.596 14.3422 118.459C14.3422 117.704 14.2613 117.06 14.0993 116.529C13.9402 115.998 13.7101 115.593 13.409 115.314C13.1107 115.036 12.7513 114.897 12.3309 114.897C11.7002 114.897 11.2073 115.208 10.8522 115.83C10.497 116.449 10.3195 117.326 10.3195 118.459C10.3195 119.215 10.399 119.857 10.5581 120.385C10.7172 120.914 10.9459 121.316 11.2442 121.591C11.5453 121.867 11.9076 122.005 12.3309 122.005Z" fill="#788B9A"/>
<path d="M4.89323 64.8058C4.53528 64.8002 4.17732 64.732 3.81937 64.6013C3.46141 64.4706 3.13471 64.2504 2.83926 63.9408C2.5438 63.6283 2.30658 63.2064 2.12761 62.6752C1.94863 62.1411 1.85914 61.4706 1.85914 60.6638C1.85914 59.8911 1.93158 59.2064 2.07647 58.6098C2.22136 58.0104 2.43159 57.5061 2.70715 57.097C2.98272 56.6851 3.31511 56.3726 3.70431 56.1595C4.09636 55.9465 4.53812 55.8399 5.0296 55.8399C5.51823 55.8399 5.95289 55.9379 6.33357 56.134C6.7171 56.3271 7.0296 56.597 7.27107 56.9436C7.51255 57.2902 7.6688 57.6894 7.73982 58.1411H6.70005C6.60346 57.749 6.41596 57.4237 6.13755 57.1652C5.85914 56.9067 5.48982 56.7774 5.0296 56.7774C4.35346 56.7774 3.82079 57.0715 3.43159 57.6595C3.04522 58.2476 2.85062 59.0729 2.84778 60.1354H2.91596C3.07505 59.8939 3.26397 59.6879 3.48272 59.5175C3.70431 59.3442 3.94863 59.2107 4.21568 59.1169C4.48272 59.0232 4.76539 58.9763 5.06369 58.9763C5.56369 58.9763 6.02107 59.1013 6.43585 59.3513C6.85062 59.5985 7.18301 59.9408 7.43301 60.3783C7.68301 60.8129 7.80801 61.3115 7.80801 61.874C7.80801 62.4138 7.68727 62.9081 7.44579 63.357C7.20431 63.803 6.86482 64.1581 6.42732 64.4223C5.99266 64.6837 5.4813 64.8115 4.89323 64.8058ZM4.89323 63.8683C5.25119 63.8683 5.57221 63.7789 5.8563 63.5999C6.14323 63.4209 6.36909 63.1808 6.53386 62.8797C6.70147 62.5786 6.78528 62.2433 6.78528 61.874C6.78528 61.5132 6.70431 61.1851 6.54238 60.8896C6.38329 60.5914 6.16312 60.3541 5.88187 60.178C5.60346 60.0019 5.28528 59.9138 4.92732 59.9138C4.65744 59.9138 4.40602 59.9678 4.17306 60.0757C3.94011 60.1808 3.73556 60.3257 3.55943 60.5104C3.38613 60.695 3.24977 60.9067 3.15034 61.1453C3.0509 61.3811 3.00119 61.6297 3.00119 61.8911C3.00119 62.2377 3.08215 62.5615 3.24409 62.8627C3.40886 63.1638 3.63329 63.4067 3.91738 63.5914C4.20431 63.776 4.5296 63.8683 4.89323 63.8683ZM12.3304 64.8058C11.6883 64.8058 11.1415 64.6311 10.6898 64.2817C10.238 63.9294 9.89288 63.4195 9.65424 62.7519C9.4156 62.0814 9.29629 61.2718 9.29629 60.3229C9.29629 59.3797 9.4156 58.5743 9.65424 57.9067C9.89572 57.2362 10.2423 56.7249 10.694 56.3726C11.1486 56.0175 11.694 55.8399 12.3304 55.8399C12.9667 55.8399 13.5108 56.0175 13.9625 56.3726C14.417 56.7249 14.7636 57.2362 15.0023 57.9067C15.2437 58.5743 15.3645 59.3797 15.3645 60.3229C15.3645 61.2718 15.2452 62.0814 15.0065 62.7519C14.7679 63.4195 14.4227 63.9294 13.971 64.2817C13.5193 64.6311 12.9724 64.8058 12.3304 64.8058ZM12.3304 63.8683C12.9667 63.8683 13.4611 63.5615 13.8133 62.9479C14.1656 62.3343 14.3417 61.4593 14.3417 60.3229C14.3417 59.5672 14.2608 58.9237 14.0988 58.3925C13.9398 57.8612 13.7096 57.4564 13.4085 57.178C13.1102 56.8996 12.7508 56.7604 12.3304 56.7604C11.6997 56.7604 11.2068 57.0715 10.8517 57.6936C10.4966 58.3129 10.319 59.1894 10.319 60.3229C10.319 61.0786 10.3986 61.7206 10.5577 62.249C10.7167 62.7774 10.9454 63.1794 11.2437 63.455C11.5449 63.7306 11.9071 63.8683 12.3304 63.8683Z" fill="#788B9A"/>
<path d="M4.88516 12.7678C4.29993 12.7678 3.78289 12.6641 3.33402 12.4567C2.888 12.2464 2.53999 11.9581 2.28999 11.5916C2.03999 11.2223 1.91641 10.8018 1.91925 10.3303C1.91641 9.96094 1.98885 9.62003 2.13658 9.30753C2.28431 8.99219 2.48601 8.7294 2.74169 8.51918C3.00022 8.30611 3.28857 8.17116 3.60675 8.11435V8.06321C3.18914 7.95526 2.85675 7.72088 2.60959 7.36009C2.36243 6.99645 2.24027 6.5831 2.24311 6.12003C2.24027 5.67685 2.35249 5.28054 2.57976 4.93111C2.80703 4.58168 3.11953 4.30611 3.51726 4.1044C3.91783 3.9027 4.37379 3.80185 4.88516 3.80185C5.39084 3.80185 5.84254 3.9027 6.24027 4.1044C6.638 4.30611 6.9505 4.58168 7.17777 4.93111C7.40789 5.28054 7.52436 5.67685 7.5272 6.12003C7.52436 6.5831 7.39794 6.99645 7.14794 7.36009C6.90078 7.72088 6.57266 7.95526 6.16357 8.06321V8.11435C6.47891 8.17116 6.763 8.30611 7.01584 8.51918C7.26868 8.7294 7.47039 8.99219 7.62095 9.30753C7.77152 9.62003 7.84823 9.96094 7.85107 10.3303C7.84823 10.8018 7.72039 11.2223 7.46754 11.5916C7.21754 11.9581 6.86953 12.2464 6.42351 12.4567C5.98033 12.6641 5.46754 12.7678 4.88516 12.7678ZM4.88516 11.8303C5.28004 11.8303 5.62095 11.7663 5.90789 11.6385C6.19482 11.5107 6.41641 11.3303 6.57266 11.0973C6.72891 10.8643 6.80845 10.5916 6.81129 10.2791C6.80845 9.94957 6.72323 9.65838 6.55561 9.40554C6.388 9.1527 6.15931 8.95384 5.86953 8.80895C5.5826 8.66406 5.25448 8.59162 4.88516 8.59162C4.513 8.59162 4.18061 8.66406 3.888 8.80895C3.59823 8.95384 3.36953 9.1527 3.20192 9.40554C3.03715 9.65838 2.95618 9.94957 2.95902 10.2791C2.95618 10.5916 3.03146 10.8643 3.18487 11.0973C3.34112 11.3303 3.56414 11.5107 3.85391 11.6385C4.14368 11.7663 4.48743 11.8303 4.88516 11.8303ZM4.88516 7.68821C5.19766 7.68821 5.47465 7.62571 5.71612 7.50071C5.96044 7.37571 6.1522 7.20099 6.29141 6.97656C6.43061 6.75213 6.50164 6.48935 6.50448 6.18821C6.50164 5.89276 6.43203 5.63565 6.29567 5.4169C6.15931 5.19531 5.97039 5.02486 5.72891 4.90554C5.48743 4.78338 5.20618 4.7223 4.88516 4.7223C4.55845 4.7223 4.27294 4.78338 4.02862 4.90554C3.78431 5.02486 3.59539 5.19531 3.46186 5.4169C3.32834 5.63565 3.263 5.89276 3.26584 6.18821C3.263 6.48935 3.32976 6.75213 3.46612 6.97656C3.60533 7.20099 3.79709 7.37571 4.04141 7.50071C4.28573 7.62571 4.56698 7.68821 4.88516 7.68821ZM12.3308 12.7678C11.6888 12.7678 11.1419 12.593 10.6902 12.2436C10.2385 11.8913 9.89333 11.3814 9.65469 10.7138C9.41605 10.0433 9.29673 9.23366 9.29673 8.2848C9.29673 7.34162 9.41605 6.53622 9.65469 5.86861C9.89617 5.19815 10.2428 4.68679 10.6945 4.33452C11.149 3.9794 11.6945 3.80185 12.3308 3.80185C12.9672 3.80185 13.5112 3.9794 13.9629 4.33452C14.4175 4.68679 14.7641 5.19815 15.0027 5.86861C15.2442 6.53622 15.3649 7.34162 15.3649 8.2848C15.3649 9.23366 15.2456 10.0433 15.007 10.7138C14.7683 11.3814 14.4232 11.8913 13.9715 12.2436C13.5197 12.593 12.9729 12.7678 12.3308 12.7678ZM12.3308 11.8303C12.9672 11.8303 13.4615 11.5234 13.8138 10.9098C14.1661 10.2962 14.3422 9.42116 14.3422 8.2848C14.3422 7.52912 14.2612 6.88565 14.0993 6.3544C13.9402 5.82315 13.7101 5.41832 13.409 5.13991C13.1107 4.86151 12.7513 4.7223 12.3308 4.7223C11.7001 4.7223 11.2072 5.03338 10.8521 5.65554C10.497 6.27486 10.3195 7.15128 10.3195 8.2848C10.3195 9.04048 10.399 9.68253 10.5581 10.2109C10.7172 10.7393 10.9459 11.1413 11.2442 11.4169C11.5453 11.6925 11.9075 11.8303 12.3308 11.8303Z" fill="#788B9A"/>
<path d="M26.8813 96.8159C26.8813 92.3976 30.4631 88.8159 34.8813 88.8159H56.46C60.8783 88.8159 64.46 92.3976 64.46 96.8159V245.796C64.46 250.214 60.8783 253.796 56.46 253.796H34.8814C30.4631 253.796 26.8813 250.214 26.8813 245.796V96.8159Z" fill="#3A36DB"/>
<path d="M74.0913 72.8564C74.0913 68.4382 77.673 64.8564 82.0913 64.8564H103.67C108.088 64.8564 111.67 68.4382 111.67 72.8564V245.796C111.67 250.215 108.088 253.796 103.67 253.796H82.0913C77.673 253.796 74.0913 250.215 74.0913 245.796V72.8564Z" fill="#3A36DB"/>
<path d="M121.301 220.677C121.301 216.258 124.883 212.677 129.301 212.677H150.88C155.298 212.677 158.88 216.258 158.88 220.677V245.798C158.88 250.216 155.298 253.798 150.88 253.798H129.301C124.883 253.798 121.301 250.216 121.301 245.798V220.677Z" fill="#E7535D"/>
<path d="M168.511 186.22C168.511 181.802 172.093 178.22 176.511 178.22H198.09C202.508 178.22 206.09 181.802 206.09 186.22V245.796C206.09 250.215 202.508 253.796 198.09 253.796H176.511C172.093 253.796 168.511 250.215 168.511 245.796V186.22Z" fill="#3A36DB"/>
<path d="M279.762 278.36H280.819V284.599C280.819 285.155 280.717 285.628 280.512 286.018C280.307 286.407 280.019 286.702 279.647 286.904C279.275 287.106 278.836 287.206 278.33 287.206C277.853 287.206 277.428 287.12 277.056 286.947C276.684 286.77 276.391 286.52 276.178 286.197C275.965 285.873 275.859 285.488 275.859 285.042H276.898C276.898 285.289 276.959 285.505 277.082 285.689C277.207 285.871 277.377 286.013 277.593 286.116C277.809 286.218 278.055 286.269 278.33 286.269C278.634 286.269 278.893 286.205 279.106 286.077C279.319 285.949 279.481 285.762 279.592 285.515C279.705 285.265 279.762 284.959 279.762 284.599V278.36ZM286.925 284.411V280.542H287.931V287.087H286.925V285.979H286.857C286.704 286.312 286.465 286.594 286.141 286.827C285.817 287.057 285.408 287.172 284.914 287.172C284.505 287.172 284.141 287.083 283.823 286.904C283.505 286.722 283.255 286.449 283.073 286.086C282.891 285.719 282.8 285.258 282.8 284.701V280.542H283.806V284.633C283.806 285.11 283.94 285.491 284.207 285.775C284.476 286.059 284.82 286.201 285.238 286.201C285.488 286.201 285.742 286.137 286.001 286.009C286.262 285.881 286.481 285.685 286.657 285.421C286.836 285.157 286.925 284.82 286.925 284.411ZM290.779 283.15V287.087H289.773V280.542H290.745V281.564H290.83C290.983 281.232 291.216 280.965 291.529 280.763C291.841 280.559 292.245 280.456 292.739 280.456C293.182 280.456 293.57 280.547 293.902 280.729C294.235 280.908 294.493 281.181 294.678 281.547C294.862 281.911 294.955 282.371 294.955 282.928V287.087H293.949V282.996C293.949 282.482 293.816 282.081 293.549 281.795C293.282 281.505 292.915 281.36 292.449 281.36C292.128 281.36 291.841 281.429 291.588 281.569C291.338 281.708 291.141 281.911 290.996 282.178C290.851 282.445 290.779 282.769 290.779 283.15ZM299.537 287.224C298.906 287.224 298.362 287.084 297.905 286.806C297.45 286.525 297.099 286.133 296.852 285.63C296.608 285.124 296.486 284.536 296.486 283.866C296.486 283.195 296.608 282.604 296.852 282.093C297.099 281.579 297.443 281.178 297.883 280.891C298.327 280.601 298.844 280.456 299.435 280.456C299.775 280.456 300.112 280.513 300.445 280.627C300.777 280.741 301.079 280.925 301.352 281.181C301.625 281.434 301.842 281.769 302.004 282.187C302.166 282.604 302.247 283.118 302.247 283.729V284.155H297.202V283.286H301.224C301.224 282.917 301.15 282.587 301.003 282.297C300.858 282.008 300.65 281.779 300.381 281.611C300.114 281.444 299.798 281.36 299.435 281.36C299.034 281.36 298.687 281.459 298.395 281.658C298.105 281.854 297.882 282.11 297.726 282.425C297.57 282.741 297.491 283.079 297.491 283.439V284.019C297.491 284.513 297.577 284.932 297.747 285.276C297.92 285.617 298.16 285.877 298.467 286.056C298.774 286.232 299.131 286.32 299.537 286.32C299.801 286.32 300.04 286.283 300.253 286.209C300.469 286.133 300.655 286.019 300.811 285.868C300.967 285.715 301.088 285.525 301.173 285.297L302.145 285.57C302.043 285.9 301.871 286.189 301.629 286.439C301.388 286.687 301.089 286.88 300.734 287.019C300.379 287.155 299.98 287.224 299.537 287.224Z" fill="#788B9A"/>
<path d="M269.482 127.595C269.482 123.177 273.064 119.595 277.482 119.595H299.061C303.479 119.595 307.061 123.177 307.061 127.595V245.796C307.061 250.215 303.479 253.796 299.061 253.796H277.482C273.064 253.796 269.482 250.215 269.482 245.796V127.595Z" fill="#3A36DB"/>
<path d="M227.226 278.36H228.487L231.453 285.604H231.555L234.521 278.36H235.783V287.087H234.794V280.456H234.709L231.981 287.087H231.027L228.3 280.456H228.214V287.087H227.226V278.36ZM239.691 287.241C239.277 287.241 238.9 287.162 238.562 287.006C238.224 286.847 237.956 286.618 237.757 286.32C237.558 286.019 237.458 285.655 237.458 285.229C237.458 284.854 237.532 284.55 237.68 284.317C237.828 284.081 238.025 283.897 238.272 283.763C238.519 283.63 238.792 283.53 239.09 283.465C239.392 283.397 239.694 283.343 239.998 283.303C240.396 283.252 240.718 283.214 240.965 283.188C241.215 283.16 241.397 283.113 241.511 283.047C241.627 282.982 241.686 282.868 241.686 282.706V282.672C241.686 282.252 241.571 281.925 241.34 281.692C241.113 281.459 240.768 281.343 240.305 281.343C239.825 281.343 239.448 281.448 239.176 281.658C238.903 281.868 238.711 282.093 238.6 282.331L237.646 281.991C237.816 281.593 238.044 281.283 238.328 281.062C238.615 280.837 238.927 280.681 239.265 280.593C239.606 280.502 239.941 280.456 240.271 280.456C240.481 280.456 240.723 280.482 240.995 280.533C241.271 280.581 241.536 280.682 241.792 280.836C242.051 280.989 242.265 281.221 242.436 281.53C242.606 281.84 242.691 282.255 242.691 282.775V287.087H241.686V286.201H241.634C241.566 286.343 241.453 286.495 241.294 286.657C241.134 286.819 240.923 286.956 240.659 287.07C240.394 287.184 240.072 287.241 239.691 287.241ZM239.845 286.337C240.242 286.337 240.578 286.259 240.85 286.103C241.126 285.947 241.333 285.745 241.473 285.498C241.615 285.251 241.686 284.991 241.686 284.718V283.797C241.643 283.849 241.549 283.895 241.404 283.938C241.262 283.978 241.098 284.013 240.91 284.045C240.725 284.073 240.545 284.099 240.369 284.121C240.196 284.141 240.055 284.158 239.947 284.172C239.686 284.206 239.441 284.262 239.214 284.339C238.99 284.412 238.808 284.525 238.669 284.675C238.532 284.823 238.464 285.025 238.464 285.28C238.464 285.63 238.593 285.894 238.852 286.073C239.113 286.249 239.444 286.337 239.845 286.337ZM244.94 289.542C244.77 289.542 244.618 289.527 244.484 289.499C244.351 289.474 244.258 289.448 244.207 289.422L244.463 288.536C244.707 288.599 244.923 288.621 245.111 288.604C245.298 288.587 245.464 288.503 245.609 288.353C245.757 288.205 245.892 287.965 246.014 287.633L246.202 287.121L243.781 280.542H244.872L246.679 285.758H246.747L248.554 280.542H249.645L246.866 288.042C246.741 288.38 246.587 288.66 246.402 288.881C246.217 289.106 246.003 289.272 245.758 289.38C245.517 289.488 245.244 289.542 244.94 289.542Z" fill="#788B9A"/>
<path d="M218.131 151.501C218.131 147.083 221.713 143.501 226.131 143.501H247.71C252.128 143.501 255.71 147.083 255.71 151.501V245.796C255.71 250.214 252.128 253.796 247.71 253.796H226.131C221.713 253.796 218.131 250.214 218.131 245.796V151.501Z" fill="#3A36DB"/>
</svg>
