<svg width="46" height="46" viewBox="0 0 46 46" fill="none" xmlns="http://www.w3.org/2000/svg">
<rect width="46" height="46" rx="23" fill="#34BD32"/>
<path d="M32.0218 17.8115C32.7712 18.561 32.7712 19.7724 32.0218 20.5218L22.4385 30.1052C22.0647 30.4789 21.574 30.6667 21.0834 30.6667C20.5927 30.6667 20.102 30.4789 19.7283 30.1052L13.9783 24.3552C13.2289 23.6057 13.2289 22.3943 13.9783 21.6449C14.7277 20.8955 15.939 20.8955 16.6885 21.6449L21.0834 26.04L29.3116 17.8115C30.061 17.0621 31.2724 17.0621 32.0218 17.8115ZM42.1667 23C42.1667 33.5685 33.5685 42.1667 23 42.1667C12.4315 42.1667 3.83337 33.5685 3.83337 23C3.83337 12.4315 12.4315 3.83334 23 3.83334C33.5685 3.83334 42.1667 12.4315 42.1667 23ZM38.3334 23C38.3334 14.5456 31.4545 7.66668 23 7.66668C14.5456 7.66668 7.66671 14.5456 7.66671 23C7.66671 31.4544 14.5456 38.3333 23 38.3333C31.4545 38.3333 38.3334 31.4544 38.3334 23Z" fill="#F0ECEC" fill-opacity="0.7"/>
</svg>
