<svg width="90" height="91" viewBox="0 0 90 91" fill="none" xmlns="http://www.w3.org/2000/svg">
<path d="M45 0.610352C20.1472 0.610352 0 20.7575 0 45.6104C0 70.4632 20.1472 90.6104 45 90.6104C69.8528 90.6104 90 70.4632 90 45.6104C90 20.7575 69.8528 0.610352 45 0.610352Z" fill="#6495ED"/>
<path fill-rule="evenodd" clip-rule="evenodd" d="M64.678 28.3948C66.4195 29.9427 66.5759 32.6092 65.0284 34.3507L42.5282 59.6633C41.7563 60.5318 40.6604 61.0431 39.499 61.0774C38.3376 61.1117 37.2135 60.6651 36.3919 59.8433L25.1419 48.5935C23.4944 46.946 23.4944 44.2748 25.1419 42.6273C26.7894 40.9797 29.4606 40.9797 31.1082 42.6273L39.1944 50.7136L58.7217 28.7451C60.2697 27.0037 62.9365 26.8468 64.678 28.3948Z" fill="white"/>
</svg>
