<svg width="20" height="20" viewBox="0 0 20 20" fill="none" xmlns="http://www.w3.org/2000/svg">
<path d="M19.0781 8.0415H18.3022V8H9.63272V12H15.0766C14.2824 14.3285 12.1483 16 9.63272 16C6.44092 16 3.85309 13.3135 3.85309 10C3.85309 6.6865 6.44092 4 9.63272 4C11.106 4 12.4464 4.577 13.467 5.5195L16.1916 2.691C14.4712 1.0265 12.17 0 9.63272 0C4.31305 0 0 4.4775 0 10C0 15.5225 4.31305 20 9.63272 20C14.9524 20 19.2654 15.5225 19.2654 10C19.2654 9.3295 19.199 8.675 19.0781 8.0415Z" fill="#FFC107"/>
<path d="M1.11072 5.3455L4.27555 7.755C5.1319 5.554 7.20582 4 9.63278 4C11.1061 4 12.4465 4.577 13.4671 5.5195L16.1917 2.691C14.4713 1.0265 12.17 0 9.63278 0C5.93286 0 2.7242 2.1685 1.11072 5.3455Z" fill="#FF3D00"/>
<path d="M9.63275 20C12.1209 20 14.3817 19.0115 16.091 17.404L13.1097 14.785C12.1426 15.5455 10.9404 16 9.63275 16C7.12728 16 4.99989 14.3415 4.19845 12.027L1.05722 14.5395C2.65144 17.778 5.88899 20 9.63275 20Z" fill="#4CAF50"/>
<path d="M19.0781 8.0415H18.3022V8H9.63272V12H15.0767C14.6952 13.1185 14.0021 14.083 13.1082 14.7855C13.1087 14.785 13.1092 14.785 13.1097 14.7845L16.091 17.4035C15.88 17.6025 19.2654 15 19.2654 10C19.2654 9.3295 19.199 8.675 19.0781 8.0415Z" fill="#1976D2"/>
</svg>
