<svg width="144" height="161" viewBox="0 0 144 161" fill="none" xmlns="http://www.w3.org/2000/svg">
<path d="M71.8067 149.342C111.259 149.342 143.241 117.135 143.241 77.4051C143.241 37.6755 111.259 5.46826 71.8067 5.46826C32.3546 5.46826 0.372314 37.6755 0.372314 77.4051C0.372314 117.135 32.3546 149.342 71.8067 149.342Z" fill="white"/>
<path d="M71.8066 149.687C57.6104 149.687 43.7331 145.447 31.9294 137.505C20.1257 129.562 10.9259 118.274 5.49327 105.066C0.0606407 91.858 -1.36078 77.3245 1.40875 63.3032C4.17828 49.2819 11.0144 36.4025 21.0526 26.2937C31.0908 16.1849 43.8802 9.30072 57.8036 6.51171C71.7269 3.7227 86.1589 5.15412 99.2744 10.625C112.39 16.0958 123.6 25.3604 131.487 37.2471C139.374 49.1337 143.584 63.1087 143.584 77.4047C143.562 96.5683 135.993 114.941 122.537 128.492C109.08 142.042 90.8363 149.665 71.8066 149.687ZM71.8066 5.81288C57.7459 5.81288 44.0011 10.0117 32.3101 17.8783C20.6191 25.7449 11.5071 36.926 6.12634 50.0077C0.745567 63.0894 -0.662285 77.4841 2.08081 91.3716C4.8239 105.259 11.5947 118.015 21.5371 128.028C31.4795 138.04 44.1468 144.859 57.9373 147.621C71.7277 150.383 86.0219 148.966 99.0122 143.547C112.003 138.128 123.106 128.952 130.917 117.179C138.729 105.406 142.898 91.5642 142.898 77.4047C142.878 58.4235 135.382 40.2255 122.054 26.8038C108.726 13.3821 90.6552 5.83297 71.8066 5.81288Z" fill="#D1D3D4"/>
<path d="M130.523 133.257C130.523 133.257 123.095 115.599 121.143 108.698C119.946 103.988 119.452 99.1257 119.676 94.2695L114.4 67.1715C114.4 67.1715 77.2884 47.9677 66.3248 41.295C55.3613 34.6222 42.1022 24.2716 38.2307 26.5695C34.3592 28.8673 35.0307 33.9322 39.6012 38.9902C41.4787 41.0603 44.0208 43.234 45.5763 45.5111C46.8439 47.3604 48.4337 53.1913 46.9056 55.2614C45.0829 57.7387 40.2247 50.0378 37.6894 52.5012C36.3532 53.7847 36.0585 58.3459 38.7515 62.2998C40.2117 64.143 41.8506 65.835 43.644 67.3509C47.3442 70.5734 48.1322 73.0645 51.0649 76.9494C54.0799 80.9448 51.7913 74.9897 51.5514 79.5923C51.2636 85.1816 50.4893 91.8543 52.0585 97.3263C54.5732 106.069 69.3124 116.882 75.7055 122.402C82.0986 127.923 78.8781 146.795 78.8781 146.795L130.523 133.257Z" fill="white"/>
<path d="M78.8645 147.099C78.8148 147.098 78.7659 147.086 78.7212 147.064C78.6764 147.042 78.6368 147.011 78.605 146.972C78.5732 146.934 78.55 146.889 78.5368 146.84C78.5237 146.792 78.5209 146.741 78.5287 146.692C78.563 146.506 81.6465 127.957 75.4727 122.623C74.4243 121.719 73.1223 120.65 71.7382 119.518C64.6187 113.653 53.8471 104.793 51.716 97.3816C50.3456 92.7031 50.7293 87.1206 51.0308 82.2006C51.0925 81.2898 51.1473 80.3996 51.1884 79.5371C51.1984 79.0004 51.2862 78.4681 51.4488 77.9569C51.2569 77.7361 51.0308 77.4601 50.7636 77.1219C49.77 75.7971 49.0368 74.6654 48.3242 73.5613C47.0029 71.3158 45.3378 69.2944 43.3906 67.5718C43.0274 67.2474 39.7726 64.3907 38.4433 62.4516C35.6202 58.3114 35.9559 53.626 37.4291 52.2114C38.9024 50.7968 41.0471 52.3287 42.9109 53.7088C43.6299 54.2994 44.4111 54.8085 45.2407 55.2269C46.0698 55.5788 46.4055 55.3304 46.6111 55.0406C47.9816 53.1637 46.5426 47.5467 45.2407 45.6905C44.0961 44.1519 42.8189 42.718 41.424 41.4054C40.6634 40.6463 39.9508 39.9287 39.2929 39.2041C36.3602 35.9609 34.9692 32.7039 35.3666 30.0473C35.4894 29.2538 35.791 28.4992 36.2483 27.8413C36.7056 27.1834 37.3064 26.6398 38.0047 26.2521C41.0951 24.4234 48.9066 29.5643 57.9515 35.5193C60.7815 37.3824 63.7006 39.3076 66.4551 40.9775C77.2816 47.5674 114.16 66.654 114.53 66.8403C114.576 66.864 114.617 66.8981 114.648 66.94C114.678 66.9819 114.699 67.0305 114.708 67.0818L119.985 94.1798C119.988 94.2096 119.988 94.2397 119.985 94.2695C119.767 99.086 120.256 103.908 121.437 108.581C123.349 115.385 130.715 132.926 130.791 133.098C130.811 133.144 130.822 133.193 130.822 133.243C130.822 133.293 130.811 133.342 130.791 133.388C130.767 133.432 130.734 133.47 130.696 133.501C130.657 133.532 130.612 133.554 130.564 133.567L78.9536 147.099H78.8645ZM52.0107 78.502C51.9371 78.8542 51.8936 79.212 51.8805 79.5716C51.8394 80.441 51.7777 81.3312 51.7229 82.242C51.4145 87.1068 51.0376 92.6272 52.3738 97.1883C54.4295 104.392 65.1121 113.17 72.1767 118.98C73.5472 120.118 74.8628 121.195 75.9181 122.099C81.8589 127.233 79.769 143.124 79.2893 146.25L130.051 133.022C128.975 130.448 122.595 115.081 120.827 108.788C118.971 102.191 119.313 94.9388 119.347 94.2971L114.112 67.3854C111.536 66.0537 76.6444 47.9677 66.1468 41.5779C63.4059 39.9011 60.4595 37.969 57.6226 36.1059C49.5096 30.7649 41.1225 25.2446 38.4364 26.8524C37.8219 27.1834 37.2929 27.6548 36.8919 28.2288C36.4909 28.8028 36.229 29.4634 36.1272 30.1577C35.764 32.5728 37.1345 35.678 39.8822 38.7487C40.5263 39.4388 41.2527 40.1702 41.9859 40.9223C43.413 42.2626 44.7179 43.729 45.8848 45.3041C47.1524 47.1534 48.8929 53.1706 47.2073 55.4615C46.7071 56.1516 45.9739 56.2758 45.0145 55.8687C44.1367 55.43 43.3095 54.8955 42.5478 54.2747C40.8278 52.9912 39.0531 51.6663 37.9568 52.7152C36.8604 53.764 36.4013 58.1665 39.0668 62.0652C40.4995 63.8825 42.1061 65.5535 43.8634 67.0542C45.8628 68.8192 47.5719 70.892 48.9272 73.1956C49.6124 74.2859 50.3593 75.4106 51.3391 76.7079C51.5653 77.0046 51.7503 77.2392 51.9079 77.398C51.9651 77.3746 52.0249 77.3584 52.086 77.3496C52.2817 77.352 52.4707 77.4217 52.6216 77.5473C52.7724 77.6728 52.876 77.8466 52.9152 78.0397C52.9659 78.1515 52.9737 78.2783 52.937 78.3956C52.9003 78.5128 52.8217 78.6122 52.7164 78.6745C52.5314 78.7849 52.3259 78.7849 52.0107 78.5227V78.502Z" fill="#231F20"/>
<path d="M46.145 111.679H94.1174C96.0512 111.679 97.6189 110.101 97.6189 108.153V4.85384C97.6189 2.90642 96.0512 1.32772 94.1174 1.32772H46.145C44.2112 1.32772 42.6436 2.90642 42.6436 4.85384V108.153C42.6436 110.101 44.2112 111.679 46.145 111.679Z" fill="white"/>
<path d="M94.1175 112.024H46.152C45.1318 112.022 44.1541 111.613 43.4334 110.886C42.7126 110.159 42.3079 109.174 42.3079 108.146V4.85386C42.3079 3.82654 42.7126 2.84119 43.4334 2.11412C44.1541 1.38704 45.1318 0.977658 46.152 0.97583H94.1175C95.1388 0.97583 96.1183 1.38441 96.8405 2.11168C97.5627 2.83895 97.9684 3.82535 97.9684 4.85386V108.146C97.9684 109.175 97.5627 110.161 96.8405 110.888C96.1183 111.616 95.1388 112.024 94.1175 112.024ZM46.152 1.66587C45.3195 1.67676 44.5248 2.01744 43.94 2.61412C43.3552 3.21081 43.0273 4.01548 43.0273 4.85386V108.146C43.0273 108.991 43.3599 109.8 43.9521 110.398C44.5443 110.996 45.3478 111.332 46.1862 111.334H94.1517C94.9914 111.334 95.7966 110.998 96.3903 110.4C96.9839 109.803 97.3175 108.992 97.3175 108.146V4.85386C97.3175 4.00836 96.9839 3.19748 96.3903 2.59961C95.7966 2.00175 94.9914 1.66587 94.1517 1.66587H46.152Z" fill="#231F20"/>
<path d="M94.6243 96.2361H45.4254V11.3058H94.6243V96.2361Z" fill="#6495ED"/>
<path d="M74.2458 108.657H64.8856C64.2235 108.655 63.5891 108.389 63.1215 107.917C62.654 107.444 62.3914 106.805 62.3914 106.138V102.536C62.3914 101.869 62.654 101.23 63.1215 100.757C63.5891 100.285 64.2235 100.019 64.8856 100.017H74.2458C74.9079 100.019 75.5423 100.285 76.0098 100.757C76.4774 101.23 76.74 101.869 76.74 102.536V106.138C76.74 106.805 76.4774 107.444 76.0098 107.917C75.5423 108.389 74.9079 108.655 74.2458 108.657ZM64.8856 100.707C64.4052 100.709 63.9451 100.903 63.6061 101.245C63.267 101.588 63.0766 102.052 63.0766 102.536V106.138C63.0766 106.622 63.267 107.086 63.6061 107.429C63.9451 107.771 64.4052 107.965 64.8856 107.967H74.2458C74.7262 107.965 75.1863 107.771 75.5253 107.429C75.8644 107.086 76.0547 106.622 76.0547 106.138V102.536C76.0547 102.052 75.8644 101.588 75.5253 101.245C75.1863 100.903 74.7262 100.709 74.2458 100.707H64.8856Z" fill="#D1D3D4"/>
<path d="M80.0294 6.62046H66.0371C65.9463 6.62046 65.8591 6.58411 65.7949 6.51941C65.7306 6.4547 65.6945 6.36695 65.6945 6.27544C65.6945 6.18394 65.7306 6.09618 65.7949 6.03148C65.8591 5.96677 65.9463 5.93042 66.0371 5.93042H80.0294C80.1202 5.93042 80.2074 5.96677 80.2716 6.03148C80.3359 6.09618 80.372 6.18394 80.372 6.27544C80.372 6.36695 80.3359 6.4547 80.2716 6.51941C80.2074 6.58411 80.1202 6.62046 80.0294 6.62046Z" fill="#D1D3D4"/>
<path d="M64.0704 6.44785H62.2135C62.1226 6.44785 62.0355 6.4115 61.9712 6.3468C61.907 6.2821 61.8708 6.19434 61.8708 6.10283C61.8708 6.01133 61.907 5.92357 61.9712 5.85887C62.0355 5.79417 62.1226 5.75781 62.2135 5.75781H64.091C64.1818 5.75781 64.269 5.79417 64.3332 5.85887C64.3975 5.92357 64.4336 6.01133 64.4336 6.10283C64.4337 6.14994 64.4242 6.19656 64.4057 6.23983C64.3872 6.2831 64.3601 6.3221 64.3261 6.35442C64.2921 6.38675 64.2518 6.41171 64.2078 6.42778C64.1639 6.44385 64.1171 6.45068 64.0704 6.44785Z" fill="#D1D3D4"/>
<path d="M52.5657 57.3937C52.6026 58.3662 52.347 59.3274 51.8322 60.1511C51.3175 60.9749 50.5676 61.6228 49.6809 62.01C47.4863 62.9926 45.0072 63.118 42.7259 62.362C41.4208 61.9385 40.2087 61.2662 39.1559 60.3815C37.3469 58.8428 36.2916 56.7795 36.5246 54.8612C36.9083 51.7353 40.9512 49.7825 45.1036 50.2517C48.982 50.6865 52.3395 54.6335 52.5657 57.3937Z" fill="white"/>
<path d="M45.8505 63.1695C44.756 63.1687 43.6679 63.0012 42.6231 62.6726C41.2736 62.2275 40.022 61.5246 38.9366 60.6025C36.97 58.9326 35.9422 56.759 36.1957 54.7855C36.6 51.5699 40.6154 49.3686 45.1584 49.8793C49.1533 50.3347 52.6959 54.3231 52.922 57.3248C52.9684 58.3656 52.6997 59.396 52.1515 60.2796C51.6033 61.1632 50.8015 61.8581 49.8522 62.2724C48.6045 62.8771 47.2351 63.1841 45.8505 63.1695ZM43.8702 50.4934C40.2591 50.4934 37.1756 52.3427 36.8673 54.8683C36.648 56.6003 37.5936 58.5462 39.382 60.0643C40.3882 60.9236 41.5523 61.5754 42.8081 61.9826C45.0044 62.7206 47.3957 62.6024 49.5096 61.6514C50.3354 61.2961 51.0349 60.6971 51.5156 59.9333C51.9964 59.1695 52.2359 58.2768 52.2025 57.3731C51.997 54.9304 48.9066 50.9971 45.042 50.5624C44.6531 50.5164 44.2618 50.4933 43.8702 50.4934Z" fill="#231F20"/>
<path d="M51.8528 71.3118C52.2462 71.8728 52.5074 72.5168 52.6167 73.1947C52.7259 73.8727 52.6803 74.5668 52.4832 75.2243C52.1716 76.001 51.6807 76.6917 51.0511 77.2392C49.4066 78.8056 47.1522 79.9166 44.8841 79.5785C43.5083 79.2963 42.2147 78.7016 41.1017 77.8396C39.1214 76.4595 37.2165 74.7206 36.5587 72.3951C35.6062 69.0277 38.0319 64.1146 41.9582 64.5908C45.2062 64.9841 50.1329 68.6275 51.8528 71.3118Z" fill="white"/>
<path d="M45.727 79.9856C45.4355 79.9869 45.1444 79.9638 44.8567 79.9166C43.4405 79.6161 42.1115 78.9929 40.9715 78.0948C38.354 76.2869 36.8602 74.4928 36.2915 72.4641C36.0241 71.3411 36.0219 70.1706 36.2849 69.0466C36.5479 67.9226 37.0688 66.8762 37.8058 65.9915C38.3057 65.3547 38.9593 64.8573 39.7041 64.5469C40.449 64.2365 41.2604 64.1233 42.061 64.2181C45.4049 64.639 50.4139 68.3584 52.1749 71.1185C52.6025 71.7213 52.8867 72.4151 53.0055 73.1462C53.1244 73.8772 53.0746 74.6261 52.8601 75.3347C52.5304 76.1602 52.0115 76.8956 51.3458 77.4807C49.8601 79.009 47.8492 79.9054 45.727 79.9856ZM41.4512 64.9012C40.8423 64.9105 40.2431 65.0558 39.6968 65.3267C39.1505 65.5975 38.6708 65.9873 38.2923 66.4676C37.6274 67.2641 37.157 68.2065 36.919 69.2191C36.681 70.2317 36.682 71.2863 36.9219 72.2985C37.4495 74.1685 38.8542 75.8384 41.3347 77.5566C42.4042 78.3856 43.6455 78.9612 44.9664 79.2403C46.885 79.5232 49.0229 78.7021 50.825 76.9839C51.4245 76.4777 51.8944 75.8341 52.1955 75.107C52.3773 74.4996 52.4181 73.8583 52.3147 73.2326C52.2113 72.6069 51.9666 72.0134 51.5993 71.498C49.9548 68.9311 45.0897 65.3222 42.0062 64.9288C41.8221 64.9066 41.6366 64.8974 41.4512 64.9012Z" fill="#231F20"/>
<path d="M49.9137 82.1386C50.6758 82.6704 51.3141 83.3626 51.7843 84.1673C52.2451 85.1039 52.4325 86.1529 52.3245 87.1925C52.2165 88.232 51.8177 89.2193 51.1745 90.0396C50.5145 90.844 49.7019 91.5079 48.7842 91.9925C47.8665 92.4771 46.8621 92.7726 45.8297 92.8618C44.6125 93.0105 43.3778 92.8986 42.2064 92.5336C41.035 92.1685 39.9534 91.5585 39.0323 90.7434C38.1254 89.9118 37.4494 88.8564 37.0709 87.6815C36.6924 86.5065 36.6245 85.2525 36.8739 84.0431C38.3745 77.7085 45.9942 79.268 49.9137 82.1386Z" fill="white"/>
<path d="M44.8293 93.2759C42.6104 93.2991 40.4618 92.4927 38.7993 91.0125C37.8455 90.1414 37.1349 89.0339 36.7382 87.8002C36.3414 86.5666 36.2725 85.2498 36.5381 83.981C36.7149 83.028 37.1325 82.1369 37.7505 81.3936C38.3686 80.6503 39.1664 80.0799 40.067 79.7372C43.1711 78.5849 47.4674 79.9373 50.1124 81.8764C50.9185 82.4345 51.5923 83.1649 52.0858 84.0155C52.573 85.0119 52.7711 86.1266 52.6571 87.2314C52.5432 88.3361 52.1219 89.3861 51.4417 90.2604C50.7568 91.1054 49.91 91.803 48.9517 92.3116C47.9935 92.8202 46.9434 93.1293 45.864 93.2207C45.5214 93.2759 45.1719 93.2759 44.8293 93.2759ZM42.6434 79.9926C41.8482 79.9838 41.0575 80.1146 40.3068 80.379C39.5095 80.6801 38.8039 81.1853 38.2596 81.8448C37.7152 82.5043 37.351 83.2952 37.2028 84.1397C36.9639 85.2886 37.028 86.4805 37.3886 87.5967C37.7493 88.7129 38.3939 89.7145 39.2584 90.5019C40.1416 91.2801 41.178 91.8618 42.2997 92.209C43.4214 92.5562 44.6033 92.6611 45.768 92.5168C46.7555 92.4353 47.7167 92.1551 48.5947 91.6929C49.4728 91.2306 50.2498 90.5957 50.8798 89.8256C51.4875 89.0562 51.8651 88.1284 51.9682 87.1508C52.0714 86.1731 51.8959 85.1861 51.4622 84.3053C51.0203 83.5445 50.4166 82.8918 49.6944 82.3939C47.6328 80.9047 45.1791 80.0643 42.6434 79.9787V79.9926Z" fill="#231F20"/>
<path d="M126.878 118.262L121.821 107.477L73.3755 124.376L76.5207 136.141L126.878 118.262Z" fill="#6495ED"/>
<path d="M72.9509 131.573L126.398 114.087L141.638 142.455L82.1809 160.637L72.9509 131.573Z" fill="#231F20"/>
<path d="M82.1808 160.976C82.1084 160.977 82.0375 160.955 81.9784 160.913C81.9193 160.87 81.875 160.81 81.8519 160.741L72.6288 131.677C72.615 131.634 72.6097 131.589 72.6133 131.545C72.6168 131.5 72.6292 131.457 72.6496 131.417C72.67 131.377 72.698 131.342 72.7321 131.313C72.7662 131.284 72.8056 131.262 72.8481 131.249L126.295 113.763C126.37 113.736 126.453 113.737 126.527 113.766C126.602 113.795 126.663 113.851 126.7 113.922L141.939 142.269C141.964 142.314 141.978 142.364 141.98 142.415C141.983 142.466 141.974 142.517 141.954 142.564C141.935 142.611 141.904 142.653 141.866 142.687C141.828 142.721 141.782 142.745 141.733 142.759L82.2767 160.941C82.2479 160.96 82.215 160.972 82.1808 160.976ZM73.3825 131.794L82.4001 160.21L141.137 142.269L126.234 114.522L73.3825 131.794Z" fill="#231F20"/>
<path d="M119.69 95.9121C119.69 95.9121 119.347 66.3231 115.921 60.4508C112.495 54.5786 101.682 29.9096 98.7906 29.7371C95.899 29.5646 92.9114 38.4799 95.481 46.4223C96.9716 51.1024 99.1671 55.5242 101.991 59.5331C101.991 59.5331 94.5011 66.0954 100.154 87.8593" fill="white"/>
<path d="M119.69 96.2567C119.6 96.2567 119.514 96.2213 119.45 96.1581C119.386 96.0949 119.349 96.0089 119.347 95.9186C119.347 95.6218 118.971 66.3503 115.627 60.6298C114.565 58.815 112.824 55.2475 110.83 51.1211C107 43.296 100.593 30.1921 98.777 30.0817C98.4314 30.1165 98.099 30.2336 97.8072 30.4231C97.5153 30.6127 97.2723 30.8693 97.0982 31.1719C94.9946 33.9321 93.8845 40.5082 95.7826 46.3529C97.2659 50.9957 99.4425 55.384 102.237 59.3671C102.29 59.4368 102.314 59.5241 102.305 59.6112C102.297 59.6984 102.255 59.7788 102.189 59.8363C102.114 59.8984 94.9398 66.5642 100.456 87.8106C100.479 87.8984 100.467 87.9919 100.422 88.0707C100.377 88.1495 100.303 88.2073 100.216 88.2315C100.173 88.244 100.128 88.2476 100.083 88.2422C100.038 88.2367 99.9952 88.2223 99.9563 88.1998C99.9173 88.1773 99.8832 88.1471 99.856 88.111C99.8288 88.075 99.8091 88.0338 99.798 87.99C94.6451 68.1651 100.257 60.8644 101.511 59.5396C98.7687 55.5501 96.6174 51.1801 95.1248 46.5668C93.165 40.5082 94.3436 33.6423 96.5569 30.7579C96.7919 30.3708 97.1181 30.0481 97.5065 29.8182C97.895 29.5883 98.3337 29.4584 98.7839 29.4399C100.84 29.5572 105.321 38.4105 111.419 50.8312C113.434 54.9715 115.168 58.4976 116.216 60.2917C119.642 66.1709 120.019 94.711 120.033 95.9186C120.034 95.9639 120.026 96.0089 120.009 96.0511C119.993 96.0934 119.968 96.1319 119.937 96.1646C119.906 96.1973 119.869 96.2234 119.827 96.2416C119.786 96.2598 119.742 96.2696 119.697 96.2705L119.69 96.2567Z" fill="#231F20"/>
<path d="M123.287 135.327C125.274 135.327 126.885 133.705 126.885 131.704C126.885 129.703 125.274 128.082 123.287 128.082C121.3 128.082 119.69 129.703 119.69 131.704C119.69 133.705 121.3 135.327 123.287 135.327Z" fill="white"/>
<path d="M79.7275 8.89746H16.2074C14.6118 8.89746 13.0815 9.53577 11.9533 10.672C10.825 11.8082 10.1912 13.3492 10.1912 14.956V47.1327C10.1912 48.7401 10.8248 50.2819 11.9529 51.4192C13.0809 52.5565 14.6112 53.1963 16.2074 53.1981H70.0727L78.9326 64.5493V53.1981H79.7275C81.3237 53.1963 82.854 52.5565 83.982 51.4192C85.1101 50.2819 85.7437 48.7401 85.7437 47.1327V14.956C85.7437 13.3492 85.1099 11.8082 83.9816 10.672C82.8533 9.53577 81.3231 8.89746 79.7275 8.89746Z" fill="white"/>
<path d="M78.9329 64.9013C78.8806 64.9019 78.8289 64.8896 78.7824 64.8656C78.7358 64.8415 78.6958 64.8064 78.6657 64.7633L69.9017 53.5432H16.2077C14.5212 53.5396 12.9049 52.8628 11.7129 51.6612C10.521 50.4596 9.85069 48.8311 9.84888 47.1327V14.9561C9.85069 13.2583 10.5212 11.6306 11.7133 10.4301C12.9055 9.22956 14.5218 8.55432 16.2077 8.55249H79.7278C81.4137 8.55432 83.0301 9.22956 84.2222 10.4301C85.4143 11.6306 86.0848 13.2583 86.0867 14.9561V47.1327C86.0848 48.8311 85.4145 50.4596 84.2226 51.6612C83.0307 52.8628 81.4143 53.5396 79.7278 53.5432H79.2756V64.5839C79.2761 64.6559 79.2537 64.7262 79.2118 64.7845C79.1699 64.8428 79.1106 64.8862 79.0426 64.9082C79.0059 64.9132 78.9687 64.9108 78.9329 64.9013ZM16.2077 9.24253C14.7041 9.24618 13.2631 9.84931 12.1999 10.92C11.1366 11.9907 10.5377 13.4419 10.5341 14.9561V47.1327C10.5359 48.6481 11.134 50.101 12.1975 51.1732C13.2609 52.2454 14.7029 52.8495 16.2077 52.8532H70.073C70.1246 52.8529 70.1755 52.8646 70.2218 52.8873C70.2682 52.9101 70.3087 52.9432 70.3403 52.9843L78.5629 63.5557V53.2051C78.5629 53.1136 78.599 53.0258 78.6633 52.9611C78.7275 52.8964 78.8147 52.8601 78.9055 52.8601H79.7004C81.2058 52.8582 82.6489 52.2547 83.7127 51.1822C84.7765 50.1096 85.374 48.6556 85.374 47.1396V14.9561C85.3722 13.4413 84.7739 11.9891 83.7103 10.918C82.6466 9.8469 81.2046 9.24436 79.7004 9.24253H16.2077Z" fill="#231F20"/>
<path d="M54.7925 19.9795H41.1429C39.7654 19.9795 38.6487 21.104 38.6487 22.4912V29.44C38.6487 30.8272 39.7654 31.9517 41.1429 31.9517H54.7925C56.17 31.9517 57.2867 30.8272 57.2867 29.44V22.4912C57.2867 21.104 56.17 19.9795 54.7925 19.9795Z" fill="#6495ED"/>
<path d="M52.6205 22.8364H43.3152C42.9517 22.8364 42.6031 22.691 42.3461 22.4322C42.0891 22.1734 41.9447 21.8223 41.9447 21.4563V17.737C41.9174 16.9228 42.0531 16.1114 42.3437 15.3511C42.6343 14.5908 43.0738 13.8972 43.6362 13.3115C44.1985 12.7258 44.8721 12.2601 45.6168 11.942C46.3616 11.6239 47.1623 11.46 47.9712 11.46C48.7802 11.46 49.5809 11.6239 50.3257 11.942C51.0704 12.2601 51.744 12.7258 52.3063 13.3115C52.8686 13.8972 53.3082 14.5908 53.5987 15.3511C53.8893 16.1114 54.025 16.9228 53.9978 17.737V21.4563C53.9978 21.6381 53.9621 21.8182 53.8928 21.9861C53.8235 22.1539 53.7219 22.3064 53.594 22.4346C53.466 22.5629 53.3141 22.6644 53.147 22.7333C52.98 22.8023 52.801 22.8373 52.6205 22.8364ZM44.6787 20.0762H51.25V17.737C51.2703 17.2898 51.2004 16.8431 51.0444 16.4238C50.8884 16.0046 50.6497 15.6215 50.3426 15.2978C50.0355 14.9741 49.6664 14.7165 49.2576 14.5404C48.8489 14.3644 48.4089 14.2737 47.9644 14.2737C47.5198 14.2737 47.0799 14.3644 46.6711 14.5404C46.2624 14.7165 45.8933 14.9741 45.5862 15.2978C45.2791 15.6215 45.0403 16.0046 44.8844 16.4238C44.7284 16.8431 44.6585 17.2898 44.6787 17.737V20.0762Z" fill="#6495ED"/>
<path d="M47.9676 25.8931C48.9515 25.8931 49.7491 25.0899 49.7491 24.099C49.7491 23.1082 48.9515 22.3049 47.9676 22.3049C46.9836 22.3049 46.186 23.1082 46.186 24.099C46.186 25.0899 46.9836 25.8931 47.9676 25.8931Z" fill="#231F20"/>
<path d="M47.4675 24.4441H48.468V28.6326H47.4675V24.4441Z" fill="#231F20"/>
<path d="M76.8496 45.9526H18.8181C18.2366 45.9526 17.6789 45.7199 17.2677 45.3058C16.8564 44.8917 16.6254 44.3301 16.6254 43.7444V37.5341C16.6254 36.9484 16.8564 36.3868 17.2677 35.9727C17.6789 35.5586 18.2366 35.3259 18.8181 35.3259H76.8496C77.4317 35.3259 77.9902 35.5583 78.4025 35.9723C78.8148 36.3862 79.0473 36.9478 79.0491 37.5341V43.7444C79.0473 44.3307 78.8148 44.8923 78.4025 45.3062C77.9902 45.7202 77.4317 45.9526 76.8496 45.9526ZM18.8181 36.0022C18.4183 36.0022 18.0349 36.1621 17.7522 36.4468C17.4695 36.7315 17.3106 37.1176 17.3106 37.5203V43.7306C17.3097 43.9303 17.3481 44.1281 17.4235 44.3127C17.499 44.4973 17.61 44.665 17.7502 44.8061C17.8903 44.9473 18.0569 45.0591 18.2402 45.135C18.4235 45.211 18.6199 45.2496 18.8181 45.2487H76.8496C77.0481 45.2496 77.2449 45.211 77.4286 45.1352C77.6123 45.0593 77.7792 44.9476 77.92 44.8065C78.0607 44.6655 78.1723 44.4978 78.2485 44.3132C78.3247 44.1286 78.3639 43.9306 78.3639 43.7306V37.5203C78.3621 37.117 78.2017 36.7309 77.9179 36.4464C77.6342 36.1619 77.25 36.0022 76.8496 36.0022H18.8181Z" fill="#D1D3D4"/>
<path d="M22.8477 40.936L23.622 41.9642L22.7586 42.5714L21.9843 41.5226L21.2237 42.5369L20.4152 41.9297L21.1963 40.9222L19.9561 40.5082L20.2918 39.5422L21.5115 39.97V38.7141H22.5599V39.97L23.7796 39.5836L24.1016 40.5496L22.8477 40.936Z" fill="black"/>
<path d="M28.487 40.936L29.2613 41.9642L28.3979 42.5714L27.6236 41.5226L26.863 42.5369L26.0202 41.9297L26.8014 40.9222L25.5611 40.5082L25.8969 39.5422L27.1166 39.97V38.7141H28.1649V39.97L29.3846 39.5836L29.7067 40.5496L28.487 40.936Z" fill="black"/>
<path d="M34.1195 40.936L34.8938 41.9642L34.0304 42.5714L33.263 41.5226L32.5024 42.5369L31.6595 41.9297L32.4407 40.9222L31.2004 40.5082L31.5362 39.5422L32.7559 39.97V38.7141H33.8043V39.97L35.024 39.5836L35.346 40.5496L34.1195 40.936Z" fill="black"/>
<path d="M39.7655 40.936L40.5398 41.9642L39.6764 42.5714L38.9158 41.5226L38.1552 42.5369L37.3193 41.9297L38.0936 40.9222L36.8533 40.5082L37.1891 39.5422L38.4088 39.97V38.7141H39.464V39.97L40.6769 39.5836L41.0058 40.5496L39.7655 40.936Z" fill="black"/>
<path d="M45.4051 40.936L46.1794 41.9642L45.316 42.5714L44.5417 41.5226L43.7811 42.5369L42.9452 41.9297L43.7126 40.9222L42.4724 40.5082L42.8081 39.5422L44.0278 39.97V38.7141H45.083V39.97L46.2959 39.5836L46.6248 40.5496L45.4051 40.936Z" fill="black"/>
</svg>
