<svg width="200" height="133" viewBox="0 0 213 159" fill="none" xmlns="http://www.w3.org/2000/svg">
<g clip-path="url(#clip0_77_6433)">
<path d="M213 139.729H0V139.836H213V139.729Z" fill="#EBEBEB"/>
<path d="M191.657 146.595H177.548V146.702H191.657V146.595Z" fill="#EBEBEB"/>
<path d="M141.099 147.756H137.397V147.863H141.099V147.756Z" fill="#EBEBEB"/>
<path d="M177.122 142.635H168.947V142.742H177.122V142.635Z" fill="#EBEBEB"/>
<path d="M40.7466 143.352H22.3477V143.459H40.7466V143.352Z" fill="#EBEBEB"/>
<path d="M47.2395 143.352H44.543V143.459H47.2395V143.352Z" fill="#EBEBEB"/>
<path d="M95.9135 145.153H56.0059V145.26H95.9135V145.153Z" fill="#EBEBEB"/>
<path d="M100.966 120.698H18.7098C17.3679 120.698 16.2773 119.605 16.2773 118.261V2.43657C16.2773 1.0924 17.3679 0 18.7098 0H100.97C102.312 0 103.403 1.0924 103.403 2.43657V118.261C103.399 119.605 102.308 120.698 100.966 120.698ZM18.7098 0.10668C17.4275 0.10668 16.3838 1.15214 16.3838 2.43657V118.261C16.3838 119.546 17.4275 120.591 18.7098 120.591H100.97C102.253 120.591 103.296 119.546 103.296 118.261V2.43657C103.296 1.15214 102.253 0.10668 100.97 0.10668H18.7098Z" fill="#EBEBEB"/>
<path d="M193.11 120.698H110.849C109.508 120.698 108.417 119.605 108.417 118.261V2.43657C108.417 1.0924 109.508 0 110.849 0H193.11C194.452 0 195.543 1.0924 195.543 2.43657V118.261C195.543 119.605 194.452 120.698 193.11 120.698ZM110.849 0.10668C109.567 0.10668 108.523 1.15214 108.523 2.43657V118.261C108.523 119.546 109.567 120.591 110.849 120.591H193.11C194.392 120.591 195.436 119.546 195.436 118.261V2.43657C195.436 1.15214 194.392 0.10668 193.11 0.10668H110.849Z" fill="#EBEBEB"/>
<path d="M66.6772 101.376L60.7771 106.317L69.1821 118.551L75.8959 114.801C79.4402 118.202 83.6278 120.979 88.3265 122.9L87.6449 130.551L102.223 133.248L104.319 125.857C109.392 125.746 114.295 124.645 118.82 122.742L123.753 128.652L135.966 120.233L132.226 113.508C135.621 109.953 138.394 105.763 140.311 101.056L147.949 101.739L150.642 87.1363L143.263 85.0369C143.153 79.9546 142.058 75.0431 140.154 70.5113L146.054 65.5699L137.649 53.3359L130.935 57.0867C127.386 53.6858 123.203 50.9078 118.504 48.9876L119.186 41.3365L104.608 38.6396L102.512 46.0304C97.4387 46.1414 92.5354 47.2423 88.0113 49.1455L83.0782 43.2397L70.8648 51.6589L74.6093 58.3882C71.2141 61.9385 68.4409 66.1332 66.5239 70.8399L58.8857 70.1572L56.1934 84.7595L63.5717 86.859C63.6739 91.9327 64.773 96.8442 66.6772 101.376ZM83.6789 82.2888C85.6939 71.369 96.1607 64.1532 107.062 66.1716C117.963 68.19 125.167 78.6745 123.152 89.5942C121.137 100.514 110.67 107.73 99.7689 105.711C88.8676 103.693 81.6639 93.2086 83.6789 82.2888Z" fill="#F0F0F0"/>
<path d="M165.024 93.8273L169.633 94.6808L170.294 92.3466C171.9 92.3125 173.446 91.9626 174.877 91.3609L176.436 93.2299L180.296 90.5672L179.112 88.4421C180.185 87.3198 181.063 85.9927 181.668 84.5035L184.083 84.7169L184.935 80.0997L182.605 79.4383C182.571 77.8296 182.222 76.2806 181.621 74.8468L183.487 73.285L180.828 69.4189L178.707 70.6052C177.587 69.5299 176.262 68.6509 174.775 68.0449L174.992 65.6254L170.383 64.772L169.723 67.1061C168.117 67.1403 166.57 67.4902 165.139 68.0919L163.58 66.2228L159.72 68.8855L160.904 71.0106C159.831 72.1329 158.953 73.46 158.348 74.945L155.933 74.7316L155.081 79.3487L157.411 80.0101C157.445 81.6146 157.795 83.1679 158.395 84.6016L156.529 86.1634L159.188 90.0295L161.309 88.8432C162.43 89.9186 163.754 90.7976 165.241 91.4035L165.024 93.8273ZM163.767 78.5721C164.402 75.1199 167.712 72.8412 171.158 73.4771C174.605 74.1129 176.879 77.4285 176.245 80.8806C175.606 84.3328 172.3 86.6115 168.854 85.9757C165.412 85.3356 163.132 82.02 163.767 78.5721Z" fill="#F0F0F0"/>
<path d="M35.656 106.974L39.1663 107.623L39.669 105.843C40.8916 105.818 42.0716 105.553 43.1622 105.092L44.3507 106.518L47.2901 104.491L46.387 102.869C47.2049 102.016 47.8737 101.004 48.3338 99.8694L50.1741 100.032L50.8216 96.5154L49.0452 96.0118C49.0197 94.7872 48.7555 93.6052 48.2955 92.5127L49.714 91.3222L47.6905 88.3778L46.0717 89.2825C45.2197 88.4632 44.2101 87.7932 43.077 87.3324L43.2388 85.4889L39.7286 84.8403L39.2259 86.6198C38.0033 86.6454 36.8233 86.9099 35.7327 87.3708L34.5442 85.9498L31.6048 87.9767L32.5079 89.5983C31.69 90.4517 31.0212 91.463 30.5611 92.5981L28.7208 92.4359L28.0732 95.9521L29.8497 96.4556C29.8752 97.6803 30.1393 98.8623 30.5994 99.9547L29.1808 101.145L31.2043 104.09L32.8231 103.185C33.6794 104.004 34.6848 104.674 35.8179 105.135L35.656 106.974ZM34.7018 95.3547C35.1874 92.7261 37.7094 90.9894 40.3335 91.4758C42.9577 91.9623 44.6915 94.4885 44.2101 97.1171C43.7245 99.7456 41.2026 101.482 38.5784 101C35.95 100.509 34.2162 97.9833 34.7018 95.3547Z" fill="#F0F0F0"/>
<path d="M98.342 28.6159L101 29.1067L101.384 27.7625C102.308 27.7412 103.203 27.5406 104.025 27.195L104.924 28.2703L107.147 26.7341L106.466 25.5094C107.084 24.8608 107.59 24.097 107.94 23.2393L109.333 23.363L109.823 20.7046L108.481 20.3205C108.46 19.3945 108.259 18.4984 107.914 17.6748L108.988 16.7745L107.458 14.547L106.236 15.2297C105.588 14.611 104.826 14.1032 103.969 13.7533L104.093 12.3579L101.435 11.8672L101.051 13.2156C100.127 13.237 99.2323 13.4375 98.4102 13.7832L97.5113 12.7078L95.2876 14.2397L95.9692 15.4644C95.3515 16.113 94.8446 16.8769 94.4952 17.7346L93.1022 17.6108L92.6123 20.2736L93.9542 20.6576C93.9755 21.5836 94.1757 22.4797 94.5208 23.3033L93.4473 24.2037L94.9766 26.4311L96.1992 25.7484C96.8468 26.3671 97.6093 26.8749 98.4655 27.2248L98.342 28.6159ZM97.6221 19.8255C97.9884 17.837 99.8969 16.5227 101.882 16.8897C103.867 17.2567 105.179 19.1684 104.813 21.1569C104.447 23.1454 102.538 24.4597 100.553 24.0927C98.5678 23.7257 97.2514 21.814 97.6221 19.8255Z" fill="#F0F0F0"/>
<path d="M142.493 50.0243L144.265 50.3529L144.521 49.4568C145.138 49.444 145.735 49.3117 146.284 49.077L146.885 49.7939L148.367 48.7697L147.912 47.9504C148.325 47.5195 148.661 47.0074 148.896 46.4356L149.824 46.5167L150.152 44.7415L149.258 44.4855C149.245 43.8667 149.113 43.2693 148.879 42.7189L149.594 42.1172L148.572 40.6322L147.754 41.0888C147.324 40.6749 146.812 40.3378 146.242 40.1031L146.323 39.1728L144.55 38.8442L144.295 39.7403C143.677 39.7532 143.081 39.8854 142.531 40.1201L141.931 39.4032L140.448 40.4274L140.904 41.2467C140.491 41.6777 140.154 42.1855 139.92 42.7615L138.991 42.6804L138.663 44.4556L139.558 44.7116C139.57 45.3304 139.703 45.9278 139.937 46.4783L139.221 47.0799L140.244 48.5649L141.061 48.1083C141.492 48.5222 142.003 48.8594 142.574 49.094L142.493 50.0243ZM142.011 44.1612C142.254 42.8341 143.528 41.9593 144.853 42.2025C146.178 42.4458 147.051 43.7216 146.808 45.0487C146.565 46.3758 145.292 47.2506 143.967 47.0074C142.642 46.7642 141.764 45.4883 142.011 44.1612Z" fill="#F0F0F0"/>
<path d="M60.8112 28.6415L62.5833 28.9701L62.8389 28.0739C63.4566 28.0611 64.053 27.9289 64.6026 27.6942L65.2032 28.4111L66.6857 27.3869L66.2299 26.5676C66.6431 26.1366 66.9797 25.6246 67.214 25.0528L68.1427 25.1338L68.4707 23.3587L67.5761 23.1027C67.5633 22.4839 67.4312 21.8865 67.1969 21.336L67.9126 20.7344L66.8902 19.2494L66.0723 19.706C65.642 19.2921 65.1308 18.9549 64.56 18.7202L64.6409 17.79L62.8688 17.4614L62.6132 18.3575C61.9955 18.3703 61.3991 18.5026 60.8495 18.7373L60.2489 18.0204L58.7664 19.0446L59.2222 19.8639C58.809 20.2948 58.4725 20.8026 58.2382 21.3787L57.3095 21.2976L56.9814 23.0728L57.876 23.3288C57.8888 23.9476 58.0209 24.545 58.2552 25.0954L57.5395 25.6971L58.5619 27.1821L59.3798 26.7255C59.8101 27.1394 60.3213 27.4765 60.8921 27.7112L60.8112 28.6415ZM60.3298 22.7784C60.5726 21.4513 61.8464 20.5765 63.1712 20.8197C64.4961 21.0629 65.3694 22.3388 65.1266 23.6659C64.8837 24.993 63.61 25.8678 62.2852 25.6246C60.9603 25.3771 60.0827 24.1055 60.3298 22.7784Z" fill="#F0F0F0"/>
<path d="M139.566 123.241C139.588 124.321 139.822 125.362 140.227 126.322L138.974 127.372L140.755 129.966L142.178 129.172C142.932 129.893 143.818 130.482 144.815 130.892L144.67 132.514L147.763 133.085L148.206 131.519C149.283 131.498 150.323 131.263 151.281 130.858L152.329 132.112L154.919 130.329L154.127 128.904C154.847 128.152 155.435 127.261 155.844 126.262L157.463 126.407L158.033 123.309L156.47 122.865C156.449 121.786 156.214 120.745 155.81 119.785L157.062 118.735L155.281 116.14L153.859 116.934C153.105 116.213 152.219 115.624 151.222 115.214L151.367 113.593L148.274 113.021L147.831 114.587C146.753 114.608 145.714 114.843 144.755 115.248L143.707 113.994L141.117 115.778L141.909 117.203C141.189 117.958 140.602 118.846 140.193 119.844L138.574 119.699L138.003 122.797L139.566 123.241ZM143.831 122.272C144.257 119.959 146.476 118.428 148.789 118.854C151.098 119.281 152.628 121.504 152.202 123.821C151.776 126.138 149.556 127.666 147.243 127.239C144.934 126.813 143.405 124.589 143.831 122.272Z" fill="#F0F0F0"/>
<path d="M166.323 104.866L161.564 106.612L166.323 108.344V110.132L159.52 107.542V105.681L166.323 103.091V104.866Z" fill="#E0E0E0"/>
<path d="M171.443 99.5664H173.429L168.713 113.051H166.728L171.443 99.5664Z" fill="#E0E0E0"/>
<path d="M180.496 105.681V107.542L173.692 110.132V108.344L178.451 106.612L173.692 104.866V103.091L180.496 105.681Z" fill="#E0E0E0"/>
<path d="M48.0701 127.64C48.7517 127.85 49.0626 128.281 49.0626 129.305V131.686C49.0626 132.386 49.4205 132.787 50.1447 132.787H50.4131V134.6H49.5525C47.6952 134.6 46.7452 133.649 46.7452 131.938V129.245C46.7452 128.771 46.4939 128.545 46.0934 128.545H45.6035V126.736H46.0934C46.4939 126.736 46.7452 126.514 46.7452 126.036V123.343C46.7452 121.632 47.6952 120.681 49.5525 120.681H50.4131V122.494H50.1447C49.4162 122.494 49.0626 122.895 49.0626 123.595V125.976C49.0669 127 48.7517 127.431 48.0701 127.64Z" fill="#E0E0E0"/>
<path d="M59.8789 126.736V128.549H59.389C58.9885 128.549 58.7372 128.771 58.7372 129.249V131.942C58.7372 133.653 57.7872 134.605 55.9299 134.605H55.0693V132.791H55.3377C56.0662 132.791 56.4198 132.39 56.4198 131.69V129.309C56.4198 128.285 56.7307 127.854 57.4123 127.645C56.7307 127.436 56.4198 127.005 56.4198 125.981V123.6C56.4198 122.9 56.0619 122.499 55.3377 122.499H55.0693V120.685H55.9299C57.7872 120.685 58.7372 121.637 58.7372 123.348V126.04C58.7372 126.514 58.9885 126.74 59.389 126.74H59.8789V126.736Z" fill="#E0E0E0"/>
<path d="M41.957 41.0378C41.957 38.1147 44.1978 36.0195 47.2139 36.0195C48.8881 36.0195 50.2853 36.6297 51.197 37.7392L49.7571 39.0706C49.1053 38.3238 48.2917 37.9355 47.3204 37.9355C45.5099 37.9355 44.2234 39.2114 44.2234 41.0378C44.2234 42.8684 45.5099 44.14 47.3204 44.14C48.2874 44.14 49.1053 43.7517 49.7571 42.9879L51.197 44.3192C50.2853 45.4415 48.8881 46.0517 47.1968 46.0517C44.1978 46.056 41.957 43.965 41.957 41.0378Z" fill="#E0E0E0"/>
<path d="M58.9199 41.8827H56.513V44.2382H54.7281V41.8827H52.334V40.1929H54.7281V37.8374H56.513V40.1929H58.9199V41.8827Z" fill="#E0E0E0"/>
<path d="M67.2959 41.8827H64.889V44.2382H63.1041V41.8827H60.71V40.1929H63.1041V37.8374H64.889V40.1929H67.2959V41.8827Z" fill="#E0E0E0"/>
<path d="M77.5576 89.9012L78.9592 88.22C79.5513 89.0137 80.2031 89.419 80.9827 89.419C81.9923 89.419 82.5248 88.8131 82.5248 87.6097V82.4166H78.695V80.3896H85.0297V87.4689C85.0297 90.1658 83.675 91.4886 81.1062 91.4886C79.6408 91.4929 78.35 90.9296 77.5576 89.9012Z" fill="#E0E0E0"/>
<path d="M86.5381 90.5241L87.3475 88.7789C88.093 89.2611 89.2304 89.5896 90.2571 89.5896C91.3774 89.5896 91.7992 89.2952 91.7992 88.8258C91.7992 87.4518 86.7426 88.8557 86.7426 85.5059C86.7426 83.9143 88.1739 82.792 90.6192 82.792C91.7694 82.792 93.0474 83.0566 93.8397 83.526L93.0303 85.2584C92.2039 84.789 91.3817 84.6354 90.6192 84.6354C89.5286 84.6354 89.0643 84.9768 89.0643 85.4163C89.0643 86.8501 94.1209 85.4633 94.1209 88.7661C94.1209 90.3236 92.6725 91.4331 90.1676 91.4331C88.749 91.4288 87.3177 91.0405 86.5381 90.5241Z" fill="#E0E0E0"/>
<path d="M106.5 159C152.118 159 189.098 156.837 189.098 154.169C189.098 151.502 152.118 149.339 106.5 149.339C60.8833 149.339 23.9033 151.502 23.9033 154.169C23.9033 156.837 60.8833 159 106.5 159Z" fill="#F5F5F5"/>
<path d="M138.846 30.9071H126.139C125.606 30.9071 125.172 30.4718 125.172 29.9384V17.2094C125.172 16.676 125.606 16.2407 126.139 16.2407H138.846C139.379 16.2407 139.814 16.676 139.814 17.2094V29.9384C139.814 30.4718 139.379 30.9071 138.846 30.9071Z" fill="#407BFF"/>
<g opacity="0.4">
<path d="M138.846 30.9071H126.139C125.606 30.9071 125.172 30.4718 125.172 29.9384V17.2094C125.172 16.676 125.606 16.2407 126.139 16.2407H138.846C139.379 16.2407 139.814 16.676 139.814 17.2094V29.9384C139.814 30.4718 139.379 30.9071 138.846 30.9071Z" fill="white"/>
</g>
<path d="M130.526 22.7994L127.983 23.7296L130.526 24.6556V25.6115L126.893 24.2289V23.2346L130.526 21.8521V22.7994Z" fill="white"/>
<path d="M133.261 19.9702H134.322L131.804 27.1732H130.743L133.261 19.9702Z" fill="white"/>
<path d="M138.088 23.2346V24.2289L134.454 25.6115V24.6556L136.997 23.7296L134.454 22.7994V21.8521L138.088 23.2346Z" fill="white"/>
<path d="M128.397 33.5825V37.1456H127.574V35.6862H125.96V37.1456H125.138V33.5825H125.96V34.9907H127.574V33.5825H128.397Z" fill="#263238"/>
<path d="M129.981 34.2567H128.844V33.5825H131.945V34.2525H130.808V37.1456H129.985V34.2567H129.981Z" fill="#263238"/>
<path d="M135.626 37.1499L135.622 35.012L134.574 36.7744H134.203L133.16 35.059V37.1499H132.389V33.5825H133.07L134.404 35.7972L135.716 33.5825H136.393L136.402 37.1456H135.626V37.1499Z" fill="#263238"/>
<path d="M137.244 33.5825H138.066V36.4757H139.851V37.1499H137.244V33.5825Z" fill="#263238"/>
<g opacity="0.6">
<path d="M128.397 33.5825V37.1456H127.574V35.6862H125.96V37.1456H125.138V33.5825H125.96V34.9907H127.574V33.5825H128.397Z" fill="white"/>
<path d="M129.981 34.2567H128.844V33.5825H131.945V34.2525H130.808V37.1456H129.985V34.2567H129.981Z" fill="white"/>
<path d="M135.626 37.1499L135.622 35.012L134.574 36.7744H134.203L133.16 35.059V37.1499H132.389V33.5825H133.07L134.404 35.7972L135.716 33.5825H136.393L136.402 37.1456H135.626V37.1499Z" fill="white"/>
<path d="M137.244 33.5825H138.066V36.4757H139.851V37.1499H137.244V33.5825Z" fill="white"/>
</g>
<path d="M170.162 38.7249H157.454C156.922 38.7249 156.487 38.2897 156.487 37.7563V25.0272C156.487 24.4938 156.922 24.0586 157.454 24.0586H170.162C170.694 24.0586 171.129 24.4938 171.129 25.0272V37.7563C171.129 38.2897 170.694 38.7249 170.162 38.7249Z" fill="#407BFF"/>
<g opacity="0.4">
<path d="M170.162 38.7249H157.454C156.922 38.7249 156.487 38.2897 156.487 37.7563V25.0272C156.487 24.4938 156.922 24.0586 157.454 24.0586H170.162C170.694 24.0586 171.129 24.4938 171.129 25.0272V37.7563C171.129 38.2897 170.694 38.7249 170.162 38.7249Z" fill="white"/>
</g>
<path d="M161.407 31.3899C161.757 31.4966 161.918 31.7184 161.918 32.2476V33.4723C161.918 33.8307 162.102 34.0398 162.476 34.0398H162.613V34.9743H162.17C161.215 34.9743 160.726 34.4836 160.726 33.6046V32.2177C160.726 31.9745 160.598 31.8593 160.389 31.8593H160.138V30.9248H160.389C160.594 30.9248 160.726 30.8095 160.726 30.5663V29.1837C160.726 28.3047 161.215 27.814 162.17 27.814H162.613V28.7485H162.476C162.102 28.7485 161.918 28.9533 161.918 29.316V30.5407C161.918 31.0613 161.757 31.2832 161.407 31.3899Z" fill="white"/>
<path d="M167.473 30.9244V31.8589H167.222C167.017 31.8589 166.885 31.9741 166.885 32.2173V33.5999C166.885 34.4789 166.395 34.9697 165.441 34.9697H164.998V34.0352H165.134C165.509 34.0352 165.692 33.8303 165.692 33.4676V32.2429C165.692 31.7138 165.854 31.4919 166.204 31.3852C165.854 31.2785 165.692 31.0567 165.692 30.5275V29.3028C165.692 28.9444 165.509 28.7353 165.134 28.7353H164.998V27.8008H165.441C166.395 27.8008 166.885 28.2915 166.885 29.1706V30.5531C166.885 30.7964 167.013 30.9116 167.222 30.9116H167.473V30.9244Z" fill="white"/>
<path d="M158.886 43.2394C158.886 42.1641 159.708 41.396 160.816 41.396C161.429 41.396 161.944 41.6179 162.281 42.0275L161.753 42.5183C161.514 42.2452 161.212 42.1001 160.858 42.1001C160.194 42.1001 159.721 42.5695 159.721 43.2394C159.721 43.9136 160.194 44.3788 160.858 44.3788C161.212 44.3788 161.514 44.2379 161.753 43.9563L162.281 44.447C161.944 44.861 161.433 45.0829 160.811 45.0829C159.708 45.0829 158.886 44.3148 158.886 43.2394Z" fill="#263238"/>
<path d="M162.528 44.6689L162.809 44.0459C163.108 44.2636 163.555 44.4172 163.985 44.4172C164.475 44.4172 164.671 44.255 164.671 44.0374C164.671 43.3717 162.601 43.8283 162.601 42.5055C162.601 41.8995 163.091 41.396 164.1 41.396C164.548 41.396 165.003 41.5027 165.336 41.7118L165.08 42.339C164.748 42.1513 164.407 42.0574 164.096 42.0574C163.606 42.0574 163.419 42.2409 163.419 42.4628C163.419 43.1199 165.489 42.6676 165.489 43.9734C165.489 44.5708 164.995 45.0786 163.981 45.0786C163.41 45.0829 162.844 44.9164 162.528 44.6689Z" fill="#263238"/>
<path d="M165.77 44.6689L166.051 44.0459C166.349 44.2636 166.796 44.4172 167.226 44.4172C167.716 44.4172 167.912 44.255 167.912 44.0374C167.912 43.3717 165.842 43.8283 165.842 42.5055C165.842 41.8995 166.332 41.396 167.341 41.396C167.789 41.396 168.245 41.5027 168.577 41.7118L168.321 42.339C167.989 42.1513 167.648 42.0574 167.333 42.0574C166.843 42.0574 166.656 42.2409 166.656 42.4628C166.656 43.1199 168.726 42.6676 168.726 43.9734C168.726 44.5708 168.232 45.0786 167.218 45.0786C166.656 45.0829 166.085 44.9164 165.77 44.6689Z" fill="#263238"/>
<g opacity="0.6">
<path d="M158.886 43.2394C158.886 42.1641 159.708 41.396 160.816 41.396C161.429 41.396 161.944 41.6179 162.281 42.0275L161.753 42.5183C161.514 42.2452 161.212 42.1001 160.858 42.1001C160.194 42.1001 159.721 42.5695 159.721 43.2394C159.721 43.9136 160.194 44.3788 160.858 44.3788C161.212 44.3788 161.514 44.2379 161.753 43.9563L162.281 44.447C161.944 44.861 161.433 45.0829 160.811 45.0829C159.708 45.0829 158.886 44.3148 158.886 43.2394Z" fill="white"/>
<path d="M162.528 44.6689L162.809 44.0459C163.108 44.2636 163.555 44.4172 163.985 44.4172C164.475 44.4172 164.671 44.255 164.671 44.0374C164.671 43.3717 162.601 43.8283 162.601 42.5055C162.601 41.8995 163.091 41.396 164.1 41.396C164.548 41.396 165.003 41.5027 165.336 41.7118L165.08 42.339C164.748 42.1513 164.407 42.0574 164.096 42.0574C163.606 42.0574 163.419 42.2409 163.419 42.4628C163.419 43.1199 165.489 42.6676 165.489 43.9734C165.489 44.5708 164.995 45.0786 163.981 45.0786C163.41 45.0829 162.844 44.9164 162.528 44.6689Z" fill="white"/>
<path d="M165.77 44.6689L166.051 44.0459C166.349 44.2636 166.796 44.4172 167.226 44.4172C167.716 44.4172 167.912 44.255 167.912 44.0374C167.912 43.3717 165.842 43.8283 165.842 42.5055C165.842 41.8995 166.332 41.396 167.341 41.396C167.789 41.396 168.245 41.5027 168.577 41.7118L168.321 42.339C167.989 42.1513 167.648 42.0574 167.333 42.0574C166.843 42.0574 166.656 42.2409 166.656 42.4628C166.656 43.1199 168.726 42.6676 168.726 43.9734C168.726 44.5708 168.232 45.0786 167.218 45.0786C166.656 45.0829 166.085 44.9164 165.77 44.6689Z" fill="white"/>
</g>
<path d="M115.471 22.6289H63.2822V60.4704H115.471V22.6289Z" fill="black"/>
<path opacity="0.9" d="M115.471 22.6289H63.2822V60.4704H115.471V22.6289Z" fill="white"/>
<path opacity="0.1" d="M70.5498 22.6289H63.2822V60.4704H70.5498V22.6289Z" fill="black"/>
<path d="M115.471 22.6289H63.2822V26.1664H115.471V22.6289Z" fill="#407BFF"/>
<g opacity="0.2">
<path d="M84.224 31.5048H74.7199C74.4856 31.5048 74.2939 31.3128 74.2939 31.0781C74.2939 30.8434 74.4856 30.6514 74.7199 30.6514H84.2283C84.4626 30.6514 84.6543 30.8434 84.6543 31.0781C84.65 31.3128 84.4583 31.5048 84.224 31.5048Z" fill="black"/>
<path d="M105.205 31.5048H86.7502C86.5159 31.5048 86.3242 31.3128 86.3242 31.0781C86.3242 30.8434 86.5159 30.6514 86.7502 30.6514H105.205C105.439 30.6514 105.631 30.8434 105.631 31.0781C105.631 31.3128 105.443 31.5048 105.205 31.5048Z" fill="black"/>
<path d="M100.826 34.287H75.9983C75.764 34.287 75.5723 34.095 75.5723 33.8603C75.5723 33.6256 75.764 33.4336 75.9983 33.4336H100.826C101.06 33.4336 101.252 33.6256 101.252 33.8603C101.252 34.0993 101.06 34.287 100.826 34.287Z" fill="black"/>
<path d="M90.712 37.0737H74.7199C74.4856 37.0737 74.2939 36.8816 74.2939 36.6469C74.2939 36.4122 74.4856 36.2202 74.7199 36.2202H90.7162C90.9505 36.2202 91.1422 36.4122 91.1422 36.6469C91.138 36.8816 90.9506 37.0737 90.712 37.0737Z" fill="black"/>
<path d="M105.205 37.0737H93.7453C93.511 37.0737 93.3193 36.8816 93.3193 36.6469C93.3193 36.4122 93.511 36.2202 93.7453 36.2202H105.205C105.439 36.2202 105.631 36.4122 105.631 36.6469C105.631 36.8816 105.443 37.0737 105.205 37.0737Z" fill="black"/>
<path d="M83.5509 39.8598H74.7199C74.4856 39.8598 74.2939 39.6678 74.2939 39.4331C74.2939 39.1984 74.4856 39.0063 74.7199 39.0063H83.5509C83.7852 39.0063 83.9769 39.1984 83.9769 39.4331C83.9769 39.6678 83.7852 39.8598 83.5509 39.8598Z" fill="black"/>
<path d="M100.318 39.8598H86.4133C86.179 39.8598 85.9873 39.6678 85.9873 39.4331C85.9873 39.1984 86.179 39.0063 86.4133 39.0063H100.318C100.552 39.0063 100.744 39.1984 100.744 39.4331C100.744 39.6678 100.552 39.8598 100.318 39.8598Z" fill="black"/>
<path d="M87.8794 42.6464H75.9983C75.764 42.6464 75.5723 42.4544 75.5723 42.2197C75.5723 41.985 75.764 41.793 75.9983 41.793H87.8794C88.1137 41.793 88.3054 41.985 88.3054 42.2197C88.3054 42.4544 88.1137 42.6464 87.8794 42.6464Z" fill="black"/>
<path d="M89.3661 45.4286H75.9983C75.764 45.4286 75.5723 45.2366 75.5723 45.0019C75.5723 44.7672 75.764 44.5752 75.9983 44.5752H89.3661C89.6004 44.5752 89.7921 44.7672 89.7921 45.0019C89.7921 45.2409 89.6004 45.4286 89.3661 45.4286Z" fill="black"/>
<path d="M105.205 45.4286H91.5559C91.3216 45.4286 91.1299 45.2366 91.1299 45.0019C91.1299 44.7672 91.3216 44.5752 91.5559 44.5752H105.205C105.439 44.5752 105.631 44.7672 105.631 45.0019C105.631 45.2409 105.443 45.4286 105.205 45.4286Z" fill="black"/>
<path d="M82.3709 48.2153H74.7199C74.4856 48.2153 74.2939 48.0232 74.2939 47.7885C74.2939 47.5538 74.4856 47.3618 74.7199 47.3618H82.3752C82.6095 47.3618 82.8012 47.5538 82.8012 47.7885C82.7969 48.0232 82.6052 48.2153 82.3709 48.2153Z" fill="black"/>
<path d="M105.205 48.2153H84.9826C84.7483 48.2153 84.5566 48.0232 84.5566 47.7885C84.5566 47.5538 84.7483 47.3618 84.9826 47.3618H105.205C105.439 47.3618 105.631 47.5538 105.631 47.7885C105.631 48.0232 105.443 48.2153 105.205 48.2153Z" fill="black"/>
<path d="M89.2809 51.0014H75.9983C75.764 51.0014 75.5723 50.8094 75.5723 50.5747C75.5723 50.34 75.764 50.1479 75.9983 50.1479H89.2809C89.5152 50.1479 89.7069 50.34 89.7069 50.5747C89.7069 50.8094 89.5152 51.0014 89.2809 51.0014Z" fill="black"/>
<path d="M99.7307 51.0014H91.134C90.8997 51.0014 90.708 50.8094 90.708 50.5747C90.708 50.34 90.8997 50.1479 91.134 50.1479H99.7307C99.965 50.1479 100.157 50.34 100.157 50.5747C100.157 50.8094 99.965 51.0014 99.7307 51.0014Z" fill="black"/>
<path d="M91.2868 53.788H75.9934C75.7591 53.788 75.5674 53.596 75.5674 53.3613C75.5674 53.1266 75.7591 52.9346 75.9934 52.9346H91.2868C91.5211 52.9346 91.7128 53.1266 91.7128 53.3613C91.7128 53.596 91.5211 53.788 91.2868 53.788Z" fill="black"/>
</g>
<path opacity="0.4" d="M113.227 25.1508C113.629 25.1508 113.955 24.8241 113.955 24.4211C113.955 24.0181 113.629 23.6914 113.227 23.6914C112.824 23.6914 112.498 24.0181 112.498 24.4211C112.498 24.8241 112.824 25.1508 113.227 25.1508Z" fill="white"/>
<path opacity="0.4" d="M110.666 25.1508C111.068 25.1508 111.394 24.8241 111.394 24.4211C111.394 24.0181 111.068 23.6914 110.666 23.6914C110.264 23.6914 109.938 24.0181 109.938 24.4211C109.938 24.8241 110.264 25.1508 110.666 25.1508Z" fill="white"/>
<path opacity="0.4" d="M108.11 25.1508C108.513 25.1508 108.839 24.8241 108.839 24.4211C108.839 24.0181 108.513 23.6914 108.11 23.6914C107.708 23.6914 107.382 24.0181 107.382 24.4211C107.382 24.8241 107.708 25.1508 108.11 25.1508Z" fill="white"/>
<g opacity="0.2">
<path d="M67.044 31.5048H67.0227C66.7884 31.5048 66.5967 31.3128 66.5967 31.0781C66.5967 30.8434 66.7884 30.6514 67.0227 30.6514C67.257 30.6514 67.4572 30.8434 67.4572 31.0781C67.4615 31.3128 67.2825 31.5048 67.044 31.5048Z" fill="black"/>
<path d="M67.044 34.287H67.0227C66.7884 34.287 66.5967 34.095 66.5967 33.8603C66.5967 33.6256 66.7884 33.4336 67.0227 33.4336C67.257 33.4336 67.4572 33.6256 67.4572 33.8603C67.4615 34.0993 67.2825 34.287 67.044 34.287Z" fill="black"/>
<path d="M67.044 37.0737H67.0227C66.7884 37.0737 66.5967 36.8816 66.5967 36.6469C66.5967 36.4122 66.7884 36.2202 67.0227 36.2202C67.257 36.2202 67.4572 36.4122 67.4572 36.6469C67.4615 36.8816 67.2825 37.0737 67.044 37.0737Z" fill="black"/>
<path d="M67.044 39.8598H67.0227C66.7884 39.8598 66.5967 39.6678 66.5967 39.4331C66.5967 39.1984 66.7884 39.0063 67.0227 39.0063C67.257 39.0063 67.4572 39.1984 67.4572 39.4331C67.4615 39.6678 67.2825 39.8598 67.044 39.8598Z" fill="black"/>
<path d="M67.044 42.6464H67.0227C66.7884 42.6464 66.5967 42.4544 66.5967 42.2197C66.5967 41.985 66.7884 41.793 67.0227 41.793C67.257 41.793 67.4572 41.985 67.4572 42.2197C67.4615 42.4544 67.2825 42.6464 67.044 42.6464Z" fill="black"/>
<path d="M67.044 45.4286H67.0227C66.7884 45.4286 66.5967 45.2366 66.5967 45.0019C66.5967 44.7672 66.7884 44.5752 67.0227 44.5752C67.257 44.5752 67.4572 44.7672 67.4572 45.0019C67.4615 45.2409 67.2825 45.4286 67.044 45.4286Z" fill="black"/>
<path d="M67.044 48.2153H67.0227C66.7884 48.2153 66.5967 48.0232 66.5967 47.7885C66.5967 47.5538 66.7884 47.3618 67.0227 47.3618C67.257 47.3618 67.4572 47.5538 67.4572 47.7885C67.4615 48.0232 67.2825 48.2153 67.044 48.2153Z" fill="black"/>
<path d="M67.044 51.0014H67.0227C66.7884 51.0014 66.5967 50.8094 66.5967 50.5747C66.5967 50.34 66.7884 50.1479 67.0227 50.1479C67.257 50.1479 67.4572 50.34 67.4572 50.5747C67.4572 50.8094 67.2825 51.0014 67.044 51.0014Z" fill="black"/>
<path d="M67.044 53.788H67.0227C66.7884 53.788 66.5967 53.596 66.5967 53.3613C66.5967 53.1266 66.7884 52.9346 67.0227 52.9346C67.257 52.9346 67.4572 53.1266 67.4572 53.3613C67.4615 53.596 67.2825 53.788 67.044 53.788Z" fill="black"/>
</g>
<path d="M162.74 53.5063H94.3545V97.3689H162.74V53.5063Z" fill="#263238"/>
<path opacity="0.9" d="M162.74 53.5063H94.3545V97.3689H162.74V53.5063Z" fill="white"/>
<path opacity="0.1" d="M105.022 53.5063H94.3545V97.3689H105.022V53.5063Z" fill="black"/>
<path d="M162.74 53.5063H94.3545V57.0439H162.74V53.5063Z" fill="#407BFF"/>
<path d="M99.1856 60.9229L98.0524 61.3411L99.1856 61.755V62.1818L97.5625 61.563V61.1192L99.1856 60.5005V60.9229Z" fill="white"/>
<path d="M100.408 59.6597H100.881L99.7561 62.8729H99.2832L100.408 59.6597Z" fill="white"/>
<path d="M102.563 61.1148V61.5586L100.94 62.1774V61.7507L102.074 61.3367L100.94 60.9185V60.4961L102.563 61.1148Z" fill="white"/>
<g opacity="0.2">
<path d="M102.325 65.7958H97.6897C97.4554 65.7958 97.2637 65.6038 97.2637 65.3691C97.2637 65.1344 97.4554 64.9424 97.6897 64.9424H102.325C102.559 64.9424 102.751 65.1344 102.751 65.3691C102.751 65.6081 102.559 65.7958 102.325 65.7958Z" fill="black"/>
<path d="M102.325 68.5824H97.6897C97.4554 68.5824 97.2637 68.3904 97.2637 68.1557C97.2637 67.921 97.4554 67.729 97.6897 67.729H102.325C102.559 67.729 102.751 67.921 102.751 68.1557C102.751 68.3904 102.559 68.5824 102.325 68.5824Z" fill="black"/>
<path d="M102.325 71.3686H97.6897C97.4554 71.3686 97.2637 71.1766 97.2637 70.9419C97.2637 70.7072 97.4554 70.5151 97.6897 70.5151H102.325C102.559 70.5151 102.751 70.7072 102.751 70.9419C102.751 71.1766 102.559 71.3686 102.325 71.3686Z" fill="black"/>
<path d="M102.325 74.1552H97.6897C97.4554 74.1552 97.2637 73.9632 97.2637 73.7285C97.2637 73.4938 97.4554 73.3018 97.6897 73.3018H102.325C102.559 73.3018 102.751 73.4938 102.751 73.7285C102.751 73.9632 102.559 74.1552 102.325 74.1552Z" fill="black"/>
<path d="M102.325 76.9374H97.6897C97.4554 76.9374 97.2637 76.7454 97.2637 76.5107C97.2637 76.276 97.4554 76.084 97.6897 76.084H102.325C102.559 76.084 102.751 76.276 102.751 76.5107C102.751 76.7497 102.559 76.9374 102.325 76.9374Z" fill="black"/>
<path d="M102.325 79.724H97.6897C97.4554 79.724 97.2637 79.532 97.2637 79.2973C97.2637 79.0626 97.4554 78.8706 97.6897 78.8706H102.325C102.559 78.8706 102.751 79.0626 102.751 79.2973C102.751 79.532 102.559 79.724 102.325 79.724Z" fill="black"/>
<path d="M102.325 82.5107H97.6897C97.4554 82.5107 97.2637 82.3186 97.2637 82.0839C97.2637 81.8493 97.4554 81.6572 97.6897 81.6572H102.325C102.559 81.6572 102.751 81.8493 102.751 82.0839C102.751 82.3186 102.559 82.5107 102.325 82.5107Z" fill="black"/>
<path d="M102.325 85.2968H97.6897C97.4554 85.2968 97.2637 85.1048 97.2637 84.8701C97.2637 84.6354 97.4554 84.4434 97.6897 84.4434H102.325C102.559 84.4434 102.751 84.6354 102.751 84.8701C102.751 85.1048 102.559 85.2968 102.325 85.2968Z" fill="black"/>
<path d="M102.325 88.079H97.6897C97.4554 88.079 97.2637 87.887 97.2637 87.6523C97.2637 87.4176 97.4554 87.2256 97.6897 87.2256H102.325C102.559 87.2256 102.751 87.4176 102.751 87.6523C102.751 87.8913 102.559 88.079 102.325 88.079Z" fill="black"/>
</g>
<path d="M115.722 65.7958H106.214C105.98 65.7958 105.788 65.6038 105.788 65.3691C105.788 65.1344 105.98 64.9424 106.214 64.9424H115.722C115.957 64.9424 116.148 65.1344 116.148 65.3691C116.148 65.6081 115.957 65.7958 115.722 65.7958Z" fill="#407BFF"/>
<path d="M143.025 65.7958H118.253C118.019 65.7958 117.827 65.6038 117.827 65.3691C117.827 65.1344 118.019 64.9424 118.253 64.9424H143.025C143.259 64.9424 143.451 65.1344 143.451 65.3691C143.451 65.6081 143.259 65.7958 143.025 65.7958Z" fill="#263238"/>
<g opacity="0.2">
<path d="M154.331 65.7958H147.153C146.918 65.7958 146.727 65.6038 146.727 65.3691C146.727 65.1344 146.918 64.9424 147.153 64.9424H154.331C154.565 64.9424 154.757 65.1344 154.757 65.3691C154.757 65.6081 154.565 65.7958 154.331 65.7958Z" fill="#263238"/>
</g>
<g opacity="0.2">
<path d="M132.324 68.5824H107.496C107.262 68.5824 107.07 68.3904 107.07 68.1557C107.07 67.921 107.262 67.729 107.496 67.729H132.324C132.558 67.729 132.75 67.921 132.75 68.1557C132.75 68.3904 132.558 68.5824 132.324 68.5824Z" fill="#263238"/>
</g>
<path d="M157.739 68.5824H134.599C134.365 68.5824 134.173 68.3904 134.173 68.1557C134.173 67.921 134.365 67.729 134.599 67.729H157.739C157.973 67.729 158.165 67.921 158.165 68.1557C158.165 68.3904 157.978 68.5824 157.739 68.5824Z" fill="#407BFF"/>
<path d="M122.211 71.3686H107.492C107.258 71.3686 107.066 71.1766 107.066 70.9419C107.066 70.7072 107.258 70.5151 107.492 70.5151H122.211C122.445 70.5151 122.637 70.7072 122.637 70.9419C122.637 71.1766 122.449 71.3686 122.211 71.3686Z" fill="#263238"/>
<path d="M139.74 71.3686H125.243C125.009 71.3686 124.817 71.1766 124.817 70.9419C124.817 70.7072 125.009 70.5151 125.243 70.5151H139.736C139.97 70.5151 140.162 70.7072 140.162 70.9419C140.166 71.1766 139.974 71.3686 139.74 71.3686Z" fill="#407BFF"/>
<path d="M157.739 71.3686H142.096C141.862 71.3686 141.67 71.1766 141.67 70.9419C141.67 70.7072 141.862 70.5151 142.096 70.5151H157.739C157.973 70.5151 158.165 70.7072 158.165 70.9419C158.165 71.1766 157.977 71.3686 157.739 71.3686Z" fill="#263238"/>
<path d="M123.573 74.1552H114.742C114.508 74.1552 114.316 73.9632 114.316 73.7285C114.316 73.4938 114.508 73.3018 114.742 73.3018H123.573C123.808 73.3018 123.999 73.4938 123.999 73.7285C123.999 73.9632 123.808 74.1552 123.573 74.1552Z" fill="#263238"/>
<path d="M136.081 74.1552H126.441C126.206 74.1552 126.015 73.9632 126.015 73.7285C126.015 73.4938 126.206 73.3018 126.441 73.3018H136.081C136.315 73.3018 136.507 73.4938 136.507 73.7285C136.507 73.9632 136.315 74.1552 136.081 74.1552Z" fill="#263238"/>
<g opacity="0.2">
<path d="M153.905 74.1552H138.271C138.036 74.1552 137.845 73.9632 137.845 73.7285C137.845 73.4938 138.036 73.3018 138.271 73.3018H153.905C154.139 73.3018 154.331 73.4938 154.331 73.7285C154.331 73.9632 154.139 74.1552 153.905 74.1552Z" fill="#263238"/>
</g>
<g opacity="0.2">
<path d="M119.377 76.9374H107.496C107.262 76.9374 107.07 76.7454 107.07 76.5107C107.07 76.276 107.262 76.084 107.496 76.084H119.377C119.612 76.084 119.803 76.276 119.803 76.5107C119.803 76.7497 119.612 76.9374 119.377 76.9374Z" fill="#263238"/>
</g>
<path d="M120.864 79.724H107.496C107.262 79.724 107.07 79.532 107.07 79.2973C107.07 79.0626 107.262 78.8706 107.496 78.8706H120.864C121.098 78.8706 121.29 79.0626 121.29 79.2973C121.29 79.532 121.098 79.724 120.864 79.724Z" fill="#407BFF"/>
<path d="M143.195 79.724H123.058C122.824 79.724 122.632 79.532 122.632 79.2973C122.632 79.0626 122.824 78.8706 123.058 78.8706H143.195C143.429 78.8706 143.621 79.0626 143.621 79.2973C143.621 79.532 143.429 79.724 143.195 79.724Z" fill="#263238"/>
<path d="M157.739 79.724H145.636C145.402 79.724 145.21 79.532 145.21 79.2973C145.21 79.0626 145.402 78.8706 145.636 78.8706H157.739C157.973 78.8706 158.165 79.0626 158.165 79.2973C158.165 79.532 157.977 79.724 157.739 79.724Z" fill="#263238"/>
<g opacity="0.2">
<path d="M119.411 82.5107H111.756C111.522 82.5107 111.33 82.3186 111.33 82.0839C111.33 81.8493 111.522 81.6572 111.756 81.6572H119.411C119.646 81.6572 119.837 81.8493 119.837 82.0839C119.837 82.3186 119.646 82.5107 119.411 82.5107Z" fill="#263238"/>
</g>
<g opacity="0.2">
<path d="M136.703 82.5107H122.023C121.788 82.5107 121.597 82.3186 121.597 82.0839C121.597 81.8493 121.788 81.6572 122.023 81.6572H136.703C136.937 81.6572 137.129 81.8493 137.129 82.0839C137.129 82.3186 136.941 82.5107 136.703 82.5107Z" fill="#263238"/>
</g>
<path d="M153.904 82.5107H139.57C139.335 82.5107 139.144 82.3186 139.144 82.0839C139.144 81.8493 139.335 81.6572 139.57 81.6572H153.904C154.139 81.6572 154.33 81.8493 154.33 82.0839C154.33 82.3186 154.139 82.5107 153.904 82.5107Z" fill="#263238"/>
<path d="M125.043 85.2968H116.021C115.786 85.2968 115.595 85.1048 115.595 84.8701C115.595 84.6354 115.786 84.4434 116.021 84.4434H125.043C125.278 84.4434 125.469 84.6354 125.469 84.8701C125.469 85.1048 125.278 85.2968 125.043 85.2968Z" fill="#263238"/>
<g opacity="0.2">
<path d="M135.488 85.2968H126.892C126.658 85.2968 126.466 85.1048 126.466 84.8701C126.466 84.6354 126.658 84.4434 126.892 84.4434H135.488C135.723 84.4434 135.914 84.6354 135.914 84.8701C135.914 85.1048 135.727 85.2968 135.488 85.2968Z" fill="#263238"/>
</g>
<path d="M153.905 85.2968H138.19C137.955 85.2968 137.764 85.1048 137.764 84.8701C137.764 84.6354 137.955 84.4434 138.19 84.4434H153.905C154.139 84.4434 154.331 84.6354 154.331 84.8701C154.331 85.1048 154.139 85.2968 153.905 85.2968Z" fill="#407BFF"/>
<g opacity="0.2">
<path d="M127.05 88.079H116.021C115.786 88.079 115.595 87.887 115.595 87.6523C115.595 87.4176 115.786 87.2256 116.021 87.2256H127.05C127.284 87.2256 127.476 87.4176 127.476 87.6523C127.476 87.8913 127.284 88.079 127.05 88.079Z" fill="#263238"/>
</g>
<path opacity="0.4" d="M159.767 55.2985C159.767 55.7039 160.095 56.0282 160.495 56.0282C160.9 56.0282 161.224 55.6997 161.224 55.2985C161.224 54.8932 160.895 54.5688 160.495 54.5688C160.09 54.5688 159.767 54.8974 159.767 55.2985Z" fill="white"/>
<path opacity="0.4" d="M157.939 56.0282C158.342 56.0282 158.668 55.7015 158.668 55.2985C158.668 54.8955 158.342 54.5688 157.939 54.5688C157.537 54.5688 157.211 54.8955 157.211 55.2985C157.211 55.7015 157.537 56.0282 157.939 56.0282Z" fill="white"/>
<path opacity="0.4" d="M155.379 56.0282C155.781 56.0282 156.107 55.7015 156.107 55.2985C156.107 54.8955 155.781 54.5688 155.379 54.5688C154.977 54.5688 154.65 54.8955 154.65 55.2985C154.65 55.7015 154.977 56.0282 155.379 56.0282Z" fill="white"/>
<path d="M48.249 56.0967H36.0142C33.9311 56.0967 32.2441 57.7865 32.2441 59.8731V70.5411C32.2441 72.6278 33.9311 74.3176 36.0142 74.3176H44.6919L47.2479 77.6844V74.3176H48.2532C50.3364 74.3176 52.0233 72.6278 52.0233 70.5411V59.8731C52.0191 57.7865 50.3321 56.0967 48.249 56.0967Z" fill="#407BFF"/>
<path opacity="0.7" d="M48.249 56.0967H36.0142C33.9311 56.0967 32.2441 57.7865 32.2441 59.8731V70.5411C32.2441 72.6278 33.9311 74.3176 36.0142 74.3176H44.6919L47.2479 77.6844V74.3176H48.2532C50.3364 74.3176 52.0233 72.6278 52.0233 70.5411V59.8731C52.0191 57.7865 50.3321 56.0967 48.249 56.0967Z" fill="white"/>
<path d="M46.4255 69.4629C48.7978 67.0865 48.7978 63.2338 46.4255 60.8574C44.0531 58.4811 40.2068 58.4811 37.8345 60.8574C35.4622 63.2338 35.4622 67.0865 37.8345 69.4629C40.2068 71.8392 44.0531 71.8392 46.4255 69.4629Z" fill="#407BFF"/>
<path d="M41.492 67.8786C41.3301 67.8786 41.1725 67.8061 41.066 67.6824L38.6846 64.8703C38.4844 64.6356 38.5142 64.2814 38.7485 64.0808C38.9828 63.8803 39.3364 63.9102 39.5366 64.1448L41.4962 66.4534L44.7296 62.6385C44.9298 62.4038 45.2834 62.374 45.5177 62.5745C45.752 62.7751 45.7818 63.1293 45.5816 63.364L41.9222 67.6824C41.8115 67.8061 41.6581 67.8786 41.492 67.8786Z" fill="white"/>
<path d="M87.2109 131.656L96.3529 131.208L95.4625 139.175C95.4625 139.175 89.1151 140.391 86.2822 135.864L87.2109 131.656Z" fill="#EBB376"/>
<path d="M102.253 133.982L100.17 139.764L95.4668 139.175L96.3571 131.204L102.253 133.982Z" fill="#EBB376"/>
<path d="M78.4313 144.585C83.8926 141.829 87.8374 137.587 87.8374 137.587L87.2154 131.651C78.5719 132.914 73.5877 134.762 73.5877 134.762C73.5877 134.762 76.7869 123.258 73.8603 119.067L65.8132 120.527C65.8132 120.527 57.2634 138.33 63.0143 144.577H78.4313V144.585Z" fill="#407BFF"/>
<path opacity="0.7" d="M78.4185 144.585C83.8841 141.833 87.8331 137.591 87.8331 137.591L87.2112 131.651C78.8445 132.88 73.8986 134.647 73.5962 134.754C73.7027 134.335 76.7316 123.185 73.8603 119.067L65.8174 120.531C65.8174 120.531 63.2742 125.818 61.894 131.651C60.7438 136.512 60.4072 141.743 63.0229 144.585H78.4185Z" fill="white"/>
<path opacity="0.2" d="M71.8025 144.586C74.6439 126.548 72.122 121.974 72.122 121.974L61.8852 131.652C60.735 136.512 60.3984 141.744 63.0141 144.586H71.8025Z" fill="black"/>
<path d="M70.0254 144.585C71.9424 135.471 74.0937 121.197 73.8552 119.072C73.5101 115.987 56.7342 102.746 42.1778 112.385C39.2043 114.352 37.675 135.573 37.1553 144.585H70.0254Z" fill="#407BFF"/>
<path opacity="0.7" d="M70.0257 144.585C71.9427 135.466 74.094 121.197 73.8597 119.067C73.5189 115.986 56.7388 102.75 42.1823 112.385C41.1003 113.106 40.2142 116.366 39.4858 120.667C38.5102 126.522 37.8414 134.293 37.441 140.156C37.3302 141.816 37.2365 143.318 37.1641 144.585H70.0257Z" fill="white"/>
<path d="M62.8392 73.2208C57.7911 71.1768 45.8887 78.5121 44.845 91.5911C43.8013 104.67 50.4213 101.043 50.4213 101.043C50.4213 101.043 51.5971 106.036 56.4194 104.491C56.4194 104.491 60.4025 109.01 64.1087 107.171C64.1087 107.171 68.7223 111.984 71.1974 109.445C71.1974 109.445 73.8897 112.526 76.3477 110.192C78.8057 107.858 85.8262 84.0765 74.8056 78.5761C63.785 73.0757 62.8392 73.2208 62.8392 73.2208Z" fill="#263238"/>
<path d="M62.8473 126.74L62.3617 126.697C62.9197 120.399 61.5395 117.612 61.5225 117.582L61.957 117.36C62.0166 117.476 63.4224 120.279 62.8473 126.74Z" fill="#263238"/>
<path d="M65.1306 126.812C61.7908 118.918 65.5481 117.083 65.71 117.011L65.9145 117.455C65.8804 117.472 62.4383 119.2 65.5822 126.625L65.1306 126.812Z" fill="#263238"/>
<path d="M61.8633 118.88C61.8633 118.88 55.4094 113.768 45.3899 110.874L42.1778 112.385C42.1778 112.385 36.7847 105.694 45.7733 103.509C54.7619 101.324 66.9881 107.337 70.0595 112.513C73.131 117.689 64.726 119.332 64.726 119.332C64.726 119.332 63.9464 118.291 61.8633 118.88Z" fill="#407BFF"/>
<path opacity="0.6" d="M61.8633 118.88C61.8633 118.88 55.4094 113.768 45.3899 110.874L42.1778 112.385C42.1778 112.385 36.7847 105.694 45.7733 103.509C54.7619 101.324 66.9881 107.337 70.0595 112.513C73.131 117.689 64.726 119.332 64.726 119.332C64.726 119.332 63.9464 118.291 61.8633 118.88Z" fill="white"/>
<path d="M65.7573 126.719C65.7573 126.953 65.5656 127.145 65.3313 127.145C65.097 127.145 64.9053 126.953 64.9053 126.719C64.9053 126.484 65.097 126.292 65.3313 126.292C65.5656 126.292 65.7573 126.484 65.7573 126.719Z" fill="white"/>
<path d="M62.9926 126.719C62.9926 126.953 62.8009 127.145 62.5666 127.145C62.3323 127.145 62.1406 126.953 62.1406 126.719C62.1406 126.484 62.3323 126.292 62.5666 126.292C62.8009 126.292 62.9926 126.484 62.9926 126.719Z" fill="white"/>
<path d="M58.4343 94.7358C58.0424 99.3188 56.6409 107.465 52.9219 109.257C52.9219 109.257 57.0796 110.106 63.5634 118.351C67.2568 115.752 65.8595 113.985 65.8595 113.985C61.5399 111.147 62.6602 107.648 64.4068 104.614L58.4343 94.7358Z" fill="#EBB376"/>
<path opacity="0.2" d="M60.8665 98.7686L64.4023 104.615C63.9848 105.332 63.6099 106.074 63.3373 106.834C61.6375 105.92 59.7674 103.027 60.1167 101.047C60.2956 100.057 60.5938 99.1569 60.8665 98.7686Z" fill="black"/>
<path d="M57.9274 85.0664C56.7389 92.2609 56.0828 95.2736 58.7453 99.9077C62.7455 106.876 71.6105 107.205 74.8694 100.616C77.8046 94.6847 79.2572 83.9143 73.1399 79.1606C67.1077 74.471 59.116 77.8719 57.9274 85.0664Z" fill="#EBB376"/>
<path d="M72.6457 75.1496C77.2976 77.7397 81.7323 85.8218 75.108 83.7992C74.1111 85.7407 70.5412 83.9613 68.4709 81.6314C68.1216 83.2487 64.3004 84.8702 61.493 82.3654C62.852 84.3283 60.5388 89.2825 58.1319 88.4291C55.7207 87.5756 50.3233 86.4534 55.1115 78.8151C59.8955 71.1811 67.6743 72.3844 72.6457 75.1496Z" fill="#263238"/>
<path d="M70.9499 91.8599C70.9499 91.8599 71.3802 94.7189 72.1853 96.2679C71.2737 96.7927 70.0596 96.0887 70.0596 96.0887L70.9499 91.8599Z" fill="#D58745"/>
<path d="M66.3067 97.3686C66.5921 97.5095 66.9031 97.629 67.2482 97.7271C67.3419 97.7527 67.4314 97.6972 67.4527 97.5991C67.474 97.5009 67.4186 97.4028 67.3206 97.3772C64.8115 96.6646 64.0234 94.4926 64.0148 94.4712C63.9808 94.3731 63.8828 94.3219 63.7933 94.3517C63.7039 94.3816 63.6613 94.484 63.6911 94.5822C63.7252 94.6632 64.3599 96.4171 66.3067 97.3686Z" fill="#263238"/>
<path d="M54.3104 90.2382C54.762 91.8981 55.8738 93.1527 57.0283 93.7885C58.7621 94.7401 60.0316 93.11 59.8825 91.0788C59.7504 89.2525 58.6854 86.5556 56.7812 86.4489C54.9111 86.3422 53.7949 88.3435 54.3104 90.2382Z" fill="#EBB376"/>
<path d="M65.8169 85.2628C65.9021 85.2969 66.0001 85.2927 66.0853 85.25C67.4272 84.5288 68.5518 85.1988 68.5646 85.2073C68.7307 85.3055 68.9395 85.2543 69.0289 85.0793C69.1184 84.9044 69.0545 84.6825 68.8841 84.58C68.8244 84.5459 67.4144 83.701 65.7487 84.5971C65.5826 84.6867 65.5229 84.9043 65.6167 85.0878C65.6678 85.1689 65.7359 85.2329 65.8169 85.2628Z" fill="#263238"/>
<path d="M77.2631 88.0749C77.3397 88.1176 77.4335 88.1304 77.5187 88.1005C77.6976 88.045 77.7956 87.8402 77.7317 87.6482C77.114 85.7109 75.5804 85.1988 75.5122 85.1817C75.329 85.122 75.1416 85.2329 75.0947 85.425C75.0479 85.617 75.1586 85.8218 75.3418 85.8815C75.4015 85.8986 76.59 86.3125 77.0799 87.8573C77.114 87.9511 77.1821 88.0279 77.2631 88.0749Z" fill="#263238"/>
<path d="M68.1091 89.9739C67.9004 90.5415 67.4233 90.8914 67.0441 90.7505C66.665 90.6097 66.5287 90.0379 66.7374 89.4704C66.9461 88.9029 67.4232 88.5529 67.7981 88.6938C68.1773 88.8303 68.3136 89.4064 68.1091 89.9739Z" fill="#263238"/>
<path d="M67.6318 88.6637L69.0462 88.6338C69.0462 88.6295 68.0493 89.4446 67.6318 88.6637Z" fill="#263238"/>
<path d="M75.2615 92.2439C75.0527 92.8115 74.5756 93.1614 74.1965 93.0206C73.8173 92.8798 73.681 92.308 73.8897 91.7404C74.0985 91.1729 74.5756 90.823 74.9505 90.9638C75.3339 91.1046 75.4702 91.6764 75.2615 92.2439Z" fill="#263238"/>
<path d="M74.7891 90.9337L76.2034 90.9038C76.1991 90.9038 75.2023 91.7146 74.7891 90.9337Z" fill="#263238"/>
<path d="M67.4359 94.0063C67.0014 94.0063 66.5712 93.9167 66.1665 93.7375C65.3187 93.3577 64.6925 92.6237 64.3986 91.6722C64.1131 90.7291 64.1856 89.6879 64.6116 88.7363C65.0376 87.7847 65.7618 87.0294 66.6521 86.6155C67.5552 86.1973 68.518 86.176 69.37 86.5558C70.2177 86.9356 70.8439 87.6695 71.1379 88.6211C71.4233 89.5599 71.3509 90.6054 70.9249 91.5569C70.4989 92.5085 69.7747 93.2638 68.8843 93.6777C68.4115 93.8954 67.9173 94.0063 67.4359 94.0063ZM68.1048 86.7691C67.6915 86.7691 67.2698 86.863 66.8608 87.055C66.077 87.4178 65.438 88.0834 65.0589 88.9326C64.6797 89.7775 64.6116 90.6992 64.8672 91.5271C65.1142 92.3421 65.651 92.9694 66.3667 93.2894C67.0824 93.6095 67.9045 93.5924 68.6799 93.234C69.4637 92.8712 70.1027 92.2056 70.4818 91.3564C70.861 90.5115 70.9291 89.5898 70.6735 88.7619C70.4265 87.9469 69.8897 87.3196 69.174 86.9996C68.8375 86.846 68.4754 86.7691 68.1048 86.7691Z" fill="#263238"/>
<path d="M74.5241 96.1826C74.0938 96.1826 73.6678 96.0972 73.2631 95.9137C72.4154 95.534 71.7892 94.8 71.4952 93.8484C71.2098 92.9054 71.2822 91.8642 71.7082 90.9126C72.1342 89.961 72.8584 89.2057 73.7488 88.7918C74.6519 88.3736 75.6147 88.3523 76.4667 88.7321C77.3144 89.1118 77.9406 89.8458 78.2345 90.7974C78.52 91.7404 78.4475 92.7816 78.0215 93.7332C77.3442 95.2523 75.9299 96.1826 74.5241 96.1826ZM75.2014 88.9454C74.7882 88.9454 74.3665 89.0393 73.9575 89.2313C73.1737 89.594 72.5347 90.2597 72.1555 91.1089C71.7764 91.9538 71.7082 92.8755 71.9638 93.7033C72.2109 94.5184 72.7477 95.1456 73.4634 95.4657C74.9586 96.1356 76.8032 95.2694 77.5785 93.5326C77.9577 92.6877 78.0258 91.766 77.7702 90.9382C77.5189 90.1232 76.9864 89.4959 76.2707 89.1758C75.9299 89.0222 75.5678 88.9454 75.2014 88.9454Z" fill="#263238"/>
<path d="M71.4831 91.7317C71.4448 91.6378 71.3979 91.6122 71.3553 91.5951C71.1849 91.5268 70.8952 91.6335 70.8058 91.6762L70.5928 91.2367C70.6482 91.2111 71.1295 90.9849 71.53 91.1385C71.7174 91.2111 71.858 91.3519 71.9347 91.5524L71.4831 91.7317Z" fill="#263238"/>
<path d="M59.0608 87.0574L58.917 87.522L64.6539 89.3041L64.7977 88.8395L59.0608 87.0574Z" fill="#263238"/>
<path opacity="0.2" d="M58.4809 132.07C58.4809 132.07 47.2729 140.673 37.4365 140.156C37.837 134.293 38.5058 126.518 39.4813 120.668C40.4824 119.554 41.147 118.884 41.147 118.884L47.128 123.352L45.6754 125.174C45.6754 125.174 54.7023 124.718 57.8462 125.174L58.4809 132.07Z" fill="black"/>
<path d="M59.6402 125.178L68.6117 123.348L68.9355 131.357C68.9355 131.357 62.8437 133.521 59.3633 129.475L59.6402 125.178Z" fill="#EBB376"/>
<path d="M74.8565 125.2L73.6722 131.229L68.9308 131.357L68.6113 123.348L74.8565 125.2Z" fill="#EBB376"/>
<path d="M59.6403 125.178L60.0791 131.357L57.8468 132.36L56.8926 125.178H59.6403Z" fill="#407BFF"/>
<path opacity="0.6" d="M59.6403 125.178L60.0791 131.357L57.8468 132.36L56.8926 125.178H59.6403Z" fill="white"/>
<path d="M45.3903 110.875C45.3903 110.875 41.9439 111.259 39.2346 114.442C36.5295 117.625 26.9913 127.081 29.1128 134.796C31.23 142.516 51.6184 136.772 57.8465 132.36L56.8923 125.174L42.7704 126.211L47.1241 123.343C50.1104 115.022 45.3903 110.875 45.3903 110.875Z" fill="#407BFF"/>
<path opacity="0.7" d="M45.3903 110.875C45.3903 110.875 41.9439 111.259 39.2346 114.442C36.5295 117.625 26.9913 127.081 29.1128 134.796C31.23 142.516 51.6184 136.772 57.8465 132.36L56.8923 125.174L42.7704 126.211L47.1241 123.343C50.1104 115.022 45.3903 110.875 45.3903 110.875Z" fill="white"/>
<path d="M86.2861 131.792L88.8592 131.357V138.257L86.8229 138.59L86.2861 131.792Z" fill="#407BFF"/>
<path opacity="0.6" d="M86.2861 131.792L88.8592 131.357V138.257L86.8229 138.59L86.2861 131.792Z" fill="white"/>
<path d="M81.0978 138.189C81.0935 137.814 81.1063 137.421 81.1531 137.058L81.2298 136.491L80.6803 136.815L80.3523 137.007C80.2372 137.046 80.1307 137.11 80.02 137.135C79.7985 137.204 79.5982 137.204 79.4236 137.148C79.2489 137.088 79.0913 136.965 78.9465 136.802C78.8101 136.64 78.6781 136.41 78.6099 136.222L78.1285 134.878L77.7877 136.299C77.7537 136.44 77.7324 136.585 77.7025 136.726C77.6685 136.862 77.6216 136.99 77.5833 137.122C77.4725 137.357 77.3447 137.562 77.1871 137.664C77.0295 137.771 76.8037 137.775 76.5438 137.72C76.2882 137.664 76.0113 137.528 75.7813 137.383L75.04 136.922L75.3425 137.677C75.466 137.989 75.5683 138.33 75.6492 138.667C75.6833 138.838 75.7131 139.009 75.7174 139.179C75.7174 139.35 75.7131 139.529 75.6066 139.683C75.76 139.576 75.8494 139.388 75.8963 139.205C75.9474 139.021 75.9687 138.829 75.973 138.642C75.9772 138.492 75.9687 138.343 75.9559 138.194C76.0752 138.262 76.203 138.326 76.3393 138.381C76.6801 138.518 77.1402 138.561 77.5534 138.356C77.9667 138.151 78.1882 137.784 78.3501 137.451C78.3543 137.434 78.3628 137.413 78.3714 137.396C78.5886 137.63 78.8826 137.831 79.2276 137.908C79.5897 137.989 79.9689 137.942 80.2671 137.801C80.3991 137.75 80.5099 137.673 80.6292 137.605C80.6334 137.622 80.6334 137.635 80.6334 137.652C80.659 137.852 80.7016 138.053 80.757 138.249C80.8081 138.445 80.8762 138.642 80.97 138.825C81.0594 139.009 81.1787 139.184 81.3406 139.307C81.2298 139.141 81.1915 138.949 81.1531 138.765C81.1191 138.569 81.1063 138.381 81.0978 138.189Z" fill="#407BFF"/>
<path d="M96.3362 128.562C96.055 128.601 95.6759 128.558 95.3521 128.46C95.0284 128.357 94.679 128.195 94.4234 128.012C94.1551 127.82 93.925 127.568 93.7376 127.274C93.5501 126.992 93.3797 126.655 93.2818 126.356L93.0006 125.511L92.5235 126.267C92.3318 126.569 92.0591 126.881 91.7908 127.116C91.5181 127.355 91.2071 127.513 90.9345 127.508L90.8323 127.504C90.7939 127.5 90.7471 127.487 90.7045 127.478C90.615 127.466 90.5298 127.436 90.4403 127.41C90.2657 127.355 90.0953 127.278 89.9249 127.188C89.5969 127.009 89.2688 126.757 89.0047 126.505L88.2635 125.793L88.4168 126.77C88.4978 127.282 88.5446 127.833 88.5191 128.349C88.502 128.605 88.4637 128.865 88.37 129.074C88.2763 129.288 88.1016 129.394 87.8503 129.373L87.6543 129.356L87.7139 129.514C87.8375 129.834 87.9653 130.154 88.0973 130.47C88.0547 130.184 88.0079 129.902 87.961 129.621L88.0377 129.633C88.1186 129.633 88.2081 129.608 88.2933 129.591C88.37 129.557 88.4467 129.505 88.5191 129.454C88.5745 129.394 88.6341 129.33 88.6852 129.266C88.8727 128.998 88.9408 128.699 89.0047 128.413C89.0601 128.123 89.0899 127.837 89.0984 127.547C89.0984 127.542 89.0984 127.538 89.0984 127.534C89.239 127.645 89.3839 127.752 89.5372 127.845C89.7374 127.965 89.9462 128.076 90.1677 128.161C90.402 128.242 90.6022 128.315 90.9047 128.328C91.484 128.345 91.9654 128.063 92.3275 127.76C92.5022 127.615 92.6513 127.461 92.7919 127.299C92.8728 127.449 92.9623 127.594 93.0688 127.734C93.3201 128.076 93.6311 128.387 94.0017 128.626C94.3851 128.87 94.7685 128.993 95.1817 129.087C95.4501 129.134 95.7142 129.164 95.9954 129.147C95.9613 129.236 95.923 129.322 95.8931 129.407C95.8207 129.655 95.7568 129.902 95.7185 130.158C95.6716 130.41 95.6631 130.675 95.6844 130.931C95.7057 131.187 95.7696 131.447 95.9102 131.656C95.8207 131.421 95.8335 131.17 95.8548 130.931C95.8846 130.692 95.9443 130.457 96.0209 130.231C96.1743 129.774 96.3958 129.343 96.6386 128.929L96.907 128.473L96.3362 128.562Z" fill="#407BFF"/>
<path d="M32.1639 153.777H181.562C182.606 153.777 183.454 152.928 183.454 151.882V147.274H30.2725V151.882C30.2725 152.928 31.1202 153.777 32.1639 153.777Z" fill="#407BFF"/>
<path opacity="0.2" d="M30.2678 150.525L183.453 150.525V147.273L30.2678 147.273V150.525Z" fill="black"/>
<path d="M27.06 148.123H186.669C187.679 148.123 188.497 147.304 188.497 146.293C188.497 145.281 187.679 144.462 186.669 144.462H27.06C26.0504 144.462 25.2324 145.281 25.2324 146.293C25.2282 147.3 26.0504 148.123 27.06 148.123Z" fill="#407BFF"/>
<path d="M175.849 122.08L171.189 143.254C171.035 143.95 170.358 144.458 169.676 144.458H144.223C143.546 144.458 143.111 143.826 143.269 143.126L147.921 122.115C148.078 121.423 148.751 121.078 149.433 121.078H174.886C175.568 121.078 175.998 121.389 175.849 122.08Z" fill="#263238"/>
<path opacity="0.4" d="M175.849 122.08L171.188 143.254C171.035 143.95 170.358 144.458 169.676 144.458H145.087C144.401 144.458 143.975 143.826 144.124 143.126L148.785 122.115C148.938 121.423 149.616 121.078 150.297 121.078H174.886C175.568 121.078 175.998 121.389 175.849 122.08Z" fill="white"/>
<path d="M171.789 143.788L176.423 122.721C176.577 122.029 176.147 121.718 175.461 121.718H150.872C150.186 121.718 149.509 122.063 149.36 122.755L144.652 144.061L171.789 143.788Z" fill="#407BFF"/>
<path opacity="0.4" d="M176.424 122.716L173.979 133.845L171.789 143.784L157.258 143.929L144.657 144.057L149.36 122.755C149.518 122.064 150.187 121.722 150.868 121.722H175.466C176.151 121.722 176.577 122.034 176.424 122.716Z" fill="white"/>
<path opacity="0.2" d="M173.978 133.849L171.789 143.788L157.258 143.933H145.193L147.166 134.844C147.294 134.259 147.809 133.845 148.401 133.845H173.978V133.849Z" fill="black"/>
<path d="M174.396 135.232C174.243 134.54 173.566 134.195 172.884 134.195H148.295C147.614 134.195 147.183 134.506 147.333 135.198L149.198 143.668H145.049C144.832 143.668 144.657 143.843 144.657 144.061C144.657 144.278 144.832 144.453 145.049 144.453H149.373H174.614H175.333C175.904 144.453 176.326 143.924 176.203 143.369L174.396 135.232Z" fill="#407BFF"/>
<path opacity="0.4" d="M174.396 135.232C174.243 134.54 173.566 134.195 172.884 134.195H148.295C147.614 134.195 147.183 134.506 147.333 135.198L149.198 143.668H145.049C144.832 143.668 144.657 143.843 144.657 144.061C144.657 144.278 144.832 144.453 145.049 144.453H149.373H174.614H175.333C175.904 144.453 176.326 143.924 176.203 143.369L174.396 135.232Z" fill="white"/>
<path d="M144.308 140.374H142.881L142.702 141.146H144.091L144.308 140.374Z" fill="black"/>
<path d="M135.289 144.556H131.178C131.042 144.556 130.936 144.445 130.936 144.312C130.936 144.176 131.046 144.069 131.178 144.069H135.289C136.661 144.069 137.943 143.455 138.808 142.384C139.762 141.197 141.181 140.515 142.706 140.515H143.43C143.566 140.515 143.673 140.626 143.673 140.758C143.673 140.894 143.562 141.001 143.43 141.001H142.706C141.334 141.001 140.052 141.616 139.187 142.687C138.229 143.873 136.81 144.556 135.289 144.556Z" fill="black"/>
<path d="M66.7881 141.543V143.327C66.7881 144.129 67.7551 144.457 68.556 144.457H130.999C131.791 144.457 132.733 144.129 132.733 143.327V141.543H66.7881Z" fill="#263238"/>
<path opacity="0.4" d="M66.7881 141.543V143.327C66.7881 144.129 67.7551 144.457 68.556 144.457H130.999C131.791 144.457 132.733 144.129 132.733 143.327V141.543H66.7881Z" fill="white"/>
<path opacity="0.2" d="M88.0625 141.543V143.327C88.0625 144.129 89.0125 144.457 89.8134 144.457H130.999C131.791 144.457 132.733 144.129 132.733 143.327V141.543H88.0625Z" fill="black"/>
<path d="M143.182 107.696L135.749 141.47C135.506 142.584 134.428 143.391 133.333 143.391H92.727C91.6449 143.391 90.9505 142.379 91.2019 141.27L98.6271 107.751C98.8784 106.65 99.9477 106.1 101.042 106.1H141.649C142.739 106.1 143.425 106.595 143.182 107.696Z" fill="#263238"/>
<path opacity="0.4" d="M143.183 107.696L135.749 141.47C135.507 142.584 134.429 143.391 133.334 143.391H94.1079C93.0173 143.391 92.3314 142.379 92.5742 141.27L100.008 107.751C100.251 106.65 101.329 106.1 102.423 106.1H141.649C142.74 106.1 143.426 106.595 143.183 107.696Z" fill="white"/>
<path opacity="0.2" d="M123.16 124.863V124.871C123.16 127.764 120.063 130.111 117.797 130.111C115.526 130.111 114.184 127.76 114.832 124.871C115.479 122.038 117.737 119.725 119.957 119.64C119.309 122.533 120.694 124.871 122.956 124.871C123.003 124.871 123.16 124.871 123.16 124.863Z" fill="black"/>
</g>
<defs>
<clipPath id="clip0_77_6433">
<rect width="213" height="159" fill="white"/>
</clipPath>
</defs>
</svg>
