<svg width="201" height="133" viewBox="0 0 201 133" fill="none" xmlns="http://www.w3.org/2000/svg">
<g clip-path="url(#clip0_77_6726)">
<path d="M99.0009 3.09753V43.3051C99.0009 45.0174 97.6022 46.4027 95.8733 46.4027H29.6813C27.9524 46.4027 26.5537 45.0174 26.5537 43.3051V3.09753C26.5537 1.38528 27.9524 0 29.6813 0H95.869C97.5979 0 99.0009 1.38528 99.0009 3.09753Z" fill="#E2E4E4"/>
<path d="M99.0009 3.09753V6.3026H26.5537V3.09753C26.5537 1.38528 27.9524 0 29.6813 0H95.869C97.5979 0 99.0009 1.38528 99.0009 3.09753Z" fill="#006891"/>
<path d="M40.8676 3.14912C40.8676 4.1257 40.0684 4.91299 39.0867 4.91299C38.1006 4.91299 37.3057 4.1214 37.3057 3.14912C37.3057 2.17254 38.1049 1.38525 39.0867 1.38525C40.0684 1.38525 40.8676 2.17684 40.8676 3.14912Z" fill="#00AA80"/>
<path d="M36.2192 3.14912C36.2192 4.1257 35.4199 4.91299 34.4382 4.91299C33.4522 4.91299 32.6572 4.1214 32.6572 3.14912C32.6572 2.17254 33.4565 1.38525 34.4382 1.38525C35.4199 1.38525 36.2192 2.17684 36.2192 3.14912Z" fill="#FDBB3B"/>
<path d="M31.4497 3.14912C31.4497 4.1257 30.6504 4.91299 29.6687 4.91299C28.6826 4.91299 27.8877 4.1214 27.8877 3.14912C27.8877 2.17254 28.687 1.38525 29.6687 1.38525C30.6504 1.38525 31.4497 2.17684 31.4497 3.14912Z" fill="#EB496F"/>
<path d="M74.2109 15.6899H53.0996V18.0088H74.2109V15.6899Z" fill="#FDBB3B"/>
<path d="M93.0981 15.6899H76.9736V18.0088H93.0981" fill="white"/>
<path d="M34.0039 22.0869H70.2015V19.7681H34.0039" fill="#006891"/>
<path d="M43.8467 12.519H80.0442V10.2002H43.8467" fill="#006891"/>
<path d="M81.8344 19.7681H73.0381V22.0869H81.8344V19.7681Z" fill="#FDBB3B"/>
<path d="M93.0977 19.7681H84.5967V22.0869H93.0977" fill="white"/>
<path d="M93.0981 10.2002H82.751V12.519H93.0981" fill="white"/>
<path d="M34.0039 26.1655H53.0996V23.8467H34.0039" fill="#006891"/>
<path d="M81.8386 23.8467H55.9404V26.1655H81.8386V23.8467Z" fill="#FDBB3B"/>
<path d="M41.375 30.2393H53.0991V27.9204H41.375" fill="#FDBB3B"/>
<path d="M93.098 27.9204H55.8623V30.2393H93.098" fill="white"/>
<path d="M34.0039 34.3179H50.263V31.999H34.0039" fill="#006891"/>
<path d="M81.8344 31.999H53.0996V34.3179H81.8344V31.999Z" fill="#FDBB3B"/>
<path d="M93.0977 31.999H84.5967V34.3179H93.0977" fill="white"/>
<path d="M34.0039 38.3965H61.2313V36.0776H34.0039" fill="#006891"/>
<path d="M74.2113 36.0776H64.0684V38.3965H74.2113V36.0776Z" fill="#FDBB3B"/>
<path d="M93.0981 36.0776H76.9736V38.3965H93.0981" fill="white"/>
<path d="M81.8389 40.1558H45.915V42.4746H81.8389V40.1558Z" fill="#FDBB3B"/>
<path d="M93.0977 40.1558H84.5967V42.4746H93.0977" fill="white"/>
<path d="M28.9212 85.1478C28.9385 85.2725 28.9472 85.3973 28.9516 85.5177C28.9516 85.522 28.9516 85.522 28.9516 85.5263C28.9516 85.5307 28.9516 85.5307 28.9516 85.535C29.0341 87.2816 28.0828 88.611 24.9943 88.0646C24.6294 88.0001 24.3036 87.8065 24.0126 87.5268C24.0126 87.5268 22.2403 85.8146 21.2195 83.8313C20.5983 82.6224 20.7503 82.0459 20.7243 81.9685C20.5071 81.663 20.3203 81.4436 20.1813 81.3404C19.925 81.1554 19.6209 81.0995 19.6209 81.0995C19.6209 81.0995 19.5167 81.4608 19.8164 82.0373C20.1118 82.6181 19.1778 83.4871 18.5002 82.0029C17.9355 80.7682 18.1179 79.9723 18.7608 79.7056C18.6001 79.697 18.435 79.697 18.27 79.7099C16.0242 79.8475 16.1154 78.0019 18.4481 78.0019C18.7044 78.0019 18.9693 78.0148 19.2387 78.0321C19.2213 77.9847 19.2039 77.9417 19.1952 77.903C19.0519 77.8772 18.9042 77.8557 18.7565 77.8428C16.4716 77.6621 17.058 75.8251 19.2778 76.208C19.8902 76.3112 20.5288 76.4919 21.15 76.7199C20.9111 76.5478 20.6721 76.3929 20.4332 76.2639C18.7826 75.3863 19.4168 73.8418 21.0501 74.5904C22.6834 75.3432 24.9943 77.1845 26.1845 78.6946C27.3139 80.1186 28.6736 83.0354 28.9212 85.1478Z" fill="#EFB3A6"/>
<path d="M21.6797 77.1245C23.3564 78.6001 23.7517 79.4993 23.7517 79.4993" stroke="#D17A80" stroke-width="1.4399" stroke-miterlimit="10"/>
<path d="M19.3955 80.312C19.3955 80.312 20.0254 80.4239 20.6552 81.2026" stroke="#D17A80" stroke-width="1.4399" stroke-miterlimit="10"/>
<path d="M22.1057 82.9235C21.567 81.9383 21.5105 81.0005 21.0501 80.3551C20.4419 79.4947 18.9867 78.1783 19.2083 77.6749C19.6383 76.6983 20.607 77.292 21.6626 78.1654C22.7138 79.0387 24.5904 80.1831 25.4244 79.7916" stroke="#D17A80" stroke-width="1.4399" stroke-miterlimit="10"/>
<path d="M65.249 80.9829C64.9276 81.9122 64.5366 82.9232 64.0458 84.0159C62.8729 86.6273 61.1484 89.6861 58.6159 93.0246C57.6342 94.3152 56.5395 95.6403 55.3102 97.004C55.2538 97.0686 55.1929 97.1331 55.1365 97.1976C54.5718 97.8171 53.9767 98.4409 53.3511 99.0733C52.8212 99.6197 52.2434 100.05 51.6266 100.377L46.2793 94.1603C46.2793 94.1603 46.6138 93.5365 47.1741 92.4954C47.3392 92.19 47.5216 91.8544 47.7258 91.4801C47.9734 91.0198 48.2514 90.5164 48.5468 89.9744C48.625 89.8324 48.6988 89.6861 48.7814 89.5399C48.9682 89.1871 49.168 88.8257 49.3721 88.4471C52.4389 82.863 56.9261 74.8825 58.6941 72.7315C58.6984 72.7272 58.7028 72.7229 58.7071 72.7186C58.8983 72.5422 59.0851 72.383 59.2588 72.2324L62.2517 73.3768L63.8633 73.9963C64.0154 74.2157 64.163 74.4523 64.3064 74.6975C64.6887 76.0097 65.1491 78.1435 65.249 80.9829Z" fill="#EDB1A4"/>
<path d="M54.6893 97.2492C54.2897 97.9634 53.8422 98.57 53.3514 99.0776C52.8214 99.624 52.2437 100.054 51.6269 100.381C42.5699 105.174 24.7773 87.9954 24.7773 87.9954L27.5965 84.7559L47.7261 91.4844L48.6513 91.7941L54.6893 97.2492Z" fill="#EDB1A4"/>
<path d="M100.982 113.408L61.9918 114.032L59.2682 74.6591C59.0076 72.8479 59.3725 71.8197 61.0926 71.1486C62.5305 70.5893 64.7285 69.7375 67.4347 69.1223C68.0037 68.9975 68.5902 68.8771 69.2027 68.7695C70.7274 68.5071 72.378 68.3393 74.1199 68.3393L79.4933 67.9736C79.4933 67.9736 81.3872 68.0124 83.9501 68.249C84.9753 68.3393 86.1134 68.4641 87.2819 68.6319C88.4721 68.8039 89.6884 69.0147 90.8526 69.2858C93.3416 69.8623 94.9488 72.2456 94.5492 74.7452L100.982 113.408Z" fill="#0088BB"/>
<path d="M87.29 68.6319C66.8564 80.5143 66.9911 71.8283 67.4385 69.1223C68.0075 68.9975 68.594 68.8771 69.2065 68.7695C70.7312 68.5071 72.3818 68.3393 74.1237 68.3393L79.4971 67.9736C79.4971 67.9736 81.391 68.0124 83.9539 68.249C84.9834 68.3436 86.1215 68.4641 87.29 68.6319Z" fill="#006891"/>
<path d="M83.9582 68.249C66.2265 78.9483 69.2107 68.7695 69.2107 68.7695C70.7354 68.5071 72.3861 68.3393 74.128 68.3393L79.5014 67.9736C79.5014 67.9736 81.3953 68.0124 83.9582 68.249Z" fill="#EFB3A6"/>
<path d="M61.3355 53.424C61.3355 53.424 58.1514 53.4713 58.4685 50.847C58.7856 48.2227 61.6917 48.1797 61.6917 48.1797L61.3355 53.424Z" fill="#33324F"/>
<path d="M82.0468 45.5939C81.1823 44.7808 80.0225 44.4538 78.8801 44.5442C78.3719 40.5088 72.0689 40.2162 68.8544 40.612C68.8761 40.5475 68.8935 40.4873 68.9196 40.4227C68.937 40.3926 68.9543 40.3582 68.963 40.3152C69.2106 39.2311 69.3626 37.764 68.6589 36.8004C68.0421 35.9528 66.8736 35.6474 65.9006 35.7765C63.759 36.0561 62.925 37.9318 62.6991 39.8549C61.6088 38.6331 59.2153 38.5083 58.2163 40.0183C56.8392 42.1049 58.3031 43.9634 59.5281 45.6283C58.3509 45.7918 56.2137 46.5059 56.7089 47.9687C57.2693 49.625 60.2318 48.9538 61.4351 48.6527C61.4785 48.6398 61.5133 48.6226 61.5437 48.6011C61.7826 48.6785 62.0866 48.4806 61.965 48.1838C61.4872 47.0394 66.5435 46.6737 67.2124 46.6178C68.9587 46.4758 70.7179 46.3209 72.4685 46.2736C74.154 46.2263 75.7568 46.4457 76.7994 47.973C77.8245 49.4701 78.5977 51.2211 79.4491 52.8301C79.4535 52.843 79.4622 52.8516 79.4709 52.8602C79.5708 54.0777 79.4535 55.2564 79.1147 56.4352C79.0234 56.7493 79.4014 56.9171 79.6272 56.788C82.416 55.1747 83.5237 52.6279 83.3065 49.397C83.2153 47.9902 83.111 46.6006 82.0468 45.5939Z" fill="#33324F"/>
<path d="M80.1488 69.32C73.3984 71.0882 69.4542 72.624 70.4012 69.9868L70.6097 68.9672L70.6618 68.7005L71.2395 65.8482L71.7999 63.1078L72.0736 61.7784L79.2757 61.146L79.6623 64.7383L79.823 66.2182L80.1488 69.32Z" fill="#EFB3A6"/>
<path d="M79.8184 66.2223C78.9149 66.5751 72.3296 69.1176 70.6094 68.9671L70.6615 68.7003L71.2392 65.848L79.3362 61.7739L79.8184 66.2223Z" fill="#D17A80"/>
<path d="M61.0699 53.5956C61.0872 53.8709 61.109 54.142 61.1307 54.4259C61.1437 54.598 61.1611 54.7701 61.1785 54.9422C61.2957 56.0564 61.4695 57.0674 61.6867 57.9795C61.9517 59.1023 62.2948 60.0832 62.6858 60.935C63.0029 61.6234 63.3548 62.2299 63.7414 62.7677C66.2 66.2266 69.7924 66.6009 72.1728 66.3815C74.9225 66.1277 79.11 64.794 80.474 59.283C80.891 57.6353 81.043 55.609 80.8345 53.1267C80.8171 52.8685 80.7911 52.6147 80.7607 52.3652C80.7346 52.0899 80.6999 51.8188 80.6608 51.5521C79.8181 45.4904 77.0163 40.9 69.8271 41.5669C62.5511 42.238 60.705 47.3876 61.0699 53.5956Z" fill="#EDB1A4"/>
<path d="M76.0689 48.1792C76.0689 48.1792 75.2305 55.3508 77.5849 56.8953C77.5849 56.8953 80.1565 58.5946 80.6995 51.8059L76.0689 48.1792Z" fill="#33324F"/>
<path d="M76.9033 50.9756C76.9033 50.9756 72.6941 51.7844 72.3379 48.3126C72.3379 48.3126 69.8228 50.8036 67.0905 48.4116C67.0905 48.4116 66.5345 50.6143 63.1115 50.1281C63.1115 50.1281 63.8804 53.045 61.0568 53.4106L60.2793 51.849L60.6833 48.4159L61.6867 46.0712L64.1106 43.0813L66.6822 41.8551L69.9401 41.3174H72.6594L75.9173 42.0358L78.3064 44.217L80.2742 46.7897L80.8215 51.7844L80.2915 52.2147L76.9033 50.9756Z" fill="#33324F"/>
<path d="M77.8247 55.0285C77.8377 55.6523 77.9637 56.2976 78.1287 56.8913C78.2026 57.1623 78.2808 57.4205 78.3546 57.6571C78.359 57.6614 78.359 57.6657 78.359 57.6657C78.372 57.7044 78.3807 57.7388 78.3937 57.7732C78.4111 57.8335 78.4372 57.8894 78.4719 57.9324C78.5153 58.0056 78.5762 58.0615 78.637 58.1002C79.2104 58.8014 80.2442 58.9649 81.1608 58.6294C81.4431 58.5304 81.7211 58.3755 81.9644 58.1733C82.7984 57.4936 83.3371 56.6332 83.5152 55.7039C83.6585 54.9338 83.5586 54.1164 83.1676 53.3205C83.02 53.0237 82.8505 52.7699 82.6551 52.5591C82.4031 52.2794 82.1121 52.0772 81.795 51.9482C81.6169 51.8707 81.4301 51.8191 81.2346 51.7933C80.5135 51.6943 79.7056 51.9267 78.9367 52.4515C78.6674 52.6365 78.4545 52.8473 78.2895 53.0882C77.9202 53.6518 77.7986 54.3315 77.8247 55.0285Z" fill="#EFB3A6"/>
<path d="M79.7617 57.2572C79.7617 57.2572 78.3891 52.8217 81.9424 53.9618" stroke="#D17A80" stroke-width="1.4839" stroke-miterlimit="10"/>
<path d="M79.5146 55.8973L81.048 55.209" stroke="#D17A80" stroke-width="1.4839" stroke-miterlimit="10"/>
<path d="M68.8673 59.9672L65.3184 60.3114C68.2027 59.8296 67.3947 55.5103 67.3947 55.5103" stroke="#D17A80" stroke-width="1.4839" stroke-miterlimit="10"/>
<g opacity="0.5">
<path d="M72.1638 63.2668C72.5504 63.8432 70.0874 64.5359 69.8051 63.9723C69.5271 63.4087 71.7642 62.6731 72.1638 63.2668Z" fill="#D17A80"/>
</g>
<path d="M73.311 59.8037C72.4944 61.7311 70.1747 62.4452 67.9072 62.2258" stroke="#D17A80" stroke-width="1.4839" stroke-miterlimit="10"/>
<path d="M63.242 55.8201C63.3115 56.474 63.7328 56.9687 64.1889 56.9257C64.6451 56.8784 64.9578 56.3105 64.8927 55.6566C64.8232 55.0027 64.4018 54.5079 63.9457 54.5509C63.4896 54.594 63.1768 55.1618 63.242 55.8201Z" fill="#33324F"/>
<path d="M70.9519 55.0413C71.0214 55.6952 71.4428 56.1899 71.8989 56.1469C72.355 56.1039 72.6678 55.5317 72.6026 54.8778C72.5331 54.2239 72.1118 53.7291 71.6557 53.7721C71.1995 53.8152 70.8824 54.383 70.9519 55.0413Z" fill="#33324F"/>
<path d="M70.5263 53.5485C72.9284 53.6818 74.2794 53.0193 72.2117 52.7397C70.1396 52.46 69.2796 53.4839 70.5263 53.5485Z" fill="#33324F"/>
<path d="M64.7188 53.0539C62.5946 54.1724 61.0873 54.1337 62.8466 53.0194C64.6059 51.9052 65.8221 52.4774 64.7188 53.0539Z" fill="#33324F"/>
<path d="M74.0148 53.7893C73.6586 53.2215 73.146 52.7611 72.5335 52.4686C72.464 52.4342 72.3901 52.3998 72.3163 52.3739C71.9731 52.2363 71.5952 52.1502 71.2086 52.1287C71.1391 52.1244 71.0696 52.1201 70.9958 52.1201C70.5266 52.1201 70.0792 52.2105 69.6709 52.3739C68.9672 52.6579 68.3721 53.1569 67.9768 53.7893C67.7118 54.2152 67.5337 54.6971 67.4729 55.2133H65.5225C65.4617 54.6971 65.2836 54.2152 65.0186 53.7893C64.6233 53.1569 64.0282 52.6579 63.3245 52.3739C62.9161 52.2105 62.4687 52.1201 61.9996 52.1201C61.5304 52.1201 61.083 52.2105 60.6747 52.3739C60.0666 52.6149 59.5453 53.015 59.1587 53.5269C59.0979 53.6086 59.0327 53.6947 58.9806 53.7893C58.6722 54.2755 58.4854 54.8434 58.4506 55.45C58.4463 55.5102 58.4463 55.5747 58.4463 55.635C58.4463 55.8372 58.4637 56.0393 58.4984 56.2329C58.5679 56.6115 58.6939 56.9686 58.872 57.2956V57.2999C58.9371 57.4203 59.011 57.5365 59.0935 57.6483C59.5757 58.3238 60.2881 58.8271 61.1134 59.0379C61.361 59.1025 61.6217 59.1369 61.891 59.1455C61.9257 59.1498 61.9605 59.1498 61.9952 59.1498C63.2072 59.1498 64.2801 58.5432 64.9187 57.6483C65.1576 57.3171 65.3357 56.9514 65.4399 56.5556C65.466 56.4524 65.4921 56.3448 65.5094 56.2329C65.5355 56.0738 65.5485 55.9146 65.5485 55.7511H67.4511C67.4511 55.9146 67.4642 56.0781 67.4902 56.2329C67.5076 56.3448 67.5293 56.4524 67.5597 56.5556C67.664 56.9514 67.8421 57.3171 68.0767 57.6483C68.7152 58.5432 69.7838 59.1498 71.0001 59.1498C71.0566 59.1498 71.113 59.1498 71.1695 59.1455C71.656 59.124 72.1121 59.0078 72.5248 58.8099H72.5291C73.0026 58.5862 73.4153 58.2635 73.7411 57.8677C73.8019 57.7989 73.854 57.7258 73.9105 57.6483C74.2015 57.2353 74.41 56.7492 74.5013 56.2329C74.536 56.035 74.5534 55.8372 74.5534 55.635C74.5404 54.9595 74.3492 54.3271 74.0148 53.7893ZM64.9838 56.5556C64.8579 56.96 64.645 57.3343 64.3713 57.6483C63.7979 58.3109 62.9465 58.7325 61.9996 58.7325H61.9257C61.0092 58.711 60.1882 58.2937 59.6278 57.6483C59.2847 57.2525 59.0371 56.7664 58.9328 56.2329C58.8937 56.0393 58.872 55.8372 58.872 55.635C58.872 54.9423 59.0979 54.3056 59.4888 53.7893C60.0579 53.0279 60.9744 52.5331 61.9996 52.5331C63.0291 52.5331 63.9413 53.0279 64.5103 53.7893C64.8969 54.3056 65.1272 54.9466 65.1272 55.635C65.1272 55.8372 65.1098 56.0393 65.0664 56.2329C65.0403 56.3448 65.0142 56.4524 64.9838 56.5556ZM73.3675 57.6526C72.8202 58.2851 72.0253 58.6938 71.1304 58.7325C71.0826 58.7368 71.0392 58.7368 70.9914 58.7368C70.0401 58.7368 69.1887 58.3195 68.6197 57.6526C68.346 57.3343 68.1331 56.9643 68.0072 56.5599C67.9768 56.4567 67.9464 56.3491 67.929 56.2372C67.8855 56.0436 67.8682 55.8415 67.8682 55.6393C67.8682 54.9466 68.094 54.3099 68.485 53.7936C69.054 53.0322 69.9706 52.5374 70.9958 52.5374C72.0253 52.5374 72.9375 53.0322 73.5065 53.7936C73.8975 54.3099 74.1234 54.9509 74.1234 55.6393C74.1234 55.8415 74.106 56.0436 74.0625 56.2372C73.9583 56.7707 73.7107 57.2525 73.3675 57.6526Z" fill="white"/>
<path d="M97.2153 74.044C98.3925 77.1415 99.5523 81.5942 99.8216 87.5139C99.8954 89.2003 99.8998 91.0029 99.8129 92.9303C99.7434 94.4274 99.6174 96.002 99.4263 97.6454L99.3612 97.6325L91.0252 96.1612C91.0252 96.1612 90.8819 95.4685 90.6473 94.3156C90.4953 93.5584 90.3042 92.599 90.0913 91.5063C89.9827 90.9685 89.8698 90.4006 89.7525 89.8027C88.3842 82.7945 86.4642 72.3317 86.9377 71.0755L91.6681 69.5225C91.9244 69.5956 92.1894 69.6816 92.4587 69.7849C93.5925 70.555 95.317 71.9101 97.2153 74.044Z" fill="#EDB1A4"/>
<path d="M91.3734 94.1089L70.1318 100.575L69.7539 104.834C69.7539 104.834 101.23 109.506 99.4965 95.0424L91.3734 94.1089Z" fill="#EDB1A4"/>
<path d="M63.4854 104.094C63.4854 104.094 61.8956 104.12 60.4317 104.671C58.9678 105.221 58.9548 103.672 60.2666 103.178C60.2666 103.178 59.5021 103.259 58.5769 103.694C57.6516 104.128 57.1868 103.126 57.6733 102.593C57.6733 102.593 57.0304 102.825 56.7133 102.236C56.3962 101.646 57.0565 101.044 57.3084 100.867C57.3084 100.867 56.1182 99.835 58.6507 98.7379C61.1832 97.6409 64.554 97.0386 68.7806 99.1251C71.6867 100.562 71.8691 102.821 71.1871 103.991C69.9491 106.129 66.0918 106.469 63.4854 104.094Z" fill="#EFB3A6"/>
<path d="M60.2666 103.178C62.4646 102.373 63.4941 102.459 63.4941 102.459" stroke="#D17A80" stroke-width="1.4399" stroke-miterlimit="10"/>
<path d="M57.6729 102.593C61.0437 100.941 62.7769 101.074 62.7769 101.074" stroke="#D17A80" stroke-width="1.4399" stroke-miterlimit="10"/>
<path d="M57.3125 100.872C59.4236 99.5384 62.2993 99.3921 62.2993 99.3921" stroke="#D17A80" stroke-width="1.4399" stroke-miterlimit="10"/>
<path d="M103.011 93.0676L99.818 92.9256L88.0417 92.6116L88.0547 92.0437L85.127 70.2276L87.5074 69.1349C87.5074 69.1349 89.3014 68.838 91.6732 69.5221C91.9295 69.5952 92.1944 69.6813 92.4638 69.7845C96.9423 71.4365 102.876 76.4442 103.011 93.0676Z" fill="#0088BB"/>
<path d="M60.5445 71.4023C60.5445 71.4023 52.5474 75.5152 47.7344 89.0539L57.6732 98.2648L63.1595 91.5105L60.5445 71.4023Z" fill="#0088BB"/>
<path d="M88.7891 94.8963L91.6777 94.0015" stroke="#D17A80" stroke-width="1.4399" stroke-miterlimit="10"/>
<path d="M45.1367 90.6196L49.1548 91.9705" stroke="#D17A80" stroke-width="1.4399" stroke-miterlimit="10"/>
<path d="M60.6494 94.5951C60.6494 94.5951 60.0847 85.1046 60.6494 80.8369" stroke="#005467" stroke-width="0.7419" stroke-miterlimit="10"/>
<path d="M60.5276 84.0034L59.4199 81.8438" stroke="#005467" stroke-width="0.7419" stroke-miterlimit="10"/>
<path d="M90.3226 92.6765L88.7892 92.6335L86.248 78.6172" stroke="#005467" stroke-width="0.7419" stroke-miterlimit="10"/>
<path d="M86.6388 80.7555L85.3486 79.4863" stroke="#005467" stroke-width="0.7419" stroke-miterlimit="10"/>
<path d="M124.265 53.708C124.265 53.708 118.127 55.7214 119.89 61.3314C119.89 61.3314 115.186 60.7721 113.913 66.9112C113.913 66.9112 106.763 66.6402 107.154 73.9237C107.545 81.2029 115.703 77.4342 115.703 77.4342C115.703 77.4342 117.784 83.9777 123.392 80.7468C123.392 80.7468 126.871 85.4318 130.728 80.7468L124.265 53.708Z" fill="#33324F"/>
<path d="M141.483 55.9966C141.483 55.9966 146.622 59.8814 143.104 64.618C143.104 64.618 147.734 65.6075 146.913 71.8241C146.913 71.8241 153.764 73.8805 150.992 80.6391C148.221 87.3934 141.757 81.1941 141.757 81.1941C141.757 81.1941 137.635 86.7051 133.395 81.8394C133.395 81.8394 128.56 85.1434 126.458 79.4689L141.483 55.9966Z" fill="#33324F"/>
<path d="M144.16 56.7495C144.095 57.1324 144.012 57.5196 143.917 57.924C143.695 58.8834 143.391 59.9073 143 61C142.991 61.0215 142.987 61.043 142.974 61.0688C142.826 61.4861 142.666 61.9121 142.488 62.3509C142.283 62.8628 141.797 63.2113 141.25 63.2328L127.058 63.7276C125.968 63.7663 125.303 62.523 124.93 61.4904C123.444 57.412 120.599 47.8398 130.677 44.5917C132.44 44.0238 134.317 43.912 136.128 44.2734C139.89 45.0262 145.789 47.6419 144.16 56.7495Z" fill="#33324F"/>
<path d="M140.494 98.2433C140.342 98.9919 140.294 99.6888 140.333 100.343C140.381 101.048 140.524 101.698 140.768 102.3C144.291 111.12 167.404 109.536 167.404 109.536L167.374 105.548L148.965 98.3078L148.118 97.9766L140.494 98.2433Z" fill="#E8776E"/>
<path d="M148.452 100.463L141.55 103.819C141.141 103.311 140.811 102.731 140.559 102.072C140.264 101.302 139.99 100.545 139.738 99.8094C139.716 99.732 139.686 99.6546 139.66 99.5771C139.117 97.9595 138.678 96.4194 138.326 94.961C137.41 91.1708 137.084 87.9227 137.058 85.2597C137.045 84.1454 137.088 83.1301 137.162 82.2267L137.158 82.2224C138.305 79.8304 139.499 78.1741 140.316 77.1889C140.529 77.034 140.75 76.8878 140.959 76.7544L141.193 76.763L142.57 76.8189L144.829 76.9093C145.107 77.2405 145.39 77.6148 145.681 78.0321C145.824 78.2429 145.967 78.458 146.111 78.6903C146.758 82.0245 147.475 89.2348 147.944 94.449C147.974 94.8448 148.009 95.232 148.039 95.602C148.057 95.7569 148.065 95.9074 148.078 96.058C148.091 96.2043 148.104 96.3505 148.113 96.4925C148.152 96.9012 148.183 97.2884 148.213 97.6455C148.243 98.037 148.278 98.3941 148.304 98.7167C148.4 99.8095 148.452 100.463 148.452 100.463Z" fill="#E8776E"/>
<path d="M147.427 97.7358L149.703 98.6006" stroke="#924541" stroke-width="1.3836" stroke-miterlimit="10"/>
<path d="M165.853 104.972C165.767 105.05 165.684 105.131 165.606 105.213L165.601 105.217L165.597 105.222C164.476 106.413 164.342 107.928 166.87 109.386C167.17 109.558 167.517 109.614 167.895 109.588C167.895 109.588 170.197 109.429 172.13 108.629C173.308 108.139 173.551 107.64 173.616 107.601C173.955 107.515 174.224 107.467 174.385 107.48C174.68 107.498 174.932 107.644 174.932 107.644C174.932 107.644 174.784 107.962 174.224 108.194C173.659 108.427 173.794 109.606 175.18 108.956C176.331 108.414 176.691 107.738 176.392 107.166C176.509 107.257 176.626 107.356 176.739 107.463C178.255 108.904 179.311 107.536 177.651 106.142C177.469 105.987 177.273 105.837 177.069 105.691C177.113 105.669 177.147 105.648 177.178 105.622C177.3 105.691 177.412 105.764 177.525 105.841C179.259 107.076 179.962 105.42 178.151 104.366C177.651 104.077 177.087 103.819 176.509 103.608C176.783 103.626 177.048 103.66 177.295 103.712C179.007 104.073 179.493 102.597 177.877 102.154C176.261 101.715 173.494 101.647 171.726 102.004C170.058 102.357 167.317 103.617 165.853 104.972Z" fill="#E8776E"/>
<path d="M175.888 103.591C173.798 103.639 172.969 104.043 172.969 104.043" stroke="#924541" stroke-width="1.3836" stroke-miterlimit="10"/>
<path d="M175.571 107.222C175.571 107.222 175.054 106.925 174.133 107.102" stroke="#924541" stroke-width="1.3836" stroke-miterlimit="10"/>
<path d="M172.056 107.463C173.042 107.085 173.65 106.452 174.367 106.267C175.327 106.018 177.16 105.953 177.308 105.463C177.599 104.512 176.543 104.357 175.266 104.349C173.985 104.34 171.956 104.03 171.604 103.256" stroke="#924541" stroke-width="1.3836" stroke-miterlimit="10"/>
<path d="M146.297 76.8275C146.301 76.9436 146.297 77.0684 146.279 77.1889L144.915 96.9313L143.743 113.899L107.389 113.318L113.379 77.2663C113.005 74.9345 114.504 72.7146 116.824 72.1769C117.91 71.9274 119.043 71.7295 120.155 71.5703C120.425 71.5316 120.694 71.4971 120.955 71.4627C121.511 71.3939 122.054 71.3337 122.575 71.2777C122.809 71.2562 123.04 71.2347 123.266 71.2132C123.426 71.2003 123.587 71.1831 123.743 71.1702C125.885 70.9852 127.423 70.9551 127.423 70.9551L132.435 71.2992C133.43 71.2992 134.395 71.3595 135.32 71.4584C135.389 71.4627 135.459 71.4713 135.524 71.4799C135.567 71.4842 135.611 71.4885 135.654 71.4928C135.776 71.5101 135.898 71.5273 136.015 71.5402C136.358 71.5875 136.692 71.6391 137.023 71.695C137.331 71.7467 137.631 71.8026 137.926 71.8628L137.93 71.8671C138.182 71.9188 138.43 71.9704 138.673 72.022C139.516 72.2113 140.302 72.4264 141.023 72.6501C141.371 72.7577 141.597 72.8222 141.749 72.8609C141.753 72.8609 141.766 72.8652 141.775 72.8652C141.905 72.9039 141.979 72.9211 142.035 72.9341C142.048 72.9384 142.062 72.9384 142.079 72.947C142.14 72.9642 142.187 72.9814 142.3 73.0287C142.313 73.033 142.335 73.0416 142.348 73.0502C143.161 73.4073 144.69 74.3408 146.297 76.8275Z" fill="#FDBB3B"/>
<path d="M134.447 75.7822L135.49 71.536C135.525 71.5446 135.525 71.5231 135.52 71.4844C135.564 71.4887 135.607 71.493 135.651 71.4973C135.772 71.5145 135.894 71.5317 136.011 71.5446C136.354 71.5919 136.689 71.6436 137.019 71.6995C137.327 71.7511 137.627 71.807 137.922 71.8673L137.927 71.8716C138.179 71.9232 138.426 71.9748 138.67 72.0264C143.6 78.1656 134.447 75.7822 134.447 75.7822Z" fill="white"/>
<path d="M134.708 75.4209C134.708 75.4209 134.599 75.6317 134.391 75.9458C133.196 77.7182 128.644 82.756 120.955 71.463C121.511 71.3941 122.054 71.3339 122.575 71.278C122.81 71.2565 123.04 71.2349 123.266 71.2134C123.427 71.2005 123.587 71.1833 123.744 71.1704L134.43 75.3091L134.708 75.4209Z" fill="white"/>
<path d="M122.575 71.2821C122.81 71.2606 123.04 71.2391 123.266 71.2176C125.655 70.9982 127.423 70.9595 127.423 70.9595L132.436 71.3036C133.431 71.3036 134.395 71.3639 135.32 71.4628C135.55 71.4972 135.781 71.5317 136.002 71.5704C135.993 71.5704 138.739 80.9318 122.575 71.2821Z" fill="#E8776E"/>
<g opacity="0.5">
<path d="M132.731 67.1176C132.37 67.6553 134.668 68.3007 134.929 67.7758C135.189 67.2509 133.104 66.5626 132.731 67.1176Z" fill="#924541"/>
</g>
<path d="M151.305 93.5112C151.305 93.5112 149.885 94.4189 148.199 95.3482C147.118 95.9462 145.919 96.5528 144.915 96.9357C144.051 97.2626 143.326 97.4261 142.943 97.2712L141.853 75.438L141.723 72.8696C141.723 72.8696 141.727 72.8696 141.74 72.8739C141.744 72.8739 141.757 72.8782 141.766 72.8782C141.818 72.8868 141.905 72.9083 142.027 72.9471C142.04 72.9514 142.053 72.9514 142.07 72.96C142.135 72.9815 142.209 73.0116 142.292 73.0417C142.305 73.046 142.326 73.0546 142.339 73.0632C143.017 73.3515 144.186 74.0398 145.48 75.6832C145.749 76.0231 146.019 76.4017 146.297 76.8276C146.436 77.0384 146.57 77.2621 146.709 77.4987C148.477 80.4973 150.28 85.4232 151.305 93.5112Z" fill="#FDBB3B"/>
<path d="M143.348 82.2783C143.348 82.2783 146.132 90.2114 144.916 96.9356" stroke="#EC9E05" stroke-width="1.1065" stroke-miterlimit="10"/>
<path d="M143.921 84.2014L144.607 82.7559" stroke="#EC9E05" stroke-width="1.1065" stroke-miterlimit="10"/>
<path d="M113.726 73.9108C113.748 73.8936 113.77 73.8764 113.787 73.8634C113.935 73.7559 114.078 73.6569 114.208 73.5666C114.46 73.4763 114.708 73.3945 114.947 73.3257L119.36 74.7712C119.799 75.9414 118.009 85.6943 116.732 92.2335C116.624 92.7885 116.519 93.3219 116.415 93.821C116.233 94.733 116.072 95.5418 115.937 96.2087C115.924 96.2904 115.907 96.3635 115.894 96.441C115.677 97.5208 115.542 98.1618 115.542 98.1618L107.771 99.5342L107.71 99.5471C107.597 98.5533 107.506 97.5896 107.441 96.6518C107.406 96.1398 107.376 95.6408 107.349 95.1503C107.267 93.3563 107.271 91.6742 107.341 90.0996C107.562 85.1737 108.448 81.3319 109.421 78.514L113.726 73.9108Z" fill="#E8776E"/>
<path d="M115.46 96.2818L134.334 104.748L134.178 108.732C134.178 108.732 104.505 109.369 107.841 96.1914L115.46 96.2818Z" fill="#E8776E"/>
<path d="M140.058 108.784C140.058 108.784 141.527 108.995 142.813 109.675C144.103 110.354 144.298 108.926 143.147 108.311C143.147 108.311 143.846 108.474 144.65 108.986C145.454 109.498 146.005 108.625 145.614 108.074C145.614 108.074 146.179 108.367 146.544 107.855C146.909 107.343 146.37 106.71 146.153 106.521C146.153 106.521 147.374 105.708 145.167 104.396C142.96 103.084 139.911 102.133 135.749 103.57C132.887 104.559 132.452 106.624 132.943 107.79C133.838 109.907 137.365 110.677 140.058 108.784Z" fill="#E8776E"/>
<path d="M143.147 108.311C141.209 107.313 140.245 107.27 140.245 107.27" stroke="#924541" stroke-width="1.3836" stroke-miterlimit="10"/>
<path d="M145.615 108.074C142.691 106.151 141.075 106.069 141.075 106.069" stroke="#924541" stroke-width="1.3836" stroke-miterlimit="10"/>
<path d="M146.153 106.525C144.359 105.045 141.718 104.572 141.718 104.572" stroke="#924541" stroke-width="1.3836" stroke-miterlimit="10"/>
<path d="M116.823 96.8926L114.556 95.8687" stroke="#924541" stroke-width="1.3836" stroke-miterlimit="10"/>
<path d="M116.546 72.2588C116.546 72.2588 105.986 75.1154 103.519 95.2278C103.519 95.2278 112.98 96.1269 117.645 94.6255L120.959 74.4141L116.546 72.2588Z" fill="#FDBB3B"/>
<path d="M116.186 94.987L117.641 94.6213L118.47 82.8335" stroke="#EC9E05" stroke-width="1.1065" stroke-miterlimit="10"/>
<path d="M118.301 85.2555L119.578 83.8745" stroke="#EC9E05" stroke-width="1.1065" stroke-miterlimit="10"/>
<path d="M125.286 72.581C131.58 74.2287 135.26 75.6613 134.374 73.2048L134.178 72.254L134.13 72.0088L133.592 69.3501L133.07 66.7946L132.814 65.5556L126.103 64.9619L125.742 68.3133L125.595 69.6942L125.286 72.581Z" fill="#E8776E"/>
<path opacity="0.5" d="M125.595 69.6942C126.437 70.0212 132.575 72.3916 134.183 72.254L134.135 72.0088L133.596 69.35L126.046 65.5513L125.595 69.6942Z" fill="#924541"/>
<path d="M143.078 57.9194C143.061 58.1776 143.043 58.4271 143.022 58.6938C143.009 58.853 142.991 59.0165 142.974 59.1757C142.865 60.2125 142.7 61.1589 142.5 62.0065C142.253 63.0562 141.931 63.9682 141.571 64.7641C141.275 65.4051 140.945 65.973 140.589 66.472C138.3 69.6986 134.946 70.0471 132.727 69.8406C130.164 69.604 126.259 68.3607 124.986 63.224C124.599 61.6881 124.452 59.7952 124.651 57.4806C124.669 57.2397 124.691 57.0031 124.721 56.7708C124.743 56.5126 124.777 56.2588 124.812 56.0136C125.598 50.3649 128.209 46.0843 134.916 46.6995C141.692 47.3276 143.417 52.1288 143.078 57.9194Z" fill="#E8776E"/>
<path d="M135.807 63.8608L139.117 64.1792C136.428 63.7318 137.179 59.7007 137.179 59.7007" stroke="#924541" stroke-width="1.3836" stroke-miterlimit="10"/>
<path d="M141.05 59.9886C140.989 60.5995 140.594 61.0598 140.168 61.0168C139.742 60.9738 139.451 60.4446 139.512 59.8337C139.573 59.2228 139.968 58.7625 140.394 58.8055C140.819 58.8485 141.11 59.3777 141.05 59.9886Z" fill="#33324F"/>
<path d="M133.865 59.2659C133.804 59.8768 133.409 60.3372 132.983 60.2942C132.558 60.2511 132.267 59.722 132.327 59.1111C132.388 58.5002 132.783 58.0398 133.209 58.0829C133.635 58.1216 133.926 58.6507 133.865 59.2659Z" fill="#33324F"/>
<path d="M139.581 56.4914C139.038 57.2185 141.618 58.1004 142.039 57.3905C142.465 56.6764 140.141 55.7385 139.581 56.4914Z" fill="#33324F"/>
<path d="M133.877 55.5835C134.268 56.4009 131.566 56.7752 131.288 55.9965C131.01 55.2135 133.473 54.736 133.877 55.5835Z" fill="#33324F"/>
<path d="M132.787 64.3472C132.8 64.7946 132.939 65.2291 133.174 65.5948C133.508 66.1153 134.034 66.5111 134.685 66.6703C135.276 66.8123 135.871 66.7348 136.375 66.4939C136.823 66.2788 137.205 65.926 137.457 65.4829L132.787 64.3472Z" fill="#972A45"/>
<path d="M133.174 65.5949C133.508 66.1155 134.034 66.5113 134.686 66.6705C135.276 66.8124 135.871 66.735 136.375 66.4941C136.197 65.9692 135.645 65.5003 134.911 65.3196C134.242 65.1604 133.586 65.2809 133.174 65.5949Z" fill="#DC3C5E"/>
<path d="M144.16 56.7494C144.095 57.1323 144.012 57.5195 143.917 57.9239C143.695 58.8832 143.391 59.9071 143 60.9999C142.992 61.0214 142.987 61.0429 142.974 61.0687C141.754 59.1199 142.644 54.5166 142.644 54.5166C138.904 54.1466 136.476 51.2298 136.476 51.2298C133.822 52.4946 129.817 52.0644 129.817 52.0644C129.039 56.0223 127.323 57.9454 126.45 58.6982C126.242 58.8789 125.92 58.7284 125.92 58.4573L125.912 57.1581L124.27 56.2503L125.169 52.7097L126.25 49.3756L131.024 46.3555L138.413 46.7685L140.928 49.0099L143.726 52.3053L144.16 56.7494Z" fill="#33324F"/>
<path d="M127.015 57.4551C126.862 57.2314 126.663 57.0335 126.411 56.8614C125.69 56.371 124.942 56.1559 124.269 56.2462C124.091 56.272 123.913 56.315 123.748 56.3882C123.457 56.5086 123.183 56.6936 122.949 56.9561C122.771 57.1497 122.61 57.3906 122.471 57.6659C122.106 58.4059 122.01 59.1673 122.145 59.8858C122.31 60.7505 122.814 61.555 123.592 62.1874C123.822 62.3767 124.078 62.5187 124.343 62.6133C125.199 62.9274 126.163 62.7725 126.697 62.1229C126.758 62.0842 126.815 62.0326 126.854 61.9637C126.884 61.9207 126.91 61.8691 126.928 61.8132C126.936 61.7787 126.949 61.7486 126.958 61.7099C126.958 61.7099 126.958 61.7056 126.962 61.7013C127.032 61.4776 127.106 61.2367 127.175 60.9871C127.327 60.4322 127.449 59.8299 127.458 59.2491C127.479 58.6038 127.366 57.9714 127.015 57.4551Z" fill="#E8776E"/>
<path d="M125.65 61.3314C125.65 61.3314 126.932 57.197 123.617 58.2553" stroke="#924541" stroke-width="1.3836" stroke-miterlimit="10"/>
<path d="M125.881 60.0624L124.447 59.4214" stroke="#924541" stroke-width="1.3836" stroke-miterlimit="10"/>
<path d="M130.151 50.4853L129.208 50.7176C129.099 50.7434 129.043 50.8553 129.078 50.9585L129.907 53.2559C129.938 53.3376 130.025 53.3892 130.111 53.3763L130.385 53.3333C130.481 53.3204 130.546 53.2343 130.541 53.1397L130.385 50.6531C130.372 50.5369 130.263 50.4552 130.151 50.4853Z" fill="white"/>
<path d="M143.795 53.3593L142.952 52.8817C142.857 52.8258 142.735 52.8688 142.691 52.9678L141.688 55.1963C141.653 55.278 141.679 55.3726 141.753 55.42L141.979 55.5748C142.057 55.6308 142.166 55.6136 142.227 55.5404L143.847 53.6346C143.921 53.5528 143.895 53.4195 143.795 53.3593Z" fill="white"/>
<path d="M134.773 76.0055C134.747 75.8464 134.604 75.7904 134.478 75.8162C134.387 75.7517 134.252 75.7431 134.161 75.8507C133.044 77.1757 132.163 78.8148 131.98 80.5572C131.871 81.594 132.071 83.061 133.192 83.517C134.213 83.93 134.982 82.8803 135.26 82.0242C135.85 80.1872 135.056 77.8425 134.773 76.0055ZM132.858 82.648C132.076 81.822 132.454 80.1958 132.762 79.2493C133.105 78.1953 133.661 77.2489 134.352 76.3841C134.526 77.4855 134.712 78.5868 134.856 79.6925C134.925 80.213 134.995 80.7551 134.93 81.2799C134.843 81.9941 134.156 84.0204 132.858 82.648Z" fill="white"/>
<path d="M136.458 81.8007C137.032 82.4891 138.144 83.186 138.934 82.4245C139.803 81.5899 139.443 80.153 138.952 79.2281C138.126 77.6793 136.693 76.4833 135.16 75.6616C135.029 75.5928 134.912 75.653 134.851 75.7434C134.725 75.7649 134.612 75.8724 134.647 76.0273C135.077 77.8428 135.216 80.3079 136.458 81.8007ZM136.48 80.9833C136.219 80.5187 136.085 79.9895 135.955 79.4819C135.672 78.4021 135.433 77.3093 135.181 76.2252C136.146 76.7716 137.019 77.447 137.731 78.2988C138.37 79.0646 139.334 80.4327 138.917 81.4867C138.226 83.2463 136.832 81.6157 136.48 80.9833Z" fill="white"/>
<path d="M135.737 79.1035C135.72 78.8023 135.242 78.798 135.259 79.1035C135.52 83.1044 135.45 87.1054 135.055 91.0935C135.025 91.3946 135.503 91.3946 135.533 91.0935C135.928 87.1054 135.998 83.1044 135.737 79.1035Z" fill="white"/>
<path d="M135.16 79.5507C135.073 79.2625 135.52 79.099 135.607 79.3915C136.736 83.2419 138.179 86.9805 139.92 90.5985C140.051 90.8739 139.603 91.0331 139.473 90.7577C137.731 87.1396 136.293 83.4011 135.16 79.5507Z" fill="white"/>
<path d="M101.639 105.686H100.019V109.123H101.639V105.686Z" fill="white"/>
<path d="M101.639 111.842H100.019V115.28H101.639V111.842Z" fill="white"/>
<path d="M102.438 109.628V111.233H105.909V109.628H102.438Z" fill="white"/>
<path d="M95.8691 109.627V111.232H99.3399V109.627H95.8691Z" fill="white"/>
<path d="M98.302 133C152.593 133 196.604 128.316 196.604 122.537C196.604 116.759 152.593 112.075 98.302 112.075C44.0113 112.075 0 116.759 0 122.537C0 128.316 44.0113 133 98.302 133Z" fill="#F47394"/>
<path d="M13.2666 120.016V120.803C13.2666 121.797 14.0528 122.619 15.0563 122.671L55.5543 124.817C56.6446 124.873 57.7306 124.705 58.7514 124.318L73.0731 118.893C73.8029 118.618 74.2851 117.921 74.2851 117.147V115.06L13.2666 120.016Z" fill="#E2E4E4"/>
<path d="M57.2049 121.496L74.2851 115.064L25.4903 113.619L13.2666 120.016L57.2049 121.496Z" fill="#CDCDCD"/>
<path d="M65.8449 117.353L63.4254 118.244L63.0301 118.394L60.6105 119.285L60.2109 119.431L57.0399 120.605L56.4057 119.319L56.3535 119.212L56.3231 119.156L56.2797 119.065L55.2676 117.013L61.3403 117.207L61.7791 117.22H61.7834L65.8449 117.353Z" fill="#3F3E58"/>
<path d="M63.4257 118.244L63.0304 118.394L58.9297 118.265L58.4867 118.252L56.3799 118.192L56.3842 118.033L58.882 118.11L59.3294 118.119L63.4257 118.244Z" fill="#CDCDCD"/>
<path d="M60.6112 119.284L60.2115 119.431L56.4063 119.319L56.3541 119.211L56.276 119.241L56.2412 119.151L56.3237 119.155L56.4932 119.164L60.6112 119.284Z" fill="#CDCDCD"/>
<path d="M61.7794 117.219L59.3294 118.119L58.9298 118.265L56.4929 119.164L56.3538 119.211L56.2757 119.241L56.2409 119.151L56.2148 119.087L56.28 119.065L58.4867 118.252L58.882 118.11L61.3406 117.207L61.7794 117.219Z" fill="#CDCDCD"/>
<path d="M57.1961 121.728L13.2577 120.248L9.52634 93.8892C9.12671 91.0584 11.0858 88.8428 13.905 88.9375L47.6352 90.0733C50.4544 90.1679 53.065 92.5384 53.4647 95.3692L57.1961 121.728Z" fill="#E2E4E4"/>
<path d="M31.7151 111.593C33.4616 111.593 34.8774 110.19 34.8774 108.461C34.8774 106.731 33.4616 105.329 31.7151 105.329C29.9686 105.329 28.5527 106.731 28.5527 108.461C28.5527 110.19 29.9686 111.593 31.7151 111.593Z" fill="#FDBB3B"/>
<path d="M194.571 113.524H142.961L147.222 79.1504H198.832L194.571 113.524Z" fill="#00B0D1"/>
<path d="M196.738 113.524H145.124L149.385 79.1504H200.999L196.738 113.524Z" fill="#0088BB"/>
<path d="M164.711 121.569L175.314 118.751L176.435 121.918L164.711 121.569Z" fill="#0088BB"/>
<path d="M167.96 99.9209H176.335L181.743 117.676C182.594 120.476 180.479 123.294 177.53 123.294H174.476L167.96 99.9209Z" fill="#00B0D1"/>
<path d="M169.45 99.9209H177.825L183.624 118.949C184.285 121.113 182.647 123.299 180.362 123.299H175.966L169.45 99.9209Z" fill="#006891"/>
<path d="M176.435 121.561H164.711V123.294H176.435V121.561Z" fill="#006891"/>
<path d="M176.602 93.4411C177.065 91.5082 175.858 89.57 173.906 89.1119C171.954 88.6539 169.997 89.8495 169.535 91.7824C169.072 93.7153 170.279 95.6535 172.231 96.1116C174.183 96.5696 176.14 95.374 176.602 93.4411Z" fill="#00B0D1"/>
<path d="M130.611 115.615H125.794V117.512H130.611V115.615Z" fill="#00B0D1"/>
<path d="M137.187 115.615H132.37V117.512H137.187V115.615Z" fill="#00B0D1"/>
<path d="M143.765 115.615H138.947V117.512H143.765V115.615Z" fill="#00B0D1"/>
<path d="M150.346 115.615H145.528V117.512H150.346V115.615Z" fill="#00B0D1"/>
<path d="M156.922 115.615H152.104V117.512H156.922V115.615Z" fill="#00B0D1"/>
<path d="M163.499 115.615H158.682V117.512H163.499V115.615Z" fill="#00B0D1"/>
<path d="M170.08 115.615H165.263V117.512H170.08V115.615Z" fill="#00B0D1"/>
<path d="M171.04 116.85H124.747V119.457H171.04V116.85Z" fill="#006891"/>
<path d="M122.028 119.436H105.36C104.948 119.436 104.674 119.023 104.835 118.648C105.955 115.99 110.538 108.091 122.414 118.446C122.805 118.79 122.553 119.436 122.028 119.436Z" fill="#0088BB"/>
<path d="M122.41 118.446L116.537 114.419" stroke="#00B0D1" stroke-width="2" stroke-miterlimit="10"/>
</g>
<defs>
<clipPath id="clip0_77_6726">
<rect width="201" height="133" fill="white"/>
</clipPath>
</defs>
</svg>
