<svg xmlns="http://www.w3.org/2000/svg" xmlns:xlink="http://www.w3.org/1999/xlink" width="1080" zoomAndPan="magnify" viewBox="0 0 810 809.999993" height="1080" preserveAspectRatio="xMidYMid meet" version="1.0"><defs><clipPath id="3ad27a630d"><path d="M 17.355469 0 L 792.855469 0 L 792.855469 810 L 17.355469 810 Z M 17.355469 0 " clip-rule="nonzero"/></clipPath><clipPath id="390f4f4c2a"><path d="M 185 150 L 614 150 L 614 674.542969 L 185 674.542969 Z M 185 150 " clip-rule="nonzero"/></clipPath></defs><g clip-path="url(#3ad27a630d)"><path fill="#e49f64" d="M 792.855469 405 C 792.855469 411.628906 792.703125 418.253906 792.390625 424.871094 C 792.078125 431.492188 791.613281 438.101562 790.988281 444.695312 C 790.367188 451.292969 789.589844 457.867188 788.660156 464.425781 C 787.730469 470.980469 786.644531 477.511719 785.40625 484.011719 C 784.167969 490.511719 782.777344 496.976562 781.238281 503.40625 C 779.695312 509.835938 778.003906 516.222656 776.160156 522.5625 C 774.320312 528.90625 772.328125 535.199219 770.191406 541.4375 C 768.054688 547.679688 765.769531 553.863281 763.339844 559.984375 C 760.914062 566.109375 758.34375 572.167969 755.628906 578.15625 C 752.914062 584.148438 750.0625 590.066406 747.070312 595.914062 C 744.082031 601.757812 740.953125 607.523438 737.691406 613.210938 C 734.429688 618.894531 731.035156 624.492188 727.507812 630.003906 C 723.984375 635.515625 720.332031 640.933594 716.550781 646.253906 C 712.769531 651.578125 708.867188 656.804688 704.84375 661.925781 C 700.816406 667.050781 696.671875 672.066406 692.410156 676.976562 C 688.148438 681.890625 683.773438 686.6875 679.289062 691.375 C 674.800781 696.0625 670.207031 700.628906 665.503906 705.082031 C 660.800781 709.53125 656 713.859375 651.09375 718.066406 C 646.1875 722.269531 641.1875 726.347656 636.089844 730.296875 C 630.992188 734.242188 625.804688 738.058594 620.53125 741.742188 C 615.253906 745.421875 609.894531 748.96875 604.449219 752.375 C 599.007812 755.785156 593.488281 759.050781 587.890625 762.175781 C 582.292969 765.296875 576.628906 768.277344 570.890625 771.113281 C 565.15625 773.945312 559.355469 776.628906 553.492188 779.167969 C 547.628906 781.703125 541.710938 784.089844 535.734375 786.320312 C 529.761719 788.554688 523.738281 790.632812 517.664062 792.554688 C 511.59375 794.480469 505.476562 796.246094 499.324219 797.859375 C 493.167969 799.46875 486.976562 800.921875 480.753906 802.214844 C 474.53125 803.507812 468.277344 804.640625 462 805.613281 C 455.726562 806.585938 449.429688 807.394531 443.113281 808.046875 C 436.796875 808.695312 430.472656 809.183594 424.132812 809.507812 C 417.796875 809.832031 411.453125 809.996094 405.105469 809.996094 C 398.761719 809.996094 392.417969 809.832031 386.082031 809.507812 C 379.742188 809.183594 373.417969 808.695312 367.101562 808.046875 C 360.785156 807.394531 354.488281 806.585938 348.210938 805.613281 C 341.933594 804.640625 335.683594 803.507812 329.460938 802.214844 C 323.238281 800.921875 317.046875 799.46875 310.890625 797.859375 C 304.734375 796.246094 298.621094 794.480469 292.550781 792.554688 C 286.476562 790.632812 280.453125 788.554688 274.476562 786.320312 C 268.503906 784.089844 262.585938 781.703125 256.722656 779.167969 C 250.859375 776.628906 245.058594 773.945312 239.324219 771.113281 C 233.585938 768.277344 227.917969 765.296875 222.324219 762.175781 C 216.726562 759.050781 211.207031 755.785156 205.765625 752.375 C 200.320312 748.96875 194.960938 745.421875 189.683594 741.742188 C 184.410156 738.058594 179.222656 734.242188 174.125 730.296875 C 169.027344 726.347656 164.027344 722.269531 159.121094 718.066406 C 154.214844 713.859375 149.410156 709.53125 144.710938 705.082031 C 140.007812 700.628906 135.414062 696.0625 130.925781 691.375 C 126.4375 686.6875 122.066406 681.890625 117.804688 676.976562 C 113.542969 672.066406 109.398438 667.050781 105.371094 661.925781 C 101.347656 656.804688 97.445312 651.578125 93.664062 646.253906 C 89.882812 640.933594 86.230469 635.515625 82.703125 630.003906 C 79.179688 624.492188 75.785156 618.894531 72.523438 613.210938 C 69.261719 607.523438 66.132812 601.757812 63.140625 595.914062 C 60.152344 590.066406 57.296875 584.148438 54.585938 578.15625 C 51.871094 572.167969 49.300781 566.109375 46.871094 559.984375 C 44.445312 553.863281 42.160156 547.679688 40.023438 541.4375 C 37.886719 535.199219 35.894531 528.90625 34.054688 522.5625 C 32.210938 516.222656 30.519531 509.835938 28.976562 503.40625 C 27.4375 496.976562 26.046875 490.511719 24.808594 484.011719 C 23.570312 477.511719 22.484375 470.980469 21.554688 464.425781 C 20.621094 457.867188 19.847656 451.292969 19.222656 444.695312 C 18.601562 438.101562 18.136719 431.492188 17.824219 424.871094 C 17.511719 418.253906 17.355469 411.628906 17.355469 405 C 17.355469 398.371094 17.511719 391.746094 17.824219 385.128906 C 18.136719 378.507812 18.601562 371.898438 19.222656 365.304688 C 19.847656 358.707031 20.621094 352.132812 21.554688 345.574219 C 22.484375 339.019531 23.570312 332.488281 24.808594 325.988281 C 26.046875 319.488281 27.4375 313.023438 28.976562 306.59375 C 30.519531 300.164062 32.210938 293.777344 34.054688 287.4375 C 35.894531 281.09375 37.886719 274.800781 40.023438 268.5625 C 42.160156 262.320312 44.445312 256.136719 46.871094 250.015625 C 49.300781 243.890625 51.871094 237.832031 54.585938 231.84375 C 57.296875 225.851562 60.152344 219.933594 63.140625 214.085938 C 66.132812 208.242188 69.261719 202.476562 72.523438 196.789062 C 75.785156 191.105469 79.179688 185.507812 82.703125 179.996094 C 86.230469 174.484375 89.882812 169.066406 93.664062 163.746094 C 97.445312 158.421875 101.347656 153.195312 105.371094 148.074219 C 109.398438 142.949219 113.542969 137.933594 117.804688 133.023438 C 122.066406 128.109375 126.4375 123.3125 130.925781 118.625 C 135.414062 113.9375 140.007812 109.371094 144.710938 104.917969 C 149.410156 100.46875 154.214844 96.140625 159.121094 91.933594 C 164.027344 87.730469 169.027344 83.652344 174.125 79.703125 C 179.222656 75.757812 184.410156 71.941406 189.683594 68.257812 C 194.960938 64.574219 200.320312 61.03125 205.765625 57.625 C 211.207031 54.214844 216.726562 50.949219 222.324219 47.824219 C 227.917969 44.703125 233.585938 41.722656 239.324219 38.886719 C 245.058594 36.054688 250.859375 33.371094 256.722656 30.832031 C 262.585938 28.296875 268.503906 25.910156 274.476562 23.679688 C 280.453125 21.445312 286.476562 19.367188 292.550781 17.445312 C 298.621094 15.519531 304.734375 13.753906 310.890625 12.140625 C 317.046875 10.53125 323.238281 9.078125 329.460938 7.785156 C 335.683594 6.492188 341.933594 5.359375 348.210938 4.386719 C 354.488281 3.414062 360.785156 2.605469 367.101562 1.953125 C 373.417969 1.304688 379.742188 0.816406 386.082031 0.492188 C 392.417969 0.167969 398.761719 0.00390625 405.105469 0.00390625 C 411.453125 0.00390625 417.796875 0.167969 424.132812 0.492188 C 430.472656 0.816406 436.796875 1.304688 443.113281 1.953125 C 449.429688 2.605469 455.726562 3.414062 462 4.386719 C 468.277344 5.359375 474.53125 6.492188 480.753906 7.785156 C 486.976562 9.078125 493.167969 10.53125 499.324219 12.140625 C 505.476562 13.753906 511.59375 15.519531 517.664062 17.445312 C 523.738281 19.367188 529.761719 21.445312 535.734375 23.679688 C 541.710938 25.910156 547.628906 28.296875 553.492188 30.832031 C 559.355469 33.371094 565.15625 36.054688 570.890625 38.886719 C 576.628906 41.722656 582.292969 44.703125 587.890625 47.824219 C 593.488281 50.949219 599.007812 54.214844 604.449219 57.625 C 609.894531 61.03125 615.253906 64.574219 620.53125 68.257812 C 625.804688 71.941406 630.992188 75.757812 636.089844 79.703125 C 641.1875 83.652344 646.1875 87.730469 651.09375 91.933594 C 656 96.140625 660.800781 100.46875 665.503906 104.917969 C 670.207031 109.371094 674.800781 113.9375 679.289062 118.625 C 683.773438 123.3125 688.148438 128.109375 692.410156 133.023438 C 696.671875 137.933594 700.816406 142.949219 704.84375 148.074219 C 708.867188 153.195312 712.769531 158.421875 716.550781 163.746094 C 720.332031 169.066406 723.984375 174.484375 727.507812 179.996094 C 731.035156 185.507812 734.429688 191.105469 737.691406 196.789062 C 740.953125 202.476562 744.082031 208.242188 747.070312 214.085938 C 750.0625 219.933594 752.914062 225.851562 755.628906 231.84375 C 758.34375 237.832031 760.914062 243.890625 763.339844 250.015625 C 765.769531 256.136719 768.054688 262.320312 770.191406 268.5625 C 772.328125 274.800781 774.320312 281.09375 776.160156 287.4375 C 778.003906 293.777344 779.695312 300.164062 781.238281 306.59375 C 782.777344 313.023438 784.167969 319.488281 785.40625 325.988281 C 786.644531 332.488281 787.730469 339.019531 788.660156 345.574219 C 789.589844 352.132812 790.367188 358.707031 790.988281 365.304688 C 791.613281 371.898438 792.078125 378.507812 792.390625 385.128906 C 792.703125 391.746094 792.855469 398.371094 792.855469 405 Z M 792.855469 405 " fill-opacity="1" fill-rule="nonzero"/></g><g clip-path="url(#390f4f4c2a)"><path fill="#ffffff" d="M 404.257812 265.507812 L 389.382812 352.5 L 556.726562 352.5 L 536.644531 463.28125 L 369.300781 463.28125 L 352.195312 558.449219 L 541.851562 558.449219 L 521.769531 674.4375 L 185.597656 674.4375 L 278.566406 150.265625 L 613.996094 150.265625 L 593.914062 265.507812 Z M 404.257812 265.507812 " fill-opacity="1" fill-rule="nonzero"/></g></svg>