<svg width="320" height="148" viewBox="0 0 320 148" fill="none" xmlns="http://www.w3.org/2000/svg">
<path d="M16.0129 33.7014L19.3781 42.2758C19.6356 42.9321 20.1932 43.3818 20.8332 43.4461L29.0311 44.2672C29.9587 44.418 30.3287 45.6888 29.6562 46.4206L23.4808 52.216C22.9808 52.6852 22.7533 53.4225 22.8908 54.1347L24.6859 63.5219C24.8434 64.5525 23.8759 65.3401 23.0458 64.8514L15.8904 60.1704C15.3404 59.8101 14.6604 59.8101 14.1103 60.1704L6.95497 64.8486C6.12742 65.3346 5.15737 64.5497 5.31488 63.5191L7.10997 54.132C7.24498 53.4197 7.01997 52.6824 6.51994 52.2132L0.342114 46.4234C-0.327921 45.6944 0.0420983 44.4208 0.967148 44.27L9.16508 43.4488C9.80512 43.3846 10.3626 42.9349 10.6202 42.2786L13.9853 33.7042C14.4029 32.7657 15.5979 32.7657 16.0129 33.7014Z" fill="#FFAE00"/>
<rect x="146.41" y="2.92578" width="173.181" height="9.04609" rx="4.52305" fill="#DADADA"/>
<rect x="148.09" y="36.1003" width="171.5" height="9.04609" rx="4.52305" fill="#DADADA"/>
<rect x="148.09" y="69.7241" width="171.5" height="9.04609" rx="4.52305" fill="#DADADA"/>
<rect x="146.41" y="103.125" width="173.181" height="9.04609" rx="4.52305" fill="#DADADA"/>
<rect x="146.41" y="2.92578" width="26.5597" height="9.04609" rx="4.52305" fill="#3A36DB"/>
<rect x="146.41" y="36.3257" width="35.2424" height="9.04609" rx="4.52305" fill="#3A36DB"/>
<rect x="146.41" y="103.125" width="107.214" height="9.04609" rx="4.52305" fill="#3A36DB"/>
<rect x="146.41" y="69.7246" width="50.9286" height="9.04609" rx="4.52305" fill="#3A36DB"/>
<path d="M36.4 41.7855C36.5867 39.3322 37.5333 37.4122 39.24 36.0255C40.9467 34.6389 43.16 33.9455 45.88 33.9455C47.6933 33.9455 49.2533 34.2789 50.56 34.9455C51.8933 35.5855 52.8933 36.4655 53.56 37.5855C54.2533 38.7055 54.6 39.9722 54.6 41.3855C54.6 43.0389 54.12 44.4655 53.16 45.6655C52.2267 46.8655 51 47.6389 49.48 47.9855V48.1855C51.2133 48.6122 52.5867 49.4522 53.6 50.7055C54.6133 51.9589 55.12 53.5989 55.12 55.6255C55.12 57.1455 54.7733 58.5189 54.08 59.7455C53.3867 60.9455 52.3467 61.8922 50.96 62.5855C49.5733 63.2789 47.9067 63.6255 45.96 63.6255C43.1333 63.6255 40.8133 62.8922 39 61.4255C37.1867 59.9322 36.1733 57.8255 35.96 55.1055H39.48C39.6667 56.7055 40.32 58.0122 41.44 59.0255C42.56 60.0389 44.0533 60.5455 45.92 60.5455C47.7867 60.5455 49.2 60.0655 50.16 59.1055C51.1467 58.1189 51.64 56.8522 51.64 55.3055C51.64 53.3055 50.9733 51.8655 49.64 50.9855C48.3067 50.1055 46.2933 49.6655 43.6 49.6655H42.68V46.6255H43.64C46.0933 46.5989 47.9467 46.1989 49.2 45.4255C50.4533 44.6255 51.08 43.3989 51.08 41.7455C51.08 40.3322 50.6133 39.1989 49.68 38.3455C48.7733 37.4922 47.4667 37.0655 45.76 37.0655C44.1067 37.0655 42.7733 37.4922 41.76 38.3455C40.7467 39.1989 40.1467 40.3455 39.96 41.7855H36.4ZM64.3947 58.3855L59.9147 69.1455H57.4747L60.3947 58.3855H64.3947ZM72.6444 55.6655C72.911 57.1855 73.5244 58.3589 74.4844 59.1855C75.471 60.0122 76.791 60.4255 78.4444 60.4255C80.6577 60.4255 82.2844 59.5589 83.3244 57.8255C84.391 56.0922 84.8977 53.1722 84.8444 49.0655C84.2844 50.2655 83.351 51.2122 82.0444 51.9055C80.7377 52.5722 79.2844 52.9055 77.6844 52.9055C75.8977 52.9055 74.2977 52.5455 72.8844 51.8255C71.4977 51.0789 70.4044 49.9989 69.6044 48.5855C68.8044 47.1722 68.4044 45.4655 68.4044 43.4655C68.4044 40.6122 69.231 38.3189 70.8844 36.5855C72.5377 34.8255 74.8844 33.9455 77.9244 33.9455C81.6577 33.9455 84.271 35.1589 85.7644 37.5855C87.2844 40.0122 88.0444 43.6255 88.0444 48.4255C88.0444 51.7855 87.7377 54.5589 87.1244 56.7455C86.5377 58.9322 85.5244 60.5989 84.0844 61.7455C82.671 62.8922 80.7244 63.4655 78.2444 63.4655C75.5244 63.4655 73.4044 62.7322 71.8844 61.2655C70.3644 59.7989 69.4977 57.9322 69.2844 55.6655H72.6444ZM78.2844 49.8255C80.071 49.8255 81.5377 49.2789 82.6844 48.1855C83.831 47.0655 84.4044 45.5589 84.4044 43.6655C84.4044 41.6655 83.8444 40.0522 82.7244 38.8255C81.6044 37.5989 80.031 36.9855 78.0044 36.9855C76.1377 36.9855 74.6444 37.5722 73.5244 38.7455C72.431 39.9189 71.8844 41.4655 71.8844 43.3855C71.8844 45.3322 72.431 46.8922 73.5244 48.0655C74.6177 49.2389 76.2044 49.8255 78.2844 49.8255Z" fill="black"/>
<path d="M127.974 15.352C127.307 15.352 126.707 15.2194 126.173 14.9542C125.638 14.6891 125.21 14.3254 124.888 13.8633C124.567 13.4012 124.39 12.8747 124.36 12.2838H125.724C125.777 12.8103 126.015 13.2459 126.44 13.5906C126.868 13.9315 127.379 14.102 127.974 14.102C128.451 14.102 128.875 13.9902 129.246 13.7667C129.621 13.5432 129.915 13.2364 130.127 12.8463C130.343 12.4523 130.451 12.0073 130.451 11.5111C130.451 11.0035 130.339 10.5508 130.116 10.1531C129.896 9.75158 129.593 9.4353 129.207 9.20423C128.82 8.97317 128.379 8.85575 127.883 8.85196C127.527 8.84817 127.161 8.9031 126.786 9.01673C126.411 9.12658 126.103 9.26863 125.86 9.44287L124.542 9.28378L125.246 3.55651H131.292V4.80651H126.428L126.019 8.23833H126.087C126.326 8.04893 126.625 7.89173 126.985 7.76673C127.345 7.64173 127.72 7.57923 128.11 7.57923C128.822 7.57923 129.457 7.74969 130.013 8.0906C130.574 8.42772 131.013 8.88984 131.332 9.47696C131.654 10.0641 131.815 10.7345 131.815 11.4883C131.815 12.2307 131.648 12.8936 131.315 13.477C130.985 14.0565 130.531 14.5148 129.951 14.852C129.371 15.1853 128.712 15.352 127.974 15.352ZM123.799 32.8065V31.6474L128.913 23.5565H129.754V25.352H129.185L125.322 31.4656V31.5565H132.208V32.8065H123.799ZM129.276 35.1929V32.4542V31.9145V23.5565H130.617V35.1929H129.276ZM128.043 55.352C127.293 55.352 126.624 55.2232 126.037 54.9656C125.454 54.708 124.99 54.3501 124.645 53.8917C124.304 53.4296 124.118 52.8936 124.088 52.2838H125.52C125.55 52.6588 125.679 52.9826 125.906 53.2554C126.134 53.5243 126.431 53.7326 126.798 53.8804C127.166 54.0281 127.573 54.102 128.02 54.102C128.52 54.102 128.963 54.0148 129.349 53.8406C129.736 53.6664 130.039 53.4239 130.259 53.1133C130.478 52.8027 130.588 52.4429 130.588 52.0338C130.588 51.6057 130.482 51.2289 130.27 50.9031C130.058 50.5736 129.747 50.316 129.338 50.1304C128.929 49.9448 128.429 49.852 127.838 49.852H126.906V48.602H127.838C128.3 48.602 128.705 48.5186 129.054 48.352C129.406 48.1853 129.681 47.9504 129.878 47.6474C130.079 47.3444 130.179 46.9883 130.179 46.5792C130.179 46.1853 130.092 45.8425 129.918 45.5508C129.743 45.2592 129.497 45.0319 129.179 44.869C128.865 44.7061 128.493 44.6247 128.065 44.6247C127.664 44.6247 127.285 44.6986 126.929 44.8463C126.577 44.9902 126.289 45.2004 126.065 45.477C125.842 45.7497 125.721 46.0792 125.702 46.4656H124.338C124.361 45.8557 124.545 45.3217 124.889 44.8633C125.234 44.4012 125.685 44.0414 126.241 43.7838C126.802 43.5262 127.418 43.3974 128.088 43.3974C128.808 43.3974 129.425 43.5432 129.94 43.8349C130.455 44.1228 130.851 44.5035 131.128 44.977C131.404 45.4504 131.543 45.9618 131.543 46.5111C131.543 47.1664 131.37 47.7251 131.026 48.1872C130.685 48.6493 130.221 48.9694 129.634 49.1474V49.2383C130.368 49.3595 130.942 49.672 131.355 50.1758C131.768 50.6758 131.974 51.2951 131.974 52.0338C131.974 52.6664 131.802 53.2345 131.457 53.7383C131.116 54.2383 130.651 54.6323 130.06 54.9201C129.469 55.208 128.796 55.352 128.043 55.352ZM124.361 75.1929V74.1701L128.202 69.9656C128.652 69.4732 129.024 69.0451 129.315 68.6815C129.607 68.3141 129.823 67.9694 129.963 67.6474C130.107 67.3217 130.179 66.9807 130.179 66.6247C130.179 66.2156 130.08 65.8614 129.884 65.5622C129.69 65.2629 129.425 65.0319 129.088 64.869C128.751 64.7061 128.372 64.6247 127.952 64.6247C127.505 64.6247 127.115 64.7175 126.781 64.9031C126.452 65.0849 126.196 65.3406 126.014 65.6701C125.836 65.9997 125.747 66.3861 125.747 66.8292H124.406C124.406 66.1474 124.563 65.5489 124.878 65.0338C125.192 64.5186 125.62 64.1171 126.162 63.8292C126.707 63.5414 127.319 63.3974 127.997 63.3974C128.679 63.3974 129.283 63.5414 129.81 63.8292C130.336 64.1171 130.749 64.5054 131.048 64.994C131.348 65.4826 131.497 66.0262 131.497 66.6247C131.497 67.0527 131.42 67.4713 131.264 67.8804C131.113 68.2857 130.848 68.7383 130.469 69.2383C130.094 69.7345 129.573 70.3406 128.906 71.0565L126.293 73.852V73.9429H131.702V75.1929H124.361ZM129.577 83.5565V95.1929H128.168V85.0338H128.099L125.259 86.9201V85.4883L128.168 83.5565H129.577Z" fill="#87796F"/>
<path d="M30.714 99.8735C31.8993 98.9215 32.828 98.1422 33.5 97.5355C34.172 96.9195 34.7367 96.2802 35.194 95.6175C35.6607 94.9455 35.894 94.2875 35.894 93.6435C35.894 93.0368 35.7447 92.5608 35.446 92.2155C35.1567 91.8608 34.6853 91.6835 34.032 91.6835C33.3973 91.6835 32.9027 91.8842 32.548 92.2855C32.2027 92.6775 32.016 93.2048 31.988 93.8675H30.756C30.7933 92.8222 31.1107 92.0148 31.708 91.4455C32.3053 90.8762 33.0753 90.5915 34.018 90.5915C34.9793 90.5915 35.74 90.8575 36.3 91.3895C36.8693 91.9215 37.154 92.6542 37.154 93.5875C37.154 94.3622 36.9207 95.1182 36.454 95.8555C35.9967 96.5835 35.474 97.2275 34.886 97.7875C34.298 98.3382 33.5467 98.9822 32.632 99.7195H37.448V100.784H30.714V99.8735ZM38.9207 95.7295C38.9207 94.1242 39.1821 92.8735 39.7047 91.9775C40.2274 91.0722 41.1421 90.6195 42.4487 90.6195C43.7461 90.6195 44.6561 91.0722 45.1787 91.9775C45.7014 92.8735 45.9627 94.1242 45.9627 95.7295C45.9627 97.3628 45.7014 98.6322 45.1787 99.5375C44.6561 100.443 43.7461 100.896 42.4487 100.896C41.1421 100.896 40.2274 100.443 39.7047 99.5375C39.1821 98.6322 38.9207 97.3628 38.9207 95.7295ZM44.7027 95.7295C44.7027 94.9175 44.6467 94.2315 44.5347 93.6715C44.4321 93.1022 44.2127 92.6448 43.8767 92.2995C43.5501 91.9542 43.0741 91.7815 42.4487 91.7815C41.8141 91.7815 41.3287 91.9542 40.9927 92.2995C40.6661 92.6448 40.4467 93.1022 40.3347 93.6715C40.2321 94.2315 40.1807 94.9175 40.1807 95.7295C40.1807 96.5695 40.2321 97.2742 40.3347 97.8435C40.4467 98.4128 40.6661 98.8702 40.9927 99.2155C41.3287 99.5608 41.8141 99.7335 42.4487 99.7335C43.0741 99.7335 43.5501 99.5608 43.8767 99.2155C44.2127 98.8702 44.4321 98.4128 44.5347 97.8435C44.6467 97.2742 44.7027 96.5695 44.7027 95.7295ZM52.9002 91.1375V97.3115C52.9002 98.1795 53.1102 98.8235 53.5302 99.2435C53.9595 99.6635 54.5522 99.8735 55.3082 99.8735C56.0548 99.8735 56.6382 99.6635 57.0582 99.2435C57.4875 98.8235 57.7022 98.1795 57.7022 97.3115V91.1375H58.9762V97.2975C58.9762 98.1095 58.8128 98.7955 58.4862 99.3555C58.1595 99.9062 57.7162 100.317 57.1562 100.588C56.6055 100.858 55.9848 100.994 55.2942 100.994C54.6035 100.994 53.9782 100.858 53.4182 100.588C52.8675 100.317 52.4288 99.9062 52.1022 99.3555C51.7848 98.7955 51.6262 98.1095 51.6262 97.2975V91.1375H52.9002ZM62.3754 90.5355V100.896H61.1014V90.5355H62.3754ZM64.0708 97.0315C64.0708 96.2475 64.2294 95.5615 64.5468 94.9735C64.8641 94.3762 65.2981 93.9142 65.8488 93.5875C66.4088 93.2608 67.0294 93.0975 67.7108 93.0975C68.3828 93.0975 68.9661 93.2422 69.4608 93.5315C69.9554 93.8208 70.3241 94.1848 70.5668 94.6235V93.2235H71.8548V100.896H70.5668V99.4675C70.3148 99.9155 69.9368 100.289 69.4328 100.588C68.9381 100.877 68.3594 101.022 67.6968 101.022C67.0154 101.022 66.3994 100.854 65.8488 100.518C65.2981 100.182 64.8641 99.7102 64.5468 99.1035C64.2294 98.4968 64.0708 97.8062 64.0708 97.0315ZM70.5668 97.0455C70.5668 96.4668 70.4501 95.9628 70.2168 95.5335C69.9834 95.1042 69.6661 94.7775 69.2648 94.5535C68.8728 94.3202 68.4388 94.2035 67.9628 94.2035C67.4868 94.2035 67.0528 94.3155 66.6608 94.5395C66.2688 94.7635 65.9561 95.0902 65.7228 95.5195C65.4894 95.9488 65.3728 96.4528 65.3728 97.0315C65.3728 97.6195 65.4894 98.1328 65.7228 98.5715C65.9561 99.0008 66.2688 99.3322 66.6608 99.5655C67.0528 99.7895 67.4868 99.9015 67.9628 99.9015C68.4388 99.9015 68.8728 99.7895 69.2648 99.5655C69.6661 99.3322 69.9834 99.0008 70.2168 98.5715C70.4501 98.1328 70.5668 97.6242 70.5668 97.0455ZM76.7237 101.022C76.1357 101.022 75.6084 100.924 75.1417 100.728C74.675 100.522 74.3064 100.242 74.0357 99.8875C73.765 99.5235 73.6157 99.1082 73.5877 98.6415H74.9037C74.941 99.0242 75.1184 99.3368 75.4357 99.5795C75.7624 99.8222 76.187 99.9435 76.7097 99.9435C77.195 99.9435 77.5777 99.8362 77.8577 99.6215C78.1377 99.4068 78.2777 99.1362 78.2777 98.8095C78.2777 98.4735 78.1284 98.2262 77.8297 98.0675C77.531 97.8995 77.069 97.7362 76.4437 97.5775C75.8744 97.4282 75.4077 97.2788 75.0437 97.1295C74.689 96.9708 74.381 96.7422 74.1197 96.4435C73.8677 96.1355 73.7417 95.7342 73.7417 95.2395C73.7417 94.8475 73.8584 94.4882 74.0917 94.1615C74.325 93.8348 74.6564 93.5782 75.0857 93.3915C75.515 93.1955 76.005 93.0975 76.5557 93.0975C77.405 93.0975 78.091 93.3122 78.6137 93.7415C79.1364 94.1708 79.4164 94.7588 79.4537 95.5055H78.1797C78.1517 95.1042 77.9884 94.7822 77.6897 94.5395C77.4004 94.2968 77.0084 94.1755 76.5137 94.1755C76.0564 94.1755 75.6924 94.2735 75.4217 94.4695C75.151 94.6655 75.0157 94.9222 75.0157 95.2395C75.0157 95.4915 75.095 95.7015 75.2537 95.8695C75.4217 96.0282 75.627 96.1588 75.8697 96.2615C76.1217 96.3548 76.467 96.4622 76.9057 96.5835C77.4564 96.7328 77.9044 96.8822 78.2497 97.0315C78.595 97.1715 78.889 97.3862 79.1317 97.6755C79.3837 97.9648 79.5144 98.3428 79.5237 98.8095C79.5237 99.2295 79.407 99.6075 79.1737 99.9435C78.9404 100.28 78.609 100.546 78.1797 100.742C77.7597 100.928 77.2744 101.022 76.7237 101.022ZM80.8461 97.0315C80.8461 96.2475 81.0048 95.5615 81.3221 94.9735C81.6395 94.3762 82.0735 93.9142 82.6241 93.5875C83.1841 93.2608 83.8048 93.0975 84.4861 93.0975C85.1581 93.0975 85.7415 93.2422 86.2361 93.5315C86.7308 93.8208 87.0995 94.1848 87.3421 94.6235V93.2235H88.6301V100.896H87.3421V99.4675C87.0901 99.9155 86.7121 100.289 86.2081 100.588C85.7135 100.877 85.1348 101.022 84.4721 101.022C83.7908 101.022 83.1748 100.854 82.6241 100.518C82.0735 100.182 81.6395 99.7102 81.3221 99.1035C81.0048 98.4968 80.8461 97.8062 80.8461 97.0315ZM87.3421 97.0455C87.3421 96.4668 87.2255 95.9628 86.9921 95.5335C86.7588 95.1042 86.4415 94.7775 86.0401 94.5535C85.6481 94.3202 85.2141 94.2035 84.7381 94.2035C84.2621 94.2035 83.8281 94.3155 83.4361 94.5395C83.0441 94.7635 82.7315 95.0902 82.4981 95.5195C82.2648 95.9488 82.1481 96.4528 82.1481 97.0315C82.1481 97.6195 82.2648 98.1328 82.4981 98.5715C82.7315 99.0008 83.0441 99.3322 83.4361 99.5655C83.8281 99.7895 84.2621 99.9015 84.7381 99.9015C85.2141 99.9015 85.6481 99.7895 86.0401 99.5655C86.4415 99.3322 86.7588 99.0008 86.9921 98.5715C87.2255 98.1328 87.3421 97.6242 87.3421 97.0455ZM94.5211 93.0835C95.4544 93.0835 96.2104 93.3682 96.7891 93.9375C97.3677 94.4975 97.6571 95.3095 97.6571 96.3735V100.896H96.3971V96.5555C96.3971 95.7902 96.2057 95.2068 95.8231 94.8055C95.4404 94.3948 94.9177 94.1895 94.2551 94.1895C93.5831 94.1895 93.0464 94.3995 92.6451 94.8195C92.2531 95.2395 92.0571 95.8508 92.0571 96.6535V100.896H90.7831V93.2235H92.0571V94.3155C92.3091 93.9235 92.6497 93.6202 93.0791 93.4055C93.5177 93.1908 93.9984 93.0835 94.5211 93.0835Z" fill="#055EA8"/>
</svg>
