<svg width="126" height="124" viewBox="0 0 126 124" fill="none" xmlns="http://www.w3.org/2000/svg">
<path fill-rule="evenodd" clip-rule="evenodd" d="M63 0.862793C97.7282 0.862793 125.881 28.3973 125.881 62.3628C125.881 96.3283 97.7282 123.863 63 123.863C28.2719 123.863 0.119141 96.3283 0.119141 62.3628C0.119141 28.3973 28.2719 0.862793 63 0.862793Z" fill="white"/>
<mask id="mask0_960_2251" style="mask-type:luminance" maskUnits="userSpaceOnUse" x="0" y="0" width="126" height="124">
<path d="M63 0.862793C97.7282 0.862793 125.881 28.3973 125.881 62.3628C125.881 96.3283 97.7282 123.863 63 123.863C28.2719 123.863 0.119141 96.3283 0.119141 62.3628C0.119141 28.3973 28.2719 0.862793 63 0.862793Z" fill="white"/>
</mask>
<g mask="url(#mask0_960_2251)">
<path fill-rule="evenodd" clip-rule="evenodd" d="M86.8398 57.7872L156.591 126.007L156.488 125.902L156.379 125.799L156.267 125.699L156.151 125.601L156.031 125.505L155.907 125.41L155.78 125.316L155.649 125.224L155.515 125.132L155.379 125.041L155.239 124.95L155.097 124.86L154.953 124.769L154.806 124.677L154.657 124.585L84.9062 56.3655L85.0549 56.4575L85.2016 56.5491L85.3462 56.6401L85.4882 56.7309L85.6277 56.8217L85.7642 56.9129L85.8979 57.0046L86.0285 57.097L86.1558 57.1905L86.2796 57.2853L86.3997 57.3815L86.516 57.4797L86.6284 57.5797L86.7363 57.6822L86.8398 57.7872Z" fill="#FFA726"/>
<path fill-rule="evenodd" clip-rule="evenodd" d="M84.9062 56.3655L154.657 124.585L154.7 124.705L154.749 124.832L154.803 124.965L154.862 125.106L154.926 125.253L154.994 125.406L155.065 125.564L155.14 125.729L155.218 125.899L155.298 126.075L155.38 126.255L155.463 126.441L155.548 126.63L155.633 126.825L155.717 127.023L155.802 127.225L155.886 127.431L155.969 127.64L156.049 127.852L156.128 128.068L156.204 128.286L156.277 128.507L156.346 128.73L156.412 128.954L156.473 129.181L156.529 129.41L156.58 129.639L156.625 129.87L156.664 130.102L156.696 130.334L156.721 130.567L156.738 130.8L156.744 130.934L156.747 131.069L156.746 131.203L156.742 131.337L156.735 131.471L156.725 131.604L156.711 131.737L156.695 131.87L156.675 132.003L156.653 132.136L156.627 132.268L156.599 132.4L156.568 132.532L156.534 132.664L156.498 132.796L156.459 132.927L86.7074 64.7078L86.7464 64.5763L86.7829 64.4446L86.8166 64.3127L86.8478 64.1806L86.8759 64.0485L86.9014 63.9161L86.924 63.7835L86.9436 63.6509L86.9601 63.5177L86.9736 63.3846L86.9839 63.2513L86.9911 63.1174L86.9951 62.9835L86.9957 62.8493L86.9931 62.7147L86.987 62.5799L86.9697 62.347L86.9447 62.1144L86.9126 61.8819L86.8737 61.6504L86.8288 61.4196L86.7779 61.1899L86.7217 60.9616L86.6608 60.7349L86.5952 60.5099L86.5257 60.287L86.4528 60.0665L86.3769 59.8483L86.298 59.633L86.2174 59.4205L86.1348 59.2114L86.051 59.0054L85.9663 58.8033L85.8813 58.6051L85.7964 58.4108L85.712 58.2209L85.6288 58.0357L85.5468 57.8554L85.4666 57.6799L85.3891 57.5096L85.3141 57.3449L85.2425 57.186L85.1747 57.033L85.1109 56.8862L85.0516 56.7458L84.9976 56.6121L84.949 56.4853L84.9062 56.3655Z" fill="#FFA726"/>
<path fill-rule="evenodd" clip-rule="evenodd" d="M86.4766 38.7064L156.228 106.926L156.385 107.277L156.545 107.65L156.708 108.046L156.872 108.464L157.036 108.903L157.199 109.365L157.36 109.848L157.518 110.352L157.672 110.878L157.82 111.424L157.962 111.992L158.096 112.58L158.222 113.188L158.338 113.817L158.443 114.467L158.536 115.136L158.616 115.825L158.682 116.534L158.732 117.262L158.767 118.009L158.783 118.776L158.782 119.561L158.76 120.366L158.718 121.189L158.654 122.03L158.567 122.89L158.457 123.768L158.321 124.663L158.158 125.577L157.969 126.508L157.751 127.456L157.503 128.422L87.7519 60.2025L87.9995 59.2369L88.2176 58.2883L88.4072 57.3573L88.5693 56.4438L88.7055 55.5482L88.8164 54.6704L88.9031 53.8108L88.9671 52.9691L89.0091 52.1463L89.0306 51.342L89.0323 50.5562L89.0153 49.7898L88.9811 49.0422L88.9304 48.3139L88.8646 47.6053L88.7845 46.9163L88.6915 46.2471L88.5865 45.598L88.4706 44.9688L88.3449 44.3602L88.2108 43.7721L88.0688 43.2045L87.9205 42.658L87.7669 42.1325L87.609 41.6282L87.448 41.1451L87.2847 40.6839L87.1206 40.244L86.9566 39.8264L86.794 39.4307L86.6335 39.0574L86.4766 38.7064Z" fill="#FFA726"/>
<path fill-rule="evenodd" clip-rule="evenodd" d="M93.6592 69.0456L163.41 137.265L163.574 137.449L163.733 137.657L163.888 137.886L164.038 138.137L164.185 138.409L164.328 138.7L164.467 139.009L164.603 139.336L164.736 139.68L164.865 140.039L164.991 140.413L165.115 140.801L165.236 141.202L165.354 141.614L165.47 142.038L165.584 142.471L165.696 142.913L165.806 143.364L165.914 143.822L166.021 144.285L166.126 144.755L166.23 145.228L166.333 145.705L166.435 146.184L166.537 146.664L166.637 147.146L166.738 147.626L166.838 148.105L166.938 148.582L167.038 149.056L167.139 149.525L97.3875 81.3057L97.2871 80.8363L97.1868 80.3626L97.087 79.8859L96.9868 79.4066L96.8864 78.9259L96.7854 78.4448L96.6841 77.9643L96.5819 77.4852L96.4789 77.0085L96.3748 76.535L96.2694 76.066L96.1628 75.602L96.0546 75.1444L95.9446 74.6939L95.8328 74.2514L95.719 73.8181L95.6029 73.3947L95.4846 72.9821L95.3638 72.5815L95.2402 72.1936L95.1138 71.8198L94.9845 71.4603L94.852 71.1167L94.7161 70.7897L94.5768 70.4803L94.4338 70.1893L94.2872 69.918L94.1365 69.6668L93.9818 69.4371L93.8226 69.2297L93.6592 69.0456Z" fill="#FFA726"/>
<path fill-rule="evenodd" clip-rule="evenodd" d="M97.3852 81.3057L167.136 149.525H165.629L95.8779 81.3057H97.3852Z" fill="#FFA726"/>
<path fill-rule="evenodd" clip-rule="evenodd" d="M95.8779 81.3057L165.629 149.525L165.655 149.56L165.68 149.593L165.704 149.626L165.728 149.657L165.751 149.687L165.773 149.716L165.795 149.744L165.816 149.771L96.0649 81.5513L96.0439 81.5246L96.022 81.4967L95.9995 81.4675L95.9765 81.4374L95.9527 81.4061L95.9284 81.3736L95.9034 81.3403L95.8779 81.3057Z" fill="#FFA726"/>
<path fill-rule="evenodd" clip-rule="evenodd" d="M96.0645 81.5512L165.816 149.771L165.906 149.887L165.995 150.004L166.082 150.124L166.166 150.245L166.246 150.369L166.322 150.495L166.393 150.623L166.46 150.754L166.52 150.887L166.575 151.023L166.622 151.162L166.662 151.304L166.695 151.449L166.718 151.598L166.733 151.75L166.738 151.905L96.9867 83.6852L96.9817 83.5301L96.9671 83.3782L96.9434 83.2299L96.9113 83.0849L96.8712 82.9429L96.8236 82.8038L96.7693 82.6678L96.7087 82.5342L96.6424 82.4036L96.5707 82.2752L96.4946 82.1494L96.4145 82.0256L96.3308 81.9042L96.2443 81.7847L96.1553 81.6671L96.0645 81.5512Z" fill="#FFA726"/>
<path fill-rule="evenodd" clip-rule="evenodd" d="M96.9888 83.6852L166.74 151.905L166.736 152.059L166.724 152.211L166.705 152.361L166.678 152.509L166.644 152.654L166.602 152.797L166.554 152.937L166.5 153.073L166.438 153.206L166.371 153.335L166.297 153.461L166.218 153.583L166.132 153.702L166.041 153.815L165.945 153.924L165.844 154.029L165.738 154.129L165.626 154.224L165.511 154.314L165.391 154.398L165.267 154.477L165.139 154.55L165.007 154.617L164.871 154.678L164.732 154.733L164.59 154.781L164.445 154.823L164.297 154.858L164.146 154.885L163.993 154.906L163.837 154.919L163.68 154.924L93.9287 86.7048L94.0862 86.6992L94.2417 86.6862L94.3948 86.6658L94.5455 86.6381L94.6936 86.6033L94.8388 86.5617L94.981 86.5134L95.1199 86.4586L95.2555 86.3976L95.3874 86.3305L95.5156 86.2574L95.6398 86.1786L95.7597 86.0941L95.8752 86.0044L95.9863 85.9096L96.0926 85.8096L96.1939 85.705L96.2901 85.5958L96.3809 85.4819L96.4664 85.3639L96.546 85.2419L96.6196 85.116L96.6872 84.9864L96.7484 84.8533L96.8031 84.7169L96.8514 84.5774L96.8927 84.4349L96.9267 84.2897L96.9536 84.1419L96.9732 83.9918L96.9849 83.8394L96.9888 83.6852Z" fill="#FFA726"/>
<path fill-rule="evenodd" clip-rule="evenodd" d="M94.9658 87.373L164.717 155.593L164.796 155.672L164.871 155.754L164.944 155.839L165.013 155.926L165.079 156.016L165.142 156.108L165.202 156.203L165.257 156.3L165.31 156.399L165.358 156.5L165.403 156.603L165.444 156.708L165.481 156.815L165.514 156.924L165.543 157.034L165.568 157.146L165.588 157.259L165.604 157.374L165.616 157.49L165.623 157.607L165.625 157.726L95.8739 89.5063L95.8715 89.3878L95.8645 89.2705L95.8528 89.1545L95.8368 89.0397L95.8166 88.9263L95.7919 88.8145L95.7629 88.7042L95.73 88.5955L95.6929 88.4887L95.6519 88.3837L95.6071 88.2806L95.5585 88.1795L95.5061 88.0804L95.4503 87.9835L95.3908 87.8889L95.328 87.7966L95.262 87.7067L95.1926 87.6194L95.12 87.5347L95.0445 87.4525L94.9658 87.373Z" fill="#FFA726"/>
<path fill-rule="evenodd" clip-rule="evenodd" d="M95.8711 89.5063L165.622 157.726L165.618 157.897L165.605 158.064L165.584 158.227L165.555 158.387L165.517 158.541L165.473 158.692L165.42 158.838L165.361 158.98L165.294 159.117L165.221 159.249L165.14 159.377L165.054 159.499L164.961 159.617L164.862 159.73L164.758 159.837L164.648 159.939L164.532 160.036L164.412 160.127L164.286 160.212L164.156 160.292L164.021 160.366L163.882 160.434L163.739 160.496L163.592 160.552L163.441 160.602L163.287 160.645L163.129 160.682L162.969 160.713L162.805 160.737L162.639 160.754L162.471 160.764L162.3 160.768L92.5488 92.5484L92.7196 92.545L92.888 92.5346L93.054 92.5174L93.2174 92.4935L93.378 92.4629L93.5353 92.4259L93.6897 92.3823L93.8404 92.3326L93.9876 92.2767L94.1307 92.2146L94.2698 92.1465L94.4047 92.0726L94.5349 91.9928L94.6606 91.9072L94.7812 91.8162L94.8965 91.7194L95.0067 91.6175L95.1112 91.5101L95.2099 91.3977L95.3028 91.28L95.3892 91.1573L95.4693 91.0297L95.5428 90.8973L95.6095 90.7604L95.669 90.6186L95.7213 90.4725L95.7663 90.3218L95.8033 90.1669L95.8326 90.008L95.8538 89.8447L95.8667 89.6775L95.8711 89.5063Z" fill="#FFA726"/>
<path fill-rule="evenodd" clip-rule="evenodd" d="M53.0651 77.9541L122.816 146.174H98.3606L28.6094 77.9541H53.0651Z" fill="#FFA726"/>
<path fill-rule="evenodd" clip-rule="evenodd" d="M68.5314 81.3057L138.283 149.525H132.057L62.3057 81.3057H68.5314Z" fill="#FFA726"/>
<path fill-rule="evenodd" clip-rule="evenodd" d="M61.5342 81.3057L131.285 149.525H122.111L52.3594 81.3057H61.5342Z" fill="#FFA726"/>
<path fill-rule="evenodd" clip-rule="evenodd" d="M71.4636 81.3057L141.215 149.525H141.077L71.3262 81.3057H71.4636Z" fill="#FFA726"/>
<path fill-rule="evenodd" clip-rule="evenodd" d="M71.3257 81.3057L141.077 149.525H138.282L68.5312 81.3057H71.3257Z" fill="#FFA726"/>
<path fill-rule="evenodd" clip-rule="evenodd" d="M72.8871 82.229L142.638 150.448H141.213L71.4619 82.229H72.8871Z" fill="#FFA726"/>
<path fill-rule="evenodd" clip-rule="evenodd" d="M71.4618 87.8271L141.213 156.047H140.183L70.4316 87.8271H71.4618Z" fill="#FFA726"/>
<path fill-rule="evenodd" clip-rule="evenodd" d="M62.3051 81.3057L132.056 149.525H131.285L61.5342 81.3057H62.3051Z" fill="#FFA726"/>
<path fill-rule="evenodd" clip-rule="evenodd" d="M72.1489 92.5288L141.9 160.748H141.213L71.4619 92.5288H72.1489Z" fill="#FFA726"/>
<path fill-rule="evenodd" clip-rule="evenodd" d="M92.55 92.5483L162.301 160.768H141.901L72.1504 92.5483H92.55Z" fill="#FFA726"/>
<path fill-rule="evenodd" clip-rule="evenodd" d="M71.4618 92.5288L141.213 160.748H140.183L70.4316 92.5288H71.4618Z" fill="#FFA726"/>
<path fill-rule="evenodd" clip-rule="evenodd" d="M84.623 36.1243L154.374 104.344L154.692 104.717L155.005 105.113L155.315 105.531L155.622 105.972L155.925 106.437L156.226 106.926L86.4747 38.7064L86.1742 38.217L85.8706 37.7522L85.5639 37.3111L85.2538 36.8931L84.9403 36.4976L84.623 36.1243Z" fill="#FFA726"/>
<path fill-rule="evenodd" clip-rule="evenodd" d="M86.4758 38.7065C88.1282 42.3299 90.553 49.8108 87.7512 60.2026C87.7812 58.1771 86.5021 57.3536 84.9057 56.3655C85.3272 57.6044 86.8431 60.0953 86.9865 62.5801C87.028 63.2999 86.9221 64.0065 86.7068 64.7078C91.0151 66.8771 92.6656 68.1728 93.4892 68.8857C95.3074 70.4593 96.3132 76.3251 97.3856 81.3057H95.8782C95.9471 81.3991 96.0098 81.4815 96.0654 81.5513C96.5533 82.1646 96.9875 82.8482 96.9875 83.6852C96.9875 85.3415 95.6176 86.6879 93.9275 86.7048C95.0648 87.1512 95.8718 88.2363 95.8718 89.5064C95.8718 91.352 94.3807 92.5485 92.5496 92.5485H72.1499V92.5288H71.463H70.4328V91.1854H71.463V87.8271H70.4328V86.4837H71.521L71.549 85.3647L72.8505 85.3106L72.888 82.229H71.463V81.3058H71.3256H68.5311H62.3052H61.5343H52.3596C52.5949 80.213 52.827 79.0776 53.0651 77.9543H28.6094V40.9697H62.6469C62.8378 40.5146 63.0414 40.054 63.2583 39.5878C65.3787 35.087 69.3411 32.0922 74.5504 32.1788C79.6069 32.263 83.2863 33.3557 86.4758 38.7065Z" fill="#FFA726"/>
</g>
<path fill-rule="evenodd" clip-rule="evenodd" d="M28.6123 40.97H66.0562V77.9545H28.6123V40.97Z" fill="#01579B"/>
<path fill-rule="evenodd" clip-rule="evenodd" d="M30.1689 43.0004H64.4988V75.9239H30.1689V43.0004Z" fill="#FFE0B2"/>
<path fill-rule="evenodd" clip-rule="evenodd" d="M74.5534 32.1789C79.6098 32.2632 83.2892 33.3557 86.4787 38.7065C88.1311 42.3299 90.556 49.8108 87.7542 60.2027C87.7841 58.1772 86.505 57.3537 84.9087 56.3656C85.3301 57.6045 86.8461 60.0955 86.9895 62.5802C87.104 64.5673 86.0952 66.4547 84.7626 68.4049C81.8175 72.7143 69.6059 72.6773 64.9391 66.3615C63.308 64.1546 63.0041 60.5115 64.8804 57.7725C62.5143 58.7997 62.6551 62.9835 62.2222 62.0896C61.5573 61.1832 60.2801 58.1801 60.1225 53.7381C59.9878 49.9375 60.6724 45.1501 63.2612 39.588C65.3818 35.0872 69.344 32.0924 74.5534 32.1789Z" fill="#A13F0F"/>
<path fill-rule="evenodd" clip-rule="evenodd" d="M62.4928 44.8158C63.3438 44.5419 64.4264 45.4864 64.9113 46.9257C65.3961 48.3652 65.0989 49.754 64.2477 50.0283C63.3966 50.3023 62.3142 49.3578 61.8292 47.9184C61.3446 46.4793 61.642 45.0902 62.4928 44.8158Z" fill="#DEC3B6"/>
<path fill-rule="evenodd" clip-rule="evenodd" d="M87.3748 44.8158C86.5237 44.5419 85.4408 45.4864 84.9562 46.9257C84.4717 48.3652 84.7686 49.754 85.6198 50.0283C86.4709 50.3023 87.5534 49.3578 88.0383 47.9184C88.5228 46.4793 88.2259 45.0902 87.3748 44.8158Z" fill="#DEC3B6"/>
<path fill-rule="evenodd" clip-rule="evenodd" d="M79.7052 52.8184V63.6062C77.0478 66.7894 72.699 66.6792 70.042 63.6062V52.8184C70.042 46.9933 79.7052 46.9933 79.7052 52.8184Z" fill="#EDD0C2"/>
<path fill-rule="evenodd" clip-rule="evenodd" d="M70.3742 61.3234C60.4237 65.5898 57.4386 67.8649 56.2588 68.8858C54.4405 70.4595 53.4348 76.3253 52.3623 81.3059H74.8755H97.3881C96.3157 76.3253 95.31 70.4595 93.4917 68.8858C92.3122 67.8649 89.4364 65.6484 79.4856 61.382L70.3742 61.3234Z" fill="#6495ED"/>
<path fill-rule="evenodd" clip-rule="evenodd" d="M69.0338 60.5975L68.5332 81.306H81.1957L80.6947 60.5975C76.808 60.5975 72.9209 60.5975 69.0338 60.5975Z" fill="#EDD0C2"/>
<path fill-rule="evenodd" clip-rule="evenodd" d="M67.2822 66.4529C69.7866 68.2741 76.7221 69.4673 82.9513 66.8924C78.6467 72.4561 80.1257 81.3058 80.1257 81.3058H71.3278C71.3278 81.3058 70.4291 73.55 67.2822 66.4529Z" fill="white"/>
<path fill-rule="evenodd" clip-rule="evenodd" d="M70.0429 58.1042V63.6063L72.1415 81.3059H68.5327L64.5624 73.4225L68.3521 70.9517L63.7207 68.8337C63.7207 68.8337 64.6927 61.4046 70.0429 58.1042Z" fill="#3A36DB"/>
<path fill-rule="evenodd" clip-rule="evenodd" d="M79.7049 52.8184V60.0411C77.8769 61.3445 76.1143 62.0747 74.8735 62.0747C73.6325 62.0747 71.87 61.3444 70.042 60.0411V52.8184C70.042 46.9933 79.7049 46.9933 79.7049 52.8184Z" fill="#DEC3B6"/>
<path fill-rule="evenodd" clip-rule="evenodd" d="M79.7063 58.1042L79.7065 63.6063L77.5869 81.3059H81.1957L85.1657 73.4225L81.3762 70.9517L86.0077 68.8337C86.0077 68.8337 84.2805 61.0249 79.7063 58.1042Z" fill="#3A36DB"/>
<path fill-rule="evenodd" clip-rule="evenodd" d="M74.8751 33.4505C58.659 33.4505 64.4906 52.6142 65.5499 54.1397C66.7178 55.8218 72.2551 60.2809 74.8751 60.2809C77.4951 60.2809 83.032 55.8218 84.1999 54.1397C85.2596 52.6141 91.0913 33.4505 74.8751 33.4505Z" fill="#EDD0C2"/>
<path fill-rule="evenodd" clip-rule="evenodd" d="M85.4421 49.8114C85.4421 49.8114 84.384 44.1617 81.9445 40.9217C80.1771 44.7238 78.4317 46.5857 70.0363 48.52C72.5777 46.4348 73.7602 43.3068 73.8811 41.6135C68.4457 43.0787 65.0884 47.223 64.2493 50.0282C61.7027 45.6943 64.0329 39.1609 65.7887 36.6911C69.1774 31.9246 77.4784 30.7669 82.436 35.1013C85.876 38.1091 87.2931 37.4404 85.4421 49.8114Z" fill="#A13F0F"/>
<path fill-rule="evenodd" clip-rule="evenodd" d="M61.5361 81.3058H62.3071C62.2727 77.9526 62.2727 75.5359 62.2727 75.5359C62.2727 75.5359 61.9311 78.0475 61.5361 81.3058Z" fill="#004D40"/>
<path fill-rule="evenodd" clip-rule="evenodd" d="M88.2147 81.3058H87.4434C87.4778 77.9526 87.4778 75.5359 87.4778 75.5359C87.4778 75.5359 87.8193 78.0475 88.2147 81.3058Z" fill="#004D40"/>
<path fill-rule="evenodd" clip-rule="evenodd" d="M71.5635 54.559C72.9654 53.556 74.4286 54.1493 74.9177 54.1493C75.407 54.1493 76.7893 53.556 78.1915 54.559C77.4937 57.3168 72.6192 57.3864 71.5635 54.559Z" fill="#E35252"/>
<path fill-rule="evenodd" clip-rule="evenodd" d="M71.6025 54.5445C72.9039 54.0956 74.0542 54.9746 74.873 54.9746C75.6918 54.9746 76.8451 53.7943 78.1465 54.5893C76.6214 56.1097 73.1379 56.0273 71.6025 54.5445Z" fill="#A14A4A"/>
<path fill-rule="evenodd" clip-rule="evenodd" d="M71.5615 54.5445C72.9636 53.979 73.9953 54.3889 74.814 54.3889C75.6328 54.3889 76.7877 53.979 78.1898 54.5445C76.6647 55.3961 73.0972 55.3676 71.5615 54.5445Z" fill="white"/>
<path fill-rule="evenodd" clip-rule="evenodd" d="M71.5684 54.5494C72.9637 53.5595 74.1621 54.2464 74.9793 54.2464C75.7969 54.2464 76.7808 53.556 78.1829 54.5589C78.1781 54.5729 78.172 54.5865 78.1667 54.6003C76.3794 54.569 73.4541 54.5513 71.5684 54.5494Z" fill="#E35252"/>
<path fill-rule="evenodd" clip-rule="evenodd" d="M80.0723 46.7113C82.996 46.5172 84.5971 47.045 84.8966 47.1545C85.2576 47.2869 85.1746 48.242 84.869 48.4321C84.5633 48.6225 84.3135 49.3835 83.5906 50.3348C83.126 50.9464 81.499 51.2054 80.0723 51.2746V51.0074C81.2387 50.9547 82.4603 50.7506 82.9917 50.3929C84.0702 49.6666 84.1729 48.1209 83.3807 47.4015C82.9653 47.0236 81.5172 46.9184 80.0723 46.9857L80.0723 46.7113ZM69.6764 46.7113L69.7989 46.7199C72.8003 46.9372 73.4397 47.508 73.7453 47.481C74.1029 47.4492 74.4892 47.4015 74.8541 47.4015C75.2191 47.4015 75.6323 47.4478 76.0038 47.481C76.3094 47.508 76.9484 46.9372 79.9498 46.7199L80.0723 46.7113L80.0723 46.9857C78.6223 47.0545 76.716 47.3842 76.3446 48.1969C75.9736 49.0095 76.6805 50.462 77.706 50.8249C78.1713 50.9898 79.1027 51.0508 80.0723 51.0074V51.2746C79.2792 51.3128 78.5486 51.2926 78.1129 51.2415C76.8904 51.0984 75.9757 49.6554 75.8093 49.2203C75.4342 48.2433 74.3145 48.2433 73.9399 49.2203C73.773 49.6554 72.8583 51.0984 71.6358 51.2415C71.2001 51.2926 70.4695 51.3128 69.6764 51.2746V51.0074C70.6465 51.0508 71.5778 50.9898 72.0433 50.8249C73.0682 50.462 73.7757 49.0095 73.4041 48.1969C73.0331 47.3842 71.1414 47.0554 69.6917 46.9865L69.6764 46.7113ZM64.8521 47.1545C65.152 47.045 66.7531 46.5172 69.6764 46.7113L69.6917 46.9865C68.2474 46.9187 66.7838 47.0239 66.3681 47.4015C65.5762 48.1209 65.6785 49.6666 66.757 50.3929C67.2884 50.7506 68.5101 50.9547 69.6764 51.0074V51.2746C68.2497 51.2054 66.6227 50.9464 66.1585 50.3348C65.4357 49.3835 65.1858 48.6225 64.8802 48.4321C64.5741 48.242 64.4911 47.2869 64.8521 47.1545Z" fill="#424242"/>
<path fill-rule="evenodd" clip-rule="evenodd" d="M66.3696 47.4014C66.7868 47.0227 68.2437 46.9174 69.6932 46.9865C71.1429 47.0553 73.0346 47.3842 73.4056 48.1969C73.7772 49.0094 73.0698 50.4619 72.0449 50.8248C71.019 51.1882 67.7317 51.0483 66.7586 50.3929C65.6801 49.6666 65.5778 48.1208 66.3696 47.4014Z" fill="#FFDDCC"/>
<path fill-rule="evenodd" clip-rule="evenodd" d="M83.3823 47.4014C82.9656 47.0227 81.5085 46.9174 80.0589 46.9865C78.6089 47.0553 76.7176 47.3842 76.3462 48.1969C75.9751 49.0094 76.682 50.4619 77.7075 50.8248C78.7328 51.1882 82.0202 51.0483 82.9932 50.3929C84.0717 49.6666 84.1744 48.1208 83.3823 47.4014Z" fill="#FFDDCC"/>
<path d="M95.0084 81.532L96.7033 84.1473L94.5259 86.0357L93.3858 86.4415L95.0084 89.3387L93.3858 92.0408L72.2803 91.8693L72.2908 86.8078L73.5661 86.8137L73.4818 81.9146L95.0084 81.532Z" fill="#EDDDBC"/>
<path d="M72.1536 92.5486V92.5289H71.4667H70.4365V91.1855H71.4667V87.8272H70.4365V86.4838H71.5247L71.5527 85.3648L72.8542 85.3107L72.8917 82.2292H71.4667V80.91L75.9484 75.0648H91.7837C92.7019 76.4798 95.2193 80.4833 96.069 81.5514C96.557 82.1647 96.9913 82.8483 96.9913 83.6853C96.9913 85.3417 95.6212 86.6881 93.9311 86.7049C95.0684 87.1513 95.8754 88.2364 95.8754 89.5066C95.8754 91.352 94.3845 92.5486 92.5533 92.5486L72.1536 92.5486ZM95.618 83.6853C95.618 83.059 95.2616 82.5178 94.7405 82.2294H74.2713V85.3648H93.901C94.8477 85.3648 95.618 84.6109 95.618 83.6853ZM92.7849 87.8272H92.0982H72.8401V91.1855H92.0982H92.7849C93.7316 91.1855 94.502 90.4321 94.502 89.5066C94.502 88.5801 93.7316 87.8272 92.7849 87.8272Z" fill="#3B210F"/>
<path fill-rule="evenodd" clip-rule="evenodd" d="M44.8703 58.6856V60.4317H46.1175C46.6042 60.4317 46.9121 60.4195 47.0428 60.3921C47.2434 60.3571 47.4066 60.2689 47.5326 60.132C47.6586 59.9936 47.7224 59.8081 47.7224 59.5769C47.7224 59.3807 47.6726 59.2149 47.5761 59.078C47.4782 58.9412 47.3382 58.8408 47.1548 58.7784C46.9713 58.7161 46.5716 58.6856 45.9589 58.6856H44.8703ZM44.8703 56.0879V57.5982H45.7537C46.2793 57.5982 46.6058 57.5906 46.7333 57.5754C46.9635 57.5495 47.1454 57.4719 47.2775 57.3427C47.4098 57.2134 47.4751 57.0431 47.4751 56.8316C47.4751 56.6294 47.4191 56.4651 47.3056 56.3389C47.1905 56.2126 47.021 56.1366 46.797 56.1108C46.6633 56.0955 46.2793 56.0879 45.6448 56.0879H44.8703ZM43.5205 55.0005H46.1906C46.7194 55.0005 47.1143 55.0218 47.374 55.0658C47.6337 55.1084 47.8654 55.1982 48.0707 55.3351C48.276 55.4719 48.4455 55.653 48.5823 55.8811C48.7191 56.1077 48.7876 56.3632 48.7876 56.6446C48.7876 56.9503 48.7036 57.2316 48.5356 57.4871C48.3661 57.7426 48.1375 57.9343 47.8499 58.0621C48.2557 58.1776 48.5698 58.3754 48.7876 58.6537C49.0068 58.9336 49.1157 59.2621 49.1157 59.6392C49.1157 59.9359 49.0457 60.2248 48.9042 60.5061C48.7626 60.7861 48.5698 61.0111 48.3257 61.1785C48.0816 61.3457 47.7799 61.4492 47.4206 61.4887C47.1967 61.5115 46.654 61.5268 45.7941 61.5328H43.5205L43.5205 55.0005Z" fill="#004D40"/>
<path fill-rule="evenodd" clip-rule="evenodd" d="M40.1924 51.1112L39.2719 48.6869L38.3699 51.1112H40.1924ZM42.6758 53.6952H41.2079L40.6247 52.2109H37.9547L37.4042 53.6952H35.9736L38.5752 47.163H40.0012L42.6758 53.6952Z" fill="#D50000"/>
<path fill-rule="evenodd" clip-rule="evenodd" d="M53.1284 67.073L54.4347 67.4776C54.2341 68.1909 53.9012 68.7202 53.4347 69.0669C52.9697 69.4122 52.3773 69.5856 51.6604 69.5856C50.774 69.5856 50.0448 69.289 49.474 68.6973C48.9033 68.1042 48.6172 67.2936 48.6172 66.2669C48.6172 65.1795 48.9048 64.3354 49.4787 63.7331C50.0524 63.1323 50.8067 62.8312 51.7429 62.8312C52.5592 62.8312 53.2232 63.067 53.7333 63.54C54.0382 63.8182 54.2652 64.2198 54.4176 64.743L53.0817 65.0547C53.004 64.7156 52.8392 64.4479 52.5872 64.2517C52.3369 64.0555 52.0321 63.9582 51.6744 63.9582C51.1799 63.9582 50.7772 64.1316 50.4693 64.4799C50.1614 64.8266 50.0074 65.3893 50.0074 66.1681C50.0074 66.9939 50.1582 67.5825 50.463 67.9324C50.7663 68.2836 51.1613 68.4586 51.6465 68.4586C52.0056 68.4586 52.3135 68.3475 52.5716 68.1239C52.8298 67.9019 53.0149 67.5506 53.1284 67.073Z" fill="#039BE5"/>
</svg>
