<svg width="126" height="124" viewBox="0 0 126 124" fill="none" xmlns="http://www.w3.org/2000/svg">
<path fill-rule="evenodd" clip-rule="evenodd" d="M63.0703 0.70105C97.7985 0.70105 125.951 28.2355 125.951 62.201C125.951 96.1666 97.7985 123.701 63.0703 123.701C28.3422 123.701 0.189453 96.1666 0.189453 62.201C0.189453 28.2355 28.3422 0.70105 63.0703 0.70105Z" fill="white"/>
<path fill-rule="evenodd" clip-rule="evenodd" d="M67.3525 66.2912C69.8569 68.1124 76.7924 69.3056 83.0217 66.7306C78.717 72.2943 80.196 81.1441 80.196 81.1441H71.3981C71.3981 81.1441 70.4995 73.3883 67.3525 66.2912Z" fill="white"/>
<path fill-rule="evenodd" clip-rule="evenodd" d="M31.9016 71.1582C32.2363 69.8435 33.6208 68.7778 34.9987 68.7778H91.1416C92.5173 68.7778 93.9034 69.8412 94.2387 71.1582L100.511 95.7897C100.846 97.1044 100.012 98.1701 98.6287 98.1701H27.5116C26.1372 98.1701 25.2939 97.1066 25.6292 95.7897L31.9016 71.1582Z" fill="#595959"/>
<path fill-rule="evenodd" clip-rule="evenodd" d="M36.2609 72.4198H89.906L94.2459 92.0967H31.8936L36.2609 72.4198Z" fill="#FFA726"/>
<path fill-rule="evenodd" clip-rule="evenodd" d="M46.9733 74.9514H77.9325L81.1646 87.1982H43.7412L46.9733 74.9514Z" fill="#FFCC41"/>
<path fill-rule="evenodd" clip-rule="evenodd" d="M82.9163 54.0815V39.3854H42.998V54.0815C42.998 56.1107 51.9341 57.7556 62.9572 57.7556C73.9803 57.7556 82.9163 56.1107 82.9163 54.0815Z" fill="#595959"/>
<path fill-rule="evenodd" clip-rule="evenodd" d="M33.0186 39.2715L63.8529 28.3633L94.1684 39.2715L63.8529 48.3268L33.0186 39.2715Z" fill="#868686"/>
<path d="M50.4413 39.1307L49.9636 36.7267L40.5029 39.8459V60.3226H42.9978V41.863L50.4413 39.1307Z" fill="#F1BE27"/>
<path d="M40.6713 58.5285L37.1123 65.4051L39.3365 66.5146L42.8955 59.6381L40.6713 58.5285Z" fill="#FF462B"/>
<path d="M40.7549 59.7508L44.012 65.9281L46.2274 64.8026L42.9703 58.6253L40.7549 59.7508Z" fill="#FF462B"/>
<path d="M40.6469 59.7076L40.6406 67.0545L43.1355 67.0557L43.1418 59.7089L40.6469 59.7076Z" fill="#FF462B"/>
</svg>
