<svg width="12" height="13" viewBox="0 0 12 13" fill="none" xmlns="http://www.w3.org/2000/svg">
<path id="Path_34201" d="M10.9807 7.56251H7.12428V11.3855C7.12428 12.001 6.62092 12.5 6 12.5C5.37908 12.5 4.87572 12.001 4.87572 11.3855V7.56251H1.01932C0.440134 7.50305 0 7.01921 0 6.44198C0 5.86475 0.440134 5.38092 1.01932 5.32146H4.86363V1.51048C4.92361 0.936318 5.41167 0.5 5.99396 0.5C6.57624 0.5 7.0643 0.936318 7.12428 1.51048V5.32146H10.9807C11.5599 5.38092 12 5.86475 12 6.44198C12 7.01921 11.5599 7.50305 10.9807 7.56251Z" fill="#055EA8"/>
</svg>
