<svg xmlns="http://www.w3.org/2000/svg" width="14" height="12" viewBox="0 0 14 12" fill="none">
  <path d="M7.54167 10.6875C7.19649 10.6875 6.91667 10.9393 6.91667 11.25C6.91667 11.5607 7.19649 11.8125 7.54167 11.8125H12.5417C13.3471 11.8125 14 11.2249 14 10.5V1.5C14 0.775127 13.3471 0.1875 12.5417 0.1875H7.54167C7.19649 0.1875 6.91667 0.439341 6.91667 0.750001C6.91667 1.06066 7.19649 1.3125 7.54167 1.3125L12.5417 1.3125C12.6567 1.3125 12.75 1.39645 12.75 1.5L12.75 10.5C12.75 10.6036 12.6567 10.6875 12.5417 10.6875H7.54167Z" fill="#3A312A"/>
  <path fill-rule="evenodd" clip-rule="evenodd" d="M0.25 6.83641C0.25 7.35418 0.716369 7.77391 1.29167 7.77391H5.1355C5.14094 7.82898 5.14663 7.88403 5.15257 7.93907L5.19759 8.35598C5.26628 8.99206 6.01679 9.373 6.65714 9.0968C8.01899 8.50941 9.33452 7.62791 10.3791 6.64635C10.7659 6.28284 10.7659 5.70959 10.3791 5.34608L10.2964 5.2684C9.25186 4.28684 8.01899 3.48303 6.65714 2.89563C6.01679 2.61943 5.26628 3.00037 5.19759 3.63645L5.15257 4.05336C5.14663 4.1084 5.14093 4.16346 5.1355 4.21853H1.29167C0.71637 4.21853 0.25 4.63826 0.25 5.15603V6.83641ZM6.33601 7.14801C6.3006 6.8653 6.03444 6.64891 5.71498 6.64891H1.5L1.5 5.34353H5.71498C6.04505 5.34353 6.31822 5.11253 6.33876 4.81604C6.35388 4.59788 6.3732 4.3799 6.39671 4.16219L6.40977 4.04118C7.49714 4.54552 8.4868 5.20568 9.33975 5.99622C8.98362 6.32629 8.60365 6.63363 8.2027 6.9164C7.64334 7.31086 7.04313 7.65749 6.40977 7.95125L6.39671 7.83024C6.3732 7.61254 6.35388 7.39456 6.33876 7.1764C6.3381 7.16687 6.33718 7.1574 6.33601 7.14801Z" fill="#3A312A"/>
</svg>