<svg width="33" height="34" viewBox="0 0 33 34" fill="none" xmlns="http://www.w3.org/2000/svg">
<path d="M29.442 17.9572L20.1086 27.5822C19.8486 27.8503 19.5073 27.985 19.166 27.985C18.8247 27.985 18.4834 27.8503 18.2234 27.5822C17.7021 27.0445 17.7021 26.1755 18.2234 25.6378L25.2807 18.36H4.49935C3.76202 18.36 3.16602 17.7454 3.16602 16.985C3.16602 16.2246 3.76202 15.61 4.49935 15.61H25.2807L18.2234 8.33217C17.7021 7.79455 17.7021 6.92546 18.2234 6.38784C18.7447 5.85021 19.5873 5.85021 20.1086 6.38784L29.442 16.0128C29.9633 16.5505 29.9633 17.4195 29.442 17.9572Z" fill="white"/>
</svg>
