<svg width="20" height="16" viewBox="0 0 20 16" fill="none" xmlns="http://www.w3.org/2000/svg">
<path d="M19.2539 8.35322L12.2539 15.3532C12.1559 15.4512 12.0279 15.4992 11.8999 15.4992C11.7719 15.4992 11.6439 15.4502 11.5459 15.3532C11.3509 15.1582 11.3509 14.8412 11.5459 14.6462L17.6919 8.50022H0.899902C0.623902 8.50022 0.399902 8.27622 0.399902 8.00022C0.399902 7.72422 0.623902 7.50022 0.899902 7.50022H17.6929L11.5469 1.35423C11.3519 1.15923 11.3519 0.842227 11.5469 0.647227C11.7419 0.452227 12.0589 0.452227 12.2539 0.647227L19.2539 7.64723C19.4489 7.84223 19.4489 8.15822 19.2539 8.35322Z" fill="#055EA8"/>
</svg>
