<svg width="27" height="27" viewBox="0 0 27 27" fill="none" xmlns="http://www.w3.org/2000/svg">
<path d="M24.3339 13.9851C24.3339 14.5842 23.8496 15.0684 23.2506 15.0684H6.36573L12.0998 20.8025C12.5234 21.2261 12.5234 21.9108 12.0998 22.3344C11.8885 22.5456 11.6112 22.6518 11.3339 22.6518C11.0566 22.6518 10.7793 22.5456 10.568 22.3344L2.98468 14.751C2.5611 14.3275 2.5611 13.6427 2.98468 13.2191L10.568 5.6358C10.9916 5.21222 11.6762 5.21222 12.0998 5.6358C12.5234 6.05939 12.5234 6.74412 12.0998 7.1677L6.36573 12.9018H23.2506C23.8496 12.9018 24.3339 13.386 24.3339 13.9851Z" fill="white"/>
</svg>
