<svg width="16" height="16" viewBox="0 0 22 22" fill="none" xmlns="http://www.w3.org/2000/svg">
<path opacity="0.5" d="M10.6357 21.0824C16.4568 21.0824 21.1757 16.363 21.1757 10.5412C21.1757 4.71947 16.4568 0 10.6357 0C4.81462 0 0.0957031 4.71947 0.0957031 10.5412C0.0957031 16.363 4.81462 21.0824 10.6357 21.0824Z" fill="url(#paint0_linear_1266_6131)"/>
<path d="M10.6565 20.7931C16.3548 20.7931 20.9742 16.1732 20.9742 10.4742C20.9742 4.77521 16.3548 0.155273 10.6565 0.155273C4.95815 0.155273 0.338745 4.77521 0.338745 10.4742C0.338745 16.1732 4.95815 20.7931 10.6565 20.7931Z" fill="#F5F5F5"/>
<path d="M10.6667 20.8324C12.6828 20.8357 14.6552 20.2453 16.338 19.1349C15.9578 17.0569 14.5109 16.9385 14.5109 16.9385H6.53191C6.53191 16.9385 5.16654 17.0505 4.74011 18.9621C6.47511 20.1827 8.54544 20.836 10.6667 20.8324Z" fill="#6C63FF"/>
<path d="M10.5558 15.2367C13.3062 15.2367 15.5358 13.0068 15.5358 10.256C15.5358 7.5053 13.3062 5.27539 10.5558 5.27539C7.80534 5.27539 5.57568 7.5053 5.57568 10.256C5.57568 13.0068 7.80534 15.2367 10.5558 15.2367Z" fill="#333333"/>
<path opacity="0.1" d="M8.94897 14.4043H12.14V16.9574C12.14 17.3805 11.972 17.7863 11.6729 18.0855C11.3738 18.3848 10.9681 18.553 10.5451 18.5531C10.1219 18.5531 9.7161 18.385 9.41689 18.0858C9.11768 17.7865 8.94958 17.3806 8.94958 16.9574V14.4043H8.94897Z" fill="black"/>
<path d="M9.04954 14.2861H12.0394C12.0662 14.2861 12.092 14.2968 12.1109 14.3158C12.1299 14.3347 12.1406 14.3605 12.1406 14.3873V16.8393C12.1406 17.0489 12.0994 17.2565 12.0192 17.4502C11.9389 17.6438 11.8214 17.8198 11.6732 17.968C11.5249 18.1162 11.349 18.2338 11.1553 18.3139C10.9616 18.3941 10.7541 18.4353 10.5445 18.4353C10.1213 18.4353 9.7155 18.2671 9.41628 17.9679C9.11707 17.6687 8.94897 17.2628 8.94897 16.8396V14.3873C8.94897 14.3606 8.95955 14.3349 8.97839 14.316C8.99724 14.297 9.02281 14.2863 9.04954 14.2861Z" fill="#FDB797"/>
<path opacity="0.1" d="M8.95459 15.6105C9.98302 15.9947 11.1151 15.9978 12.1456 15.6192V15.2266H8.95459V15.6105Z" fill="black"/>
<path d="M10.5561 15.8236C13.0821 15.8236 15.1299 13.7756 15.1299 11.2492C15.1299 8.72284 13.0821 6.6748 10.5561 6.6748C8.02997 6.6748 5.98218 8.72284 5.98218 11.2492C5.98218 13.7756 8.02997 15.8236 10.5561 15.8236Z" fill="#FDB797"/>
<path opacity="0.1" d="M7.29761 7.08669C7.29761 7.08669 9.22531 10.9999 14.6629 8.72738L13.3969 6.74207L11.1527 5.93652L7.29761 7.08669Z" fill="black"/>
<path d="M7.29761 7.02968C7.29761 7.02968 9.22531 10.9429 14.6629 8.66976L13.3969 6.68445L11.1527 5.87891L7.29761 7.02968Z" fill="#333333"/>
<path d="M7.28079 6.76503C7.41076 6.36262 7.6354 5.99729 7.93584 5.69973C8.83551 4.81022 10.3105 4.62265 11.067 3.6084C11.2482 3.8899 11.1081 4.32272 10.7952 4.44354C11.52 4.43871 12.3599 4.37528 12.7697 3.77905C12.871 4.01486 12.9033 4.27458 12.8628 4.52801C12.8224 4.78145 12.7108 5.01819 12.5411 5.21072C13.1835 5.24093 13.8699 5.67587 13.9104 6.3177C13.9382 6.74539 13.6688 7.15013 13.3188 7.39538C12.9688 7.64064 12.5423 7.7533 12.1241 7.84542C10.9027 8.11515 6.48379 9.24387 7.28079 6.76503Z" fill="#333333"/>
<path d="M5.9807 12.0432C6.21571 12.0432 6.40623 11.686 6.40623 11.2453C6.40623 10.8045 6.21571 10.4473 5.9807 10.4473C5.74569 10.4473 5.55518 10.8045 5.55518 11.2453C5.55518 11.686 5.74569 12.0432 5.9807 12.0432Z" fill="#FDB797"/>
<path d="M15.1294 12.0432C15.3644 12.0432 15.5549 11.686 15.5549 11.2453C15.5549 10.8045 15.3644 10.4473 15.1294 10.4473C14.8944 10.4473 14.7039 10.8045 14.7039 11.2453C14.7039 11.686 14.8944 12.0432 15.1294 12.0432Z" fill="#FDB797"/>
<defs>
<linearGradient id="paint0_linear_1266_6131" x1="10.6357" y1="21.0824" x2="10.6357" y2="0" gradientUnits="userSpaceOnUse">
<stop stop-color="#808080" stop-opacity="0.25"/>
<stop offset="0.54" stop-color="#808080" stop-opacity="0.12"/>
<stop offset="1" stop-color="#808080" stop-opacity="0.1"/>
</linearGradient>
</defs>
</svg>
