<svg width="347" height="298" viewBox="0 0 347 298" fill="none" xmlns="http://www.w3.org/2000/svg">
<mask id="mask0_261_527" style="mask-type:luminance" maskUnits="userSpaceOnUse" x="0" y="0" width="377" height="298">
<rect width="376.987" height="298" fill="white"/>
</mask>
<g mask="url(#mask0_261_527)">
<path d="M143.151 211.794L126.402 201.646L184.182 96.5557L200.931 106.704L143.151 211.794Z" fill="#FFB202"/>
<path d="M198.375 111.353L187.245 104.609L187.619 103.929L198.749 110.672L198.375 111.353Z" fill="#FFD0AF"/>
<path d="M195.583 116.429L184.454 109.685L184.828 109.005L195.958 115.749L195.583 116.429Z" fill="#FFD0AF"/>
<path d="M192.792 121.506L181.662 114.762L182.036 114.082L193.166 120.826L192.792 121.506Z" fill="#FFD0AF"/>
<path d="M190.002 126.582L178.872 119.839L179.246 119.158L190.376 125.902L190.002 126.582Z" fill="#FFD0AF"/>
<path d="M187.21 131.658L176.081 124.915L176.455 124.234L187.585 130.978L187.21 131.658Z" fill="#FFD0AF"/>
<path d="M184.419 136.735L173.289 129.991L173.663 129.311L184.793 136.054L184.419 136.735Z" fill="#FFD0AF"/>
<path d="M181.628 141.811L170.498 135.067L170.872 134.387L182.002 141.13L181.628 141.811Z" fill="#FFD0AF"/>
<path d="M178.837 146.887L167.707 140.143L168.081 139.463L179.211 146.207L178.837 146.887Z" fill="#FFD0AF"/>
<path d="M176.046 151.963L164.917 145.22L165.291 144.539L176.42 151.283L176.046 151.963Z" fill="#FFD0AF"/>
<path d="M173.255 157.04L162.125 150.297L162.499 149.616L173.629 156.36L173.255 157.04Z" fill="#FFD0AF"/>
<path d="M170.464 162.115L159.334 155.372L159.708 154.691L170.838 161.435L170.464 162.115Z" fill="#FFD0AF"/>
<path d="M167.673 167.193L156.543 160.449L156.917 159.769L168.047 166.512L167.673 167.193Z" fill="#FFD0AF"/>
<path d="M162.017 177.574L158.308 172.19C155.73 168.448 152.246 165.506 148.221 163.671L106.276 144.536C103.905 143.46 101.146 144.168 99.5077 146.273C98.2395 147.9 96.2677 148.726 94.2872 148.458L81.6089 143.494L83.8119 151.446L162.017 177.574Z" fill="#FDFFFE"/>
<mask id="mask1_261_527" style="mask-type:luminance" maskUnits="userSpaceOnUse" x="81" y="143" width="82" height="35">
<path fill-rule="evenodd" clip-rule="evenodd" d="M162.017 177.574L158.308 172.19C155.73 168.448 152.246 165.506 148.221 163.671L106.276 144.536C103.905 143.46 101.146 144.168 99.5077 146.273C98.2395 147.9 96.2677 148.726 94.2872 148.458L81.6089 143.494L83.8119 151.446L162.017 177.574Z" fill="white"/>
</mask>
<g mask="url(#mask1_261_527)">
<path d="M166.346 179.309L109.251 152.934L97.1816 159.481L152.672 180.122L166.346 179.309Z" fill="#FDFFFE" stroke="#3F3C3F" stroke-width="1.09172" stroke-linecap="round" stroke-linejoin="round"/>
</g>
<path fill-rule="evenodd" clip-rule="evenodd" d="M162.017 177.574L158.308 172.19C155.73 168.448 152.246 165.506 148.221 163.671L106.276 144.536C103.905 143.46 101.146 144.168 99.5077 146.273V146.273C98.2395 147.9 96.2677 148.726 94.2872 148.458L81.6089 143.494L83.8119 151.446L162.017 177.574Z" stroke="#3F3C3F" stroke-width="1.09172" stroke-linecap="round" stroke-linejoin="round"/>
<ellipse cx="2.61113" cy="2.64913" rx="2.61113" ry="2.64913" transform="matrix(0.815547 -0.578691 0.538808 0.842429 99.73 150.681)" fill="#FDFFFE" stroke="#3F3C3F" stroke-width="1.09172" stroke-linecap="round" stroke-linejoin="round"/>
<path fill-rule="evenodd" clip-rule="evenodd" d="M83.4477 152.207C78.2662 150.422 72.5144 151.083 67.9802 154.313C63.5211 157.504 57.9141 158.34 52.7919 156.577C43.3174 153.314 38.3588 142.276 42.1573 132.353C45.2729 124.213 53.6226 119.436 61.7656 121.181C67.9817 122.514 72.585 127.038 74.583 132.666C76.5149 138.107 80.5209 142.435 85.7653 144.241L87.1511 144.719L84.6599 152.624L83.4477 152.207ZM61.7778 128.867C56.1297 127.044 50.123 130.395 48.3616 136.353C47.5128 139.206 47.7786 142.298 49.1 144.943C50.4215 147.589 52.6891 149.567 55.3992 150.44C61.0474 152.263 67.0541 148.912 68.8155 142.954C69.6643 140.101 69.3985 137.009 68.077 134.364C66.7556 131.719 64.488 129.74 61.7778 128.867Z" fill="#EA7396"/>
<path d="M113.719 217.531L109.618 212.473C106.769 208.959 104.867 204.7 104.113 200.144L96.2445 152.677C95.8054 149.994 97.1024 147.329 99.4242 146.142C101.22 145.223 102.441 143.393 102.657 141.299L101.035 127.143L107.855 131.255L113.719 217.531Z" fill="#FDFFFE"/>
<path fill-rule="evenodd" clip-rule="evenodd" d="M113.719 217.531L109.618 212.473C106.769 208.959 104.867 204.7 104.113 200.144L96.2445 152.677C95.8054 149.994 97.1024 147.329 99.4242 146.142V146.142C101.22 145.223 102.441 143.393 102.657 141.299L101.035 127.143L107.855 131.255L113.719 217.531Z" stroke="#3F3C3F" stroke-width="1.09172" stroke-linecap="round" stroke-linejoin="round"/>
<path fill-rule="evenodd" clip-rule="evenodd" d="M108.641 131.059L108.744 132.399L100.871 133.11L100.754 131.578C100.311 125.78 97.2535 120.663 92.6854 117.414C87.9609 114.053 84.8611 108.278 85.0816 101.594C85.3707 92.8385 91.7235 85.3914 99.9569 84.0948C109.995 82.5139 119.019 90.1715 119.819 100.646C120.251 106.31 118.172 111.866 114.19 115.691C110.154 119.587 108.203 125.33 108.641 131.059ZM101.154 90.5585C95.2668 91.2066 90.9673 96.7548 91.5513 102.951V102.951C92.1354 109.147 97.3816 113.645 103.269 112.997C109.157 112.349 113.456 106.801 112.872 100.605C112.288 94.4083 107.042 89.9107 101.154 90.5585Z" fill="#EA7396"/>
<path d="M122.557 64.0678L125.357 39.877C125.552 38.1939 127.743 37.8728 128.351 39.4382L137.089 61.9384L156.176 212.024C156.529 214.86 154.647 217.465 151.962 217.856L147.16 218.56C145.874 218.752 144.568 218.395 143.533 217.568C142.497 216.74 141.817 215.511 141.643 214.153L122.557 64.0678Z" fill="#8A8A6E"/>
<mask id="mask2_261_527" style="mask-type:luminance" maskUnits="userSpaceOnUse" x="122" y="38" width="35" height="181">
<path fill-rule="evenodd" clip-rule="evenodd" d="M122.557 64.0678L125.357 39.877C125.552 38.1939 127.743 37.8728 128.351 39.4382L137.089 61.9384L156.176 212.024C156.529 214.86 154.647 217.465 151.962 217.856L147.16 218.56C145.874 218.752 144.568 218.395 143.533 217.568C142.497 216.74 141.817 215.511 141.643 214.153L122.557 64.0678Z" fill="white"/>
</mask>
<g mask="url(#mask2_261_527)">
<ellipse cx="8.3163" cy="8.4373" rx="8.3163" ry="8.4373" transform="matrix(0.815547 -0.578691 0.538808 0.842429 116.068 35.0586)" fill="#3F3C3F"/>
</g>
<path d="M141.344 95.3945L146.766 138.03L141.344 95.3945Z" fill="#FDFFFE"/>
<path d="M141.344 95.3945L146.766 138.03" stroke="#3F3C3F" stroke-width="1.09172" stroke-linecap="round" stroke-linejoin="round"/>
<path d="M140.2 202.801L154.732 200.671L151.859 178.083L137.327 180.212L140.2 202.801Z" fill="#FFD0AF"/>
<path d="M137.421 188.675L140.312 212.585C140.513 214.248 138.774 214.906 137.936 213.483L125.892 193.036L77.8829 50.4558C76.9785 47.7698 77.9734 44.9386 80.1052 44.1323L83.9145 42.6913C86.0463 41.885 88.5076 43.4088 89.412 46.0949L137.421 188.675Z" fill="#FDFFFE" stroke="#3F3C3F" stroke-width="1.09172" stroke-linecap="round" stroke-linejoin="round"/>
<path d="M137.934 186.362L124.112 191.59L80.3677 61.6746L94.1898 56.4463L137.934 186.362Z" fill="#AC7F8D"/>
<path d="M94.1898 56.4463L80.3677 61.6746L87.5932 83.1334L101.415 77.9051L94.1898 56.4463Z" fill="#FFD0AF"/>
<path d="M98.2051 58.4698L95.2478 59.5884L96.2944 62.6966L99.2517 61.5779L110.638 95.3944L111.93 94.9057L99.9543 59.3389C99.8321 58.9784 99.579 58.6841 99.2508 58.521C98.9225 58.3579 98.5463 58.3394 98.2051 58.4698V58.4698Z" fill="#FFD0AF"/>
<path d="M177.67 250.296L177.711 242.383C176.668 244.055 168.3 245.504 156.126 246.339C149.136 246.819 140.899 247.096 132.075 247.096C123.251 247.096 115.017 246.819 108.031 246.339C95.8659 245.504 87.5128 244.055 86.4872 242.383L86.4472 250.296C86.3752 250.398 86.3326 250.519 86.3242 250.646C86.3101 253.443 106.774 255.71 132.031 255.71C157.289 255.71 177.776 253.443 177.79 250.646C177.783 250.52 177.742 250.398 177.67 250.296Z" fill="#B8B7CB"/>
<path d="M177.714 241.682L178.119 161.838H86.8954L86.4908 241.682C86.4189 241.784 86.3763 241.906 86.3679 242.033C86.3749 242.159 86.4163 242.281 86.4873 242.383C87.5128 244.056 95.8659 245.505 108.031 246.339C115.017 246.819 123.251 247.096 132.075 247.096C140.899 247.096 149.137 246.819 156.126 246.339C168.3 245.505 176.668 244.056 177.711 242.383C177.873 242.182 177.875 241.885 177.714 241.682H177.714Z" fill="#FDFFFE"/>
<path fill-rule="evenodd" clip-rule="evenodd" d="M177.714 241.682L178.119 161.838H86.8954L86.4908 241.682C86.4189 241.784 86.3763 241.906 86.3679 242.033C86.3749 242.159 86.4163 242.281 86.4873 242.383C87.5128 244.056 95.8659 245.505 108.031 246.339C115.017 246.819 123.251 247.096 132.075 247.096C140.899 247.096 149.137 246.819 156.126 246.339C168.3 245.505 176.668 244.056 177.711 242.383C177.873 242.182 177.875 241.885 177.714 241.682H177.714Z" stroke="#3F3C3F" stroke-width="1.09172" stroke-linecap="round" stroke-linejoin="round"/>
<path d="M115.132 131.74L113.053 134.641" stroke="#3F3C3F" stroke-width="1.09172" stroke-linecap="round" stroke-linejoin="round"/>
<path d="M154.701 219.53C151.494 223.561 147.473 226.784 142.933 228.961" stroke="#3F3C3F" stroke-width="1.09172" stroke-linecap="round" stroke-linejoin="round"/>
<path d="M86.5581 204.467L86.6944 177.574L86.5581 204.467Z" fill="#FDFFFE"/>
<path d="M86.5581 204.467L86.6944 177.574" stroke="#3F3C3F" stroke-width="1.09172" stroke-linecap="round" stroke-linejoin="round"/>
<path d="M200.931 106.703L173.255 157.039" stroke="#3F3C3F" stroke-width="1.09172" stroke-linecap="round" stroke-linejoin="round"/>
<path d="M42.1573 132.353C38.3588 142.276 43.3174 153.314 52.7919 156.576C57.9141 158.34 63.5211 157.504 67.9802 154.312" stroke="#3F3C3F" stroke-width="1.09172" stroke-linecap="round" stroke-linejoin="round"/>
<path d="M132.657 143.494L122.557 64.0674" stroke="#3F3C3F" stroke-width="1.09172" stroke-linecap="round" stroke-linejoin="round"/>
<path d="M80.3677 61.6748L87.5932 83.1336" stroke="#3F3C3F" stroke-width="1.09172" stroke-linecap="round" stroke-linejoin="round"/>
<path d="M86.3242 250.646C86.3101 253.442 106.774 255.709 132.031 255.709" stroke="#3F3C3F" stroke-width="1.09172" stroke-linecap="round" stroke-linejoin="round"/>
<path d="M326.012 260.818H186.396L187.44 54.7598H327.056L326.012 260.818Z" fill="#FFD0AF"/>
<mask id="mask3_261_527" style="mask-type:luminance" maskUnits="userSpaceOnUse" x="186" y="54" width="142" height="207">
<path fill-rule="evenodd" clip-rule="evenodd" d="M326.012 260.818H186.396L187.44 54.7598H327.056L326.012 260.818Z" fill="white"/>
</mask>
<g mask="url(#mask3_261_527)">
<path d="M320.99 255.608H192.667L193.711 49.5498H322.034L320.99 255.608Z" fill="#FFD0AF"/>
</g>
<path d="M218.613 86.0157L206.573 75.5971L187.44 54.7598H327.056L307.712 75.5971L218.613 86.0157Z" fill="#FFD0AF"/>
<path d="M221.836 209.303L205.74 239.98L186.396 260.817H326.012L306.88 239.98L221.836 209.303Z" fill="#FFD0AF"/>
<path d="M306.88 239.981H205.74L206.573 75.5977H307.712L306.88 239.981Z" fill="#F9B472"/>
<mask id="mask4_261_527" style="mask-type:luminance" maskUnits="userSpaceOnUse" x="205" y="75" width="103" height="165">
<path fill-rule="evenodd" clip-rule="evenodd" d="M306.88 239.981H205.74L206.573 75.5977H307.712L306.88 239.981Z" fill="white"/>
</mask>
<g mask="url(#mask4_261_527)">
<path d="M303.204 234.771H202.064L202.897 70.3877H304.037L303.204 234.771Z" fill="white" stroke="#3F3C3F" stroke-width="1.09172" stroke-linecap="round" stroke-linejoin="round"/>
</g>
<path d="M286.006 152.579H227.5C226.851 152.581 226.229 152.309 225.771 151.824C225.313 151.34 225.058 150.682 225.061 149.998L225.064 149.372C225.075 147.944 226.175 146.791 227.529 146.791H286.035C286.684 146.79 287.306 147.061 287.764 147.546C288.222 148.031 288.477 148.688 288.474 149.372L288.47 149.998C288.46 151.427 287.36 152.579 286.006 152.579Z" fill="white" stroke="#3F3C3F" stroke-width="1.09172" stroke-linecap="round" stroke-linejoin="round"/>
<path d="M279.739 167.629H233.614C232.966 167.63 232.344 167.359 231.886 166.874C231.428 166.389 231.173 165.732 231.176 165.048L231.179 164.422C231.189 162.993 232.29 161.841 233.644 161.841H279.768C280.416 161.839 281.039 162.111 281.496 162.596C281.954 163.08 282.21 163.738 282.206 164.422L282.203 165.048C282.193 166.476 281.093 167.629 279.739 167.629Z" fill="white" stroke="#3F3C3F" stroke-width="1.09172" stroke-linecap="round" stroke-linejoin="round"/>
<path d="M284.562 178.626H228.68C228.031 178.628 227.409 178.356 226.951 177.871C226.493 177.386 226.238 176.729 226.241 176.045L226.244 175.419C226.255 173.991 227.355 172.838 228.709 172.838H284.591C285.24 172.836 285.862 173.108 286.32 173.593C286.778 174.077 287.033 174.735 287.03 175.419L287.026 176.045C287.016 177.473 285.916 178.626 284.562 178.626Z" fill="white" stroke="#3F3C3F" stroke-width="1.09172" stroke-linecap="round" stroke-linejoin="round"/>
<path d="M272.4 212.197H240.501C239.774 212.199 239.077 211.894 238.563 211.351C238.05 210.808 237.764 210.07 237.768 209.303C237.779 207.701 239.013 206.409 240.531 206.409H272.429C273.156 206.408 273.854 206.712 274.367 207.256C274.88 207.799 275.167 208.536 275.163 209.303C275.152 210.905 273.918 212.197 272.4 212.197Z" fill="white" stroke="#3F3C3F" stroke-width="1.09172" stroke-linecap="round" stroke-linejoin="round"/>
<path d="M257.42 111.577L255.151 115.473" stroke="#3F3C3F" stroke-width="1.09172" stroke-linecap="round" stroke-linejoin="round"/>
<path d="M304.161 249.465L300.909 252.825" stroke="#3F3C3F" stroke-width="1.09172" stroke-linecap="round" stroke-linejoin="round"/>
<path d="M186.396 260.818L187.44 54.7598" stroke="#3F3C3F" stroke-width="1.09172" stroke-linecap="round" stroke-linejoin="round"/>
<path d="M184.306 251.776C188.395 233.03 186.342 154.865 208.872 157.369C212.307 162.185 231.554 189.167 237.043 196.862C237.974 198.167 238.212 198.501 238.397 198.761C238.38 198.668 249.155 256.25 249.193 256.454L184.306 251.776Z" fill="#49ACDC"/>
<mask id="mask5_261_527" style="mask-type:luminance" maskUnits="userSpaceOnUse" x="184" y="157" width="66" height="100">
<path fill-rule="evenodd" clip-rule="evenodd" d="M184.306 251.776C188.395 233.03 186.342 154.865 208.872 157.369C212.307 162.185 231.554 189.167 237.043 196.862C237.974 198.167 238.212 198.501 238.397 198.761C238.38 198.668 249.155 256.25 249.193 256.454L184.306 251.776Z" fill="white"/>
</mask>
<g mask="url(#mask5_261_527)">
<path d="M214.986 190.179C196.469 195.246 233.357 268.332 191.735 259.233C264.459 271.12 240.145 265.065 225.407 195.464C223.662 186.883 222.031 184.88 215.399 173.888" fill="#2B8ACD"/>
</g>
<path d="M310.258 258.403L285.864 144.966C285.864 144.966 237.237 142.851 205.401 157.664L224.524 258.403L310.258 258.403Z" fill="#49ACDC"/>
<mask id="mask6_261_527" style="mask-type:luminance" maskUnits="userSpaceOnUse" x="205" y="144" width="106" height="115">
<path fill-rule="evenodd" clip-rule="evenodd" d="M310.258 258.403L285.864 144.966C285.864 144.966 237.237 142.851 205.401 157.664L224.524 258.403L310.258 258.403Z" fill="white"/>
</mask>
<g mask="url(#mask6_261_527)">
<path d="M263.919 152.229C257.983 178.737 216.962 186.999 222.698 152.228C228.635 125.721 269.656 117.46 263.919 152.229Z" fill="white"/>
<path d="M265.03 147.681C259.094 174.189 218.073 182.451 223.809 147.68C229.746 121.173 270.767 112.912 265.03 147.681Z" fill="#FDFFFE" stroke="#3F3C3F" stroke-width="1.09172" stroke-linecap="round" stroke-linejoin="round"/>
<path d="M288.728 176.988C276.089 179.815 309.068 226.172 257.913 219.443C239.523 217.024 254.271 217.309 254.271 217.309C251.305 241.346 310.033 248.783 310.548 259.119C314.237 266.892 316.014 218.828 316.144 216.346C317.037 217.866 291.779 157.097 291.714 156.66" fill="#2B8ACD"/>
</g>
<path d="M257.738 148.388C255.996 143.545 251.446 135.986 247.764 121.497L229.385 133.928C229.384 133.574 229.403 142.17 229.423 150.819" fill="#FDFFFE"/>
<path d="M257.738 148.388C255.996 143.545 251.446 135.986 247.764 121.497L229.385 133.928C229.384 133.574 229.403 142.17 229.423 150.819" stroke="#3F3C3F" stroke-width="1.09172" stroke-linecap="round" stroke-linejoin="round"/>
<path d="M245.542 120.622C244.75 109.123 244.67 111.541 235.94 100.434C233.982 91.6668 216.301 104.202 211.424 104.326C208.633 140.942 228.184 150.294 240.045 135.689" fill="#FDFFFE"/>
<path d="M245.542 120.622C244.75 109.123 244.67 111.541 235.94 100.434C233.982 91.6668 216.301 104.202 211.424 104.326C208.633 140.942 228.184 150.294 240.045 135.689" stroke="#3F3C3F" stroke-width="1.09172" stroke-linecap="round" stroke-linejoin="round"/>
<path d="M242.641 121.213C228.868 112.716 232.337 104.185 232.337 104.185C184.757 139.482 185.844 78.7578 222.764 87.2793C222.764 87.2793 245.35 67.7535 246.096 95.2412C265.539 95.8259 246.196 132.729 242.641 121.213Z" fill="#FFBED0"/>
<mask id="mask7_261_527" style="mask-type:luminance" maskUnits="userSpaceOnUse" x="195" y="80" width="60" height="44">
<path fill-rule="evenodd" clip-rule="evenodd" d="M242.641 121.213C228.868 112.716 232.337 104.185 232.337 104.185C184.757 139.482 185.844 78.7578 222.764 87.2793C222.764 87.2793 245.35 67.7535 246.096 95.2412C265.539 95.8259 246.196 132.729 242.641 121.213Z" fill="white"/>
</mask>
<g mask="url(#mask7_261_527)">
<path d="M221.387 79.5876L222.764 87.2791C222.764 87.2791 221.852 95.2425 227.05 87.685C232.248 80.1274 230.913 77.0684 230.913 77.0684" fill="#3F3C3F"/>
</g>
<path d="M235.809 116.546C247.879 103.698 257.714 121.629 240.008 127.587L235.809 116.546Z" fill="#FDFFFE"/>
<path d="M235.809 116.546C247.879 103.698 257.714 121.629 240.008 127.587" stroke="#3F3C3F" stroke-width="1.09172" stroke-linecap="round" stroke-linejoin="round"/>
<path d="M226.487 259.573C226.458 259.52 160.323 259.61 136.363 259.572C127.421 259.019 128.677 261.321 126.923 257.109C122.027 240.403 93.5873 192.628 104.407 192.798C223.682 196.55 184.986 170.728 226.487 259.573Z" fill="#F5B63F"/>
<path d="M265.533 254.711H124.701L127.304 259.573H273.265C272.19 257.317 270.482 255.591 265.533 254.711Z" fill="#FDFFFE" stroke="#3F3C3F" stroke-width="1.09172" stroke-linecap="round" stroke-linejoin="round"/>
<path d="M224.27 259.573C224.24 259.52 158.106 259.61 134.146 259.572C125.204 259.019 126.459 261.321 124.706 257.109C119.81 240.403 91.37 192.628 102.19 192.798C221.465 196.55 182.769 170.728 224.27 259.573Z" fill="#FDB80B"/>
<mask id="mask8_261_527" style="mask-type:luminance" maskUnits="userSpaceOnUse" x="99" y="192" width="126" height="68">
<path fill-rule="evenodd" clip-rule="evenodd" d="M224.27 259.573C224.24 259.52 158.106 259.61 134.146 259.572C125.204 259.019 126.459 261.321 124.706 257.109C119.81 240.403 91.37 192.628 102.19 192.798C221.465 196.55 182.769 170.728 224.27 259.573Z" fill="white"/>
</mask>
<g mask="url(#mask8_261_527)">
<path d="M110.745 248.913L226.487 259.573C226.487 259.573 122.236 268.707 120.855 268.347C119.474 267.987 106.516 253.372 106.516 253.372" fill="#FC9905"/>
</g>
<path d="M166.796 224.038C170.436 235.726 152.948 233.043 149.353 224.037C145.713 212.351 163.2 215.033 166.796 224.038Z" fill="white"/>
<path d="M305.369 235.666H340.703C340.63 235.539 311.903 164.795 309.892 159.889C307.712 149.572 289.996 143.084 278.17 144.865L305.369 235.666Z" fill="#49ACDC"/>
<path d="M222.422 231.881C222.422 231.881 223.988 238.678 238.498 225.738C228.825 241.337 269.028 245.797 253.305 237.074C266.354 226.448 286.953 242.233 315.707 253.098C331.865 264.77 353.542 252.521 338.153 232.739C301.919 218.922 270.796 219.639 241.229 216.275C237.253 214.841 223.022 231.515 222.422 231.881Z" fill="#FDFFFE"/>
<path fill-rule="evenodd" clip-rule="evenodd" d="M222.422 231.881C222.422 231.881 223.988 238.678 238.498 225.738C228.825 241.337 269.028 245.797 253.305 237.074C266.354 226.448 286.953 242.233 315.707 253.098C331.865 264.77 353.542 252.521 338.153 232.739C301.919 218.922 270.796 219.639 241.229 216.275C237.253 214.841 223.022 231.515 222.422 231.881Z" stroke="#3F3C3F" stroke-width="1.09172" stroke-linecap="round" stroke-linejoin="round"/>
<path d="M240.01 116.853C243.564 112.766 245.908 117.725 243.744 120.538C241.579 123.351 242.353 117.513 240.01 116.853Z" fill="#3F3C3F"/>
<path d="M231.091 194.002C238.754 207.617 250.456 202.546 250.456 202.546L231.091 194.002Z" fill="#2B8ACD"/>
<ellipse cx="1.30587" cy="1.32488" rx="1.30587" ry="1.32488" transform="matrix(0.815547 -0.578691 0.538808 0.842429 213.971 122.019)" fill="#3F3C3F"/>
<ellipse cx="1.30587" cy="1.32488" rx="1.30587" ry="1.32488" transform="matrix(0.815547 -0.578691 0.538808 0.842429 225.238 119.553)" fill="#3F3C3F"/>
<path d="M220.989 119.967C221.131 123.524 221.184 124.571 221.184 124.571C215.783 125.917 221.967 129.481 221.967 129.481" fill="#FDFFFE"/>
<path d="M220.989 119.967C221.131 123.524 221.184 124.571 221.184 124.571C215.783 125.917 221.967 129.481 221.967 129.481" stroke="#3F3C3F" stroke-width="1.09172" stroke-linecap="round" stroke-linejoin="round"/>
<path d="M225.429 129.371C225.45 130.605 224.647 131.685 223.506 131.955L225.429 129.371Z" fill="#FDFFFE"/>
<path d="M225.429 129.371C225.45 130.605 224.647 131.685 223.506 131.955" stroke="#3F3C3F" stroke-width="1.09172" stroke-linecap="round" stroke-linejoin="round"/>
<path d="M242.537 120.034L244.815 117.096L242.537 120.034Z" fill="#FDFFFE"/>
<path d="M242.537 120.034L244.815 117.096" stroke="#3F3C3F" stroke-width="1.09172" stroke-linecap="round" stroke-linejoin="round"/>
<path d="M288.728 176.988L298.309 211.663" stroke="#3F3C3F" stroke-width="1.09172" stroke-linecap="round" stroke-linejoin="round"/>
<path d="M118.811 193.156L149 192.899" stroke="#3F3C3F" stroke-width="1.09172" stroke-linecap="round" stroke-linejoin="round"/>
<path d="M214.54 97.6396C213.531 100.531 211.061 102.812 208.209 103.488" stroke="#3F3C3F" stroke-width="1.09172" stroke-linecap="round" stroke-linejoin="round"/>
<path d="M33.9231 178.002C58.4722 156.615 69.8026 162.415 72.7538 191.414C75.705 220.413 108.668 168.94 114.36 200.476C120.053 232.013 141.047 232.738 149.353 224.038C157.659 215.338 162.797 220.413 162.797 220.413" stroke="#3F3C3F" stroke-width="1.09172" stroke-linecap="round" stroke-linejoin="round"/>
<path fill-rule="evenodd" clip-rule="evenodd" d="M152.218 75.638C152.187 81.8652 156.973 86.9313 162.886 86.9313C168.8 86.9313 173.636 81.8652 173.667 75.638C173.699 69.4108 168.914 64.3447 163.001 64.3447C157.087 64.3447 152.25 69.4108 152.218 75.638ZM159.554 75.6381C159.57 73.6637 161.09 72.0718 162.961 72.0694H162.961C163.858 72.0685 164.717 72.4445 165.35 73.1143C165.982 73.7842 166.336 74.6924 166.332 75.6381C166.316 77.6122 164.796 79.2043 162.925 79.2068C162.029 79.2078 161.169 78.8317 160.537 78.1619C159.904 77.4922 159.55 76.5839 159.554 75.6381Z" fill="#29315A"/>
</g>
</svg>
