<svg width="11" height="11" viewBox="0 0 11 11" fill="none" xmlns="http://www.w3.org/2000/svg">
<path d="M5.97827 1.10981L7.1 3.78931C7.18584 3.99442 7.37168 4.13494 7.58503 4.15502L10.3177 4.41162C10.6269 4.45875 10.7502 4.85588 10.526 5.08455L8.46757 6.89562C8.3009 7.04225 8.22506 7.27267 8.2709 7.49523L8.86926 10.4287C8.92177 10.7508 8.59925 10.9969 8.32257 10.8442L5.93744 9.38136C5.7541 9.26877 5.52742 9.26877 5.34407 9.38136L2.95895 10.8433C2.6831 10.9952 2.35975 10.7499 2.41225 10.4278L3.01062 7.49436C3.05562 7.2718 2.98062 7.04138 2.81394 6.89474L0.754663 5.08542C0.531318 4.85762 0.654658 4.45962 0.963008 4.41249L3.69565 4.15589C3.909 4.13582 4.09484 3.99529 4.18068 3.79018L5.30241 1.11068C5.44158 0.817419 5.83993 0.817419 5.97827 1.10981Z" fill="#FDD835"/>
</svg>
