<svg width="20" height="16" viewBox="0 0 20 16" fill="none" xmlns="http://www.w3.org/2000/svg">
<path d="M15 0.5H5C2.519 0.5 0.5 2.519 0.5 5V11C0.5 13.481 2.519 15.5 5 15.5H15C17.481 15.5 19.5 13.481 19.5 11V5C19.5 2.518 17.481 0.5 15 0.5ZM5 1.5H15C16.532 1.5 17.823 2.49602 18.296 3.86902L11.942 8.10498C10.762 8.89098 9.23902 8.89098 8.05902 8.10498L1.70502 3.86902C2.17702 2.49502 3.468 1.5 5 1.5ZM18.5 11C18.5 12.93 16.93 14.5 15 14.5H5C3.07 14.5 1.5 12.93 1.5 11V5C1.5 4.979 1.50598 4.95899 1.50598 4.93799L7.50403 8.93701C8.26203 9.44201 9.131 9.69501 10 9.69501C10.869 9.69501 11.738 9.44301 12.496 8.93701L18.494 4.93799C18.494 4.95899 18.5 4.978 18.5 5V11Z" fill="#055EA8"/>
</svg>
