<svg xmlns="http://www.w3.org/2000/svg" width="14" height="16" viewBox="0 0 14 16" fill="none">
  <path d="M10.0045 3.93022C10.2479 4.17249 10.2397 4.55745 9.98616 4.79003L7.33464 7.22247C7.08839 7.44837 6.69949 7.44837 6.45324 7.22247L4.86233 5.76301C4.60879 5.53042 4.60057 5.14547 4.84397 4.90319C5.08736 4.66091 5.4902 4.65306 5.74373 4.88564L6.89394 5.94081L9.10475 3.91267C9.35829 3.68008 9.76113 3.68794 10.0045 3.93022Z" fill="#45484F"/>
  <path fill-rule="evenodd" clip-rule="evenodd" d="M0 4.35135C0 2.22431 1.80443 0.5 4.0303 0.5H12.5152C13.3352 0.5 14 1.13527 14 1.91892V14.0811C14 14.8647 13.3352 15.5 12.5152 15.5H3.18182C1.42455 15.5 0 14.1387 0 12.4595V4.35135ZM1.27273 10.0268C1.80451 9.6451 2.46552 9.41892 3.18182 9.41892H12.7273V1.91892C12.7273 1.80697 12.6323 1.71622 12.5152 1.71622H4.0303C2.50734 1.71622 1.27273 2.89601 1.27273 4.35135V10.0268ZM1.27273 12.4595C1.27273 13.467 2.12746 14.2838 3.18182 14.2838H12.5152C12.6323 14.2838 12.7273 14.193 12.7273 14.0811V10.6351H3.18182C2.12746 10.6351 1.27273 11.4519 1.27273 12.4595Z" fill="#45484F"/>
</svg>