<svg width="21" height="25" viewBox="0 0 21 25" fill="none" xmlns="http://www.w3.org/2000/svg">
<path fill-rule="evenodd" clip-rule="evenodd" d="M0.668457 6.31254C0.668457 2.90416 3.18686 0.141113 6.29346 0.141113H18.7935C19.829 0.141113 20.6685 1.06213 20.6685 2.19826V22.7697C20.6685 23.5271 20.1088 24.1411 19.4185 24.1411H5.04346C2.83941 24.1411 1.01603 22.353 0.712763 20.0268H0.668457V6.31254ZM18.7935 16.5983H5.04346C3.66275 16.5983 2.54346 17.8263 2.54346 19.3411C2.54346 20.856 3.66275 22.084 5.04346 22.084H18.7935V16.5983ZM5.98096 6.31254C5.98096 5.74448 6.40069 5.28397 6.91846 5.28397H15.6685C16.1862 5.28397 16.606 5.74448 16.606 6.31254C16.606 6.88061 16.1862 7.34111 15.6685 7.34111H6.91846C6.40069 7.34111 5.98096 6.88061 5.98096 6.31254ZM6.91846 9.39826C6.40069 9.39826 5.98096 9.85876 5.98096 10.4268C5.98096 10.9949 6.40069 11.4554 6.91846 11.4554H13.1685C13.6862 11.4554 14.106 10.9949 14.106 10.4268C14.106 9.85876 13.6862 9.39826 13.1685 9.39826H6.91846Z" fill="black"/>
</svg>
