<svg width="66" height="20" viewBox="0 0 66 20" fill="none" xmlns="http://www.w3.org/2000/svg">
<g clip-path="url(#clip0_308_1720)">
<mask id="mask0_308_1720" style="mask-type:luminance" maskUnits="userSpaceOnUse" x="-48" y="-482" width="390" height="711">
<path d="M-47.9329 228.234H341.83V-481.293H-47.9329V228.234Z" fill="white"/>
</mask>
<g mask="url(#mask0_308_1720)">
<path d="M17.8579 5.01957H21.4146C22.855 5.01957 23.9288 5.832 23.9288 7.54369C23.9288 8.79859 23.4306 9.49725 22.5663 9.86808V9.89673C23.5969 10.1681 24.1285 10.8811 24.1285 12.093C24.1285 14.4747 22.4995 14.9736 21.1147 14.9736H17.8579V5.01957ZM19.9184 8.95619H20.4946C21.1703 8.95619 21.869 8.74212 21.869 7.90019C21.869 6.9883 21.2037 6.90234 20.5162 6.90234H19.9184V8.95619ZM19.9184 13.0917H20.528C21.2817 13.0917 22.068 12.9484 22.068 11.9363C22.068 10.8524 21.2594 10.753 20.5496 10.753H19.9184V13.0917Z" fill="#00529C"/>
</g>
<path d="M26.8332 5.01957H29.3592L32.3397 14.9736H30.0795L29.5033 12.849H26.6007L25.9911 14.9736H23.8972L26.8332 5.01957ZM28.0962 7.07342H28.0739L27.0767 10.9671H29.0161L28.0962 7.07342Z" fill="#00529C"/>
<path d="M32.6265 5.01957H35.2521L37.8672 11.7795H37.8888L37.856 5.01957H39.7398V14.9736H37.1797L34.4768 8.17072H34.4552L34.5207 14.9736H32.6265V5.01957Z" fill="#00529C"/>
<path d="M40.439 5.01957H42.4995V9.08429H42.5218L44.8481 5.01957H47.3297L44.4716 9.65401L47.5516 14.9736H44.9254L42.5218 10.453H42.4995V14.9736H40.439V5.01957Z" fill="#00529C"/>
<mask id="mask1_308_1720" style="mask-type:luminance" maskUnits="userSpaceOnUse" x="-48" y="-482" width="390" height="711">
<path d="M-47.9329 228.234H341.83V-481.293H-47.9329V228.234Z" fill="white"/>
</mask>
<g mask="url(#mask1_308_1720)">
<path d="M50.1072 5.01957H53.6638C55.1037 5.01957 56.1788 5.832 56.1788 7.54369C56.1788 8.79859 55.6805 9.49725 54.8162 9.86808V9.89673C55.8468 10.1681 56.3778 10.8811 56.3778 12.093C56.3778 14.4747 54.7494 14.9736 53.3646 14.9736H50.1072V5.01957ZM52.1677 8.95619H52.7439C53.4203 8.95619 54.1176 8.74212 54.1176 7.90019C54.1176 6.9883 53.4537 6.90234 52.7662 6.90234H52.1677V8.95619ZM52.1677 13.0917H52.7773C53.5303 13.0917 54.3173 12.9484 54.3173 11.9363C54.3173 10.8524 53.5087 10.753 52.7996 10.753H52.1677V13.0917Z" fill="#00529C"/>
<path d="M56.835 5.01957H60.5134C61.8871 5.01957 63.0061 5.81852 63.0061 7.53021C63.0061 8.8559 62.5189 9.73997 61.5217 10.0392V10.0678C62.1857 10.2962 62.2302 11.0522 62.6185 12.2641L63.3714 14.9736H61.2225L60.7792 13.1777C60.3582 11.466 60.0917 11.037 59.3276 11.037H58.8955V14.9736H56.835V5.01957ZM58.8955 9.15508H59.4383C60.1035 9.15508 60.9455 9.12643 60.9455 7.99963C60.9455 7.07342 60.2253 6.90234 59.4383 6.90234H58.8955V9.15508Z" fill="#00529C"/>
</g>
<path d="M63.9395 5.01953H66V14.9736H63.9395V5.01953Z" fill="#00529C"/>
<path d="M13.1554 1.90735e-06H2.37088C1.06136 1.90735e-06 0 1.39986 0 3.12671V3.15958V16.8741C0 18.5841 1.04172 19.9747 2.33422 20H13.1495C14.4591 20 15.5211 18.601 15.5211 16.8741L15.5257 3.12671C15.5257 1.39986 14.465 1.90735e-06 13.1554 1.90735e-06ZM3.65225 18.3979L3.06428 18.4063C2.3519 18.4063 1.7744 17.6529 1.7744 16.7233L1.77113 16.591V3.89533L1.77505 3.21099C1.8019 2.31174 2.33291 1.58864 3.02761 1.58864H4.22386C5.30814 1.58864 6.18683 2.80224 6.18683 4.23244C6.18683 4.94037 5.97141 5.58257 5.62242 6.04947L2.57059 10.0358L5.43123 13.7853C5.79986 14.275 6.02248 14.9172 6.02248 15.6209C6.02248 17.1548 4.96177 18.3979 3.65225 18.3979ZM12.4463 18.3852L7.11331 18.3827C7.11331 18.3827 7.72944 16.6676 7.72944 15.6057C7.72944 14.3104 7.39355 13.1541 6.86712 12.3889L5.04296 9.99537L6.90444 7.51928C7.45903 6.84927 7.827 5.65927 7.827 4.30323C7.827 3.22953 7.59652 2.27888 7.22528 1.58864H8.51712C9.6014 1.58864 10.4807 2.80224 10.4807 4.23244C10.4807 4.94037 10.2653 5.58257 9.91634 6.04947L6.92278 9.99452L13.1404 18.1552C12.9433 18.3144 12.6951 18.3852 12.4463 18.3852ZM13.7486 15.8375L9.29301 9.99199L11.4151 7.21588C11.8466 6.52059 12.1209 5.47385 12.1209 4.30323C12.1209 3.22279 11.8872 2.24769 11.5126 1.55746L12.462 1.59454C13.1744 1.59454 13.7519 2.34798 13.7519 3.27757L13.7486 15.8375Z" fill="#00529C"/>
</g>
<defs>
<clipPath id="clip0_308_1720">
<rect width="66" height="20" fill="white"/>
</clipPath>
</defs>
</svg>
