<svg width="40" height="38" viewBox="0 0 40 38" fill="none" xmlns="http://www.w3.org/2000/svg">
<g id="3 - Bold / camera">
<path id="camera-Bold" d="M29.258 9.54755L27.3747 6.86523C26.4447 5.53998 24.8897 4.75 23.2147 4.75H16.783C15.108 4.75 13.553 5.53998 12.623 6.86523L10.7397 9.54755C6.57801 9.98613 3.33301 13.3475 3.33301 17.4167V25.3333C3.33301 29.6986 7.07134 33.25 11.6663 33.25H28.333C32.928 33.25 36.6663 29.6986 36.6663 25.3333V17.4167C36.6647 13.3491 33.418 9.98771 29.258 9.54755ZM33.3313 25.3333C33.3313 27.9522 31.088 30.0833 28.3313 30.0833H11.6647C8.908 30.0833 6.66466 27.9522 6.66466 25.3333V17.4167C6.66466 14.7978 8.908 12.6667 11.6647 12.6667C12.2213 12.6667 12.7413 12.4021 13.0513 11.962L15.3947 8.6229C15.7047 8.18115 16.223 7.91821 16.7813 7.91821H23.213C23.7713 7.91821 24.2896 8.18115 24.5996 8.6229L26.943 11.962C27.253 12.4021 27.773 12.6667 28.3297 12.6667C31.0863 12.6667 33.3297 14.7978 33.3297 17.4167V25.3333H33.3313ZM19.998 14.25C16.3213 14.25 13.3313 17.0905 13.3313 20.5833C13.3313 24.0762 16.3213 26.9167 19.998 26.9167C23.6747 26.9167 26.6647 24.0762 26.6647 20.5833C26.6647 17.0905 23.6747 14.25 19.998 14.25ZM19.998 23.75C18.1597 23.75 16.6647 22.3298 16.6647 20.5833C16.6647 18.8369 18.1597 17.4167 19.998 17.4167C21.8363 17.4167 23.3313 18.8369 23.3313 20.5833C23.3313 22.3298 21.8363 23.75 19.998 23.75ZM31.6647 15.8333C31.6647 16.7073 30.918 17.4167 29.998 17.4167C29.078 17.4167 28.3313 16.7073 28.3313 15.8333C28.3313 14.9593 29.078 14.25 29.998 14.25C30.918 14.25 31.6647 14.9593 31.6647 15.8333Z" fill="#022F54"/>
</g>
</svg>
