<svg width="100" height="100" viewBox="0 0 100 100" fill="none" xmlns="http://www.w3.org/2000/svg">
<g id="carbon:time">
<path id="Vector" d="M50 93.75C41.3471 93.75 32.8885 91.1841 25.6938 86.3768C18.4992 81.5695 12.8916 74.7367 9.58029 66.7424C6.26896 58.7482 5.40256 49.9515 7.09066 41.4648C8.77877 32.9782 12.9455 25.1826 19.0641 19.0641C25.1826 12.9455 32.9782 8.77877 41.4648 7.09066C49.9515 5.40256 58.7482 6.26896 66.7424 9.58029C74.7367 12.8916 81.5695 18.4992 86.3768 25.6938C91.1841 32.8885 93.75 41.3471 93.75 50C93.75 61.6032 89.1407 72.7312 80.9359 80.9359C72.7312 89.1407 61.6032 93.75 50 93.75ZM50 12.5C42.5832 12.5 35.333 14.6994 29.1661 18.8199C22.9993 22.9405 18.1928 28.7972 15.3545 35.6494C12.5163 42.5016 11.7736 50.0416 13.2206 57.3159C14.6675 64.5902 18.239 71.272 23.4835 76.5165C28.728 81.761 35.4098 85.3325 42.6841 86.7795C49.9584 88.2264 57.4984 87.4838 64.3506 84.6455C71.2029 81.8072 77.0596 77.0007 81.1801 70.8339C85.3007 64.6671 87.5 57.4168 87.5 50C87.5 40.0544 83.5491 30.5161 76.5165 23.4835C69.4839 16.4509 59.9456 12.5 50 12.5Z" fill="white"/>
<path id="Vector_2" d="M64.3438 68.75L46.875 51.2812V21.875H53.125V48.6875L68.75 64.3438L64.3438 68.75Z" fill="white"/>
</g>
</svg>
