<svg width="88" height="80" viewBox="0 0 88 80" fill="none" xmlns="http://www.w3.org/2000/svg">
<path d="M43.5632 0L53.6307 5.35637H65.2977L71.1312 14.6868L81.2928 20.0432V30.7559L87.1263 40L81.2928 49.2441V59.9568L71.1312 65.3132L65.2977 74.6436H53.6307L43.5632 80L33.4956 74.6436H21.8286L15.9951 65.3132L5.83351 59.9568V49.2441L0 40L5.83351 30.7559V20.0432L15.9951 14.6868L21.8286 5.35637H33.4956L43.5632 0Z" fill="#647EFF"/>
<path d="M43.5625 69.2873C25.9679 69.2873 11.6664 56.1555 11.6664 40C11.6664 23.8445 25.9679 10.7128 43.5625 10.7128C61.1571 10.7128 75.4587 23.8445 75.4587 40C75.4587 56.1555 61.1571 69.2873 43.5625 69.2873ZM43.5625 13.2182C27.4733 13.2182 14.395 25.2268 14.395 40C14.395 54.7732 27.4733 66.7819 43.5625 66.7819C59.6517 66.7819 72.7301 54.7732 72.7301 40C72.7301 25.2268 59.6517 13.2182 43.5625 13.2182Z" fill="white"/>
<path d="M40.0817 50.8856L26.2506 40.7776C25.1216 39.9137 24.9334 38.445 25.8743 37.4083C26.8152 36.3715 28.4147 36.1987 29.5437 37.0627L41.399 45.7884L57.2059 29.5465C58.1468 28.5962 59.8404 28.5098 60.8754 29.3737C61.9103 30.2376 62.0044 31.7927 61.0635 32.743L43.6571 50.6264C42.7162 51.5767 41.1167 51.6631 40.0817 50.8856Z" fill="#FFD77A"/>
</svg>
