<svg width="24" height="24" viewBox="0 0 24 24" fill="none" xmlns="http://www.w3.org/2000/svg">
<path d="M21.7003 10.1808C20.8973 6.19681 17.8043 3.10295 13.8193 2.29995C13.0863 2.15295 12.3243 2.33999 11.7383 2.81899C11.1543 3.29799 10.8193 4.00398 10.8193 4.75698V10.1808C10.8193 11.8348 12.1653 13.1808 13.8193 13.1808H19.2433C19.9973 13.1808 20.7033 12.8459 21.1813 12.2619C21.6593 11.6779 21.8493 10.9188 21.7003 10.1808ZM19.6353 10.9938C19.5773 11.0628 19.4513 11.1808 19.2433 11.1808H13.8193C13.2673 11.1808 12.8193 10.7328 12.8193 10.1808V4.75698C12.8193 4.54898 12.9363 4.42289 13.0063 4.36489C13.0633 4.31889 13.1723 4.2499 13.3223 4.2499C13.3543 4.2499 13.3883 4.25289 13.4253 4.26089C16.6173 4.90389 19.0973 7.38285 19.7393 10.5749C19.7803 10.7779 19.6913 10.9248 19.6353 10.9938ZM19.4873 15.1879C19.6753 15.4689 19.7133 15.825 19.5853 16.141C18.1903 19.583 14.9193 21.7489 11.2593 21.7489C10.9423 21.7489 10.6213 21.7319 10.2993 21.6989C6.16332 21.2739 2.72432 17.8359 2.29932 13.6999C1.88432 9.66085 4.11832 5.92897 7.85932 4.41397C8.17732 4.28797 8.53232 4.32287 8.81233 4.51187C9.08633 4.69787 9.25031 5.00582 9.25031 5.33682V12.2499C9.25031 13.6289 10.3713 14.7499 11.7503 14.7499H18.6623C18.9933 14.7499 19.3023 14.9139 19.4873 15.1879Z" fill="#044E8C"/>
</svg>
