<svg width="100" height="100" viewBox="0 0 100 100" fill="none" xmlns="http://www.w3.org/2000/svg">
<g id="clarity:certificate-line" clip-path="url(#clip0_80_2243)">
<path id="Vector" d="M88.889 16.6665H11.1112C9.63779 16.6665 8.22472 17.2518 7.18285 18.2937C6.14098 19.3356 5.55566 20.7486 5.55566 22.2221V77.7776C5.55566 79.251 6.14098 80.6641 7.18285 81.706C8.22472 82.7478 9.63779 83.3332 11.1112 83.3332H52.7779L54.3612 81.3887L56.9445 78.2221L56.6945 77.7776H11.1112V22.2221H88.889V45.9998C90.9993 47.3659 92.8753 49.0637 94.4445 51.0276V22.2221C94.4445 20.7486 93.8592 19.3356 92.8174 18.2937C91.7755 17.2518 90.3624 16.6665 88.889 16.6665Z" fill="#FBFBFB"/>
<path id="Vector_2" d="M19.4443 33.3335H66.6666V37.7779H19.4443V33.3335Z" fill="#FBFBFB"/>
<path id="Vector_3" d="M19.4443 44.4443H49.9999V48.8888H19.4443V44.4443Z" fill="#FBFBFB"/>
<path id="Vector_4" d="M19.4443 63.8887H47.2221V68.3331H19.4443V63.8887Z" fill="#FBFBFB"/>
<path id="Vector_5" d="M76.2777 47.8609C72.723 47.8327 69.2426 48.8774 66.2911 50.8586C63.3396 52.8398 61.0545 55.6653 59.7343 58.9658C58.4141 62.2663 58.1203 65.8883 58.8912 69.3584C59.6621 72.8286 61.4619 75.9854 64.0554 78.4165L58.6665 84.9998L61.1665 95.0276L71.3332 82.6387C74.5514 83.5902 77.9762 83.5902 81.1943 82.6387L91.361 95.0276L93.861 84.9998L88.4721 78.4165C91.0656 75.9854 92.8654 72.8286 93.6364 69.3584C94.4073 65.8883 94.1134 62.2663 92.7933 58.9658C91.473 55.6653 89.1879 52.8398 86.2364 50.8586C83.285 48.8774 79.8045 47.8327 76.2499 47.8609H76.2777ZM76.2777 77.5276C73.9171 77.4947 71.619 76.7647 69.6723 75.4294C67.7255 74.094 66.217 72.2129 65.3363 70.0226C64.4557 67.8323 64.2422 65.4305 64.7228 63.1192C65.2034 60.8079 66.3566 58.6903 68.0374 57.0326C69.7182 55.3748 71.8516 54.251 74.1693 53.8024C76.487 53.3538 78.8856 53.6005 81.0636 54.5113C83.2415 55.4221 85.1016 56.9565 86.4099 58.9216C87.7182 60.8866 88.4163 63.1946 88.4165 65.5554C88.3872 68.7504 87.0936 71.8038 84.8187 74.0474C82.5438 76.2911 79.4728 77.5424 76.2777 77.5276Z" fill="#FBFBFB"/>
</g>
<defs>
<clipPath id="clip0_80_2243">
<rect width="100" height="100" fill="white"/>
</clipPath>
</defs>
</svg>
