<svg width="86" height="84" viewBox="0 0 86 84" fill="none" xmlns="http://www.w3.org/2000/svg">
<path d="M43.0839 81.9374C65.7431 81.9374 84.1119 63.8619 84.1119 41.5646C84.1119 19.2673 65.7431 1.19177 43.0839 1.19177C20.4248 1.19177 2.05591 19.2673 2.05591 41.5646C2.05591 63.8619 20.4248 81.9374 43.0839 81.9374Z" fill="#FBC907"/>
<path d="M6.11829 41.5645C6.11826 31.2037 10.1661 21.2394 17.4242 13.7336C24.6823 6.22785 34.5951 1.75522 45.1111 1.24127C44.4395 1.20822 43.7624 1.1917 43.08 1.1917C20.421 0.963673 1.86658 18.8549 1.64291 41.1521C1.41924 63.4492 19.5868 81.7073 42.2458 81.9334C42.5238 81.9334 42.8012 81.9334 43.078 81.9334C43.7577 81.9334 44.4348 81.9169 45.1091 81.8838C34.5941 81.3694 24.6825 76.8971 17.4249 69.3923C10.1673 61.8874 6.11927 51.9244 6.11829 41.5645Z" fill="#F3A70F"/>
<path d="M42.8725 83.127C19.5768 83.127 0.635498 64.4803 0.635498 41.5625C0.635498 18.6447 19.5768 0 42.8725 0C66.1683 0 85.1116 18.6388 85.1116 41.5625C85.1116 64.4863 66.1622 83.127 42.8725 83.127ZM42.8725 2.37942C20.9168 2.37942 3.05353 19.9574 3.05353 41.5625C3.05353 63.1677 20.9168 80.7456 42.8725 80.7456C64.8283 80.7456 82.6915 63.1677 82.6915 41.5625C82.6915 19.9574 64.8303 2.37942 42.8725 2.37942Z" fill="#426572"/>
<path d="M23.1415 11.9169C25.7216 10.1977 28.5004 8.78655 31.4192 7.71326C32.1426 7.44756 31.8222 6.29751 31.0968 6.56519C28.0774 7.66666 25.2019 9.11773 22.5309 10.8878C21.8902 11.3141 22.4947 12.3452 23.1354 11.9149L23.1415 11.9169Z" fill="white"/>
<path d="M7.70621 31.8466C8.32885 29.8241 9.31823 27.8809 10.3358 26.0329C12.7997 21.5889 16.0578 17.6185 19.9536 14.3122C20.544 13.8126 19.6856 12.9738 19.0992 13.4715C15.1303 16.8479 11.8111 20.8992 9.30009 25.4321C8.21802 27.3634 7.19237 29.4136 6.54152 31.5274C6.31584 32.261 7.48254 32.5763 7.70822 31.8446L7.70621 31.8466Z" fill="white"/>
<path d="M43.2429 73.1692C60.7028 73.1692 74.8567 59.2412 74.8567 42.0602C74.8567 24.8792 60.7028 10.9513 43.2429 10.9513C25.7831 10.9513 11.6292 24.8792 11.6292 42.0602C11.6292 59.2412 25.7831 73.1692 43.2429 73.1692Z" fill="#E8E8E8"/>
<path d="M14.1462 46.016C14.1489 39.4615 16.2555 33.0753 20.1652 27.7687C24.0749 22.4621 29.5881 18.5063 35.9179 16.4657C42.2478 14.4251 49.0709 14.4041 55.4136 16.4056C61.7564 18.4071 67.2946 22.3288 71.2381 27.6112C69.2266 23.8027 66.4361 20.445 63.042 17.7491C59.6479 15.0532 55.7237 13.0776 51.5161 11.9463C47.3086 10.8151 42.9087 10.5528 38.5931 11.1759C34.2775 11.799 30.1396 13.294 26.4396 15.5669C22.7396 17.8398 19.5575 20.8415 17.0935 24.3832C14.6295 27.9248 12.9368 31.9299 12.1219 36.1464C11.307 40.363 11.3875 44.6999 12.3583 48.8843C13.3292 53.0688 15.1694 57.0103 17.7632 60.4611C15.3827 56.0068 14.1413 51.0487 14.1462 46.016Z" fill="#DADADA"/>
<path d="M43.2169 30.1889C43.7064 30.1889 44.1759 30.3803 44.522 30.7209C44.8682 31.0615 45.0626 31.5235 45.0626 32.0052V41.739C45.0626 42.2207 44.8682 42.6827 44.522 43.0233C44.1759 43.3639 43.7064 43.5553 43.2169 43.5553C42.7273 43.5553 42.2579 43.3639 41.9117 43.0233C41.5656 42.6827 41.3711 42.2207 41.3711 41.739V32.0052C41.3711 31.5235 41.5656 31.0615 41.9117 30.7209C42.2579 30.3803 42.7273 30.1889 43.2169 30.1889Z" fill="#E8E8E8"/>
<path d="M43.1807 47.0451C44.9546 47.0451 46.3927 45.63 46.3927 43.8844C46.3927 42.1389 44.9546 40.7238 43.1807 40.7238C41.4068 40.7238 39.9688 42.1389 39.9688 43.8844C39.9688 45.63 41.4068 47.0451 43.1807 47.0451Z" fill="#E8E8E8"/>
<path d="M43.0476 18.365C44.3151 18.365 44.3151 16.4278 43.0476 16.4278C41.7802 16.4278 41.7802 18.365 43.0476 18.365Z" fill="#426572"/>
<path d="M43.0478 68.1882C44.3152 68.1882 44.3152 66.2509 43.0478 66.2509C41.7803 66.2509 41.7803 68.1882 43.0478 68.1882Z" fill="#426572"/>
<path d="M69.1142 43.2757C70.3816 43.2757 70.3816 41.3385 69.1142 41.3385C67.8467 41.3385 67.8467 43.2757 69.1142 43.2757Z" fill="#426572"/>
<path d="M16.9833 43.2757C18.2508 43.2757 18.2508 41.3384 16.9833 41.3384C15.7159 41.3384 15.7159 43.2757 16.9833 43.2757Z" fill="#426572"/>
<path d="M42.0567 30.401C42.5462 30.401 43.0157 30.5924 43.3619 30.933C43.708 31.2736 43.9025 31.7356 43.9025 32.2173V41.9511C43.9025 42.4328 43.708 42.8948 43.3619 43.2354C43.0157 43.5761 42.5462 43.7674 42.0567 43.7674C41.5672 43.7674 41.0977 43.5761 40.7516 43.2354C40.4054 42.8948 40.2109 42.4328 40.2109 41.9511V32.2193C40.2107 31.9806 40.2582 31.7442 40.3509 31.5236C40.4435 31.303 40.5794 31.1026 40.7508 30.9337C40.9223 30.7648 41.1258 30.6309 41.3499 30.5395C41.574 30.4481 41.8141 30.401 42.0567 30.401Z" fill="#426572"/>
<path d="M42.0203 47.0113C43.7942 47.0113 45.2323 45.5963 45.2323 43.8507C45.2323 42.1051 43.7942 40.69 42.0203 40.69C40.2464 40.69 38.8083 42.1051 38.8083 43.8507C38.8083 45.5963 40.2464 47.0113 42.0203 47.0113Z" fill="#426572"/>
<path d="M27.995 54.0485L55.2302 36.2246L59.093 33.7084C60.1448 33.0223 59.1595 31.3409 58.1016 32.0349L30.8604 49.8488L26.9976 52.3749C25.9518 53.061 26.9351 54.7425 27.995 54.0485Z" fill="#426572"/>
<path opacity="0.1" d="M42.9915 72.4613C60.4513 72.4613 74.6053 58.7695 74.6053 41.8798C74.6053 24.9901 60.4513 11.2983 42.9915 11.2983C25.5317 11.2983 11.3777 24.9901 11.3777 41.8798C11.3777 58.7695 25.5317 72.4613 42.9915 72.4613Z" fill="#55E0FF"/>
<path opacity="0.4" d="M49.6271 11.9308L17.6365 59.8583C15.8956 56.9456 14.6322 53.7812 13.8926 50.4814L39.6265 11.9387C42.9407 11.4054 46.321 11.4054 49.6352 11.9387L49.6271 11.9308Z" fill="white"/>
<path opacity="0.4" d="M59.0089 14.3955L23.9957 64.5973C22.9364 63.6734 21.942 62.6797 21.0195 61.6231L55.0413 12.841C56.3982 13.2697 57.7238 13.7891 59.0089 14.3955Z" fill="white"/>
<path opacity="0.4" d="M73.6121 34.0555L47.4872 71.5175C44.6463 71.9191 41.7638 71.9477 38.9153 71.6027L70.4827 26.3402C71.8836 28.7571 72.9368 31.3536 73.6121 34.0555Z" fill="white"/>
<path d="M42.9749 73.3159C24.8759 73.3159 10.1521 59.0632 10.1521 41.5447C10.1521 24.0262 24.8779 9.77347 42.9749 9.77347C61.0719 9.77347 75.7957 24.0262 75.7957 41.5447C75.7957 59.0632 61.0739 73.3159 42.9749 73.3159ZM42.9749 12.1529C26.2099 12.1529 12.5701 25.3388 12.5701 41.5447C12.5701 57.7505 26.2099 70.9365 42.9749 70.9365C59.74 70.9365 73.3777 57.7505 73.3777 41.5447C73.3777 25.3388 59.74 12.1529 42.9749 12.1529Z" fill="#426572"/>
</svg>
