<svg width="27" height="25" viewBox="0 0 27 25" fill="none" xmlns="http://www.w3.org/2000/svg">
<path d="M10.2016 3.36252C8.66764 3.20378 7.08247 3.20378 5.54854 3.36252C4.56171 3.46464 3.76375 4.18418 3.64737 5.10546C3.4639 6.55798 3.4639 8.02535 3.64737 9.47787C3.76375 10.3992 4.56171 11.1187 5.54854 11.2208C7.08247 11.3796 8.66764 11.3796 10.2016 11.2208C11.1884 11.1187 11.9864 10.3992 12.1027 9.47787C12.2862 8.02535 12.2862 6.55798 12.1027 5.10546C11.9864 4.18418 11.1884 3.46464 10.2016 3.36252Z" fill="black"/>
<path d="M10.2016 13.7792C8.66764 13.6204 7.08247 13.6204 5.54854 13.7792C4.56171 13.8813 3.76375 14.6008 3.64737 15.5221C3.4639 16.9746 3.4639 18.442 3.64737 19.8945C3.76375 20.8158 4.56171 21.5354 5.54854 21.6375C7.08247 21.7962 8.66764 21.7962 10.2016 21.6375C11.1884 21.5354 11.9864 20.8158 12.1027 19.8945C12.2862 18.442 12.2862 16.9746 12.1027 15.5221C11.9864 14.6008 11.1884 13.8813 10.2016 13.7792Z" fill="black"/>
<path d="M21.4516 3.36252C19.9177 3.20378 18.3325 3.20378 16.7986 3.36252C15.8117 3.46464 15.0138 4.18418 14.8974 5.10546C14.7139 6.55798 14.7139 8.02535 14.8974 9.47787C15.0138 10.3992 15.8117 11.1187 16.7986 11.2208C18.3325 11.3796 19.9177 11.3796 21.4516 11.2208C22.4384 11.1187 23.2364 10.3992 23.3528 9.47787C23.5362 8.02535 23.5362 6.55798 23.3528 5.10546C23.2364 4.18418 22.4384 3.46464 21.4516 3.36252Z" fill="black"/>
<path d="M21.4516 13.7792C19.9177 13.6204 18.3325 13.6204 16.7986 13.7792C15.8117 13.8813 15.0138 14.6008 14.8974 15.5221C14.7139 16.9746 14.7139 18.442 14.8974 19.8945C15.0138 20.8158 15.8117 21.5354 16.7986 21.6375C18.3325 21.7962 19.9177 21.7962 21.4516 21.6375C22.4384 21.5354 23.2364 20.8158 23.3528 19.8945C23.5362 18.442 23.5362 16.9746 23.3528 15.5221C23.2364 14.6008 22.4384 13.8813 21.4516 13.7792Z" fill="black"/>
</svg>
