<svg width="35" height="40" viewBox="0 0 35 40" fill="none" xmlns="http://www.w3.org/2000/svg">
<path d="M32.7714 16.38H27.5264C23.2251 16.38 19.7224 12.52 19.7224 7.78V2C19.7224 0.9 18.9057 0 17.9075 0H10.2124C4.62257 0 0.103516 4 0.103516 11.14V28.86C0.103516 36 4.62257 40 10.2124 40H24.4774C30.0672 40 34.5863 36 34.5863 28.86V18.38C34.5863 17.28 33.7696 16.38 32.7714 16.38ZM17.8531 27.56L14.2233 31.56C14.0963 31.7 13.9329 31.82 13.7696 31.88C13.6062 31.96 13.4429 32 13.2614 32C13.0799 32 12.9166 31.96 12.7532 31.88C12.6081 31.82 12.4629 31.7 12.354 31.58C12.3358 31.56 12.3177 31.56 12.3177 31.54L8.68791 27.54C8.16159 26.96 8.16159 26 8.68791 25.42C9.21422 24.84 10.0854 24.84 10.6117 25.42L11.9002 26.88V18.5C11.9002 17.68 12.5173 17 13.2614 17C14.0055 17 14.6226 17.68 14.6226 18.5V26.88L15.9293 25.44C16.4556 24.86 17.3267 24.86 17.8531 25.44C18.3794 26.02 18.3794 26.98 17.8531 27.56Z" fill="#6495ED"/>
<path d="M27.1989 13.621C28.9231 13.641 31.3187 13.641 33.3695 13.641C34.404 13.641 34.9485 12.301 34.2225 11.501C31.6091 8.60096 26.9267 3.38096 24.2407 0.420963C23.4966 -0.399037 22.208 0.160963 22.208 1.30096V8.28096C22.208 11.201 24.4585 13.621 27.1989 13.621Z" fill="#6495ED"/>
</svg>
