<svg width="250" height="70" viewBox="0 0 412 70" fill="none" xmlns="http://www.w3.org/2000/svg">
<ellipse cx="33.5" cy="35" rx="33.5" ry="35" fill="#E49F64"/>
<path d="M34.28 26.32L33.28 32.16H42.44L41.52 37.32H32.36L31.24 43.6H41.6L40.64 49H23.44L28.4 20.92H45.6L44.64 26.32H34.28Z" fill="white"/>
<path d="M67.99 32.94C67.99 30.86 68.44 29.01 69.34 27.39C70.24 25.75 71.49 24.48 73.09 23.58C74.71 22.66 76.54 22.2 78.58 22.2C81.08 22.2 83.22 22.86 85 24.18C86.78 25.5 87.97 27.3 88.57 29.58H82.93C82.51 28.7 81.91 28.03 81.13 27.57C80.37 27.11 79.5 26.88 78.52 26.88C76.94 26.88 75.66 27.43 74.68 28.53C73.7 29.63 73.21 31.1 73.21 32.94C73.21 34.78 73.7 36.25 74.68 37.35C75.66 38.45 76.94 39 78.52 39C79.5 39 80.37 38.77 81.13 38.31C81.91 37.85 82.51 37.18 82.93 36.3H88.57C87.97 38.58 86.78 40.38 85 41.7C83.22 43 81.08 43.65 78.58 43.65C76.54 43.65 74.71 43.2 73.09 42.3C71.49 41.38 70.24 40.11 69.34 38.49C68.44 36.87 67.99 35.02 67.99 32.94ZM99.3316 43.74C97.6916 43.74 96.2116 43.39 94.8916 42.69C93.5916 41.99 92.5616 40.99 91.8016 39.69C91.0616 38.39 90.6916 36.87 90.6916 35.13C90.6916 33.41 91.0716 31.9 91.8316 30.6C92.5916 29.28 93.6316 28.27 94.9516 27.57C96.2716 26.87 97.7516 26.52 99.3916 26.52C101.032 26.52 102.512 26.87 103.832 27.57C105.152 28.27 106.192 29.28 106.952 30.6C107.712 31.9 108.092 33.41 108.092 35.13C108.092 36.85 107.702 38.37 106.922 39.69C106.162 40.99 105.112 41.99 103.772 42.69C102.452 43.39 100.972 43.74 99.3316 43.74ZM99.3316 39.3C100.312 39.3 101.142 38.94 101.822 38.22C102.522 37.5 102.872 36.47 102.872 35.13C102.872 33.79 102.532 32.76 101.852 32.04C101.192 31.32 100.372 30.96 99.3916 30.96C98.3916 30.96 97.5616 31.32 96.9016 32.04C96.2416 32.74 95.9116 33.77 95.9116 35.13C95.9116 36.47 96.2316 37.5 96.8716 38.22C97.5316 38.94 98.3516 39.3 99.3316 39.3ZM127.343 26.76V43.5H122.213V41.22C121.693 41.96 120.983 42.56 120.083 43.02C119.203 43.46 118.223 43.68 117.143 43.68C115.863 43.68 114.733 43.4 113.753 42.84C112.773 42.26 112.013 41.43 111.473 40.35C110.933 39.27 110.663 38 110.663 36.54V26.76H115.763V35.85C115.763 36.97 116.053 37.84 116.633 38.46C117.213 39.08 117.993 39.39 118.973 39.39C119.973 39.39 120.763 39.08 121.343 38.46C121.923 37.84 122.213 36.97 122.213 35.85V26.76H127.343ZM136.158 29.55C136.758 28.63 137.508 27.91 138.408 27.39C139.308 26.85 140.308 26.58 141.408 26.58V32.01H139.998C138.718 32.01 137.758 32.29 137.118 32.85C136.478 33.39 136.158 34.35 136.158 35.73V43.5H131.028V26.76H136.158V29.55ZM150.67 43.74C149.21 43.74 147.91 43.49 146.77 42.99C145.63 42.49 144.73 41.81 144.07 40.95C143.41 40.07 143.04 39.09 142.96 38.01H148.03C148.09 38.59 148.36 39.06 148.84 39.42C149.32 39.78 149.91 39.96 150.61 39.96C151.25 39.96 151.74 39.84 152.08 39.6C152.44 39.34 152.62 39.01 152.62 38.61C152.62 38.13 152.37 37.78 151.87 37.56C151.37 37.32 150.56 37.06 149.44 36.78C148.24 36.5 147.24 36.21 146.44 35.91C145.64 35.59 144.95 35.1 144.37 34.44C143.79 33.76 143.5 32.85 143.5 31.71C143.5 30.75 143.76 29.88 144.28 29.1C144.82 28.3 145.6 27.67 146.62 27.21C147.66 26.75 148.89 26.52 150.31 26.52C152.41 26.52 154.06 27.04 155.26 28.08C156.48 29.12 157.18 30.5 157.36 32.22H152.62C152.54 31.64 152.28 31.18 151.84 30.84C151.42 30.5 150.86 30.33 150.16 30.33C149.56 30.33 149.1 30.45 148.78 30.69C148.46 30.91 148.3 31.22 148.3 31.62C148.3 32.1 148.55 32.46 149.05 32.7C149.57 32.94 150.37 33.18 151.45 33.42C152.69 33.74 153.7 34.06 154.48 34.38C155.26 34.68 155.94 35.18 156.52 35.88C157.12 36.56 157.43 37.48 157.45 38.64C157.45 39.62 157.17 40.5 156.61 41.28C156.07 42.04 155.28 42.64 154.24 43.08C153.22 43.52 152.03 43.74 150.67 43.74ZM176.369 34.86C176.369 35.34 176.339 35.84 176.279 36.36H164.669C164.749 37.4 165.079 38.2 165.659 38.76C166.259 39.3 166.989 39.57 167.849 39.57C169.129 39.57 170.019 39.03 170.519 37.95H175.979C175.699 39.05 175.189 40.04 174.449 40.92C173.729 41.8 172.819 42.49 171.719 42.99C170.619 43.49 169.389 43.74 168.029 43.74C166.389 43.74 164.929 43.39 163.649 42.69C162.369 41.99 161.369 40.99 160.649 39.69C159.929 38.39 159.569 36.87 159.569 35.13C159.569 33.39 159.919 31.87 160.619 30.57C161.339 29.27 162.339 28.27 163.619 27.57C164.899 26.87 166.369 26.52 168.029 26.52C169.649 26.52 171.089 26.86 172.349 27.54C173.609 28.22 174.589 29.19 175.289 30.45C176.009 31.71 176.369 33.18 176.369 34.86ZM171.119 33.51C171.119 32.63 170.819 31.93 170.219 31.41C169.619 30.89 168.869 30.63 167.969 30.63C167.109 30.63 166.379 30.88 165.779 31.38C165.199 31.88 164.839 32.59 164.699 33.51H171.119ZM181.475 43.74C180.575 43.74 179.835 43.48 179.255 42.96C178.695 42.42 178.415 41.76 178.415 40.98C178.415 40.18 178.695 39.51 179.255 38.97C179.835 38.43 180.575 38.16 181.475 38.16C182.355 38.16 183.075 38.43 183.635 38.97C184.215 39.51 184.505 40.18 184.505 40.98C184.505 41.76 184.215 42.42 183.635 42.96C183.075 43.48 182.355 43.74 181.475 43.74Z" fill="#055EA8"/>
</svg>
