<svg width="177" height="50" viewBox="0 0 177 50" fill="none" xmlns="http://www.w3.org/2000/svg">
<circle cx="25" cy="25" r="25" fill="#055EA8"/>
<path d="M25.475 19.75L24.975 22.675H30.6L29.925 26.4H24.3L23.725 29.6H30.1L29.425 33.5H18.125L21.25 15.875H32.525L31.85 19.75H25.475Z" fill="white"/>
<path d="M55.825 25.2C55.825 23.4667 56.2 21.925 56.95 20.575C57.7 19.2083 58.7417 18.15 60.075 17.4C61.425 16.6333 62.95 16.25 64.65 16.25C66.7333 16.25 68.5167 16.8 70 17.9C71.4833 19 72.475 20.5 72.975 22.4H68.275C67.925 21.6667 67.425 21.1083 66.775 20.725C66.1417 20.3417 65.4167 20.15 64.6 20.15C63.2833 20.15 62.2167 20.6083 61.4 21.525C60.5833 22.4417 60.175 23.6667 60.175 25.2C60.175 26.7333 60.5833 27.9583 61.4 28.875C62.2167 29.7917 63.2833 30.25 64.6 30.25C65.4167 30.25 66.1417 30.0583 66.775 29.675C67.425 29.2917 67.925 28.7333 68.275 28H72.975C72.475 29.9 71.4833 31.4 70 32.5C68.5167 33.5833 66.7333 34.125 64.65 34.125C62.95 34.125 61.425 33.75 60.075 33C58.7417 32.2333 57.7 31.175 56.95 29.825C56.2 28.475 55.825 26.9333 55.825 25.2ZM81.943 34.2C80.5763 34.2 79.343 33.9083 78.243 33.325C77.1596 32.7417 76.3013 31.9083 75.668 30.825C75.0513 29.7417 74.743 28.475 74.743 27.025C74.743 25.5917 75.0596 24.3333 75.693 23.25C76.3263 22.15 77.193 21.3083 78.293 20.725C79.393 20.1417 80.6263 19.85 81.993 19.85C83.3596 19.85 84.593 20.1417 85.693 20.725C86.793 21.3083 87.6596 22.15 88.293 23.25C88.9263 24.3333 89.243 25.5917 89.243 27.025C89.243 28.4583 88.918 29.725 88.268 30.825C87.6346 31.9083 86.7596 32.7417 85.643 33.325C84.543 33.9083 83.3096 34.2 81.943 34.2ZM81.943 30.5C82.7596 30.5 83.4513 30.2 84.018 29.6C84.6013 29 84.893 28.1417 84.893 27.025C84.893 25.9083 84.6096 25.05 84.043 24.45C83.493 23.85 82.8096 23.55 81.993 23.55C81.1596 23.55 80.468 23.85 79.918 24.45C79.368 25.0333 79.093 25.8917 79.093 27.025C79.093 28.1417 79.3596 29 79.893 29.6C80.443 30.2 81.1263 30.5 81.943 30.5ZM105.286 20.05V34H101.011V32.1C100.578 32.7167 99.9859 33.2167 99.2359 33.6C98.5026 33.9667 97.6859 34.15 96.7859 34.15C95.7193 34.15 94.7776 33.9167 93.9609 33.45C93.1443 32.9667 92.5109 32.275 92.0609 31.375C91.6109 30.475 91.3859 29.4167 91.3859 28.2V20.05H95.6359V27.625C95.6359 28.5583 95.8776 29.2833 96.3609 29.8C96.8443 30.3167 97.4943 30.575 98.3109 30.575C99.1443 30.575 99.8026 30.3167 100.286 29.8C100.769 29.2833 101.011 28.5583 101.011 27.625V20.05H105.286ZM112.632 22.375C113.132 21.6083 113.757 21.0083 114.507 20.575C115.257 20.125 116.09 19.9 117.007 19.9V24.425H115.832C114.765 24.425 113.965 24.6583 113.432 25.125C112.898 25.575 112.632 26.375 112.632 27.525V34H108.357V20.05H112.632V22.375ZM124.725 34.2C123.508 34.2 122.425 33.9917 121.475 33.575C120.525 33.1583 119.775 32.5917 119.225 31.875C118.675 31.1417 118.367 30.325 118.3 29.425H122.525C122.575 29.9083 122.8 30.3 123.2 30.6C123.6 30.9 124.092 31.05 124.675 31.05C125.208 31.05 125.617 30.95 125.9 30.75C126.2 30.5333 126.35 30.2583 126.35 29.925C126.35 29.525 126.142 29.2333 125.725 29.05C125.308 28.85 124.633 28.6333 123.7 28.4C122.7 28.1667 121.867 27.925 121.2 27.675C120.533 27.4083 119.958 27 119.475 26.45C118.992 25.8833 118.75 25.125 118.75 24.175C118.75 23.375 118.967 22.65 119.4 22C119.85 21.3333 120.5 20.8083 121.35 20.425C122.217 20.0417 123.242 19.85 124.425 19.85C126.175 19.85 127.55 20.2833 128.55 21.15C129.567 22.0167 130.15 23.1667 130.3 24.6H126.35C126.283 24.1167 126.067 23.7333 125.7 23.45C125.35 23.1667 124.883 23.025 124.3 23.025C123.8 23.025 123.417 23.125 123.15 23.325C122.883 23.5083 122.75 23.7667 122.75 24.1C122.75 24.5 122.958 24.8 123.375 25C123.808 25.2 124.475 25.4 125.375 25.6C126.408 25.8667 127.25 26.1333 127.9 26.4C128.55 26.65 129.117 27.0667 129.6 27.65C130.1 28.2167 130.358 28.9833 130.375 29.95C130.375 30.7667 130.142 31.5 129.675 32.15C129.225 32.7833 128.567 33.2833 127.7 33.65C126.85 34.0167 125.858 34.2 124.725 34.2ZM146.14 26.8C146.14 27.2 146.115 27.6167 146.065 28.05H136.39C136.457 28.9167 136.732 29.5833 137.215 30.05C137.715 30.5 138.324 30.725 139.04 30.725C140.107 30.725 140.849 30.275 141.265 29.375H145.815C145.582 30.2917 145.157 31.1167 144.54 31.85C143.94 32.5833 143.182 33.1583 142.265 33.575C141.349 33.9917 140.324 34.2 139.19 34.2C137.824 34.2 136.607 33.9083 135.54 33.325C134.474 32.7417 133.64 31.9083 133.04 30.825C132.44 29.7417 132.14 28.475 132.14 27.025C132.14 25.575 132.432 24.3083 133.015 23.225C133.615 22.1417 134.449 21.3083 135.515 20.725C136.582 20.1417 137.807 19.85 139.19 19.85C140.54 19.85 141.74 20.1333 142.79 20.7C143.84 21.2667 144.657 22.075 145.24 23.125C145.84 24.175 146.14 25.4 146.14 26.8ZM141.765 25.675C141.765 24.9417 141.515 24.3583 141.015 23.925C140.515 23.4917 139.89 23.275 139.14 23.275C138.424 23.275 137.815 23.4833 137.315 23.9C136.832 24.3167 136.532 24.9083 136.415 25.675H141.765ZM150.396 34.2C149.646 34.2 149.029 33.9833 148.546 33.55C148.079 33.1 147.846 32.55 147.846 31.9C147.846 31.2333 148.079 30.675 148.546 30.225C149.029 29.775 149.646 29.55 150.396 29.55C151.129 29.55 151.729 29.775 152.196 30.225C152.679 30.675 152.921 31.2333 152.921 31.9C152.921 32.55 152.679 33.1 152.196 33.55C151.729 33.9833 151.129 34.2 150.396 34.2Z" fill="#022F54"/>
</svg>
