<svg width="19" height="25" viewBox="0 0 19 25" fill="none" xmlns="http://www.w3.org/2000/svg">
<path d="M17.594 22.0933H1.41173C1.10518 22.0933 0.811176 22.2201 0.594407 22.4458C0.377639 22.6714 0.255859 22.9776 0.255859 23.2967C0.255859 23.6159 0.377639 23.922 0.594407 24.1477C0.811176 24.3734 1.10518 24.5002 1.41173 24.5002H17.594C17.9005 24.5002 18.1945 24.3734 18.4113 24.1477C18.6281 23.922 18.7498 23.6159 18.7498 23.2967C18.7498 22.9776 18.6281 22.6714 18.4113 22.4458C18.1945 22.2201 17.9005 22.0933 17.594 22.0933Z" fill="#055EA8"/>
<path d="M1.41073 19.6861H1.51476L6.33475 19.2288C6.86275 19.174 7.35659 18.9318 7.73336 18.5428L18.1362 7.71152C18.54 7.26739 18.7582 6.67473 18.743 6.0634C18.7279 5.45207 18.4806 4.87192 18.0553 4.4501L14.8882 1.15257C14.4749 0.748321 13.9332 0.516367 13.3663 0.500834C12.7994 0.485301 12.2468 0.687273 11.8136 1.06833L1.41073 11.8996C1.03711 12.2919 0.804481 12.8061 0.751884 13.3558L0.254858 18.3743C0.239287 18.5506 0.261255 18.7283 0.319195 18.8947C0.377136 19.0611 0.469622 19.2122 0.590061 19.3371C0.698066 19.4486 0.826156 19.5369 0.966985 19.5968C1.10781 19.6567 1.25861 19.687 1.41073 19.6861ZM13.2816 2.83744L16.4371 6.12293L14.1253 8.46971L11.0276 5.24439L13.2816 2.83744ZM2.99428 13.5604L9.50185 6.83298L12.6227 10.0824L6.14981 16.8218L2.68219 17.1588L2.99428 13.5604Z" fill="#055EA8"/>
</svg>
