<svg width="20" height="17" viewBox="0 0 20 17" fill="none" xmlns="http://www.w3.org/2000/svg">
<path d="M12.5793 9.56177L18.35 5.71429V11.5C18.35 13.3472 16.8472 14.85 15 14.85H5C3.15284 14.85 1.65 13.3472 1.65 11.5V5.71429L7.42082 9.56182L7.42086 9.56184C8.20384 10.0835 9.10182 10.345 10 10.345C10.898 10.345 11.7961 10.0846 12.5792 9.56182C12.5792 9.5618 12.5792 9.56178 12.5793 9.56177ZM15 0.85H5C2.43616 0.85 0.35 2.93616 0.35 5.5V11.5C0.35 14.0638 2.43616 16.15 5 16.15H15C17.5638 16.15 19.65 14.0638 19.65 11.5V5.5C19.65 2.93514 17.5638 0.85 15 0.85ZM5 2.15H15C16.4242 2.15 17.6324 3.0503 18.1148 4.30955L11.8589 8.48014C10.7292 9.23259 9.27182 9.23259 8.14218 8.48014L1.88614 4.30949C2.36758 3.04947 3.57568 2.15 5 2.15Z" fill="#055EA8" stroke="#055EA8" stroke-width="0.3"/>
</svg>
