<svg width="24" height="25" viewBox="0 0 24 25" fill="none" xmlns="http://www.w3.org/2000/svg">
<path d="M11.99 2.19568C6.47 2.19568 2 6.67568 2 12.1957C2 17.7157 6.47 22.1957 11.99 22.1957C17.52 22.1957 22 17.7157 22 12.1957C22 6.67568 17.52 2.19568 11.99 2.19568ZM12 20.1957C7.58 20.1957 4 16.6157 4 12.1957C4 7.77568 7.58 4.19568 12 4.19568C16.42 4.19568 20 7.77568 20 12.1957C20 16.6157 16.42 20.1957 12 20.1957ZM15.5 11.1957C16.33 11.1957 17 10.5257 17 9.69568C17 8.86568 16.33 8.19568 15.5 8.19568C14.67 8.19568 14 8.86568 14 9.69568C14 10.5257 14.67 11.1957 15.5 11.1957ZM8.5 11.1957C9.33 11.1957 10 10.5257 10 9.69568C10 8.86568 9.33 8.19568 8.5 8.19568C7.67 8.19568 7 8.86568 7 9.69568C7 10.5257 7.67 11.1957 8.5 11.1957ZM12 17.6957C14.33 17.6957 16.31 16.2357 17.11 14.1957H6.89C7.69 16.2357 9.67 17.6957 12 17.6957Z" fill="black"/>
</svg>
