<svg width="24" height="24" viewBox="0 0 24 24" fill="none" xmlns="http://www.w3.org/2000/svg">
<path d="M21.0146 10.2445C19.7266 8.09851 16.8426 4.49951 11.9996 4.49951C7.15763 4.49951 4.27261 8.09851 2.98461 10.2445C2.33561 11.3275 2.33561 12.6725 2.98461 13.7555C4.27361 15.9015 7.15763 19.5005 11.9996 19.5005C16.8426 19.5005 19.7266 15.9015 21.0146 13.7555C21.6646 12.6725 21.6646 11.3275 21.0146 10.2445ZM20.1576 13.2405C18.9786 15.2045 16.3506 18.4995 11.9996 18.4995C7.64963 18.4995 5.02164 15.2045 3.84164 13.2405C3.38264 12.4755 3.38264 11.5245 3.84164 10.7595C5.02164 8.79552 7.64963 5.50052 11.9996 5.50052C16.3506 5.50052 18.9786 8.79552 20.1576 10.7595C20.6166 11.5245 20.6166 12.4755 20.1576 13.2405ZM11.9996 8.00052C9.79363 8.00052 7.99963 9.79452 7.99963 12.0005C7.99963 14.2065 9.79363 16.0005 11.9996 16.0005C14.2056 16.0005 15.9996 14.2065 15.9996 12.0005C15.9996 9.79452 14.2056 8.00052 11.9996 8.00052ZM11.9996 15.0005C10.3456 15.0005 8.99963 13.6545 8.99963 12.0005C8.99963 10.3465 10.3456 9.00052 11.9996 9.00052C13.6536 9.00052 14.9996 10.3465 14.9996 12.0005C14.9996 13.6545 13.6536 15.0005 11.9996 15.0005Z" fill="#055EA8"/>
</svg>
