<svg width="32" height="33" viewBox="0 0 32 33" fill="none" xmlns="http://www.w3.org/2000/svg">
<path d="M20 29.6064V29.5914C20.0999 29.6014 20.2013 29.6064 20.3038 29.6064C21.769 29.6064 23.0253 28.5604 23.2907 27.1195L23.9379 23.6064H26.75C28.5449 23.6064 30 22.1514 30 20.3564V11.5163C30 9.90922 28.6972 8.60645 27.0902 8.60645C27.06 8.60645 27.03 8.60691 27 8.60783V8.60645H19.2666V6.85645C19.2666 5.06152 17.8116 3.60645 16.0166 3.60645H5.25C3.45507 3.60645 2 5.06152 2 6.85645V25.1064C2 27.5917 4.01472 29.6064 6.5 29.6064H20ZM19.2666 10.6064H24.326C24.2854 10.7302 24.2526 10.858 24.2285 10.9891L21.3238 26.7572C21.2332 27.2492 20.8042 27.6064 20.3038 27.6064C19.731 27.6064 19.2666 27.1421 19.2666 26.5693V10.6064ZM7 10.6064C6.44772 10.6064 6 10.1587 6 9.60645C6 9.05416 6.44772 8.60645 7 8.60645C7.55228 8.60645 8 9.05416 8 9.60645C8 10.1587 7.55228 10.6064 7 10.6064ZM6 16.6064C6 16.0542 6.44772 15.6064 7 15.6064H14C14.5523 15.6064 15 16.0542 15 16.6064C15 17.1587 14.5523 17.6064 14 17.6064H7C6.44772 17.6064 6 17.1587 6 16.6064ZM7 21.6064H14C14.5523 21.6064 15 22.0542 15 22.6064C15 23.1587 14.5523 23.6064 14 23.6064H7C6.44772 23.6064 6 23.1587 6 22.6064C6 22.0542 6.44772 21.6064 7 21.6064Z" fill="#5894C5"/>
</svg>
