<svg width="33" height="33" viewBox="0 0 33 33" fill="none" xmlns="http://www.w3.org/2000/svg">
<path d="M7 4.60645C4.51472 4.60645 2.5 6.62116 2.5 9.10645V24.1064C2.5 26.5917 4.51472 28.6064 7 28.6064H26C28.4853 28.6064 30.5 26.5917 30.5 24.1064V9.10645C30.5 6.62116 28.4853 4.60645 26 4.60645H7ZM26.5 8.60645C27.0523 8.60645 27.5 9.05416 27.5 9.60645V11.6064C27.5 12.1587 27.0523 12.6064 26.5 12.6064C25.9477 12.6064 25.5 12.1587 25.5 11.6064V9.60645C25.5 9.05416 25.9477 8.60645 26.5 8.60645ZM25.5 15.6064C25.5 15.0542 25.9477 14.6064 26.5 14.6064C27.0523 14.6064 27.5 15.0542 27.5 15.6064V17.6064C27.5 18.1587 27.0523 18.6064 26.5 18.6064C25.9477 18.6064 25.5 18.1587 25.5 17.6064V15.6064ZM26.5 20.6064C27.0523 20.6064 27.5 21.0542 27.5 21.6064V23.6064C27.5 24.1587 27.0523 24.6064 26.5 24.6064C25.9477 24.6064 25.5 24.1587 25.5 23.6064V21.6064C25.5 21.0542 25.9477 20.6064 26.5 20.6064ZM5.5 9.60645C5.5 9.05416 5.94772 8.60645 6.5 8.60645C7.05228 8.60645 7.5 9.05416 7.5 9.60645V11.6064C7.5 12.1587 7.05228 12.6064 6.5 12.6064C5.94772 12.6064 5.5 12.1587 5.5 11.6064V9.60645ZM6.5 14.6064C7.05228 14.6064 7.5 15.0542 7.5 15.6064V17.6064C7.5 18.1587 7.05228 18.6064 6.5 18.6064C5.94772 18.6064 5.5 18.1587 5.5 17.6064V15.6064C5.5 15.0542 5.94772 14.6064 6.5 14.6064ZM5.5 21.6064C5.5 21.0542 5.94772 20.6064 6.5 20.6064C7.05228 20.6064 7.5 21.0542 7.5 21.6064V23.6064C7.5 24.1587 7.05228 24.6064 6.5 24.6064C5.94772 24.6064 5.5 24.1587 5.5 23.6064V21.6064ZM13.5 13.6556C13.5 12.8467 14.3778 12.343 15.0762 12.7512L20.6752 16.0234C21.2665 16.3691 21.2665 17.2237 20.6752 17.5693L15.0762 20.8415C14.3778 21.2497 13.5 20.746 13.5 19.937V13.6556Z" fill="#5894C5"/>
</svg>
