<svg width="19" height="13" viewBox="0 0 19 13" fill="none" xmlns="http://www.w3.org/2000/svg">
<path d="M1.00324 1.1782C0.725309 1.1782 0.5 0.91445 0.5 0.589099C0.5 0.263749 0.725309 0 1.00324 0H18.1134C18.3914 0 18.6167 0.263749 18.6167 0.589099C18.6167 0.91445 18.3914 1.1782 18.1134 1.1782H1.00324ZM1.00324 7.06919C0.725309 7.06919 0.5 6.80544 0.5 6.48009C0.5 6.15474 0.725309 5.89099 1.00324 5.89099H18.1134C18.3914 5.89099 18.6167 6.15474 18.6167 6.48009C18.6167 6.80544 18.3914 7.06919 18.1134 7.06919H1.00324ZM1.00324 12.9602C0.725309 12.9602 0.5 12.6964 0.5 12.3711C0.5 12.0457 0.725309 11.782 1.00324 11.782H18.1134C18.3914 11.782 18.6167 12.0457 18.6167 12.3711C18.6167 12.6964 18.3914 12.9602 18.1134 12.9602H1.00324Z" fill="#055EA8"/>
</svg>
