<svg width="19" height="19" viewBox="0 0 19 19" fill="none" xmlns="http://www.w3.org/2000/svg">
<path d="M15.9401 5.63657L11.9818 2.45365C10.5441 1.29735 8.45651 1.29735 7.01805 2.45365L3.05971 5.63657C2.12159 6.39133 1.58325 7.51523 1.58325 8.71905V13.4646C1.58325 15.6457 3.35896 17.4198 5.54158 17.4198H7.91658V13.4638C7.91658 12.5918 8.62671 11.8838 9.49992 11.8838C10.3731 11.8838 11.0833 12.5926 11.0833 13.4638V17.4198H13.4583C15.6409 17.4198 17.4166 15.6457 17.4166 13.4646V8.71905C17.4166 7.51523 16.8782 6.39133 15.9401 5.63657ZM15.8333 13.4646C15.8333 14.7721 14.7677 15.8358 13.4583 15.8358H12.6666V13.4638C12.6666 11.7191 11.2463 10.2998 9.49992 10.2998C7.7535 10.2998 6.33325 11.7191 6.33325 13.4638V15.8358H5.54158C4.23217 15.8358 3.16659 14.7721 3.16659 13.4646V8.71905C3.16659 7.99755 3.48958 7.32356 4.05167 6.87134L8.01 3.68832C8.87371 2.99454 10.1269 2.99454 10.9898 3.68832L14.9482 6.87134C15.511 7.32356 15.834 7.99755 15.834 8.71905V13.4646H15.8333Z" fill="#5894C5"/>
</svg>
