<?xml version="1.0" ?><svg viewBox="0 0 512 512" xmlns="http://www.w3.org/2000/svg"><g id="flat"><path d="M319.246,256l.367-.269a82,82,0,0,1,70.993-12.7L408,248l16-16-32-40-32,8-16-24,24-32,16.576,5.1A148,148,0,0,1,487.037,266.224l.119.711a12,12,0,0,1-2.237,9.173l-37.176,49.568a82,82,0,0,1-83.388,30.847L328,352Z" style="fill:#f5d3bd"/><path d="M192.754,256l-.367-.269a82,82,0,0,0-70.993-12.7L104,248,88,232l32-40,32,8,16-24-24-32-16.576,5.1A148,148,0,0,0,24.963,266.224l-.119.711a12,12,0,0,0,2.237,9.173l37.176,49.568a82,82,0,0,0,83.388,30.847L184,352Z" style="fill:#f5d3bd"/><path d="M400,312H360a8,8,0,0,1,0-16h36.687l13.656-13.657a8,8,0,0,1,11.314,11.314l-16,16A8,8,0,0,1,400,312Z" style="fill:#e8c8b3"/><path d="M152,312H112a8,8,0,0,1-5.657-2.343l-16-16a8,8,0,0,1,11.314-11.314L115.313,296H152a8,8,0,0,1,0,16Z" style="fill:#e8c8b3"/><path d="M256,416l-47.006-33.788a213,213,0,0,1-64.4-74.2l-.651-1.245a36.26,36.26,0,0,1,1.035-35.467l.031-.053a46.352,46.352,0,0,1,39.746-22.5h2.412a46.355,46.355,0,0,1,34.665,15.58L256,304l34.169-39.675a46.355,46.355,0,0,1,34.665-15.58h2.412a46.352,46.352,0,0,1,39.746,22.5l.031.053a36.26,36.26,0,0,1,1.035,35.467l-.651,1.245a213,213,0,0,1-64.4,74.2Z" style="fill:#f55648"/><circle cx="220" cy="324" r="12" style="fill:#a83b32"/><circle cx="292" cy="324" r="12" style="fill:#a83b32"/><path d="M272,360H240a8,8,0,0,1,0-16h32a8,8,0,0,1,0,16Z" style="fill:#a83b32"/><path d="M192,224a8,8,0,0,1-7.589-5.472l-8-24a8,8,0,0,1,15.18-5.06l8,24A8,8,0,0,1,192,224Z" style="fill:#f7ba61"/><path d="M223.992,232a8,8,0,0,1-6.648-12.439l16-24a8,8,0,0,1,13.312,8.876l-16,24A7.992,7.992,0,0,1,223.992,232Z" style="fill:#f7ba61"/><path d="M320,224a8,8,0,0,1-7.591-10.532l8-24a8,8,0,0,1,15.18,5.06l-8,24A8,8,0,0,1,320,224Z" style="fill:#f7ba61"/><path d="M288.008,232a7.992,7.992,0,0,1-6.664-3.563l-16-24a8,8,0,1,1,13.312-8.876l16,24A8,8,0,0,1,288.008,232Z" style="fill:#f7ba61"/><rect height="16" style="fill:#8ed2ff" width="16" x="72" y="96"/><rect height="16" style="fill:#8ed2ff" width="16" x="72" y="128"/><rect height="16" style="fill:#8ed2ff" width="16" x="56" y="112"/><rect height="16" style="fill:#8ed2ff" width="16" x="88" y="112"/><rect height="16" style="fill:#8ed2ff" width="16" x="296" y="88"/><rect height="16" style="fill:#8ed2ff" width="16" x="296" y="136"/><rect height="16" style="fill:#8ed2ff" width="16" x="272" y="112"/><rect height="16" style="fill:#8ed2ff" width="16" x="320" y="112"/></g></svg>