<svg width="22" height="25" viewBox="0 0 22 25" fill="none" xmlns="http://www.w3.org/2000/svg">
<path fill-rule="evenodd" clip-rule="evenodd" d="M0 6.42857C0 2.87817 2.77024 0 6.1875 0H19.9375C21.0766 0 22 0.95939 22 2.14286V23.5714C22 24.3604 21.3844 25 20.625 25H4.8125C2.38805 25 0.382332 23.1374 0.0487361 20.7143H0V6.42857ZM19.9375 17.1429H4.8125C3.29372 17.1429 2.0625 18.422 2.0625 20C2.0625 21.578 3.29372 22.8571 4.8125 22.8571H19.9375V17.1429ZM5.84375 6.42857C5.84375 5.83684 6.30546 5.35714 6.875 5.35714H16.5C17.0695 5.35714 17.5312 5.83684 17.5312 6.42857C17.5312 7.02031 17.0695 7.5 16.5 7.5H6.875C6.30546 7.5 5.84375 7.02031 5.84375 6.42857ZM6.875 9.64286C6.30546 9.64286 5.84375 10.1226 5.84375 10.7143C5.84375 11.306 6.30546 11.7857 6.875 11.7857H13.75C14.3195 11.7857 14.7812 11.306 14.7812 10.7143C14.7812 10.1226 14.3195 9.64286 13.75 9.64286H6.875Z" fill="#A8A8A8"/>
</svg>
