<svg width="122" height="95" viewBox="0 0 122 95" fill="none" xmlns="http://www.w3.org/2000/svg">
<path d="M0 15.5589C0 7.27467 6.71573 0.55896 15 0.55896H106.831C115.115 0.55896 121.831 7.27469 121.831 15.559V80C121.831 88.2843 115.115 95 106.831 95H15C6.71573 95 0 88.2843 0 80V15.5589Z" fill="#FFD77A"/>
<path d="M84.2447 63.2865H37.5769C36.656 63.2865 35.9102 62.4033 35.9102 61.3129V25.7866C35.9102 24.6962 36.656 23.8129 37.5769 23.8129H84.2447C85.1656 23.8129 85.9114 24.6962 85.9114 25.7866V61.3129C85.9114 62.4033 85.1656 63.2865 84.2447 63.2865Z" fill="url(#paint0_linear_3055_470)"/>
<path opacity="0.3" d="M84.2447 63.2865H37.5769C36.656 63.2865 35.9102 62.4033 35.9102 61.3129V25.7866C35.9102 24.6962 36.656 23.8129 37.5769 23.8129H84.2447C85.1656 23.8129 85.9114 24.6962 85.9114 25.7866V61.3129C85.9114 62.4033 85.1656 63.2865 84.2447 63.2865Z" fill="url(#paint1_linear_3055_470)"/>
<path opacity="0.3" d="M84.2535 63.2865H37.5857C36.6648 63.2865 35.9189 62.4033 35.9189 61.3129V25.7866C35.9189 24.6962 36.6648 23.8129 37.5857 23.8129H84.2535C85.1744 23.8129 85.9202 24.6962 85.9202 25.7866V61.3129C85.9202 62.4033 85.1702 63.2865 84.2535 63.2865Z" fill="url(#paint2_linear_3055_470)"/>
<path d="M39.2441 27.7604H49.2444V29.7341H39.2441V27.7604Z" fill="#76FF03"/>
<path d="M70.0352 27.7604H76.702V29.7341H70.0352V27.7604Z" fill="#76FF03"/>
<path d="M79.1885 27.7604H82.5219V29.7341H79.1885V27.7604Z" fill="#76FF03"/>
<path d="M42.5771 33.6815H45.9106V35.6552H42.5771V33.6815Z" fill="#76FF03"/>
<path d="M39.2441 39.6025H45.911V41.5761H39.2441V39.6025Z" fill="#76FF03"/>
<path d="M39.2441 45.5236H42.5776V47.4973H39.2441V45.5236Z" fill="#76FF03"/>
<path d="M75.0781 45.5236H80.0783V47.4973H75.0781V45.5236Z" fill="#76FF03"/>
<path d="M77.5781 39.6025H82.5783V41.5761H77.5781V39.6025Z" fill="#76FF03"/>
<path d="M39.2441 51.4445H45.911V53.4182H39.2441V51.4445Z" fill="#76FF03"/>
<path d="M74.2451 51.4445H82.5787V53.4182H74.2451V51.4445Z" fill="#76FF03"/>
<path d="M75.9111 33.6815H80.9113V35.6552H75.9111V33.6815Z" fill="#76FF03"/>
<path d="M37.4262 81.04H42.7721C43.2388 80.9956 43.6097 80.4578 43.6097 79.7966V79.4759C43.6097 77.7095 42.9388 76.1651 41.9346 75.3065C41.9346 75.3805 41.9388 75.4545 41.9388 75.5285C41.9388 77.5516 41.1138 79.1897 40.1012 79.1897C39.0887 79.1897 38.2637 77.5516 38.2637 75.5285C38.2637 75.4545 38.2679 75.3805 38.2679 75.3065C37.2637 76.17 36.5928 77.7095 36.5928 79.4759V79.7966C36.5886 80.4627 36.9595 80.9956 37.4262 81.04Z" fill="#26A69A"/>
<path d="M40.0977 79.1946C43.8478 79.1946 41.9353 77.5565 41.9353 75.5334C41.9353 75.4594 41.9311 75.3854 41.9311 75.3114C41.3977 74.8525 40.7686 74.5811 40.0977 74.5811C39.4269 74.5811 38.7977 74.8525 38.2643 75.3114C38.2602 75.3854 38.2602 75.4594 38.2602 75.5334C38.256 77.5565 36.3309 79.1946 40.0977 79.1946Z" fill="#00796B"/>
<path d="M45.9061 72.5628C45.8603 71.1615 44.9769 68.2701 43.8227 68.0283C43.7519 68.0135 43.6894 67.974 43.6519 67.905C43.4685 67.5744 42.881 66.6862 41.806 67.3869C41.406 67.6484 41.2643 67.8803 41.331 68.2158C41.281 68.2849 41.1893 68.3688 41.056 68.3046C40.6226 67.7323 40.0893 67.6138 39.4684 68.1862C38.7642 68.8375 38.7642 69.3013 38.8892 69.7602L38.8851 69.7651C38.8851 69.7651 38.8559 70.0859 38.6517 70.0612C38.4392 69.8441 38.1851 69.8441 37.7809 70.1895C36.6975 71.1171 37.1434 71.9954 37.3267 72.5135C37.3017 72.5628 37.26 72.5974 37.1934 72.5924C37.0517 72.5036 36.8725 72.5036 36.6309 72.6665C36.0558 73.0563 36.1392 74.3392 36.3017 74.7586C36.4808 75.2174 37.4684 76.826 37.8059 77.2799C37.8851 77.3836 37.9809 77.4576 38.0851 77.5069C38.0726 77.502 38.0601 77.497 38.0517 77.4921C38.3476 77.7092 38.8642 77.9707 39.3684 77.6007C39.3684 77.6007 39.6893 77.3243 39.7184 77.0332C40.2643 77.3934 41.0185 76.7224 41.0185 76.7224C41.3726 76.4016 41.4643 76.0415 41.4518 75.7306C41.631 75.8589 41.8268 75.9082 42.0143 75.9132C42.581 75.9329 43.1019 75.5382 43.1019 75.5382C43.9144 74.9905 44.0769 74.4181 44.0727 74.0382C44.4936 74.349 45.0144 74.1171 45.0144 74.1171C45.9353 73.6188 45.9061 72.5628 45.9061 72.5628Z" fill="url(#paint3_linear_3055_470)"/>
<path d="M79.2278 81.0399H84.578C84.578 81.0399 84.8113 76.2093 78.2611 75.9774C71.711 75.7504 79.2278 81.0399 79.2278 81.0399Z" fill="#26A69A"/>
<path d="M75.6905 74.9512C75.7364 73.5499 76.6197 70.6585 77.7739 70.4167C77.8448 70.4019 77.9073 70.3624 77.9448 70.2933C78.1281 69.9627 78.7156 69.0746 79.7906 69.7752C80.1906 70.0368 80.3323 70.2687 80.2657 70.6042C80.3157 70.6733 80.4073 70.7571 80.5407 70.693C80.974 70.1206 81.5073 70.0022 82.1282 70.5746C82.8324 71.2259 82.8324 71.6897 82.7074 72.1486L82.7115 72.1535C82.7115 72.1535 82.7407 72.4743 82.9449 72.4496C83.1574 72.2325 83.4116 72.2325 83.8157 72.5779C84.8991 73.5055 84.4533 74.3838 84.2699 74.9019C84.2949 74.9512 84.3324 74.9858 84.4033 74.9808C84.5449 74.892 84.7241 74.892 84.9658 75.0548C85.5408 75.4446 85.4574 76.7275 85.2949 77.1469C85.1158 77.6058 84.1324 79.2144 83.7907 79.6683C83.7116 79.7719 83.6157 79.8459 83.5116 79.8953C83.5241 79.8904 83.5366 79.8854 83.5449 79.8805C83.2491 80.0976 82.7324 80.3591 82.2282 79.989C82.2282 79.989 81.9074 79.7127 81.8782 79.4216C81.3323 79.7818 80.5782 79.1108 80.5782 79.1108C80.224 78.79 80.1323 78.4298 80.1448 78.119C79.9656 78.2473 79.7698 78.2966 79.5823 78.3015C79.0156 78.3213 78.4948 77.9265 78.4948 77.9265C77.6823 77.3788 77.5197 76.8065 77.5239 76.4265C77.1031 76.7374 76.5822 76.5055 76.5822 76.5055C75.6614 76.0121 75.6905 74.9512 75.6905 74.9512Z" fill="url(#paint4_linear_3055_470)"/>
<path d="M82.6785 79.8408C82.6076 79.7964 82.541 79.7471 82.4785 79.6829C82.4701 79.6731 82.4576 79.6632 82.4493 79.6484C82.3326 79.4954 82.2993 79.2487 82.6035 78.7553C83.4368 77.4478 83.766 76.4708 83.766 76.4708C83.9952 75.7849 83.9118 75.6714 83.9118 75.6714C83.8327 75.5185 83.6702 75.9626 83.6702 75.9626C82.8451 77.7241 82.2785 78.4938 82.0326 78.78C82.0201 78.7899 82.0076 78.7997 81.9951 78.8047C81.9493 78.8392 81.8993 78.8737 81.8451 78.8984C81.8243 78.9083 81.7993 78.9181 81.7784 78.928C81.7326 78.9478 81.6826 78.9576 81.6326 78.9675C81.6076 78.9724 81.5826 78.9774 81.5534 78.9774C81.4993 78.9774 81.4451 78.9724 81.3868 78.9576C81.3618 78.9527 81.3368 78.9527 81.3118 78.9428C81.2284 78.9132 81.1409 78.8787 81.0534 78.8145C81.0118 78.7849 80.9743 78.7553 80.9368 78.7208C80.9201 78.701 80.8993 78.6813 80.8826 78.6616C80.8659 78.6418 80.8451 78.6221 80.8284 78.6024C80.8076 78.5728 80.7868 78.5382 80.7659 78.5086C80.7576 78.4938 80.7451 78.479 80.7368 78.4593C80.7159 78.4198 80.6993 78.3803 80.6826 78.3359C80.6784 78.3211 80.6701 78.3063 80.6659 78.2915C80.6493 78.2471 80.6409 78.1978 80.6326 78.1484C80.6284 78.1336 80.6243 78.1188 80.6201 78.104C80.6118 78.0547 80.6118 78.0004 80.6076 77.951C80.6076 77.9313 80.6034 77.9165 80.6034 77.9017C80.6034 77.8474 80.6118 77.7932 80.6201 77.7389C80.6243 77.7191 80.6242 77.6994 80.6284 77.6747C80.6367 77.6205 80.6576 77.5662 80.6743 77.507C80.6826 77.4823 80.6868 77.4576 80.6951 77.4379C81.6451 75.8491 82.1368 74.4626 82.1368 74.4626C82.2951 74.0777 82.3535 73.6731 82.3535 73.6731C82.2493 73.4461 82.0826 73.7767 82.0826 73.7767C80.9993 76.1649 80.3576 77.1221 80.3576 77.1221C80.3576 77.1221 79.8534 78.1632 78.7492 77.3836C78.7492 77.3836 78.2034 76.9691 78.1117 76.678C78.0325 76.4362 77.9825 76.007 78.2617 75.3951C78.2617 75.3951 78.9242 73.7915 80.0159 71.7734C80.0159 71.7734 80.0867 71.4576 79.8409 71.6353C79.6492 71.7734 79.5117 72.0596 79.4451 72.1484C79.4451 72.1484 78.7992 73.1698 77.8617 75.2076C77.8617 75.2076 77.6533 75.6764 77.4117 75.9083C77.1742 76.0267 76.8742 75.9823 76.545 75.6912C75.8325 75.0596 76.0991 74.1764 76.495 73.2685C76.7117 72.7751 77.2075 71.6649 77.6783 70.7767C77.7242 70.757 77.77 70.7372 77.8158 70.7274C77.9658 70.6978 78.0867 70.604 78.1617 70.4659C78.5367 69.7899 78.2409 69.178 77.7158 70.1205C76.3991 70.3869 75.4658 73.4363 75.42 74.9412C75.42 74.9955 75.3991 76.2191 76.4658 76.7816C76.4991 76.7964 76.8867 76.9642 77.3033 76.8507C77.4075 77.2603 77.6908 77.7389 78.3534 78.1879C78.3659 78.1978 78.945 78.6172 79.5784 78.6073C79.6951 78.6024 79.8117 78.5876 79.9201 78.553C79.9867 78.8096 80.1284 79.0908 80.4117 79.3474C80.4451 79.377 81.0951 79.9543 81.7201 79.8063C81.8409 80.0333 82.016 80.1912 82.0618 80.2306C82.2535 80.3737 82.4576 80.4478 82.666 80.4675H82.8535C83.1201 80.4478 83.3993 80.3392 83.6743 80.1369C83.6785 80.1369 83.6785 80.132 83.6827 80.132C84.3285 79.6089 85.2577 77.4231 85.2577 77.201C85.2619 77.201 83.8577 80.0826 82.6785 79.8408Z" fill="#EDBD82"/>
<path d="M72.3026 44.744H49.5271C47.0728 44.744 45.0645 47.2802 45.0645 50.374C45.0645 53.4726 47.0728 56.0039 49.5271 56.0039H72.2985C74.7527 56.0039 76.7611 53.4677 76.7611 50.374C76.7653 47.2802 74.7569 44.744 72.3026 44.744Z" fill="#EDC391"/>
<path d="M60.9153 25.3229C53.6651 25.3229 46.9482 34.5055 46.9482 47.7193C46.9482 60.864 53.8693 67.3623 60.9153 67.3623C67.9613 67.3623 74.8823 60.864 74.8823 47.7193C74.8823 34.5055 68.1654 25.3229 60.9153 25.3229Z" fill="#F9DDBD"/>
<path d="M54.065 51.3952C55.1995 51.3952 56.1192 50.2685 56.1192 48.8787C56.1192 47.489 55.1995 46.3623 54.065 46.3623C52.9304 46.3623 52.0107 47.489 52.0107 48.8787C52.0107 50.2685 52.9304 51.3952 54.065 51.3952Z" fill="#312D2D"/>
<path d="M67.7652 51.3952C68.8997 51.3952 69.8194 50.2685 69.8194 48.8787C69.8194 47.489 68.8997 46.3623 67.7652 46.3623C66.6306 46.3623 65.7109 47.489 65.7109 48.8787C65.7109 50.2685 66.6306 51.3952 67.7652 51.3952Z" fill="#312D2D"/>
<path d="M62.5239 53.4428C62.4781 53.423 62.4364 53.4082 62.3906 53.4033H59.4447C59.3988 53.4082 59.353 53.423 59.3113 53.4428C59.0447 53.571 58.8988 53.8967 59.0238 54.247C59.1488 54.5974 59.7364 55.5743 60.9197 55.5743C62.1031 55.5743 62.6906 54.5924 62.8156 54.247C62.9364 53.8967 62.7906 53.571 62.5239 53.4428Z" fill="#DBA689"/>
<path d="M50.9179 44.8771C52.1638 42.79 54.993 42.5926 56.6139 44.1469C56.8722 44.3936 57.2139 44.739 57.3139 45.1239C57.4806 45.7505 56.9722 46.239 56.4764 46.091C56.1597 45.9972 55.8638 45.7949 55.5513 45.6814C54.9805 45.4692 54.568 45.41 54.0555 45.41C53.2971 45.4051 52.8096 45.5186 52.0888 45.864C51.7929 46.0071 51.5512 46.234 51.2137 46.0663C50.8304 45.8739 50.6845 45.2916 50.9179 44.8771Z" fill="#454140"/>
<path d="M70.1113 46.0613C69.9905 45.9971 69.8738 45.9182 69.753 45.859C69.0113 45.4938 68.5904 45.4001 67.7863 45.405C67.0779 45.41 66.6571 45.5235 66.1029 45.7455C65.7654 45.8836 65.3362 46.229 64.9612 46.0958C64.4112 45.8985 64.4278 45.1879 64.7279 44.734C65.0862 44.2011 65.5779 43.7965 66.0987 43.53C67.3071 42.9083 68.7821 42.9971 69.9196 43.8014C70.2905 44.0629 70.6947 44.4231 70.9197 44.8771C71.2488 45.5235 70.753 46.3721 70.1113 46.0613Z" fill="#454140"/>
<path d="M46.0932 72.2866C46.0432 70.7817 45.1098 67.7324 43.7973 67.4659C43.2764 66.5235 42.9764 67.1353 43.3514 67.8113C43.4264 67.9495 43.5514 68.0383 43.6973 68.0728C43.7431 68.0827 43.7889 68.1024 43.8348 68.1222C44.3056 69.0103 44.8015 70.1254 45.0181 70.6139C45.414 71.5169 45.6765 72.4001 44.9681 73.0366C44.639 73.3277 44.3431 73.3721 44.1014 73.2537C43.8639 73.0218 43.6514 72.5531 43.6514 72.5531C42.7139 70.5152 42.0681 69.4939 42.0681 69.4939C42.0014 69.405 41.868 69.1238 41.6722 68.9807C41.4264 68.8031 41.4972 69.1189 41.4972 69.1189C42.5889 71.132 43.2514 72.7406 43.2514 72.7406C43.5348 73.3524 43.4848 73.7817 43.4014 74.0235C43.3097 74.3146 42.7639 74.729 42.7639 74.729C41.6639 75.5087 41.1555 74.4675 41.1555 74.4675C41.1555 74.4675 40.5097 73.5103 39.4305 71.1221C39.4305 71.1221 39.2596 70.7916 39.1596 71.0185C39.1596 71.0185 39.218 71.4231 39.3763 71.808C39.3763 71.808 39.868 73.1896 40.818 74.7833C40.8264 74.808 40.8305 74.8327 40.8389 74.8524C40.8555 74.9067 40.8722 74.9659 40.8847 75.0202C40.8889 75.0399 40.8889 75.0596 40.893 75.0843C40.9014 75.1386 40.9097 75.1929 40.9097 75.2471C40.9097 75.2669 40.9055 75.2817 40.9055 75.2965C40.9055 75.3508 40.9014 75.4001 40.893 75.4494C40.8889 75.4642 40.8847 75.479 40.8847 75.4938C40.8764 75.5432 40.8639 75.5925 40.8472 75.6369C40.843 75.6517 40.8347 75.6665 40.8305 75.6813C40.8139 75.7208 40.7972 75.7652 40.7764 75.8047C40.768 75.8195 40.7555 75.8343 40.7472 75.854C40.7264 75.8886 40.7055 75.9182 40.6847 75.9478C40.668 75.9675 40.6472 75.9873 40.6305 76.007C40.6138 76.0267 40.5972 76.0465 40.5763 76.0662C40.5388 76.1008 40.4972 76.1353 40.4597 76.16C40.368 76.2192 40.2805 76.2636 40.2013 76.2883C40.1763 76.2981 40.1513 76.2981 40.1222 76.3031C40.0638 76.3129 40.0097 76.3228 39.9555 76.3228C39.9305 76.3228 39.9013 76.3179 39.8763 76.3129C39.8263 76.3031 39.7763 76.2932 39.7305 76.2735C39.7097 76.2636 39.6847 76.2537 39.6638 76.2438C39.6138 76.2192 39.5638 76.1846 39.5138 76.1501C39.5013 76.1402 39.4888 76.1353 39.4763 76.1254C39.2305 75.8392 38.6638 75.0695 37.8388 73.308C37.8388 73.308 37.6763 72.8639 37.5971 73.0169C37.5971 73.0169 37.5138 73.1353 37.7429 73.8162C37.7429 73.8162 38.0721 74.7932 38.9055 76.1008C39.2096 76.5942 39.1763 76.8409 39.0596 76.9938C39.0513 77.0037 39.0388 77.0136 39.0305 77.0284C38.9721 77.0925 38.9013 77.1419 38.8305 77.1863C37.6513 77.4281 36.2471 74.5415 36.2471 74.5415C36.2471 74.7685 37.1763 76.9544 37.8221 77.4725C37.8263 77.4725 37.8263 77.4774 37.8304 77.4774C38.1055 77.6797 38.3805 77.7883 38.6513 77.808H38.8388C39.0513 77.7883 39.2555 77.7142 39.443 77.5711C39.4888 77.5317 39.6638 77.3688 39.7847 77.1468C40.4097 77.2948 41.0639 76.7175 41.093 76.6879C41.3764 76.4313 41.518 76.1501 41.5847 75.8935C41.693 75.9281 41.8055 75.9478 41.9264 75.9478C42.5597 75.9626 43.1389 75.5383 43.1514 75.5284C43.8139 75.0843 44.0973 74.6008 44.2014 74.1912C44.6181 74.2998 45.0056 74.1369 45.039 74.1221C46.114 73.5646 46.0932 72.3409 46.0932 72.2866Z" fill="#EDBD82"/>
<path d="M80.0775 81.0398V59.9165C80.0775 58.1501 78.8608 56.7093 77.3691 56.7093H44.4516C42.9599 56.7093 41.7432 58.1501 41.7432 59.9165V81.0448L80.0775 81.0398Z" fill="url(#paint5_linear_3055_470)"/>
<path d="M67.1602 81.0398C66.906 80.0875 66.5727 79.0119 66.2894 77.8672C65.7185 75.5678 65.481 71.729 65.381 69.0497C65.3185 67.3573 64.1351 66.0201 62.6934 66.0201H59.1308C57.6891 66.0201 56.5058 67.3524 56.4433 69.0497C56.3433 71.729 56.1058 75.5678 55.5349 77.8672C55.2516 79.0119 54.9224 80.0875 54.6641 81.0398H67.1602Z" fill="url(#paint6_linear_3055_470)"/>
<path d="M60.9154 21.8492C60.9112 21.8492 60.9112 21.8492 60.9071 21.8492C60.9029 21.8492 60.9029 21.8492 60.8987 21.8492C41.9691 21.9677 45.8484 47.5762 45.8484 47.5762C45.8484 47.5762 46.6984 50.216 47.0859 51.3804C47.1401 51.5482 47.3484 51.5285 47.3817 51.3558C47.7859 49.2143 49.2401 41.6206 49.9735 39.3114C50.4068 37.9495 51.5985 37.1601 52.8027 37.4216C54.6569 37.8212 57.6153 38.3147 60.8737 38.3147H60.9071C60.9071 38.3147 60.9321 38.3147 60.9404 38.3147C64.1988 38.3147 67.1572 37.8212 69.0114 37.4216C70.2198 37.1601 71.4115 37.9545 71.8407 39.3114C72.5699 41.6107 74.0157 49.16 74.4241 51.3311C74.4574 51.5087 74.6658 51.5235 74.7199 51.3558L75.9616 47.5712C75.97 47.5762 79.8492 21.9677 60.9154 21.8492Z" fill="#312D2D"/>
<path d="M75.9701 47.5762C75.9701 47.5762 79.8493 21.9677 60.9155 21.8492C60.9113 21.8492 60.9113 21.8492 60.9072 21.8492C60.903 21.8492 60.903 21.8492 60.8988 21.8492C60.603 21.8492 60.3155 21.8591 60.0322 21.8739C59.4696 21.9035 58.9238 21.9529 58.3988 22.0269C58.3946 22.0269 58.3863 22.0269 58.3821 22.0269C58.3446 22.0318 58.3113 22.0417 58.2738 22.0466C42.34 24.42 45.8485 47.5762 45.8485 47.5762L47.0902 51.3656C47.1443 51.5334 47.3485 51.5186 47.3818 51.341C47.7902 49.1748 49.2402 41.6157 49.9736 39.3163C50.4069 37.9545 51.5986 37.165 52.8028 37.4265C54.657 37.8262 57.6154 38.3196 60.8738 38.3196H60.9072C60.9072 38.3196 60.9322 38.3196 60.9405 38.3196C64.1989 38.3196 67.1573 37.8262 69.0115 37.4265C70.2199 37.165 71.4116 37.9594 71.8408 39.3163C72.5741 41.6255 74.0283 49.2341 74.4284 51.3656C74.4617 51.5433 74.6659 51.5581 74.72 51.3903C75.1159 50.2258 75.9701 47.5762 75.9701 47.5762Z" fill="url(#paint7_radial_3055_470)"/>
<defs>
<linearGradient id="paint0_linear_3055_470" x1="60.9125" y1="24.0637" x2="60.9125" y2="63.3216" gradientUnits="userSpaceOnUse">
<stop offset="0.0032" stop-color="#424242"/>
<stop offset="0.2705" stop-color="#353535"/>
<stop offset="0.7639" stop-color="#131313"/>
<stop offset="1"/>
</linearGradient>
<linearGradient id="paint1_linear_3055_470" x1="60.9125" y1="24.0637" x2="60.9125" y2="63.3216" gradientUnits="userSpaceOnUse">
<stop offset="0.0012" stop-color="#BFBEBE"/>
<stop offset="0.15" stop-color="#212121" stop-opacity="0"/>
<stop offset="0.7759" stop-color="#212121" stop-opacity="0"/>
<stop offset="1" stop-color="#BFBEBE"/>
</linearGradient>
<linearGradient id="paint2_linear_3055_470" x1="36.2359" y1="43.5488" x2="85.964" y2="43.5488" gradientUnits="userSpaceOnUse">
<stop offset="0.0012" stop-color="#BFBEBE"/>
<stop offset="0.1" stop-color="#212121" stop-opacity="0"/>
<stop offset="0.9" stop-color="#212121" stop-opacity="0"/>
<stop offset="1" stop-color="#BFBEBE"/>
</linearGradient>
<linearGradient id="paint3_linear_3055_470" x1="42.7566" y1="75.5804" x2="37.7641" y2="69.5806" gradientUnits="userSpaceOnUse">
<stop stop-color="#FFD29C"/>
<stop offset="0.5" stop-color="#F9DDBD"/>
</linearGradient>
<linearGradient id="paint4_linear_3055_470" x1="78.8369" y1="77.9702" x2="83.8296" y2="71.9704" gradientUnits="userSpaceOnUse">
<stop stop-color="#FFD29C"/>
<stop offset="0.5" stop-color="#F9DDBD"/>
</linearGradient>
<linearGradient id="paint5_linear_3055_470" x1="60.912" y1="56.6372" x2="60.912" y2="90.3936" gradientUnits="userSpaceOnUse">
<stop stop-color="#4DD0E1"/>
<stop offset="1" stop-color="#00BCD4"/>
</linearGradient>
<linearGradient id="paint6_linear_3055_470" x1="60.9115" y1="65.5535" x2="60.9115" y2="84.9341" gradientUnits="userSpaceOnUse">
<stop stop-color="#00BCD4"/>
<stop offset="1" stop-color="#0097A7"/>
</linearGradient>
<radialGradient id="paint7_radial_3055_470" cx="0" cy="0" r="1" gradientUnits="userSpaceOnUse" gradientTransform="translate(60.9086 43.0997) scale(15.8723 21.2052)">
<stop offset="0.7945" stop-color="#454140" stop-opacity="0"/>
<stop offset="1" stop-color="#454140"/>
</radialGradient>
</defs>
</svg>
