<svg width="108" height="102" viewBox="0 0 108 102" fill="none" xmlns="http://www.w3.org/2000/svg">
<path opacity="0.5" d="M54 102C83.8234 102 108 79.1665 108 51C108 22.8335 83.8234 0 54 0C24.1766 0 0 22.8335 0 51C0 79.1665 24.1766 102 54 102Z" fill="url(#paint0_linear_274_45)"/>
<path d="M54.1053 100.599C83.2998 100.599 106.967 78.2467 106.967 50.6742C106.967 23.1017 83.2998 0.749756 54.1053 0.749756C24.9109 0.749756 1.24414 23.1017 1.24414 50.6742C1.24414 78.2467 24.9109 100.599 54.1053 100.599Z" fill="#F5F5F5"/>
<path d="M54.1548 100.796C64.4839 100.811 74.5894 97.9552 83.2111 92.583C81.2631 82.5291 73.8501 81.9563 73.8501 81.9563H32.971C32.971 81.9563 25.9758 82.4984 23.791 91.7471C32.68 97.6524 43.287 100.813 54.1548 100.796Z" fill="#6C63FF"/>
<path d="M53.5927 73.7192C67.6841 73.7192 79.1073 62.9305 79.1073 49.622C79.1073 36.3136 67.6841 25.5249 53.5927 25.5249C39.5014 25.5249 28.0781 36.3136 28.0781 49.622C28.0781 62.9305 39.5014 73.7192 53.5927 73.7192Z" fill="#333333"/>
<path opacity="0.1" d="M45.3594 69.6934H61.7079V82.0459C61.7079 84.0929 60.8471 86.0561 59.3148 87.5038C57.7825 88.9515 55.7042 89.7653 53.5367 89.766C51.3688 89.766 49.2896 88.9527 47.7567 87.5048C46.2237 86.057 45.3625 84.0934 45.3625 82.0459V69.6934H45.3594Z" fill="black"/>
<path d="M45.8766 69.1201H61.1946C61.3321 69.1201 61.4639 69.1717 61.5611 69.2635C61.6583 69.3553 61.713 69.4798 61.713 69.6097V81.4726C61.7132 82.4868 61.5018 83.4911 61.0909 84.4281C60.68 85.3651 60.0776 86.2165 59.3182 86.9336C58.5588 87.6507 57.6573 88.2194 56.6651 88.6073C55.6729 88.9952 54.6094 89.1946 53.5356 89.1942C51.3676 89.1942 49.2885 88.3809 47.7555 86.9331C46.2225 85.4853 45.3613 83.5216 45.3613 81.4741V69.6097C45.3613 69.4803 45.4155 69.3563 45.512 69.2645C45.6086 69.1728 45.7396 69.1209 45.8766 69.1201Z" fill="#FDB797"/>
<path opacity="0.1" d="M45.3867 75.5241C50.6557 77.3833 56.4555 77.3983 61.7353 75.5665V73.6667H45.3867V75.5241Z" fill="black"/>
<path d="M53.5937 76.5573C66.5357 76.5573 77.0272 66.6486 77.0272 54.4256C77.0272 42.2026 66.5357 32.2939 53.5937 32.2939C40.6517 32.2939 30.1602 42.2026 30.1602 54.4256C30.1602 66.6486 40.6517 76.5573 53.5937 76.5573Z" fill="#FDB797"/>
<path opacity="0.1" d="M36.9023 34.2949C36.9023 34.2949 46.7786 53.2278 74.6374 42.2328L68.1512 32.6276L56.6534 28.7302L36.9023 34.2949Z" fill="black"/>
<path d="M36.9023 34.0171C36.9023 34.0171 46.7786 52.9499 74.6374 41.952L68.1512 32.3468L56.6534 28.4495L36.9023 34.0171Z" fill="#333333"/>
<path d="M36.8154 32.7337C37.4813 30.7868 38.6322 29.0193 40.1714 27.5796C44.7808 23.276 52.3377 22.3685 56.2136 17.4614C57.142 18.8234 56.424 20.9174 54.821 21.502C58.5345 21.4786 62.8375 21.1717 64.9371 18.2871C65.456 19.428 65.6214 20.6845 65.4141 21.9107C65.2068 23.1368 64.6352 24.2822 63.7659 25.2137C67.0569 25.3599 70.5739 27.4641 70.7812 30.5694C70.9236 32.6387 69.5434 34.5968 67.7501 35.7834C65.9568 36.97 63.772 37.5151 61.6291 37.9608C55.3719 39.2658 32.7321 44.7267 36.8154 32.7337Z" fill="#333333"/>
<path d="M30.1508 58.2655C31.3549 58.2655 32.3309 56.537 32.3309 54.4047C32.3309 52.2725 31.3549 50.5439 30.1508 50.5439C28.9468 50.5439 27.9707 52.2725 27.9707 54.4047C27.9707 56.537 28.9468 58.2655 30.1508 58.2655Z" fill="#FDB797"/>
<path d="M77.0239 58.2655C78.2279 58.2655 79.204 56.537 79.204 54.4047C79.204 52.2725 78.2279 50.5439 77.0239 50.5439C75.8198 50.5439 74.8438 52.2725 74.8438 54.4047C74.8438 56.537 75.8198 58.2655 77.0239 58.2655Z" fill="#FDB797"/>
<defs>
<linearGradient id="paint0_linear_274_45" x1="54" y1="102" x2="54" y2="0" gradientUnits="userSpaceOnUse">
<stop stop-color="#808080" stop-opacity="0.25"/>
<stop offset="0.54" stop-color="#808080" stop-opacity="0.12"/>
<stop offset="1" stop-color="#808080" stop-opacity="0.1"/>
</linearGradient>
</defs>
</svg>
