<svg width="27" height="22" viewBox="0 0 27 22" fill="none" xmlns="http://www.w3.org/2000/svg">
<path d="M24.3002 7.49971C21.9026 7.49971 20.9224 6.05809 22.1145 4.28984C22.8033 3.26494 22.3927 1.95847 21.1873 1.37281L18.8957 0.257804C17.8492 -0.271542 16.4981 0.0438134 15.8755 0.933565L15.7298 1.14756C14.5376 2.9158 12.5771 2.9158 11.3717 1.14756L11.226 0.933565C10.6299 0.0438134 9.27878 -0.271542 8.23231 0.257804L5.94069 1.37281C4.73527 1.95847 4.32463 3.2762 5.01344 4.30111C6.21886 6.05809 5.23863 7.49971 2.84103 7.49971C1.46341 7.49971 0.324219 8.45704 0.324219 9.63962V11.6219C0.324219 12.7932 1.45016 13.7618 2.84103 13.7618C5.23863 13.7618 6.21886 15.2034 5.01344 16.9716C4.32463 17.9965 4.73527 19.303 5.94069 19.8887L8.23231 21.0037C9.27878 21.533 10.6299 21.2177 11.2525 20.3279L11.3982 20.1139C12.5904 18.3457 14.5508 18.3457 15.7563 20.1139L15.902 20.3279C16.5246 21.2177 17.8757 21.533 18.9221 21.0037L21.2138 19.8887C22.4192 19.303 22.8298 17.9853 22.141 16.9716C20.9356 15.2034 21.9158 13.7618 24.3134 13.7618C25.6911 13.7618 26.8302 12.8044 26.8302 11.6219V9.63962C26.817 8.4683 25.6911 7.49971 24.3002 7.49971ZM13.5706 14.2911C11.1995 14.2911 9.26553 12.6468 9.26553 10.6307C9.26553 8.61472 11.1995 6.97036 13.5706 6.97036C15.9417 6.97036 17.8757 8.61472 17.8757 10.6307C17.8757 12.6468 15.9417 14.2911 13.5706 14.2911Z" fill="black"/>
</svg>
