<svg width="24" height="21" viewBox="0 0 24 21" fill="none" xmlns="http://www.w3.org/2000/svg">
<path fill-rule="evenodd" clip-rule="evenodd" d="M21.5932 7.44122C21.5658 7.18453 21.5359 6.92815 21.5036 6.67213L21.4316 6.10315C21.1787 4.10274 19.8119 2.63082 18.2072 2.63082L9.09367 2.63082C8.75567 1.11287 7.65109 0 6.34062 0H3.76771C2.10283 0 0.700499 1.57043 0.501998 3.65716L0.196059 6.87334C-0.132519 10.3275 -0.0477185 13.8244 0.447616 17.2468C0.712609 19.0777 1.92558 20.4501 3.39618 20.5829L5.09607 20.7364C8.98729 21.0879 12.8934 21.0879 16.7847 20.7364L18.6236 20.5703C19.5314 20.4883 20.3353 19.9061 20.8531 19.0297C21.5421 18.1954 22.0843 17.1763 22.4351 16.0375L23.8379 11.4837C24.4371 9.53869 23.3006 7.44122 21.6474 7.44122H21.5932ZM3.76771 2.12606C2.9553 2.12606 2.27101 2.89238 2.17415 3.91064L1.86821 7.12683C1.55976 10.3694 1.63937 13.652 2.10435 16.8646C2.23125 17.7414 2.81212 18.3986 3.51636 18.4623L3.61293 18.471L6.23133 9.93193C6.69165 8.43076 7.83562 7.44122 9.11075 7.44122H19.8927C19.8762 7.29644 19.8587 7.15178 19.8405 7.00724L19.7685 6.43825C19.6461 5.46961 18.9842 4.75688 18.2072 4.75688L8.42462 4.75688C7.92274 4.75688 7.5159 4.24327 7.5159 3.60972C7.5159 2.79032 6.98971 2.12606 6.34062 2.12606H3.76771Z" fill="#A8A8A8"/>
</svg>
