<svg width="24" height="22" viewBox="0 0 24 22" fill="none" xmlns="http://www.w3.org/2000/svg">
<path d="M8.68167 1.45807C8.97406 0.993199 8.80054 0.398771 8.29412 0.130377C7.78769 -0.138016 7.14012 0.0212605 6.84774 0.486132L4.50437 4.2119H2.82353C1.26414 4.2119 0 5.3723 0 6.80374C0 7.7316 0.531154 8.54558 1.32958 9.00346C1.41089 9.05009 1.50583 9.07159 1.6017 9.07159H22.3983C22.4942 9.07159 22.5891 9.05009 22.6704 9.00346C23.4688 8.54558 24 7.7316 24 6.80374C24 5.3723 22.7359 4.2119 21.1765 4.2119H19.4956L17.1523 0.486132C16.8599 0.0212605 16.2123 -0.138016 15.7059 0.130377C15.1995 0.398771 15.0259 0.993199 15.3183 1.45807L17.0504 4.2119H6.94962L8.68167 1.45807Z" fill="#A8A8A8"/>
<path fill-rule="evenodd" clip-rule="evenodd" d="M22.355 11.3195C22.3853 11.1608 22.2524 11.0155 22.0769 11.0155H1.92312C1.74766 11.0155 1.61468 11.1608 1.64502 11.3195L3.05751 18.7043C3.35135 20.2406 4.69117 21.4275 6.37416 21.6424C10.1067 22.1192 13.8933 22.1192 17.6259 21.6424C19.3089 21.4275 20.6487 20.2406 20.9425 18.7043L22.355 11.3195ZM10.2353 13.9313C10.2353 13.3945 9.76124 12.9593 9.17647 12.9593C8.5917 12.9593 8.11765 13.3945 8.11765 13.9313V16.5231C8.11765 17.0599 8.5917 17.4951 9.17647 17.4951C9.76124 17.4951 10.2353 17.0599 10.2353 16.5231V13.9313ZM14.8235 12.9593C15.4083 12.9593 15.8824 13.3945 15.8824 13.9313V16.5231C15.8824 17.0599 15.4083 17.4951 14.8235 17.4951C14.2388 17.4951 13.7647 17.0599 13.7647 16.5231V13.9313C13.7647 13.3945 14.2388 12.9593 14.8235 12.9593Z" fill="#A8A8A8"/>
</svg>
