<svg width="90" height="60" viewBox="0 0 73 71" fill="none" xmlns="http://www.w3.org/2000/svg">
<path d="M32.1196 61.3289H52.5596V64.3724H32.1196V61.3289Z" fill="#31CFFF"/>
<path d="M20.4399 67.4158H49.6399V70.4593H20.4399V67.4158Z" fill="#31CFFF"/>
<path d="M44.8218 48.6071C42.6931 50.7984 38.135 52.4997 34.8062 53.4766C35.7114 50.0375 37.3758 45.1984 39.4782 43.0375L44.8218 48.6071Z" fill="#BCBCBC"/>
<path d="M69.5839 14.155C68.5327 13.7289 67.5107 13.5463 66.5179 13.5463C62.5175 13.5463 59.2763 16.3159 59.2763 16.3159C59.2763 16.3159 50.4871 23.6507 43.2455 29.9507C42.2527 22.0072 40.0919 11.0202 37.9603 6.54633C35.0403 0.459373 32.1203 0.459373 32.1203 0.459373H11.6803C11.6803 0.459373 8.76029 0.459373 5.84029 6.54633C3.62109 11.1724 1.40189 22.8898 0.467487 30.8942H3.38749C3.70869 28.1246 4.20509 24.9289 4.78909 21.7637H39.0115C39.1867 22.7681 39.3619 23.8029 39.5371 24.8072C39.9751 27.455 40.3255 30.042 40.5591 32.2637C37.8435 34.6681 35.5951 36.7072 34.4855 37.8333C31.5655 40.8768 29.6675 47.2072 28.8207 50.5824C27.9739 50.2507 27.0103 50.0346 25.9883 50.0346C24.3823 50.0346 22.6011 50.5824 20.7907 52.1955H20.4403C19.8563 52.1955 19.3307 52.1955 18.7759 52.1346C18.2503 52.1346 17.7247 52.0707 17.2283 52.0128C6.92069 50.9507 3.94229 44.6507 3.15389 40.0246H0.233887C1.13909 46.0507 5.08109 54.3594 18.2795 55.1811C14.2791 61.6028 15.9143 70.1246 15.9143 70.1246C15.9143 70.1246 17.5203 70.4594 19.9439 70.4594C27.5943 70.4594 30.5435 67.4159 30.5435 67.4159C33.9015 64.7376 34.9527 61.3289 34.9527 61.3289C35.3615 59.5942 35.1279 57.9811 34.6315 56.642C37.9019 55.7594 43.9463 53.8116 46.8663 50.7376C51.0127 46.4494 67.5107 24.932 67.5107 24.932C67.5107 24.932 71.4235 20.1202 69.5839 14.155ZM20.4403 18.7202H5.37309C6.30749 14.1855 7.38789 10.0768 8.43909 7.91589C10.1327 4.38546 11.5927 3.62459 11.9139 3.50285H20.4403V18.7202ZM23.3603 18.7202V3.50285H31.8867C32.1495 3.59416 33.2591 4.17242 34.6315 6.54633C34.8651 6.94198 35.0987 7.3985 35.3615 7.91589C36.4127 10.0768 37.4931 14.1855 38.4275 18.7202H23.3603ZM23.7107 67.0811C21.9587 67.3246 20.2943 67.3885 18.5423 67.3885C18.4255 65.532 18.5131 63.6724 18.8635 61.8494C19.5643 58.1089 22.2799 52.3842 26.7475 53.145C29.6383 53.632 32.2663 56.3437 32.2663 59.4755C32.2663 63.9159 27.2439 66.3507 23.7107 67.0811ZM34.8067 53.4768C34.2811 53.6289 33.7847 53.7507 33.3467 53.8724L32.7043 53.2333L32.5291 53.0202L32.2955 52.7798L31.5071 51.9276C31.8575 50.4059 32.4415 48.3059 33.1715 46.2668L38.8071 52.1102C37.4347 52.655 36.0331 53.1115 34.8067 53.4768ZM41.6687 50.7985L34.43 43.2811C35.0724 41.942 35.7732 40.7855 36.5616 39.9942L39.4816 43.0376L44.8252 48.6072C44.0339 49.3985 42.9243 50.1594 41.6687 50.7985ZM66.6639 20.242C66.1383 21.855 65.3207 22.9202 65.2331 23.0115C65.1163 23.1942 52.5311 39.5985 46.8079 46.3855L38.6903 37.9246C45.2019 31.9624 60.9115 18.8115 61.1159 18.6929C61.1159 18.6624 63.6855 16.5928 66.5208 16.5928C66.7223 16.5928 66.9296 16.6233 67.134 16.6233C67.2771 17.9898 67.0435 19.2376 66.6639 20.242Z" fill="#2D2220"/>
<path d="M32.2659 59.4724C32.2659 60.7506 31.7987 62.1841 30.3679 63.6724C27.8567 66.2898 24.3527 67.1724 21.4619 67.358C21.2867 64.2811 21.5203 58.7115 25.0243 55.0624C25.8419 54.2102 26.6595 53.6289 27.4771 53.3276C28.6451 53.6928 29.5795 54.3928 30.0467 54.758L30.2511 54.9437L30.6015 55.3058C31.2731 56.0941 32.2659 57.6158 32.2659 59.4724Z" fill="#31CFFF"/>
<path d="M66.6635 20.242C66.1379 21.855 65.3203 22.9202 65.2327 23.0115C65.1159 23.1941 52.5307 39.5985 46.8075 46.3854L41.6099 40.968C48.1215 35.0059 63.8311 21.855 64.0355 21.7363C64.0355 21.7028 65.1159 20.8202 66.6635 20.242Z" fill="#E371FF"/>
<path d="M38.4272 18.7202H26.28V6.54632H34.6312C34.8648 6.94197 35.0984 7.39849 35.3612 7.91588C36.4124 10.0768 37.4928 14.1854 38.4272 18.7202Z" fill="#FFA28D"/>
<path d="M20.4402 6.54632V18.7202H8.9646C9.7238 15.4333 10.5414 12.6333 11.359 10.9594C13.0526 7.42893 14.5126 6.66806 14.8338 6.54632H20.4402Z" fill="#FFA28D"/>
<path d="M38.4272 18.7202H26.28V6.54632H34.6312C34.8648 6.94197 35.0984 7.39849 35.3612 7.91588C36.4124 10.0768 37.4928 14.1854 38.4272 18.7202Z" fill="#BCBCBC"/>
<path d="M20.4402 6.54632V18.7202H8.9646C9.7238 15.4333 10.5414 12.6333 11.359 10.9594C13.0526 7.42893 14.5126 6.66806 14.8338 6.54632H20.4402Z" fill="#BCBCBC"/>
<path d="M40.5587 32.2638C37.8431 34.6681 35.5947 36.7073 34.4851 37.8333C31.5651 40.8768 29.6671 47.2072 28.8203 50.5825C27.9735 50.2507 27.0099 50.0346 25.9879 50.0346C24.3819 50.0346 22.6007 50.5825 20.7903 52.1955H20.4399C19.8559 52.1955 19.3303 52.1955 18.7755 52.1346C18.2499 52.1346 17.7243 52.0707 17.2279 52.0129C12.3807 48.5159 11.6799 42.9768 11.6799 40.0246C11.6799 36.9203 12.4391 30.7725 13.5487 24.8073H39.5367C39.9747 27.4551 40.3251 30.042 40.5587 32.2638Z" fill="#BCBCBC"/>
<path d="M1.46 36.9812C2.26634 36.9812 2.92 36.2999 2.92 35.4595C2.92 34.619 2.26634 33.9377 1.46 33.9377C0.653664 33.9377 0 34.619 0 35.4595C0 36.2999 0.653664 36.9812 1.46 36.9812Z" fill="#2D2220"/>
<path d="M64.24 62.8507C64.24 62.0107 63.5859 61.3289 62.78 61.3289H56.94C56.1341 61.3289 55.48 62.0107 55.48 62.8507C55.48 63.6907 56.1341 64.3724 56.94 64.3724H62.78C63.5859 64.3724 64.24 63.6907 64.24 62.8507Z" fill="#31CFFF"/>
<path d="M72.9999 62.8507C72.9999 62.0107 72.3458 61.3289 71.5399 61.3289H68.6199C67.814 61.3289 67.1599 62.0107 67.1599 62.8507C67.1599 63.6907 67.814 64.3724 68.6199 64.3724H71.5399C72.3458 64.3724 72.9999 63.6907 72.9999 62.8507Z" fill="#31CFFF"/>
<path d="M61.3201 68.9376C61.3201 68.0976 60.666 67.4159 59.8601 67.4159H54.0201C53.2141 67.4159 52.5601 68.0976 52.5601 68.9376C52.5601 69.7776 53.2141 70.4593 54.0201 70.4593H59.8601C60.666 70.4593 61.3201 69.7776 61.3201 68.9376Z" fill="#31CFFF"/>
<path d="M70.08 68.9376C70.08 68.0976 69.4259 67.4159 68.62 67.4159H65.7C64.8941 67.4159 64.24 68.0976 64.24 68.9376C64.24 69.7776 64.8941 70.4593 65.7 70.4593H68.62C69.4259 70.4593 70.08 69.7776 70.08 68.9376Z" fill="#31CFFF"/>
</svg>
