<svg width="90" height="60" viewBox="0 0 69 88" fill="none" xmlns="http://www.w3.org/2000/svg">
<path d="M63.0287 40.5609H5.97187L4.64502 37.8423L5.97187 35.1233H63.0287L64.3555 37.8423L63.0287 40.5609Z" fill="#656D78"/>
<path opacity="0.2" d="M5.20215 35.1233H63.6648V36.4828H5.20215V35.1233Z" fill="black"/>
<path opacity="0.2" d="M5.20215 39.2016H63.6648V40.5609H5.20215V39.2016Z" fill="black"/>
<path d="M60.3747 1.13907C58.1757 1.13907 56.394 2.96435 56.394 5.21719V6.57667H64.3556V5.21719C64.3554 2.96452 62.5738 1.13907 60.3747 1.13907Z" fill="#F6BB42"/>
<path opacity="0.2" d="M60.3747 1.13907C58.1757 1.13907 56.394 2.96435 56.394 5.21719V6.57667C56.394 4.32384 58.1757 2.49856 60.3747 2.49856C62.5738 2.49856 64.3554 4.32384 64.3554 6.57667V5.21719C64.3554 2.96452 62.5738 1.13907 60.3747 1.13907Z" fill="black"/>
<path d="M17.9141 1.13907H60.3748C58.1719 1.13907 56.3941 2.96044 56.3941 5.21719V37.8423V40.5609H13.9333V37.8423V5.21719C13.9333 2.96044 15.7112 1.13907 17.9141 1.13907Z" fill="#FFCE54"/>
<path d="M12.6062 47.3577C5.97162 47.3577 5.202 48.7172 5.202 48.7172L4.75098 48.6495L4.9506 47.2769C5.50782 43.5784 8.95719 40.5609 12.6062 40.5609H13.933H56.3937C60.0427 40.5609 63.4921 43.5784 64.0493 47.2769L64.2489 48.6495L63.7979 48.7172C63.7979 48.7172 61.7013 47.3577 55.0669 47.3577C48.4325 47.3577 43.125 51.4358 34.5 51.4358C25.8751 51.4358 19.2406 47.3577 12.6062 47.3577Z" fill="#82878E"/>
<path d="M12.6062 47.3577C5.97162 47.3577 5.202 48.7172 5.202 48.7172L4.75098 48.6495L4.9506 47.2769C5.50782 43.5784 8.95719 40.5609 12.6062 40.5609H13.933H56.3937C60.0427 40.5609 63.4921 43.5784 64.0493 47.2769L64.2489 48.6495L63.7979 48.7172C63.7979 48.7172 61.7013 47.3577 55.0669 47.3577C48.4325 47.3577 43.125 51.4358 34.5 51.4358C25.8751 51.4358 19.2406 47.3577 12.6062 47.3577Z" fill="#82878E"/>
<path opacity="0.2" d="M7.60446 47.2769C8.16168 43.5784 11.6112 40.5609 15.26 40.5609H13.933H12.6062C8.95719 40.5609 5.50782 43.5784 4.9506 47.2769L4.75098 48.6495L5.202 48.7172C5.202 48.7172 5.53238 48.1541 7.53559 47.7519L7.60446 47.2769Z" fill="white"/>
<path opacity="0.2" d="M61.4488 47.2769C60.8917 43.5784 57.442 40.5609 53.7932 40.5609H55.1201H56.4469C60.0959 40.5609 63.5453 43.5784 64.1025 47.2769L64.3021 48.6495L63.8511 48.7172C63.8511 48.7172 63.5207 48.1541 61.5175 47.7519L61.4488 47.2769Z" fill="black"/>
<path d="M6.35659 82.7015H62.6435C65.8677 82.7015 68.2039 80.3492 68.3231 77.2641H68.336V81.3422C68.2039 84.4272 65.8677 86.7796 62.6435 86.7796H6.35659C3.13273 86.7796 0.796316 84.4272 0.664062 81.3422V77.2639H0.677006C0.796316 80.3492 3.13273 82.7015 6.35659 82.7015Z" fill="#434A54"/>
<path d="M46.4421 62.3109C46.4421 61.5635 45.5533 60.9515 44.4518 60.9515C43.3503 60.9515 42.4616 61.5635 42.4616 62.3109C42.4616 63.0582 43.3503 63.6703 44.4518 63.6703C45.5533 63.6703 46.4421 63.0583 46.4421 62.3109ZM47.7689 58.2327C48.8706 58.2327 49.7594 57.6207 49.7594 56.8734C49.7594 56.1261 48.8706 55.5141 47.7689 55.5141C46.6676 55.5141 45.7787 56.1261 45.7787 56.8734C45.7787 57.6207 46.6676 58.2327 47.7689 58.2327ZM47.7689 69.1078C48.8706 69.1078 49.7594 68.4958 49.7594 67.7485C49.7594 67.0011 48.8706 66.3891 47.7689 66.3891C46.6676 66.3891 45.7787 67.0011 45.7787 67.7485C45.7787 68.4958 46.6676 69.1078 47.7689 69.1078ZM53.0767 62.3109C53.0767 61.5635 52.1877 60.9515 51.0862 60.9515C49.9847 60.9515 49.096 61.5635 49.096 62.3109C49.096 63.0582 49.9847 63.6703 51.0862 63.6703C52.1877 63.6703 53.0767 63.0583 53.0767 62.3109ZM54.4035 66.389C53.302 66.389 52.4132 67.001 52.4132 67.7483C52.4132 68.4956 53.302 69.1076 54.4035 69.1076C55.505 69.1076 56.3938 68.4956 56.3938 67.7483C56.3938 67.001 55.505 66.389 54.4035 66.389ZM54.4035 58.2327C55.505 58.2327 56.3938 57.6207 56.3938 56.8734C56.3938 56.1261 55.505 55.5141 54.4035 55.5141C53.302 55.5141 52.4132 56.1261 52.4132 56.8734C52.4132 57.6207 53.3022 58.2327 54.4035 58.2327ZM55.7304 62.3109C55.7304 63.0582 56.6193 63.6703 57.7206 63.6703C58.8221 63.6703 59.711 63.0582 59.711 62.3109C59.711 61.5635 58.8221 60.9515 57.7206 60.9515C56.6194 60.9515 55.7304 61.5635 55.7304 62.3109ZM26.5386 62.3109C26.5386 61.5635 25.6497 60.9515 24.5482 60.9515C23.4467 60.9515 22.5579 61.5635 22.5579 62.3109C22.5579 63.0582 23.4467 63.6703 24.5482 63.6703C25.6497 63.6703 26.5386 63.0583 26.5386 62.3109ZM29.8559 67.7485C29.8559 67.0011 28.9671 66.3891 27.8656 66.3891C26.7641 66.3891 25.8752 67.0011 25.8752 67.7485C25.8752 68.4958 26.7641 69.1078 27.8656 69.1078C28.9671 69.1078 29.8559 68.4958 29.8559 67.7485ZM27.8656 58.2327C28.9671 58.2327 29.8559 57.6207 29.8559 56.8734C29.8559 56.1261 28.9671 55.5141 27.8656 55.5141C26.7641 55.5141 25.8752 56.1261 25.8752 56.8734C25.8752 57.6207 26.7641 58.2327 27.8656 58.2327ZM33.1731 62.3109C33.1731 61.5635 32.2842 60.9515 31.1827 60.9515C30.0812 60.9515 29.1923 61.5635 29.1923 62.3109C29.1923 63.0582 30.0812 63.6703 31.1827 63.6703C32.2842 63.6703 33.1731 63.0583 33.1731 62.3109ZM32.5097 56.8734C32.5097 57.6207 33.3985 58.2327 34.5 58.2327C35.6015 58.2327 36.4903 57.6207 36.4903 56.8734C36.4903 56.1261 35.6015 55.5141 34.5 55.5141C33.3987 55.5141 32.5097 56.1259 32.5097 56.8734ZM36.4903 67.7485C36.4903 67.0011 35.6015 66.3891 34.5 66.3891C33.3987 66.3891 32.5097 67.0011 32.5097 67.7485C32.5097 68.4958 33.3985 69.1078 34.5 69.1078C35.6015 69.1078 36.4903 68.4958 36.4903 67.7485ZM39.8075 62.3109C39.8075 61.5635 38.9188 60.9515 37.8173 60.9515C36.7158 60.9515 35.8268 61.5635 35.8268 62.3109C35.8268 63.0582 36.7158 63.6703 37.8173 63.6703C38.9188 63.6703 39.8075 63.0583 39.8075 62.3109ZM43.125 56.8734C43.125 56.1261 42.2361 55.5141 41.1346 55.5141C40.0331 55.5141 39.1443 56.1261 39.1443 56.8734C39.1443 57.6207 40.0331 58.2327 41.1346 58.2327C42.2361 58.2327 43.125 57.6207 43.125 56.8734ZM41.1344 66.389C40.0329 66.389 39.1441 67.001 39.1441 67.7483C39.1441 68.4956 40.0329 69.1076 41.1344 69.1076C42.2359 69.1076 43.1248 68.4956 43.1248 67.7483C43.1248 67.001 42.2359 66.389 41.1344 66.389ZM6.35647 82.7016C3.13262 82.7016 0.796199 80.3493 0.676889 77.2642C0.651003 76.8433 0.676889 76.4212 0.742933 75.9858L4.75085 48.6495L5.20187 48.7172C5.20187 48.7172 5.97149 47.3577 12.6061 47.3577C19.2404 47.3577 25.875 51.4358 34.4998 51.4358C43.1248 51.4358 48.4324 47.3577 55.0668 47.3577C61.7011 47.3577 63.7978 48.7172 63.7978 48.7172L64.2488 48.6495L68.2567 75.9858C68.3226 76.4212 68.3487 76.8433 68.3226 77.2642C68.2035 80.3493 65.8672 82.7016 62.643 82.7016H6.35647ZM11.2792 63.6703C12.3807 63.6703 13.2696 63.0582 13.2696 62.3109C13.2696 61.5635 12.3807 60.9515 11.2792 60.9515C10.1779 60.9515 9.28877 61.5635 9.28877 62.3109C9.28877 63.0582 10.1779 63.6703 11.2792 63.6703ZM16.5869 67.7485C16.5869 67.0011 15.698 66.3891 14.5965 66.3891C13.495 66.3891 12.6062 67.0011 12.6062 67.7485C12.6062 68.4958 13.495 69.1078 14.5965 69.1078C15.698 69.1078 16.5869 68.4958 16.5869 67.7485ZM14.5965 58.2327C15.698 58.2327 16.5869 57.6207 16.5869 56.8734C16.5869 56.1261 15.698 55.5141 14.5965 55.5141C13.495 55.5141 12.6062 56.1261 12.6062 56.8734C12.6062 57.6207 13.495 58.2327 14.5965 58.2327ZM17.9138 60.9515C16.8123 60.9515 15.9233 61.5635 15.9233 62.3109C15.9233 63.0582 16.8123 63.6703 17.9138 63.6703C19.0153 63.6703 19.904 63.0582 19.904 62.3109C19.904 61.5635 19.0153 60.9515 17.9138 60.9515ZM21.231 66.389C20.1295 66.389 19.2406 67.001 19.2406 67.7483C19.2406 68.4956 20.1295 69.1076 21.231 69.1076C22.3325 69.1076 23.2215 68.4956 23.2215 67.7483C23.2215 67.001 22.3325 66.389 21.231 66.389ZM19.2406 56.8734C19.2406 57.6207 20.1295 58.2327 21.231 58.2327C22.3325 58.2327 23.2215 57.6207 23.2215 56.8734C23.2215 56.1261 22.3325 55.5141 21.231 55.5141C20.1295 55.5141 19.2406 56.1259 19.2406 56.8734ZM47.7689 71.8266H21.231C20.1295 71.8266 19.2406 72.4386 19.2406 73.1859C19.2406 73.9332 20.1295 74.5454 21.231 74.5454H47.7689C48.8706 74.5454 49.7594 73.9332 49.7594 73.1859C49.7594 72.4386 48.8706 71.8266 47.7689 71.8266Z" fill="#656D78"/>
<g opacity="0.2">
<path d="M54.4036 57.5532C55.5051 57.5532 56.3939 58.1652 56.3939 58.9125C56.3939 59.6599 55.5051 60.272 54.4036 60.272C53.3021 60.272 52.4133 59.6599 52.4133 58.9125C52.4133 58.1652 53.3023 57.5532 54.4036 57.5532Z" fill="black"/>
<path d="M57.7207 62.9906C58.8222 62.9906 59.7112 63.6028 59.7112 64.3501C59.7112 65.0974 58.8222 65.7094 57.7207 65.7094C56.6194 65.7094 55.7305 65.0974 55.7305 64.3501C55.7305 63.6028 56.6194 62.9906 57.7207 62.9906Z" fill="black"/>
<path d="M54.4036 68.4282C55.5051 68.4282 56.3939 69.0403 56.3939 69.7875C56.3939 70.5348 55.5051 71.147 54.4036 71.147C53.3021 71.147 52.4133 70.5348 52.4133 69.7875C52.4133 69.0402 53.3023 68.4282 54.4036 68.4282Z" fill="black"/>
<path d="M51.0862 62.9906C52.1877 62.9906 53.0767 63.6028 53.0767 64.3501C53.0767 65.0974 52.1877 65.7094 51.0862 65.7094C49.9847 65.7094 49.0959 65.0974 49.0959 64.3501C49.0959 63.6028 49.9847 62.9906 51.0862 62.9906Z" fill="black"/>
<path d="M47.7691 57.5532C48.8707 57.5532 49.7595 58.1652 49.7595 58.9125C49.7595 59.6599 48.8707 60.272 47.7691 60.272C46.6677 60.272 45.7788 59.6599 45.7788 58.9125C45.7788 58.1652 46.6677 57.5532 47.7691 57.5532Z" fill="black"/>
<path d="M41.1343 57.5532C42.2358 57.5532 43.1247 58.1652 43.1247 58.9125C43.1247 59.6599 42.2358 60.272 41.1343 60.272C40.0328 60.272 39.144 59.6599 39.144 58.9125C39.144 58.1652 40.033 57.5532 41.1343 57.5532Z" fill="black"/>
<path d="M44.4519 62.9906C45.5534 62.9906 46.4422 63.6028 46.4422 64.3501C46.4422 65.0974 45.5534 65.7094 44.4519 65.7094C43.3504 65.7094 42.4617 65.0974 42.4617 64.3501C42.4617 63.6028 43.3504 62.9906 44.4519 62.9906Z" fill="black"/>
<path d="M49.7595 69.7875C49.7595 70.5348 48.8707 71.147 47.7691 71.147C46.6677 71.147 45.7788 70.5348 45.7788 69.7875C45.7788 69.0402 46.6677 68.4282 47.7691 68.4282C48.8707 68.4282 49.7595 69.0402 49.7595 69.7875Z" fill="black"/>
<path d="M47.7691 73.8658C48.8707 73.8658 49.7595 74.4779 49.7595 75.2253C49.7595 75.9726 48.8707 76.5846 47.7691 76.5846H21.2312C20.1297 76.5846 19.2407 75.9726 19.2407 75.2253C19.2407 74.4779 20.1297 73.8658 21.2312 73.8658H47.7691Z" fill="black"/>
<path d="M41.1343 68.4282C42.2358 68.4282 43.1247 69.0403 43.1247 69.7875C43.1247 70.5348 42.2358 71.147 41.1343 71.147C40.0328 71.147 39.144 70.5348 39.144 69.7875C39.144 69.0402 40.033 68.4282 41.1343 68.4282Z" fill="black"/>
<path d="M34.5 68.4282C35.6015 68.4282 36.4903 69.0403 36.4903 69.7875C36.4903 70.5348 35.6015 71.147 34.5 71.147C33.3987 71.147 32.5098 70.5348 32.5098 69.7875C32.5098 69.0402 33.3987 68.4282 34.5 68.4282Z" fill="black"/>
<path d="M37.8173 62.9906C38.9188 62.9906 39.8076 63.6028 39.8076 64.3501C39.8076 65.0974 38.9188 65.7094 37.8173 65.7094C36.7158 65.7094 35.8269 65.0974 35.8269 64.3501C35.8269 63.6028 36.716 62.9906 37.8173 62.9906Z" fill="black"/>
<path d="M34.5 57.5532C35.6015 57.5532 36.4903 58.1652 36.4903 58.9125C36.4903 59.6599 35.6015 60.272 34.5 60.272C33.3987 60.272 32.5098 59.6599 32.5098 58.9125C32.5098 58.1652 33.3987 57.5532 34.5 57.5532Z" fill="black"/>
<path d="M31.1831 62.9906C32.2844 62.9906 33.1735 63.6028 33.1735 64.3501C33.1735 65.0974 32.2846 65.7094 31.1831 65.7094C30.0816 65.7094 29.1926 65.0974 29.1926 64.3501C29.1926 63.6028 30.0816 62.9906 31.1831 62.9906Z" fill="black"/>
<path d="M24.5484 62.9906C25.6499 62.9906 26.5388 63.6028 26.5388 64.3501C26.5388 65.0974 25.6499 65.7094 24.5484 65.7094C23.4469 65.7094 22.5581 65.0974 22.5581 64.3501C22.5581 63.6028 23.4469 62.9906 24.5484 62.9906Z" fill="black"/>
<path d="M27.8657 57.5532C28.9672 57.5532 29.8559 58.1652 29.8559 58.9125C29.8559 59.6599 28.9672 60.272 27.8657 60.272C26.7642 60.272 25.8752 59.6599 25.8752 58.9125C25.8752 58.1652 26.7642 57.5532 27.8657 57.5532Z" fill="black"/>
<path d="M21.2312 57.5532C22.3327 57.5532 23.2216 58.1652 23.2216 58.9125C23.2216 59.6599 22.3327 60.272 21.2312 60.272C20.1297 60.272 19.2407 59.6599 19.2407 58.9125C19.2407 58.1652 20.1297 57.5532 21.2312 57.5532Z" fill="black"/>
<path d="M17.914 62.9906C19.0155 62.9906 19.9043 63.6028 19.9043 64.3501C19.9043 65.0974 19.0155 65.7094 17.914 65.7094C16.8125 65.7094 15.9236 65.0974 15.9236 64.3501C15.9236 63.6028 16.8127 62.9906 17.914 62.9906Z" fill="black"/>
<path d="M14.5965 57.5532C15.698 57.5532 16.5869 58.1652 16.5869 58.9125C16.5869 59.6599 15.698 60.272 14.5965 60.272C13.495 60.272 12.6062 59.6599 12.6062 58.9125C12.6062 58.1652 13.495 57.5532 14.5965 57.5532Z" fill="black"/>
<path d="M11.2793 62.9906C12.3808 62.9906 13.2697 63.6028 13.2697 64.3501C13.2697 65.0974 12.3808 65.7094 11.2793 65.7094C10.1779 65.7094 9.28882 65.0974 9.28882 64.3501C9.28882 63.6028 10.1779 62.9906 11.2793 62.9906Z" fill="black"/>
<path d="M14.5965 68.4282C15.698 68.4282 16.5869 69.0403 16.5869 69.7875C16.5869 70.5348 15.698 71.147 14.5965 71.147C13.495 71.147 12.6062 70.5348 12.6062 69.7875C12.6062 69.0402 13.495 68.4282 14.5965 68.4282Z" fill="black"/>
<path d="M23.2216 69.7875C23.2216 70.5348 22.3327 71.147 21.2312 71.147C20.1297 71.147 19.2407 70.5348 19.2407 69.7875C19.2407 69.0402 20.1297 68.4282 21.2312 68.4282C22.3327 68.4282 23.2216 69.0402 23.2216 69.7875Z" fill="black"/>
<path d="M27.8657 68.4282C28.9672 68.4282 29.8559 69.0403 29.8559 69.7875C29.8559 70.5348 28.9672 71.147 27.8657 71.147C26.7642 71.147 25.8752 70.5348 25.8752 69.7875C25.8752 69.0402 26.7642 68.4282 27.8657 68.4282Z" fill="black"/>
</g>
<path d="M54.4036 55.5141C55.5051 55.5141 56.3939 56.1261 56.3939 56.8734C56.3939 57.6207 55.5051 58.2327 54.4036 58.2327C53.3021 58.2327 52.4133 57.6207 52.4133 56.8734C52.4133 56.1261 53.3023 55.5141 54.4036 55.5141Z" fill="#E6E9ED"/>
<path d="M57.7207 60.9514C58.8222 60.9514 59.7112 61.5634 59.7112 62.3108C59.7112 63.0581 58.8222 63.6702 57.7207 63.6702C56.6194 63.6702 55.7305 63.0581 55.7305 62.3108C55.7305 61.5634 56.6194 60.9514 57.7207 60.9514Z" fill="#E6E9ED"/>
<path d="M54.4036 66.3889C55.5051 66.3889 56.3939 67.0009 56.3939 67.7482C56.3939 68.4956 55.5051 69.1075 54.4036 69.1075C53.3021 69.1075 52.4133 68.4956 52.4133 67.7482C52.4133 67.0009 53.3023 66.3889 54.4036 66.3889Z" fill="#E6E9ED"/>
<path d="M51.0862 60.9514C52.1877 60.9514 53.0767 61.5634 53.0767 62.3108C53.0767 63.0581 52.1877 63.6702 51.0862 63.6702C49.9847 63.6702 49.0959 63.0581 49.0959 62.3108C49.0959 61.5634 49.9847 60.9514 51.0862 60.9514Z" fill="#E6E9ED"/>
<path d="M47.7691 55.5141C48.8707 55.5141 49.7595 56.1261 49.7595 56.8734C49.7595 57.6207 48.8707 58.2327 47.7691 58.2327C46.6677 58.2327 45.7788 57.6207 45.7788 56.8734C45.7788 56.1261 46.6677 55.5141 47.7691 55.5141Z" fill="#E6E9ED"/>
<path d="M41.1343 55.5141C42.2358 55.5141 43.1247 56.1261 43.1247 56.8734C43.1247 57.6207 42.2358 58.2327 41.1343 58.2327C40.0328 58.2327 39.144 57.6207 39.144 56.8734C39.144 56.1261 40.033 55.5141 41.1343 55.5141Z" fill="#E6E9ED"/>
<path d="M44.4519 60.9514C45.5534 60.9514 46.4422 61.5634 46.4422 62.3108C46.4422 63.0581 45.5534 63.6702 44.4519 63.6702C43.3504 63.6702 42.4617 63.0581 42.4617 62.3108C42.4617 61.5634 43.3504 60.9514 44.4519 60.9514Z" fill="#E6E9ED"/>
<path d="M49.7595 67.7484C49.7595 68.4958 48.8707 69.1078 47.7691 69.1078C46.6677 69.1078 45.7788 68.4958 45.7788 67.7484C45.7788 67.0011 46.6677 66.3891 47.7691 66.3891C48.8707 66.389 49.7595 67.001 49.7595 67.7484Z" fill="#E6E9ED"/>
<path d="M47.7691 71.8265C48.8707 71.8265 49.7595 72.4385 49.7595 73.1858C49.7595 73.9331 48.8707 74.5453 47.7691 74.5453H21.2312C20.1297 74.5453 19.2407 73.9331 19.2407 73.1858C19.2407 72.4385 20.1297 71.8265 21.2312 71.8265H47.7691Z" fill="#E6E9ED"/>
<path d="M41.1343 66.3889C42.2358 66.3889 43.1247 67.0009 43.1247 67.7482C43.1247 68.4956 42.2358 69.1075 41.1343 69.1075C40.0328 69.1075 39.144 68.4956 39.144 67.7482C39.144 67.0009 40.033 66.3889 41.1343 66.3889Z" fill="#E6E9ED"/>
<path d="M34.5 66.3889C35.6015 66.3889 36.4903 67.0009 36.4903 67.7482C36.4903 68.4956 35.6015 69.1075 34.5 69.1075C33.3987 69.1075 32.5098 68.4956 32.5098 67.7482C32.5098 67.0009 33.3987 66.3889 34.5 66.3889Z" fill="#E6E9ED"/>
<path d="M37.8173 60.9514C38.9188 60.9514 39.8076 61.5634 39.8076 62.3108C39.8076 63.0581 38.9188 63.6702 37.8173 63.6702C36.7158 63.6702 35.8269 63.0581 35.8269 62.3108C35.8269 61.5634 36.716 60.9514 37.8173 60.9514Z" fill="#E6E9ED"/>
<path d="M34.5 55.5141C35.6015 55.5141 36.4903 56.1261 36.4903 56.8734C36.4903 57.6207 35.6015 58.2327 34.5 58.2327C33.3987 58.2327 32.5098 57.6207 32.5098 56.8734C32.5098 56.1261 33.3987 55.5141 34.5 55.5141Z" fill="#E6E9ED"/>
<path d="M31.1831 60.9514C32.2844 60.9514 33.1735 61.5634 33.1735 62.3108C33.1735 63.0581 32.2846 63.6702 31.1831 63.6702C30.0816 63.6702 29.1926 63.0581 29.1926 62.3108C29.1926 61.5634 30.0816 60.9514 31.1831 60.9514Z" fill="#E6E9ED"/>
<path d="M24.5484 60.9514C25.6499 60.9514 26.5388 61.5634 26.5388 62.3108C26.5388 63.0581 25.6499 63.6702 24.5484 63.6702C23.4469 63.6702 22.5581 63.0581 22.5581 62.3108C22.5581 61.5634 23.4469 60.9514 24.5484 60.9514Z" fill="#E6E9ED"/>
<path d="M27.8657 55.5141C28.9672 55.5141 29.8559 56.1261 29.8559 56.8734C29.8559 57.6207 28.9672 58.2327 27.8657 58.2327C26.7642 58.2327 25.8752 57.6207 25.8752 56.8734C25.8752 56.1261 26.7642 55.5141 27.8657 55.5141Z" fill="#E6E9ED"/>
<path d="M21.2312 55.5141C22.3327 55.5141 23.2216 56.1261 23.2216 56.8734C23.2216 57.6207 22.3327 58.2327 21.2312 58.2327C20.1297 58.2327 19.2407 57.6207 19.2407 56.8734C19.2407 56.1261 20.1297 55.5141 21.2312 55.5141Z" fill="#E6E9ED"/>
<path d="M17.914 60.9514C19.0155 60.9514 19.9043 61.5634 19.9043 62.3108C19.9043 63.0581 19.0155 63.6702 17.914 63.6702C16.8125 63.6702 15.9236 63.0581 15.9236 62.3108C15.9236 61.5634 16.8127 60.9514 17.914 60.9514Z" fill="#E6E9ED"/>
<path d="M14.5965 55.5141C15.698 55.5141 16.5869 56.1261 16.5869 56.8734C16.5869 57.6207 15.698 58.2327 14.5965 58.2327C13.495 58.2327 12.6062 57.6207 12.6062 56.8734C12.6062 56.1261 13.495 55.5141 14.5965 55.5141Z" fill="#E6E9ED"/>
<path d="M11.2793 60.9514C12.3808 60.9514 13.2697 61.5634 13.2697 62.3108C13.2697 63.0581 12.3808 63.6702 11.2793 63.6702C10.1779 63.6702 9.28882 63.0581 9.28882 62.3108C9.28882 61.5634 10.1779 60.9514 11.2793 60.9514Z" fill="#E6E9ED"/>
<path d="M14.5965 66.3889C15.698 66.3889 16.5869 67.0009 16.5869 67.7482C16.5869 68.4956 15.698 69.1075 14.5965 69.1075C13.495 69.1075 12.6062 68.4956 12.6062 67.7482C12.6062 67.0009 13.495 66.3889 14.5965 66.3889Z" fill="#E6E9ED"/>
<path d="M23.2216 67.7484C23.2216 68.4958 22.3327 69.1078 21.2312 69.1078C20.1297 69.1078 19.2407 68.4958 19.2407 67.7484C19.2407 67.0011 20.1297 66.3891 21.2312 66.3891C22.3327 66.3891 23.2216 67.001 23.2216 67.7484Z" fill="#E6E9ED"/>
<path d="M27.8657 66.3889C28.9672 66.3889 29.8559 67.0009 29.8559 67.7482C29.8559 68.4956 28.9672 69.1075 27.8657 69.1075C26.7642 69.1075 25.8752 68.4956 25.8752 67.7482C25.8752 67.0009 26.7642 66.3889 27.8657 66.3889Z" fill="#E6E9ED"/>
<path opacity="0.2" d="M64.2489 50.0088L64.0558 48.6788L63.7979 48.7174C63.7979 48.7174 61.7013 47.3579 55.0669 47.3579C48.4325 47.3579 43.125 51.4358 34.5 51.4358C25.8751 51.4358 19.2406 47.3577 12.6062 47.3577C5.97162 47.3577 5.202 48.7172 5.202 48.7172L4.94413 48.6786L4.75098 50.0087L5.202 50.0763C5.202 50.0763 5.97162 48.717 12.6062 48.717C19.2406 48.717 25.8751 52.7951 34.5 52.7951C43.125 52.7951 48.4325 48.717 55.0669 48.717C61.7013 48.717 63.7979 50.0763 63.7979 50.0763L64.2489 50.0088Z" fill="black"/>
<g opacity="0.2">
<path d="M13.5819 47.3945C13.2567 47.3755 12.9314 47.3578 12.6062 47.3578C12.9314 47.3578 13.2567 47.3755 13.5806 47.3945H13.5819Z" fill="white"/>
<path d="M3.33099 77.2641C3.3051 76.8432 3.33099 76.4211 3.39703 75.9857L7.33111 49.1513C5.50263 49.5495 5.20211 50.0765 5.20211 50.0765L4.75109 50.0088L4.94425 48.6787L5.20211 48.7173L4.75109 48.6496L0.743177 75.9859C0.677133 76.4213 0.651247 76.8434 0.677133 77.2643C0.796277 80.3495 3.13269 82.7017 6.35672 82.7017H9.01057C5.78638 82.7017 3.45013 80.3495 3.33099 77.2641Z" fill="white"/>
</g>
<g opacity="0.2">
<path d="M63.7982 48.7172H63.7995C63.7982 48.7145 63.0247 47.3577 56.3953 47.3577C56.2812 47.3577 56.166 47.367 56.052 47.371C61.9048 47.4973 63.7982 48.7172 63.7982 48.7172Z" fill="black"/>
<path d="M68.2584 75.9859L64.2504 48.6496L64.0288 48.6828L64.056 48.6789L64.2491 50.009L63.7981 50.0766C63.7981 50.0766 63.2098 49.7023 61.699 49.3451L65.6045 75.9857C65.6705 76.4211 65.6966 76.8432 65.6705 77.2641C65.5512 80.3493 63.215 82.7016 59.991 82.7016H62.6447C65.8688 82.7016 68.2051 80.3493 68.3242 77.2641C68.3503 76.8434 68.3244 76.4211 68.2584 75.9859Z" fill="black"/>
</g>
<path opacity="0.2" d="M13.9333 39.2016H56.3941V40.5609H13.9333V39.2016Z" fill="black"/>
<path opacity="0.2" d="M17.9141 2.49839H57.4242C58.1525 1.66879 59.1969 1.13907 60.3748 1.13907H17.9141C15.7112 1.13907 13.9333 2.96044 13.9333 5.21719V6.57667C13.9333 4.31976 15.7112 2.49839 17.9141 2.49839Z" fill="black"/>
<path opacity="0.5" d="M13.9333 6.57661V39.2016H15.2604V5.21713C15.2604 4.43921 15.4832 3.72113 15.8499 3.1025C14.7045 3.81803 13.9333 5.09762 13.9333 6.57661Z" fill="white"/>
<g opacity="0.2">
<path d="M58.6799 1.5396C58.702 1.52882 58.7214 1.51386 58.7435 1.50291C58.7214 1.51369 58.702 1.52865 58.6799 1.5396Z" fill="black"/>
<path d="M59.4016 1.27688C59.4469 1.2647 59.4897 1.24296 59.5364 1.2334C59.4899 1.24435 59.4471 1.2647 59.4016 1.27688Z" fill="black"/>
<path d="M57.4241 2.49841H56.0973C55.4637 3.22057 55.0671 4.16713 55.0671 5.21722V39.2017H56.394V5.21722C56.394 4.16713 56.7906 3.22057 57.4241 2.49841Z" fill="black"/>
</g>
<path d="M62.6435 83.3812H6.35642C2.81761 83.3812 0.150808 80.8205 0.0134111 77.2906C-0.0138028 76.8539 0.010756 76.3878 0.0872538 75.8808L4.29463 47.1773C4.89981 43.1522 8.62911 39.8812 12.606 39.8812H56.3935C60.3704 39.8812 64.0996 43.1522 64.7049 47.1734L68.9123 75.8849C68.9886 76.388 69.0132 76.8539 68.9848 77.3066C68.8491 80.8204 66.1823 83.3812 62.6435 83.3812ZM12.6062 41.2405C9.25636 41.2405 6.1168 43.9952 5.60621 47.3802L1.39867 76.0864C1.33644 76.4979 1.31702 76.867 1.33909 77.2215C1.44662 80.0091 3.5562 82.0217 6.35642 82.0217H62.6433C65.4437 82.0217 67.5533 80.0091 67.6595 77.2373C67.6829 76.8668 67.6633 76.4978 67.601 76.0903L63.3937 47.3763C62.8832 43.9952 59.7435 41.2405 56.3937 41.2405H12.6062Z" fill="#3A3847"/>
<path d="M62.6436 87.4593H6.35656C2.82555 87.4593 0.152281 84.8998 0.00061312 81.3713C-0.0149851 80.997 0.268936 80.6796 0.63566 80.6622C0.995913 80.6411 1.30954 80.9371 1.32762 81.3128C1.44544 84.0858 3.56149 86.0998 6.35656 86.0998H62.6434C65.4387 86.0998 67.5547 84.0858 67.6725 81.3128C67.6895 80.9371 67.9902 80.6425 68.3645 80.6622C68.7312 80.6796 69.015 80.997 68.9994 81.3713C68.8479 84.8998 66.1746 87.4593 62.6436 87.4593Z" fill="#3A3847"/>
<path d="M14.5966 58.9123C13.1091 58.9123 11.9429 58.0163 11.9429 56.8734C11.9429 55.7304 13.1091 54.8344 14.5966 54.8344C16.0842 54.8344 17.2504 55.7304 17.2504 56.8734C17.2504 58.0163 16.0842 58.9123 14.5966 58.9123ZM14.5966 56.1937C13.7984 56.1937 13.2697 56.6025 13.2697 56.8734C13.2697 57.1443 13.7984 57.553 14.5966 57.553C15.3949 57.553 15.9236 57.1443 15.9236 56.8734C15.9236 56.6025 15.3949 56.1937 14.5966 56.1937Z" fill="#3A3847"/>
<path d="M17.9139 64.35C16.4262 64.35 15.26 63.4539 15.26 62.3108C15.26 61.1678 16.4262 60.2719 17.9139 60.2719C19.4015 60.2719 20.5677 61.1679 20.5677 62.3108C20.5677 63.4537 19.4015 64.35 17.9139 64.35ZM17.9139 61.6312C17.1155 61.6312 16.587 62.04 16.587 62.3108C16.587 62.5816 17.1157 62.9905 17.9139 62.9905C18.712 62.9905 19.2407 62.5816 19.2407 62.3108C19.2407 62.04 18.7122 61.6312 17.9139 61.6312Z" fill="#3A3847"/>
<path d="M24.5485 64.35C23.0608 64.35 21.8948 63.4539 21.8948 62.3108C21.8948 61.1678 23.0608 60.2719 24.5485 60.2719C26.0361 60.2719 27.2023 61.1679 27.2023 62.3108C27.2023 63.4537 26.0361 64.35 24.5485 64.35ZM24.5485 61.6312C23.7503 61.6312 23.2216 62.04 23.2216 62.3108C23.2216 62.5816 23.7503 62.9905 24.5485 62.9905C25.3468 62.9905 25.8755 62.5816 25.8755 62.3108C25.8755 62.04 25.3466 61.6312 24.5485 61.6312Z" fill="#3A3847"/>
<path d="M31.1832 64.35C29.6955 64.35 28.5293 63.4539 28.5293 62.3108C28.5293 61.1678 29.6955 60.2719 31.1832 60.2719C32.6706 60.2719 33.837 61.1679 33.837 62.3108C33.837 63.4537 32.6706 64.35 31.1832 64.35ZM31.1832 61.6312C30.385 61.6312 29.8561 62.04 29.8561 62.3108C29.8561 62.5816 30.385 62.9905 31.1832 62.9905C31.9813 62.9905 32.5102 62.5816 32.5102 62.3108C32.5102 62.04 31.9813 61.6312 31.1832 61.6312Z" fill="#3A3847"/>
<path d="M37.8174 64.35C36.3298 64.35 35.1636 63.4539 35.1636 62.3108C35.1636 61.1678 36.3298 60.2719 37.8174 60.2719C39.3049 60.2719 40.4711 61.1679 40.4711 62.3108C40.4711 63.4537 39.3049 64.35 37.8174 64.35ZM37.8174 61.6312C37.0191 61.6312 36.4904 62.04 36.4904 62.3108C36.4904 62.5816 37.0193 62.9905 37.8174 62.9905C38.6156 62.9905 39.1443 62.5816 39.1443 62.3108C39.1443 62.04 38.6156 61.6312 37.8174 61.6312Z" fill="#3A3847"/>
<path d="M44.4518 64.35C42.9641 64.35 41.7981 63.4539 41.7981 62.3108C41.7981 61.1678 42.9641 60.2719 44.4518 60.2719C45.9394 60.2719 47.1055 61.1679 47.1055 62.3108C47.1055 63.4537 45.9394 64.35 44.4518 64.35ZM44.4518 61.6312C43.6535 61.6312 43.1249 62.04 43.1249 62.3108C43.1249 62.5816 43.6536 62.9905 44.4518 62.9905C45.25 62.9905 45.7786 62.5816 45.7786 62.3108C45.7786 62.04 45.25 61.6312 44.4518 61.6312Z" fill="#3A3847"/>
<path d="M51.0863 64.35C49.5988 64.35 48.4326 63.4539 48.4326 62.3108C48.4326 61.1678 49.5988 60.2719 51.0863 60.2719C52.5739 60.2719 53.7402 61.1679 53.7402 62.3108C53.7402 63.4537 52.5739 64.35 51.0863 64.35ZM51.0863 61.6312C50.2881 61.6312 49.7595 62.04 49.7595 62.3108C49.7595 62.5816 50.2883 62.9905 51.0863 62.9905C51.8846 62.9905 52.4133 62.5816 52.4133 62.3108C52.4133 62.04 51.8846 61.6312 51.0863 61.6312Z" fill="#3A3847"/>
<path d="M57.7208 64.35C56.2334 64.35 55.0671 63.4539 55.0671 62.3108C55.0671 61.1678 56.2334 60.2719 57.7208 60.2719C59.2085 60.2719 60.3747 61.1679 60.3747 62.3108C60.3747 63.4537 59.2083 64.35 57.7208 64.35ZM57.7208 61.6312C56.9227 61.6312 56.394 62.04 56.394 62.3108C56.394 62.5816 56.9228 62.9905 57.7208 62.9905C58.5192 62.9905 59.0478 62.5816 59.0478 62.3108C59.0478 62.04 58.519 61.6312 57.7208 61.6312Z" fill="#3A3847"/>
<path d="M11.2793 64.35C9.79187 64.35 8.62549 63.4539 8.62549 62.3108C8.62549 61.1678 9.79171 60.2719 11.2793 60.2719C12.767 60.2719 13.9332 61.1679 13.9332 62.3108C13.9332 63.4537 12.767 64.35 11.2793 64.35ZM11.2793 61.6312C10.4812 61.6312 9.95233 62.04 9.95233 62.3108C9.95233 62.5816 10.4812 62.9905 11.2793 62.9905C12.0775 62.9905 12.6064 62.5816 12.6064 62.3108C12.6064 62.04 12.0777 61.6312 11.2793 61.6312Z" fill="#3A3847"/>
<path d="M21.2312 58.9123C19.7438 58.9123 18.5774 58.0163 18.5774 56.8734C18.5774 55.7304 19.7436 54.8344 21.2312 54.8344C22.7189 54.8344 23.8851 55.7304 23.8851 56.8734C23.8851 58.0163 22.7187 58.9123 21.2312 58.9123ZM21.2312 56.1937C20.4331 56.1937 19.9042 56.6025 19.9042 56.8734C19.9042 57.1443 20.4331 57.553 21.2312 57.553C22.0294 57.553 22.5583 57.1443 22.5583 56.8734C22.5583 56.6025 22.0294 56.1937 21.2312 56.1937Z" fill="#3A3847"/>
<path d="M27.8655 58.9123C26.3779 58.9123 25.2117 58.0163 25.2117 56.8734C25.2117 55.7304 26.3779 54.8344 27.8655 54.8344C29.353 54.8344 30.5192 55.7304 30.5192 56.8734C30.5192 58.0163 29.353 58.9123 27.8655 58.9123ZM27.8655 56.1937C27.0672 56.1937 26.5385 56.6025 26.5385 56.8734C26.5385 57.1443 27.0672 57.553 27.8655 57.553C28.6637 57.553 29.1924 57.1443 29.1924 56.8734C29.1924 56.6025 28.6637 56.1937 27.8655 56.1937Z" fill="#3A3847"/>
<path d="M34.5001 58.9123C33.0127 58.9123 31.8464 58.0163 31.8464 56.8734C31.8464 55.7304 33.0127 54.8344 34.5001 54.8344C35.9878 54.8344 37.1538 55.7304 37.1538 56.8734C37.1538 58.0163 35.9878 58.9123 34.5001 58.9123ZM34.5001 56.1937C33.702 56.1937 33.1733 56.6025 33.1733 56.8734C33.1733 57.1443 33.702 57.553 34.5001 57.553C35.2985 57.553 35.827 57.1443 35.827 56.8734C35.827 56.6025 35.2985 56.1937 34.5001 56.1937Z" fill="#3A3847"/>
<path d="M41.1344 58.9123C39.6469 58.9123 38.4807 58.0163 38.4807 56.8734C38.4807 55.7304 39.6469 54.8344 41.1344 54.8344C42.622 54.8344 43.7883 55.7304 43.7883 56.8734C43.7883 58.0163 42.622 58.9123 41.1344 58.9123ZM41.1344 56.1937C40.3362 56.1937 39.8076 56.6025 39.8076 56.8734C39.8076 57.1443 40.3364 57.553 41.1344 57.553C41.9327 57.553 42.4614 57.1443 42.4614 56.8734C42.4616 56.6025 41.9327 56.1937 41.1344 56.1937Z" fill="#3A3847"/>
<path d="M47.7692 58.9123C46.2817 58.9123 45.1155 58.0163 45.1155 56.8734C45.1155 55.7304 46.2817 54.8344 47.7692 54.8344C49.2568 54.8344 50.423 55.7304 50.423 56.8734C50.423 58.0163 49.2568 58.9123 47.7692 58.9123ZM47.7692 56.1937C46.971 56.1937 46.4423 56.6025 46.4423 56.8734C46.4423 57.1443 46.9712 57.553 47.7692 57.553C48.5675 57.553 49.0962 57.1443 49.0962 56.8734C49.0962 56.6025 48.5673 56.1937 47.7692 56.1937Z" fill="#3A3847"/>
<path d="M54.4036 58.9123C52.916 58.9123 51.7498 58.0163 51.7498 56.8734C51.7498 55.7304 52.916 54.8344 54.4036 54.8344C55.8913 54.8344 57.0573 55.7304 57.0573 56.8734C57.0573 58.0163 55.8913 58.9123 54.4036 58.9123ZM54.4036 56.1937C53.6053 56.1937 53.0768 56.6025 53.0768 56.8734C53.0768 57.1443 53.6054 57.553 54.4036 57.553C55.2018 57.553 55.7305 57.1443 55.7305 56.8734C55.7305 56.6025 55.2019 56.1937 54.4036 56.1937Z" fill="#3A3847"/>
<path d="M14.5966 69.7874C13.1091 69.7874 11.9429 68.8913 11.9429 67.7484C11.9429 66.6055 13.1091 65.7094 14.5966 65.7094C16.0842 65.7094 17.2504 66.6055 17.2504 67.7484C17.2504 68.8913 16.0842 69.7874 14.5966 69.7874ZM14.5966 67.0688C13.7984 67.0688 13.2697 67.4776 13.2697 67.7484C13.2697 68.0194 13.7984 68.4281 14.5966 68.4281C15.3949 68.4281 15.9236 68.0194 15.9236 67.7484C15.9236 67.4776 15.3949 67.0688 14.5966 67.0688Z" fill="#3A3847"/>
<path d="M21.2312 69.7874C19.7438 69.7874 18.5774 68.8913 18.5774 67.7484C18.5774 66.6055 19.7436 65.7094 21.2312 65.7094C22.7189 65.7094 23.8851 66.6055 23.8851 67.7484C23.8851 68.8913 22.7187 69.7874 21.2312 69.7874ZM21.2312 67.0688C20.4331 67.0688 19.9042 67.4776 19.9042 67.7484C19.9042 68.0194 20.4331 68.4281 21.2312 68.4281C22.0294 68.4281 22.5583 68.0194 22.5583 67.7484C22.5583 67.4776 22.0294 67.0688 21.2312 67.0688Z" fill="#3A3847"/>
<path d="M27.8655 69.7874C26.3779 69.7874 25.2117 68.8913 25.2117 67.7484C25.2117 66.6055 26.3779 65.7094 27.8655 65.7094C29.353 65.7094 30.5192 66.6055 30.5192 67.7484C30.5192 68.8913 29.353 69.7874 27.8655 69.7874ZM27.8655 67.0688C27.0672 67.0688 26.5385 67.4776 26.5385 67.7484C26.5385 68.0194 27.0672 68.4281 27.8655 68.4281C28.6637 68.4281 29.1924 68.0194 29.1924 67.7484C29.1924 67.4776 28.6637 67.0688 27.8655 67.0688Z" fill="#3A3847"/>
<path d="M34.5001 69.7874C33.0127 69.7874 31.8464 68.8913 31.8464 67.7484C31.8464 66.6055 33.0127 65.7094 34.5001 65.7094C35.9878 65.7094 37.1538 66.6055 37.1538 67.7484C37.1538 68.8913 35.9878 69.7874 34.5001 69.7874ZM34.5001 67.0688C33.702 67.0688 33.1733 67.4776 33.1733 67.7484C33.1733 68.0194 33.702 68.4281 34.5001 68.4281C35.2985 68.4281 35.827 68.0194 35.827 67.7484C35.827 67.4776 35.2985 67.0688 34.5001 67.0688Z" fill="#3A3847"/>
<path d="M41.1344 69.7874C39.6469 69.7874 38.4807 68.8913 38.4807 67.7484C38.4807 66.6055 39.6469 65.7094 41.1344 65.7094C42.622 65.7094 43.7883 66.6055 43.7883 67.7484C43.7883 68.8913 42.622 69.7874 41.1344 69.7874ZM41.1344 67.0688C40.3362 67.0688 39.8076 67.4776 39.8076 67.7484C39.8076 68.0194 40.3364 68.4281 41.1344 68.4281C41.9327 68.4281 42.4614 68.0194 42.4614 67.7484C42.4616 67.4776 41.9327 67.0688 41.1344 67.0688Z" fill="#3A3847"/>
<path d="M47.7692 69.7874C46.2817 69.7874 45.1155 68.8913 45.1155 67.7484C45.1155 66.6055 46.2817 65.7094 47.7692 65.7094C49.2568 65.7094 50.423 66.6055 50.423 67.7484C50.423 68.8913 49.2568 69.7874 47.7692 69.7874ZM47.7692 67.0688C46.971 67.0688 46.4423 67.4776 46.4423 67.7484C46.4423 68.0194 46.9712 68.4281 47.7692 68.4281C48.5675 68.4281 49.0962 68.0194 49.0962 67.7484C49.0962 67.4776 48.5673 67.0688 47.7692 67.0688Z" fill="#3A3847"/>
<path d="M54.4036 69.7874C52.916 69.7874 51.7498 68.8913 51.7498 67.7484C51.7498 66.6055 52.916 65.7094 54.4036 65.7094C55.8913 65.7094 57.0573 66.6055 57.0573 67.7484C57.0573 68.8913 55.8913 69.7874 54.4036 69.7874ZM54.4036 67.0688C53.6053 67.0688 53.0768 67.4776 53.0768 67.7484C53.0768 68.0194 53.6054 68.4281 54.4036 68.4281C55.2018 68.4281 55.7305 68.0194 55.7305 67.7484C55.7305 67.4776 55.2019 67.0688 54.4036 67.0688Z" fill="#3A3847"/>
<path d="M47.7692 75.225H21.2312C19.7438 75.225 18.5774 74.329 18.5774 73.1859C18.5774 72.0428 19.7436 71.1469 21.2312 71.1469H47.7692C49.2568 71.1469 50.423 72.043 50.423 73.1859C50.423 74.3288 49.2568 75.225 47.7692 75.225ZM21.2312 72.5062C20.4331 72.5062 19.9042 72.9151 19.9042 73.1859C19.9042 73.4567 20.4331 73.8655 21.2312 73.8655H47.7692C48.5675 73.8655 49.0962 73.4567 49.0962 73.1859C49.0962 72.9151 48.5673 72.5062 47.7692 72.5062H21.2312Z" fill="#3A3847"/>
<path d="M34.5 52.1156C29.8144 52.1156 25.8065 50.9645 21.9295 49.851C18.6822 48.9191 15.615 48.0375 12.6062 48.0375C6.7803 48.0375 5.74235 49.1129 5.7319 49.1236C5.54671 49.4488 5.16173 49.5217 4.84695 49.3386C4.53083 49.1503 4.44388 48.7015 4.62791 48.3763C4.85342 47.978 6.09596 46.6783 12.6062 46.6783C15.7977 46.6783 18.9504 47.5837 22.2884 48.5422C26.0773 49.6307 29.9959 50.7564 34.5 50.7564C38.9951 50.7564 42.5391 49.6334 45.9667 48.5475C49.0014 47.5865 51.8665 46.6783 55.0671 46.6783C61.817 46.6783 64.0611 48.0829 64.1532 48.1425C64.463 48.3445 64.555 48.7637 64.3593 49.0811C64.1622 49.3983 63.7555 49.4884 63.4483 49.2948C63.3966 49.2642 61.2881 48.0375 55.0671 48.0375C52.0673 48.0375 49.2943 48.9164 46.358 49.8457C43.0005 50.9101 39.1947 52.1156 34.5 52.1156Z" fill="#3A3847"/>
<path d="M63.0286 80.6622H5.97177C5.60521 80.6622 5.30835 80.3584 5.30835 79.9825C5.30835 79.607 5.60521 79.3029 5.97177 79.3029H63.0286C63.3952 79.3029 63.692 79.607 63.692 79.9825C63.692 80.3584 63.3952 80.6622 63.0286 80.6622Z" fill="#3A3847"/>
<path d="M5.97188 41.2406C4.83686 41.2406 3.98145 39.779 3.98145 37.8423C3.98145 35.9053 4.83669 34.4439 5.97188 34.4439H11.2794C11.6462 34.4439 11.943 34.7478 11.943 35.1235C11.943 35.4992 11.6462 35.8032 11.2794 35.8032H5.97188C5.84095 35.8032 5.30846 36.459 5.30846 37.8423C5.30846 39.2256 5.84095 39.8813 5.97188 39.8813C6.3386 39.8813 6.63547 40.1853 6.63547 40.561C6.63547 40.9367 6.3386 41.2406 5.97188 41.2406Z" fill="#3A3847"/>
<path d="M63.0286 41.2406C62.6617 41.2406 62.365 40.9367 62.365 40.561C62.365 40.1853 62.6617 39.8813 63.0286 39.8813C63.1593 39.8813 63.692 39.2256 63.692 37.8423C63.692 36.459 63.1593 35.8032 63.0286 35.8032H59.0479C58.6811 35.8032 58.3843 35.4992 58.3843 35.1235C58.3843 34.7478 58.6811 34.4439 59.0479 34.4439H63.0286C64.1636 34.4439 65.0188 35.9055 65.0188 37.8423C65.0188 39.779 64.1636 41.2406 63.0286 41.2406Z" fill="#3A3847"/>
<path d="M4.64496 38.5219H3.98154C3.61481 38.5219 3.31812 38.2178 3.31812 37.8423C3.31812 37.4666 3.61481 37.1624 3.98154 37.1624H4.64496C5.01169 37.1624 5.30855 37.4666 5.30855 37.8423C5.30838 38.2178 5.01152 38.5219 4.64496 38.5219Z" fill="#3A3847"/>
<path d="M65.0187 38.5219H64.3553C63.9886 38.5219 63.6919 38.2178 63.6919 37.8423C63.6919 37.4666 63.9886 37.1624 64.3553 37.1624H65.0187C65.3855 37.1624 65.6822 37.4666 65.6822 37.8423C65.6822 38.2178 65.3855 38.5219 65.0187 38.5219Z" fill="#3A3847"/>
<path d="M39.1443 41.9202H29.856C29.4893 41.9202 29.1926 41.6161 29.1926 41.2404C29.1926 40.8647 29.4893 40.5607 29.856 40.5607H39.1443C39.511 40.5607 39.8077 40.8647 39.8077 41.2404C39.8077 41.6161 39.511 41.9202 39.1443 41.9202Z" fill="#3A3847"/>
<path d="M13.9332 38.5219C13.5665 38.5219 13.2698 38.2178 13.2698 37.8422V5.21711C13.2698 4.84158 13.5665 4.53745 13.9332 4.53745C14.2999 4.53745 14.5966 4.84158 14.5966 5.21711V37.8422C14.5966 38.2178 14.2999 38.5219 13.9332 38.5219Z" fill="#3A3847"/>
<path d="M64.3553 7.25626C63.9886 7.25626 63.6919 6.9523 63.6919 6.5766V5.21711C63.6919 4.84158 63.9886 4.53745 64.3553 4.53745C64.722 4.53745 65.0187 4.84158 65.0187 5.21711V6.5766C65.0187 6.9523 64.722 7.25626 64.3553 7.25626Z" fill="#3A3847"/>
<path d="M56.3939 38.5219C56.0272 38.5219 55.7305 38.2178 55.7305 37.8422V5.21711C55.7305 4.84158 56.0272 4.53745 56.3939 4.53745C56.7606 4.53745 57.0573 4.84158 57.0573 5.21711V37.8422C57.0575 38.2178 56.7606 38.5219 56.3939 38.5219Z" fill="#3A3847"/>
<path d="M60.3748 1.81869H17.9139C17.5472 1.81869 17.2505 1.51473 17.2505 1.13903C17.2505 0.763333 17.5472 0.459373 17.9139 0.459373H60.3746C60.7413 0.459373 61.038 0.763333 61.038 1.13903C61.038 1.51473 60.7415 1.81869 60.3748 1.81869Z" fill="#3A3847"/>
<path d="M64.3556 7.25627H57.721C57.3545 7.25627 57.0576 6.95231 57.0576 6.57662C57.0576 6.20092 57.3545 5.89696 57.721 5.89696H64.3556C64.7223 5.89696 65.019 6.20092 65.019 6.57662C65.019 6.95231 64.7223 7.25627 64.3556 7.25627Z" fill="#3A3847"/>
<path d="M13.9332 5.89698C13.5665 5.89698 13.2698 5.59285 13.2698 5.21715C13.2698 2.59406 15.3535 0.459373 17.9139 0.459373C18.2806 0.459373 18.5773 0.763333 18.5773 1.13903C18.5773 1.51473 18.2806 1.81869 17.9139 1.81869C16.0843 1.81869 14.5966 3.34274 14.5966 5.21715C14.5966 5.59285 14.2999 5.89698 13.9332 5.89698Z" fill="#3A3847"/>
<path d="M56.3939 5.89698C56.0272 5.89698 55.7305 5.59285 55.7305 5.21715C55.7305 2.59406 57.8142 0.459373 60.3746 0.459373C60.7413 0.459373 61.038 0.763333 61.038 1.13903C61.038 1.51473 60.7413 1.81869 60.3746 1.81869C58.545 1.81869 57.0573 3.34274 57.0573 5.21715C57.0575 5.59285 56.7606 5.89698 56.3939 5.89698Z" fill="#3A3847"/>
<path d="M64.3556 5.89698C63.9888 5.89698 63.6921 5.59285 63.6921 5.21715C63.6921 3.34274 62.2045 1.81869 60.3748 1.81869C60.0081 1.81869 59.7114 1.51473 59.7114 1.13903C59.7114 0.763333 60.0081 0.459373 60.3748 0.459373C62.9354 0.459373 65.019 2.59406 65.019 5.21715C65.019 5.59285 64.7223 5.89698 64.3556 5.89698Z" fill="#3A3847"/>
<path d="M49.7594 9.97491H20.5676C20.2009 9.97491 19.9041 9.67078 19.9041 9.29508C19.9041 8.91955 20.2009 8.61543 20.5676 8.61543H49.7594C50.1261 8.61543 50.4228 8.91955 50.4228 9.29508C50.4228 9.67095 50.1261 9.97491 49.7594 9.97491Z" fill="#3A3847"/>
<path d="M49.7594 15.4125H20.5676C20.2009 15.4125 19.9041 15.1084 19.9041 14.7327C19.9041 14.3571 20.2009 14.053 20.5676 14.053H49.7594C50.1261 14.053 50.4228 14.3571 50.4228 14.7327C50.4228 15.1084 50.1261 15.4125 49.7594 15.4125Z" fill="#3A3847"/>
<path d="M49.7594 20.85H20.5676C20.2009 20.85 19.9041 20.5459 19.9041 20.1702C19.9041 19.7946 20.2009 19.4905 20.5676 19.4905H49.7594C50.1261 19.4905 50.4228 19.7946 50.4228 20.1702C50.4228 20.5459 50.1261 20.85 49.7594 20.85Z" fill="#3A3847"/>
<path d="M49.7594 26.2875H20.5676C20.2009 26.2875 19.9041 25.9833 19.9041 25.6078C19.9041 25.2321 20.2009 24.928 20.5676 24.928H49.7594C50.1261 24.928 50.4228 25.2321 50.4228 25.6078C50.4228 25.9835 50.1261 26.2875 49.7594 26.2875Z" fill="#3A3847"/>
<path d="M35.1634 31.725H20.5676C20.2009 31.725 19.9041 31.4209 19.9041 31.0454C19.9041 30.6697 20.2009 30.3656 20.5676 30.3656H35.1634C35.5302 30.3656 35.8269 30.6697 35.8269 31.0454C35.8269 31.4209 35.5302 31.725 35.1634 31.725Z" fill="#3A3847"/>
<path d="M68.3358 82.0217C67.9692 82.0217 67.6724 81.7178 67.6724 81.3421V77.264C67.6724 76.8883 67.9692 76.5843 68.3358 76.5843C68.7027 76.5843 68.9992 76.8883 68.9992 77.264V81.3421C68.9992 81.7178 68.7027 82.0217 68.3358 82.0217Z" fill="#3A3847"/>
<path d="M0.664399 82.0217C0.297841 82.0217 0.000976562 81.7178 0.000976562 81.3421V77.264C0.000976562 76.8883 0.297841 76.5843 0.664399 76.5843C1.03112 76.5843 1.32799 76.8883 1.32799 77.264V81.3421C1.32782 81.7178 1.03112 82.0217 0.664399 82.0217Z" fill="#3A3847"/>
</svg>
