<svg width="14" height="16" viewBox="0 0 14 16" fill="none" xmlns="http://www.w3.org/2000/svg">
<mask id="path-1-inside-1_289_166" fill="white">
<path d="M12.3897 7H11.1506V5C11.1506 3.05 9.23011 1.5 6.81398 1.5C4.39784 1.5 2.47732 3.05 2.47732 5V7H1.23828V5C1.23828 2.5 3.71637 0.5 6.81398 0.5C9.91159 0.5 12.3897 2.5 12.3897 5V7Z"/>
</mask>
<path d="M12.3897 7H11.1506V5C11.1506 3.05 9.23011 1.5 6.81398 1.5C4.39784 1.5 2.47732 3.05 2.47732 5V7H1.23828V5C1.23828 2.5 3.71637 0.5 6.81398 0.5C9.91159 0.5 12.3897 2.5 12.3897 5V7Z" fill="white"/>
<path d="M12.3897 7V9H14.3897V7H12.3897ZM11.1506 7H9.15063V9H11.1506V7ZM2.47732 7V9H4.47732V7H2.47732ZM1.23828 7H-0.761719V9H1.23828V7ZM12.3897 5H11.1506V9H12.3897V5ZM13.1506 7V5H9.15063V7H13.1506ZM13.1506 5C13.1506 1.56639 9.91302 -0.5 6.81398 -0.5V3.5C8.5472 3.5 9.15063 4.53361 9.15063 5H13.1506ZM6.81398 -0.5C3.71493 -0.5 0.477325 1.56639 0.477325 5H4.47732C4.47732 4.53361 5.08075 3.5 6.81398 3.5V-0.5ZM0.477325 5V7H4.47732V5H0.477325ZM2.47732 5H1.23828V9H2.47732V5ZM3.23828 7V5H-0.761719V7H3.23828ZM3.23828 5C3.23828 3.98361 4.39928 2.5 6.81398 2.5V-1.5C3.03346 -1.5 -0.761719 1.01639 -0.761719 5H3.23828ZM6.81398 2.5C9.22867 2.5 10.3897 3.98361 10.3897 5H14.3897C14.3897 1.01639 10.5945 -1.5 6.81398 -1.5V2.5ZM10.3897 5V7H14.3897V5H10.3897Z" fill="white" mask="url(#path-1-inside-1_289_166)"/>
<mask id="path-3-inside-2_289_166" fill="white">
<path d="M11.7709 15.5H1.85857C0.805378 15.5 0 14.85 0 14V8C0 7.15 0.805378 6.5 1.85857 6.5H11.7709C12.8241 6.5 13.6295 7.15 13.6295 8V14C13.6295 14.85 12.8241 15.5 11.7709 15.5ZM1.85857 7.5C1.48685 7.5 1.23904 7.7 1.23904 8V14C1.23904 14.3 1.48685 14.5 1.85857 14.5H11.7709C12.1426 14.5 12.3904 14.3 12.3904 14V8C12.3904 7.7 12.1426 7.5 11.7709 7.5H1.85857Z"/>
</mask>
<path d="M11.7709 15.5H1.85857C0.805378 15.5 0 14.85 0 14V8C0 7.15 0.805378 6.5 1.85857 6.5H11.7709C12.8241 6.5 13.6295 7.15 13.6295 8V14C13.6295 14.85 12.8241 15.5 11.7709 15.5ZM1.85857 7.5C1.48685 7.5 1.23904 7.7 1.23904 8V14C1.23904 14.3 1.48685 14.5 1.85857 14.5H11.7709C12.1426 14.5 12.3904 14.3 12.3904 14V8C12.3904 7.7 12.1426 7.5 11.7709 7.5H1.85857Z" fill="white"/>
<path d="M11.7709 13.5H1.85857V17.5H11.7709V13.5ZM1.85857 13.5C1.73375 13.5 1.72694 13.4612 1.79043 13.5124C1.82427 13.5397 1.87807 13.5942 1.92428 13.6849C1.97228 13.7791 2 13.8896 2 14H-2C-2 16.3336 0.122465 17.5 1.85857 17.5V13.5ZM2 14V8H-2V14H2ZM2 8C2 8.11044 1.97228 8.22087 1.92428 8.31507C1.87807 8.40576 1.82427 8.46029 1.79043 8.4876C1.72694 8.53885 1.73375 8.5 1.85857 8.5V4.5C0.122465 4.5 -2 5.66639 -2 8H2ZM1.85857 8.5H11.7709V4.5H1.85857V8.5ZM11.7709 8.5C11.8957 8.5 11.9025 8.53885 11.839 8.4876C11.8052 8.46029 11.7514 8.40576 11.7052 8.31507C11.6572 8.22087 11.6295 8.11044 11.6295 8H15.6295C15.6295 5.66639 13.507 4.5 11.7709 4.5V8.5ZM11.6295 8V14H15.6295V8H11.6295ZM11.6295 14C11.6295 13.8896 11.6572 13.7791 11.7052 13.6849C11.7514 13.5942 11.8052 13.5397 11.839 13.5124C11.9025 13.4612 11.8957 13.5 11.7709 13.5V17.5C13.507 17.5 15.6295 16.3336 15.6295 14H11.6295ZM1.85857 5.5C1.33052 5.5 0.697599 5.64187 0.15332 6.08115C-0.428215 6.55049 -0.760957 7.24889 -0.760957 8H3.23904C3.23904 8.45112 3.03021 8.89951 2.6655 9.19385C2.33806 9.45813 2.0149 9.5 1.85857 9.5V5.5ZM-0.760957 8V14H3.23904V8H-0.760957ZM-0.760957 14C-0.760957 14.7511 -0.428215 15.4495 0.15332 15.9189C0.697599 16.3581 1.33052 16.5 1.85857 16.5V12.5C2.0149 12.5 2.33806 12.5419 2.6655 12.8062C3.03021 13.1005 3.23904 13.5489 3.23904 14H-0.760957ZM1.85857 16.5H11.7709V12.5H1.85857V16.5ZM11.7709 16.5C12.299 16.5 12.9319 16.3581 13.4762 15.9189C14.0577 15.4495 14.3904 14.7511 14.3904 14H10.3904C10.3904 13.5489 10.5993 13.1005 10.964 12.8062C11.2914 12.5419 11.6146 12.5 11.7709 12.5V16.5ZM14.3904 14V8H10.3904V14H14.3904ZM14.3904 8C14.3904 7.24889 14.0577 6.55049 13.4762 6.08115C12.9319 5.64187 12.299 5.5 11.7709 5.5V9.5C11.6146 9.5 11.2914 9.45813 10.964 9.19385C10.5993 8.89951 10.3904 8.45112 10.3904 8H14.3904ZM11.7709 5.5H1.85857V9.5H11.7709V5.5Z" fill="white" mask="url(#path-3-inside-2_289_166)"/>
<mask id="path-5-inside-3_289_166" fill="white">
<path d="M6.81522 10.5C7.49952 10.5 8.05426 10.0523 8.05426 9.5C8.05426 8.94772 7.49952 8.5 6.81522 8.5C6.13091 8.5 5.57617 8.94772 5.57617 9.5C5.57617 10.0523 6.13091 10.5 6.81522 10.5Z"/>
</mask>
<path d="M6.81522 10.5C7.49952 10.5 8.05426 10.0523 8.05426 9.5C8.05426 8.94772 7.49952 8.5 6.81522 8.5C6.13091 8.5 5.57617 8.94772 5.57617 9.5C5.57617 10.0523 6.13091 10.5 6.81522 10.5Z" fill="white"/>
<path d="M6.05426 9.5C6.05426 9.06692 6.27701 8.77847 6.43526 8.65076C6.58963 8.52617 6.73058 8.5 6.81522 8.5V12.5C8.18243 12.5 10.0543 11.5359 10.0543 9.5H6.05426ZM6.81522 8.5C6.89985 8.5 7.0408 8.52617 7.19517 8.65076C7.35342 8.77847 7.57617 9.06692 7.57617 9.5H3.57617C3.57617 11.5359 5.448 12.5 6.81522 12.5V8.5ZM7.57617 9.5C7.57617 9.93308 7.35342 10.2215 7.19517 10.3492C7.0408 10.4738 6.89985 10.5 6.81522 10.5V6.5C5.448 6.5 3.57617 7.46411 3.57617 9.5H7.57617ZM6.81522 10.5C6.73058 10.5 6.58963 10.4738 6.43526 10.3492C6.27701 10.2215 6.05426 9.93308 6.05426 9.5H10.0543C10.0543 7.46411 8.18243 6.5 6.81522 6.5V10.5Z" fill="white" mask="url(#path-5-inside-3_289_166)"/>
<mask id="path-7-inside-4_289_166" fill="white">
<path d="M7.12381 9.5H6.50429L5.88477 12.5H7.74333L7.12381 9.5Z"/>
</mask>
<path d="M7.12381 9.5H6.50429L5.88477 12.5H7.74333L7.12381 9.5Z" fill="white"/>
<path d="M7.12381 9.5L9.08248 9.09552L8.75299 7.5H7.12381V9.5ZM6.50429 9.5V7.5H4.8751L4.54562 9.09552L6.50429 9.5ZM5.88477 12.5L3.92609 12.0955L3.42955 14.5H5.88477V12.5ZM7.74333 12.5V14.5H10.1985L9.702 12.0955L7.74333 12.5ZM7.12381 7.5H6.50429V11.5H7.12381V7.5ZM4.54562 9.09552L3.92609 12.0955L7.84344 12.9045L8.46296 9.90448L4.54562 9.09552ZM5.88477 14.5H7.74333V10.5H5.88477V14.5ZM9.702 12.0955L9.08248 9.09552L5.16514 9.90448L5.78466 12.9045L9.702 12.0955Z" fill="white" mask="url(#path-7-inside-4_289_166)"/>
</svg>
