<svg width="16" height="16" viewBox="0 0 12 13" fill="none" xmlns="http://www.w3.org/2000/svg">
<path d="M9.91706 2.38101L7.35155 1.24117C6.50572 0.864922 5.4948 0.864922 4.64897 1.24117L2.08347 2.38101C1.0813 2.82668 0.458862 3.72851 0.458862 4.73476V8.26392C0.458862 9.27076 1.0813 10.172 2.08347 10.6177L4.64954 11.7575C5.06896 11.9436 5.52922 12.0369 5.98889 12.0387C5.99297 12.0387 5.99646 12.041 5.99996 12.041C6.00346 12.041 6.00753 12.0387 6.01103 12.0387C6.47128 12.0369 6.93096 11.9436 7.35038 11.7575L9.91645 10.6177C10.9186 10.172 11.5411 9.27017 11.5411 8.26392V4.73476C11.5416 3.72793 10.9192 2.82609 9.91706 2.38101ZM4.88581 1.77434C5.23464 1.61917 5.61729 1.5416 5.99996 1.5416C6.38263 1.5416 6.76528 1.61917 7.11411 1.77434L9.67962 2.91418C9.94095 3.03026 10.1655 3.18718 10.354 3.36977L8.62321 4.13918L4.09305 2.12668L4.88581 1.77434ZM2.3197 2.91418L3.37496 2.44576L7.90573 4.45826L6.7612 4.96692C6.30329 5.17108 5.6978 5.17108 5.23989 4.96692L1.64597 3.36977C1.83438 3.18718 2.05895 3.03026 2.3197 2.91418ZM2.3197 10.0845C1.53103 9.73392 1.04163 9.03684 1.04163 8.26392V4.73476C1.04163 4.4186 1.12739 4.11701 1.27789 3.8446L5.00188 5.50009C5.21946 5.59692 5.46097 5.64825 5.70772 5.67625V11.4268C5.42481 11.397 5.14481 11.3393 4.88581 11.2243L2.3197 10.0845ZM10.9583 8.26392C10.9583 9.03684 10.4683 9.73451 9.68022 10.0845L7.11411 11.2243C6.85453 11.3398 6.57511 11.3976 6.2922 11.4268V5.67625C6.53895 5.64767 6.78104 5.59634 6.99804 5.50009L10.722 3.8446C10.8725 4.11701 10.9583 4.4186 10.9583 4.73476V8.26392Z" fill="#022F54"/>
</svg>
