<svg width="100" height="100" viewBox="0 0 100 100" fill="none" xmlns="http://www.w3.org/2000/svg">
<g id="iconoir:book-stack">
<g id="Group">
<path id="Vector" d="M20.8333 81.25V20.8333C20.8333 18.6232 21.7112 16.5036 23.274 14.9408C24.8368 13.378 26.9564 12.5 29.1666 12.5H76.6666C77.3296 12.5 77.9655 12.7634 78.4344 13.2322C78.9032 13.7011 79.1666 14.337 79.1666 15V87.5H27.0833M37.4999 29.1667H62.4999M27.0833 62.5H79.1666M27.0833 75H79.1666" stroke="#FBFBFB" stroke-width="6.25" stroke-linecap="round"/>
<path id="Vector_2" d="M27.0833 62.5C22.9166 62.5 20.8333 65.3 20.8333 68.75C20.8333 72.2 22.9166 75 27.0833 75C22.9166 75 20.8333 77.8 20.8333 81.25C20.8333 84.7 22.9166 87.5 27.0833 87.5" stroke="#FBFBFB" stroke-width="6.25" stroke-linecap="round" stroke-linejoin="round"/>
</g>
</g>
</svg>
