<svg width="75" height="74" viewBox="0 0 75 74" fill="none" xmlns="http://www.w3.org/2000/svg">
<path d="M75 60.9473L36.3986 70.8933L36.2288 70.9374L25.8684 73.6064L23.9866 67.9526L23.93 67.7931L22.0022 61.9932L21.9458 61.8336L19.8834 55.6365L19.8304 55.4736L17.9097 49.7146L17.8567 49.5549L15.8405 43.5038L15.7874 43.3409L13.8208 37.4392L13.7678 37.2728L11.801 31.3711L11.7444 31.2082L9.75294 25.2284L9.69988 25.0687L7.87469 19.5881L7.8218 19.4252L6 13.9582L17.3687 11.0413H17.372L17.5419 10.9972L58.0215 0.606445L59.309 5.17701L59.3549 5.34333L60.9148 10.8953L60.9608 11.0582L62.6658 17.1162L62.7117 17.2791L64.3955 23.2656L64.4415 23.4287L66.1251 29.4118L66.1746 29.5783L67.8972 35.7041L67.9432 35.8704L69.5844 41.7041L69.6306 41.8706L71.3991 48.1491L71.4451 48.3155L73.097 54.1867L73.1429 54.3496L75 60.9473Z" fill="#FFAE00"/>
<path d="M36 70.5623L35.8304 70.6064L33.9866 64.7397L33.9372 64.5765L32.104 58.7471L32.0544 58.584L30.0977 52.3535L30.0447 52.1903L28.2255 46.3983L28.176 46.2353L26.2652 40.1509L26.2122 39.9878L24.3471 34.0496L24.2977 33.8865L22.4327 27.9483L22.3797 27.7852L20.4934 21.7722L20.4404 21.6126L18.7097 16.1026L18.6603 15.9395L17 10.6506L17.1696 10.6064L18.8297 15.892L18.8827 16.055L20.6101 21.5648H20.6136L20.6631 21.7247L22.5492 27.7377H22.5527L22.6022 27.9007L24.4673 33.8388L24.5203 34.0055L26.3852 39.9401L26.4347 40.1033L28.3457 46.1877L28.3951 46.3508L30.2177 52.1427L30.2672 52.306L32.224 58.5364L32.277 58.6995L34.1068 64.5289L34.1562 64.6922L36 70.5623Z" fill="#7182FF"/>
<path d="M59.2798 4.776L19.3794 16.0895L19.207 16.1379L8.05263 19.2987L8 19.1326L19.1577 15.9719L19.3266 15.9234L59.2341 4.60645L59.2798 4.776ZM60.8777 10.6024L21.1534 21.864L20.9844 21.9124L9.92164 25.0489L9.86884 24.8861L20.9316 21.7498L21.1006 21.7012H21.1042L60.832 10.4363L60.8777 10.6024ZM62.6201 16.9446L23.0857 28.1542L22.9169 28.2027L11.9597 31.3115L11.9033 31.1454L22.8641 28.0366L23.0329 27.9881H23.0364L62.5743 16.7785L62.6201 16.9446ZM64.3413 23.2141L24.9971 34.3718L24.8245 34.4168L13.9695 37.4979L13.9167 37.3283L24.7752 34.2507L24.9443 34.2021L64.2956 23.0479L64.3413 23.2141ZM66.0659 29.4836L26.9047 40.5824L26.7358 40.6309L15.9792 43.6808L15.9264 43.5147L26.6831 40.4648L26.8554 40.4162L66.0167 29.3139L66.0659 29.4836ZM67.8258 35.8985L28.8582 46.9454L28.6892 46.9938L18.0384 50.0127L17.9856 49.8499L28.6399 46.8278L28.809 46.7793L67.7801 35.729L67.8258 35.8985ZM69.5049 42.0157L30.7237 53.0107L30.5548 53.0591L20.0023 56.0501L19.9495 55.884L30.502 52.8929L30.6744 52.8444L69.459 41.846L69.5049 42.0157ZM71.3105 48.5864L32.7265 59.5224L32.5541 59.5709L22.1107 62.5309L22.0545 62.3681L32.5047 59.4048L32.6737 59.3564L71.2648 48.4167L71.3105 48.5864ZM73 54.7381L34.599 65.6259L34.43 65.6743L24.0853 68.6064L24.029 68.4438L34.3808 65.5081L34.5498 65.4596L72.9543 54.572L73 54.7381Z" fill="white"/>
<path d="M34.8108 54.837C41.2191 48.5641 41.2189 38.3939 34.8104 32.1213C28.4018 25.8486 18.0117 25.8488 11.6033 32.1217C5.19498 38.3946 5.19516 48.5647 11.6037 54.8374C18.0123 61.1101 28.4024 61.1099 34.8108 54.837Z" fill="#7182FF"/>
<path d="M36.0908 53.9488C42.4991 47.6759 42.499 37.5058 36.0904 31.2331C29.6818 24.9604 19.2917 24.9606 12.8833 31.2335C6.47501 37.5064 6.47519 47.6766 12.8838 53.9492C19.2923 60.2219 29.6825 60.2217 36.0908 53.9488Z" fill="#FFE4AA"/>
<path d="M27.9972 13.3135L31.7041 14.0229L29.1379 16.9327L28.4654 20.8431L25.707 18.1361L22 17.4267L24.5662 14.5169L25.2389 10.6064L27.9972 13.3135ZM66.293 40.0768L70 40.7862L67.4338 43.6961L66.7612 47.6064L64.0029 44.8994L60.2959 44.1899L62.8621 41.2802L63.5346 37.3697L66.293 40.0768Z" fill="#055EA8"/>
<path d="M21.0854 33.6064H19.5C18.6716 33.6064 18 34.278 18 35.1064V47.1064C18 47.9349 18.6716 48.6064 19.5 48.6064H28.5C29.3284 48.6064 30 47.9349 30 47.1064V35.1064C30 34.278 29.3284 33.6064 28.5 33.6064H26.9146C26.7087 33.0238 26.1531 32.6064 25.5 32.6064H22.5C21.8469 32.6064 21.2913 33.0238 21.0854 33.6064ZM22.5 33.6064H25.5C25.7761 33.6064 26 33.8303 26 34.1064C26 34.3826 25.7761 34.6064 25.5 34.6064H22.5C22.2239 34.6064 22 34.3826 22 34.1064C22 33.8303 22.2239 33.6064 22.5 33.6064ZM23 39.1064C23 38.8303 23.2239 38.6064 23.5 38.6064H27C27.2761 38.6064 27.5 38.8303 27.5 39.1064C27.5 39.3826 27.2761 39.6064 27 39.6064H23.5C23.2239 39.6064 23 39.3826 23 39.1064ZM23 42.1064C23 41.8303 23.2239 41.6064 23.5 41.6064H27C27.2761 41.6064 27.5 41.8303 27.5 42.1064C27.5 42.3826 27.2761 42.6064 27 42.6064H23.5C23.2239 42.6064 23 42.3826 23 42.1064ZM23 45.1064C23 44.8303 23.2239 44.6064 23.5 44.6064H27C27.2761 44.6064 27.5 44.8303 27.5 45.1064C27.5 45.3826 27.2761 45.6064 27 45.6064H23.5C23.2239 45.6064 23 45.3826 23 45.1064ZM22 39.1064C22 39.5207 21.6642 39.8564 21.25 39.8564C20.8358 39.8564 20.5 39.5207 20.5 39.1064C20.5 38.6922 20.8358 38.3564 21.25 38.3564C21.6642 38.3564 22 38.6922 22 39.1064ZM22 42.1064C22 42.5207 21.6642 42.8564 21.25 42.8564C20.8358 42.8564 20.5 42.5207 20.5 42.1064C20.5 41.6922 20.8358 41.3564 21.25 41.3564C21.6642 41.3564 22 41.6922 22 42.1064ZM21.25 45.8564C20.8358 45.8564 20.5 45.5207 20.5 45.1064C20.5 44.6922 20.8358 44.3564 21.25 44.3564C21.6642 44.3564 22 44.6922 22 45.1064C22 45.5207 21.6642 45.8564 21.25 45.8564Z" fill="#055EA8"/>
</svg>
