<svg width="19" height="23" viewBox="0 0 19 23" fill="none" xmlns="http://www.w3.org/2000/svg">
<g id="&#240;&#159;&#166;&#134; icon &#34;trash&#34;">
<g id="Group">
<path id="Vector" d="M18.1197 5.68643C18.101 5.68643 18.0728 5.68643 18.0446 5.68643C13.0779 5.13649 8.12058 4.92897 3.21017 5.47891L1.29484 5.68643C0.90051 5.72794 0.553122 5.41665 0.515566 4.98085C0.478011 4.54504 0.759677 4.1715 1.14462 4.12999L3.05995 3.92247C8.05486 3.36215 13.1155 3.58005 18.1855 4.12999C18.5704 4.1715 18.8521 4.55542 18.8145 4.98085C18.7863 5.38552 18.4765 5.68643 18.1197 5.68643Z" fill="#393C42"/>
<path id="Vector_2" d="M6.38455 4.63819C6.34699 4.63819 6.30944 4.63819 6.26249 4.62782C5.88694 4.55518 5.62405 4.15051 5.68977 3.73546L5.89633 2.37617C6.04655 1.38004 6.25311 0 8.44068 0H10.9006C13.0976 0 13.3041 1.43193 13.4449 2.38654L13.6515 3.73546C13.7172 4.16088 13.4543 4.56556 13.0788 4.62782C12.6938 4.70045 12.3277 4.40991 12.2713 3.99486L12.0648 2.64595C11.9333 1.74321 11.9052 1.56682 10.91 1.56682H8.45007C7.45488 1.56682 7.4361 1.71208 7.29527 2.63557L7.07933 3.98449C7.02299 4.36841 6.72255 4.63819 6.38455 4.63819Z" fill="#393C42"/>
<path id="Vector_3" d="M12.6844 22.3092H6.65675C3.38003 22.3092 3.24859 20.3066 3.14531 18.6879L2.53503 8.239C2.50687 7.81357 2.80731 7.44004 3.19225 7.40891C3.58659 7.38816 3.9152 7.70982 3.94336 8.13525L4.55364 18.5842C4.65692 20.1614 4.69447 20.7528 6.65675 20.7528H12.6844C14.6561 20.7528 14.6936 20.1614 14.7875 18.5842L15.3978 8.13525C15.426 7.70982 15.764 7.38816 16.1489 7.40891C16.5339 7.44004 16.8343 7.8032 16.8061 8.239L16.1959 18.6879C16.0926 20.3066 15.9611 22.3092 12.6844 22.3092Z" fill="#393C42"/>
<path id="Vector_4" d="M11.2291 16.6019H8.10262C7.71766 16.6019 7.39844 16.2491 7.39844 15.8236C7.39844 15.3982 7.71766 15.0454 8.10262 15.0454H11.2291C11.6141 15.0454 11.9333 15.3982 11.9333 15.8236C11.9333 16.2491 11.6141 16.6019 11.2291 16.6019Z" fill="#393C42"/>
<path id="Vector_5" d="M12.0173 12.4515H7.32282C6.93787 12.4515 6.61865 12.0987 6.61865 11.6732C6.61865 11.2478 6.93787 10.895 7.32282 10.895H12.0173C12.4022 10.895 12.7214 11.2478 12.7214 11.6732C12.7214 12.0987 12.4022 12.4515 12.0173 12.4515Z" fill="#393C42"/>
</g>
</g>
</svg>
