<svg width="16" height="16" viewBox="0 0 13 15" fill="none" xmlns="http://www.w3.org/2000/svg">
<path d="M6.49996 7.79175C7.84383 7.79175 8.93746 6.614 8.93746 5.16675C8.93746 3.7195 7.84383 2.54175 6.49996 2.54175C5.15608 2.54175 4.06246 3.7195 4.06246 5.16675C4.06246 6.614 5.15608 7.79175 6.49996 7.79175ZM6.49996 3.12508C7.54538 3.12508 8.39579 4.04091 8.39579 5.16675C8.39579 6.29258 7.54538 7.20841 6.49996 7.20841C5.45454 7.20841 4.60413 6.29258 4.60413 5.16675C4.60413 4.04091 5.45454 3.12508 6.49996 3.12508ZM10.0208 10.6501V11.1552C10.0208 11.6015 9.86967 12.0297 9.59451 12.361C9.54034 12.4252 9.46668 12.4584 9.39247 12.4584C9.32801 12.4584 9.26355 12.4339 9.21209 12.3843C9.10051 12.277 9.09074 12.0927 9.19041 11.9725C9.37674 11.7485 9.47913 11.4586 9.47913 11.1558V10.6501C9.47913 9.85499 8.9889 9.16667 8.28636 8.9765C8.14986 8.93858 8.00255 8.95958 7.88338 9.03308C7.02538 9.54699 5.97237 9.54525 5.11924 9.03425C4.99737 8.95958 4.85168 8.938 4.71356 8.97591C4.01101 9.16608 3.52079 9.85441 3.52079 10.6495V11.1547C3.52079 11.4574 3.62318 11.7473 3.80951 11.9713C3.90918 12.0915 3.89941 12.2758 3.78782 12.3831C3.67732 12.4899 3.50562 12.4806 3.40541 12.3604C3.13024 12.0291 2.97913 11.6009 2.97913 11.1547V10.6501C2.97913 9.58724 3.63834 8.66617 4.58138 8.41067C4.8533 8.33658 5.14526 8.37917 5.38522 8.52617C6.07205 8.938 6.92517 8.93916 7.61688 8.52499C7.85413 8.37916 8.14718 8.33775 8.41801 8.41125C9.36159 8.66617 10.0208 9.58724 10.0208 10.6501ZM9.4943 2.83575C9.54467 2.6835 9.69904 2.60592 9.84041 2.65783C10.5966 2.94542 11.1041 3.7195 11.1041 4.58341C11.1041 5.16383 10.8739 5.718 10.472 6.10475C10.4205 6.15433 10.3561 6.17882 10.2916 6.17882C10.2174 6.17882 10.1432 6.14616 10.0896 6.08141C9.98992 5.96124 9.99966 5.77691 10.1112 5.66958C10.3978 5.39308 10.5625 4.99699 10.5625 4.58283C10.5625 3.96566 10.1995 3.41325 9.6595 3.20791C9.51867 3.15425 9.44501 2.98741 9.4943 2.83575ZM11.6458 9.15267V9.57383C11.6458 9.73483 11.5245 9.86549 11.375 9.86549C11.2255 9.86549 11.1041 9.73483 11.1041 9.57383V9.15267C11.1041 8.51217 10.7093 7.958 10.1443 7.80517C9.99914 7.76609 9.91137 7.60741 9.94766 7.45166C9.9845 7.29533 10.1291 7.19966 10.2765 7.23991C11.0825 7.45749 11.6458 8.24442 11.6458 9.15267ZM2.52791 6.36375C2.12654 5.97642 1.89579 5.42225 1.89579 4.84241C1.89579 3.9785 2.40388 3.20442 3.15951 2.91683C3.30088 2.86433 3.4547 2.9425 3.50562 3.09475C3.55545 3.24641 3.48125 3.41325 3.34041 3.46691C2.80037 3.67225 2.43746 4.22466 2.43746 4.84183C2.43746 5.25599 2.60213 5.65208 2.88867 5.92858C3.00026 6.03591 3.00999 6.22024 2.91033 6.34041C2.85616 6.40458 2.7825 6.43782 2.70829 6.43782C2.64383 6.43841 2.57937 6.41392 2.52791 6.36375ZM2.85561 8.06474C2.29065 8.21757 1.89579 8.77176 1.89579 9.41226V9.83341C1.89579 9.99441 1.77446 10.1251 1.62496 10.1251C1.47546 10.1251 1.35413 9.99441 1.35413 9.83341V9.41226C1.35413 8.50401 1.91747 7.71707 2.72347 7.49891C2.86972 7.45924 3.01542 7.55491 3.05226 7.71066C3.08855 7.86699 3.00078 8.02507 2.85561 8.06474Z" fill="#022F54"/>
</svg>
