<svg width="19" height="23" viewBox="0 0 19 23" fill="none" xmlns="http://www.w3.org/2000/svg">
<path d="M16.9999 20.325H1.13902C0.838555 20.325 0.550392 20.4416 0.337929 20.6492C0.125465 20.8569 0.00610352 21.1385 0.00610352 21.4321C0.00610352 21.7258 0.125465 22.0074 0.337929 22.215C0.550392 22.4226 0.838555 22.5393 1.13902 22.5393H16.9999C17.3004 22.5393 17.5885 22.4226 17.801 22.215C18.0135 22.0074 18.1328 21.7258 18.1328 21.4321C18.1328 21.1385 18.0135 20.8569 17.801 20.6492C17.5885 20.4416 17.3004 20.325 16.9999 20.325Z" fill="#055EA8"/>
<path d="M1.13768 18.1113H1.23965L5.96392 17.6905C6.48144 17.6401 6.96547 17.4173 7.33476 17.0594L17.531 7.09489C17.9268 6.68631 18.1407 6.14107 18.1258 5.57866C18.1109 5.01625 17.8685 4.48253 17.4517 4.09446L14.3475 1.0608C13.9424 0.688899 13.4115 0.475506 12.8559 0.461216C12.3002 0.446926 11.7586 0.632736 11.334 0.983301L1.13768 10.9479C0.771483 11.3087 0.54347 11.7818 0.491917 12.2875L0.00476161 16.9044C-0.0105 17.0666 0.0110316 17.2301 0.0678213 17.3832C0.124611 17.5363 0.215261 17.6752 0.333309 17.7902C0.439169 17.8928 0.564715 17.974 0.702747 18.0291C0.840779 18.0842 0.988582 18.1121 1.13768 18.1113ZM12.7728 2.61084L15.8656 5.63342L13.5998 7.79241L10.5636 4.82519L12.7728 2.61084ZM2.68978 12.4757L9.06813 6.28666L12.127 9.27602L5.78266 15.4762L2.38389 15.7862L2.68978 12.4757Z" fill="#055EA8"/>
</svg>
