<svg width="40" height="42" viewBox="0 0 40 42" fill="none" xmlns="http://www.w3.org/2000/svg">
<g id="&#240;&#159;&#166;&#134; icon &#34;google&#34;">
<path id="Vector" d="M39.611 16.6962H38V16.6101H20V24.9151H31.303C29.654 29.7497 25.223 33.2201 20 33.2201C13.373 33.2201 8 27.6423 8 20.7626C8 13.8829 13.373 8.30503 20 8.30503C23.059 8.30503 25.842 9.50303 27.961 11.4599L33.618 5.58721C30.046 2.13128 25.268 0 20 0C8.955 0 0 9.29644 0 20.7626C0 32.2287 8.955 41.5251 20 41.5251C31.045 41.5251 40 32.2287 40 20.7626C40 19.3704 39.862 18.0115 39.611 16.6962Z" fill="#FFC107"/>
<path id="Vector_2" d="M2.30612 11.0986L8.87712 16.1014C10.6551 11.5315 14.9611 8.30503 20.0001 8.30503C23.0591 8.30503 25.8421 9.50303 27.9611 11.4599L33.6181 5.58721C30.0461 2.13128 25.2681 0 20.0001 0C12.3181 0 5.65612 4.50236 2.30612 11.0986Z" fill="#FF3D00"/>
<path id="Vector_3" d="M20 41.5252C25.166 41.5252 29.86 39.4728 33.409 36.1352L27.219 30.6975C25.211 32.2765 22.715 33.2202 20 33.2202C14.798 33.2202 10.381 29.7767 8.71704 24.9712L2.19504 30.1878C5.50504 36.9117 12.227 41.5252 20 41.5252Z" fill="#4CAF50"/>
<path id="Vector_4" d="M39.611 16.696H38V16.6099H20V24.9149H31.303C30.511 27.2372 29.072 29.2397 27.216 30.6983C27.217 30.6973 27.218 30.6973 27.219 30.6962L33.409 36.1339C32.971 36.5471 40 31.1437 40 20.7624C40 19.3702 39.862 18.0113 39.611 16.696Z" fill="#1976D2"/>
</g>
</svg>
