<svg width="29" height="31" viewBox="0 0 29 31" fill="none" xmlns="http://www.w3.org/2000/svg">
<g id="Group 105">
<g id="&#240;&#159;&#166;&#134; icon &#34;archive book&#34;">
<g id="Group">
<path id="Vector" d="M20.5157 30.6064H8.71155C3.32589 30.6064 0.227295 27.6709 0.227295 22.5687V8.59C0.227295 3.48777 3.32589 0.552246 8.71155 0.552246H20.5157C25.9014 0.552246 29 3.48777 29 8.59V22.5687C29 27.6709 25.9014 30.6064 20.5157 30.6064ZM8.71155 2.64905C4.49156 2.64905 2.44058 4.59209 2.44058 8.59V22.5687C2.44058 26.5666 4.49156 28.5096 8.71155 28.5096H20.5157C24.7357 28.5096 26.7867 26.5666 26.7867 22.5687V8.59C26.7867 4.59209 24.7357 2.64905 20.5157 2.64905H8.71155Z" fill="#34BD32"/>
<path id="Vector_2" d="M10.1874 14.3352C9.93658 14.3352 9.68574 14.2933 9.44966 14.1955C8.77092 13.9159 8.34302 13.2868 8.34302 12.6019V1.60065C8.34302 1.02752 8.8447 0.552246 9.44966 0.552246H19.7783C20.3833 0.552246 20.885 1.02752 20.885 1.60065V12.5879C20.885 13.2868 20.4571 13.9159 19.7783 14.1815C19.1143 14.4611 18.3323 14.3352 17.7864 13.86L14.614 11.1061L11.4416 13.8739C11.0875 14.1815 10.6448 14.3352 10.1874 14.3352ZM14.614 8.88358C15.0566 8.88358 15.5141 9.03729 15.8682 9.34482L18.6717 11.7911V2.64905H10.5563V11.7911L13.3598 9.34482C13.7139 9.03729 14.1713 8.88358 14.614 8.88358Z" fill="#34BD32"/>
<path id="Vector_3" d="M22.7292 19.4242H16.4582C15.8532 19.4242 15.3516 18.9489 15.3516 18.3758C15.3516 17.8027 15.8532 17.3274 16.4582 17.3274H22.7292C23.3341 17.3274 23.8358 17.8027 23.8358 18.3758C23.8358 18.9489 23.3341 19.4242 22.7292 19.4242Z" fill="#34BD32"/>
<path id="Vector_4" d="M22.7287 25.0153H10.1867C9.58176 25.0153 9.08008 24.54 9.08008 23.9669C9.08008 23.3937 9.58176 22.9185 10.1867 22.9185H22.7287C23.3336 22.9185 23.8353 23.3937 23.8353 23.9669C23.8353 24.54 23.3336 25.0153 22.7287 25.0153Z" fill="#34BD32"/>
</g>
</g>
</g>
</svg>
