<svg width="76" height="74" viewBox="0 0 76 74" fill="none" xmlns="http://www.w3.org/2000/svg">
<path d="M75.5 60.9473L36.8986 70.8933L36.7288 70.9374L26.3684 73.6064L24.4866 67.9526L24.43 67.7931L22.5022 61.9932L22.4458 61.8336L20.3834 55.6365L20.3304 55.4736L18.4097 49.7146L18.3567 49.5549L16.3405 43.5038L16.2874 43.3409L14.3208 37.4392L14.2678 37.2728L12.301 31.3711L12.2444 31.2082L10.2529 25.2284L10.1999 25.0687L8.37469 19.5881L8.3218 19.4252L6.5 13.9582L17.8687 11.0413H17.872L18.0419 10.9972L58.5215 0.606445L59.809 5.17701L59.8549 5.34333L61.4148 10.8953L61.4608 11.0582L63.1658 17.1162L63.2117 17.2791L64.8955 23.2656L64.9415 23.4287L66.6251 29.4118L66.6746 29.5783L68.3972 35.7041L68.4432 35.8704L70.0844 41.7041L70.1306 41.8706L71.8991 48.1491L71.9451 48.3155L73.597 54.1867L73.6429 54.3496L75.5 60.9473Z" fill="#FFAE00"/>
<path d="M36.5 70.5623L36.3304 70.6064L34.4866 64.7397L34.4372 64.5765L32.604 58.7471L32.5544 58.584L30.5977 52.3535L30.5447 52.1903L28.7255 46.3983L28.676 46.2353L26.7652 40.1509L26.7122 39.9878L24.8471 34.0496L24.7977 33.8865L22.9327 27.9483L22.8797 27.7852L20.9934 21.7722L20.9404 21.6126L19.2097 16.1026L19.1603 15.9395L17.5 10.6506L17.6696 10.6064L19.3297 15.892L19.3827 16.055L21.1101 21.5648H21.1136L21.1631 21.7247L23.0492 27.7377H23.0527L23.1022 27.9007L24.9673 33.8388L25.0203 34.0055L26.8852 39.9401L26.9347 40.1033L28.8457 46.1877L28.8951 46.3508L30.7177 52.1427L30.7672 52.306L32.724 58.5364L32.777 58.6995L34.6068 64.5289L34.6562 64.6922L36.5 70.5623Z" fill="#7182FF"/>
<path d="M59.7798 4.776L19.8794 16.0895L19.707 16.1379L8.55263 19.2987L8.5 19.1326L19.6577 15.9719L19.8266 15.9234L59.7341 4.60645L59.7798 4.776ZM61.3777 10.6024L21.6534 21.864L21.4844 21.9124L10.4216 25.0489L10.3688 24.8861L21.4316 21.7498L21.6006 21.7012H21.6042L61.332 10.4363L61.3777 10.6024ZM63.1201 16.9446L23.5857 28.1542L23.4169 28.2027L12.4597 31.3115L12.4033 31.1454L23.3641 28.0366L23.5329 27.9881H23.5364L63.0743 16.7785L63.1201 16.9446ZM64.8413 23.2141L25.4971 34.3718L25.3245 34.4168L14.4695 37.4979L14.4167 37.3283L25.2752 34.2507L25.4443 34.2021L64.7956 23.0479L64.8413 23.2141ZM66.5659 29.4836L27.4047 40.5824L27.2358 40.6309L16.4792 43.6808L16.4264 43.5147L27.1831 40.4648L27.3554 40.4162L66.5167 29.3139L66.5659 29.4836ZM68.3258 35.8985L29.3582 46.9454L29.1892 46.9938L18.5384 50.0127L18.4856 49.8499L29.1399 46.8278L29.309 46.7793L68.2801 35.729L68.3258 35.8985ZM70.0049 42.0157L31.2237 53.0107L31.0548 53.0591L20.5023 56.0501L20.4495 55.884L31.002 52.8929L31.1744 52.8444L69.959 41.846L70.0049 42.0157ZM71.8105 48.5864L33.2265 59.5224L33.0541 59.5709L22.6107 62.5309L22.5545 62.3681L33.0047 59.4048L33.1737 59.3564L71.7648 48.4167L71.8105 48.5864ZM73.5 54.7381L35.099 65.6259L34.93 65.6743L24.5853 68.6064L24.529 68.4438L34.8808 65.5081L35.0498 65.4596L73.4543 54.572L73.5 54.7381Z" fill="white"/>
<path d="M35.3108 54.837C41.7191 48.5641 41.7189 38.3939 35.3104 32.1213C28.9018 25.8486 18.5117 25.8488 12.1033 32.1217C5.69498 38.3946 5.69516 48.5647 12.1037 54.8374C18.5123 61.1101 28.9024 61.1099 35.3108 54.837Z" fill="#7182FF"/>
<path d="M36.5908 53.9488C42.9991 47.6759 42.999 37.5058 36.5904 31.2331C30.1818 24.9604 19.7917 24.9606 13.3833 31.2335C6.97501 37.5064 6.97519 47.6766 13.3838 53.9492C19.7923 60.2219 30.1825 60.2217 36.5908 53.9488Z" fill="#FFE4AA"/>
<path d="M28.4972 13.3135L32.2041 14.0229L29.6379 16.9327L28.9654 20.8431L26.207 18.1361L22.5 17.4267L25.0662 14.5169L25.7389 10.6064L28.4972 13.3135ZM66.793 40.0768L70.5 40.7862L67.9338 43.6961L67.2612 47.6064L64.5029 44.8994L60.7959 44.1899L63.3621 41.2802L64.0346 37.3697L66.793 40.0768Z" fill="#055EA8"/>
<path d="M21 36.6064C19.6193 36.6064 18.5 37.7257 18.5 39.1064V46.1064C18.5 47.4872 19.6193 48.6064 21 48.6064H30C31.3807 48.6064 32.5 47.4872 32.5 46.1064V39.1064C32.5 37.7257 31.3807 36.6064 30 36.6064H21ZM23.5 40.3622C23.5 39.7603 24.1734 39.4036 24.6714 39.7418L28.2817 42.1936C28.5736 42.3918 28.5739 42.8219 28.2822 43.0205L24.6721 45.4784C24.1742 45.8174 23.5 45.4608 23.5 44.8585V40.3622ZM23.0002 50.6066C22.1823 50.6066 21.4561 50.2139 21 49.6066H30.5002C32.157 49.6066 33.5002 48.2635 33.5002 46.6066V39.1064C34.1074 39.5625 34.5002 40.2887 34.5002 41.1066V46.6066C34.5002 48.8158 32.7093 50.6066 30.5002 50.6066H23.0002Z" fill="#055EA8"/>
</svg>
