<svg width="90" height="60" viewBox="0 0 84 81" fill="none" xmlns="http://www.w3.org/2000/svg">
<path d="M8.64382 69.7703C6.02475 69.7703 3.89404 67.5804 3.89404 64.8885V20.6696C3.89404 17.9777 6.02475 15.7878 8.64382 15.7878H75.3565C77.9756 15.7878 80.1063 17.9777 80.1063 20.6696V64.8885C80.1063 67.5804 77.9756 69.7703 75.3565 69.7703H8.64382Z" fill="#CECECE"/>
<path d="M75.3564 15.7878H70.2583C72.877 15.7878 75.0081 17.9777 75.0081 20.6696V64.8885C75.0081 67.58 72.8774 69.7703 70.2583 69.7703H75.3564C77.9754 69.7703 80.1061 67.5804 80.1061 64.8885V20.6696C80.1061 17.9781 77.9754 15.7878 75.3564 15.7878Z" fill="#E2E2E2"/>
<path d="M8.64382 15.7878H13.7419C11.1232 15.7878 8.9921 17.9777 8.9921 20.6696V64.8885C8.9921 67.58 11.1228 69.7703 13.7419 69.7703H8.64382C6.02475 69.7703 3.89404 67.5804 3.89404 64.8885V20.6696C3.89404 17.9781 6.02475 15.7878 8.64382 15.7878Z" fill="#AFAFAF"/>
<path d="M77.1828 20.6783V64.8801C77.1828 65.9219 76.3611 66.7664 75.3476 66.7664H8.65191C7.63835 66.7664 6.81665 65.9219 6.81665 64.8801V20.6783C6.81665 19.6366 7.63835 18.7921 8.65191 18.7921H75.3476C76.3611 18.7921 77.1828 19.6366 77.1828 20.6783Z" fill="#63BCE7"/>
<path d="M75.3478 18.7921H70.2498C71.2633 18.7921 72.085 19.6366 72.085 20.6783V64.8801C72.085 65.9219 71.2633 66.7664 70.2498 66.7664H75.3478C76.3614 66.7664 77.1831 65.9219 77.1831 64.8801V20.6783C77.1831 19.6366 76.3614 18.7921 75.3478 18.7921Z" fill="#63E2E7"/>
<path d="M8.65191 18.7921H13.75C12.7364 18.7921 11.9147 19.6366 11.9147 20.6783V64.8801C11.9147 65.9219 12.7364 66.7664 13.75 66.7664H8.65191C7.63835 66.7664 6.81665 65.9219 6.81665 64.8801V20.6783C6.81665 19.6366 7.63835 18.7921 8.65191 18.7921Z" fill="#6377E7"/>
<path d="M42.0001 69.7703H0.521484L1.58267 72.2796C2.53888 74.5407 4.70921 76.0032 7.10791 76.0032H42.0001H76.8926C79.2913 76.0032 81.4616 74.5407 82.4178 72.2796L83.479 69.7703H42.0001Z" fill="#CECECE"/>
<path d="M78.3804 69.7703L77.3192 72.2796C76.363 74.5407 74.1926 76.0032 71.7939 76.0032H76.892C79.2907 76.0032 81.461 74.5407 82.4172 72.2796L83.4784 69.7703H78.3804Z" fill="#E2E2E2"/>
<path d="M5.61881 69.7703L6.67999 72.2796C7.6362 74.5407 9.80654 76.0032 12.2052 76.0032H7.10718C4.70848 76.0032 2.53815 74.5407 1.58193 72.2796L0.520752 69.7703H5.61881Z" fill="#AFAFAF"/>
<path d="M26.1646 69.7703L27.6314 71.6952C28.2045 72.4475 29.0825 72.887 30.0123 72.887H53.9871C54.9169 72.887 55.7949 72.4475 56.3681 71.6952L57.8353 69.7703H26.1646Z" fill="#707070"/>
<path d="M56.2115 61.0744C62.8357 61.0744 68.2057 55.5551 68.2057 48.7468C68.2057 41.9384 62.8357 36.4191 56.2115 36.4191C49.5873 36.4191 44.2173 41.9384 44.2173 48.7468C44.2173 55.5551 49.5873 61.0744 56.2115 61.0744Z" fill="#CECECE"/>
<path d="M27.7886 61.0744C34.4128 61.0744 39.7828 55.5551 39.7828 48.7468C39.7828 41.9384 34.4128 36.4191 27.7886 36.4191C21.1644 36.4191 15.7944 41.9384 15.7944 48.7468C15.7944 55.5551 21.1644 61.0744 27.7886 61.0744Z" fill="#F8AF23"/>
<path d="M32.9356 55.8234H22.6408C21.6811 55.8234 20.9028 55.0236 20.9028 54.0372V43.4562C20.9028 42.4698 21.6811 41.6699 22.6408 41.6699H32.9356C33.8953 41.6699 34.6735 42.4698 34.6735 43.4562V54.0372C34.6735 55.0239 33.8953 55.8234 32.9356 55.8234Z" fill="#CECECE"/>
<path d="M61.3587 55.8419H51.0639C50.1042 55.8419 49.3259 55.0421 49.3259 54.0557V43.4747C49.3259 42.4883 50.1042 41.6884 51.0639 41.6884H61.3587C62.3184 41.6884 63.0966 42.4883 63.0966 43.4747V54.0557C63.0966 55.0424 62.3184 55.8419 61.3587 55.8419Z" fill="#F46275"/>
<path d="M41.9999 36.7467C51.6053 36.7467 59.3921 28.7435 59.3921 18.871C59.3921 8.99853 51.6053 0.995308 41.9999 0.995308C32.3944 0.995308 24.6077 8.99853 24.6077 18.871C24.6077 28.7435 32.3944 36.7467 41.9999 36.7467Z" fill="#CECECE"/>
<path d="M29.7057 18.871C29.7057 9.88868 36.1521 2.4561 44.5487 1.18822C43.7166 1.06247 42.8661 0.995308 41.9999 0.995308C32.3943 0.995308 24.6077 8.99841 24.6077 18.871C24.6077 28.7432 32.3943 36.7467 41.9999 36.7467C42.8661 36.7467 43.7166 36.6796 44.5487 36.5538C36.1521 35.2859 29.7057 27.8533 29.7057 18.871Z" fill="#AFAFAF"/>
<path d="M50.5844 22.0074C52.5052 22.0074 54.0624 20.4069 54.0624 18.4327C54.0624 16.4585 52.5052 14.8581 50.5844 14.8581C48.6636 14.8581 47.1064 16.4585 47.1064 18.4327C47.1064 20.4069 48.6636 22.0074 50.5844 22.0074Z" fill="#F8AF23"/>
<path d="M47.3318 26.8345L39.1973 22.4471V14.4147L47.3318 10.027V26.8345Z" fill="#F8AF23"/>
<path d="M47.3318 10.027H50.5842V26.8345H47.3318V10.027Z" fill="#F46275"/>
<path d="M32.356 14.4146H39.1975V22.4506H32.356V14.4146Z" fill="#CECECE"/>
<path d="M28.2637 16.421H32.3555V20.4407H28.2637V16.421Z" fill="#F46275"/>
<path d="M34.2671 22.4501H37.2848V28.7363H34.2671V22.4501Z" fill="#CECECE"/>
<path d="M82.8955 72.4934L83.9567 69.9845C84.0269 69.8187 84.0109 69.6279 83.9146 69.4768C83.8184 69.326 83.6543 69.2349 83.4788 69.2349H78.4902C79.7839 68.2468 80.6275 66.6692 80.6275 64.889V20.6697C80.6275 17.6824 78.2629 15.252 75.3564 15.252H59.5641C57.9235 6.82699 50.6725 0.459373 42.0002 0.459373C33.3279 0.459373 26.0765 6.82735 24.4359 15.252H8.64364C5.73712 15.252 3.37249 17.6824 3.37249 20.6697V64.8886C3.37249 66.6688 4.21608 68.2464 5.5098 69.2346H0.521232C0.3457 69.2346 0.181639 69.3257 0.0853578 69.4768C-0.0109238 69.6276 -0.0269129 69.8187 0.0432996 69.9841L1.10448 72.4931C1.63177 73.7402 2.49935 74.762 3.5654 75.4672H0.748206C0.460056 75.4672 0.226826 75.7069 0.226826 76.003C0.226826 76.2992 0.460056 76.5389 0.748206 76.5389H7.10731H76.8923H83.2514C83.5396 76.5389 83.7728 76.2992 83.7728 76.003C83.7728 75.7069 83.5396 75.4672 83.2514 75.4672H80.4346C81.501 74.7623 82.3682 73.7406 82.8955 72.4934ZM75.3477 19.3279C76.072 19.3279 76.6615 19.9338 76.6615 20.6783V64.8801C76.6615 65.6246 76.072 66.2305 75.3477 66.2305H8.65199C7.92761 66.2305 7.33811 65.6246 7.33811 64.8801V20.6783C7.33811 19.9338 7.92761 19.3279 8.65199 19.3279H24.0977C24.3351 29.2691 32.2716 37.2825 41.9998 37.2825C51.7281 37.2825 59.6645 29.2691 59.9019 19.3279H75.3477ZM41.9998 1.53148C51.3023 1.53148 58.8707 9.30988 58.8707 18.8713C58.8707 28.4327 51.3023 36.2108 41.9998 36.2108C32.6974 36.2108 25.129 28.432 25.129 18.871C25.129 9.30988 32.6974 1.53148 41.9998 1.53148ZM4.41525 64.8886V20.6697C4.41525 18.2733 6.31203 16.3238 8.64364 16.3238H24.2618C24.1759 16.9582 24.1224 17.6027 24.1015 18.2561H8.65199C7.35236 18.2561 6.29535 19.3429 6.29535 20.6783V64.8801C6.29535 66.2155 7.35271 67.3022 8.65199 67.3022H75.3477C76.6473 67.3022 77.7043 66.2155 77.7043 64.8801V20.6783C77.7043 19.3425 76.6469 18.2561 75.3477 18.2561H59.8981C59.8773 17.6031 59.8237 16.9582 59.7379 16.3238H75.356C77.6876 16.3238 79.5844 18.2733 79.5844 20.6697V64.8886C79.5844 67.2851 77.6876 69.2346 75.356 69.2346H57.8352H26.1645H8.64364C6.31203 69.2346 4.41525 67.2851 4.41525 64.8886ZM56.7646 70.3063L55.9579 71.3649C55.4799 71.9915 54.7618 72.3512 53.9874 72.3512H30.0126C29.2378 72.3512 28.5197 71.9918 28.0421 71.3649L27.2354 70.3063H56.7646ZM76.8923 75.4675H7.10731C5.44341 75.4675 3.90256 74.6973 2.87405 73.423H13.0027C13.2909 73.423 13.5241 73.1833 13.5241 72.8871C13.5241 72.591 13.2909 72.3512 13.0027 72.3512H2.19347C2.14759 72.2573 2.10171 72.1633 2.06035 72.0662L1.31616 70.3067H8.64364H25.9107L27.2211 72.0261C27.8979 72.9143 28.9153 73.4233 30.0126 73.4233H53.9874C55.0847 73.4233 56.1021 72.9143 56.7789 72.0261L58.0893 70.3067H75.3564H82.6838L81.9397 72.0662C81.8986 72.1633 81.8528 72.2573 81.8065 72.3512H70.9973C70.7091 72.3512 70.4759 72.591 70.4759 72.8871C70.4759 73.1833 70.7091 73.423 70.9973 73.423H81.126C80.0971 74.6973 78.5559 75.4675 76.8923 75.4675Z" fill="#3F3679"/>
<path d="M20.1784 72.3513H16.5722C16.284 72.3513 16.0508 72.591 16.0508 72.8872C16.0508 73.1833 16.284 73.4231 16.5722 73.4231H20.1784C20.4665 73.4231 20.6998 73.1833 20.6998 72.8872C20.6998 72.591 20.4662 72.3513 20.1784 72.3513Z" fill="#3F3679"/>
<path d="M67.4274 72.3513H63.8212C63.533 72.3513 63.2998 72.591 63.2998 72.8872C63.2998 73.1833 63.533 73.4231 63.8212 73.4231H67.4274C67.7155 73.4231 67.9488 73.1833 67.9488 72.8872C67.9488 72.591 67.7155 72.3513 67.4274 72.3513Z" fill="#3F3679"/>
<path d="M7.00579 79.3878H0.748187C0.460037 79.3878 0.226807 79.6275 0.226807 79.9236C0.226807 80.2198 0.460037 80.4595 0.748187 80.4595H7.00579C7.29394 80.4595 7.52717 80.2198 7.52717 79.9236C7.52717 79.6275 7.29394 79.3878 7.00579 79.3878Z" fill="#3F3679"/>
<path d="M83.2521 79.3878H76.9945C76.7064 79.3878 76.4731 79.6275 76.4731 79.9236C76.4731 80.2198 76.7064 80.4595 76.9945 80.4595H83.2521C83.5403 80.4595 83.7735 80.2198 83.7735 79.9236C83.7735 79.6275 83.5403 79.3878 83.2521 79.3878Z" fill="#3F3679"/>
<path d="M73.4488 79.3878H10.5502C10.262 79.3878 10.0288 79.6275 10.0288 79.9236C10.0288 80.2198 10.262 80.4595 10.5502 80.4595H73.4492C73.7373 80.4595 73.9706 80.2198 73.9706 79.9236C73.9706 79.6275 73.737 79.3878 73.4488 79.3878Z" fill="#3F3679"/>
<path d="M43.6953 48.7471C43.6953 55.8399 49.3099 61.6106 56.2109 61.6106C63.1119 61.6106 68.7264 55.8399 68.7264 48.7471C68.7264 41.6542 63.1119 35.8836 56.2109 35.8836C49.3099 35.8836 43.6953 41.6542 43.6953 48.7471ZM56.2109 36.9553C62.537 36.9553 67.6837 42.2451 67.6837 48.7471C67.6837 55.249 62.537 60.5388 56.2109 60.5388C49.8848 60.5388 44.7381 55.249 44.7381 48.7471C44.7381 42.2451 49.8848 36.9553 56.2109 36.9553Z" fill="#3F3679"/>
<path d="M27.7883 35.8836C20.8873 35.8836 15.2727 41.6542 15.2727 48.7471C15.2727 55.8399 20.8873 61.6106 27.7883 61.6106C34.6893 61.6106 40.3038 55.8399 40.3038 48.7471C40.3038 41.6542 34.6893 35.8836 27.7883 35.8836ZM27.7883 60.5388C21.4622 60.5388 16.3155 55.249 16.3155 48.7471C16.3155 42.2451 21.4622 36.9553 27.7883 36.9553C34.1144 36.9553 39.2611 42.2451 39.2611 48.7471C39.2611 55.249 34.1144 60.5388 27.7883 60.5388Z" fill="#3F3679"/>
<path d="M32.936 41.1344H22.6412C21.3954 41.1344 20.3818 42.1761 20.3818 43.4565V54.0375C20.3818 55.3179 21.3954 56.3596 22.6412 56.3596H32.936C34.1817 56.3596 35.1953 55.3179 35.1953 54.0375V43.4565C35.1953 42.1761 34.1817 41.1344 32.936 41.1344ZM34.1525 54.0372C34.1525 54.7266 33.6068 55.2875 32.936 55.2875H22.6412C21.9703 55.2875 21.4246 54.7266 21.4246 54.0372V43.4561C21.4246 42.7666 21.9703 42.2058 22.6412 42.2058H32.936C33.6068 42.2058 34.1525 42.7666 34.1525 43.4561V54.0372Z" fill="#3F3679"/>
<path d="M30.0417 43.575C28.2993 43.575 26.8818 45.0319 26.8818 46.8228V47.5055H25.6027C25.3145 47.5055 25.0813 47.7452 25.0813 48.0413C25.0813 48.3375 25.3145 48.5772 25.6027 48.5772H26.8818V53.3829C26.8818 53.6791 27.115 53.9188 27.4032 53.9188C27.6913 53.9188 27.9246 53.6791 27.9246 53.3829V48.5772H29.204C29.4922 48.5772 29.7254 48.3375 29.7254 48.0413C29.7254 47.7452 29.4922 47.5055 29.204 47.5055H27.9246V46.8228C27.9246 45.6228 28.8742 44.6467 30.0417 44.6467C30.3299 44.6467 30.5631 44.407 30.5631 44.1109C30.5631 43.8147 30.3295 43.575 30.0417 43.575Z" fill="#3F3679"/>
<path d="M51.064 56.3779H61.3588C62.6046 56.3779 63.6182 55.3361 63.6182 54.0557V43.4747C63.6182 42.1943 62.6046 41.1526 61.3588 41.1526H51.064C49.8183 41.1526 48.8047 42.1943 48.8047 43.4747V54.0557C48.8047 55.3361 49.8183 56.3779 51.064 56.3779ZM49.8474 43.4747C49.8474 42.7852 50.3932 42.2244 51.064 42.2244H61.3588C62.0297 42.2244 62.5754 42.7852 62.5754 43.4747V54.0557C62.5754 54.7452 62.0297 55.3061 61.3588 55.3061H51.064C50.3932 55.3061 49.8474 54.7452 49.8474 54.0557V43.4747Z" fill="#3F3679"/>
<path d="M56.2113 53.06C58.5151 53.06 60.3896 51.1333 60.3896 48.7655C60.3896 46.3976 58.5151 44.471 56.2113 44.471C53.9075 44.471 52.033 46.3976 52.033 48.7655C52.033 51.1333 53.9075 53.06 56.2113 53.06ZM56.2113 45.5427C57.9402 45.5427 59.3469 46.9885 59.3469 48.7655C59.3469 50.5424 57.9402 51.9882 56.2113 51.9882C54.4824 51.9882 53.0757 50.5424 53.0757 48.7655C53.0757 46.9885 54.4824 45.5427 56.2113 45.5427Z" fill="#3F3679"/>
<path d="M60.8032 45.3338C61.2025 45.3338 61.5265 45.0008 61.5265 44.5903C61.5265 44.1798 61.2025 43.8469 60.8032 43.8469C60.4038 43.8469 60.0798 44.1798 60.0798 44.5903C60.0798 45.0008 60.4034 45.3338 60.8032 45.3338Z" fill="#3F3679"/>
<path d="M28.2638 20.9761H31.8342V22.4501C31.8342 22.7463 32.0675 22.986 32.3556 22.986H33.746V28.7363C33.746 29.0324 33.9792 29.2722 34.2673 29.2722H37.2851C37.5732 29.2722 37.8065 29.0324 37.8065 28.7363V22.986H39.0748L47.0895 27.3087V27.3062C47.1621 27.3459 47.2438 27.3702 47.3317 27.3702H50.5841C50.8723 27.3702 51.1055 27.1304 51.1055 26.8343V22.5037C53.0645 22.2397 54.5834 20.5167 54.5834 18.4321C54.5834 16.3476 53.0648 14.6246 51.1055 14.3606V10.0268C51.1055 9.7306 50.8723 9.49088 50.5841 9.49088H47.3317C47.2438 9.49088 47.1621 9.51553 47.0895 9.55483V9.55233L39.0686 13.8783H32.3553C32.0671 13.8783 31.8339 14.118 31.8339 14.4141V15.8846H28.2638C27.9757 15.8846 27.7424 16.1243 27.7424 16.4205V20.4399C27.7424 20.7364 27.9757 20.9761 28.2638 20.9761ZM53.5407 18.4321C53.5407 19.9244 52.4875 21.1665 51.1055 21.4205V15.4437C52.4875 15.6981 53.5407 16.9399 53.5407 18.4321ZM47.8531 10.5626H50.0627V26.2984H47.8531V10.5626ZM36.764 28.2008H34.7891V22.986H36.764V28.2008ZM46.8104 25.9479L39.7185 22.1229V14.7382L46.8104 10.9131V25.9479ZM32.877 14.9504H38.6758V21.9146H37.2854H34.2677H32.8773V20.4406V16.4208L32.877 14.9504ZM28.7852 16.9567H31.8342V19.9044H28.7852V16.9567Z" fill="#3F3679"/>
</svg>
