<svg width="46" height="46" viewBox="0 0 46 46" fill="none" xmlns="http://www.w3.org/2000/svg">
<circle cx="23.3521" cy="23.1172" r="22.5" fill="#ACC9E2"/>
<path d="M27.7357 35.3105H18.9684C14.9684 35.3105 12.667 32.9286 12.667 28.7885V17.4459C12.667 13.3058 14.9684 10.9238 18.9684 10.9238H27.7357C31.7357 10.9238 34.0371 13.3058 34.0371 17.4459V28.7885C34.0371 32.9286 31.7357 35.3105 27.7357 35.3105ZM18.9684 12.6252C15.8342 12.6252 14.3108 14.2019 14.3108 17.4459V28.7885C14.3108 32.0325 15.8342 33.6091 18.9684 33.6091H27.7357C30.8699 33.6091 32.3933 32.0325 32.3933 28.7885V17.4459C32.3933 14.2019 30.8699 12.6252 27.7357 12.6252H18.9684Z" fill="#055EA8"/>
<path d="M20.0647 22.1077C19.8784 22.1077 19.6921 22.0737 19.5168 21.9943C19.0127 21.7674 18.6949 21.257 18.6949 20.7012V11.7745C18.6949 11.3095 19.0675 10.9238 19.5168 10.9238H27.1881C27.6374 10.9238 28.01 11.3095 28.01 11.7745V20.6898C28.01 21.257 27.6922 21.7674 27.1881 21.9829C26.6949 22.2098 26.1141 22.1077 25.7086 21.722L23.3524 19.4875L20.9962 21.7334C20.7332 21.9829 20.4045 22.1077 20.0647 22.1077ZM23.3524 17.6841C23.6812 17.6841 24.0209 17.8088 24.284 18.0583L26.3662 20.0433V12.6252H20.3387V20.0433L22.4209 18.0583C22.6839 17.8088 23.0237 17.6841 23.3524 17.6841Z" fill="#055EA8"/>
<path d="M29.3798 26.2366H24.7222C24.2728 26.2366 23.9002 25.8509 23.9002 25.3859C23.9002 24.9208 24.2728 24.5352 24.7222 24.5352H29.3798C29.8291 24.5352 30.2017 24.9208 30.2017 25.3859C30.2017 25.8509 29.8291 26.2366 29.3798 26.2366Z" fill="#055EA8"/>
<path d="M29.3793 30.7737H20.0641C19.6148 30.7737 19.2422 30.388 19.2422 29.923C19.2422 29.4579 19.6148 29.0723 20.0641 29.0723H29.3793C29.8286 29.0723 30.2012 29.4579 30.2012 29.923C30.2012 30.388 29.8286 30.7737 29.3793 30.7737Z" fill="#055EA8"/>
</svg>
