<svg width="73" height="75" viewBox="0 0 73 75" fill="none" xmlns="http://www.w3.org/2000/svg">
<g id="&#240;&#159;&#166;&#134; icon &#34;video tick&#34;">
<g id="Group">
<path id="Vector" d="M66.3882 25.9508V45.762C66.3882 46.4884 66.3882 47.2148 66.3245 47.9082C63.7128 44.5733 59.7316 42.4601 55.2407 42.4601C51.8646 42.4601 48.7433 43.6818 46.2908 45.7289C42.9784 48.4364 40.9081 52.6298 40.9081 57.3184C40.9081 60.092 41.6725 62.7335 42.9784 64.9787C43.8383 66.4646 44.9212 67.7523 46.1952 68.8089C45.5264 68.8749 44.8257 68.8749 44.0931 68.8749H24.9831C9.05801 68.8749 2.68799 62.2712 2.68799 45.762V25.9508C2.68799 9.44159 9.05801 2.83789 24.9831 2.83789H44.0931C60.0182 2.83789 66.3882 9.44159 66.3882 25.9508Z" stroke="#6495ED" stroke-opacity="0.3" stroke-width="5" stroke-linecap="round" stroke-linejoin="round"/>
<path id="Vector_2" d="M4.34424 19.71H64.732" stroke="#6495ED" stroke-opacity="0.3" stroke-width="5" stroke-linecap="round" stroke-linejoin="round"/>
<path id="Vector_3" d="M23.4541 3.2002V19.2472" stroke="#6495ED" stroke-opacity="0.3" stroke-width="5" stroke-linecap="round" stroke-linejoin="round"/>
<path id="Vector_4" d="M45.6216 3.2002V17.7615" stroke="#6495ED" stroke-opacity="0.3" stroke-width="5" stroke-linecap="round" stroke-linejoin="round"/>
<path id="Vector_5" d="M69.5733 57.3183C69.5733 60.0918 68.8089 62.7333 67.5031 64.9786C66.7387 66.2993 65.7831 67.488 64.6684 68.4785C62.1522 70.7898 58.8717 72.1766 55.2408 72.1766C51.8328 72.1766 48.6796 70.9219 46.2272 68.8087H46.1953C44.9213 67.7521 43.8384 66.4644 42.9785 64.9786C41.6726 62.7333 40.9082 60.0918 40.9082 57.3183C40.9082 52.6297 42.9785 48.4363 46.2909 45.7288C48.7433 43.6816 51.8646 42.46 55.2408 42.46C59.7316 42.46 63.7129 44.5731 66.3246 47.908C68.363 50.4504 69.5733 53.7523 69.5733 57.3183Z" stroke="#6495ED" stroke-opacity="0.3" stroke-width="5" stroke-miterlimit="10" stroke-linecap="round" stroke-linejoin="round"/>
<path id="Vector_6" d="M49.667 57.3193L53.2024 60.9844L60.8464 53.6543" stroke="#6495ED" stroke-opacity="0.3" stroke-width="5" stroke-linecap="round" stroke-linejoin="round"/>
</g>
</g>
</svg>
