<svg width="90" height="60" viewBox="0 0 69 77" fill="none" xmlns="http://www.w3.org/2000/svg">
<path d="M67.3222 65.5113L62.3672 56.679C61.8631 55.7803 61.3708 54.8737 60.9628 53.9317C60.343 52.5001 59.2947 51.2678 57.9406 50.3938C57.1408 49.8775 56.2529 49.4984 55.3168 49.2734L46.6879 47.2L43.138 45.5292C41.6123 44.8111 40.6461 43.3279 40.6461 41.704V40.3431C38.8063 41.449 36.6347 42.0923 34.3119 42.0923C32.1456 42.0923 30.1108 41.5318 28.3537 40.5595V41.704C28.3537 43.3279 27.3875 44.8111 25.8618 45.5292L22.3119 47.2L13.6829 49.2734C12.7469 49.4984 11.8587 49.8775 11.0592 50.3938C9.70543 51.2678 8.6571 52.5001 8.0373 53.9314C7.62929 54.8737 7.137 55.7803 6.63289 56.679L1.67795 65.5113C-0.914125 70.1321 2.41405 75.7175 7.97168 75.7175H61.0284C66.5857 75.7173 69.9148 70.1324 67.3222 65.5113Z" fill="#70D6F9"/>
<path d="M46.2616 20.3404C46.2547 20.0168 45.9836 19.7502 45.6446 19.7407C40.6794 19.6018 38.0634 17.7232 37.0582 16.7827C36.784 16.5259 36.3408 16.5529 36.1017 16.84C31.7363 22.0807 25.2964 21.3412 23.1314 20.9087C22.738 20.83 22.3604 21.1132 22.3601 21.4968V30.6824C22.3601 36.9574 27.7383 42.0919 34.3119 42.0919C40.8852 42.0919 46.2638 36.9577 46.2638 30.6824V20.5189C46.2634 20.4595 46.2628 20.3998 46.2616 20.3404Z" fill="#F9D0B4"/>
<path d="M43.6643 8.23837C42.3908 8.23837 41.2 8.58186 40.1769 9.16759C38.9814 7.26343 36.8042 5.97767 34.3222 5.97767H30.8165C24.0314 5.97767 18.48 11.2772 18.48 17.7544V23.0314C19.3336 22.3791 20.4149 21.9869 21.5933 21.9869C21.8545 21.9869 22.1101 22.008 22.3602 22.0451V21.4968C22.3605 21.113 22.738 20.83 23.1314 20.9087C25.2965 21.3412 31.7364 22.0808 36.1017 16.8403C36.3409 16.5532 36.7837 16.5259 37.0583 16.783C38.0634 17.7235 40.6797 19.6022 45.6446 19.7411C45.9836 19.7506 46.2548 20.0172 46.2616 20.3408C46.2629 20.4002 46.2635 20.4595 46.2635 20.5192V22.0454C46.5135 22.0083 46.7695 21.9872 47.0304 21.9872C48.3754 21.9872 49.5938 22.4979 50.4913 23.3238V14.7557C50.4913 11.1712 47.4191 8.23837 43.6643 8.23837Z" fill="#5B5D60"/>
<path d="M47.0305 21.987C46.7692 21.987 46.5136 22.0081 46.2636 22.0452V30.6825C46.2636 30.9399 46.2511 31.1946 46.2334 31.4475C46.4937 31.4876 46.7583 31.514 47.0305 31.514C49.7864 31.514 52.0202 29.3813 52.0202 26.7504C52.0205 24.1198 49.7864 21.987 47.0305 21.987Z" fill="#F9D0B4"/>
<path d="M22.3604 30.6825V22.0452C22.1104 22.0081 21.8544 21.987 21.5935 21.987C18.8376 21.987 16.6038 24.1198 16.6038 26.7507C16.6038 29.3816 18.8379 31.5143 21.5935 31.5143C21.8656 31.5143 22.1303 31.4879 22.3906 31.4478V31.4475C22.3726 31.1943 22.3604 30.9399 22.3604 30.6825Z" fill="#F9D0B4"/>
<path d="M39.4628 55.2419C38.1249 54.0527 36.0192 54.1441 34.7264 55.3779C34.6014 55.4972 34.3987 55.4972 34.2736 55.3779C32.9812 54.1441 30.8752 54.0527 29.5373 55.2419C28.1329 56.4906 28.1034 58.5904 29.449 59.8747L33.8037 64.0315C34.1884 64.3987 34.8123 64.3987 35.197 64.0315L39.5517 59.8747C40.8967 58.5907 40.8672 56.4906 39.4628 55.2419Z" fill="#FC657E"/>
<path d="M43.1387 45.5289C41.613 44.8108 40.6467 43.3276 40.6467 41.7037V40.3428C38.8069 41.4486 36.6353 42.092 34.3126 42.092C32.1462 42.092 30.1114 41.5315 28.3544 40.5592V41.7037C28.3544 43.3276 27.3881 44.8108 25.8624 45.5289L25.3064 45.7907C27.0859 48.9044 30.5425 51.0333 34.5007 51.0333C38.4589 51.0333 41.9155 48.9044 43.695 45.7907L43.1387 45.5289Z" fill="#F9D0B4"/>
<path d="M47.9325 66.3746C47.0804 66.3746 46.2632 66.0513 45.6608 65.4763C45.0581 64.9009 44.2411 64.5779 43.389 64.5779H41.8966C41.3769 64.5779 40.9555 64.9799 40.9555 65.4763C40.9555 65.9723 40.5342 66.3746 40.0145 66.3746H38.5404C37.3795 66.3746 36.4385 67.2729 36.4385 68.3812V72.0366C36.4385 73.0127 36.8446 73.9488 37.5677 74.6393C38.2907 75.3295 39.2713 75.7173 40.2938 75.7173H49.2343V66.3773C49.2343 66.3764 49.2346 66.3755 49.2346 66.3746H47.9325Z" fill="#F9D0B4"/>
<path d="M30.4596 66.3746H28.9856C28.4659 66.3746 28.0445 65.9723 28.0445 65.4763C28.0445 64.9802 27.6231 64.5779 27.1035 64.5779H25.6111C24.759 64.5779 23.9417 64.9009 23.3393 65.4763C22.7366 66.0513 21.9196 66.3746 21.0675 66.3746H19.7651C19.7651 66.3755 19.7654 66.3764 19.7654 66.3773V75.7173H28.706C29.7285 75.7173 30.7091 75.3295 31.4321 74.6393C32.1551 73.9491 32.5613 73.0127 32.5613 72.0366V68.3812C32.5616 67.2729 31.6206 66.3746 30.4596 66.3746Z" fill="#F9D0B4"/>
<path d="M47.0391 20.3259C47.0242 19.6027 46.4218 19.0199 45.6676 18.9988C40.8946 18.8652 38.4375 17.0338 37.6028 16.2527C37.3155 15.9835 36.9218 15.8419 36.52 15.8665C36.1185 15.8903 35.7444 16.0767 35.4934 16.3783C31.4699 21.2079 25.619 20.6468 23.2909 20.1819C22.8696 20.0976 22.4373 20.1982 22.1036 20.4568C21.773 20.7127 21.5833 21.0915 21.583 21.5045V30.6824C21.583 37.3828 27.2933 42.834 34.3123 42.834C41.3313 42.834 47.0416 37.3828 47.0416 30.6824V20.5188C47.0413 20.4547 47.0406 20.3903 47.0391 20.3259ZM45.4863 30.6824C45.4863 36.5643 40.4736 41.3497 34.312 41.3497C28.1504 41.3497 23.1376 36.5643 23.1376 30.6824V21.6669C25.3512 22.0804 32.0511 22.7795 36.6198 17.4097C37.861 18.531 40.5861 20.3104 45.4863 20.4785V20.5188V30.6824Z" fill="black"/>
<path d="M43.6642 7.49629C42.549 7.49629 41.4444 7.73676 40.4312 8.19662C39.0022 6.35481 36.7233 5.23559 34.3219 5.23559H30.8161C23.5851 5.23559 17.7021 10.8516 17.7021 17.7545V22.9293C17.7021 23.3393 18.0501 23.6715 18.4796 23.6715C18.9091 23.6715 19.2571 23.3393 19.2571 22.9293V17.7548C19.2571 11.6704 24.4425 6.72026 30.8161 6.72026H34.3219C36.4266 6.72026 38.4144 7.80445 39.5097 9.54948C39.6158 9.7184 39.7878 9.84012 39.9877 9.88792C40.1874 9.93542 40.3995 9.90573 40.5764 9.80449C41.5175 9.26567 42.5854 8.98096 43.6642 8.98096C46.9998 8.98096 49.7138 11.5718 49.7138 14.7561V23.1089C49.7138 23.5189 50.0618 23.8511 50.4913 23.8511C50.9208 23.8511 51.2687 23.5189 51.2687 23.1089V14.7558C51.2687 10.7527 47.8575 7.49629 43.6642 7.49629Z" fill="black"/>
<path d="M47.0306 21.2447C46.8319 21.2447 46.6285 21.2554 46.4254 21.2762C45.9985 21.3201 45.69 21.6862 45.7363 22.0938C45.7823 22.5014 46.1655 22.7968 46.5928 22.7517C46.7402 22.7365 46.8876 22.7288 47.0306 22.7288C49.3534 22.7288 51.2429 24.5329 51.2429 26.7503C51.2429 28.9676 49.3531 30.7714 47.0306 30.7714C46.9006 30.7714 46.7669 30.764 46.622 30.7489C46.1931 30.7058 45.8112 30.9983 45.7643 31.4059C45.7176 31.8135 46.0258 32.1798 46.4525 32.2246C46.6543 32.2457 46.8434 32.2558 47.0306 32.2558C50.2108 32.2558 52.7979 29.7861 52.7979 26.7503C52.7979 23.7144 50.2108 21.2447 47.0306 21.2447Z" fill="black"/>
<path d="M22.9431 31.3858C22.8899 30.9794 22.504 30.6926 22.0751 30.7413C21.9022 30.7621 21.7445 30.7722 21.5934 30.7722C19.2707 30.7722 17.3811 28.9681 17.3811 26.751C17.3811 24.5337 19.271 22.7296 21.5934 22.7296C21.738 22.7296 21.887 22.7376 22.0369 22.7533C22.4657 22.7949 22.8476 22.5033 22.8943 22.0963C22.9409 21.6887 22.6327 21.3224 22.2061 21.2778C22.0002 21.2565 21.794 21.2455 21.5934 21.2455C18.4133 21.2455 15.8262 23.7155 15.8262 26.7513C15.8262 29.7872 18.4133 32.2569 21.5934 32.2569C21.8095 32.2569 22.0303 32.2432 22.2679 32.2147C22.694 32.1634 22.9963 31.7926 22.9431 31.3858Z" fill="black"/>
<path d="M39.9926 54.6991C38.4831 53.3572 36.1041 53.3305 34.5 54.5753C32.8953 53.3311 30.5166 53.3581 29.0074 54.6991C28.1745 55.4398 27.705 56.4447 27.6847 57.5289C27.6648 58.6134 28.0959 59.6331 28.8995 60.3997L33.2539 64.5565C33.5866 64.8745 34.0295 65.0493 34.5003 65.0493C34.9712 65.0493 35.414 64.8745 35.7464 64.5565L40.1009 60.3997C40.9041 59.6328 41.3355 58.6131 41.3156 57.5286C41.2954 56.4447 40.8255 55.4395 39.9926 54.6991ZM39.0015 59.3502L34.6468 63.5071C34.5964 63.5552 34.5392 63.5649 34.5 63.5649C34.4608 63.5649 34.4036 63.5549 34.3532 63.5071L29.9988 59.3499C29.4965 58.8705 29.2269 58.2331 29.2397 57.555C29.2524 56.8772 29.5463 56.2488 30.0675 55.7853C30.5489 55.3575 31.1737 55.1459 31.8053 55.1459C32.4976 55.1459 33.1976 55.4003 33.7244 55.9032C34.152 56.3117 34.8483 56.3117 35.2765 55.9032C36.2838 54.9416 37.9243 54.8888 38.9331 55.7856C39.4543 56.2491 39.7485 56.8775 39.761 57.5553C39.7734 58.2334 39.5035 58.8708 39.0015 59.3502Z" fill="black"/>
<path d="M68.0075 65.1606L63.0525 56.3283C62.6056 55.5315 62.0941 54.6017 61.6814 53.6478C60.9991 52.072 59.8562 50.734 58.3762 49.7787C57.4989 49.2122 56.5336 48.8002 55.5068 48.5535L46.9581 46.4994L43.4822 44.8633C42.2124 44.2657 41.4238 43.055 41.4238 41.7034V40.6361C41.4238 40.2261 41.0758 39.8939 40.6463 39.8939C40.2168 39.8939 39.8688 40.2261 39.8688 40.6361V41.7034C39.8688 43.6241 40.9899 45.3451 42.7946 46.1945L46.3445 47.8653C46.3936 47.8885 46.4453 47.9066 46.4984 47.9193L55.1274 49.9927C55.9782 50.1972 56.7784 50.539 57.5055 51.008C58.732 51.7998 59.6793 52.9086 60.2446 54.2146C60.685 55.2314 61.2174 56.2001 61.6823 57.0286L66.6373 65.861C68.9914 70.0573 65.9397 74.9744 61.0286 74.9744H7.9716C3.06175 74.9744 0.00848484 70.0582 2.36296 65.8607L7.3179 57.0286C7.89354 56.0029 8.35846 55.1319 8.7559 54.2143C9.32128 52.9083 10.2682 51.7995 11.4948 51.0077C12.2218 50.5384 13.022 50.197 13.8729 49.9924L22.5018 47.919C22.555 47.9063 22.6066 47.8882 22.6557 47.865L26.2057 46.1942C28.0103 45.3448 29.1314 43.6238 29.1314 41.7031V40.7783C29.1314 40.3683 28.7834 40.0361 28.3539 40.0361C27.9245 40.0361 27.5765 40.3683 27.5765 40.7783V41.7031C27.5765 43.0544 26.7878 44.2651 25.5181 44.863L22.0422 46.4991L13.4935 48.5532C12.4666 48.7999 11.5013 49.2122 10.624 49.7784C9.14401 50.7337 8.00114 52.0714 7.31915 53.6472C6.94659 54.5079 6.50156 55.3412 5.9477 56.3277L0.992756 65.16C-1.90159 70.3197 1.86725 76.4594 7.9716 76.4594H61.028C67.1342 76.4594 70.9009 70.3185 68.0075 65.1606Z" fill="black"/>
<path d="M43.9459 45.3846C43.5742 45.1786 43.0984 45.2991 42.8832 45.6536C41.1423 48.5143 37.9301 50.2914 34.5 50.2914C31.0449 50.2914 27.8212 48.495 26.0866 45.6034C25.8729 45.2475 25.398 45.124 25.0255 45.3282C24.6529 45.5319 24.5238 45.9852 24.7372 46.3412C26.748 49.6935 30.4889 51.7758 34.5 51.7758C38.4822 51.7758 42.2093 49.7158 44.2276 46.3994C44.4434 46.0446 44.3172 45.5904 43.9459 45.3846Z" fill="black"/>
<path d="M62.675 64.3679H50.5615C49.4012 64.3679 48.457 65.2692 48.457 66.3768V75.4202C48.457 75.8302 48.805 76.1624 49.2345 76.1624C49.664 76.1624 50.012 75.8302 50.012 75.4202V66.3771C50.012 66.0877 50.2583 65.8525 50.5615 65.8525H62.675C63.1045 65.8525 63.4525 65.5203 63.4525 65.1103C63.4525 64.7004 63.1045 64.3679 62.675 64.3679Z" fill="black"/>
<path d="M49.1228 65.6324H47.9323C47.2821 65.6324 46.6704 65.3907 46.2104 64.9517C45.4569 64.232 44.4546 63.8357 43.3885 63.8357H41.8964C40.9488 63.8357 40.1779 64.5717 40.1779 65.4762C40.1779 65.5623 40.1045 65.6324 40.0143 65.6324H38.5406C36.953 65.6324 35.6611 66.8656 35.6611 68.3812V72.0366C35.6611 73.2179 36.1432 74.3285 37.0183 75.1639C37.8856 75.9919 39.0384 76.4517 40.265 76.4591H40.27C40.6969 76.4591 41.0446 76.1299 41.0474 75.7217C41.0502 75.312 40.7041 74.9774 40.2749 74.9748C39.4601 74.9697 38.6942 74.6642 38.1179 74.1144C37.5367 73.5593 37.2164 72.8215 37.2164 72.0366V68.3812C37.2164 67.6838 37.8107 67.1168 38.5409 67.1168H40.0146C40.9622 67.1168 41.7331 66.3808 41.7331 65.4762C41.7331 65.3901 41.8065 65.3201 41.8967 65.3201H43.3888C44.0394 65.3201 44.6511 65.5617 45.1111 66.0011C45.8649 66.7204 46.8669 67.1168 47.9326 67.1168H49.1231C49.5526 67.1168 49.9006 66.7846 49.9006 66.3746C49.9006 65.9646 49.5523 65.6324 49.1228 65.6324Z" fill="black"/>
<path d="M18.4386 64.3679H6.32507C5.8956 64.3679 5.54761 64.7001 5.54761 65.11C5.54761 65.52 5.8956 65.8522 6.32507 65.8522H18.4386C18.7418 65.8522 18.9881 66.0874 18.9881 66.3768V75.4202C18.9881 75.8302 19.3361 76.1624 19.7656 76.1624C20.1951 76.1624 20.5431 75.8302 20.5431 75.4202V66.3771C20.5431 65.2692 19.5989 64.3679 18.4386 64.3679Z" fill="black"/>
<path d="M30.4596 65.6324H28.9858C28.8956 65.6324 28.8222 65.5623 28.8222 65.4762C28.8222 64.5717 28.0513 63.8357 27.1037 63.8357H25.6116C24.5455 63.8357 23.5435 64.232 22.79 64.9514C22.3301 65.3904 21.7184 65.6324 21.0678 65.6324H19.9159C19.4864 65.6324 19.1384 65.9646 19.1384 66.3746C19.1384 66.7846 19.4864 67.1168 19.9159 67.1168H21.0678C22.1335 67.1168 23.1355 66.7207 23.8894 66.0011C24.3493 65.562 24.9607 65.3201 25.6116 65.3201H27.1037C27.1939 65.3201 27.2673 65.3901 27.2673 65.4762C27.2673 66.3808 28.0382 67.1168 28.9858 67.1168H30.4596C31.1901 67.1168 31.7841 67.6841 31.7841 68.3812V72.0366C31.7841 72.8215 31.4637 73.5593 30.8825 74.1144C30.3199 74.6515 29.5723 74.9566 28.7771 74.9742C28.348 74.9837 28.0081 75.3236 28.018 75.7336C28.028 76.1373 28.3741 76.4585 28.7952 76.4585H28.8135C30.0102 76.4321 31.1353 75.9723 31.9818 75.1642C32.857 74.3291 33.339 73.2181 33.339 72.0369V68.3815C33.339 66.8656 32.0472 65.6324 30.4596 65.6324Z" fill="black"/>
<path d="M51.4305 43.8133C51.1174 43.5327 50.6254 43.5479 50.3315 43.8471L41.3978 52.9443C41.1042 53.2432 41.1198 53.7129 41.4333 53.9934C41.5832 54.1276 41.7744 54.1941 41.9647 54.1941C42.1722 54.1941 42.379 54.1154 42.532 53.9596L51.4657 44.8624C51.7596 44.5632 51.7437 44.0935 51.4305 43.8133Z" fill="black"/>
<path d="M55.3985 39.8012C55.085 39.5206 54.5933 39.5357 54.2994 39.835L52.2902 41.8811C51.9966 42.18 52.0121 42.6497 52.3256 42.9302C52.4755 43.0644 52.6668 43.1309 52.8571 43.1309C53.0645 43.1309 53.2713 43.0522 53.4243 42.8964L55.4336 40.8503C55.7275 40.5511 55.7116 40.0814 55.3985 39.8012Z" fill="black"/>
<path d="M49.1172 55.0173C48.9844 54.6275 48.5453 54.414 48.1373 54.5414L43.6755 55.9293C43.2672 56.0563 43.0442 56.4752 43.177 56.8647C43.284 57.1782 43.5885 57.3771 43.9159 57.3771C43.9959 57.3771 44.077 57.3653 44.157 57.3403L48.6187 55.9524C49.027 55.826 49.2503 55.4071 49.1172 55.0173Z" fill="black"/>
<path d="M63.5475 51.2423C63.4337 50.8471 63.0052 50.615 62.5916 50.7239L50.9066 53.7963C50.4927 53.9052 50.2495 54.3137 50.3636 54.7089C50.4585 55.0381 50.7716 55.2539 51.1128 55.2539C51.1812 55.2539 51.2505 55.2453 51.3199 55.2272L63.0049 52.1549C63.4185 52.0462 63.6617 51.6377 63.5475 51.2423Z" fill="black"/>
<path d="M55.9594 60.1313H43.8309C43.4015 60.1313 43.0535 60.4636 43.0535 60.8735C43.0535 61.2835 43.4015 61.6157 43.8309 61.6157H55.9594C56.3889 61.6157 56.7369 61.2835 56.7369 60.8735C56.7369 60.4636 56.3889 60.1313 55.9594 60.1313Z" fill="black"/>
<path d="M27.6021 52.9439L18.6684 43.8468C18.3745 43.5479 17.8829 43.5324 17.5694 43.813C17.2562 44.0932 17.2404 44.5629 17.5339 44.8621L26.4676 53.9593C26.6206 54.1151 26.8274 54.1938 27.0349 54.1938C27.2255 54.1938 27.4165 54.1273 27.5664 53.9931C27.8798 53.7126 27.8957 53.2429 27.6021 52.9439Z" fill="black"/>
<path d="M16.7099 41.8812L14.7006 39.8351C14.4068 39.5362 13.9148 39.5207 13.6016 39.8013C13.2885 40.0815 13.2726 40.5512 13.5662 40.8504L15.5754 42.8965C15.7285 43.0524 15.9353 43.131 16.1427 43.131C16.3333 43.131 16.5243 43.0645 16.6742 42.9303C16.9879 42.6498 17.0038 42.1801 16.7099 41.8812Z" fill="black"/>
<path d="M25.3245 55.9295L20.8628 54.5416C20.4551 54.4145 20.0156 54.6277 19.8828 55.0175C19.7501 55.4073 19.973 55.8262 20.3814 55.9529L24.8431 57.3408C24.923 57.3658 25.0042 57.3777 25.0841 57.3777C25.4116 57.3777 25.7163 57.1787 25.823 56.8652C25.9558 56.4754 25.7328 56.0563 25.3245 55.9295Z" fill="black"/>
<path d="M18.0932 53.7963L6.4082 50.7239C5.99427 50.6141 5.56605 50.8471 5.45223 51.2423C5.33809 51.6377 5.58128 52.0462 5.99521 52.1549L17.6802 55.2272C17.7492 55.2456 17.8189 55.2539 17.8873 55.2539C18.2285 55.2539 18.5416 55.0378 18.6365 54.7089C18.75 54.3137 18.5071 53.9052 18.0932 53.7963Z" fill="black"/>
<path d="M25.1686 60.1313H13.0402C12.6107 60.1313 12.2627 60.4636 12.2627 60.8735C12.2627 61.2835 12.6107 61.6157 13.0402 61.6157H25.1686C25.5981 61.6157 25.9461 61.2835 25.9461 60.8735C25.9461 60.4636 25.5981 60.1313 25.1686 60.1313Z" fill="black"/>
<path d="M7.43887 44.3069C6.04005 44.0582 4.9376 43.0274 4.67171 41.7191C4.65834 41.6535 4.56224 41.6535 4.54887 41.7191C4.28298 43.0271 3.18053 44.0582 1.78172 44.3069C1.71143 44.3194 1.71143 44.4094 1.78172 44.4218C3.18053 44.6706 4.28298 45.7014 4.54887 47.0097C4.56224 47.0753 4.65834 47.0753 4.67171 47.0097C4.9376 45.7017 6.04005 44.6706 7.43887 44.4218C7.50915 44.4094 7.50915 44.3194 7.43887 44.3069Z" fill="#F5C84C"/>
<path d="M57.8217 31.5654C56.8828 31.3985 56.1427 30.7062 55.9642 29.8284C55.9551 29.7841 55.8908 29.7841 55.8817 29.8284C55.7032 30.7065 54.9631 31.3985 54.0242 31.5654C53.977 31.5737 53.977 31.634 54.0242 31.6426C54.9631 31.8097 55.7032 32.5017 55.8817 33.3799C55.8908 33.4238 55.9551 33.4238 55.9642 33.3799C56.1427 32.5017 56.8828 31.8097 57.8217 31.6426C57.8689 31.634 57.8689 31.5737 57.8217 31.5654Z" fill="#F5C84C"/>
<path d="M53.686 5.00206H52.9617V4.31034C52.9617 3.79259 52.5223 3.37311 51.9799 3.37311C51.4376 3.37311 50.9981 3.79259 50.9981 4.31034V5.00206H50.2735C49.7312 5.00206 49.2917 5.42155 49.2917 5.9393C49.2917 6.45705 49.7312 6.87653 50.2735 6.87653H50.9981V7.56825C50.9981 8.086 51.4376 8.50548 51.9799 8.50548C52.5223 8.50548 52.9617 8.0857 52.9617 7.56825V6.87653H53.686C54.2283 6.87653 54.6678 6.45705 54.6678 5.9393C54.6678 5.42155 54.2283 5.00206 53.686 5.00206Z" fill="#70D6F9"/>
<path d="M10.5541 36.1022C9.97412 36.1022 9.50391 36.551 9.50391 37.1047C9.50391 37.6584 9.97412 38.1073 10.5541 38.1073C11.1341 38.1073 11.6043 37.6584 11.6043 37.1047C11.6043 36.551 11.1341 36.1022 10.5541 36.1022Z" fill="#FC657E"/>
<path d="M39.3203 26.0084C38.4666 26.0084 37.7747 26.669 37.7747 27.4839C37.7747 28.2988 38.4666 28.9594 39.3203 28.9594C40.1739 28.9594 40.8659 28.2988 40.8659 27.4839C40.8659 26.669 40.1739 26.0084 39.3203 26.0084Z" fill="black"/>
<path d="M29.6794 26.0084C28.8257 26.0084 28.1338 26.669 28.1338 27.4839C28.1338 28.2988 28.8257 28.9594 29.6794 28.9594C30.533 28.9594 31.225 28.2988 31.225 27.4839C31.225 26.669 30.533 26.0084 29.6794 26.0084Z" fill="black"/>
<path d="M42.8964 2.46447C43.4764 2.46447 43.9466 2.01561 43.9466 1.46192C43.9466 0.908229 43.4764 0.459373 42.8964 0.459373C42.3164 0.459373 41.8462 0.908229 41.8462 1.46192C41.8462 2.01561 42.3164 2.46447 42.8964 2.46447Z" fill="#87D147"/>
<path d="M38.9633 33.6298C38.7708 33.2631 38.3034 33.1153 37.9199 33.2987C36.9326 33.7711 35.7502 34.0207 34.5 34.0207C33.2499 34.0207 32.0675 33.7711 31.0801 33.2987C30.696 33.115 30.2293 33.2631 30.0368 33.6298C29.8443 33.9961 29.9994 34.442 30.3835 34.6258C31.5858 35.2011 33.0092 35.5051 34.5 35.5051C35.9909 35.5051 37.4143 35.2011 38.6166 34.6258C39.0003 34.442 39.1555 33.9961 38.9633 33.6298Z" fill="black"/>
<path d="M16.3073 56.4203C15.8778 56.4203 15.5298 56.7525 15.5298 57.1625V64.8133C15.5298 65.2233 15.8778 65.5555 16.3073 65.5555C16.7367 65.5555 17.0847 65.2233 17.0847 64.8133V57.1625C17.0847 56.7525 16.7367 56.4203 16.3073 56.4203Z" fill="black"/>
<path d="M52.6925 56.4203C52.263 56.4203 51.915 56.7525 51.915 57.1625V64.8133C51.915 65.2233 52.263 65.5555 52.6925 65.5555C53.122 65.5555 53.47 65.2233 53.47 64.8133V57.1625C53.47 56.7525 53.122 56.4203 52.6925 56.4203Z" fill="black"/>
</svg>
