<svg width="18" height="18" viewBox="0 0 18 18" fill="none" xmlns="http://www.w3.org/2000/svg">
<path d="M16.9556 13.1441V2.86813C16.9556 1.84649 16.1737 1.08878 15.2244 1.17391H15.1765C13.5012 1.32716 10.9563 2.23812 9.53623 3.19165L9.40061 3.2853C9.16925 3.43854 8.78632 3.43854 8.55496 3.2853L8.35552 3.15759C6.93547 2.21258 4.39854 1.31013 2.7232 1.1654C1.77384 1.08026 1 1.84649 1 2.85961V13.1441C1 13.9614 1.62227 14.7276 2.38813 14.8298L2.61949 14.8638C4.35067 15.1107 7.02323 16.0472 8.55496 16.9411L8.58687 16.9582C8.80227 17.0859 9.14532 17.0859 9.35274 16.9582C10.8845 16.0557 13.565 15.1107 15.3042 14.8638L15.5674 14.8298C16.3333 14.7276 16.9556 13.9614 16.9556 13.1441Z" stroke="#393C42" stroke-linecap="round" stroke-linejoin="round"/>
<path d="M8.97803 3.56616V16.3366" stroke="#393C42" stroke-linecap="round" stroke-linejoin="round"/>
<path d="M5.58699 6.12012H3.79199" stroke="#393C42" stroke-linecap="round" stroke-linejoin="round"/>
<path d="M6.18533 8.6748H3.79199" stroke="#393C42" stroke-linecap="round" stroke-linejoin="round"/>
</svg>
