<svg width="90" height="60" viewBox="0 0 93 67" fill="none" xmlns="http://www.w3.org/2000/svg">
<path d="M91.5469 11.8031V63.3656C91.5446 63.9121 91.2376 64.4358 90.6931 64.8222C90.1486 65.2087 89.4107 65.4265 88.6406 65.4281H4.35938C3.5893 65.4265 2.85142 65.2087 2.30689 64.8222C1.76236 64.4358 1.45542 63.9121 1.45312 63.3656V11.8031H91.5469Z" fill="#DFE1EA"/>
<path d="M88.6406 1.49062C89.4107 1.49226 90.1486 1.71008 90.6931 2.09652C91.2376 2.48296 91.5446 3.00662 91.5469 3.55312V11.8031H1.45312V3.55312C1.45542 3.00662 1.76236 2.48296 2.30689 2.09652C2.85142 1.71008 3.5893 1.49226 4.35938 1.49062H88.6406Z" fill="#ADB2C7"/>
<path d="M57.5437 22.1155C46.5 22.1155 46.5 20.053 35.4562 20.053C24.4125 20.053 24.4125 22.1155 13.3687 22.1155C9.33375 22.1596 5.31369 21.7575 1.45312 20.9234V29.1734C5.31369 30.0075 9.33375 30.4096 13.3687 30.3655C24.4125 30.3655 24.4125 28.303 35.4562 28.303C46.5 28.303 46.5 30.3655 57.5437 30.3655C68.5875 30.3655 68.5875 28.303 79.6312 28.303C83.6663 28.26 87.6862 28.6625 91.5469 29.4962V21.2462C87.6862 20.4125 83.6663 20.01 79.6312 20.053C68.5875 20.053 68.5875 22.1155 57.5437 22.1155Z" fill="#CDD2E1"/>
<path d="M1.45312 11.8031V20.9235C5.31369 21.7575 9.33375 22.1597 13.3687 22.1156C24.4125 22.1156 24.4125 20.0531 35.4562 20.0531C46.5 20.0531 46.5 22.1156 57.5437 22.1156C68.5875 22.1156 68.5875 20.0531 79.6312 20.0531C83.6663 20.0101 87.6862 20.4126 91.5469 21.2463V11.8031H1.45312Z" fill="#F6FAFD"/>
<path d="M88.7188 16.9593H56.5932C56.4126 16.9591 56.2337 16.9843 56.0669 17.0332C55.9 17.0822 55.7484 17.1541 55.6207 17.2447C55.493 17.3353 55.3918 17.4429 55.3228 17.5613C55.2537 17.6798 55.2183 17.8067 55.2185 17.9348V38.6712C55.2187 38.7994 55.1833 38.9263 55.1143 39.0447C55.0452 39.1631 54.944 39.2707 54.8163 39.3613C54.6886 39.4519 54.537 39.5238 54.3701 39.5728C54.2033 39.6218 54.0244 39.6469 53.8439 39.6468H49.3275C49.147 39.6466 48.9681 39.6718 48.8013 39.7207C48.6344 39.7697 48.4828 39.8416 48.3551 39.9322C48.2274 40.0228 48.1261 40.1304 48.0571 40.2488C47.9881 40.3673 47.9527 40.4942 47.9529 40.6223V64.4525C47.9527 64.5806 47.9881 64.7075 48.0571 64.8259C48.1261 64.9444 48.2274 65.052 48.3551 65.1426C48.4828 65.2332 48.6344 65.305 48.8013 65.354C48.9681 65.403 49.147 65.4282 49.3275 65.428H81.4532C81.6338 65.4282 81.8126 65.403 81.9795 65.354C82.1464 65.305 82.298 65.2332 82.4257 65.1426C82.5534 65.052 82.6546 64.9444 82.7236 64.8259C82.7926 64.7075 82.8281 64.5806 82.8279 64.4525V43.7161C82.8277 43.5879 82.8631 43.461 82.9321 43.3426C83.0011 43.2242 83.1024 43.1166 83.2301 43.0259C83.3578 42.9353 83.5094 42.8635 83.6763 42.8145C83.8431 42.7655 84.022 42.7404 84.2025 42.7405H88.7188C88.8994 42.7406 89.0783 42.7155 89.2451 42.6665C89.412 42.6175 89.5636 42.5457 89.6913 42.4551C89.819 42.3645 89.9202 42.2569 89.9893 42.1384C90.0583 42.02 90.0937 41.8931 90.0935 41.7649V17.9348C90.0937 17.8067 90.0583 17.6798 89.9893 17.5613C89.9202 17.4429 89.819 17.3353 89.6913 17.2447C89.5636 17.1541 89.412 17.0822 89.2451 17.0332C89.0783 16.9843 88.8994 16.9591 88.7188 16.9593Z" fill="#ADB2C7"/>
<path d="M29.0623 45.8343C39.4953 45.8343 47.9529 39.8321 47.9529 32.428C47.9529 25.0239 39.4953 19.0218 29.0623 19.0218C18.6293 19.0218 10.1716 25.0239 10.1716 32.428C10.1716 39.8321 18.6293 45.8343 29.0623 45.8343Z" fill="#ADB2C7"/>
<path d="M55.219 24.1781H84.2815V38.6156H55.219V24.1781Z" fill="white"/>
<path d="M55.219 15.9281H84.2815V24.1781H55.219V15.9281Z" fill="#FFA426"/>
<path d="M59.5784 27.2719H79.9221V35.5219H59.5784V27.2719Z" fill="#DFE1EA"/>
<path d="M47.9529 46.8656H77.0154V61.3031H47.9529V46.8656Z" fill="white"/>
<path d="M47.9529 38.6156H77.0154V46.8656H47.9529V38.6156Z" fill="#8DD5F6"/>
<path d="M52.3123 49.9594H72.656V58.2094H52.3123V49.9594Z" fill="#DFE1EA"/>
<path d="M26.156 42.7406C36.589 42.7406 45.0466 36.7385 45.0466 29.3344C45.0466 21.9303 36.589 15.9281 26.156 15.9281C15.723 15.9281 7.26538 21.9303 7.26538 29.3344C7.26538 36.7385 15.723 42.7406 26.156 42.7406Z" fill="white"/>
<path d="M7.26538 5.61551H10.1716V7.67801H7.26538V5.61551Z" fill="white"/>
<path d="M20.344 5.61551H85.7346V7.67801H20.344V5.61551Z" fill="white"/>
<path d="M59.5784 19.0218H62.4846V21.0843H59.5784V19.0218Z" fill="white"/>
<path d="M65.3906 19.0218H68.2969V21.0843H65.3906V19.0218Z" fill="white"/>
<path d="M58.1252 41.7094H61.0315V43.7719H58.1252V41.7094Z" fill="white"/>
<path d="M52.3123 41.7094H55.2185V43.7719H52.3123V41.7094Z" fill="white"/>
<path d="M88.6406 0.459373H4.35938C3.2032 0.459373 2.09437 0.785321 1.27683 1.36551C0.45929 1.9457 0 2.73261 0 3.55312L0 63.3656C0 64.1861 0.45929 64.973 1.27683 65.5532C2.09437 66.1334 3.2032 66.4594 4.35938 66.4594H88.6406C89.7968 66.4594 90.9056 66.1334 91.7232 65.5532C92.5407 64.973 93 64.1861 93 63.3656V3.55312C93 2.73261 92.5407 1.9457 91.7232 1.36551C90.9056 0.785321 89.7968 0.459373 88.6406 0.459373ZM4.35938 2.52187H88.6406C89.026 2.52187 89.3956 2.63052 89.6681 2.82392C89.9407 3.01732 90.0938 3.27962 90.0938 3.55312V10.7719H2.90625V3.55312C2.90625 3.27962 3.05935 3.01732 3.33186 2.82392C3.60437 2.63052 3.97398 2.52187 4.35938 2.52187ZM88.6406 64.3969H4.35938C3.97398 64.3969 3.60437 64.2882 3.33186 64.0948C3.05935 63.9014 2.90625 63.6391 2.90625 63.3656V12.8344H90.0938V63.3656C90.0938 63.6391 89.9407 63.9014 89.6681 64.0948C89.3956 64.2882 89.026 64.3969 88.6406 64.3969Z" fill="black"/>
<path d="M26.1563 43.7719C30.1799 43.7719 34.1131 42.9251 37.4586 41.3387C40.8041 39.7523 43.4117 37.4975 44.9514 34.8594C46.4912 32.2213 46.8941 29.3184 46.1091 26.5178C45.3241 23.7172 43.3866 21.1446 40.5415 19.1255C37.6963 17.1064 34.0714 15.7314 30.1251 15.1743C26.1788 14.6172 22.0884 14.9031 18.371 15.9959C14.6537 17.0886 11.4764 18.9391 9.24104 21.3133C7.00564 23.6876 5.8125 26.4789 5.8125 29.3344C5.81827 33.1622 7.96348 36.832 11.7774 39.5387C15.5914 42.2454 20.7625 43.7678 26.1563 43.7719ZM26.1563 16.9594C29.6051 16.9594 32.9764 17.6852 35.844 19.0449C38.7116 20.4047 40.9466 22.3374 42.2664 24.5987C43.5862 26.8599 43.9315 29.3481 43.2587 31.7486C42.5859 34.1491 40.9251 36.3542 38.4864 38.0848C36.0477 39.8155 32.9407 40.9941 29.5581 41.4716C26.1756 41.9491 22.6695 41.704 19.4832 40.7674C16.2969 39.8308 13.5736 38.2446 11.6575 36.2096C9.74144 34.1745 8.71875 31.7819 8.71875 29.3344C8.72375 26.0534 10.5625 22.9078 13.8316 20.5879C17.1007 18.2679 21.5331 16.9629 26.1563 16.9594Z" fill="black"/>
<path d="M21.3713 33.7615L15.133 29.3343L21.3713 24.9072L19.3166 23.449L12.0509 28.6053C11.7785 28.7986 11.6255 29.0609 11.6255 29.3343C11.6255 29.6078 11.7785 29.8701 12.0509 30.0634L19.3166 35.2197L21.3713 33.7615Z" fill="black"/>
<path d="M32.9956 35.2197L40.2613 30.0634C40.5337 29.8701 40.6867 29.6078 40.6867 29.3343C40.6867 29.0609 40.5337 28.7986 40.2613 28.6053L32.9956 23.449L30.9409 24.9072L37.1792 29.3343L30.9409 33.7615L32.9956 35.2197Z" fill="black"/>
<path d="M84.281 14.8969H55.2185C54.8331 14.8969 54.4635 15.0055 54.191 15.1989C53.9185 15.3923 53.7654 15.6546 53.7654 15.9281V37.5844H47.9529C47.5675 37.5844 47.1979 37.693 46.9254 37.8864C46.6529 38.0798 46.4998 38.3421 46.4998 38.6156V61.3031C46.4998 61.5766 46.6529 61.8389 46.9254 62.0323C47.1979 62.2257 47.5675 62.3344 47.9529 62.3344H77.0154C77.4008 62.3344 77.7704 62.2257 78.0429 62.0323C78.3154 61.8389 78.4685 61.5766 78.4685 61.3031V39.6469H84.281C84.6664 39.6469 85.036 39.5382 85.3085 39.3448C85.581 39.1514 85.7341 38.8891 85.7341 38.6156V15.9281C85.7341 15.6546 85.581 15.3923 85.3085 15.1989C85.036 15.0055 84.6664 14.8969 84.281 14.8969ZM82.8279 16.9594V23.1469H56.6716V16.9594H82.8279ZM49.406 60.2719V47.8969H75.5623V60.2719H49.406ZM75.5623 45.8344H49.406V39.6469H75.5623V45.8344ZM77.0154 37.5844H56.6716V25.2094H82.8279V37.5844H77.0154Z" fill="black"/>
<path d="M10.1716 58.2095H40.6873V60.272H10.1716V58.2095Z" fill="black"/>
<path d="M10.1716 53.0531H40.6873V55.1156H10.1716V53.0531Z" fill="black"/>
<path d="M21.7971 47.8969H40.6877V49.9594H21.7971V47.8969Z" fill="black"/>
<path d="M10.1716 47.8969H15.9841V49.9594H10.1716V47.8969Z" fill="black"/>
<path d="M13.0779 5.61551H15.9841V7.67801H13.0779V5.61551Z" fill="black"/>
<path d="M23.269 35.3523L26.1784 22.9772L29.045 23.3166L26.1357 35.6917L23.269 35.3523Z" fill="black"/>
</svg>
