<svg width="21" height="21" viewBox="0 0 21 21" fill="none" xmlns="http://www.w3.org/2000/svg">
<g id="&#240;&#159;&#166;&#134; icon &#34;edit 2&#34;">
<g id="Group">
<path id="Vector" d="M3.02154 20.1545C2.32025 20.1545 1.66496 19.9223 1.1936 19.4912C0.595788 18.9496 0.308377 18.1316 0.411845 17.2474L0.837214 13.666C0.917689 12.9918 1.34306 12.0964 1.8374 11.6101L11.276 2.00465C13.6328 -0.393956 16.093 -0.460277 18.5877 1.80569C21.0824 4.07166 21.1514 6.4371 18.7947 8.83571L9.35608 18.4411C8.87323 18.9385 7.9765 19.4028 7.27522 19.5134L3.57337 20.1213C3.37793 20.1323 3.20548 20.1545 3.02154 20.1545ZM14.9663 1.79464C14.0811 1.79464 13.3109 2.3252 12.5291 3.12106L3.09051 12.7376C2.86059 12.9698 2.59617 13.5224 2.55018 13.843L2.12481 17.4242C2.07883 17.789 2.1708 18.0874 2.37774 18.2753C2.58467 18.4632 2.89508 18.5296 3.27446 18.4743L6.97631 17.8665C7.30971 17.8112 7.86154 17.5237 8.09147 17.2916L17.5301 7.68615C18.9556 6.22709 19.4729 4.87856 17.3921 2.99947C16.4724 2.14835 15.6791 1.79464 14.9663 1.79464Z" fill="#45484F"/>
<path id="Vector_2" d="M16.5882 10.6812C16.5652 10.6812 16.5307 10.6812 16.5077 10.6812C12.9209 10.3385 10.0353 7.71889 9.48342 4.29231C9.41445 3.83911 9.73634 3.41908 10.2077 3.34171C10.6791 3.27539 11.1159 3.58488 11.1964 4.03808C11.6333 6.71302 13.8866 8.76897 16.6917 9.03426C17.163 9.07847 17.5079 9.48745 17.462 9.94059C17.4045 10.3606 17.0251 10.6812 16.5882 10.6812Z" fill="#45484F"/>
</g>
</g>
</svg>
