<svg width="290" height="296" viewBox="0 0 290 296" fill="none" xmlns="http://www.w3.org/2000/svg">
<path d="M239.212 67.3616L239.053 67.2821L208.752 49.8651L208.593 49.7856C194.437 42.6279 175.509 44.7752 155.229 57.8976C114.43 84.3014 83.2544 145.062 85.7198 193.655C86.9128 217.832 96.2973 234.453 110.374 241.77L110.533 241.849L140.834 259.266L140.993 259.346C155.149 266.504 174.077 264.356 194.437 251.234C235.235 224.83 266.411 164.07 263.946 115.477C262.673 91.2205 253.368 74.5988 239.212 67.3616Z" fill="#37474F"/>
<path d="M139.8 258.63L110.533 241.77L110.374 241.69C96.2973 234.374 86.9128 217.752 85.7198 193.575C84.6064 171.943 90.253 147.845 100.353 125.498L100.592 125.021L130.734 142.994C120.554 165.342 114.987 189.439 116.1 211.071C117.214 234.692 126.2 251.154 139.8 258.63Z" fill="#263238"/>
<path d="M194.437 251.155C235.235 224.751 266.411 163.99 263.946 115.398C261.48 66.8051 226.408 48.8314 185.609 75.2352C144.81 101.639 113.635 162.4 116.1 210.992C118.486 259.585 153.559 277.558 194.437 251.155Z" fill="#455A64"/>
<path d="M228.953 63.5439L177.815 168.921L166.76 156.991C163.341 153.333 158.489 151.186 153.479 151.186C148.946 151.186 144.572 152.856 141.152 155.957C133.835 162.717 133.358 174.17 140.118 181.566L169.146 212.98C172.328 216.479 176.702 218.547 181.473 218.786C181.792 218.786 182.11 218.786 182.507 218.786C183.382 218.786 184.257 218.706 185.132 218.627C191.096 217.752 196.186 214.014 198.731 208.606L257.424 87.7209C251.539 74.36 241.439 66.0094 228.953 63.5439Z" fill="#ACC9E2"/>
<path d="M270.547 28.8693C270.228 28.7102 269.91 28.5512 269.592 28.3126C261.798 24.5747 252.334 27.7559 248.596 35.5498L183.462 169.716L179.724 165.74C178.61 164.547 177.338 163.592 176.065 162.797C174.157 161.684 165.886 156.912 164.534 156.117C158.728 152.776 151.173 153.413 146.003 158.184C139.641 164.07 139.243 174.011 145.128 180.373L174.157 211.787C175.27 212.98 176.543 214.014 177.895 214.73C179.803 215.843 187.995 220.615 189.347 221.331C191.494 222.524 193.88 223.319 196.345 223.399C197.379 223.478 198.413 223.399 199.527 223.24C204.696 222.444 209.15 219.263 211.377 214.571L288.441 55.9094C292.02 48.4336 289.236 39.5263 282.158 35.3907C281.76 35.3112 272.614 29.9827 270.547 28.8693Z" fill="#055EA8"/>
<path opacity="0.15" d="M270.547 28.8693C270.228 28.7102 269.91 28.5512 269.592 28.3126C261.798 24.5747 252.334 27.7559 248.596 35.5498L183.462 169.716L179.724 165.74C178.61 164.547 177.338 163.592 176.065 162.797C174.157 161.684 165.886 156.912 164.534 156.117C158.728 152.776 151.173 153.413 146.003 158.184C139.641 164.07 139.243 174.011 145.128 180.373L174.157 211.787C175.27 212.98 176.543 214.014 177.895 214.73C179.803 215.843 187.995 220.615 189.347 221.331C191.494 222.524 193.88 223.319 196.345 223.399C197.379 223.478 198.413 223.399 199.527 223.24C204.696 222.444 209.15 219.263 211.377 214.571L288.441 55.9094C292.02 48.4336 289.236 39.5263 282.158 35.3907C281.76 35.3112 272.614 29.9827 270.547 28.8693Z" fill="black"/>
<path opacity="0.15" d="M189.347 221.41C187.995 220.615 179.803 215.843 177.895 214.809C176.543 214.014 175.27 213.06 174.157 211.867L145.128 180.452C143.776 179.021 142.822 177.351 142.106 175.681L153.638 182.361C154.354 184.111 155.308 185.701 156.66 187.133L185.688 218.547C186.722 219.661 187.995 220.615 189.347 221.41Z" fill="black"/>
<path opacity="0.15" d="M263.787 37.379C262.275 38.731 261.083 40.3216 260.128 42.2303L193.164 180.214L183.462 169.716L248.596 35.5498C249.471 33.6411 250.744 32.0505 252.255 30.6985L263.787 37.379Z" fill="black"/>
<path d="M281.124 34.993C273.33 31.2551 263.866 34.4363 260.128 42.2302L193.164 180.214L179.724 165.74C173.839 159.377 163.897 158.98 157.535 164.865C151.173 170.75 150.775 180.691 156.66 187.054L185.688 218.468C188.472 221.49 192.289 223.239 196.345 223.478C197.379 223.558 198.413 223.478 199.527 223.319C204.696 222.524 209.15 219.343 211.377 214.65L288.441 55.9888C292.179 48.1949 288.918 38.7309 281.124 34.993Z" fill="#055EA8"/>
<path d="M61.3838 50.5013C55.3396 50.5013 51.1245 52.0919 46.8299 58.2156C42.8534 63.8622 32.0374 82.6312 32.0374 82.6312C32.0374 82.6312 24.0845 66.3277 23.2892 63.067C22.4939 59.8062 22.5734 58.3747 23.2892 56.9432C24.2435 55.1935 25.1183 53.6825 25.2774 51.3761C25.5955 47.4792 26.5499 44.1389 25.675 43.9799C23.2096 43.8208 23.1301 46.9225 21.8576 48.8312C21.3805 49.4674 19.9489 49.5469 19.3922 48.5926C18.8355 47.4792 19.1536 45.7295 18.915 44.457C18.9946 43.3436 19.1536 42.946 19.2332 42.3097C19.9489 42.4688 20.9033 42.4688 22.0167 42.3893C23.0506 44.0594 23.7663 44.6956 25.2774 44.0594C25.4365 43.7413 24.6412 41.6735 23.6868 40.0829C23.5278 39.8443 23.2892 39.6853 23.0506 39.6057C21.619 39.2081 19.9489 39.1286 17.6426 39.4467C17.404 39.5262 17.0859 39.6057 16.9268 39.8443C16.052 41.1168 15.5748 42.3893 15.3362 43.0255C15.2567 43.3436 14.9386 43.3436 14.859 43.0255C14.0637 39.2081 14.0637 33.7205 14.0637 31.1756C14.0637 29.1874 11.1211 28.8692 11.0416 31.7323C10.9621 34.6749 10.8826 40.1624 11.2007 43.3436C11.2802 43.6617 10.8826 43.8208 10.7235 43.5027C10.2463 42.1507 8.97384 38.0151 8.41714 30.937C8.25808 29.0283 5.15642 28.7102 5.23595 31.4142C5.47454 38.5718 7.14466 45.4114 7.14466 45.4114C7.22419 45.7295 6.90607 46.0476 6.66748 45.65C5.6336 43.9799 4.04301 39.7648 3.24771 36.9017C2.61148 34.5954 -0.490176 35.1521 0.066531 38.0151C1.02089 43.1846 2.53195 49.706 4.8383 54.3187C7.30372 59.3291 9.37149 61.7945 10.5644 65.6914C11.7574 69.5884 16.7677 91.6976 22.0962 100.366C26.3113 107.126 31.0831 106.49 36.2525 102.911C41.4219 99.3324 59.8728 73.6444 59.8728 73.6444L61.3838 50.5013Z" fill="#F5BABE"/>
<path d="M32.0374 82.5517C32.0374 82.5517 34.6619 86.9258 34.98 90.4251C34.98 90.4251 36.2525 85.4148 33.1508 80.5635L32.0374 82.5517Z" fill="#F0989E"/>
<path d="M62.7358 50.5014C59.6342 50.1832 55.8167 50.1037 51.5221 52.8077C47.2275 55.5117 45.7165 59.2496 43.6487 62.5103C41.5809 65.771 34.4233 77.4619 34.4233 77.4619C34.4233 77.4619 37.0478 88.5165 47.5457 90.8228L63.213 69.5885L62.7358 50.5014Z" fill="#055EA8"/>
<path d="M76.7331 244.712C77.5284 244.633 78.5623 247.337 78.5623 248.212C78.5623 249.087 77.6874 250.995 76.4945 252.745C75.3015 254.495 73.711 256.721 72.6771 259.584C71.8022 262.05 70.9274 263.64 68.462 266.822C65.6785 270.4 59.157 276.365 49.2158 273.741C46.83 273.104 45.5575 272.309 44.6827 271.434C43.9669 270.719 43.5692 269.446 43.9669 268.412L76.7331 244.712Z" fill="#263238"/>
<path d="M57.2483 241.611V241.69C57.0892 242.406 57.2483 243.201 57.3278 243.917C57.6459 246.541 57.3278 249.245 56.2939 251.631C55.6577 253.301 54.7033 254.813 53.5104 256.165C52.3174 257.517 50.4087 258.948 48.8977 259.902C43.8873 263.084 43.3306 265.231 44.0464 268.492C45.7165 272.23 57.1687 274.536 63.6902 268.969C66.2351 266.742 68.2234 264.833 69.8935 260.459C71.0864 257.437 72.0408 255.687 73.2337 253.461C74.5062 251.075 76.8921 248.371 76.9716 245.905C76.9716 244.553 75.6991 242.008 74.3471 239.941C73.1542 238.032 71.9612 236.203 70.8478 236.441L71.166 237.555C70.2911 238.509 68.9391 238.827 68.2234 239.941C67.269 241.293 67.269 243.122 66.7123 244.633C66.6328 244.792 66.5532 244.951 66.3942 244.951C66.2351 245.03 66.0761 244.871 65.9965 244.712C65.917 244.553 65.917 244.394 65.917 244.235C65.917 243.44 65.8375 242.724 65.8375 241.929C65.8375 241.452 65.7579 240.974 65.5194 240.656C64.8831 239.941 63.3721 240.02 62.4972 240.02C61.3043 239.941 60.1909 240.179 59.0775 240.259C58.6798 240.259 58.3617 240.259 57.964 240.577C57.5664 240.895 57.4073 241.213 57.2483 241.611Z" fill="#37474F"/>
<path d="M40.3881 195.404C43.0125 204.073 55.4192 234.294 56.1349 236.044C56.8507 237.873 58.6003 242.008 58.6003 242.008C58.6003 242.008 60.5886 242.804 63.6107 242.247C63.8493 245.11 64.3265 249.643 64.4855 251.95C64.5651 254.574 64.8036 257.835 64.1674 260.459C63.6902 262.686 63.1335 264.993 62.7359 267.299C62.5768 268.253 62.3382 269.287 62.1792 270.241C62.0201 271.275 61.9406 272.468 62.4178 273.343C62.6563 273.82 63.054 274.138 63.3721 274.457C65.1218 275.888 67.4281 276.445 69.5754 276.286C70.7684 276.206 71.9613 275.888 72.9157 275.172C74.8244 273.82 75.5401 271.434 76.4945 269.367C77.5284 267.14 77.2103 266.901 77.2898 264.515C77.3693 262.845 77.8465 258.63 78.4827 254.256C79.119 249.882 81.982 234.453 83.334 219.024C84.2884 208.367 83.334 198.506 83.334 198.506C94.2296 169 99.0014 151.424 100.433 141.642C101.864 131.701 101.149 128.122 100.99 122.396L48.182 123.668C44.126 151.106 36.8888 183.713 40.3881 195.404Z" fill="#F5BABE"/>
<path d="M39.5927 173.613C40.7062 163.592 48.1819 125.021 48.1819 125.021H101.387C101.387 125.021 101.705 132.417 101.626 135.837C101.546 139.256 100.433 145.46 98.5241 153.333C96.6154 161.206 89.6168 183.475 88.1853 186.735C86.8333 189.996 84.2088 199.54 84.2088 199.54C85.4813 217.354 82.1411 233.419 79.5961 254.654C79.5961 254.654 78.8803 257.517 71.325 256.96C64.0083 256.403 62.4973 253.699 62.4973 253.699L62.0201 235.328C62.0201 235.328 58.0436 236.521 55.6577 235.964C55.6577 235.964 39.9109 197.074 39.1156 194.768C38.3998 192.382 38.4793 183.634 39.5927 173.613Z" fill="#055EA8"/>
<path opacity="0.45" d="M39.5927 173.613C40.7062 163.592 48.1819 125.021 48.1819 125.021H101.387C101.387 125.021 101.705 132.417 101.626 135.837C101.546 139.256 100.433 145.46 98.5241 153.333C96.6154 161.206 89.6168 183.475 88.1853 186.735C86.8333 189.996 84.2088 199.54 84.2088 199.54C85.4813 217.354 82.1411 233.419 79.5961 254.654C79.5961 254.654 78.8803 257.517 71.325 256.96C64.0083 256.403 62.4973 253.699 62.4973 253.699L62.0201 235.328C62.0201 235.328 58.0436 236.521 55.6577 235.964C55.6577 235.964 39.9109 197.074 39.1156 194.768C38.3998 192.382 38.4793 183.634 39.5927 173.613Z" fill="#64666C"/>
<path opacity="0.2" d="M62.1792 150.152C54.6239 143.392 52.9537 137.984 52.9537 137.984C58.6003 144.585 66.2352 148.641 66.2352 148.641C66.2352 148.641 59.0775 186.417 59.6342 194.211C60.1909 202.005 62.0996 235.408 62.0996 235.408C62.0996 235.726 57.0097 200.096 56.8507 197.233C56.453 189.599 62.1792 150.152 62.1792 150.152Z" fill="black"/>
<path d="M78.7213 273.502C79.437 273.741 79.3575 275.888 79.0394 276.763C78.7213 277.558 77.3693 279.149 75.6196 280.342C73.87 281.535 72.1999 283.125 70.6093 285.75C69.4959 287.579 66.5533 291.158 62.6563 293.464C58.7594 295.77 53.0332 296.645 48.7386 295.373C43.7283 293.941 43.2511 292.748 43.3306 290.84L78.7213 273.502Z" fill="#263238"/>
<path d="M63.2926 261.97C62.0201 268.333 59.7137 273.025 54.3853 276.922C50.1702 280.023 47.1481 281.614 43.7283 284.398C42.2968 285.591 42.2172 288.136 43.2511 290.84C45.5575 292.669 48.7387 293.703 53.1128 293.703C57.9641 293.703 59.7933 292.828 62.5768 290.919C64.1674 289.806 65.2808 288.851 66.3942 287.738C68.7006 285.431 70.3707 282.489 72.0408 280.66C73.7109 278.831 77.3693 276.922 78.4032 274.695C78.9599 273.502 78.7213 270.639 78.3237 268.174C78.0055 265.947 78.6418 262.05 77.6079 261.811L77.4488 263.402C77.3693 263.799 77.1307 263.959 76.4149 264.197C75.9378 264.356 74.9039 264.356 74.3472 264.277C73.7109 264.197 73.3928 264.197 72.9952 264.674C72.2794 265.549 72.1203 266.742 71.166 267.378C71.0865 267.458 71.0069 267.458 70.9274 267.458C70.8479 267.458 70.7683 267.458 70.6888 267.378C70.6093 267.299 70.6093 267.219 70.6093 267.14C70.6888 266.344 70.7683 265.549 70.8479 264.754C70.8479 264.515 70.9274 264.277 70.8479 264.038C70.7683 263.561 70.4502 263.243 70.0526 263.004C69.4163 262.607 68.621 262.288 67.9053 262.129C67.11 261.891 66.3147 261.811 65.5194 261.732C64.9627 261.811 64.0879 261.811 63.2926 261.97Z" fill="#455A64"/>
<path d="M96.6154 52.7281C96.6154 52.7281 98.8422 55.7502 100.592 61.9535C100.592 61.9535 103.932 76.1097 103.932 92.8905C103.932 106.967 102.023 129.713 102.023 129.713C85.7198 137.904 59.3956 133.053 47.8638 125.1C48.3409 122.555 48.7386 109.274 49.6134 100.525C50.2497 85.4942 50.7268 77.6208 50.8064 70.8608C51.045 57.4998 57.6459 50.5808 62.7358 50.5012L75.5401 50.7398L96.6154 52.7281Z" fill="#055EA8"/>
<path d="M100.592 125.577C98.206 127.565 93.4342 131.383 92.5594 133.371C91.5255 135.598 90.9688 138.938 90.3326 140.211C89.6963 141.483 90.6507 142.119 92.0822 141.642C93.5138 141.165 94.3091 139.972 95.4225 137.109C96.5359 134.246 99.4785 131.94 99.4785 131.94L100.592 125.577Z" fill="#F0989E"/>
<path d="M91.7641 151.663C92.3208 152.776 93.6728 152.776 94.9453 152.856C96.6949 153.015 97.7288 152.856 99.4784 152.379C101.228 151.822 102.819 150.867 103.853 149.356C105.046 147.607 105.364 145.38 106.079 143.392C107.511 139.097 111.885 136.075 112.601 131.542C112.919 129.713 112.919 127.486 113.396 126.293C113.714 125.577 120.872 113.25 123.417 107.921C125.882 102.752 127.711 100.366 125.485 94.1629C123.258 87.9596 115.702 66.248 110.294 58.6927C107.272 54.3981 102.421 53.2051 96.5358 52.6484C92.0822 64.2598 97.2516 76.2687 97.2516 76.2687L109.022 99.0142C109.022 99.0142 104.409 114.682 101.546 123.35C100.751 125.736 99.1603 127.247 97.3311 129.951C96.5358 131.144 94.7067 133.132 94.0704 134.405C93.2751 135.995 93.2751 137.029 92.8775 139.256C92.4003 142.914 91.5255 151.106 91.7641 151.663Z" fill="#F5BABE"/>
<path d="M95.9791 52.728C99.0808 52.8871 103.455 53.3643 106.159 54.7163C108.783 56.0683 110.613 57.7384 113.714 63.7826C116.736 69.9064 121.19 81.6768 121.19 81.6768C121.19 81.6768 119.679 90.5841 105.602 92.8905L96.0587 75.3144C95.9791 75.3144 91.6845 64.3393 95.9791 52.728Z" fill="#055EA8"/>
<path d="M59.3161 24.2565C59.7932 24.8928 60.0318 25.8471 60.4295 26.5629C60.9067 27.5968 61.4634 28.6306 62.1791 29.5055C64.0083 31.6528 66.5533 33.1638 68.9391 34.6749C70.3707 35.5497 71.9613 36.4245 73.7109 36.186C75.4606 35.9474 77.3693 36.345 79.1985 36.5041C81.2662 36.6631 83.334 36.9017 85.4813 37.0608L85.1632 43.6617C85.1632 43.6617 85.9585 41.9121 86.9924 39.8443C87.8672 38.0947 91.6846 28.9488 91.6846 28.9488C93.5933 24.4156 95.8201 18.4509 93.5138 13.7586C92.9571 12.6452 92.1618 11.6113 91.0484 10.9751C91.2869 10.1003 91.3665 9.46402 91.287 8.74825C90.9688 6.20331 89.6964 4.77177 87.9467 3.4993C86.1971 2.22683 84.1293 1.51106 82.0615 1.03388C79.1985 0.318118 76.3354 0 73.4723 0C70.6093 0 67.9053 0.477177 65.1217 0.954355C63.5311 1.19294 62.0201 1.43153 60.4295 1.43153C59.7932 1.43153 59.0775 1.51106 58.4412 1.352C57.6459 1.19294 56.7711 0.795296 55.9758 0.477177C55.8168 0.397648 55.6577 0.397648 55.5782 0.477177C55.4191 0.556707 55.4191 0.715766 55.3396 0.874825C54.8624 2.70401 55.4986 5.08989 56.6121 6.60095C56.1349 6.52142 55.7372 6.36237 55.5782 6.28284C55.1805 6.12378 54.8624 5.88519 54.4648 5.6466C53.8285 5.24895 53.4309 4.77177 52.9537 4.21507C52.8742 4.13554 52.7946 4.05601 52.7151 4.05601C52.5561 4.05601 52.397 4.13554 52.3175 4.2946C51.4426 5.56707 51.2041 7.15766 51.5222 8.66872C51.8403 10.1798 52.6356 11.5318 53.5899 12.7247C52.5561 14.2358 52.5561 16.3831 53.2718 18.0532C53.5899 18.769 54.0671 19.4847 54.7034 20.0415C55.4191 20.7572 56.2939 21.3935 57.0097 22.0297C57.805 22.7455 58.6798 23.3817 59.3161 24.2565Z" fill="#805700"/>
<path d="M78.3236 13.3611C78.3236 15.1108 78.5622 16.3037 78.8008 16.8604C79.1985 17.9738 79.7552 18.6896 80.5505 19.4849C81.3458 20.3597 82.3796 20.9959 83.0159 21.9503C83.8907 23.3023 84.2088 24.9724 84.3679 26.563C84.4474 27.5174 84.7655 28.5513 85.5608 29.0284C87.2309 30.0623 88.2648 28.0741 89.2192 27.0402C90.4121 25.9268 93.8319 24.6543 95.502 28.3127C97.1721 32.1301 94.0705 37.22 91.287 37.9357C86.4357 39.2877 85.4018 36.027 85.4018 36.027L84.4474 53.2054C81.7434 58.3748 75.381 59.9654 71.166 59.1701C67.5871 58.4544 65.5989 55.9094 68.9391 52.2511L69.0982 47.0021C69.0982 47.0021 64.7241 47.4793 62.6563 47.1612C59.157 46.5249 57.4074 43.5028 56.5325 39.6854C55.0215 33.5616 54.3057 27.0402 56.2144 13.2021C57.0892 12.7249 60.509 15.4289 65.758 15.747C71.0069 16.1446 75.7787 14.7926 78.3236 13.3611Z" fill="#F5BABE"/>
<path d="M69.2573 47.0018C69.2573 47.0018 77.1307 45.6498 79.9142 44.2978C81.7434 43.423 83.334 41.7529 83.8112 40.719C83.8112 40.719 83.2545 43.0254 81.5048 45.0931C79.437 47.5585 69.1777 49.0696 69.1777 49.0696L69.2573 47.0018Z" fill="#F0989E"/>
<path d="M73.3133 19.4053L76.9717 20.5188C77.2898 19.4849 76.6535 18.3715 75.6197 18.0533C74.6653 17.8148 73.5519 18.3715 73.3133 19.4053Z" fill="#263238"/>
<path d="M72.0408 36.8223L66.6328 38.6514C67.11 40.1625 68.7006 41.0373 70.2116 40.5602C71.6432 40.083 72.518 38.4129 72.0408 36.8223Z" fill="#F0989E"/>
<path d="M71.5636 38.1741C70.0526 38.1741 68.8596 39.208 68.462 40.56C69.0187 40.719 69.5754 40.719 70.1321 40.56C71.166 40.2418 71.8817 39.2875 72.0408 38.2536C71.9613 38.1741 71.7227 38.1741 71.5636 38.1741Z" fill="#F28F8F"/>
<path d="M56.9302 20.0416L60.6681 19.5644C60.5886 18.5305 59.6342 17.8147 58.6003 17.9738C57.5665 18.1328 56.8507 19.0077 56.9302 20.0416Z" fill="#263238"/>
<path d="M79.8347 21.6321L92.1618 25.8471C92.1618 25.8471 90.2531 25.6881 88.583 27.6763L79.8347 24.3361V21.6321Z" fill="#263238"/>
<path d="M58.7593 26.4039C58.7593 27.2787 59.3956 27.9149 60.1909 27.9945C60.9862 27.9945 61.7019 27.3582 61.7019 26.4834C61.7019 25.6086 61.0657 24.9724 60.2704 24.8928C59.4751 24.9724 58.7593 25.6086 58.7593 26.4039Z" fill="#263238"/>
<path d="M72.8361 26.4835C72.8361 27.3583 73.4724 27.9945 74.2677 28.0741C75.063 28.0741 75.7787 27.4378 75.7787 26.563C75.7787 25.6882 75.1425 25.0519 74.3472 24.9724C73.5519 24.9724 72.8361 25.6086 72.8361 26.4835Z" fill="#263238"/>
<path d="M51.5222 22.5068C51.6017 23.2226 52.0789 23.9383 52.3175 24.2565C52.4765 24.4155 52.5561 24.5746 52.6356 24.8927C52.9537 26.0856 53.1923 28.3125 53.749 29.5849C54.3057 30.8574 55.4987 32.8457 58.7594 32.9252C59.3956 32.9252 59.9523 32.9252 60.509 32.7661C60.5886 32.7661 60.5886 32.7661 60.6681 32.7661C61.2248 32.6071 61.702 32.448 62.0996 32.2094C62.0996 32.2094 62.1791 32.2094 62.1791 32.1299C62.2587 32.1299 62.2587 32.0504 62.3382 32.0504C62.3382 32.0504 62.4177 31.9708 62.4973 31.9708C62.5768 31.9708 62.5768 31.8913 62.6563 31.8913C62.7359 31.8118 62.7359 31.8118 62.8154 31.7322C62.8949 31.6527 62.8949 31.6527 62.9744 31.5732C63.054 31.4937 63.1335 31.4141 63.213 31.3346C63.6902 30.7779 64.0879 30.2212 64.3264 29.5849C65.0422 27.9148 64.8832 25.688 66.0761 25.3699C66.1556 25.3699 66.1556 25.3699 66.2352 25.3699C66.3147 25.3699 66.3147 25.3699 66.3942 25.3699C67.9848 25.3699 67.8257 27.9148 68.7801 29.6645C69.6549 31.4141 71.166 33.1638 74.7448 33.2433C74.9039 33.2433 75.0629 33.2433 75.222 33.2433C75.3811 33.2433 75.4606 33.2433 75.6196 33.2433C75.9378 33.2433 76.1763 33.1638 76.4945 33.0842C76.574 33.0842 76.6535 33.0842 76.7331 33.0047C76.8126 33.0047 76.8921 32.9252 76.9716 32.9252C77.0512 32.9252 77.0512 32.9252 77.1307 32.8457C77.5284 32.6866 77.7669 32.6071 78.0851 32.3685C78.1646 32.2889 78.3236 32.2094 78.4032 32.1299C78.6418 31.9708 78.8008 31.8118 78.9599 31.6527C79.5166 31.096 79.8347 30.4598 79.9938 29.9826C80.5505 28.7101 80.7095 26.4833 80.9481 25.3699C81.0277 25.0518 81.1072 24.8132 81.1867 24.7336C81.4253 24.4155 81.982 23.7793 81.982 23.0635C81.982 22.3478 81.5048 21.632 81.0277 21.632C80.7891 21.5525 80.4709 21.5525 80.1528 21.5525C77.3693 21.2343 73.7109 21.0753 71.5636 21.632C68.8596 22.3478 67.9053 23.2226 66.3942 23.2226C64.9627 23.2226 64.0879 22.2682 61.4634 21.4729C59.3956 20.8367 55.9758 20.8367 53.4309 21.0753C53.1923 21.0753 52.8742 21.1548 52.6356 21.1548C51.9198 21.1548 51.4427 21.791 51.5222 22.5068ZM69.4163 24.2565C69.5754 24.0179 69.814 23.8588 70.2116 23.6202C70.2912 23.6202 70.2912 23.5407 70.3707 23.5407C70.3707 23.5407 70.4502 23.5407 70.4502 23.4612C70.6093 23.3816 70.6888 23.3021 70.8479 23.3021C70.9274 23.2226 71.0865 23.2226 71.166 23.1431C71.4841 22.984 71.8818 22.9045 72.3589 22.7454C72.518 22.7454 72.677 22.6659 72.8361 22.6659C73.2338 22.5863 73.6314 22.5068 74.0291 22.5068C74.1086 22.5068 74.1881 22.5068 74.3472 22.5068C76.9716 22.2682 78.6418 22.9045 79.1985 23.4612C79.8347 24.0179 79.5166 26.4038 79.278 27.6762V27.7558V27.8353C79.278 27.9944 79.1985 28.1534 79.1985 28.3125C79.1985 28.392 79.1189 28.5511 79.1189 28.6306C79.0394 28.7896 79.0394 28.9487 78.9599 29.1078C78.9599 29.1873 78.8804 29.1873 78.8804 29.2668C78.8804 29.2668 78.8804 29.3464 78.8008 29.3464C78.8008 29.3464 78.8008 29.4259 78.7213 29.4259C78.7213 29.5054 78.6418 29.5054 78.6418 29.5849C78.6418 29.6645 78.5622 29.6645 78.5622 29.744C78.5622 29.8235 78.4827 29.8235 78.4827 29.9031C78.4827 29.9826 78.4032 29.9826 78.4032 30.0621C77.7669 31.0165 76.6535 31.8118 74.7448 31.8118C72.8361 31.8118 71.6432 31.1755 70.8479 30.3007C70.0526 29.5054 69.7345 28.4715 69.5754 27.8353C69.0982 26.5628 68.8596 24.9722 69.4163 24.2565ZM53.9876 22.984C54.1467 22.8249 54.3057 22.6659 54.6238 22.5863C54.6238 22.5863 54.6238 22.5863 54.7034 22.5863C54.7829 22.5863 54.8624 22.5068 55.0215 22.5068C55.101 22.5068 55.101 22.5068 55.1805 22.4273C55.2601 22.4273 55.2601 22.4273 55.3396 22.3478H55.4191C55.4987 22.3478 55.4987 22.3478 55.5782 22.3478C55.7373 22.2682 55.9758 22.2682 56.2144 22.2682C56.294 22.2682 56.453 22.2682 56.5325 22.2682C56.6121 22.2682 56.6916 22.2682 56.6916 22.2682C56.7711 22.2682 56.7711 22.2682 56.8507 22.2682C57.0097 22.2682 57.0893 22.2682 57.2483 22.2682C57.3278 22.2682 57.3278 22.2682 57.4074 22.2682C57.4869 22.2682 57.4869 22.2682 57.5664 22.2682C57.9641 22.2682 58.3617 22.3478 58.7594 22.3478C60.6681 22.5863 62.5768 23.4612 63.054 24.2565C63.5312 25.0518 63.4516 26.6424 63.213 27.9944C63.1335 28.2329 63.054 28.5511 62.9744 28.9487V29.0282V29.1078V29.1873C62.9744 29.1873 62.9744 29.2668 62.8949 29.2668C62.8949 29.3464 62.8154 29.4259 62.8154 29.5054C62.8154 29.5849 62.7359 29.6645 62.7359 29.6645V29.744C62.7359 29.8235 62.6563 29.8235 62.6563 29.9031L62.5768 29.9826C61.9406 31.0165 60.7476 31.8118 58.6799 31.7322C57.8846 31.7322 57.2483 31.4937 56.6916 31.2551C54.8624 30.3007 54.3853 28.2329 54.1467 27.2786C53.8285 25.9266 53.4309 23.4612 53.9876 22.984Z" fill="#263238"/>
<path d="M66.6328 25.3701L66.3147 35.6294L60.5886 33.9593L65.917 25.2905C66.2352 25.2905 66.3942 25.3701 66.6328 25.3701Z" fill="#F0989E"/>
</svg>
