<svg width="524" height="282" viewBox="0 0 524 282" fill="none" xmlns="http://www.w3.org/2000/svg">
<ellipse cx="262" cy="375.426" rx="262" ry="301" fill="#6495ED"/>
<mask id="mask0_1037_1138" style="mask-type:luminance" maskUnits="userSpaceOnUse" x="30" y="-31" width="453" height="363">
<rect x="30" y="-30.5742" width="452.987" height="362" fill="white"/>
</mask>
<g mask="url(#mask0_1037_1138)">
<path d="M202.009 226.706L181.884 214.378L251.313 86.7178L271.438 99.0451L202.009 226.706Z" fill="#FFB202"/>
<path d="M268.366 104.693L254.993 96.5014L255.442 95.6748L268.816 103.867L268.366 104.693Z" fill="#FFD0AF"/>
<path d="M265.013 110.859L251.639 102.667L252.088 101.841L265.462 110.033L265.013 110.859Z" fill="#FFD0AF"/>
<path d="M261.659 117.026L248.285 108.834L248.735 108.008L262.108 116.2L261.659 117.026Z" fill="#FFD0AF"/>
<path d="M258.305 123.193L244.932 115.001L245.381 114.175L258.755 122.367L258.305 123.193Z" fill="#FFD0AF"/>
<path d="M254.951 129.359L241.578 121.167L242.027 120.341L255.401 128.533L254.951 129.359Z" fill="#FFD0AF"/>
<path d="M251.598 135.526L238.224 127.334L238.674 126.508L252.047 134.7L251.598 135.526Z" fill="#FFD0AF"/>
<path d="M248.244 141.692L234.87 133.5L235.32 132.674L248.693 140.866L248.244 141.692Z" fill="#FFD0AF"/>
<path d="M244.891 147.859L231.517 139.667L231.966 138.841L245.34 147.033L244.891 147.859Z" fill="#FFD0AF"/>
<path d="M241.537 154.025L228.163 145.833L228.613 145.007L241.986 153.199L241.537 154.025Z" fill="#FFD0AF"/>
<path d="M238.183 160.192L224.809 152L225.259 151.174L238.633 159.366L238.183 160.192Z" fill="#FFD0AF"/>
<path d="M234.83 166.358L221.456 158.166L221.905 157.34L235.279 165.532L234.83 166.358Z" fill="#FFD0AF"/>
<path d="M231.476 172.525L218.102 164.333L218.552 163.507L231.925 171.699L231.476 172.525Z" fill="#FFD0AF"/>
<path d="M224.679 185.137L220.223 178.596C217.125 174.051 212.938 170.476 208.102 168.248L157.701 145.003C154.852 143.696 151.536 144.556 149.568 147.113C148.044 149.09 145.675 150.092 143.295 149.767L128.061 143.737L130.708 153.396L224.679 185.137Z" fill="#FDFFFE"/>
<mask id="mask1_1037_1138" style="mask-type:luminance" maskUnits="userSpaceOnUse" x="128" y="143" width="97" height="43">
<path fill-rule="evenodd" clip-rule="evenodd" d="M224.679 185.137L220.223 178.596C217.125 174.051 212.938 170.476 208.102 168.248L157.701 145.003C154.852 143.696 151.536 144.556 149.568 147.113C148.044 149.09 145.675 150.092 143.295 149.767L128.061 143.737L130.708 153.396L224.679 185.137Z" fill="white"/>
</mask>
<g mask="url(#mask1_1037_1138)">
<path d="M229.881 187.244L161.276 155.204L146.773 163.158L213.45 188.231L229.881 187.244Z" fill="#FDFFFE" stroke="#3F3C3F" stroke-width="1.09172" stroke-linecap="round" stroke-linejoin="round"/>
</g>
<path fill-rule="evenodd" clip-rule="evenodd" d="M224.679 185.137L220.223 178.596C217.125 174.051 212.938 170.476 208.102 168.248L157.701 145.003C154.852 143.696 151.536 144.556 149.568 147.113V147.113C148.044 149.09 145.675 150.092 143.295 149.767L128.061 143.737L130.708 153.396L224.679 185.137Z" stroke="#3F3C3F" stroke-width="1.09172" stroke-linecap="round" stroke-linejoin="round"/>
<ellipse cx="3.14909" cy="3.20798" rx="3.14909" ry="3.20798" transform="matrix(0.812554 -0.582886 0.534644 0.845078 149.835 152.467)" fill="#FDFFFE" stroke="#3F3C3F" stroke-width="1.09172" stroke-linecap="round" stroke-linejoin="round"/>
<path fill-rule="evenodd" clip-rule="evenodd" d="M130.27 154.321C124.044 152.153 117.133 152.956 111.685 156.879C106.327 160.756 99.5893 161.771 93.4344 159.629C82.0499 155.666 76.0917 142.257 80.656 130.203C84.3996 120.315 94.4326 114.512 104.217 116.632C111.686 118.251 117.218 123.747 119.619 130.584C121.94 137.193 126.754 142.451 133.055 144.645L134.72 145.224L131.727 154.828L130.27 154.321ZM104.232 125.968C97.4451 123.754 90.2275 127.825 88.111 135.062C87.0911 138.527 87.4105 142.284 88.9983 145.497C90.5861 148.711 93.3109 151.115 96.5674 152.175C103.354 154.39 110.572 150.318 112.688 143.081C113.708 139.616 113.389 135.859 111.801 132.646C110.213 129.433 107.488 127.029 104.232 125.968Z" fill="#EA7396"/>
<path d="M166.645 233.674L161.717 227.529C158.293 223.26 156.008 218.087 155.102 212.553L145.647 154.891C145.119 151.632 146.678 148.394 149.468 146.953C151.626 145.836 153.093 143.613 153.352 141.07L151.403 123.873L159.598 128.869L166.645 233.674Z" fill="#FDFFFE"/>
<path fill-rule="evenodd" clip-rule="evenodd" d="M166.645 233.673L161.717 227.529C158.293 223.26 156.008 218.087 155.102 212.553L145.647 154.891C145.119 151.632 146.678 148.394 149.468 146.953V146.953C151.626 145.836 153.093 143.613 153.352 141.07L151.403 123.873L159.598 128.869L166.645 233.673Z" stroke="#3F3C3F" stroke-width="1.09172" stroke-linecap="round" stroke-linejoin="round"/>
<path fill-rule="evenodd" clip-rule="evenodd" d="M160.543 128.631L160.666 130.259L151.207 131.122L151.066 129.261C150.534 122.218 146.86 116.003 141.371 112.055C135.694 107.973 131.969 100.958 132.234 92.8383C132.581 82.2022 140.215 73.1558 150.108 71.5807C162.17 69.6602 173.013 78.9624 173.975 91.687C174.493 98.5675 171.995 105.316 167.21 109.963C162.361 114.695 160.017 121.672 160.543 128.631ZM151.547 79.4327C144.473 80.2199 139.306 86.9597 140.008 94.4869V94.4869C140.71 102.014 147.014 107.477 154.088 106.69C161.163 105.903 166.329 99.1633 165.627 91.6364C164.925 84.1093 158.622 78.6457 151.547 79.4327Z" fill="#EA7396"/>
<path d="M177.264 47.2522L180.628 17.866C180.862 15.8215 183.496 15.4314 184.227 17.333L194.726 44.6655L217.661 226.984C218.085 230.429 215.823 233.594 212.597 234.069L206.827 234.924C205.282 235.157 203.713 234.723 202.469 233.719C201.224 232.714 200.407 231.221 200.198 229.571L177.264 47.2522Z" fill="#8A8A6E"/>
<mask id="mask2_1037_1138" style="mask-type:luminance" maskUnits="userSpaceOnUse" x="177" y="16" width="41" height="219">
<path fill-rule="evenodd" clip-rule="evenodd" d="M177.264 47.2522L180.628 17.866C180.862 15.8215 183.496 15.4314 184.227 17.333L194.726 44.6655L217.661 226.984C218.085 230.429 215.823 233.594 212.597 234.069L206.827 234.924C205.282 235.157 203.713 234.723 202.469 233.719C201.224 232.714 200.407 231.221 200.198 229.571L177.264 47.2522Z" fill="white"/>
</mask>
<g mask="url(#mask2_1037_1138)">
<ellipse cx="10.0297" cy="10.2172" rx="10.0297" ry="10.2172" transform="matrix(0.812554 -0.582886 0.534644 0.845078 169.467 12.0127)" fill="#3F3C3F"/>
</g>
<path d="M199.839 85.3076L206.354 137.099L199.839 85.3076Z" fill="#FDFFFE"/>
<path d="M199.839 85.3076L206.354 137.099" stroke="#3F3C3F" stroke-width="1.09172" stroke-linecap="round" stroke-linejoin="round"/>
<path d="M198.463 215.78L215.926 213.193L212.474 185.754L195.012 188.341L198.463 215.78Z" fill="#FFD0AF"/>
<path d="M195.124 198.622L198.598 227.666C198.84 229.687 196.751 230.486 195.744 228.758L181.271 203.919L123.584 30.7176C122.497 27.4546 123.693 24.0155 126.254 23.0359L130.831 21.2855C133.393 20.306 136.35 22.1571 137.437 25.42L195.124 198.622Z" fill="#FDFFFE" stroke="#3F3C3F" stroke-width="1.09172" stroke-linecap="round" stroke-linejoin="round"/>
<path d="M195.741 195.812L179.133 202.163L126.57 44.3463L143.178 37.9951L195.741 195.812Z" fill="#AC7F8D"/>
<path d="M143.178 37.9951L126.57 44.3463L135.252 70.4137L151.86 64.0626L143.178 37.9951Z" fill="#FFD0AF"/>
<path d="M148.003 40.4531L144.449 41.812L145.707 45.5876L149.261 44.2288L162.943 85.3078L164.495 84.7142L150.105 41.5088C149.958 41.0709 149.654 40.7134 149.259 40.5153C148.865 40.3172 148.413 40.2948 148.003 40.4531V40.4531Z" fill="#FFD0AF"/>
<path d="M243.489 273.476L243.537 263.863C242.284 265.895 232.229 267.655 217.601 268.669C209.202 269.252 199.304 269.589 188.701 269.589C178.098 269.589 168.204 269.252 159.81 268.669C145.192 267.655 135.155 265.895 133.923 263.863L133.875 273.476C133.788 273.6 133.737 273.747 133.727 273.901C133.71 277.299 158.299 280.053 188.649 280.053C218.998 280.053 243.615 277.299 243.632 273.901C243.624 273.748 243.574 273.6 243.489 273.476Z" fill="#B8B7CB"/>
<path d="M243.541 263.012L244.027 166.02H134.413L133.927 263.012C133.841 263.135 133.789 263.283 133.779 263.437C133.788 263.591 133.837 263.739 133.923 263.863C135.155 265.895 145.192 267.655 159.81 268.669C168.204 269.251 178.098 269.588 188.701 269.588C199.304 269.588 209.202 269.251 217.601 268.669C232.229 267.655 242.284 265.895 243.537 263.863C243.732 263.618 243.734 263.259 243.541 263.012H243.541Z" fill="#FDFFFE"/>
<path fill-rule="evenodd" clip-rule="evenodd" d="M243.541 263.012L244.027 166.02H134.413L133.927 263.012C133.841 263.135 133.789 263.283 133.779 263.437C133.788 263.591 133.837 263.739 133.923 263.863C135.155 265.895 145.192 267.655 159.81 268.669C168.204 269.251 178.098 269.588 188.701 269.588C199.304 269.588 209.202 269.251 217.601 268.669C232.229 267.655 242.284 265.895 243.537 263.863C243.732 263.618 243.734 263.259 243.541 263.012H243.541Z" stroke="#3F3C3F" stroke-width="1.09172" stroke-linecap="round" stroke-linejoin="round"/>
<path d="M168.342 129.459L165.844 132.983" stroke="#3F3C3F" stroke-width="1.09172" stroke-linecap="round" stroke-linejoin="round"/>
<path d="M215.888 236.103C212.035 240.999 207.204 244.914 201.748 247.558" stroke="#3F3C3F" stroke-width="1.09172" stroke-linecap="round" stroke-linejoin="round"/>
<path d="M134.008 217.805L134.172 185.137L134.008 217.805Z" fill="#FDFFFE"/>
<path d="M134.008 217.805L134.172 185.137" stroke="#3F3C3F" stroke-width="1.09172" stroke-linecap="round" stroke-linejoin="round"/>
<path d="M271.438 99.0449L238.183 160.192" stroke="#3F3C3F" stroke-width="1.09172" stroke-linecap="round" stroke-linejoin="round"/>
<path d="M80.656 130.202C76.0917 142.256 82.0499 155.665 93.4344 159.629C99.5893 161.77 106.327 160.755 111.685 156.878" stroke="#3F3C3F" stroke-width="1.09172" stroke-linecap="round" stroke-linejoin="round"/>
<path d="M189.401 143.737L177.264 47.2529" stroke="#3F3C3F" stroke-width="1.09172" stroke-linecap="round" stroke-linejoin="round"/>
<path d="M126.57 44.3457L135.252 70.4131" stroke="#3F3C3F" stroke-width="1.09172" stroke-linecap="round" stroke-linejoin="round"/>
<path d="M133.727 273.901C133.71 277.299 158.299 280.053 188.649 280.053" stroke="#3F3C3F" stroke-width="1.09172" stroke-linecap="round" stroke-linejoin="round"/>
<path d="M421.736 286.257H253.973L255.228 35.9453H422.99L421.736 286.257Z" fill="#FFD0AF"/>
<mask id="mask3_1037_1138" style="mask-type:luminance" maskUnits="userSpaceOnUse" x="253" y="35" width="170" height="252">
<path fill-rule="evenodd" clip-rule="evenodd" d="M421.736 286.257H253.973L255.228 35.9453H422.99L421.736 286.257Z" fill="white"/>
</mask>
<g mask="url(#mask3_1037_1138)">
<path d="M415.701 279.929H261.508L262.762 29.6172H416.956L415.701 279.929Z" fill="#FFD0AF"/>
</g>
<path d="M292.685 73.914L278.218 61.2577L255.228 35.9453H422.99L399.747 61.2577L292.685 73.914Z" fill="#FFD0AF"/>
<path d="M296.558 223.68L277.217 260.945L253.973 286.258H421.736L398.746 260.945L296.558 223.68Z" fill="#FFD0AF"/>
<path d="M398.746 260.945H277.217L278.218 61.2578H399.747L398.746 260.945Z" fill="#F9B472"/>
<mask id="mask4_1037_1138" style="mask-type:luminance" maskUnits="userSpaceOnUse" x="277" y="61" width="123" height="200">
<path fill-rule="evenodd" clip-rule="evenodd" d="M398.746 260.945H277.217L278.218 61.2578H399.747L398.746 260.945Z" fill="white"/>
</mask>
<g mask="url(#mask4_1037_1138)">
<path d="M394.329 254.617H272.8L273.801 54.9297H395.33L394.329 254.617Z" fill="white" stroke="#3F3C3F" stroke-width="1.09172" stroke-linecap="round" stroke-linejoin="round"/>
</g>
<path d="M373.664 154.773H303.363C302.584 154.775 301.836 154.445 301.286 153.856C300.736 153.268 300.429 152.469 300.433 151.638L300.437 150.878C300.449 149.142 301.771 147.742 303.398 147.742H373.699C374.479 147.74 375.226 148.07 375.776 148.659C376.326 149.248 376.633 150.047 376.629 150.878L376.625 151.638C376.613 153.373 375.291 154.773 373.664 154.773Z" fill="white" stroke="#3F3C3F" stroke-width="1.09172" stroke-linecap="round" stroke-linejoin="round"/>
<path d="M366.133 173.055H310.71C309.931 173.056 309.184 172.726 308.633 172.138C308.083 171.549 307.776 170.75 307.781 169.919L307.784 169.159C307.797 167.424 309.119 166.024 310.746 166.023H366.169C366.948 166.022 367.695 166.352 368.245 166.94C368.796 167.529 369.103 168.328 369.098 169.159L369.095 169.919C369.082 171.654 367.76 173.055 366.133 173.055Z" fill="white" stroke="#3F3C3F" stroke-width="1.09172" stroke-linecap="round" stroke-linejoin="round"/>
<path d="M371.929 186.414H304.781C304.002 186.416 303.254 186.086 302.704 185.497C302.154 184.908 301.847 184.11 301.851 183.278L301.855 182.519C301.867 180.783 303.189 179.383 304.816 179.383H371.964C372.743 179.381 373.491 179.711 374.041 180.3C374.591 180.889 374.898 181.687 374.894 182.519L374.89 183.278C374.878 185.014 373.556 186.414 371.929 186.414Z" fill="white" stroke="#3F3C3F" stroke-width="1.09172" stroke-linecap="round" stroke-linejoin="round"/>
<path d="M357.315 227.195H318.986C318.112 227.197 317.274 226.827 316.657 226.167C316.041 225.507 315.696 224.612 315.701 223.68C315.715 221.734 317.197 220.164 319.021 220.164H357.35C358.224 220.162 359.062 220.532 359.679 221.192C360.296 221.852 360.64 222.748 360.635 223.68C360.622 225.626 359.139 227.195 357.315 227.195Z" fill="white" stroke="#3F3C3F" stroke-width="1.09172" stroke-linecap="round" stroke-linejoin="round"/>
<path d="M339.315 104.966L336.589 109.699" stroke="#3F3C3F" stroke-width="1.09172" stroke-linecap="round" stroke-linejoin="round"/>
<path d="M395.479 272.466L391.572 276.547" stroke="#3F3C3F" stroke-width="1.09172" stroke-linecap="round" stroke-linejoin="round"/>
<path d="M253.973 286.257L255.228 35.9453" stroke="#3F3C3F" stroke-width="1.09172" stroke-linecap="round" stroke-linejoin="round"/>
<path d="M251.462 275.275C256.376 252.503 253.908 157.551 280.98 160.593C285.108 166.443 308.235 199.219 314.83 208.567C315.949 210.153 316.235 210.558 316.457 210.874C316.437 210.762 329.384 280.71 329.43 280.957L251.462 275.275Z" fill="#49ACDC"/>
<mask id="mask5_1037_1138" style="mask-type:luminance" maskUnits="userSpaceOnUse" x="251" y="160" width="79" height="121">
<path fill-rule="evenodd" clip-rule="evenodd" d="M251.462 275.275C256.376 252.503 253.908 157.551 280.98 160.593C285.108 166.443 308.235 199.219 314.83 208.567C315.949 210.153 316.235 210.558 316.457 210.874C316.437 210.762 329.384 280.71 329.43 280.957L251.462 275.275Z" fill="white"/>
</mask>
<g mask="url(#mask5_1037_1138)">
<path d="M288.326 200.449C266.077 206.605 310.401 295.386 260.389 284.334C347.773 298.774 318.558 291.418 300.848 206.869C298.751 196.445 296.792 194.012 288.823 180.659" fill="#2B8ACD"/>
</g>
<path d="M402.806 283.325L373.493 145.525C373.493 145.525 315.063 142.956 276.81 160.951L299.787 283.325L402.806 283.325Z" fill="#49ACDC"/>
<mask id="mask6_1037_1138" style="mask-type:luminance" maskUnits="userSpaceOnUse" x="276" y="145" width="127" height="139">
<path fill-rule="evenodd" clip-rule="evenodd" d="M402.806 283.325L373.493 145.525C373.493 145.525 315.063 142.956 276.81 160.951L299.787 283.325L402.806 283.325Z" fill="white"/>
</mask>
<g mask="url(#mask6_1037_1138)">
<path d="M347.125 154.348C339.992 186.548 290.701 196.584 297.594 154.347C304.728 122.147 354.019 112.111 347.125 154.348Z" fill="white"/>
<path d="M348.459 148.823C341.327 181.024 292.036 191.06 298.928 148.822C306.062 116.622 355.353 106.586 348.459 148.823Z" fill="#FDFFFE" stroke="#3F3C3F" stroke-width="1.09172" stroke-linecap="round" stroke-linejoin="round"/>
<path d="M376.935 184.424C361.748 187.858 401.375 244.171 339.908 235.997C317.811 233.058 335.532 233.404 335.532 233.404C331.968 262.604 402.535 271.639 403.154 284.194C407.587 293.636 409.722 235.25 409.878 232.234C410.951 234.081 380.602 160.262 380.523 159.73" fill="#2B8ACD"/>
</g>
<path d="M339.698 149.682C337.604 143.799 332.137 134.616 327.713 117.016L305.628 132.117C305.627 131.686 305.651 142.128 305.674 152.635" fill="#FDFFFE"/>
<path d="M339.698 149.682C337.604 143.799 332.137 134.616 327.713 117.016L305.628 132.117C305.627 131.686 305.651 142.128 305.674 152.635" stroke="#3F3C3F" stroke-width="1.09172" stroke-linecap="round" stroke-linejoin="round"/>
<path d="M325.043 115.952C324.091 101.985 323.995 104.921 313.505 91.4297C311.152 80.7792 289.907 96.0062 284.047 96.1568C280.693 140.637 304.185 151.997 318.437 134.256" fill="#FDFFFE"/>
<path d="M325.043 115.952C324.091 101.985 323.995 104.921 313.505 91.4297C311.152 80.7792 289.907 96.0062 284.047 96.1568C280.693 140.637 304.185 151.997 318.437 134.256" stroke="#3F3C3F" stroke-width="1.09172" stroke-linecap="round" stroke-linejoin="round"/>
<path d="M321.557 116.671C305.008 106.349 309.176 95.9856 309.176 95.9856C252.003 138.863 253.31 65.0977 297.673 75.4493C297.673 75.4493 324.812 51.7301 325.708 85.1211C349.071 85.8314 325.828 130.66 321.557 116.671Z" fill="#FFBED0"/>
<mask id="mask7_1037_1138" style="mask-type:luminance" maskUnits="userSpaceOnUse" x="265" y="67" width="71" height="53">
<path fill-rule="evenodd" clip-rule="evenodd" d="M321.557 116.671C305.008 106.349 309.176 95.9856 309.176 95.9856C252.003 138.863 253.31 65.0977 297.673 75.4493C297.673 75.4493 324.812 51.7301 325.708 85.1211C349.071 85.8314 325.828 130.66 321.557 116.671Z" fill="white"/>
</mask>
<g mask="url(#mask7_1037_1138)">
<path d="M296.018 66.1061L297.673 75.4496C297.673 75.4496 296.577 85.1232 302.823 75.9426C309.069 66.7619 307.465 63.0459 307.465 63.0459" fill="#3F3C3F"/>
</g>
<path d="M313.347 111.001C327.851 95.3942 339.669 117.176 318.393 124.413L313.347 111.001Z" fill="#FDFFFE"/>
<path d="M313.347 111.001C327.851 95.3942 339.669 117.176 318.393 124.413" stroke="#3F3C3F" stroke-width="1.09172" stroke-linecap="round" stroke-linejoin="round"/>
<path d="M302.146 284.745C302.111 284.682 222.644 284.791 193.854 284.745C183.109 284.073 184.618 286.87 182.51 281.752C176.628 261.459 142.454 203.423 155.455 203.63C298.776 208.188 252.279 176.821 302.146 284.745Z" fill="#F5B63F"/>
<path d="M349.064 278.84H179.84L182.969 284.746H358.355C357.063 282.006 355.011 279.909 349.064 278.84Z" fill="#FDFFFE" stroke="#3F3C3F" stroke-width="1.09172" stroke-linecap="round" stroke-linejoin="round"/>
<path d="M299.482 284.745C299.447 284.682 219.98 284.791 191.19 284.745C180.445 284.073 181.953 286.87 179.846 281.752C173.963 261.459 139.79 203.423 152.791 203.63C296.112 208.188 249.615 176.821 299.482 284.745Z" fill="#FDB80B"/>
<mask id="mask8_1037_1138" style="mask-type:luminance" maskUnits="userSpaceOnUse" x="149" y="202" width="151" height="83">
<path fill-rule="evenodd" clip-rule="evenodd" d="M299.482 284.745C299.447 284.682 219.98 284.791 191.19 284.745C180.445 284.073 181.953 286.87 179.846 281.752C173.963 261.459 139.79 203.423 152.791 203.63C296.112 208.188 249.615 176.821 299.482 284.745Z" fill="white"/>
</mask>
<g mask="url(#mask8_1037_1138)">
<path d="M163.071 271.796L302.146 284.745C302.146 284.745 176.879 295.841 175.219 295.403C173.559 294.966 157.99 277.213 157.99 277.213" fill="#FC9905"/>
</g>
<path d="M230.422 241.58C234.795 255.778 213.782 252.519 209.462 241.579C205.088 227.382 226.101 230.641 230.422 241.58Z" fill="white"/>
<path d="M396.931 255.705H439.388C439.3 255.55 404.782 169.613 402.366 163.653C399.746 151.121 378.459 143.24 364.248 145.402L396.931 255.705Z" fill="#49ACDC"/>
<path d="M297.261 251.107C297.261 251.107 299.144 259.364 316.579 243.645C304.956 262.593 353.264 268.012 334.371 257.415C350.05 244.507 374.803 263.682 409.353 276.88C428.769 291.059 454.815 276.18 436.324 252.149C392.786 235.365 355.389 236.235 319.861 232.149C315.083 230.407 297.983 250.662 297.261 251.107Z" fill="#FDFFFE"/>
<path fill-rule="evenodd" clip-rule="evenodd" d="M297.261 251.107C297.261 251.107 299.144 259.364 316.579 243.645C304.956 262.593 353.264 268.012 334.371 257.415C350.05 244.507 374.803 263.682 409.353 276.88C428.769 291.059 454.815 276.18 436.324 252.149C392.786 235.365 355.389 236.235 319.861 232.149C315.083 230.407 297.983 250.662 297.261 251.107Z" stroke="#3F3C3F" stroke-width="1.09172" stroke-linecap="round" stroke-linejoin="round"/>
<path d="M318.396 111.374C322.666 106.409 325.482 112.433 322.882 115.85C320.281 119.267 321.211 112.176 318.396 111.374Z" fill="#3F3C3F"/>
<path d="M307.678 205.093C316.887 221.632 330.947 215.472 330.947 215.472L307.678 205.093Z" fill="#2B8ACD"/>
<ellipse cx="1.57491" cy="1.60437" rx="1.57491" ry="1.60437" transform="matrix(0.812554 -0.582886 0.534644 0.845078 287.107 117.649)" fill="#3F3C3F"/>
<ellipse cx="1.57491" cy="1.60437" rx="1.57491" ry="1.60437" transform="matrix(0.812554 -0.582886 0.534644 0.845078 300.645 114.654)" fill="#3F3C3F"/>
<path d="M295.54 115.156C295.711 119.477 295.774 120.75 295.774 120.75C289.285 122.385 296.715 126.714 296.715 126.714" fill="#FDFFFE"/>
<path d="M295.54 115.156C295.711 119.477 295.774 120.75 295.774 120.75C289.285 122.385 296.715 126.714 296.715 126.714" stroke="#3F3C3F" stroke-width="1.09172" stroke-linecap="round" stroke-linejoin="round"/>
<path d="M300.875 126.581C300.9 128.08 299.935 129.391 298.564 129.72L300.875 126.581Z" fill="#FDFFFE"/>
<path d="M300.875 126.581C300.9 128.08 299.935 129.391 298.564 129.72" stroke="#3F3C3F" stroke-width="1.09172" stroke-linecap="round" stroke-linejoin="round"/>
<path d="M321.432 115.238L324.169 111.669L321.432 115.238Z" fill="#FDFFFE"/>
<path d="M321.432 115.238L324.169 111.669" stroke="#3F3C3F" stroke-width="1.09172" stroke-linecap="round" stroke-linejoin="round"/>
<path d="M376.935 184.425L388.448 226.546" stroke="#3F3C3F" stroke-width="1.09172" stroke-linecap="round" stroke-linejoin="round"/>
<path d="M172.762 204.064L209.039 203.752" stroke="#3F3C3F" stroke-width="1.09172" stroke-linecap="round" stroke-linejoin="round"/>
<path d="M287.791 88.0352C286.578 91.5475 283.611 94.3183 280.184 95.1391" stroke="#3F3C3F" stroke-width="1.09172" stroke-linecap="round" stroke-linejoin="round"/>
<path d="M70.762 185.656C100.26 159.676 113.875 166.721 117.421 201.948C120.967 237.175 160.576 174.648 167.415 212.957C174.255 251.266 199.482 252.147 209.462 241.579C219.443 231.011 225.616 237.176 225.616 237.176" stroke="#3F3C3F" stroke-width="1.09172" stroke-linecap="round" stroke-linejoin="round"/>
<path fill-rule="evenodd" clip-rule="evenodd" d="M212.905 61.3085C212.867 68.8731 218.618 75.0272 225.724 75.0272C232.829 75.0272 238.64 68.8731 238.678 61.3085C238.716 53.744 232.967 47.5898 225.861 47.5898C218.755 47.5898 212.943 53.744 212.905 61.3085ZM221.719 61.3085C221.739 58.9102 223.566 56.9763 225.814 56.9734H225.814C226.891 56.9723 227.924 57.4291 228.684 58.2428C229.444 59.0564 229.869 60.1598 229.864 61.3085C229.845 63.7066 228.019 65.6406 225.771 65.6437C224.694 65.6448 223.661 65.188 222.9 64.3744C222.14 63.5608 221.715 62.4574 221.719 61.3085Z" fill="#29315A"/>
</g>
</svg>
