<svg width="24" height="24" viewBox="0 0 24 24" fill="none" xmlns="http://www.w3.org/2000/svg">
<path d="M7.25 10.2505C7.25 9.83649 7.586 9.50049 8 9.50049H16C16.414 9.50049 16.75 9.83649 16.75 10.2505C16.75 10.6645 16.414 11.0005 16 11.0005H8C7.586 11.0005 7.25 10.6645 7.25 10.2505ZM9 8.00049H15C15.414 8.00049 15.75 7.66449 15.75 7.25049C15.75 6.83649 15.414 6.50049 15 6.50049H9C8.586 6.50049 8.25 6.83649 8.25 7.25049C8.25 7.66449 8.586 8.00049 9 8.00049ZM22 13.7375V16.2505C22 18.7315 19.981 20.7505 17.5 20.7505H6.5C4.019 20.7505 2 18.7315 2 16.2505V13.7375C2 13.3055 2.06902 12.8794 2.20502 12.4714L4.14001 6.66846C4.82201 4.62346 6.728 3.24951 8.883 3.24951H15.117C17.272 3.24951 19.179 4.62346 19.86 6.66846L21.795 12.4714C21.931 12.8794 22 13.3065 22 13.7375ZM4.22101 12.7505H9C9.276 12.7505 9.5 12.9745 9.5 13.2505C9.5 14.6295 10.622 15.7505 12 15.7505C13.378 15.7505 14.5 14.6295 14.5 13.2505C14.5 12.9745 14.724 12.7505 15 12.7505H19.779L17.963 7.30249C17.554 6.07449 16.41 5.25049 15.117 5.25049H8.883C7.59 5.25049 6.44599 6.07449 6.03699 7.30249L4.22101 12.7505Z" fill="#044E8C"/>
</svg>
