<svg width="19" height="25" viewBox="0 0 19 25" fill="none" xmlns="http://www.w3.org/2000/svg">
<path d="M18.0506 0.5H13.3033C13.0515 0.5 12.81 0.59365 12.632 0.760349C12.4539 0.927049 12.3539 1.15314 12.3539 1.38889C12.3539 1.62464 12.4539 1.85073 12.632 2.01743C12.81 2.18413 13.0515 2.27778 13.3033 2.27778H15.7588L12.774 5.07222C11.8976 4.30754 10.8404 3.7478 9.68874 3.43871C8.53711 3.12963 7.32371 3.07996 6.14766 3.29376C4.97161 3.50757 3.86626 3.97879 2.92189 4.66893C1.97751 5.35908 1.2209 6.24857 0.713853 7.26477C0.206803 8.28096 -0.0363062 9.39503 0.00438258 10.516C0.0450713 11.637 0.368403 12.733 0.947971 13.7146C1.52754 14.6963 2.3469 15.5356 3.33914 16.1641C4.33138 16.7927 5.46835 17.1925 6.65719 17.3311V19.1667H3.80885C3.55704 19.1667 3.31555 19.2603 3.13749 19.427C2.95944 19.5937 2.85941 19.8198 2.85941 20.0556C2.85941 20.2913 2.95944 20.5174 3.13749 20.6841C3.31555 20.8508 3.55704 20.9444 3.80885 20.9444H6.65719V23.6111C6.65719 23.8469 6.75722 24.073 6.93528 24.2397C7.11334 24.4063 7.35483 24.5 7.60664 24.5C7.85845 24.5 8.09994 24.4063 8.278 24.2397C8.45606 24.073 8.55609 23.8469 8.55609 23.6111V20.9444H11.4044C11.6562 20.9444 11.8977 20.8508 12.0758 20.6841C12.2538 20.5174 12.3539 20.2913 12.3539 20.0556C12.3539 19.8198 12.2538 19.5937 12.0758 19.427C11.8977 19.2603 11.6562 19.1667 11.4044 19.1667H8.55609V17.3311C9.82873 17.1823 11.0403 16.7338 12.0775 16.0276C13.1148 15.3214 13.9439 14.3805 14.4873 13.2928C15.0307 12.2052 15.2707 11.0063 15.1848 9.80831C15.099 8.61027 14.6901 7.45216 13.9964 6.44222L17.1011 3.53444V5.83333C17.1011 6.06908 17.2011 6.29517 17.3792 6.46187C17.5572 6.62857 17.7987 6.72222 18.0506 6.72222C18.3024 6.72222 18.5439 6.62857 18.7219 6.46187C18.9 6.29517 19 6.06908 19 5.83333V1.38889C19 1.15314 18.9 0.927049 18.7219 0.760349C18.5439 0.59365 18.3024 0.5 18.0506 0.5ZM7.60664 15.6111C6.47994 15.6111 5.37855 15.2983 4.44173 14.7123C3.50492 14.1262 2.77476 13.2933 2.3436 12.3188C1.91243 11.3442 1.79961 10.2719 2.01942 9.2373C2.23923 8.20273 2.78178 7.25242 3.57848 6.50654C4.37517 5.76066 5.39023 5.25271 6.49527 5.04692C7.60032 4.84114 8.74573 4.94675 9.78666 5.35042C10.8276 5.75409 11.7173 6.43767 12.3433 7.31474C12.9692 8.1918 13.3033 9.22294 13.3033 10.2778C13.3017 11.6918 12.7011 13.0475 11.6331 14.0474C10.5651 15.0473 9.11701 15.6096 7.60664 15.6111Z" fill="#055EA8"/>
</svg>
