<svg width="462" height="720" viewBox="0 0 462 720" fill="none" xmlns="http://www.w3.org/2000/svg">
<path opacity="0.2" d="M789.404 644.286C815.273 567.594 811.159 489.601 777.815 424.704C712.364 297.3 704.14 204.503 698.134 136.742C692.1 68.722 688.465 27.6679 628.36 9.08308C544.228 -16.9402 496.046 24.2368 445.049 67.8366C393.866 111.583 340.933 156.818 246.127 142.764C172.867 131.893 113.857 133.587 70.7328 147.774C32.6403 160.311 8.95849 182.287 2.25699 211.344C-8.86887 259.524 28.5042 318.983 97.4895 362.837C171.79 410.067 194.907 462.561 224.179 529.017C250.17 588.009 281.722 659.648 359.078 749.013C369.801 761.402 381.406 774.144 393.994 787.219C434.346 829.155 479.851 851.995 529.248 855.111C573.136 857.87 618.675 844.417 660.926 816.202C718.749 777.59 765.574 714.936 789.404 644.286ZM658.835 813.277C569.076 873.221 470.889 862.658 396.193 785.033C293.315 678.117 256.638 594.894 227.185 528.03C208.191 484.92 191.771 447.628 162.464 413.767C146.163 394.933 125.857 377.145 98.9176 360.027C31.3938 317.1 -5.2709 259.222 5.49598 212.576C19.7735 150.732 109.739 125.892 246.146 146.124C342.311 160.387 395.734 114.729 447.392 70.5705C497.781 27.4968 545.375 -13.1847 627.848 12.3239C685.385 30.1182 688.737 67.9204 694.819 136.544C700.853 204.604 709.112 297.828 774.917 425.909C807.799 489.912 811.817 566.927 786.237 642.777C762.61 712.847 716.168 774.995 658.835 813.277ZM762.632 421.543C700.699 300.98 692.91 213.159 687.229 149.045C681.52 84.6317 678.078 45.7507 621.125 28.1369C541.446 3.49256 495.84 42.4796 447.552 83.7482C399.125 125.15 349.04 167.947 259.36 154.649C128.643 135.262 42.3344 159.547 28.4613 219.615C17.9228 265.256 53.3159 321.572 118.634 363.099C188.928 407.784 210.809 457.447 238.511 520.326C263.105 576.155 292.972 643.966 366.188 728.56C376.339 740.288 387.332 752.349 399.241 764.72C437.451 804.435 480.539 826.058 527.318 829.005C568.879 831.626 611.981 818.883 651.991 792.177C706.725 755.62 751.05 696.313 773.601 629.433C798.1 556.819 794.2 482.985 762.632 421.543ZM649.892 789.245C564.98 845.949 472.098 835.96 401.441 762.534C304.078 661.35 269.385 582.61 241.51 519.331C223.532 478.53 207.98 443.23 180.238 411.176C164.796 393.334 145.58 376.499 120.069 360.283C56.1989 319.682 21.5207 264.954 31.7069 220.842C45.208 162.36 130.32 138.869 259.365 158.007C350.425 171.511 400.992 128.282 449.895 86.482C497.569 45.7319 542.599 7.24235 620.613 31.3778C674.998 48.201 678.164 83.9451 683.921 148.841C689.63 213.268 697.453 301.502 759.734 422.747C790.84 483.297 794.645 556.165 770.441 627.918C748.08 694.216 704.144 753.025 649.892 789.245ZM747.449 418.367C689.034 304.66 681.687 221.824 676.331 161.342C670.94 100.528 667.685 63.8257 613.884 47.1831C538.67 23.9196 495.628 60.7147 450.062 99.6674C404.384 138.704 357.153 179.071 272.586 166.526C149.231 148.234 67.7622 171.168 54.6723 227.881C44.7144 270.975 78.1275 324.149 139.785 363.355C206.073 405.495 226.711 452.333 252.829 511.632C276.033 564.307 304.223 628.296 373.299 708.107C382.877 719.174 393.238 730.545 404.482 742.227C440.556 779.714 481.234 800.128 525.38 802.905C564.601 805.372 605.293 793.356 643.048 768.145C694.695 733.655 736.52 677.682 757.806 614.575C780.921 546.05 777.241 476.37 747.449 418.367ZM640.95 765.213C559.688 819.484 474.298 810.301 406.681 740.028C314.841 644.597 282.126 570.319 255.828 510.637C238.866 472.132 224.196 438.826 198.012 408.571C183.441 391.737 165.309 375.847 141.233 360.542C81.0171 322.266 48.3123 270.672 57.9179 229.107C70.6491 173.982 150.901 151.846 272.599 169.891C358.538 182.634 406.258 141.844 452.405 102.401C497.363 63.9747 539.83 27.6771 613.372 50.424C664.611 66.2703 667.591 99.9697 673.016 161.145C678.407 221.932 685.788 305.182 744.557 419.579C773.888 476.676 777.472 545.39 754.645 613.059C733.557 675.593 692.114 731.046 640.95 765.213ZM732.266 415.206C677.368 308.34 670.464 230.488 665.426 173.646C660.359 116.438 657.298 81.9084 606.649 66.237C535.901 44.3544 495.416 78.9498 452.566 115.579C409.65 152.265 365.273 190.202 285.813 178.416C169.812 161.211 93.1967 182.796 80.8833 236.147C71.5127 276.701 102.939 326.738 160.95 363.613C223.225 403.2 242.606 447.211 267.154 502.933C288.974 552.46 315.473 612.614 380.416 687.649C389.422 698.054 399.157 708.742 409.729 719.728C443.654 754.986 481.915 774.183 523.449 776.8C560.336 779.121 598.599 767.823 634.106 744.113C682.671 711.684 722.003 659.053 742.01 599.716C763.748 535.275 760.289 469.749 732.266 415.206ZM632.007 741.181C555.658 792.169 475.447 783.548 411.929 717.543C325.617 627.845 294.867 558.04 270.159 501.946C254.2 465.734 240.412 434.422 215.792 405.975C202.087 390.14 185.025 375.194 162.384 360.798C105.829 324.843 75.1106 276.399 84.1222 237.379C96.0768 185.603 171.482 164.823 285.825 181.782C366.645 193.763 411.517 155.411 454.916 118.321C497.158 82.2174 537.048 48.1099 606.137 69.4778C654.211 84.3511 657.017 115.994 662.111 173.448C667.184 230.597 674.116 308.868 729.374 416.417C788.804 532.112 727.009 677.749 632.007 741.181ZM717.083 412.044C665.703 312.02 659.241 239.152 654.521 185.949C649.773 132.34 646.898 99.9758 599.407 85.2832C533.125 64.7815 495.21 97.1926 455.076 131.498C414.915 165.827 373.387 201.326 299.046 190.301C190.393 174.188 118.638 194.418 107.081 244.41C98.3043 282.433 127.751 329.328 182.101 363.87C240.364 400.903 258.509 442.097 281.479 494.248C301.903 540.612 326.717 596.937 387.527 667.196C395.96 676.94 405.083 686.947 414.983 697.237C446.766 730.26 482.609 748.254 521.512 750.7C556.065 752.875 591.911 742.283 625.163 720.081C670.648 689.714 707.48 640.43 726.221 584.865C746.569 524.506 743.33 463.133 717.083 412.044ZM623.071 717.157C551.642 764.855 476.596 756.794 417.176 695.044C336.399 611.101 307.608 545.749 284.478 493.253C269.541 459.344 256.622 430.01 233.566 403.37C220.733 388.543 204.748 374.547 183.529 361.06C130.641 327.432 101.902 282.13 110.327 245.65C121.511 197.231 192.056 177.792 299.051 193.658C374.752 204.892 416.783 168.972 457.419 134.232C496.946 100.453 534.272 68.537 598.895 88.524C643.824 102.42 646.451 132.027 651.219 185.753C655.954 239.267 662.45 312.548 714.191 413.255C769.802 521.507 711.977 657.79 623.071 717.157ZM701.9 408.882C654.038 315.7 648.018 247.816 643.622 198.247C639.186 148.228 636.504 118.051 592.165 104.329C530.342 85.2143 494.998 115.428 457.58 147.41C420.174 179.381 381.487 212.447 312.266 202.183C210.967 187.157 144.065 206.038 133.292 252.676C125.103 288.159 152.563 331.904 203.252 364.126C257.509 398.614 274.404 436.975 295.797 485.541C314.837 528.758 337.961 581.26 394.637 646.743C402.491 655.818 411.003 665.145 420.224 674.731C449.864 705.532 483.291 722.309 519.581 724.595C551.801 726.624 585.217 716.749 616.221 696.049C658.611 667.741 692.95 621.799 710.412 570.004C729.396 513.731 726.371 456.518 701.9 408.882ZM614.129 693.125C547.618 737.534 477.738 730.033 422.423 672.545C347.169 594.328 320.349 533.471 298.802 484.554C284.875 452.946 272.832 425.612 251.333 400.772C239.365 386.944 224.477 373.896 204.693 361.318C155.446 330.014 128.701 287.857 136.538 253.916C146.939 208.851 212.637 190.769 312.278 205.549C382.859 216.008 422.042 182.526 459.929 150.151C496.733 118.688 531.502 88.9718 591.654 107.584C633.431 120.495 635.871 148.044 640.308 198.049C644.731 247.931 650.785 316.228 699.007 410.094C750.794 510.908 696.932 637.83 614.129 693.125ZM686.723 405.714C642.366 319.386 636.788 256.486 632.718 210.55C628.599 164.144 626.124 136.128 584.924 123.389C527.573 105.649 494.793 133.67 460.09 163.329C425.433 192.948 389.607 223.578 325.492 214.073C231.548 200.134 169.493 217.658 159.496 260.948C151.894 293.878 177.368 334.486 224.41 364.39C274.647 396.331 290.306 431.861 310.122 476.855C327.772 516.917 349.212 565.577 401.748 626.277C409.036 634.698 416.915 643.348 425.471 652.232C452.969 680.812 483.979 696.371 517.644 698.495C547.537 700.372 578.529 691.223 607.278 672.017C646.587 645.77 678.426 603.175 694.616 555.145C712.223 502.969 709.419 449.897 686.723 405.714ZM605.187 669.093C543.595 710.226 478.887 703.28 427.67 650.046C357.945 577.577 333.09 521.179 313.121 475.861C300.209 446.548 289.048 421.208 269.113 398.175C258.017 385.355 244.194 373.242 225.844 361.575C180.264 332.598 155.499 293.583 162.742 262.174C172.38 220.473 233.218 203.746 325.511 217.433C390.979 227.14 427.3 196.093 462.433 166.063C496.528 136.93 528.727 109.399 584.412 126.63C623.044 138.578 625.304 164.076 629.409 210.359C633.501 256.587 639.12 319.909 683.818 406.924C731.793 500.303 681.893 617.877 605.187 669.093ZM671.54 402.552C630.694 323.058 625.565 265.151 621.813 222.853C618.018 180.04 615.731 154.203 577.696 142.437C524.797 126.076 494.581 151.905 462.593 179.241C430.699 206.509 397.714 234.708 338.725 225.958C252.129 213.111 194.934 229.281 185.707 269.213C178.692 299.618 202.186 337.07 245.561 364.647C291.799 394.036 306.208 426.747 324.447 468.156C340.707 505.063 360.456 549.9 408.865 605.832C415.574 613.584 422.841 621.553 430.725 629.741C456.067 656.084 484.666 670.434 515.713 672.389C543.265 674.127 571.835 665.689 598.343 647.993C634.563 623.8 663.896 584.545 678.827 540.294C695.051 492.194 692.46 443.281 671.54 402.552ZM596.244 645.061C539.572 682.905 480.042 676.521 432.918 627.547C368.714 560.831 345.838 508.895 327.445 467.162C315.549 440.157 305.257 416.796 286.887 395.57C276.656 383.75 263.916 372.582 246.996 361.831C205.069 335.18 182.29 299.301 188.953 270.439C197.808 232.093 253.806 216.717 338.731 229.316C399.092 238.263 432.566 209.655 464.943 181.982C496.316 155.165 525.944 129.832 577.177 145.684C612.657 156.661 614.731 180.101 618.505 222.663C622.278 265.252 627.455 323.589 668.634 403.762C712.791 489.699 666.848 597.916 596.244 645.061ZM656.357 399.391C619.035 326.746 614.336 273.807 610.914 235.164C607.438 195.95 605.337 172.278 570.447 161.489C522.028 146.511 494.375 170.148 465.104 195.16C435.958 220.076 405.827 245.831 351.952 237.835C272.71 226.088 220.369 240.909 211.918 277.479C205.484 305.336 226.998 339.647 266.712 364.903C308.938 391.752 322.104 421.626 338.765 459.463C353.642 493.223 371.7 534.223 415.969 585.372C422.112 592.47 428.76 599.751 435.966 607.248C459.172 631.363 485.354 644.496 513.775 646.289C539.001 647.875 565.147 640.15 589.4 623.961C654.959 580.174 697.51 479.493 656.357 399.391ZM587.302 621.029C535.543 655.59 481.191 649.768 438.158 605.054C379.49 544.079 358.572 496.609 341.777 458.47C330.883 433.759 321.473 412.392 304.667 392.974C295.302 382.153 283.639 371.936 268.153 362.095C229.887 337.764 209.082 305.033 215.164 278.719C223.242 243.721 274.387 229.694 351.964 241.201C407.199 249.392 437.832 223.216 467.453 197.901C496.104 173.401 523.175 150.266 569.942 164.724C602.271 174.73 604.164 196.12 607.606 234.96C611.055 273.916 615.789 327.269 653.458 400.595C693.783 479.1 651.816 577.957 587.302 621.029ZM641.167 396.221C607.363 330.418 603.113 282.472 600.016 247.461C596.858 211.846 594.944 190.353 563.206 180.535C519.239 166.936 494.163 188.383 467.607 211.071C441.217 233.63 413.927 256.953 365.178 249.725C293.291 239.065 245.797 252.529 238.129 285.745C232.282 311.062 251.803 342.229 287.863 365.159C326.089 389.458 338.006 416.512 353.09 450.764C366.576 481.369 382.95 518.54 423.086 564.913C428.65 571.343 434.673 577.954 441.206 584.741C462.27 606.635 486.042 618.559 511.845 620.184C534.723 621.622 558.453 614.616 580.451 599.921C639.92 560.221 678.502 468.894 641.167 396.221ZM578.366 597.004C531.526 628.276 482.333 623.007 443.405 582.556C390.266 527.327 371.313 484.318 356.095 449.777C346.224 427.369 337.69 407.988 322.441 390.369C313.948 380.556 303.362 371.29 289.305 362.352C254.692 340.347 235.88 310.76 241.368 286.977C248.67 255.342 294.968 242.671 365.184 253.083C415.312 260.516 443.084 236.775 469.95 213.819C495.898 191.643 520.399 170.693 562.701 183.784C591.87 192.798 593.585 212.15 596.695 247.269C599.826 282.586 604.117 330.954 638.275 397.433C674.782 468.495 636.77 557.997 578.366 597.004ZM625.984 393.059C595.698 334.099 591.89 291.136 589.111 259.765C586.271 227.748 584.563 208.43 555.971 199.589C516.47 187.371 493.951 206.618 470.117 226.991C446.482 247.191 422.047 268.084 378.411 261.61C313.878 252.036 271.231 264.157 264.334 294.016C259.074 316.794 276.628 344.82 309.028 365.418C343.228 387.161 353.908 411.397 367.421 442.073C379.511 469.514 394.201 502.857 430.203 544.455C435.195 550.223 440.599 556.159 446.46 562.25C482.095 599.283 528.848 604.391 571.515 575.897C624.875 540.26 659.5 458.29 625.984 393.059ZM569.417 572.965C527.497 600.961 483.482 596.253 448.653 560.057C401.029 510.56 384.054 472.039 370.42 441.078C361.558 420.971 353.899 403.576 340.221 387.772C332.587 378.952 323.085 370.63 310.456 362.608C279.504 342.923 262.672 316.492 267.579 295.242C274.111 266.964 315.542 255.641 378.417 264.968C423.426 271.639 448.349 250.337 472.46 229.724C495.686 209.878 517.623 191.121 555.459 202.83C581.47 210.878 583.018 228.169 585.796 259.567C588.609 291.245 592.459 334.629 623.092 394.271C655.78 457.891 621.731 538.044 569.417 572.965ZM610.807 389.892C584.032 337.779 580.667 299.8 578.206 272.068C575.69 243.657 574.17 226.505 548.729 218.635C513.694 207.798 493.745 224.861 472.614 242.908C451.748 260.753 430.154 279.2 391.631 273.493C334.459 265.013 296.665 275.772 290.544 302.282C285.872 322.521 301.433 347.402 330.179 365.674C360.373 384.872 369.803 406.276 381.739 433.379C392.439 457.666 405.445 487.18 437.314 524.002C441.733 529.109 446.518 534.356 451.707 539.752C483.303 572.586 524.752 577.12 562.573 551.865C609.836 520.307 640.492 447.691 610.807 389.892ZM560.481 548.94C523.48 573.647 484.631 569.5 453.9 537.558C411.812 493.816 396.801 459.755 384.738 432.385C376.899 414.581 370.115 399.172 357.995 385.168C351.232 377.355 342.808 369.984 331.62 362.866C304.316 345.513 289.47 322.218 293.783 303.514C299.539 278.584 336.123 268.618 391.65 276.853C431.533 282.768 453.615 263.898 474.971 245.644C495.481 228.121 514.847 211.561 548.224 221.884C571.097 228.95 572.451 244.201 574.905 271.872C577.386 299.909 580.787 338.315 607.915 391.103C636.772 447.292 606.693 518.078 560.481 548.94ZM595.624 386.73C572.367 341.459 569.444 308.464 567.301 284.371C565.18 260.408 563.777 244.58 541.494 237.689C510.924 228.233 493.533 243.096 475.125 258.827C457.007 274.32 438.274 290.331 404.864 285.377C355.04 277.99 322.1 287.4 316.749 310.553C312.664 328.239 326.238 349.985 351.337 365.938C377.518 382.582 385.705 401.162 396.064 424.681C405.381 445.82 416.689 471.503 444.424 503.549C448.271 507.994 452.431 512.56 456.955 517.253C484.519 545.896 520.656 549.848 553.631 527.833C594.797 500.341 621.491 437.086 595.624 386.73ZM551.539 524.908C519.457 546.326 485.787 542.741 459.147 515.059C422.575 477.062 409.542 447.464 399.063 423.686C392.233 408.183 386.325 394.774 375.762 382.569C369.871 375.763 362.53 369.325 352.771 363.123C329.127 348.102 316.262 327.936 319.994 311.779C324.973 290.212 356.704 281.595 404.87 288.735C439.646 293.892 458.881 277.46 477.474 261.569C495.268 246.356 512.071 231.988 540.983 240.93C560.697 247.03 561.865 260.224 563.987 284.173C566.157 308.579 569.115 341.987 592.719 387.94C617.771 436.687 591.654 498.125 551.539 524.908ZM580.434 383.56C560.702 345.139 558.221 317.129 556.403 296.669C554.586 276.195 553.39 262.663 534.253 256.735C508.142 248.665 493.321 261.331 477.635 274.746C462.272 287.881 446.381 301.46 418.084 297.26C375.621 290.967 347.528 299.02 342.96 318.819C339.462 333.965 351.049 352.561 372.488 366.195C394.67 380.288 401.601 396.04 410.389 415.982C418.309 433.971 427.939 455.821 451.535 483.083C454.809 486.867 458.35 490.757 462.189 494.752C485.721 519.204 516.561 522.589 544.688 503.8C579.758 480.388 602.489 426.481 580.434 383.56ZM542.596 500.876C515.434 519.018 486.929 515.98 464.388 492.566C433.351 460.324 422.277 435.178 413.388 415C407.567 401.785 402.541 390.37 393.542 379.972C388.517 374.166 382.253 368.678 373.922 363.379C353.939 350.679 343.054 333.668 346.205 320.045C350.414 301.835 377.285 294.572 418.096 300.626C447.759 305.029 464.88 290.386 479.984 277.474C495.056 264.591 509.302 252.423 533.748 259.984C550.31 265.1 551.243 275.591 553.095 296.478C554.934 317.243 557.456 345.675 577.542 384.772C598.763 426.088 576.609 478.164 542.596 500.876Z" fill="#055EA8"/>
</svg>
