<svg width="1127" height="985" viewBox="0 0 1127 985" fill="none" xmlns="http://www.w3.org/2000/svg">
<mask id="mask0_92_24440" style="mask-type:luminance" maskUnits="userSpaceOnUse" x="0" y="125" width="1441" height="860">
<path d="M0 125.777H1441V984.735H0V125.777Z" fill="white"/>
</mask>
<g mask="url(#mask0_92_24440)">
<path d="M4.00615 133.625C124.877 156.753 258.291 185.956 335.355 258.647C381.891 302.517 395.712 355.687 408.798 407.982C422.356 462.625 439.518 516.789 463.416 569.791C508.57 669.755 577.009 766.616 680.979 844.339C773.386 913.399 895.936 968.605 1033.64 981.559C1165.86 993.998 1304.45 966.58 1402.81 904.172C1415.16 896.323 1426.79 888.006 1437.71 879.21C1440.72 876.814 1435.61 873.303 1432.58 875.711C1343.83 946.94 1208.18 984.172 1072.16 979.139C932.43 973.986 805.069 923.477 708.114 856.562C599.769 781.907 527.341 686.58 479.336 587.443C454.371 535.076 434.97 481.762 421.131 427.49C407.38 375.124 398.353 320.456 358.43 273.662C293.21 197.328 168.176 161.786 49.8072 137.496C35.2341 134.512 20.5911 131.588 5.93056 128.856C5.00335 128.736 4.14611 128.844 3.35885 129.192C2.55409 129.527 2.02925 130.019 1.78433 130.63C1.52191 131.253 1.60938 131.852 2.04675 132.427C2.46662 133.002 3.13142 133.398 4.00615 133.625Z" fill="#055EA8" fill-opacity="0.2"/>
</g>
<mask id="mask1_92_24440" style="mask-type:luminance" maskUnits="userSpaceOnUse" x="0" y="110" width="1441" height="811">
<path d="M0 110.438H1441V920.312H0V110.438Z" fill="white"/>
</mask>
<g mask="url(#mask1_92_24440)">
<path d="M4.04072 117.4C122.462 138.694 254.687 164.949 333.885 233.529C381.435 274.74 395.834 325.896 409.129 376.298C422.968 428.628 440.76 480.42 465.217 530.917C511.701 626.471 582.414 717.904 686.927 789.791C781.258 854.752 903.424 903.955 1037.83 915.232C1166.91 925.992 1303.12 901.235 1401.99 842.541C1414.58 835.052 1426.48 827.071 1437.68 818.587C1440.7 816.322 1435.75 812.919 1432.74 815.207C1342.94 882.973 1208.67 916.454 1076.31 912.595C939.427 908.653 812.049 863.392 713.047 800.408C604.895 731.517 530.35 642.086 481.033 547.574C455.298 497.448 435.336 446.268 421.131 394.033C407.118 343.907 397.723 291.552 356.96 247.526C289.781 174.991 164.379 143.032 49.1419 120.791C34.7613 118.035 20.3982 115.399 6.01761 112.798C5.09039 112.606 4.19817 112.678 3.35842 112.99C2.50119 113.313 1.94136 113.781 1.66144 114.416C1.39902 115.051 1.48649 115.662 1.95885 116.249C2.41371 116.825 3.1135 117.22 4.04072 117.4Z" fill="#055EA8" fill-opacity="0.2"/>
</g>
<mask id="mask2_92_24440" style="mask-type:luminance" maskUnits="userSpaceOnUse" x="0" y="95" width="1441" height="758">
<path d="M0 95.0981H1441V852.822H0V95.0981Z" fill="white"/>
</mask>
<g mask="url(#mask2_92_24440)">
<path d="M4.07651 101.186C65.5877 111.551 127.239 122.839 185.619 139.855C240.727 155.973 293.736 177.711 332.959 209.179C354.704 226.794 371.167 246.47 382.346 268.22C395.275 292.965 402.272 318.909 409.533 344.625C423.598 394.391 441.705 443.547 466.793 491.276C514.571 582.205 587.261 667.849 691.529 733.924C788.222 795.207 911.017 839.617 1043.33 848.964C1169.82 857.879 1303.47 835.458 1402.63 779.976C1414.9 773.158 1426.55 765.884 1437.59 758.143C1440.62 756.022 1435.84 752.75 1432.83 754.883C1342.05 819.029 1209.34 848.999 1080.44 846.207C946.339 843.271 819.205 803.176 718.261 744.134C609.899 680.803 532.835 596.633 482.031 506.159C456.173 459.317 436.037 411.336 421.674 362.228C407.293 314.044 397.636 263.642 355.982 222.108C287.035 153.444 162.421 124.781 50.3149 104.457C35.4969 101.797 20.6964 99.2563 5.87846 96.8357C1.66225 96.1287 -0.122209 100.574 4.07651 101.281V101.186Z" fill="#055EA8" fill-opacity="0.2"/>
</g>
<mask id="mask3_92_24440" style="mask-type:luminance" maskUnits="userSpaceOnUse" x="0" y="79" width="1441" height="707">
<path d="M0 79.7612H1441V785.334H0V79.7612Z" fill="white"/>
</mask>
<g mask="url(#mask3_92_24440)">
<path d="M4.09543 85.0216C64.6969 94.4764 125.053 104.71 182.891 120.276C237.159 134.896 290.483 154.584 330.843 184.027C353.079 200.276 370.066 218.778 381.805 239.545C395.031 262.709 402.186 287.203 409.517 311.469C423.88 358.839 442.372 405.549 468.001 450.702C517.529 537.808 593.106 618.228 698.144 678.815C796.883 735.771 919.329 774.956 1048.82 782.638C1172.97 789.971 1305.1 769.588 1404.72 716.874C1416.16 710.81 1427.11 704.339 1437.54 697.473C1440.56 695.496 1435.96 692.332 1432.94 694.321C1341.16 754.801 1210 781.475 1084.41 779.522C953.163 777.557 826.659 742.23 723.756 687.335C615.639 629.66 536.056 551.313 483.537 465.178C456.612 420.384 435.741 374.297 420.958 326.915C406.315 281.259 395.923 233.865 353.551 195.579C319.717 164.998 272.254 143.152 221.991 126.963C166.971 109.252 108.119 97.64 49.2317 87.7178C34.7986 85.2852 20.3305 82.9365 5.8274 80.6957C1.76864 80.0486 0.0716599 84.3386 4.09543 84.9617V85.0216Z" fill="#055EA8" fill-opacity="0.2"/>
</g>
<mask id="mask4_92_24440" style="mask-type:luminance" maskUnits="userSpaceOnUse" x="0" y="64" width="1441" height="654">
<path d="M0 64.4219H1441V717.844H0V64.4219Z" fill="white"/>
</mask>
<g mask="url(#mask4_92_24440)">
<path d="M4.14757 68.7478C63.8568 77.4476 123.654 86.8784 181.159 101.067C235.06 114.368 288.611 132.259 329.968 159.952C351.714 174.44 368.684 191.204 380.878 210.222C395.031 232.403 402.378 256.238 410.059 279.761C424.212 324.602 444.156 368.197 469.873 410.57C521.062 493.23 599.228 567.454 703.566 622.361C804.353 675.483 927.026 710.043 1054.49 716.19C1175.2 722.086 1304.56 704.027 1404 655.171C1415.6 649.467 1426.74 643.356 1437.41 636.849C1440.3 635.004 1435.98 631.984 1432.99 633.817C1340.95 690.21 1212.43 713.829 1090.88 712.883C961.98 711.936 836.228 681.391 731.173 630.905C623.266 579.066 540.884 506.903 486.09 425.153C458.134 382.936 436.476 339.245 421.133 294.105C406.122 250.809 395.258 206.399 353.061 170.941C318.387 141.834 270.049 121.738 220.172 107.07C165.291 90.9288 107.349 80.2397 49.2313 71.2523C34.7632 68.9395 20.2776 66.7346 5.79207 64.6376C1.89076 64.0624 0.211271 68.1726 4.14757 68.7478Z" fill="#055EA8" fill-opacity="0.2"/>
</g>
<mask id="mask5_92_24440" style="mask-type:luminance" maskUnits="userSpaceOnUse" x="0" y="46" width="1441" height="608">
<path d="M0 46.0156H1441V653.422H0V46.0156Z" fill="white"/>
</mask>
<g mask="url(#mask5_92_24440)">
<path d="M4.31977 52.5348C63.6616 60.5037 123.039 69.1077 180.526 82.1574C233.482 94.2006 286.893 110.222 329.143 135.962C350.347 148.784 367.229 163.871 379.79 181.235C394.853 202.313 402.498 225.333 410.546 248.017C425.154 290.522 445.797 331.624 472.459 371.301C525.818 449.24 606.678 517.089 710.352 566.148C813.168 614.8 935.385 644.878 1060.49 649.695C1178.77 654.249 1305.34 638.144 1405.13 592.727C1416.31 587.634 1427.09 582.158 1437.45 576.31C1440.32 574.633 1436.15 571.757 1433.2 573.41C1340.12 625.861 1213.76 646.568 1095.16 646.232C968.905 645.957 844.238 619.606 737.713 573.554C630.524 527.203 545.307 461.367 488.187 383.979C459.548 344.686 437.33 303.763 421.55 261.199C413.362 239.653 407.187 217.688 395.85 196.741C385.948 177.592 371.13 160.432 351.414 145.249C315.882 118.491 268.087 100.767 219.574 87.5499C164.658 72.5708 106.943 62.9243 49.2286 54.596C34.7605 52.5828 20.2749 50.5696 5.75433 48.5804C1.99298 48.0651 0.38347 52.0196 4.17981 52.5109L4.31977 52.5348Z" fill="#055EA8" fill-opacity="0.2"/>
</g>
<mask id="mask6_92_24440" style="mask-type:luminance" maskUnits="userSpaceOnUse" x="0" y="30" width="1441" height="556">
<path d="M0 30.6763H1441V585.932H0V30.6763Z" fill="white"/>
</mask>
<g mask="url(#mask6_92_24440)">
<path d="M4.32154 36.3082C63.2785 43.5581 122.183 51.3711 179.671 63.2345C231.402 73.9595 283.921 87.9919 326.678 111.239C348.476 122.851 366.076 136.943 379.442 153.504C394.557 172.665 402.447 193.864 410.513 214.787C425.593 254.906 446.849 293.421 474.298 330.341C488.154 348.627 503.742 366.195 521.061 383.043C538.381 399.88 557.275 415.853 577.744 430.952C598.213 446.051 620.081 460.143 643.314 473.217C666.564 486.303 690.987 498.25 716.599 509.071C742.614 520.083 769.555 529.934 797.389 538.622C825.223 547.321 853.74 554.775 882.956 561.018C912.172 567.249 941.825 572.199 971.951 575.877C1002.08 579.544 1032.41 581.917 1062.96 582.983C1179.26 586.782 1303.65 572.762 1404.33 531C1415.48 526.363 1426.23 521.366 1436.64 515.997C1439.51 514.487 1436.64 511.084 1433.78 512.594C1340.21 560.874 1217.17 579.041 1101.88 579.628C1070.83 579.7 1039.88 578.406 1009.07 575.746C978.249 573.085 947.808 569.083 917.753 563.738C887.679 558.394 858.253 551.743 829.44 543.798C800.626 535.853 772.669 526.674 745.588 516.261C719.118 506.159 693.768 494.883 669.556 482.408C645.326 469.946 622.46 456.405 600.942 441.797C579.423 427.177 559.462 411.635 541.058 395.158C522.653 378.681 505.963 361.413 491.005 343.367C461.107 306.662 437.927 268.064 421.447 227.585C413.049 207.309 406.576 186.566 394.872 166.985C384.55 149.334 369.61 133.768 350.068 120.275C313.82 95.5773 266.252 79.7954 218.684 67.9559C163.435 54.1872 105.738 45.4874 48.1107 37.89C33.9925 36.0326 19.8743 34.2471 5.73861 32.5335C2.11721 32.0781 0.560189 35.8169 4.32154 36.3082Z" fill="#055EA8" fill-opacity="0.2"/>
</g>
<mask id="mask7_92_24440" style="mask-type:luminance" maskUnits="userSpaceOnUse" x="0" y="15" width="1441" height="504">
<path d="M0 15.3394H1441V518.444H0V15.3394Z" fill="white"/>
</mask>
<g mask="url(#mask7_92_24440)">
<path d="M4.32127 20.0728C62.561 26.5677 120.888 33.5539 177.886 44.1831C229.11 53.7097 281.052 66.0525 324.806 87.131C346.272 97.149 364.011 109.659 378.007 124.65C394.19 142.577 402.465 162.925 411.037 182.985C426.677 220.468 448.651 256.119 476.974 289.935C535.564 358.827 622.25 413.926 724.174 451.973C750.713 461.823 777.988 470.595 805.996 478.288C834.005 485.969 862.574 492.524 891.703 497.952C920.814 503.369 950.31 507.635 980.138 510.714C1009.98 513.806 1039.99 515.699 1070.15 516.418C1183.27 519.067 1303.61 506.832 1403.84 469.18C1415.11 464.95 1426.06 460.361 1436.68 455.4C1439.55 454.046 1436.85 450.774 1433.79 452.152C1339.65 496.203 1219.45 511.949 1107.15 512.907C1076.48 513.171 1045.9 512.2 1015.41 509.983C984.914 507.779 954.701 504.339 924.803 499.69C894.887 495.04 865.496 489.204 836.595 482.182C807.693 475.148 779.492 466.988 752.008 457.689C647.372 422.098 556.54 369.432 493.682 301.643C462.926 268.09 438.976 232.392 421.814 194.561C413.189 175.903 406.646 156.766 394.994 138.839C384.06 121.894 368.473 107.287 348.196 95.0279C310.828 72.4755 263.54 58.6349 216.689 48.1855C162.071 35.9746 105.545 28.2094 49.0201 21.4389C34.657 19.7013 20.2764 18.0716 5.73834 16.4539C2.2569 16.1423 0.769857 19.7013 4.32127 20.0728Z" fill="#055EA8" fill-opacity="0.2"/>
</g>
<mask id="mask8_92_24440" style="mask-type:luminance" maskUnits="userSpaceOnUse" x="0" y="0" width="1441" height="451">
<path d="M0 0H1441V450.953H0V0Z" fill="white"/>
</mask>
<g mask="url(#mask8_92_24440)">
<path d="M4.31899 3.88192C61.8064 9.64586 119.311 15.8292 175.924 25.2121C226.379 33.5764 277.691 44.2055 322.162 62.9593C342.683 71.6232 361.7 82.2643 375.906 95.7095C393.155 112.126 402.148 131.42 411.227 150.473C427.602 185.5 450.485 218.406 479.876 249.191C541.65 313.037 630.96 361.378 731.397 394.116C785.403 411.564 841.456 424.973 899.591 434.344C957.708 443.715 1016.63 448.843 1076.32 449.73C1187.29 451.54 1304.85 440.875 1405.17 406.77C1415.91 403.103 1426.46 399.125 1436.78 394.823C1439.67 393.613 1437.01 390.509 1434.14 391.731C1388.85 410.761 1338.13 423.223 1286.59 431.659C1229.45 440.851 1171.55 445.692 1112.87 446.207C1052.28 447.022 992.26 443.463 932.778 435.518C873.314 427.585 815.721 415.446 760.018 399.113C656.835 368.448 562.976 322.492 496.776 259.64C464.883 229.155 439.901 196.201 421.847 160.778C412.959 143.487 406.154 125.596 393.995 109.179C382.344 93.6603 366.406 80.5986 346.182 69.9934C308.149 49.7777 261.438 37.7945 215.619 28.7112C160.669 17.7465 104.091 10.8082 47.5833 4.74472C33.6225 3.24681 19.6443 1.79684 5.68357 0.394802C2.37708 0.0832389 0.925027 3.54639 4.31899 3.88192Z" fill="#055EA8" fill-opacity="0.2"/>
</g>
</svg>
