<svg width="9" height="11" viewBox="0 0 9 11" fill="none" xmlns="http://www.w3.org/2000/svg">
<g id="Group">
<path id="Vector" d="M2.12744 4.57187V3.68135C2.12744 2.20752 2.50181 1.00977 4.37363 1.00977C6.24546 1.00977 6.61983 2.20752 6.61983 3.68135V4.57187" stroke="white" stroke-linecap="round" stroke-linejoin="round"/>
<path id="Vector_2" d="M4.37341 8.35669C4.8903 8.35669 5.30933 7.85831 5.30933 7.24353C5.30933 6.62875 4.8903 6.13037 4.37341 6.13037C3.85653 6.13037 3.4375 6.62875 3.4375 7.24353C3.4375 7.85831 3.85653 8.35669 4.37341 8.35669Z" stroke="white" stroke-linecap="round" stroke-linejoin="round"/>
<path id="Vector_3" d="M6.24536 9.91494H2.50171C1.00425 9.91494 0.629883 9.46968 0.629883 7.68862V6.7981C0.629883 5.01704 1.00425 4.57178 2.50171 4.57178H6.24536C7.74282 4.57178 8.11719 5.01704 8.11719 6.7981V7.68862C8.11719 9.46968 7.74282 9.91494 6.24536 9.91494Z" stroke="white" stroke-linecap="round" stroke-linejoin="round"/>
</g>
</svg>
