<svg width="24" height="24" viewBox="0 0 24 24" fill="none" xmlns="http://www.w3.org/2000/svg">
<path d="M13.0012 21C13.0012 21.553 12.5532 22 12.0012 22H8.00122C5.24422 22 3.00122 19.757 3.00122 17V7C3.00122 4.243 5.24422 2 8.00122 2H12.0012C12.5532 2 13.0012 2.447 13.0012 3C13.0012 3.553 12.5532 4 12.0012 4H8.00122C6.34722 4 5.00122 5.346 5.00122 7V17C5.00122 18.654 6.34722 20 8.00122 20H12.0012C12.5532 20 13.0012 20.447 13.0012 21ZM20.9232 12.382C21.0242 12.138 21.0242 11.862 20.9232 11.618C20.8722 11.495 20.7992 11.385 20.7062 11.292L16.7072 7.29297C16.3162 6.90197 15.6842 6.90197 15.2932 7.29297C14.9022 7.68397 14.9022 8.31603 15.2932 8.70703L17.5862 11H10.0002C9.44821 11 9.00021 11.447 9.00021 12C9.00021 12.553 9.44821 13 10.0002 13H17.5862L15.2932 15.293C14.9022 15.684 14.9022 16.316 15.2932 16.707C15.4882 16.902 15.7442 17 16.0002 17C16.2562 17 16.5122 16.902 16.7072 16.707L20.7062 12.708C20.7992 12.615 20.8732 12.505 20.9232 12.382Z" fill="#E2313D"/>
</svg>
