<?xml version="1.0" encoding="UTF-8"?>
<!DOCTYPE svg PUBLIC "-//W3C//DTD SVG 1.1//EN" "http://www.w3.org/Graphics/SVG/1.1/DTD/svg11.dtd">
<svg xmlns="http://www.w3.org/2000/svg" version="1.1" width="854px" height="300px" style="shape-rendering:geometricPrecision; text-rendering:geometricPrecision; image-rendering:optimizeQuality; fill-rule:evenodd; clip-rule:evenodd" xmlns:xlink="http://www.w3.org/1999/xlink">
<g><path style="opacity:1" fill="#f29000" d="M 32.5,73.5 C 22.7784,82.2201 13.7784,91.5534 5.5,101.5C 2.74361,98.9823 0.743612,95.9823 -0.5,92.5C -0.5,89.8333 -0.5,87.1667 -0.5,84.5C 3.26222,72.2729 11.5956,67.1063 24.5,69C 27.6844,69.7542 30.3511,71.2542 32.5,73.5 Z"/></g>
<g><path style="opacity:0.753" fill="#a74001" d="M 198.5,72.5 C 192.537,71.1702 186.204,70.5036 179.5,70.5C 172.796,70.5036 166.463,71.1702 160.5,72.5C 160.737,73.791 160.404,74.791 159.5,75.5C 159.5,73.5 159.5,71.5 159.5,69.5C 172.833,69.5 186.167,69.5 199.5,69.5C 199.737,70.791 199.404,71.791 198.5,72.5 Z"/></g>
<g><path style="opacity:1" fill="#e75b00" d="M 198.5,72.5 C 198.816,78.75 198.15,84.75 196.5,90.5C 196.714,88.8561 196.38,87.3561 195.5,86C 183.994,80.9994 172.327,76.4994 160.5,72.5C 166.463,71.1702 172.796,70.5036 179.5,70.5C 186.204,70.5036 192.537,71.1702 198.5,72.5 Z"/></g>
<g><path style="opacity:1" fill="#f78a00" d="M 32.5,73.5 C 36.5803,76.3787 38.5803,80.3787 38.5,85.5C 38.6495,86.552 38.4828,87.552 38,88.5C 31.6306,94.7019 25.4639,101.035 19.5,107.5C 13.6529,108.003 8.98627,106.003 5.5,101.5C 13.7784,91.5534 22.7784,82.2201 32.5,73.5 Z"/></g>
<g><path style="opacity:1" fill="#e86800" d="M 160.5,72.5 C 172.327,76.4994 183.994,80.9994 195.5,86C 196.38,87.3561 196.714,88.8561 196.5,90.5C 196.258,94.479 195.258,98.1456 193.5,101.5C 193.5,100.167 193.5,98.8333 193.5,97.5C 182.046,93.5694 170.713,89.2361 159.5,84.5C 158.85,86.1836 157.85,87.5169 156.5,88.5C 157.821,84.2435 158.821,79.9102 159.5,75.5C 160.404,74.791 160.737,73.791 160.5,72.5 Z"/></g>
<g><path style="opacity:1" fill="#da6303" d="M 38.5,85.5 C 39.9585,94.4219 36.6252,101.255 28.5,106C 25.6074,107.149 22.6074,107.649 19.5,107.5C 25.4639,101.035 31.6306,94.7019 38,88.5C 38.4828,87.552 38.6495,86.552 38.5,85.5 Z"/></g>
<g><path style="opacity:1" fill="#f07600" d="M 193.5,101.5 C 193.128,105.297 191.794,108.63 189.5,111.5C 188.942,110.21 187.942,109.377 186.5,109C 176.098,104.923 165.765,100.757 155.5,96.5C 155.993,94.1944 156.326,91.861 156.5,89.5C 156.5,89.1667 156.5,88.8333 156.5,88.5C 157.85,87.5169 158.85,86.1836 159.5,84.5C 170.713,89.2361 182.046,93.5694 193.5,97.5C 193.5,98.8333 193.5,100.167 193.5,101.5 Z"/></g>
<g><path style="opacity:1" fill="#f48200" d="M 155.5,96.5 C 165.765,100.757 176.098,104.923 186.5,109C 187.942,109.377 188.942,110.21 189.5,111.5C 187.593,116.984 184.927,121.984 181.5,126.5C 181.423,125.25 180.756,124.417 179.5,124C 169.098,119.923 158.765,115.757 148.5,111.5C 151.042,106.512 153.375,101.512 155.5,96.5 Z"/></g>
<g><path style="opacity:1" fill="#de5f01" d="M 156.5,89.5 C 156.326,91.861 155.993,94.1944 155.5,96.5C 153.375,101.512 151.042,106.512 148.5,111.5C 144.68,119.977 139.68,127.643 133.5,134.5C 130.101,132.612 127.101,130.112 124.5,127C 123.552,126.517 122.552,126.351 121.5,126.5C 132.96,120.878 142.46,112.878 150,102.5C 152.213,98.0748 154.379,93.7415 156.5,89.5 Z"/></g>
<g><path style="opacity:1" fill="#e48a04" d="M 393.5,137.5 C 389.4,137.763 385.4,137.43 381.5,136.5C 379.206,133.662 376.706,133.329 374,135.5C 373.333,136.5 373.333,137.5 374,138.5C 380.088,141.308 386.088,144.308 392,147.5C 396.847,156.603 394.68,163.436 385.5,168C 378.137,169.493 371.304,168.326 365,164.5C 363.441,162.783 362.608,160.783 362.5,158.5C 362.5,157.5 362.5,156.5 362.5,155.5C 366.167,155.5 369.833,155.5 373.5,155.5C 374.257,157.919 375.923,159.253 378.5,159.5C 382.722,158.339 383.388,156.172 380.5,153C 374.467,151.621 368.967,149.121 364,145.5C 359.101,134.848 362.268,128.014 373.5,125C 380.601,123.815 386.768,125.649 392,130.5C 393.202,132.677 393.702,135.011 393.5,137.5 Z"/></g>
<g><path style="opacity:1" fill="#e58a04" d="M 472.5,135.5 C 468.884,137.842 464.884,138.175 460.5,136.5C 457.75,133.677 455.083,133.844 452.5,137C 453.167,138 453.833,139 454.5,140C 460.94,141.696 466.774,144.529 472,148.5C 475.582,157.43 473.082,163.93 464.5,168C 459.833,168.667 455.167,168.667 450.5,168C 445.473,166.147 442.473,162.647 441.5,157.5C 444.684,155.586 448.351,154.92 452.5,155.5C 454.149,159.245 456.816,160.245 460.5,158.5C 461.614,157.277 461.781,155.944 461,154.5C 456.469,151.763 451.636,149.596 446.5,148C 440.502,143.171 439.336,137.338 443,130.5C 450.291,124.02 458.458,122.853 467.5,127C 470.596,129.029 472.262,131.862 472.5,135.5 Z"/></g>
<g><path style="opacity:1" fill="#e48a04" d="M 495.5,124.5 C 513.84,124.338 522.34,133.338 521,151.5C 516.481,165.349 506.981,170.849 492.5,168C 479.955,163.082 475.121,153.915 478,140.5C 480.886,131.774 486.719,126.441 495.5,124.5 Z M 494.5,135.5 C 508.977,135.429 513.144,142.096 507,155.5C 497.026,160.953 490.86,158.12 488.5,147C 488.921,144.815 489.421,142.649 490,140.5C 491.707,138.963 493.207,137.296 494.5,135.5 Z"/></g>
<g><path style="opacity:1" fill="#e38904" d="M 728.5,124.5 C 740.412,123.447 748.412,128.447 752.5,139.5C 748.167,140.833 743.833,140.833 739.5,139.5C 735.905,135.292 731.572,134.459 726.5,137C 719.833,143.667 719.833,150.333 726.5,157C 731.706,159.56 736.04,158.56 739.5,154C 754.666,150.931 756.666,154.597 745.5,165C 736.5,169.667 727.5,169.667 718.5,165C 711.185,158.382 708.685,150.216 711,140.5C 713.886,131.774 719.719,126.441 728.5,124.5 Z"/></g>
<g><path style="opacity:1" fill="#e48a04" d="M 774.5,124.5 C 789.998,123.899 798.665,131.232 800.5,146.5C 798.404,163.752 788.738,170.919 771.5,168C 764,165.833 759.167,161 757,153.5C 754.195,138.421 760.028,128.755 774.5,124.5 Z M 773.5,135.5 C 785.467,134.302 790.3,139.635 788,151.5C 784.599,158.283 779.433,160.116 772.5,157C 765.709,149.411 766.042,142.244 773.5,135.5 Z"/></g>
<g><path style="opacity:0.502" fill="#7b4a01" d="M 240.5,125.5 C 240.5,139.5 240.5,153.5 240.5,167.5C 243.833,167.5 247.167,167.5 250.5,167.5C 247.038,168.482 243.371,168.815 239.5,168.5C 239.171,153.99 239.504,139.657 240.5,125.5 Z"/></g>
<g><path style="opacity:1" fill="#ec8e03" d="M 240.5,125.5 C 243.833,125.5 247.167,125.5 250.5,125.5C 250.334,131.176 250.501,136.843 251,142.5C 255.167,137 259.333,131.5 263.5,126C 267.871,125.172 272.205,125.339 276.5,126.5C 271.5,133.167 266.5,139.833 261.5,146.5C 266.524,153.185 271.524,159.852 276.5,166.5C 271.965,167.744 267.298,167.744 262.5,166.5C 258.675,161.53 254.842,156.53 251,151.5C 250.501,156.823 250.334,162.156 250.5,167.5C 247.167,167.5 243.833,167.5 240.5,167.5C 240.5,153.5 240.5,139.5 240.5,125.5 Z"/></g>
<g><path style="opacity:1" fill="#f19103" d="M 292.5,153.5 C 298.23,160.569 302.897,159.903 306.5,151.5C 307.493,143.35 307.826,135.017 307.5,126.5C 310.5,126.5 313.5,126.5 316.5,126.5C 316.5,136.5 316.5,146.5 316.5,156.5C 314.112,165.292 308.279,169.292 299,168.5C 290.635,168.947 285.135,165.28 282.5,157.5C 282.5,147.167 282.5,136.833 282.5,126.5C 285.5,126.5 288.5,126.5 291.5,126.5C 291.173,135.682 291.507,144.682 292.5,153.5 Z"/></g>
<g><path style="opacity:0.753" fill="#b66f02" d="M 292.5,153.5 C 291.507,144.682 291.173,135.682 291.5,126.5C 288.5,126.5 285.5,126.5 282.5,126.5C 282.5,136.833 282.5,147.167 282.5,157.5C 281.506,147.013 281.172,136.346 281.5,125.5C 285.167,125.5 288.833,125.5 292.5,125.5C 292.5,134.833 292.5,144.167 292.5,153.5 Z"/></g>
<g><path style="opacity:0.753" fill="#b66e02" d="M 316.5,156.5 C 316.5,146.5 316.5,136.5 316.5,126.5C 313.5,126.5 310.5,126.5 307.5,126.5C 307.826,135.017 307.493,143.35 306.5,151.5C 306.5,142.833 306.5,134.167 306.5,125.5C 310.167,125.5 313.833,125.5 317.5,125.5C 317.828,136.014 317.494,146.347 316.5,156.5 Z"/></g>
<g><path style="opacity:0.502" fill="#7b4b02" d="M 347.5,126.5 C 339.833,126.5 332.167,126.5 324.5,126.5C 324.5,140.167 324.5,153.833 324.5,167.5C 327.833,167.5 331.167,167.5 334.5,167.5C 334.179,162.305 334.513,157.305 335.5,152.5C 335.5,157.833 335.5,163.167 335.5,168.5C 331.5,168.5 327.5,168.5 323.5,168.5C 323.5,154.167 323.5,139.833 323.5,125.5C 331.684,125.174 339.684,125.508 347.5,126.5 Z"/></g>
<g><path style="opacity:1" fill="#ed8f03" d="M 347.5,126.5 C 352.737,127.235 355.904,130.235 357,135.5C 358.527,143.28 355.694,148.78 348.5,152C 351.572,156.647 354.238,161.48 356.5,166.5C 352.119,167.924 347.786,167.591 343.5,165.5C 341.571,160.628 338.905,156.295 335.5,152.5C 334.513,157.305 334.179,162.305 334.5,167.5C 331.167,167.5 327.833,167.5 324.5,167.5C 324.5,153.833 324.5,140.167 324.5,126.5C 332.167,126.5 339.833,126.5 347.5,126.5 Z M 335.5,134.5 C 338.93,134.107 342.096,134.773 345,136.5C 345.758,138.769 345.591,140.936 344.5,143C 341.649,144.289 338.649,144.789 335.5,144.5C 335.5,141.167 335.5,137.833 335.5,134.5 Z"/></g>
<g><path style="opacity:1" fill="#e98d02" d="M 399.5,125.5 C 403.167,125.5 406.833,125.5 410.5,125.5C 410.334,134.506 410.5,143.506 411,152.5C 414.25,159.558 418.583,160.225 424,154.5C 424.5,144.839 424.666,135.172 424.5,125.5C 428.167,125.5 431.833,125.5 435.5,125.5C 435.936,137.243 435.436,148.91 434,160.5C 427.991,168.12 420.157,170.62 410.5,168C 406.388,166.221 403.222,163.388 401,159.5C 399.591,148.23 399.091,136.896 399.5,125.5 Z"/></g>
<g><path style="opacity:1" fill="#f19102" d="M 552.5,149.5 C 552.783,150.289 553.283,150.956 554,151.5C 554.5,142.84 554.666,134.173 554.5,125.5C 557.833,125.5 561.167,125.5 564.5,125.5C 564.5,139.833 564.5,154.167 564.5,168.5C 560.818,168.665 557.152,168.499 553.5,168C 547.855,160.534 542.855,152.7 538.5,144.5C 538.217,143.711 537.717,143.044 537,142.5C 536.5,150.827 536.334,159.16 536.5,167.5C 533.167,167.5 529.833,167.5 526.5,167.5C 526.5,153.5 526.5,139.5 526.5,125.5C 530.182,125.335 533.848,125.501 537.5,126C 543.145,133.466 548.145,141.3 552.5,149.5 Z"/></g>
<g><path style="opacity:0.502" fill="#7d4c01" d="M 554.5,125.5 C 554.666,134.173 554.5,142.84 554,151.5C 553.283,150.956 552.783,150.289 552.5,149.5C 553.167,141.5 553.833,133.5 554.5,125.5 Z"/></g>
<g><path style="opacity:1" fill="#f19101" d="M 571.5,126.5 C 574.833,126.5 578.167,126.5 581.5,126.5C 581.172,137.679 581.505,148.679 582.5,159.5C 586.833,159.5 591.167,159.5 595.5,159.5C 595.5,162.5 595.5,165.5 595.5,168.5C 587.5,168.5 579.5,168.5 571.5,168.5C 571.5,154.5 571.5,140.5 571.5,126.5 Z"/></g>
<g><path style="opacity:0.753" fill="#b97101" d="M 571.5,126.5 C 574.962,125.518 578.629,125.185 582.5,125.5C 582.5,136.833 582.5,148.167 582.5,159.5C 581.505,148.679 581.172,137.679 581.5,126.5C 578.167,126.5 574.833,126.5 571.5,126.5 Z"/></g>
<g><path style="opacity:0.251" fill="#412701" d="M 600.5,125.5 C 600.5,139.5 600.5,153.5 600.5,167.5C 603.833,167.5 607.167,167.5 610.5,167.5C 610.5,153.5 610.5,139.5 610.5,125.5C 611.496,139.657 611.829,153.99 611.5,168.5C 607.5,168.5 603.5,168.5 599.5,168.5C 599.171,153.99 599.504,139.657 600.5,125.5 Z"/></g>
<g><path style="opacity:1" fill="#f89602" d="M 600.5,125.5 C 603.833,125.5 607.167,125.5 610.5,125.5C 610.5,139.5 610.5,153.5 610.5,167.5C 607.167,167.5 603.833,167.5 600.5,167.5C 600.5,153.5 600.5,139.5 600.5,125.5 Z"/></g>
<g><path style="opacity:0.502" fill="#834f01" d="M 629.5,127.5 C 625.936,126.577 622.269,126.244 618.5,126.5C 618.5,140.167 618.5,153.833 618.5,167.5C 621.833,167.5 625.167,167.5 628.5,167.5C 625.038,168.482 621.371,168.815 617.5,168.5C 617.5,154.167 617.5,139.833 617.5,125.5C 621.971,124.911 625.971,125.577 629.5,127.5 Z"/></g>
<g><path style="opacity:1" fill="#f39302" d="M 645.5,125.5 C 648.833,125.5 652.167,125.5 655.5,125.5C 655.5,139.5 655.5,153.5 655.5,167.5C 651.833,167.5 648.167,167.5 644.5,167.5C 639.343,159.862 634.177,152.195 629,144.5C 628.5,152.159 628.334,159.826 628.5,167.5C 625.167,167.5 621.833,167.5 618.5,167.5C 618.5,153.833 618.5,140.167 618.5,126.5C 622.269,126.244 625.936,126.577 629.5,127.5C 634.908,133.976 639.575,140.976 643.5,148.5C 643.783,149.289 644.283,149.956 645,150.5C 645.5,142.173 645.666,133.84 645.5,125.5 Z"/></g>
<g><path style="opacity:0.251" fill="#3e2501" d="M 645.5,125.5 C 645.666,133.84 645.5,142.173 645,150.5C 644.283,149.956 643.783,149.289 643.5,148.5C 644.167,140.833 644.833,133.167 645.5,125.5 Z"/></g>
<g><path style="opacity:0.251" fill="#462a02" d="M 655.5,125.5 C 656.496,139.657 656.829,153.99 656.5,168.5C 652.298,168.817 648.298,168.483 644.5,167.5C 648.167,167.5 651.833,167.5 655.5,167.5C 655.5,153.5 655.5,139.5 655.5,125.5 Z"/></g>
<g><path style="opacity:1" fill="#f99602" d="M 663.5,126.5 C 671.833,126.5 680.167,126.5 688.5,126.5C 688.5,128.833 688.5,131.167 688.5,133.5C 683.305,133.179 678.305,133.513 673.5,134.5C 673.5,137.167 673.5,139.833 673.5,142.5C 678.167,142.5 682.833,142.5 687.5,142.5C 687.5,145.167 687.5,147.833 687.5,150.5C 682.833,150.5 678.167,150.5 673.5,150.5C 673.5,153.5 673.5,156.5 673.5,159.5C 678.5,159.5 683.5,159.5 688.5,159.5C 688.5,162.167 688.5,164.833 688.5,167.5C 680.167,167.5 671.833,167.5 663.5,167.5C 663.5,153.833 663.5,140.167 663.5,126.5 Z"/></g>
<g><path style="opacity:1" fill="#f09102" d="M 805.5,125.5 C 809.884,125.174 814.217,125.508 818.5,126.5C 822.277,135.054 825.777,143.72 829,152.5C 833.14,143.891 836.974,135.224 840.5,126.5C 844.5,126.5 848.5,126.5 852.5,126.5C 852.5,140.167 852.5,153.833 852.5,167.5C 849.5,167.5 846.5,167.5 843.5,167.5C 843.666,159.493 843.5,151.493 843,143.5C 841.961,144.244 841.461,145.244 841.5,146.5C 839.563,153.31 837.23,159.977 834.5,166.5C 831.272,167.414 827.939,167.747 824.5,167.5C 821.77,160.977 819.437,154.31 817.5,147.5C 817.013,146.527 816.513,145.527 816,144.5C 815.5,152.159 815.334,159.826 815.5,167.5C 812.167,167.5 808.833,167.5 805.5,167.5C 805.5,153.5 805.5,139.5 805.5,125.5 Z"/></g>
<g><path style="opacity:1" fill="#fb9300" d="M 148.5,111.5 C 158.765,115.757 169.098,119.923 179.5,124C 180.756,124.417 181.423,125.25 181.5,126.5C 175.542,135.458 168.209,143.125 159.5,149.5C 154.221,152.476 148.888,155.476 143.5,158.5C 141.306,161.554 139.639,164.888 138.5,168.5C 138.043,169.298 137.376,169.631 136.5,169.5C 125.766,167.6 115.099,167.6 104.5,169.5C 100.833,169.5 97.1667,169.5 93.5,169.5C 92.1266,169.657 90.7932,169.49 89.5,169C 91.7274,168.059 93.7274,166.892 95.5,165.5C 110.488,158.007 123.155,147.673 133.5,134.5C 139.68,127.643 144.68,119.977 148.5,111.5 Z"/></g>
<g><path style="opacity:1" fill="#f27b00" d="M 121.5,126.5 C 122.552,126.351 123.552,126.517 124.5,127C 127.101,130.112 130.101,132.612 133.5,134.5C 123.155,147.673 110.488,158.007 95.5,165.5C 86.1136,155.112 76.1136,145.446 65.5,136.5C 77.9338,131.761 90.9338,129.594 104.5,130C 110.252,129.15 115.919,127.983 121.5,126.5 Z"/></g>
<g><path style="opacity:0.753" fill="#ae6a01" d="M 663.5,126.5 C 663.5,126.167 663.5,125.833 663.5,125.5C 672.167,125.5 680.833,125.5 689.5,125.5C 689.5,128.5 689.5,131.5 689.5,134.5C 684.167,134.5 678.833,134.5 673.5,134.5C 678.305,133.513 683.305,133.179 688.5,133.5C 688.5,131.167 688.5,128.833 688.5,126.5C 680.167,126.5 671.833,126.5 663.5,126.5 Z"/></g>
<g><path style="opacity:0.502" fill="#734603" d="M 381.5,136.5 C 385.4,137.43 389.4,137.763 393.5,137.5C 391.696,138.162 389.696,138.495 387.5,138.5C 385.048,138.461 383.048,137.794 381.5,136.5 Z"/></g>
<g><path style="opacity:0.502" fill="#643d05" d="M 472.5,135.5 C 473.404,136.209 473.737,137.209 473.5,138.5C 468.706,139.097 464.373,138.43 460.5,136.5C 464.884,138.175 468.884,137.842 472.5,135.5 Z"/></g>
<g><path style="opacity:1" fill="#f38600" d="M 65.5,136.5 C 76.1136,145.446 86.1136,155.112 95.5,165.5C 93.7274,166.892 91.7274,168.059 89.5,169C 90.7932,169.49 92.1266,169.657 93.5,169.5C 83.6199,171.098 74.2866,174.431 65.5,179.5C 57.0356,170.535 48.369,161.702 39.5,153C 38.1807,152.805 36.8474,152.972 35.5,153.5C 44.0012,145.364 54.0012,139.697 65.5,136.5 Z"/></g>
<g><path style="opacity:0.502" fill="#7d4b01" d="M 538.5,144.5 C 537.508,152.316 537.174,160.316 537.5,168.5C 533.629,168.815 529.962,168.482 526.5,167.5C 529.833,167.5 533.167,167.5 536.5,167.5C 536.334,159.16 536.5,150.827 537,142.5C 537.717,143.044 538.217,143.711 538.5,144.5 Z"/></g>
<g><path style="opacity:0.753" fill="#ae6a01" d="M 840.5,126.5 C 844.634,125.515 848.968,125.182 853.5,125.5C 853.5,139.833 853.5,154.167 853.5,168.5C 849.833,168.5 846.167,168.5 842.5,168.5C 842.825,160.981 842.492,153.648 841.5,146.5C 841.461,145.244 841.961,144.244 843,143.5C 843.5,151.493 843.666,159.493 843.5,167.5C 846.5,167.5 849.5,167.5 852.5,167.5C 852.5,153.833 852.5,140.167 852.5,126.5C 848.5,126.5 844.5,126.5 840.5,126.5 Z"/></g>
<g><path style="opacity:0.251" fill="#472b02" d="M 805.5,125.5 C 805.5,139.5 805.5,153.5 805.5,167.5C 808.833,167.5 812.167,167.5 815.5,167.5C 815.334,159.826 815.5,152.159 816,144.5C 816.513,145.527 817.013,146.527 817.5,147.5C 816.509,154.313 816.175,161.313 816.5,168.5C 812.5,168.5 808.5,168.5 804.5,168.5C 804.171,153.99 804.504,139.657 805.5,125.5 Z"/></g>
<g><path style="opacity:1" fill="#f48200" d="M 159.5,149.5 C 161.194,151.861 163.194,153.861 165.5,155.5C 163.164,163.006 160.33,170.339 157,177.5C 155.416,176.139 153.582,175.472 151.5,175.5C 146.648,173.105 141.648,171.105 136.5,169.5C 137.376,169.631 138.043,169.298 138.5,168.5C 139.639,164.888 141.306,161.554 143.5,158.5C 148.888,155.476 154.221,152.476 159.5,149.5 Z"/></g>
<g><path style="opacity:0.251" fill="#3e2501" d="M 373.5,155.5 C 369.833,155.5 366.167,155.5 362.5,155.5C 362.5,156.5 362.5,157.5 362.5,158.5C 361.566,157.432 361.232,156.099 361.5,154.5C 365.702,154.183 369.702,154.517 373.5,155.5 Z"/></g>
<g><path style="opacity:0.251" fill="#392201" d="M 452.5,155.5 C 448.351,154.92 444.684,155.586 441.5,157.5C 440.596,156.791 440.263,155.791 440.5,154.5C 444.702,154.183 448.702,154.517 452.5,155.5 Z"/></g>
<g><path style="opacity:1" fill="#d98305" d="M 697.5,156.5 C 706.369,156.517 708.703,160.35 704.5,168C 698.694,170.024 695.027,168.19 693.5,162.5C 693.866,159.744 695.2,157.744 697.5,156.5 Z"/></g>
<g><path style="opacity:0.816" fill="#864f0d" d="M 33.5,155.5 C 31.4309,158.573 28.7642,160.906 25.5,162.5C 27.5691,159.427 30.2358,157.094 33.5,155.5 Z"/></g>
<g><path style="opacity:1" fill="#eb6f00" d="M 165.5,155.5 C 169.898,158.895 173.564,162.895 176.5,167.5C 174.653,173.367 172.653,179.2 170.5,185C 170.667,185.833 170.833,186.667 171,187.5C 172.518,188.163 173.685,189.163 174.5,190.5C 167.305,192.761 160.305,195.594 153.5,199C 153.034,200.299 153.034,201.799 153.5,203.5C 149.276,195.943 143.943,189.276 137.5,183.5C 137.5,182.5 137.5,181.5 137.5,180.5C 142.156,178.84 146.823,177.174 151.5,175.5C 153.582,175.472 155.416,176.139 157,177.5C 160.33,170.339 163.164,163.006 165.5,155.5 Z"/></g>
<g><path style="opacity:0.502" fill="#724504" d="M 262.5,166.5 C 267.298,167.744 271.965,167.744 276.5,166.5C 277.043,166.56 277.376,166.893 277.5,167.5C 272.869,168.662 268.202,168.828 263.5,168C 262.944,167.617 262.611,167.117 262.5,166.5 Z"/></g>
<g><path style="opacity:0.502" fill="#784904" d="M 343.5,165.5 C 347.786,167.591 352.119,167.924 356.5,166.5C 357.043,166.56 357.376,166.893 357.5,167.5C 353.167,168.833 348.833,168.833 344.5,167.5C 344.137,166.817 343.804,166.15 343.5,165.5 Z"/></g>
<g><path style="opacity:0.502" fill="#7a4a01" d="M 663.5,125.5 C 663.5,125.833 663.5,126.167 663.5,126.5C 663.5,140.167 663.5,153.833 663.5,167.5C 671.833,167.5 680.167,167.5 688.5,167.5C 688.5,164.833 688.5,162.167 688.5,159.5C 689.477,162.287 689.81,165.287 689.5,168.5C 680.5,168.5 671.5,168.5 662.5,168.5C 662.171,153.99 662.504,139.657 663.5,125.5 Z"/></g>
<g><path style="opacity:0.502" fill="#6c4103" d="M 834.5,166.5 C 833.306,167.777 831.64,168.444 829.5,168.5C 827.631,168.493 825.964,168.16 824.5,167.5C 827.939,167.747 831.272,167.414 834.5,166.5 Z"/></g>
<g><path style="opacity:1" fill="#f99300" d="M 65.5,179.5 C 48.8043,191.898 39.8043,208.565 38.5,229.5C 25.8333,229.5 13.1667,229.5 0.5,229.5C 0.5,225.833 0.5,222.167 0.5,218.5C 2.67394,196.939 11.0073,178.273 25.5,162.5C 28.7642,160.906 31.4309,158.573 33.5,155.5C 33.8333,154.5 34.5,153.833 35.5,153.5C 36.8474,152.972 38.1807,152.805 39.5,153C 48.369,161.702 57.0356,170.535 65.5,179.5 Z"/></g>
<g><path style="opacity:1" fill="#de5f01" d="M 136.5,169.5 C 141.648,171.105 146.648,173.105 151.5,175.5C 146.823,177.174 142.156,178.84 137.5,180.5C 137.5,181.5 137.5,182.5 137.5,183.5C 127.728,175.776 116.728,171.11 104.5,169.5C 115.099,167.6 125.766,167.6 136.5,169.5 Z"/></g>
<g><path style="opacity:1" fill="#df5600" d="M 176.5,167.5 C 191.121,184.685 198.455,204.685 198.5,227.5C 198.5,228.167 198.167,228.5 197.5,228.5C 195.954,221.405 193.287,214.738 189.5,208.5C 185.224,201.891 180.224,195.891 174.5,190.5C 173.685,189.163 172.518,188.163 171,187.5C 170.833,186.667 170.667,185.833 170.5,185C 172.653,179.2 174.653,173.367 176.5,167.5 Z"/></g>
<g><path style="opacity:1" fill="#f17b00" d="M 174.5,190.5 C 180.224,195.891 185.224,201.891 189.5,208.5C 179.132,212.611 169.132,217.277 159.5,222.5C 157.938,216.141 155.938,209.808 153.5,203.5C 153.034,201.799 153.034,200.299 153.5,199C 160.305,195.594 167.305,192.761 174.5,190.5 Z"/></g>
<g><path style="opacity:1" fill="#f88600" d="M 189.5,208.5 C 193.287,214.738 195.954,221.405 197.5,228.5C 191.509,229.166 185.343,229.5 179,229.5C 172.261,229.46 165.761,228.793 159.5,227.5C 159.5,225.833 159.5,224.167 159.5,222.5C 169.132,217.277 179.132,212.611 189.5,208.5 Z"/></g>
<g><path style="opacity:0.753" fill="#b96e00" d="M -0.5,218.5 C -0.166667,218.5 0.166667,218.5 0.5,218.5C 0.5,222.167 0.5,225.833 0.5,229.5C 13.1667,229.5 25.8333,229.5 38.5,229.5C 25.6774,230.495 12.6774,230.829 -0.5,230.5C -0.5,226.5 -0.5,222.5 -0.5,218.5 Z"/></g>
<g><path style="opacity:0.753" fill="#b36201" d="M 159.5,227.5 C 165.761,228.793 172.261,229.46 179,229.5C 185.343,229.5 191.509,229.166 197.5,228.5C 198.167,228.5 198.5,228.167 198.5,227.5C 199.404,228.209 199.737,229.209 199.5,230.5C 186.167,230.5 172.833,230.5 159.5,230.5C 159.5,229.5 159.5,228.5 159.5,227.5 Z"/></g>
</svg>
