<svg width="303" height="112" viewBox="0 0 303 112" fill="none" xmlns="http://www.w3.org/2000/svg">
<ellipse cx="53.6" cy="56" rx="53.6" ry="56" fill="#E49F64"/>
<path d="M108.784 52.904C108.784 49.576 109.504 46.616 110.944 44.024C112.384 41.4 114.384 39.368 116.944 37.928C119.536 36.456 122.464 35.72 125.728 35.72C129.728 35.72 133.152 36.776 136 38.888C138.848 41 140.752 43.88 141.712 47.528H132.688C132.016 46.12 131.056 45.048 129.808 44.312C128.592 43.576 127.2 43.208 125.632 43.208C123.104 43.208 121.056 44.088 119.488 45.848C117.92 47.608 117.136 49.96 117.136 52.904C117.136 55.848 117.92 58.2 119.488 59.96C121.056 61.72 123.104 62.6 125.632 62.6C127.2 62.6 128.592 62.232 129.808 61.496C131.056 60.76 132.016 59.688 132.688 58.28H141.712C140.752 61.928 138.848 64.808 136 66.92C133.152 69 129.728 70.04 125.728 70.04C122.464 70.04 119.536 69.32 116.944 67.88C114.384 66.408 112.384 64.376 110.944 61.784C109.504 59.192 108.784 56.232 108.784 52.904ZM158.93 70.184C156.306 70.184 153.938 69.624 151.826 68.504C149.746 67.384 148.098 65.784 146.882 63.704C145.698 61.624 145.106 59.192 145.106 56.408C145.106 53.656 145.714 51.24 146.93 49.16C148.146 47.048 149.81 45.432 151.922 44.312C154.034 43.192 156.402 42.632 159.026 42.632C161.65 42.632 164.018 43.192 166.13 44.312C168.242 45.432 169.906 47.048 171.122 49.16C172.338 51.24 172.946 53.656 172.946 56.408C172.946 59.16 172.322 61.592 171.074 63.704C169.858 65.784 168.178 67.384 166.034 68.504C163.922 69.624 161.554 70.184 158.93 70.184ZM158.93 63.08C160.498 63.08 161.826 62.504 162.914 61.352C164.034 60.2 164.594 58.552 164.594 56.408C164.594 54.264 164.05 52.616 162.962 51.464C161.906 50.312 160.594 49.736 159.026 49.736C157.426 49.736 156.098 50.312 155.042 51.464C153.986 52.584 153.458 54.232 153.458 56.408C153.458 58.552 153.97 60.2 154.994 61.352C156.05 62.504 157.362 63.08 158.93 63.08ZM203.749 43.016V69.8H195.541V66.152C194.709 67.336 193.573 68.296 192.133 69.032C190.725 69.736 189.157 70.088 187.429 70.088C185.381 70.088 183.573 69.64 182.005 68.744C180.437 67.816 179.221 66.488 178.357 64.76C177.493 63.032 177.061 61 177.061 58.664V43.016H185.221V57.56C185.221 59.352 185.685 60.744 186.613 61.736C187.541 62.728 188.789 63.224 190.357 63.224C191.957 63.224 193.221 62.728 194.149 61.736C195.077 60.744 195.541 59.352 195.541 57.56V43.016H203.749ZM217.853 47.48C218.813 46.008 220.013 44.856 221.453 44.024C222.893 43.16 224.493 42.728 226.253 42.728V51.416H223.997C221.949 51.416 220.413 51.864 219.389 52.76C218.365 53.624 217.853 55.16 217.853 57.368V69.8H209.645V43.016H217.853V47.48ZM241.072 70.184C238.736 70.184 236.656 69.784 234.832 68.984C233.008 68.184 231.568 67.096 230.512 65.72C229.456 64.312 228.864 62.744 228.736 61.016H236.848C236.944 61.944 237.376 62.696 238.144 63.272C238.912 63.848 239.856 64.136 240.976 64.136C242 64.136 242.784 63.944 243.328 63.56C243.904 63.144 244.192 62.616 244.192 61.976C244.192 61.208 243.792 60.648 242.992 60.296C242.192 59.912 240.896 59.496 239.104 59.048C237.184 58.6 235.584 58.136 234.304 57.656C233.024 57.144 231.92 56.36 230.992 55.304C230.064 54.216 229.6 52.76 229.6 50.936C229.6 49.4 230.016 48.008 230.848 46.76C231.712 45.48 232.96 44.472 234.592 43.736C236.256 43 238.224 42.632 240.496 42.632C243.856 42.632 246.496 43.464 248.416 45.128C250.368 46.792 251.488 49 251.776 51.752H244.192C244.064 50.824 243.648 50.088 242.944 49.544C242.272 49 241.376 48.728 240.256 48.728C239.296 48.728 238.56 48.92 238.048 49.304C237.536 49.656 237.28 50.152 237.28 50.792C237.28 51.56 237.68 52.136 238.48 52.52C239.312 52.904 240.592 53.288 242.32 53.672C244.304 54.184 245.92 54.696 247.168 55.208C248.416 55.688 249.504 56.488 250.432 57.608C251.392 58.696 251.888 60.168 251.92 62.024C251.92 63.592 251.472 65 250.576 66.248C249.712 67.464 248.448 68.424 246.784 69.128C245.152 69.832 243.248 70.184 241.072 70.184ZM282.19 55.976C282.19 56.744 282.142 57.544 282.046 58.376H263.47C263.598 60.04 264.126 61.32 265.054 62.216C266.014 63.08 267.182 63.512 268.558 63.512C270.606 63.512 272.03 62.648 272.83 60.92H281.566C281.118 62.68 280.302 64.264 279.118 65.672C277.966 67.08 276.51 68.184 274.75 68.984C272.99 69.784 271.022 70.184 268.846 70.184C266.222 70.184 263.886 69.624 261.838 68.504C259.79 67.384 258.19 65.784 257.038 63.704C255.886 61.624 255.31 59.192 255.31 56.408C255.31 53.624 255.87 51.192 256.99 49.112C258.142 47.032 259.742 45.432 261.79 44.312C263.838 43.192 266.19 42.632 268.846 42.632C271.438 42.632 273.742 43.176 275.758 44.264C277.774 45.352 279.342 46.904 280.462 48.92C281.614 50.936 282.19 53.288 282.19 55.976ZM273.79 53.816C273.79 52.408 273.31 51.288 272.35 50.456C271.39 49.624 270.19 49.208 268.75 49.208C267.374 49.208 266.206 49.608 265.246 50.408C264.318 51.208 263.742 52.344 263.518 53.816H273.79ZM290.36 70.184C288.92 70.184 287.736 69.768 286.808 68.936C285.912 68.072 285.464 67.016 285.464 65.768C285.464 64.488 285.912 63.416 286.808 62.552C287.736 61.688 288.92 61.256 290.36 61.256C291.768 61.256 292.92 61.688 293.816 62.552C294.744 63.416 295.208 64.488 295.208 65.768C295.208 67.016 294.744 68.072 293.816 68.936C292.92 69.768 291.768 70.184 290.36 70.184Z" fill="#055EA8"/>
<path d="M55.9361 42.8L54.656 50.288H69.056L67.3281 59.824H52.928L51.456 68.016H67.7761L66.048 78H37.12L45.12 32.88H73.9841L72.2561 42.8H55.9361Z" fill="white"/>
</svg>
