<svg width="30" height="30" viewBox="0 0 30 30" fill="none" xmlns="http://www.w3.org/2000/svg">
<rect width="30" height="30" rx="5" fill="#C7E5F2"/>
<path d="M21.2937 18.9973H8.70356C8.45512 18.9973 8.25391 18.7738 8.25391 18.4978V9.50729C8.25391 9.23133 8.45512 9.00781 8.70356 9.00781H21.2937C21.5422 9.00781 21.7434 9.23133 21.7434 9.50729V18.4978C21.7434 18.7738 21.5422 18.9973 21.2937 18.9973Z" fill="url(#paint0_linear_128_1076)"/>
<path opacity="0.3" d="M21.2937 18.9973H8.70356C8.45512 18.9973 8.25391 18.7738 8.25391 18.4978V9.50729C8.25391 9.23133 8.45512 9.00781 8.70356 9.00781H21.2937C21.5422 9.00781 21.7434 9.23133 21.7434 9.50729V18.4978C21.7434 18.7738 21.5422 18.9973 21.2937 18.9973Z" fill="url(#paint1_linear_128_1076)"/>
<path opacity="0.3" d="M21.2957 18.9973H8.70551C8.45708 18.9973 8.25586 18.7738 8.25586 18.4978V9.50729C8.25586 9.23133 8.45708 9.00781 8.70551 9.00781H21.2957C21.5441 9.00781 21.7453 9.23133 21.7453 9.50729V18.4978C21.7453 18.7738 21.543 18.9973 21.2957 18.9973Z" fill="url(#paint2_linear_128_1076)"/>
<path d="M9.15332 10.0049H11.8512V10.5044H9.15332V10.0049Z" fill="#76FF03"/>
<path d="M17.46 10.0049H19.2586V10.5044H17.46V10.0049Z" fill="#76FF03"/>
<path d="M19.9297 10.0049H20.829V10.5044H19.9297V10.0049Z" fill="#76FF03"/>
<path d="M10.0527 11.5029H10.952V12.0024H10.0527V11.5029Z" fill="#76FF03"/>
<path d="M9.15332 13.002H10.9519V13.5014H9.15332V13.002Z" fill="#76FF03"/>
<path d="M9.15332 14.501H10.0526V15.0005H9.15332V14.501Z" fill="#76FF03"/>
<path d="M18.8203 14.501H20.1693V15.0005H18.8203V14.501Z" fill="#76FF03"/>
<path d="M19.4951 13.002H20.8441V13.5014H19.4951V13.002Z" fill="#76FF03"/>
<path d="M9.15332 15.999H10.9519V16.4985H9.15332V15.999Z" fill="#76FF03"/>
<path d="M18.5957 15.999H20.844V16.4985H18.5957V15.999Z" fill="#76FF03"/>
<path d="M19.0449 11.5029H20.3939V12.0024H19.0449V11.5029Z" fill="#76FF03"/>
<path d="M8.66233 23.4891H10.1046C10.2305 23.4778 10.3305 23.3417 10.3305 23.1744V23.0932C10.3305 22.6462 10.1496 22.2554 9.87864 22.0381C9.87864 22.0568 9.87976 22.0755 9.87976 22.0943C9.87976 22.6062 9.65718 23.0208 9.38402 23.0208C9.11086 23.0208 8.88828 22.6062 8.88828 22.0943C8.88828 22.0755 8.88941 22.0568 8.88941 22.0381C8.61849 22.2566 8.43751 22.6462 8.43751 23.0932V23.1744C8.43639 23.343 8.53643 23.4778 8.66233 23.4891Z" fill="#26A69A"/>
<path d="M9.38333 23.022C10.395 23.022 9.87906 22.6074 9.87906 22.0955C9.87906 22.0768 9.87794 22.058 9.87794 22.0393C9.73405 21.9232 9.56431 21.8545 9.38333 21.8545C9.20234 21.8545 9.0326 21.9232 8.88871 22.0393C8.88759 22.058 8.88759 22.0768 8.88759 22.0955C8.88646 22.6074 8.36712 23.022 9.38333 23.022Z" fill="#00796B"/>
<path d="M10.9506 21.344C10.9383 20.9894 10.7 20.2577 10.3886 20.1965C10.3695 20.1927 10.3526 20.1827 10.3425 20.1653C10.293 20.0816 10.1345 19.8568 9.8445 20.0342C9.73658 20.1003 9.69836 20.159 9.71635 20.2439C9.70286 20.2614 9.67813 20.2826 9.64216 20.2664C9.52525 20.1216 9.38136 20.0916 9.21387 20.2364C9.02389 20.4013 9.02389 20.5186 9.05761 20.6348L9.05649 20.636C9.05649 20.636 9.04862 20.7172 8.99354 20.7109C8.93621 20.656 8.86764 20.656 8.7586 20.7434C8.46632 20.9782 8.58661 21.2004 8.63607 21.3315C8.62932 21.344 8.61808 21.3528 8.6001 21.3515C8.56187 21.329 8.51354 21.329 8.44834 21.3702C8.29321 21.4689 8.31569 21.7936 8.35953 21.8997C8.40787 22.0158 8.67429 22.4229 8.76534 22.5378C8.7867 22.564 8.81255 22.5827 8.84066 22.5952C8.83729 22.594 8.83391 22.5927 8.83166 22.5915C8.91148 22.6464 9.05087 22.7126 9.18689 22.6189C9.18689 22.6189 9.27345 22.549 9.28131 22.4753C9.42857 22.5665 9.63204 22.3967 9.63204 22.3967C9.72759 22.3155 9.75232 22.2243 9.74895 22.1457C9.79729 22.1781 9.85012 22.1906 9.90071 22.1919C10.0536 22.1969 10.1941 22.097 10.1941 22.097C10.4133 21.9584 10.4571 21.8135 10.456 21.7174C10.5696 21.796 10.7101 21.7374 10.7101 21.7374C10.9585 21.6112 10.9506 21.344 10.9506 21.344Z" fill="url(#paint3_linear_128_1076)"/>
<path d="M19.9399 23.489H21.3833C21.3833 23.489 21.4462 22.2665 19.6791 22.2079C17.912 22.1504 19.9399 23.489 19.9399 23.489Z" fill="#26A69A"/>
<path d="M18.9864 21.9485C18.9987 21.5939 19.237 20.8622 19.5484 20.801C19.5675 20.7972 19.5844 20.7872 19.5945 20.7698C19.644 20.6861 19.8025 20.4613 20.0925 20.6386C20.2004 20.7048 20.2386 20.7635 20.2206 20.8484C20.2341 20.8659 20.2589 20.8871 20.2948 20.8709C20.4117 20.7261 20.5556 20.6961 20.7231 20.8409C20.9131 21.0058 20.9131 21.1231 20.8794 21.2393L20.8805 21.2405C20.8805 21.2405 20.8884 21.3217 20.9435 21.3154C21.0008 21.2605 21.0694 21.2605 21.1784 21.3479C21.4707 21.5827 21.3504 21.8049 21.3009 21.936C21.3077 21.9485 21.3178 21.9573 21.3369 21.956C21.3751 21.9335 21.4235 21.9335 21.4887 21.9747C21.6438 22.0734 21.6213 22.398 21.5775 22.5042C21.5291 22.6203 21.2638 23.0274 21.1717 23.1423C21.1503 23.1685 21.1244 23.1872 21.0963 23.1997C21.0997 23.1984 21.1031 23.1972 21.1053 23.196C21.0255 23.2509 20.8861 23.3171 20.7501 23.2234C20.7501 23.2234 20.6635 23.1535 20.6557 23.0798C20.5084 23.171 20.305 23.0012 20.305 23.0012C20.2094 22.92 20.1847 22.8288 20.188 22.7502C20.1397 22.7826 20.0869 22.7951 20.0363 22.7964C19.8834 22.8014 19.7429 22.7015 19.7429 22.7015C19.5237 22.5629 19.4798 22.418 19.481 22.3219C19.3674 22.4005 19.2269 22.3419 19.2269 22.3419C18.9785 22.217 18.9864 21.9485 18.9864 21.9485Z" fill="url(#paint4_linear_128_1076)"/>
<path d="M20.8713 23.1847C20.8522 23.1735 20.8342 23.161 20.8174 23.1448C20.8151 23.1423 20.8117 23.1398 20.8095 23.136C20.778 23.0973 20.769 23.0349 20.8511 22.91C21.0759 22.5791 21.1647 22.3319 21.1647 22.3319C21.2265 22.1583 21.2041 22.1296 21.2041 22.1296C21.1827 22.0909 21.1389 22.2033 21.1389 22.2033C20.9163 22.6491 20.7634 22.8439 20.6971 22.9163C20.6937 22.9188 20.6903 22.9213 20.687 22.9225C20.6746 22.9313 20.6611 22.94 20.6465 22.9462C20.6409 22.9487 20.6341 22.9512 20.6285 22.9537C20.6161 22.9587 20.6027 22.9612 20.5892 22.9637C20.5824 22.965 20.5757 22.9662 20.5678 22.9662C20.5532 22.9662 20.5386 22.965 20.5228 22.9612C20.5161 22.96 20.5093 22.96 20.5026 22.9575C20.4801 22.95 20.4565 22.9412 20.4329 22.925C20.4217 22.9175 20.4116 22.91 20.4014 22.9013C20.3969 22.8963 20.3913 22.8913 20.3868 22.8863C20.3823 22.8813 20.3767 22.8763 20.3722 22.8713C20.3666 22.8638 20.361 22.8551 20.3553 22.8476C20.3531 22.8439 20.3497 22.8401 20.3475 22.8351C20.3419 22.8251 20.3374 22.8151 20.3329 22.8039C20.3317 22.8001 20.3295 22.7964 20.3284 22.7927C20.3239 22.7814 20.3216 22.7689 20.3194 22.7564C20.3182 22.7527 20.3171 22.749 20.316 22.7452C20.3138 22.7327 20.3138 22.719 20.3126 22.7065C20.3126 22.7015 20.3115 22.6978 20.3115 22.694C20.3115 22.6803 20.3138 22.6665 20.316 22.6528C20.3171 22.6478 20.3171 22.6428 20.3182 22.6366C20.3205 22.6228 20.3261 22.6091 20.3306 22.5941C20.3329 22.5879 20.334 22.5816 20.3362 22.5766C20.5925 22.1746 20.7252 21.8237 20.7252 21.8237C20.7679 21.7263 20.7836 21.6239 20.7836 21.6239C20.7555 21.5664 20.7106 21.6501 20.7106 21.6501C20.4183 22.2545 20.2452 22.4967 20.2452 22.4967C20.2452 22.4967 20.1092 22.7602 19.8113 22.5629C19.8113 22.5629 19.664 22.458 19.6393 22.3843C19.6179 22.3231 19.6044 22.2145 19.6797 22.0597C19.6797 22.0597 19.8585 21.6539 20.153 21.1431C20.153 21.1431 20.1721 21.0632 20.1058 21.1082C20.0541 21.1431 20.017 21.2156 19.999 21.238C19.999 21.238 19.8248 21.4965 19.5718 22.0122C19.5718 22.0122 19.5156 22.1309 19.4504 22.1895C19.3863 22.2195 19.3054 22.2083 19.2166 22.1346C19.0244 21.9748 19.0963 21.7513 19.2031 21.5215C19.2616 21.3966 19.3953 21.1157 19.5224 20.8909C19.5347 20.8859 19.5471 20.8809 19.5595 20.8784C19.5999 20.8709 19.6325 20.8472 19.6528 20.8122C19.7539 20.6412 19.6741 20.4863 19.5325 20.7248C19.1773 20.7923 18.9255 21.5639 18.9131 21.9448C18.9131 21.9585 18.9075 22.2682 19.1952 22.4106C19.2042 22.4143 19.3088 22.4568 19.4212 22.428C19.4493 22.5317 19.5257 22.6528 19.7045 22.7664C19.7078 22.7689 19.8641 22.8751 20.035 22.8726C20.0664 22.8713 20.0979 22.8676 20.1271 22.8588C20.1451 22.9238 20.1834 22.9949 20.2598 23.0599C20.2688 23.0674 20.4442 23.2135 20.6128 23.176C20.6454 23.2334 20.6926 23.2734 20.7049 23.2834C20.7567 23.3196 20.8117 23.3383 20.8679 23.3433H20.9185C20.9905 23.3383 21.0658 23.3109 21.14 23.2597C21.1411 23.2597 21.1411 23.2584 21.1422 23.2584C21.3165 23.1261 21.5671 22.5729 21.5671 22.5167C21.5683 22.5167 21.1894 23.2459 20.8713 23.1847Z" fill="#EDBD82"/>
<path d="M18.072 14.3027H11.9276C11.2655 14.3027 10.7236 14.9446 10.7236 15.7275C10.7236 16.5117 11.2655 17.1522 11.9276 17.1522H18.0709C18.733 17.1522 19.2748 16.5104 19.2748 15.7275C19.276 14.9446 18.7341 14.3027 18.072 14.3027Z" fill="#EDC391"/>
<path d="M14.9995 9.3877C13.0435 9.3877 11.2314 11.7115 11.2314 15.0555C11.2314 18.382 13.0986 20.0265 14.9995 20.0265C16.9004 20.0265 18.7676 18.382 18.7676 15.0555C18.7676 11.7115 16.9555 9.3877 14.9995 9.3877Z" fill="#F9DDBD"/>
<path d="M13.1518 15.9865C13.4579 15.9865 13.706 15.7014 13.706 15.3497C13.706 14.998 13.4579 14.7129 13.1518 14.7129C12.8458 14.7129 12.5977 14.998 12.5977 15.3497C12.5977 15.7014 12.8458 15.9865 13.1518 15.9865Z" fill="#312D2D"/>
<path d="M16.8472 15.9865C17.1532 15.9865 17.4014 15.7014 17.4014 15.3497C17.4014 14.998 17.1532 14.7129 16.8472 14.7129C16.5411 14.7129 16.293 14.998 16.293 15.3497C16.293 15.7014 16.5411 15.9865 16.8472 15.9865Z" fill="#312D2D"/>
<path d="M15.434 16.5051C15.4217 16.5001 15.4104 16.4964 15.3981 16.4951H14.6033C14.5909 16.4964 14.5786 16.5001 14.5673 16.5051C14.4954 16.5376 14.456 16.62 14.4898 16.7086C14.5235 16.7973 14.682 17.0445 15.0012 17.0445C15.3205 17.0445 15.479 16.7961 15.5127 16.7086C15.5453 16.62 15.506 16.5376 15.434 16.5051Z" fill="#DBA689"/>
<path d="M12.3027 14.3371C12.6389 13.809 13.4021 13.759 13.8394 14.1523C13.9091 14.2148 14.0013 14.3022 14.0283 14.3996C14.0732 14.5582 13.9361 14.6818 13.8023 14.6443C13.7169 14.6206 13.6371 14.5694 13.5528 14.5407C13.3988 14.487 13.2875 14.472 13.1492 14.472C12.9446 14.4708 12.8131 14.4995 12.6186 14.5869C12.5388 14.6231 12.4736 14.6805 12.3826 14.6381C12.2791 14.5894 12.2398 14.442 12.3027 14.3371Z" fill="#454140"/>
<path d="M17.481 14.6373C17.4484 14.621 17.4169 14.6011 17.3843 14.5861C17.1842 14.4937 17.0707 14.47 16.8537 14.4712C16.6626 14.4724 16.5491 14.5012 16.3996 14.5574C16.3085 14.5923 16.1927 14.6797 16.0915 14.646C15.9432 14.5961 15.9477 14.4163 16.0286 14.3014C16.1253 14.1665 16.2579 14.0641 16.3984 13.9967C16.7244 13.8394 17.1224 13.8618 17.4293 14.0654C17.5293 14.1316 17.6383 14.2227 17.699 14.3376C17.7878 14.5012 17.6541 14.7159 17.481 14.6373Z" fill="#454140"/>
<path d="M11.001 21.2729C10.9875 20.8921 10.7357 20.1204 10.3816 20.053C10.2411 19.8145 10.1602 19.9693 10.2614 20.1404C10.2816 20.1753 10.3153 20.1978 10.3547 20.2065C10.367 20.209 10.3794 20.214 10.3918 20.219C10.5188 20.4438 10.6526 20.726 10.711 20.8496C10.8178 21.0781 10.8886 21.3016 10.6975 21.4627C10.6087 21.5364 10.5289 21.5476 10.4637 21.5177C10.3996 21.459 10.3423 21.3404 10.3423 21.3404C10.0894 20.8246 9.91513 20.5662 9.91513 20.5662C9.89714 20.5437 9.86117 20.4725 9.80834 20.4363C9.74201 20.3914 9.76112 20.4713 9.76112 20.4713C10.0556 20.9807 10.2344 21.3878 10.2344 21.3878C10.3108 21.5426 10.2973 21.6513 10.2748 21.7125C10.2501 21.7861 10.1029 21.891 10.1029 21.891C9.80609 22.0883 9.66894 21.8248 9.66894 21.8248C9.66894 21.8248 9.4947 21.5826 9.20356 20.9782C9.20356 20.9782 9.15747 20.8946 9.13049 20.952C9.13049 20.952 9.14623 21.0544 9.18894 21.1518C9.18894 21.1518 9.32159 21.5014 9.57789 21.9048C9.58014 21.911 9.58126 21.9172 9.58351 21.9222C9.58801 21.936 9.5925 21.951 9.59588 21.9647C9.597 21.9697 9.597 21.9747 9.59812 21.9809C9.60037 21.9947 9.60262 22.0084 9.60262 22.0221C9.60262 22.0271 9.6015 22.0309 9.6015 22.0346C9.6015 22.0484 9.60037 22.0608 9.59812 22.0733C9.597 22.0771 9.59588 22.0808 9.59588 22.0846C9.59363 22.0971 9.59026 22.1095 9.58576 22.1208C9.58463 22.1245 9.58239 22.1283 9.58126 22.132C9.57677 22.142 9.57227 22.1532 9.56665 22.1632C9.5644 22.167 9.56103 22.1707 9.55878 22.1757C9.55316 22.1845 9.54754 22.192 9.54192 22.1994C9.53742 22.2044 9.5318 22.2094 9.5273 22.2144C9.52281 22.2194 9.51831 22.2244 9.51269 22.2294C9.50257 22.2382 9.49133 22.2469 9.48122 22.2531C9.45648 22.2681 9.43288 22.2794 9.41152 22.2856C9.40478 22.2881 9.39803 22.2881 9.39016 22.2894C9.37442 22.2918 9.35981 22.2943 9.3452 22.2943C9.33845 22.2943 9.33058 22.2931 9.32384 22.2919C9.31035 22.2894 9.29686 22.2869 9.28449 22.2819C9.27887 22.2794 9.27213 22.2769 9.26651 22.2744C9.25302 22.2681 9.23953 22.2594 9.22604 22.2506C9.22267 22.2481 9.21929 22.2469 9.21592 22.2444C9.1496 22.172 8.99672 21.9772 8.77414 21.5314C8.77414 21.5314 8.7303 21.419 8.70894 21.4577C8.70894 21.4577 8.68646 21.4877 8.74829 21.66C8.74829 21.66 8.83709 21.9073 9.06192 22.2382C9.14398 22.363 9.13499 22.4255 9.10351 22.4642C9.10126 22.4667 9.09789 22.4692 9.09564 22.4729C9.0799 22.4891 9.06079 22.5016 9.04168 22.5129C8.72356 22.5741 8.34473 21.8436 8.34473 21.8436C8.34473 21.901 8.59541 22.4542 8.76965 22.5853C8.77077 22.5853 8.77077 22.5865 8.77189 22.5865C8.84609 22.6377 8.92028 22.6652 8.99335 22.6702H9.04393C9.10126 22.6652 9.15634 22.6465 9.20693 22.6103C9.21929 22.6003 9.26651 22.5591 9.29911 22.5029C9.46773 22.5403 9.64421 22.3942 9.65208 22.3867C9.72852 22.3218 9.76674 22.2506 9.78473 22.1857C9.81396 22.1945 9.84431 22.1994 9.87691 22.1994C10.0478 22.2032 10.204 22.0958 10.2074 22.0933C10.3861 21.9809 10.4626 21.8586 10.4907 21.7549C10.6031 21.7824 10.7076 21.7412 10.7166 21.7374C11.0067 21.5963 11.001 21.2867 11.001 21.2729Z" fill="#EDBD82"/>
<path d="M20.1691 23.4893V18.1437C20.1691 17.6966 19.8408 17.332 19.4384 17.332H10.5578C10.1554 17.332 9.82715 17.6966 9.82715 18.1437V23.4905L20.1691 23.4893Z" fill="url(#paint5_linear_128_1076)"/>
<path d="M16.6847 23.4895C16.6162 23.2485 16.5262 22.9763 16.4498 22.6866C16.2958 22.1047 16.2317 21.1332 16.2047 20.4552C16.1879 20.0269 15.8686 19.6885 15.4797 19.6885H14.5185C14.1296 19.6885 13.8103 20.0256 13.7935 20.4552C13.7665 21.1332 13.7024 22.1047 13.5484 22.6866C13.472 22.9763 13.3832 23.2485 13.3135 23.4895H16.6847Z" fill="url(#paint6_linear_128_1076)"/>
<path d="M15 8.50977C14.9988 8.50977 14.9988 8.50977 14.9977 8.50977C14.9966 8.50977 14.9966 8.50977 14.9955 8.50977C9.88857 8.53973 10.9351 15.0204 10.9351 15.0204C10.9351 15.0204 11.1644 15.6885 11.269 15.9831C11.2836 16.0256 11.3398 16.0206 11.3488 15.9769C11.4578 15.435 11.8502 13.5132 12.048 12.9289C12.1649 12.5842 12.4864 12.3844 12.8113 12.4506C13.3115 12.5518 14.1097 12.6766 14.9887 12.6766H14.9977C14.9977 12.6766 15.0045 12.6766 15.0067 12.6766C15.8858 12.6766 16.6839 12.5518 17.1841 12.4506C17.5101 12.3844 17.8316 12.5855 17.9474 12.9289C18.1441 13.5107 18.5342 15.4212 18.6444 15.9707C18.6534 16.0156 18.7096 16.0194 18.7242 15.9769L19.0592 15.0192C19.0614 15.0204 20.108 8.53973 15 8.50977Z" fill="#312D2D"/>
<path d="M19.0614 15.0204C19.0614 15.0204 20.108 8.53973 15 8.50977C14.9989 8.50977 14.9989 8.50977 14.9977 8.50977C14.9966 8.50977 14.9966 8.50977 14.9955 8.50977C14.9157 8.50977 14.8381 8.51226 14.7617 8.51601C14.6099 8.5235 14.4627 8.53599 14.321 8.55472C14.3199 8.55472 14.3176 8.55472 14.3165 8.55472C14.3064 8.55597 14.2974 8.55846 14.2873 8.55971C9.98864 9.16033 10.9352 15.0204 10.9352 15.0204L11.2701 15.9794C11.2848 16.0219 11.3398 16.0181 11.3488 15.9732C11.459 15.425 11.8502 13.512 12.048 12.9301C12.1649 12.5855 12.4864 12.3857 12.8113 12.4519C13.3116 12.553 14.1097 12.6779 14.9887 12.6779H14.9977C14.9977 12.6779 15.0045 12.6779 15.0067 12.6779C15.8858 12.6779 16.6839 12.553 17.1842 12.4519C17.5102 12.3857 17.8317 12.5867 17.9474 12.9301C18.1453 13.5145 18.5376 15.44 18.6455 15.9794C18.6545 16.0244 18.7096 16.0281 18.7242 15.9856C18.831 15.691 19.0614 15.0204 19.0614 15.0204Z" fill="url(#paint7_radial_128_1076)"/>
<defs>
<linearGradient id="paint0_linear_128_1076" x1="14.9991" y1="9.07127" x2="14.9991" y2="19.0062" gradientUnits="userSpaceOnUse">
<stop offset="0.0032" stop-color="#424242"/>
<stop offset="0.2705" stop-color="#353535"/>
<stop offset="0.7639" stop-color="#131313"/>
<stop offset="1"/>
</linearGradient>
<linearGradient id="paint1_linear_128_1076" x1="14.9991" y1="9.07127" x2="14.9991" y2="19.0062" gradientUnits="userSpaceOnUse">
<stop offset="0.0012" stop-color="#BFBEBE"/>
<stop offset="0.15" stop-color="#212121" stop-opacity="0"/>
<stop offset="0.7759" stop-color="#212121" stop-opacity="0"/>
<stop offset="1" stop-color="#BFBEBE"/>
</linearGradient>
<linearGradient id="paint2_linear_128_1076" x1="8.34136" y1="14.0023" x2="21.7572" y2="14.0023" gradientUnits="userSpaceOnUse">
<stop offset="0.0012" stop-color="#BFBEBE"/>
<stop offset="0.1" stop-color="#212121" stop-opacity="0"/>
<stop offset="0.9" stop-color="#212121" stop-opacity="0"/>
<stop offset="1" stop-color="#BFBEBE"/>
</linearGradient>
<linearGradient id="paint3_linear_128_1076" x1="10.101" y1="22.1077" x2="8.85456" y2="20.5109" gradientUnits="userSpaceOnUse">
<stop stop-color="#FFD29C"/>
<stop offset="0.5" stop-color="#F9DDBD"/>
</linearGradient>
<linearGradient id="paint4_linear_128_1076" x1="19.8352" y1="22.7125" x2="21.0816" y2="21.1157" gradientUnits="userSpaceOnUse">
<stop stop-color="#FFD29C"/>
<stop offset="0.5" stop-color="#F9DDBD"/>
</linearGradient>
<linearGradient id="paint5_linear_128_1076" x1="14.9986" y1="17.3138" x2="14.9986" y2="25.8564" gradientUnits="userSpaceOnUse">
<stop stop-color="#4DD0E1"/>
<stop offset="1" stop-color="#00BCD4"/>
</linearGradient>
<linearGradient id="paint6_linear_128_1076" x1="14.9989" y1="19.5704" x2="14.9989" y2="24.475" gradientUnits="userSpaceOnUse">
<stop stop-color="#00BCD4"/>
<stop offset="1" stop-color="#0097A7"/>
</linearGradient>
<radialGradient id="paint7_radial_128_1076" cx="0" cy="0" r="1" gradientUnits="userSpaceOnUse" gradientTransform="translate(14.9981 13.8876) scale(4.28207 5.36634)">
<stop offset="0.7945" stop-color="#454140" stop-opacity="0"/>
<stop offset="1" stop-color="#454140"/>
</radialGradient>
</defs>
</svg>
