<svg width="24" height="24" viewBox="0 0 24 24" fill="none" xmlns="http://www.w3.org/2000/svg">
<path d="M13.001 21C13.001 21.553 12.553 22 12.001 22H8.00098C5.24398 22 3.00098 19.757 3.00098 17V7C3.00098 4.243 5.24398 2 8.00098 2H12.001C12.553 2 13.001 2.447 13.001 3C13.001 3.553 12.553 4 12.001 4H8.00098C6.34698 4 5.00098 5.346 5.00098 7V17C5.00098 18.654 6.34698 20 8.00098 20H12.001C12.553 20 13.001 20.447 13.001 21ZM20.923 12.382C21.024 12.138 21.024 11.862 20.923 11.618C20.872 11.495 20.799 11.385 20.706 11.292L16.707 7.29297C16.316 6.90197 15.684 6.90197 15.293 7.29297C14.902 7.68397 14.902 8.31603 15.293 8.70703L17.586 11H9.99997C9.44797 11 8.99997 11.447 8.99997 12C8.99997 12.553 9.44797 13 9.99997 13H17.586L15.293 15.293C14.902 15.684 14.902 16.316 15.293 16.707C15.488 16.902 15.744 17 16 17C16.256 17 16.512 16.902 16.707 16.707L20.706 12.708C20.799 12.615 20.873 12.505 20.923 12.382Z" fill="#E2313D"/>
</svg>
