<svg width="94" height="93" viewBox="0 0 94 93" fill="none" xmlns="http://www.w3.org/2000/svg">
<path d="M46.7781 4.2562C46.4334 4.2562 46.1544 3.97972 46.1544 3.63906V0.61714C46.1544 0.276479 46.4334 0 46.7781 0C47.1228 0 47.4018 0.276479 47.4018 0.61714V3.63906C47.4018 3.97972 47.1228 4.2562 46.7781 4.2562Z" fill="#3A312A"/>
<path d="M59.5665 8.4569C59.4368 8.4569 59.3058 8.417 59.1944 8.3343C58.9183 8.13064 58.8613 7.74349 59.0671 7.47072L60.8938 5.04824C61.0992 4.77423 61.4913 4.71827 61.7665 4.92234C62.0426 5.126 62.0996 5.51315 61.8938 5.78592L60.0672 8.2084C59.9445 8.37133 59.7565 8.4569 59.5665 8.4569Z" fill="#3A312A"/>
<path d="M67.2787 19.3906C67.0101 19.3906 66.7619 19.2173 66.6812 18.9491C66.5831 18.6224 66.771 18.2789 67.1016 18.1822L70.0293 17.3215C70.3569 17.224 70.7066 17.4104 70.8043 17.7374C70.9025 18.0641 70.7145 18.4077 70.384 18.5043L67.4563 19.365C67.3977 19.3827 67.3374 19.3906 67.2787 19.3906Z" fill="#3A312A"/>
<path d="M69.718 33.7595C69.6465 33.7595 69.5737 33.7476 69.5026 33.7217L66.6357 32.6791C66.3126 32.5614 66.1467 32.2068 66.2652 31.8867C66.3841 31.567 66.7421 31.4033 67.066 31.5201L69.9326 32.5627C70.2557 32.6803 70.4216 33.035 70.3031 33.3551C70.2103 33.6048 69.9717 33.7595 69.718 33.7595Z" fill="#3A312A"/>
<path d="M33.9901 8.45687C33.8001 8.45687 33.6122 8.3713 33.4899 8.20837L31.6633 5.7859C31.4571 5.51312 31.514 5.12597 31.7901 4.92231C32.0658 4.71824 32.4571 4.77461 32.6629 5.04821L34.4895 7.47069C34.6958 7.74346 34.6388 8.13061 34.3627 8.33427C34.2508 8.41738 34.1199 8.45687 33.9901 8.45687Z" fill="#3A312A"/>
<path d="M26.2781 19.3905C26.219 19.3905 26.1596 19.3827 26.1001 19.365L23.1724 18.5043C22.8423 18.4076 22.6539 18.0641 22.7521 17.7374C22.8502 17.4103 23.1978 17.2231 23.5275 17.3215L26.4552 18.1822C26.7854 18.2788 26.9737 18.6224 26.8756 18.9491C26.7949 19.2177 26.5471 19.3905 26.2781 19.3905Z" fill="#3A312A"/>
<path d="M23.8381 33.7596C23.5841 33.7596 23.3454 33.6049 23.2527 33.3556C23.1337 33.0359 23.2996 32.6808 23.6227 32.5632L26.4897 31.5206C26.8132 31.4038 27.1716 31.5675 27.2901 31.8872C27.409 32.2069 27.2431 32.5619 26.92 32.6796L24.0531 33.7222C23.9824 33.7477 23.9096 33.7596 23.8381 33.7596Z" fill="#3A312A"/>
<path d="M61.0782 24.3178C61.0782 27.91 59.7298 31.1775 57.4998 33.6749C55.3992 36.027 54.0595 38.9263 53.506 42.0054H40.0473C39.4939 38.9263 38.1629 36.027 36.0539 33.6663C33.8323 31.1771 32.4751 27.9013 32.4751 24.3178C32.4751 16.8768 38.5001 10.5815 46.0033 10.1882C54.2495 9.76033 61.0782 16.2522 61.0782 24.3178Z" fill="#D7E057"/>
<path d="M53.5063 42.6225H40.0476C39.7453 42.6225 39.4862 42.4081 39.4334 42.1135C38.8842 39.0566 37.554 36.2766 35.5868 34.0751C33.1777 31.3765 31.8513 27.9111 31.8513 24.3177C31.8513 16.5948 38.1848 9.97991 45.9699 9.57178C50.1154 9.35495 54.0481 10.79 57.0485 13.6075C60.0494 16.4249 61.7018 20.2285 61.7018 24.3177C61.7018 27.9181 60.3754 31.3864 57.9671 34.0833C55.9986 36.2873 54.6681 39.0644 54.12 42.1135C54.0672 42.4081 53.8086 42.6225 53.5063 42.6225ZM40.5628 41.3882H52.9911C53.6315 38.3157 55.0227 35.5167 57.0327 33.2662C59.2398 30.7948 60.4548 27.6169 60.4548 24.3177C60.4548 20.5708 58.94 17.0848 56.1899 14.5027C53.4402 11.921 49.8294 10.611 46.036 10.8048C38.9025 11.1784 33.0987 17.2403 33.0987 24.3177C33.0987 27.6103 34.3141 30.7853 36.5211 33.2576C38.5303 35.506 39.9212 38.3082 40.5628 41.3882Z" fill="#3A312A"/>
<path d="M38.7471 42.0091H54.8096C55.5082 42.0091 56.0745 42.5695 56.0745 43.2607V47.6909C56.0745 48.3821 55.5082 48.9425 54.8096 48.9425H38.7471C38.0486 48.9425 37.4822 48.3821 37.4822 47.6909V43.2607C37.4822 42.5695 38.0486 42.0091 38.7471 42.0091Z" fill="#87796F"/>
<path d="M54.809 49.5596H38.7466C37.7054 49.5596 36.858 48.7216 36.858 47.6909V43.2607C36.858 42.2301 37.7054 41.392 38.7466 41.392H54.809C55.8502 41.392 56.6972 42.2301 56.6972 43.2607V47.6909C56.6972 48.7211 55.8502 49.5596 54.809 49.5596ZM38.7466 42.6263C38.3931 42.6263 38.1054 42.9106 38.1054 43.2607V47.6909C38.1054 48.0406 38.3931 48.3254 38.7466 48.3254H54.809C55.1625 48.3254 55.4498 48.0411 55.4498 47.6909V43.2607C55.4498 42.9106 55.1625 42.6263 54.809 42.6263H38.7466Z" fill="#3A312A"/>
<path d="M13.4773 4.59845C13.4773 4.59845 14.8943 9.80669 18.975 10.0482C18.975 10.0482 13.528 11.9099 13.4361 15.8913C13.4361 15.8913 12.3637 10.3074 8.06183 10.107C8.06183 10.1074 13.0723 9.35618 13.4773 4.59845Z" fill="#D7E057"/>
<path d="M13.4353 16.5085C13.1388 16.5085 12.8802 16.3003 12.8232 16.0078C12.8133 15.9563 11.7858 10.8987 8.03194 10.7238C7.71177 10.709 7.4548 10.4564 7.43817 10.1392C7.42154 9.82239 7.65064 9.54508 7.96748 9.49695C8.15085 9.46897 12.4972 8.74939 12.8548 4.54667C12.8802 4.24797 13.1185 4.0114 13.4199 3.98425C13.7264 3.95956 13.9991 4.14841 14.0781 4.43764C14.0914 4.48537 15.4332 9.22088 19.0108 9.43276C19.3077 9.45004 19.5505 9.67263 19.5913 9.96433C19.632 10.2556 19.4586 10.5354 19.178 10.6317C19.1277 10.6489 14.1393 12.4049 14.0582 15.9057C14.0507 16.2213 13.8045 16.4801 13.4869 16.5064C13.4702 16.5076 13.4524 16.5085 13.4353 16.5085ZM10.2166 10.0367C11.8291 10.8472 12.807 12.4008 13.3713 13.689C14.2137 12.0346 15.8416 10.8966 17.0923 10.2219C15.3734 9.46362 14.2719 7.89691 13.627 6.63301C12.881 8.42724 11.4349 9.4591 10.2166 10.0367Z" fill="#3A312A"/>
<path d="M4.45422 11.5849C4.45422 11.5849 5.45673 15.2688 8.34282 15.4396C8.34282 15.4396 4.48998 16.7566 4.42512 19.5724C4.42512 19.5724 3.66669 15.6227 0.62384 15.4811C0.62384 15.4811 4.16815 14.95 4.45422 11.5849Z" fill="#D7E057"/>
<path d="M4.425 20.1899C4.12812 20.1899 3.86907 19.9809 3.81252 19.688C3.80587 19.6543 3.10399 16.2147 0.594618 16.0975C0.274034 16.0827 0.0174826 15.83 0.000850497 15.5128C-0.0157816 15.196 0.213326 14.9187 0.530168 14.8706C0.65283 14.8513 3.59215 14.3592 3.83248 11.5327C3.85784 11.234 4.09652 10.9966 4.39797 10.9699C4.69902 10.9431 4.97677 11.134 5.05578 11.4233C5.06451 11.4558 5.98219 14.6818 8.37971 14.8237C8.67701 14.841 8.91984 15.064 8.96017 15.3557C9.00092 15.6474 8.82753 15.9267 8.54603 16.023C8.51235 16.0345 5.10234 17.2379 5.04787 19.5868C5.04039 19.9028 4.79382 20.1615 4.47573 20.1879C4.45951 20.1891 4.44205 20.1899 4.425 20.1899ZM2.54598 15.4466C3.42208 15.995 4.01086 16.8434 4.39506 17.6189C4.96721 16.7006 5.85661 16.0259 6.62585 15.5729C5.67491 15.0508 5.01087 14.1946 4.57136 13.4236C4.08321 14.365 3.31772 15.0183 2.54598 15.4466Z" fill="#3A312A"/>
<path d="M4.45422 0.617096C4.45422 0.617096 5.45673 4.30101 8.34282 4.47216C8.34282 4.47216 4.48998 5.78913 4.42512 8.60494C4.42512 8.60494 3.66669 4.65524 0.62384 4.51371C0.62384 4.51371 4.16815 3.98215 4.45422 0.617096Z" fill="#D7E057"/>
<path d="M4.42477 9.22246C4.1283 9.22246 3.86884 9.01346 3.81271 8.72052C3.80605 8.68679 3.10418 5.24726 0.594801 5.13001C0.274217 5.1152 0.0176657 4.86258 0.0010336 4.54537C-0.0155985 4.22857 0.213509 3.95127 0.530351 3.90314C0.653014 3.8838 3.59233 3.39173 3.83266 0.565235C3.85803 0.266539 4.0967 0.0291469 4.39816 0.00240416C4.70128 -0.02187 4.97696 0.166563 5.05596 0.455384C5.06469 0.487887 5.98237 3.71388 8.37989 3.85582C8.67719 3.8731 8.92002 4.09609 8.96035 4.38779C9.0011 4.6795 8.82771 4.95885 8.54621 5.05513C8.51253 5.06665 5.10253 6.27007 5.04806 8.6189C5.04057 8.93488 4.794 9.19366 4.47591 9.21999C4.45928 9.22164 4.44182 9.22246 4.42477 9.22246ZM2.54575 4.47913C3.42185 5.02756 4.01063 5.87592 4.39483 6.65146C4.96698 5.73316 5.85638 5.05842 6.62562 4.60544C5.67467 4.08334 5.01064 3.22716 4.57113 2.45615C4.08298 3.39708 3.31748 4.05084 2.54575 4.47913Z" fill="#3A312A"/>
<path d="M29.9066 92.3833V84.8674H33.1661C35.2747 84.8674 36.9836 83.176 36.9836 81.09V75.7962L37.1961 75.586H43.1367C44.3126 75.586 45.0473 74.3266 44.4593 73.319L38.0992 62.4187C38.0435 62.3233 37.9994 62.2216 37.9666 62.1159C35.5429 54.3646 28.2147 48.7454 19.5689 48.812C9.23704 48.8918 0.770027 57.215 0.625743 67.4377C0.529276 74.2797 4.10935 80.3005 9.53558 83.6927V92.3829H29.9066V92.3833Z" fill="#FCE8CB"/>
<path d="M29.9066 92.9999C29.5619 92.9999 29.2829 92.7234 29.2829 92.3828V84.8673C29.2829 84.5266 29.5619 84.2501 29.9066 84.2501H33.1665C34.9274 84.2501 36.3603 82.8323 36.3603 81.0895V75.7957C36.3603 75.632 36.426 75.4752 36.5428 75.3592L36.7557 75.1486C36.8725 75.0329 37.0314 74.9679 37.1964 74.9679H43.137C43.4639 74.9679 43.7562 74.8009 43.9196 74.5207C44.083 74.2405 44.083 73.9065 43.9196 73.6263L37.5594 62.726C37.4813 62.5926 37.4181 62.4482 37.3707 62.2964C34.9823 54.6587 27.6513 49.3493 19.5739 49.4291C9.60871 49.5064 1.38869 57.5889 1.24981 67.4462C1.15917 73.862 4.38165 79.7405 9.86901 83.1709C10.0499 83.2841 10.1597 83.4812 10.1597 83.6926V92.3828C10.1597 92.7234 9.88065 92.9999 9.53595 92.9999C9.19125 92.9999 8.91224 92.7234 8.91224 92.3828V84.0292C3.23195 80.3432 -0.0924017 74.1632 0.00240155 67.429C0.150843 56.9051 8.92596 48.2767 19.5643 48.1944C19.6146 48.194 19.6645 48.194 19.7144 48.194C28.2908 48.194 36.0272 53.8252 38.5628 61.9331C38.5827 61.9969 38.6081 62.0561 38.6397 62.1092L45.0003 73.01C45.3894 73.6765 45.389 74.4726 45.0003 75.1387C44.6115 75.8052 43.915 76.203 43.1375 76.203H37.6081V81.09C37.6081 83.5133 35.6156 85.4848 33.1669 85.4848H30.5307V92.3832C30.5303 92.7239 30.2509 92.9999 29.9066 92.9999Z" fill="#3A312A"/>
<path d="M19.4839 78.3022C25.5319 78.3022 30.4349 73.4508 30.4349 67.4664C30.4349 61.482 25.5319 56.6307 19.4839 56.6307C13.4358 56.6307 8.53284 61.482 8.53284 67.4664C8.53284 73.4508 13.4358 78.3022 19.4839 78.3022Z" fill="#D7E057"/>
<path d="M19.4841 78.9193C13.1015 78.9193 7.90936 73.7818 7.90936 67.4664C7.90936 61.151 13.1019 56.0135 19.4841 56.0135C25.8663 56.0135 31.0588 61.151 31.0588 67.4664C31.0588 73.7818 25.8663 78.9193 19.4841 78.9193ZM19.4841 57.2478C13.7897 57.2478 9.15677 61.8319 9.15677 67.4664C9.15677 73.1009 13.7897 77.685 19.4841 77.685C25.1785 77.685 29.8114 73.1009 29.8114 67.4664C29.8114 61.8319 25.1789 57.2478 19.4841 57.2478Z" fill="#3A312A"/>
<path d="M63.6497 92.3833V84.8674H60.3898C58.2812 84.8674 56.5723 83.176 56.5723 81.09V75.7962C56.4895 75.7143 56.4426 75.6679 56.3598 75.586H50.4192C49.2433 75.586 48.5086 74.3266 49.0965 73.319L55.4567 62.4187C55.5124 62.3233 55.5565 62.2216 55.5893 62.1159C58.013 54.3646 65.3412 48.7454 73.987 48.812C84.3193 48.8918 92.7859 57.215 92.9301 67.4377C93.0266 74.2797 89.4465 80.3005 84.0207 83.6927V92.3829H63.6497V92.3833Z" fill="#FCE8CB"/>
<path d="M84.0213 93.0001C83.6771 93.0001 83.3976 92.7236 83.3976 92.3829V83.6928C83.3976 83.4809 83.5074 83.2843 83.6883 83.1711C89.1752 79.7398 92.3973 73.8618 92.3071 67.446C92.1682 57.5886 83.9477 49.5058 73.983 49.4288C73.936 49.4284 73.889 49.4284 73.8421 49.4284C65.8083 49.4284 58.5608 54.7029 56.1858 62.2978C56.1392 62.448 56.0756 62.5928 55.9974 62.7269L49.6373 73.6269C49.4739 73.907 49.4739 74.2411 49.6373 74.5213C49.8011 74.8015 50.0934 74.9685 50.4198 74.9685H56.3608C56.5263 74.9685 56.6847 75.0335 56.802 75.1491L57.0132 75.3581C57.1309 75.4738 57.197 75.6313 57.197 75.7959V81.0897C57.197 82.8321 58.6295 84.2503 60.3908 84.2503H63.6507C63.995 84.2503 64.2744 84.5268 64.2744 84.8674V92.3829C64.2744 92.7236 63.995 93.0001 63.6507 93.0001C63.3064 93.0001 63.027 92.7236 63.027 92.3829V85.4846H60.3908C57.9417 85.4846 55.9496 83.513 55.9496 81.0897V76.2028H50.4198C49.6423 76.2028 48.9458 75.8049 48.557 75.1384C48.1678 74.4719 48.1678 73.6762 48.557 73.0097L54.9172 62.1094C54.9488 62.0555 54.9745 61.9967 54.9941 61.9337C57.5297 53.8253 65.2669 48.1937 73.8425 48.1937C73.8928 48.1937 73.9418 48.1937 73.9926 48.1941C84.6305 48.2764 93.4056 56.9049 93.5545 67.4287C93.6497 74.1625 90.3253 80.3426 84.645 84.0289V92.3825C84.645 92.724 84.3656 93.0001 84.0213 93.0001Z" fill="#3A312A"/>
<path d="M74.0728 78.3022C80.1209 78.3022 85.0239 73.4508 85.0239 67.4664C85.0239 61.482 80.1209 56.6307 74.0728 56.6307C68.0248 56.6307 63.1218 61.482 63.1218 67.4664C63.1218 73.4508 68.0248 78.3022 74.0728 78.3022Z" fill="#8AC5DC"/>
<path d="M74.0729 78.9193C67.6903 78.9193 62.4982 73.7818 62.4982 67.4664C62.4982 61.151 67.6903 56.0135 74.0729 56.0135C80.4555 56.0135 85.6476 61.151 85.6476 67.4664C85.6476 73.7818 80.4551 78.9193 74.0729 78.9193ZM74.0729 57.2478C68.3785 57.2478 63.7456 61.8319 63.7456 67.4664C63.7456 73.1009 68.3785 77.685 74.0729 77.685C79.7673 77.685 84.4002 73.1009 84.4002 67.4664C84.3998 61.8319 79.7673 57.2478 74.0729 57.2478Z" fill="#3A312A"/>
<path d="M43.9882 65.399H21.934V69.9247H63.2436V73.0104L71.6225 67.6619L63.2436 62.3133V65.399H49.2909H43.9882Z" fill="#F16C7A"/>
<path d="M63.2434 73.628C63.1411 73.628 63.0384 73.6029 62.9449 73.5528C62.7445 73.4445 62.6197 73.2368 62.6197 73.0109V70.5423H21.9338C21.5891 70.5423 21.3101 70.2659 21.3101 69.9252V65.3995C21.3101 65.0589 21.5891 64.7824 21.9338 64.7824H43.988C44.3327 64.7824 44.6117 65.0589 44.6117 65.3995C44.6117 65.7402 44.3327 66.0167 43.988 66.0167H22.5575V69.3081H63.2434C63.5877 69.3081 63.8671 69.5845 63.8671 69.9252V71.8782L70.4722 67.6624L63.8671 63.4465V65.3995C63.8671 65.7402 63.5877 66.0167 63.2434 66.0167H49.2907C48.9464 66.0167 48.667 65.7402 48.667 65.3995C48.667 65.0589 48.9464 64.7824 49.2907 64.7824H62.6197V62.3138C62.6197 62.088 62.7445 61.8798 62.9449 61.772C63.1453 61.6638 63.3894 61.6728 63.5815 61.7954L71.9603 67.144C72.1383 67.2575 72.246 67.4529 72.246 67.6628C72.246 67.8726 72.1383 68.0676 71.9603 68.1816L63.5815 73.5301C63.4788 73.5947 63.3611 73.628 63.2434 73.628Z" fill="#3A312A"/>
<path d="M60.4541 24.3182C60.4541 27.6178 59.24 30.794 57.0321 33.2667C55.0237 35.5172 53.6308 38.3149 52.9904 41.3882H46.7534C47.3937 38.3149 48.7867 35.5172 50.795 33.2667C53.0029 30.794 54.2171 27.6178 54.2171 24.3182C54.2171 20.5701 52.7035 17.0853 49.9509 14.5015C48.163 12.8229 46.0133 11.6791 43.6806 11.1402C44.4457 10.9591 45.2315 10.8439 46.034 10.8028C49.8303 10.6094 53.4395 11.9219 56.188 14.5015C58.9406 17.0853 60.4541 20.5701 60.4541 24.3182Z" fill="#B9C239"/>
<path d="M55.4517 43.2602V47.6913C55.4517 48.041 55.1648 48.3249 54.8114 48.3249H48.5743C48.9278 48.3249 49.2147 48.041 49.2147 47.6913V43.2602C49.2147 42.9105 48.9278 42.6266 48.5743 42.6266H54.8114C55.1648 42.6266 55.4517 42.9105 55.4517 43.2602Z" fill="#695B51"/>
</svg>
