<svg width="24" height="25" viewBox="0 0 24 25" fill="none" xmlns="http://www.w3.org/2000/svg">
<path d="M4.64124 15.1412C3.75044 16.032 3.25 17.2402 3.25 18.5C3.25 19.2293 3.53973 19.9288 4.05546 20.4445C4.57118 20.9603 5.27065 21.25 6 21.25H18C18.7293 21.25 19.4288 20.9603 19.9445 20.4445C20.4603 19.9288 20.75 19.2293 20.75 18.5C20.75 17.2402 20.2496 16.032 19.3588 15.1412C18.468 14.2504 17.2598 13.75 16 13.75H8C6.74022 13.75 5.53204 14.2504 4.64124 15.1412Z" stroke="#055EA8" stroke-width="1.5" stroke-linejoin="round"/>
<path d="M12 11.25C14.0711 11.25 15.75 9.57107 15.75 7.5C15.75 5.42893 14.0711 3.75 12 3.75C9.92893 3.75 8.25 5.42893 8.25 7.5C8.25 9.57107 9.92893 11.25 12 11.25Z" stroke="#055EA8" stroke-width="1.5"/>
</svg>
