<svg width="25" height="23" viewBox="0 0 25 23" fill="none" xmlns="http://www.w3.org/2000/svg">
<path d="M8.33332 10.7791C8.12729 10.7791 7.9259 10.8328 7.7546 10.9335C7.5833 11.0343 7.44978 11.1774 7.37094 11.3449C7.2921 11.5124 7.27147 11.6967 7.31166 11.8746C7.35186 12.0524 7.45107 12.2157 7.59675 12.3439C7.74243 12.4721 7.92803 12.5594 8.1301 12.5948C8.33216 12.6301 8.5416 12.612 8.73194 12.5426C8.92228 12.4732 9.08497 12.3557 9.19943 12.205C9.31389 12.0542 9.37498 11.877 9.37498 11.6957C9.37498 11.4526 9.26524 11.2194 9.06988 11.0475C8.87453 10.8756 8.60958 10.7791 8.33332 10.7791ZM12.5 10.7791C12.294 10.7791 12.0926 10.8328 11.9213 10.9335C11.75 11.0343 11.6164 11.1774 11.5376 11.3449C11.4588 11.5124 11.4381 11.6967 11.4783 11.8746C11.5185 12.0524 11.6177 12.2157 11.7634 12.3439C11.9091 12.4721 12.0947 12.5594 12.2968 12.5948C12.4988 12.6301 12.7083 12.612 12.8986 12.5426C13.089 12.4732 13.2516 12.3557 13.3661 12.205C13.4806 12.0542 13.5416 11.877 13.5416 11.6957C13.5416 11.4526 13.4319 11.2194 13.2366 11.0475C13.0412 10.8756 12.7762 10.7791 12.5 10.7791ZM16.6666 10.7791C16.4606 10.7791 16.2592 10.8328 16.0879 10.9335C15.9166 11.0343 15.7831 11.1774 15.7043 11.3449C15.6254 11.5124 15.6048 11.6967 15.645 11.8746C15.6852 12.0524 15.7844 12.2157 15.9301 12.3439C16.0758 12.4721 16.2614 12.5594 16.4634 12.5948C16.6655 12.6301 16.8749 12.612 17.0653 12.5426C17.2556 12.4732 17.4183 12.3557 17.5328 12.205C17.6472 12.0542 17.7083 11.877 17.7083 11.6957C17.7083 11.4526 17.5986 11.2194 17.4032 11.0475C17.2079 10.8756 16.9429 10.7791 16.6666 10.7791ZM12.5 2.52905C11.132 2.52905 9.7775 2.76616 8.5137 3.22682C7.24989 3.68749 6.10156 4.3627 5.13429 5.21391C3.18078 6.93299 2.08332 9.26457 2.08332 11.6957C2.07421 13.8124 2.90706 15.8652 4.43748 17.4982L2.35415 19.3316C2.20961 19.4605 2.1117 19.6241 2.07277 19.802C2.03383 19.9798 2.05563 20.1638 2.1354 20.3307C2.22192 20.4957 2.36217 20.6342 2.53836 20.7289C2.71455 20.8236 2.91873 20.87 3.12498 20.8624H12.5C15.2627 20.8624 17.9122 19.8966 19.8657 18.1775C21.8192 16.4584 22.9166 14.1269 22.9166 11.6957C22.9166 9.26457 21.8192 6.93299 19.8657 5.21391C17.9122 3.49482 15.2627 2.52905 12.5 2.52905ZM12.5 19.0291H5.6354L6.60415 18.1766C6.70257 18.0917 6.78088 17.9904 6.83452 17.8787C6.88816 17.767 6.91608 17.647 6.91665 17.5257C6.91274 17.2839 6.80041 17.0533 6.60415 16.8841C5.24018 15.6851 4.39079 14.107 4.2007 12.4188C4.01062 10.7305 4.49159 9.03648 5.56168 7.62528C6.63177 6.21409 8.22476 5.17305 10.0693 4.67953C11.9138 4.18601 13.8957 4.27054 15.6773 4.91872C17.4589 5.56691 18.93 6.73864 19.84 8.23429C20.75 9.72993 21.0426 11.457 20.6678 13.1211C20.2931 14.7853 19.2743 16.2837 17.7849 17.3609C16.2956 18.4382 14.4279 19.0277 12.5 19.0291Z" fill="#444444"/>
</svg>
