<svg width="42" height="43" viewBox="0 0 42 43" fill="none" xmlns="http://www.w3.org/2000/svg">
<circle cx="21" cy="21.0938" r="21" fill="#ACC9E2"/>
<path d="M19.0893 31.593H24.1802C24.1802 32.8658 23.2677 34.1385 21.6348 34.1385C20.0019 34.1385 19.0893 32.8658 19.0893 31.593ZM32.1246 26.2156L30.717 23.8663C30.1837 22.9766 29.9024 21.9584 29.9024 20.9237V17.5803C29.9024 13.0252 26.1937 9.32031 21.6361 9.32031C17.0784 9.32031 13.3697 13.0252 13.3697 17.5803V20.9237C13.3697 21.9584 13.0884 22.9766 12.5551 23.8663L11.1475 26.2156C10.7173 26.9309 10.7071 27.7938 11.1195 28.5218C11.5319 29.2498 12.2777 29.6839 13.1139 29.6839H30.1608C30.9982 29.6839 31.744 29.2486 32.1564 28.5218C32.5649 27.7951 32.5548 26.9322 32.1246 26.2156Z" fill="white"/>
</svg>
