<svg width="20" height="23" viewBox="0 0 20 23" fill="none" xmlns="http://www.w3.org/2000/svg">
<path d="M9.80923 20.5753C7.28454 20.5753 4.75987 20.1819 2.36524 19.395C1.45506 19.0867 0.761593 18.4593 0.4582 17.6405C0.143972 16.8217 0.252326 15.9179 0.750757 15.1098L1.99683 13.0788C2.25688 12.6534 2.49527 11.8028 2.49527 11.303V8.22996C2.49527 4.27432 5.77841 1.0524 9.80923 1.0524C13.84 1.0524 17.1232 4.27432 17.1232 8.22996V11.303C17.1232 11.7921 17.3615 12.6534 17.6216 13.0894L18.8568 15.1098C19.3228 15.8754 19.4094 16.8005 19.0952 17.6405C18.781 18.4806 18.0983 19.1186 17.2423 19.395C14.8585 20.1819 12.3339 20.5753 9.80923 20.5753ZM9.80923 2.64741C6.67775 2.64741 4.12058 5.14626 4.12058 8.22996V11.303C4.12058 12.0792 3.79552 13.2276 3.39461 13.8975L2.14853 15.9285C1.91015 16.322 1.84514 16.7367 1.986 17.0876C2.11602 17.4491 2.44109 17.7256 2.88534 17.8744C7.41456 19.3631 12.2147 19.3631 16.7439 17.8744C17.134 17.7468 17.4374 17.4597 17.5782 17.0769C17.7191 16.6941 17.6866 16.2794 17.4699 15.9285L16.2238 13.8975C15.8121 13.2064 15.4978 12.0686 15.4978 11.2924V8.22996C15.4978 5.14626 12.9515 2.64741 9.80923 2.64741Z" fill="#055EA8"/>
<path d="M11.825 2.93482C11.7492 2.93482 11.6733 2.92419 11.5975 2.90292C11.2832 2.81786 10.9798 2.75406 10.6873 2.71152C9.76628 2.59455 8.87777 2.65835 8.04344 2.90292C7.74005 2.99862 7.41502 2.90292 7.20914 2.67962C7.00327 2.45632 6.93826 2.13732 7.05745 1.85021C7.5017 0.733706 8.58521 0 9.82045 0C11.0557 0 12.1392 0.723073 12.5835 1.85021C12.6918 2.13732 12.6377 2.45632 12.4318 2.67962C12.2693 2.84976 12.0417 2.93482 11.825 2.93482Z" fill="#055EA8"/>
<path d="M9.80936 23C8.73665 23 7.69644 22.5747 6.93799 21.8303C6.17951 21.086 5.74609 20.0652 5.74609 19.0125H7.37141C7.37141 19.6399 7.63143 20.2566 8.08652 20.7032C8.54161 21.1498 9.17006 21.405 9.80936 21.405C11.153 21.405 12.2473 20.331 12.2473 19.0125H13.8727C13.8727 21.2136 12.0523 23 9.80936 23Z" fill="#055EA8"/>
</svg>
