<svg width="24" height="24" viewBox="0 0 24 24" fill="none" xmlns="http://www.w3.org/2000/svg">
<path d="M6.27002 4.50305L15.73 8.89508L13.2 10.0183C12.48 10.3492 11.51 10.3392 10.8 10.0283L3.25 6.60897C3.73 5.90703 4.42998 5.32526 5.28998 4.94421L6.27002 4.50305ZM18.71 4.94421L14.32 2.98885C12.87 2.33705 11.13 2.33705 9.67999 2.98885L8.09003 3.69074L17.54 8.07298L20.75 6.60897C20.27 5.90703 19.57 5.32526 18.71 4.94421ZM2.63 7.9726C2.54 8.30352 2.5 8.64448 2.5 8.99545V15.0522C2.5 16.787 3.56998 18.3414 5.28998 19.1035L9.69 21.0588C10.18 21.2895 10.71 21.4298 11.25 21.5V11.7129C10.88 11.6528 10.52 11.5424 10.19 11.402L2.63 7.9726ZM21.37 7.9726L13.81 11.402C13.48 11.5424 13.12 11.6528 12.75 11.7129V21.5C13.29 21.4298 13.82 21.2895 14.32 21.0588L18.71 19.1035C20.43 18.3414 21.5 16.787 21.5 15.0522V8.99545C21.5 8.64448 21.46 8.30352 21.37 7.9726Z" fill="#ACC9E2"/>
</svg>
