<svg width="20" height="20" viewBox="0 0 20 20" fill="none" xmlns="http://www.w3.org/2000/svg">
<path d="M18.25 5.5625H14.4375V5.5C14.4375 4.3231 13.97 3.19441 13.1378 2.36221C12.3056 1.53002 11.1769 1.0625 10 1.0625C8.8231 1.0625 7.69441 1.53002 6.86221 2.36221C6.03002 3.19441 5.5625 4.3231 5.5625 5.5V5.5625H1.75C1.36875 5.5625 1.00312 5.71395 0.733534 5.98353C0.463951 6.25312 0.3125 6.61875 0.3125 7V18.25C0.3125 18.6312 0.463951 18.9969 0.733534 19.2665C1.00312 19.536 1.36875 19.6875 1.75 19.6875H18.25C18.6312 19.6875 18.9969 19.536 19.2665 19.2665C19.536 18.9969 19.6875 18.6312 19.6875 18.25V7C19.6875 6.61875 19.536 6.25312 19.2665 5.98353C18.9969 5.71395 18.6312 5.5625 18.25 5.5625ZM6.9375 5.5C6.9375 4.68777 7.26015 3.90882 7.83449 3.33449C8.40881 2.76016 9.18777 2.4375 10 2.4375C10.8122 2.4375 11.5912 2.76016 12.1655 3.33449C12.7398 3.90882 13.0625 4.68777 13.0625 5.5V5.5625H6.9375V5.5ZM18.3125 18.25C18.3125 18.2666 18.3059 18.2825 18.2942 18.2942C18.2825 18.3059 18.2666 18.3125 18.25 18.3125H1.75C1.73342 18.3125 1.71753 18.3059 1.70581 18.2942C1.69408 18.2825 1.6875 18.2666 1.6875 18.25V7C1.6875 6.98342 1.69409 6.96753 1.70581 6.95581C1.71753 6.94409 1.73342 6.9375 1.75 6.9375H5.5625V8.5C5.5625 8.68234 5.63493 8.8572 5.76386 8.98614C5.8928 9.11507 6.06766 9.1875 6.25 9.1875C6.43234 9.1875 6.6072 9.11507 6.73614 8.98614C6.86507 8.8572 6.9375 8.68234 6.9375 8.5V6.9375H13.0625V8.5C13.0625 8.68234 13.1349 8.8572 13.2639 8.98614C13.3928 9.11507 13.5677 9.1875 13.75 9.1875C13.9323 9.1875 14.1072 9.11507 14.2361 8.98614C14.3651 8.8572 14.4375 8.68234 14.4375 8.5V6.9375H18.25C18.2666 6.9375 18.2825 6.94408 18.2942 6.95581C18.3059 6.96753 18.3125 6.98342 18.3125 7V18.25Z" fill="#055EA8" stroke="#055EA8" stroke-width="0.25"/>
</svg>
