<svg width="23" height="22" viewBox="0 0 23 22" fill="none" xmlns="http://www.w3.org/2000/svg">
<path d="M20.533 7.64082C18.4978 7.64082 17.6657 6.1992 18.6777 4.43096C19.2624 3.40605 18.9138 2.09958 17.8906 1.51392L15.9453 0.398918C15.057 -0.130429 13.91 0.184927 13.3816 1.07468L13.2579 1.28867C12.2459 3.05691 10.5817 3.05691 9.55848 1.28867L9.43479 1.07468C8.92879 0.184927 7.78186 -0.130429 6.89356 0.398918L4.94828 1.51392C3.92504 2.09958 3.57647 3.41732 4.16117 4.44222C5.18441 6.1992 4.35233 7.64082 2.3171 7.64082C1.14768 7.64082 0.180664 8.59815 0.180664 9.78073V11.763C0.180664 12.9343 1.13644 13.9029 2.3171 13.9029C4.35233 13.9029 5.18441 15.3445 4.16117 17.1127C3.57647 18.1376 3.92504 19.4441 4.94828 20.0298L6.89356 21.1448C7.78186 21.6741 8.92879 21.3588 9.45728 20.469L9.58096 20.255C10.593 18.4868 12.2571 18.4868 13.2804 20.255L13.4041 20.469C13.9325 21.3588 15.0795 21.6741 15.9678 21.1448L17.913 20.0298C18.9363 19.4441 19.2849 18.1264 18.7002 17.1127C17.6769 15.3445 18.509 13.9029 20.5442 13.9029C21.7136 13.9029 22.6807 12.9455 22.6807 11.763V9.78073C22.6694 8.60941 21.7136 7.64082 20.533 7.64082ZM11.425 14.4322C9.4123 14.4322 7.77062 12.7879 7.77062 10.7718C7.77062 8.75583 9.4123 7.11148 11.425 7.11148C13.4378 7.11148 15.0795 8.75583 15.0795 10.7718C15.0795 12.7879 13.4378 14.4322 11.425 14.4322Z" fill="black"/>
</svg>
