<svg width="100" height="100" viewBox="0 0 100 100" fill="none" xmlns="http://www.w3.org/2000/svg">
<g id="ph:chalkboard-teacher-light">
<path id="Vector" d="M84.375 16.4062H15.625C14.1746 16.4063 12.7836 16.9824 11.758 18.008C10.7324 19.0336 10.1563 20.4246 10.1562 21.875V78.125C10.1562 79.5754 10.7324 80.9664 11.758 81.992C12.7836 83.0176 14.1746 83.5938 15.625 83.5938H20.8555C21.299 83.5936 21.7334 83.4677 22.1081 83.2305C22.4829 82.9933 22.7827 82.6547 22.9727 82.2539C24.5554 78.9114 27.0545 76.0869 30.1795 74.109C33.3044 72.1312 36.9267 71.0812 40.625 71.0812C44.3233 71.0812 47.9456 72.1312 51.0705 74.109C54.1955 76.0869 56.6946 78.9114 58.2773 82.2539C58.4673 82.6547 58.7671 82.9933 59.1419 83.2305C59.5166 83.4677 59.951 83.5936 60.3945 83.5938H84.375C85.8254 83.5938 87.2164 83.0176 88.242 81.992C89.2676 80.9664 89.8438 79.5754 89.8438 78.125V21.875C89.8438 20.4246 89.2676 19.0336 88.242 18.008C87.2164 16.9824 85.8254 16.4063 84.375 16.4062ZM30.4688 56.25C30.4688 54.2413 31.0644 52.2777 32.1804 50.6075C33.2964 48.9373 34.8826 47.6356 36.7384 46.8668C38.5942 46.0981 40.6363 45.897 42.6064 46.2889C44.5765 46.6808 46.3862 47.6481 47.8066 49.0684C49.2269 50.4888 50.1942 52.2985 50.5861 54.2686C50.978 56.2387 50.7769 58.2808 50.0082 60.1366C49.2395 61.9924 47.9377 63.5786 46.2675 64.6946C44.5973 65.8106 42.6337 66.4062 40.625 66.4062C37.9314 66.4062 35.3481 65.3362 33.4434 63.4316C31.5388 61.5269 30.4688 58.9436 30.4688 56.25ZM85.1562 78.125C85.1562 78.3322 85.0739 78.5309 84.9274 78.6774C84.7809 78.8239 84.5822 78.9062 84.375 78.9062H61.8242C59.0913 74.001 54.7472 70.1909 49.5273 68.1211C52.0206 66.2524 53.8627 63.6465 54.7925 60.6726C55.7223 57.6987 55.6926 54.5076 54.7078 51.5515C53.723 48.5953 51.8329 46.0241 49.3053 44.202C46.7777 42.3799 43.7409 41.3994 40.625 41.3994C37.5091 41.3994 34.4723 42.3799 31.9447 44.202C29.4171 46.0241 27.527 48.5953 26.5422 51.5515C25.5574 54.5076 25.5278 57.6987 26.4575 60.6726C27.3873 63.6465 29.2294 66.2524 31.7227 68.1211C26.5028 70.1909 22.1587 74.001 19.4258 78.9062H15.625C15.4178 78.9062 15.2191 78.8239 15.0726 78.6774C14.9261 78.5309 14.8438 78.3322 14.8438 78.125V21.875C14.8438 21.6678 14.9261 21.4691 15.0726 21.3226C15.2191 21.1761 15.4178 21.0938 15.625 21.0938H84.375C84.5822 21.0938 84.7809 21.1761 84.9274 21.3226C85.0739 21.4691 85.1562 21.6678 85.1562 21.875V78.125ZM77.3438 31.25V68.75C77.3438 69.3716 77.0968 69.9677 76.6573 70.4073C76.2177 70.8468 75.6216 71.0938 75 71.0938H68.75C68.1284 71.0938 67.5323 70.8468 67.0927 70.4073C66.6532 69.9677 66.4062 69.3716 66.4062 68.75C66.4062 68.1284 66.6532 67.5323 67.0927 67.0927C67.5323 66.6532 68.1284 66.4062 68.75 66.4062H72.6562V33.5938H27.3438V37.5C27.3438 38.1216 27.0968 38.7177 26.6573 39.1573C26.2177 39.5968 25.6216 39.8438 25 39.8438C24.3784 39.8438 23.7823 39.5968 23.3427 39.1573C22.9032 38.7177 22.6562 38.1216 22.6562 37.5V31.25C22.6562 30.6284 22.9032 30.0323 23.3427 29.5927C23.7823 29.1532 24.3784 28.9062 25 28.9062H75C75.6216 28.9062 76.2177 29.1532 76.6573 29.5927C77.0968 30.0323 77.3438 30.6284 77.3438 31.25Z" fill="#FBFBFB"/>
</g>
</svg>
