<svg width="89" height="85" viewBox="0 0 89 85" fill="none" xmlns="http://www.w3.org/2000/svg">
<path d="M12.8537 4.1994C12.8537 4.1994 14.2029 8.95617 18.0881 9.17675C18.0881 9.17675 12.902 10.8771 12.8145 14.5133C12.8145 14.5133 11.7939 9.41348 7.69763 9.23048C7.69763 9.23086 12.4681 8.54471 12.8537 4.1994Z" fill="#D6DF58"/>
<path d="M12.8136 15.0769C12.5317 15.0769 12.2851 14.8868 12.2308 14.6196C12.2213 14.5727 11.2431 9.95342 7.66898 9.79335C7.36414 9.77982 7.11988 9.5491 7.10404 9.25939C7.0886 8.97006 7.30634 8.71679 7.60841 8.67283C7.78299 8.64728 11.9212 7.99044 12.2617 4.15166C12.2858 3.87885 12.5127 3.66279 12.7997 3.63799C13.0836 3.61432 13.3512 3.78754 13.4264 4.05208C13.4391 4.09567 14.7166 8.42069 18.1232 8.61458C18.4059 8.63074 18.6367 8.83403 18.6755 9.10007C18.7143 9.36611 18.5492 9.62163 18.282 9.70955C18.2341 9.72534 13.4846 11.3295 13.4074 14.5264C13.4003 14.8147 13.1659 15.051 12.863 15.0751C12.8472 15.0766 12.8302 15.0769 12.8136 15.0769ZM9.74938 9.16658C11.2846 9.90645 12.2158 11.3257 12.753 12.5022C13.5555 10.9909 15.1054 9.95192 16.2958 9.3353C14.6592 8.64314 13.6105 7.21186 12.9965 6.05752C12.2866 7.69622 10.9093 8.63863 9.74938 9.16658Z" fill="#3A312A"/>
<path d="M4.26327 10.5803C4.26327 10.5803 5.21776 13.9449 7.96563 14.1008C7.96563 14.1008 4.29731 15.3036 4.23556 17.8753C4.23556 17.8753 3.51345 14.268 0.616333 14.1388C0.616333 14.1388 3.9905 13.6537 4.26327 10.5803Z" fill="#D6DF58"/>
<path d="M4.23465 18.4394C3.95238 18.4394 3.70535 18.2489 3.6519 17.981C3.64557 17.9502 2.97731 14.8088 0.587717 14.7017C0.282882 14.6882 0.038618 14.4575 0.0227824 14.1678C0.00694684 13.8784 0.225082 13.6252 0.52675 13.5812C0.643933 13.5635 3.44208 13.1145 3.6713 10.5326C3.69545 10.2598 3.92269 10.043 4.20971 10.0186C4.4995 9.99191 4.76079 10.1689 4.83601 10.4323C4.84472 10.462 5.71805 13.4083 8.00075 13.5383C8.28342 13.5545 8.51501 13.7578 8.55341 14.0242C8.59221 14.2906 8.42673 14.5461 8.15911 14.6337C8.12704 14.6442 4.88035 15.7429 4.82888 17.8882C4.82215 18.1768 4.58699 18.4131 4.28414 18.4372C4.26751 18.4387 4.25088 18.4394 4.23465 18.4394ZM2.44563 14.1076C3.27977 14.6081 3.84035 15.3833 4.20615 16.0913C4.75089 15.2526 5.5977 14.6367 6.3301 14.223C5.4247 13.7458 4.79246 12.9638 4.37401 12.2596C3.90963 13.1198 3.1804 13.7165 2.44563 14.1076Z" fill="#3A312A"/>
<path d="M4.26327 0.563232C4.26327 0.563232 5.21776 3.92781 7.96563 4.08412C7.96563 4.08412 4.29731 5.28694 4.23556 7.85865C4.23556 7.85865 3.51345 4.25134 0.616333 4.12208C0.615937 4.12208 3.9905 3.63697 4.26327 0.563232Z" fill="#D6DF58"/>
<path d="M4.2348 8.4227C3.95214 8.4227 3.7055 8.23219 3.65166 7.96427C3.64532 7.93345 2.97706 4.79208 0.587473 4.68499C0.282638 4.67146 0.0383739 4.44075 0.0225383 4.15103C0.0067027 3.86207 0.224838 3.60843 0.526506 3.56485C0.643689 3.54718 3.44184 3.09815 3.67106 0.516288C3.69521 0.243485 3.92245 0.0266702 4.20947 0.00224568C4.49926 -0.0218031 4.76054 0.152174 4.83576 0.416335C4.84447 0.44602 5.71781 3.39237 8.00011 3.52201C8.28317 3.53779 8.51437 3.74145 8.55277 4.00787C8.59157 4.27428 8.42648 4.52943 8.15846 4.61735C8.1264 4.62788 4.87971 5.72698 4.82824 7.87221C4.82151 8.16079 4.58635 8.39715 4.2835 8.42119C4.26766 8.42195 4.25103 8.4227 4.2348 8.4227ZM2.44578 4.09091C3.27992 4.59143 3.8405 5.36625 4.2063 6.07456C4.75104 5.23586 5.59785 4.61961 6.32985 4.2059C5.42445 3.72905 4.79222 2.94709 4.37376 2.24291C3.90978 3.10266 3.18055 3.69974 2.44578 4.09091Z" fill="#3A312A"/>
<path d="M25.9868 64.8508V77.7458C25.9868 81.4407 29.1425 84.4363 33.0356 84.4363H81.2926C85.1854 84.4363 88.3414 81.4411 88.3414 77.7458V13.0618C88.3414 9.36691 85.1858 6.37134 81.2926 6.37134H33.0356C29.1428 6.37134 25.9868 9.36654 25.9868 13.0618V59.8693V64.8508Z" fill="#FAE6CA"/>
<path d="M81.2925 85H33.0351C28.8213 85 25.3925 81.7459 25.3925 77.7459V64.8512C25.3925 64.5401 25.6581 64.2876 25.9863 64.2876C26.3145 64.2876 26.5801 64.5401 26.5801 64.8512V77.7459C26.5801 81.124 29.4757 83.8727 33.0351 83.8727H81.2925C84.8515 83.8727 87.7474 81.1244 87.7474 77.7459V13.0618C87.7474 9.68373 84.8519 6.93503 81.2925 6.93503H33.0351C29.4761 6.93503 26.5801 9.68335 26.5801 13.0618V59.869C26.5801 60.1801 26.3145 60.4326 25.9863 60.4326C25.6581 60.4326 25.3925 60.1801 25.3925 59.869V13.0618C25.3925 9.06184 28.8209 5.80774 33.0351 5.80774H81.2925C85.5063 5.80774 88.9351 9.06184 88.9351 13.0618V77.7459C88.9351 81.7455 85.5063 85 81.2925 85Z" fill="#3A312A"/>
<path d="M65.4975 21.5901H88.406V13.0618C88.406 9.36691 85.2504 6.37134 81.3572 6.37134H33.0998C29.2071 6.37134 26.051 9.36654 26.051 13.0618V21.5897H60.44L65.4975 21.5901Z" fill="#8AC5DC"/>
<path d="M88.4059 22.1538H65.4974C65.1692 22.1538 64.9035 21.9013 64.9035 21.5901C64.9035 21.279 65.1692 21.0265 65.4974 21.0265H87.8121V13.0618C87.8121 9.68373 84.9165 6.93503 81.3571 6.93503H33.1005C29.5415 6.93503 26.6456 9.68335 26.6456 13.0618V21.0261H60.4407C60.7689 21.0261 61.0345 21.2786 61.0345 21.5897C61.0345 21.9009 60.7689 22.1534 60.4407 22.1534H26.0517C25.7235 22.1534 25.4579 21.9009 25.4579 21.5897V13.0618C25.4579 9.06184 28.8863 5.80774 33.1005 5.80774H81.3575C85.5717 5.80774 89.0001 9.06184 89.0001 13.0618V21.5897C88.9997 21.9013 88.7341 22.1538 88.4059 22.1538Z" fill="#3A312A"/>
<path d="M30.2253 10.699V2.70207C30.2253 1.5605 31.2 0.635376 32.4027 0.635376H32.5829C33.7856 0.635376 34.7603 1.5605 34.7603 2.70207V10.699C34.7603 11.8406 33.7856 12.7657 32.5829 12.7657H32.4027C31.2004 12.7657 30.2253 11.8402 30.2253 10.699Z" fill="#87796F"/>
<path d="M32.5833 13.329H32.4032C30.8751 13.329 29.632 12.1487 29.632 10.6986V2.70205C29.632 1.25198 30.8751 0.0717163 32.4032 0.0717163H32.5833C34.1114 0.0717163 35.3545 1.25198 35.3545 2.70205V10.6986C35.3545 12.1491 34.1114 13.329 32.5833 13.329ZM32.4032 1.199C31.5299 1.199 30.8196 1.87312 30.8196 2.70205V10.6986C30.8196 11.5276 31.5299 12.2017 32.4032 12.2017H32.5833C33.4566 12.2017 34.1669 11.5276 34.1669 10.6986V2.70205C34.1669 1.87312 33.4566 1.199 32.5833 1.199H32.4032Z" fill="#3A312A"/>
<path d="M40.1198 10.699V2.70207C40.1198 1.5605 41.0948 0.635376 42.2971 0.635376H42.4773C43.68 0.635376 44.6547 1.5605 44.6547 2.70207V10.699C44.6547 11.8406 43.68 12.7657 42.4773 12.7657H42.2971C41.0944 12.7657 40.1198 11.8402 40.1198 10.699Z" fill="#87796F"/>
<path d="M42.4772 13.329H42.2971C40.769 13.329 39.5259 12.1487 39.5259 10.6986V2.70205C39.5259 1.25198 40.769 0.0717163 42.2971 0.0717163H42.4772C44.0054 0.0717163 45.2485 1.25198 45.2485 2.70205V10.6986C45.2485 12.1491 44.005 13.329 42.4772 13.329ZM42.2971 1.199C41.4238 1.199 40.7135 1.87312 40.7135 2.70205V10.6986C40.7135 11.5276 41.4238 12.2017 42.2971 12.2017H42.4772C43.3506 12.2017 44.0608 11.5276 44.0608 10.6986V2.70205C44.0608 1.87312 43.3506 1.199 42.4772 1.199H42.2971Z" fill="#3A312A"/>
<path d="M50.0137 10.699V2.70207C50.0137 1.5605 50.9884 0.635376 52.1911 0.635376H52.3712C53.5739 0.635376 54.5486 1.5605 54.5486 2.70207V10.699C54.5486 11.8406 53.5739 12.7657 52.3712 12.7657H52.1911C50.9887 12.7657 50.0137 11.8402 50.0137 10.699Z" fill="#87796F"/>
<path d="M52.3712 13.329H52.191C50.6629 13.329 49.4198 12.1487 49.4198 10.6986V2.70205C49.4198 1.25198 50.6629 0.0717163 52.191 0.0717163H52.3712C53.8993 0.0717163 55.1424 1.25198 55.1424 2.70205V10.6986C55.1424 12.1491 53.8993 13.329 52.3712 13.329ZM52.191 1.199C51.3177 1.199 50.6075 1.87312 50.6075 2.70205V10.6986C50.6075 11.5276 51.3177 12.2017 52.191 12.2017H52.3712C53.2445 12.2017 53.9547 11.5276 53.9547 10.6986V2.70205C53.9547 1.87312 53.2445 1.199 52.3712 1.199H52.191Z" fill="#3A312A"/>
<path d="M59.9082 10.699V2.70207C59.9082 1.5605 60.8829 0.635376 62.0856 0.635376H62.2657C63.4684 0.635376 64.4431 1.5605 64.4431 2.70207V10.699C64.4431 11.8406 63.4684 12.7657 62.2657 12.7657H62.0856C60.8829 12.7657 59.9082 11.8402 59.9082 10.699Z" fill="#87796F"/>
<path d="M62.2656 13.329H62.0854C60.5573 13.329 59.3142 12.1487 59.3142 10.6986V2.70205C59.3142 1.25198 60.5573 0.0717163 62.0854 0.0717163H62.2656C63.7937 0.0717163 65.0368 1.25198 65.0368 2.70205V10.6986C65.0368 12.1491 63.7937 13.329 62.2656 13.329ZM62.0858 1.199C61.2125 1.199 60.5023 1.87312 60.5023 2.70205V10.6986C60.5023 11.5276 61.2125 12.2017 62.0858 12.2017H62.266C63.1393 12.2017 63.8495 11.5276 63.8495 10.6986V2.70205C63.8495 1.87312 63.1393 1.199 62.266 1.199H62.0858Z" fill="#3A312A"/>
<path d="M69.8024 10.699V2.70207C69.8024 1.5605 70.777 0.635376 71.9798 0.635376H72.1599C73.3622 0.635376 74.3373 1.5605 74.3373 2.70207V10.699C74.3373 11.8406 73.3622 12.7657 72.1599 12.7657H71.9798C70.7774 12.7657 69.8024 11.8402 69.8024 10.699Z" fill="#87796F"/>
<path d="M72.1599 13.329H71.9797C70.4516 13.329 69.2085 12.1487 69.2085 10.6986V2.70205C69.2085 1.25198 70.4516 0.0717163 71.9797 0.0717163H72.1599C73.688 0.0717163 74.9311 1.25198 74.9311 2.70205V10.6986C74.9311 12.1491 73.688 13.329 72.1599 13.329ZM71.9797 1.199C71.1064 1.199 70.3962 1.87312 70.3962 2.70205V10.6986C70.3962 11.5276 71.1064 12.2017 71.9797 12.2017H72.1599C73.0328 12.2017 73.7434 11.5276 73.7434 10.6986V2.70205C73.7434 1.87312 73.0328 1.199 72.1599 1.199H71.9797Z" fill="#3A312A"/>
<path d="M79.6968 10.699V2.70207C79.6968 1.5605 80.6715 0.635376 81.8742 0.635376H82.0543C83.257 0.635376 84.2317 1.5605 84.2317 2.70207V10.699C84.2317 11.8406 83.257 12.7657 82.0543 12.7657H81.8742C80.6715 12.7657 79.6968 11.8402 79.6968 10.699Z" fill="#87796F"/>
<path d="M82.0543 13.329H81.8741C80.346 13.329 79.1029 12.1487 79.1029 10.6986V2.70205C79.1029 1.25198 80.346 0.0717163 81.8741 0.0717163H82.0543C83.582 0.0717163 84.8255 1.25198 84.8255 2.70205V10.6986C84.8251 12.1491 83.582 13.329 82.0543 13.329ZM81.8741 1.199C81.0008 1.199 80.2906 1.87312 80.2906 2.70205V10.6986C80.2906 11.5276 81.0008 12.2017 81.8741 12.2017H82.0543C82.9276 12.2017 83.6378 11.5276 83.6378 10.6986V2.70205C83.6378 1.87312 82.9276 1.199 82.0543 1.199H81.8741Z" fill="#3A312A"/>
<path d="M38.4806 21.2779L39.7614 18.873C40.6861 17.1363 39.9526 15.0166 38.1228 14.1388C36.293 13.261 34.0597 13.9573 33.135 15.6941L31.8542 18.099L38.4806 21.2779Z" fill="#EF6D7A"/>
<path d="M38.48 21.8411C38.3897 21.8411 38.2983 21.8216 38.2124 21.7806L31.586 18.602C31.2934 18.4615 31.1758 18.1226 31.3239 17.8445L32.6042 15.4396C33.6751 13.4285 36.2697 12.6188 38.3901 13.6356C39.4167 14.1282 40.18 14.9707 40.5386 16.0074C40.8977 17.0449 40.8094 18.1526 40.2908 19.127L39.0105 21.5315C38.906 21.7284 38.6969 21.8411 38.48 21.8411ZM32.6521 17.8501L38.2187 20.5199L39.2314 18.6182C39.6071 17.9125 39.6708 17.1102 39.4111 16.3591C39.151 15.608 38.5984 14.9981 37.8549 14.6415C36.3204 13.9046 34.4403 14.4912 33.6648 15.948L32.6521 17.8501Z" fill="#3A312A"/>
<path d="M38.4804 21.2779L8.24151 77.6047L1.61511 74.4257L31.854 18.099L38.4804 21.2779Z" fill="#8AC5DC"/>
<path d="M8.24147 78.1682C8.15121 78.1682 8.06015 78.1487 7.97385 78.1077L1.34745 74.9288C1.20691 74.8611 1.10002 74.7431 1.05093 74.6007C1.00184 74.4583 1.0145 74.3031 1.08616 74.1701L31.3254 17.8434C31.4739 17.5661 31.8294 17.456 32.1223 17.5961L38.7487 20.7747C38.8893 20.8423 38.9966 20.9603 39.0452 21.1027C39.0943 21.2451 39.0817 21.4003 39.01 21.5334L8.77077 77.8601C8.66586 78.0559 8.45723 78.1682 8.24147 78.1682ZM2.41477 74.1776L7.98137 76.8482L37.6814 21.5255L32.1148 18.8553L2.41477 74.1776Z" fill="#3A312A"/>
<path d="M16.685 46.3546L1.61511 74.4256L8.24151 77.6045L23.3114 49.5336L16.685 46.3546Z" fill="#EF6D7A"/>
<path d="M8.24147 78.1682C8.15121 78.1682 8.06015 78.1487 7.97385 78.1077L1.34745 74.9288C1.20691 74.8611 1.10002 74.7431 1.05093 74.6007C1.00184 74.4583 1.0145 74.3031 1.08616 74.1701L16.1561 46.0992C16.3046 45.8219 16.6609 45.7125 16.953 45.8519L23.5794 49.0309C23.72 49.0985 23.8272 49.2165 23.8759 49.3589C23.925 49.5013 23.9124 49.6565 23.8407 49.7895L8.77077 77.8605C8.66586 78.0559 8.45723 78.1682 8.24147 78.1682ZM2.41477 74.1776L7.98137 76.8482L22.5125 49.7816L16.9459 47.1111L2.41477 74.1776Z" fill="#3A312A"/>
<path d="M8.24127 77.6046L1.61487 74.4257L0.593872 84.1545L8.24127 77.6046Z" fill="#D6DF58"/>
<path d="M0.593568 84.7182C0.502514 84.7182 0.410668 84.6983 0.325947 84.6577C0.10702 84.5529 -0.0212481 84.3304 0.00290115 84.099L1.0239 74.3701C1.0433 74.1852 1.15732 74.021 1.32913 73.9316C1.50134 73.8425 1.70839 73.8395 1.88298 73.9226L8.50938 77.1015C8.68397 77.1857 8.80392 77.3454 8.83005 77.5299C8.85579 77.714 8.78452 77.8985 8.63923 78.0229L0.991834 84.5728C0.880193 84.6686 0.737672 84.7182 0.593568 84.7182ZM2.12012 75.2994L1.33705 82.7586L7.20057 77.7369L2.12012 75.2994Z" fill="#3A312A"/>
<path d="M81.8094 22.1538V77.7478C81.8094 81.1259 78.9155 83.8727 75.3564 83.8727H81.2948C84.8538 83.8727 87.7478 81.1259 87.7478 77.7478V22.1538H81.8094Z" fill="#DECAAD"/>
<path d="M87.8109 13.0603V21.0264H81.8726V13.3308H82.0547C83.5828 13.3308 84.8259 12.1509 84.8259 10.7005V7.90482C86.6193 8.99453 87.8109 10.8959 87.8109 13.0603Z" fill="#6CA8BF"/>
<path d="M76.8642 42.1429C76.8642 42.6565 76.6793 43.1721 76.3001 43.5914L74.152 45.9636C73.9046 46.2379 73.6017 46.4397 73.2711 46.5671C72.3717 45.4853 71.3542 44.4955 70.2374 43.6174C70.3253 43.422 70.4476 43.2356 70.6005 43.0665L72.7486 40.6943C73.5902 39.7639 75.0677 39.6583 76.0503 40.4572C76.5891 40.8961 76.8642 41.5172 76.8642 42.1429Z" fill="#F16C7A"/>
<path d="M73.2715 47.1307C73.0933 47.1307 72.9203 47.0548 72.8051 46.9161C71.9318 45.8655 70.9405 44.902 69.8593 44.0517C69.6566 43.8924 69.5885 43.6256 69.6918 43.396C69.8046 43.1453 69.959 42.9112 70.1503 42.6993L72.2984 40.3271C73.3506 39.1638 75.2074 39.03 76.437 40.0292C77.0862 40.5582 77.4584 41.3285 77.4584 42.1428C77.4584 42.8094 77.207 43.4542 76.7505 43.9585L74.6024 46.3307C74.2988 46.6674 73.9259 46.9233 73.4943 47.0893C73.4223 47.1172 73.3463 47.1307 73.2715 47.1307ZM71.0006 43.4929C71.8716 44.2114 72.6828 45.0005 73.4211 45.8463C73.5228 45.7746 73.6163 45.6915 73.701 45.5976L75.8499 43.2243C76.1211 42.9244 76.2707 42.5407 76.2707 42.1432C76.2707 41.6581 76.0494 41.1997 75.6638 40.8851C74.9318 40.2907 73.8261 40.3692 73.1994 41.0617L71.0513 43.4343C71.0339 43.4535 71.0169 43.473 71.0006 43.4929Z" fill="#3A312A"/>
<path d="M57.2432 77.8803C68.503 77.8803 77.6308 69.2166 77.6308 58.5293C77.6308 47.8421 68.503 39.1783 57.2432 39.1783C45.9835 39.1783 36.8557 47.8421 36.8557 58.5293C36.8557 69.2166 45.9835 77.8803 57.2432 77.8803Z" fill="#87796F"/>
<path d="M57.2431 78.4436C45.674 78.4436 36.2617 69.5102 36.2617 58.529C36.2617 47.5477 45.6736 38.6143 57.2431 38.6143C68.8125 38.6143 78.2244 47.5477 78.2244 58.529C78.2244 69.5102 68.8125 78.4436 57.2431 78.4436ZM57.2431 39.7416C46.3288 39.7416 37.4494 48.1696 37.4494 58.529C37.4494 68.8883 46.3288 77.3163 57.2431 77.3163C68.1574 77.3163 77.0368 68.8883 77.0368 58.529C77.0368 48.1696 68.1574 39.7416 57.2431 39.7416Z" fill="#3A312A"/>
<path d="M43.6141 49.3224C41.6628 51.9201 40.5111 55.096 40.5111 58.5293C40.5111 67.3004 48.0021 74.4106 57.243 74.4106C66.4838 74.4106 73.9749 67.3004 73.9749 58.5293C73.9749 49.7583 66.4838 42.6481 57.243 42.6481C52.8383 42.6481 48.8335 44.2662 45.8457 46.907L43.6141 49.3224Z" fill="#D7E057"/>
<path d="M57.243 74.9739C47.6898 74.9739 39.9177 67.597 39.9177 58.5291C39.9177 55.0901 41.029 51.7932 43.1312 48.9952C43.1426 48.9798 43.1549 48.9652 43.168 48.9509L45.3992 46.5351C45.4123 46.5208 45.4265 46.5073 45.4412 46.4945C48.659 43.6508 52.8502 42.0846 57.243 42.0846C66.7963 42.0846 74.5688 49.4616 74.5688 58.5294C74.5688 67.5973 66.7963 74.9739 57.243 74.9739ZM44.0809 49.6727C42.1339 52.2738 41.1054 55.3355 41.1054 58.5291C41.1054 66.9751 48.3446 73.8466 57.243 73.8466C66.1415 73.8466 73.3811 66.9755 73.3811 58.5291C73.3811 50.0827 66.1415 43.2115 57.243 43.2115C53.1614 43.2115 49.2667 44.6631 46.2722 47.3002L44.0809 49.6727Z" fill="#3A312A"/>
<path d="M60.0109 34.8192V39.4302C59.1071 39.3118 58.1819 39.2525 57.2432 39.2525C56.3046 39.2525 55.3794 39.3118 54.4756 39.4302V34.8192H60.0109Z" fill="#8AC6DD"/>
<path d="M60.0112 39.9938C59.9843 39.9938 59.957 39.9919 59.9301 39.9886C58.1822 39.759 56.3053 39.759 54.5571 39.9886C54.3876 40.0096 54.2154 39.9619 54.086 39.8552C53.9565 39.7481 53.8821 39.5933 53.8821 39.4302V34.8192C53.8821 34.5081 54.1477 34.2556 54.4759 34.2556H60.0112C60.3394 34.2556 60.6051 34.5081 60.6051 34.8192V39.4302C60.6051 39.5933 60.5306 39.7481 60.4012 39.8552C60.2927 39.945 60.1538 39.9938 60.0112 39.9938ZM57.2436 38.6884C57.9748 38.6884 58.7028 38.7241 59.4174 38.7944V35.3828H55.0697V38.7944C55.7843 38.7241 56.5128 38.6884 57.2436 38.6884Z" fill="#3A312A"/>
<path d="M53.5874 28.9174H51.5224C50.431 28.9174 49.5461 29.7572 49.5461 30.7932V32.8719C49.5461 33.9079 50.431 34.7477 51.5224 34.7477H62.9652C64.0567 34.7477 64.9415 33.9079 64.9415 32.8719V30.7932C64.9415 29.7572 64.0567 28.9174 62.9652 28.9174H56.8539H53.5874Z" fill="#8AC6DD"/>
<path d="M62.9648 35.3111H51.522C50.1047 35.3111 48.9519 34.2168 48.9519 32.8716V30.7933C48.9519 29.448 50.1047 28.3538 51.522 28.3538H62.9648C64.3821 28.3538 65.5349 29.448 65.5349 30.7933V32.8716C65.5349 34.2168 64.3821 35.3111 62.9648 35.3111ZM51.522 29.4811C50.7599 29.4811 50.1396 30.0696 50.1396 30.7933V32.8716C50.1396 33.5953 50.7595 34.1838 51.522 34.1838H62.9648C63.7269 34.1838 64.3473 33.5953 64.3473 32.8716V30.7933C64.3473 30.0696 63.7273 29.4811 62.9648 29.4811H51.522Z" fill="#3A312A"/>
<path d="M57.2429 44.0103C57.0604 44.0103 56.9124 44.1508 56.9124 44.324V44.9617C56.9124 45.1349 57.0604 45.2754 57.2429 45.2754C57.4254 45.2754 57.5735 45.1349 57.5735 44.9617V44.324C57.5735 44.1508 57.4254 44.0103 57.2429 44.0103Z" fill="#3A312A"/>
<path d="M57.2429 71.7687C57.0604 71.7687 56.9124 71.9092 56.9124 72.0824V72.7201C56.9124 72.8933 57.0604 73.0339 57.2429 73.0339C57.4254 73.0339 57.5735 72.8933 57.5735 72.7201V72.0824C57.5735 71.9092 57.4254 71.7687 57.2429 71.7687Z" fill="#3A312A"/>
<path d="M72.5324 58.5219C72.5324 58.3486 72.3844 58.2081 72.2019 58.2081H71.53C71.3475 58.2081 71.1995 58.3486 71.1995 58.5219C71.1995 58.6951 71.3475 58.8356 71.53 58.8356H72.2019C72.3844 58.836 72.5324 58.6955 72.5324 58.5219Z" fill="#3A312A"/>
<path d="M43.2873 58.5219C43.2873 58.3486 43.1392 58.2081 42.9567 58.2081H42.2849C42.1024 58.2081 41.9543 58.3486 41.9543 58.5219C41.9543 58.6951 42.1024 58.8356 42.2849 58.8356H42.9567C43.1392 58.836 43.2873 58.6955 43.2873 58.5219Z" fill="#3A312A"/>
<path d="M68.0543 48.2606C67.9252 48.1381 67.7158 48.1381 67.5868 48.2606L67.1117 48.7115C66.9826 48.834 66.9826 49.0328 67.1117 49.1553C67.2407 49.2778 67.4502 49.2778 67.5792 49.1553L68.0543 48.7043C68.1834 48.5819 68.1834 48.3834 68.0543 48.2606Z" fill="#3A312A"/>
<path d="M47.3745 67.8889C47.2454 67.7664 47.036 67.7664 46.9069 67.8889L46.4319 68.3398C46.3028 68.4623 46.3028 68.6611 46.4319 68.7836C46.5609 68.9061 46.7704 68.9061 46.8994 68.7836L47.3745 68.3327C47.5035 68.2102 47.5035 68.0114 47.3745 67.8889Z" fill="#3A312A"/>
<path d="M68.0543 68.7836C68.1834 68.6611 68.1834 68.4623 68.0543 68.3398L67.5792 67.8889C67.4502 67.7664 67.2407 67.7664 67.1117 67.8889C66.9826 68.0114 66.9826 68.2102 67.1117 68.3327L67.5868 68.7836C67.7158 68.9061 67.9252 68.9061 68.0543 68.7836Z" fill="#3A312A"/>
<path d="M47.3745 49.1553C47.5035 49.0328 47.5035 48.834 47.3745 48.7115L46.8994 48.2606C46.7704 48.1381 46.5609 48.1381 46.4319 48.2606C46.3028 48.3831 46.3028 48.5819 46.4319 48.7043L46.9069 49.1553C47.036 49.2781 47.2454 49.2781 47.3745 49.1553Z" fill="#3A312A"/>
<path d="M68.0538 68.7831C67.9243 68.906 67.7153 68.906 67.5859 68.7831L67.112 68.3333C66.9825 68.2105 66.9825 68.012 67.112 67.8895C67.2414 67.7667 67.4505 67.7667 67.5795 67.8895L68.0534 68.3393C68.1833 68.4618 68.1833 68.6602 68.0538 68.7831Z" fill="#3A312A"/>
<path d="M56.0316 53.7673V56.7524C56.3808 56.5374 56.7969 56.4123 57.243 56.4123C57.6892 56.4123 58.1053 56.5374 58.4545 56.7524V47.739C58.4545 47.1024 57.9113 46.5891 57.243 46.5891C56.5748 46.5891 56.0316 47.1028 56.0316 47.739V50.5666V53.7673Z" fill="#F16C7A"/>
<path d="M58.4544 57.316C58.3416 57.316 58.2288 57.2856 58.131 57.2251C57.6025 56.8989 56.8836 56.8989 56.355 57.2251C56.1725 57.3382 55.9394 57.3461 55.7481 57.248C55.5569 57.1492 55.4374 56.9594 55.4374 56.7528V47.7394C55.4374 46.7947 56.247 46.0259 57.2426 46.0259C58.2383 46.0259 59.0483 46.7947 59.0483 47.7394V56.7528C59.0483 56.9594 58.9291 57.1496 58.7375 57.248C58.6492 57.2931 58.5518 57.316 58.4544 57.316ZM57.243 55.8483C57.4525 55.8483 57.6595 55.8705 57.861 55.9129V47.7386C57.861 47.4154 57.5839 47.1524 57.243 47.1524C56.9026 47.1524 56.6254 47.4151 56.6254 47.7386V55.9129C56.8269 55.8701 57.0336 55.8483 57.243 55.8483Z" fill="#3A312A"/>
<path d="M59.4751 58.5294C59.4751 59.6992 58.4762 60.6476 57.2438 60.6476C56.0114 60.6476 55.0122 59.6995 55.0122 58.5294C55.0122 57.3597 56.0114 56.4116 57.2438 56.4116C58.4762 56.4116 59.4751 57.3597 59.4751 58.5294Z" fill="#FCE8CB"/>
<path d="M57.2434 61.2108C55.6856 61.2108 54.4183 60.008 54.4183 58.529C54.4183 57.0504 55.6856 55.8476 57.2434 55.8476C58.8012 55.8476 60.0689 57.0504 60.0689 58.529C60.0689 60.008 58.8012 61.2108 57.2434 61.2108ZM57.2434 56.9752C56.3404 56.9752 55.606 57.6723 55.606 58.5294C55.606 59.3865 56.3404 60.0839 57.2434 60.0839C58.1464 60.0839 58.8812 59.3869 58.8812 58.5294C58.8812 57.6723 58.1464 56.9752 57.2434 56.9752Z" fill="#3A312A"/>
</svg>
