 <svg width="28px" height="28px" xmlns="http://www.w3.org/2000/svg" viewBox="0 0 20 18" fill="#065EA8"> 
              <path d="M5.25 7.25049C5.25 6.83649 5.586 6.50049 6 6.50049H14C14.414 6.50049 14.75 6.83649 14.75 7.25049C14.75 7.66449 14.414 8.00049 14 8.00049H6C5.586 8.00049 5.25 7.66449 5.25 7.25049ZM7 5.00049H13C13.414 5.00049 13.75 4.66449 13.75 4.25049C13.75 3.83649 13.414 3.50049 13 3.50049H7C6.586 3.50049 6.25 3.83649 6.25 4.25049C6.25 4.66449 6.586 5.00049 7 5.00049ZM20 10.7375V13.2505C20 15.7315 17.981 17.7505 15.5 17.7505H4.5C2.019 17.7505 0 15.7315 0 13.2505V10.7375C0 10.3055 0.0690171 9.87944 0.205017 9.47144L2.14001 3.66846C2.82201 1.62346 4.728 0.249512 6.883 0.249512H13.117C15.272 0.249512 17.179 1.62346 17.86 3.66846L19.795 9.47144C19.931 9.87944 20 10.3065 20 10.7375ZM2.22101 9.75049H7C7.276 9.75049 7.5 9.97449 7.5 10.2505C7.5 11.6295 8.622 12.7505 10 12.7505C11.378 12.7505 12.5 11.6295 12.5 10.2505C12.5 9.97449 12.724 9.75049 13 9.75049H17.779L15.963 4.30249C15.554 3.07449 14.41 2.25049 13.117 2.25049H6.883C5.59 2.25049 4.44599 3.07449 4.03699 4.30249L2.22101 9.75049Z" fill="#065EA8" />
            </svg>