<svg xmlns="http://www.w3.org/2000/svg" width="15" height="16" viewBox="0 0 16 16" fill="none">
  <path fill-rule="evenodd" clip-rule="evenodd" d="M15.8961 2.63709C16.0577 2.87959 16.0308 3.20913 15.8152 3.42262L8.0826 11.0799C8.00334 11.1584 7.90439 11.2146 7.79593 11.2426L4.57547 12.0756C4.47043 12.1028 4.36216 12.1023 4.26043 12.0766C4.15229 12.0494 4.05153 11.9937 3.96992 11.9129C3.81155 11.7561 3.74901 11.5279 3.80562 11.3133L4.64682 8.12417C4.6716 8.0302 4.71812 7.93738 4.78246 7.86458L12.5437 0.182986C12.6117 0.11571 12.6935 0.0653578 12.7826 0.0346791C12.8486 0.0119322 12.9186 0 12.9898 0C13.1572 0 13.3176 0.065822 13.4359 0.182986L15.8152 2.53908C15.846 2.56958 15.873 2.60245 15.8961 2.63709ZM14.4769 2.98085L12.9898 1.50829L5.82438 8.60397L5.29864 10.5971L7.31143 10.0765L14.4769 2.98085Z" fill="#3A312A"/>
  <path d="M14.3705 12.4204C14.6005 10.4731 14.6737 8.5123 14.5901 6.55641C14.5861 6.46277 14.6216 6.37164 14.6886 6.30537L15.5157 5.48625C15.6174 5.38554 15.7912 5.44947 15.8007 5.59158C15.9563 7.91538 15.8973 10.2497 15.6238 12.5655C15.4248 14.2503 14.0584 15.5706 12.3659 15.7579C9.44981 16.0807 6.43552 16.0807 3.51944 15.7579C1.8269 15.5706 0.460519 14.2503 0.261531 12.5655C-0.0871771 9.6131 -0.0871771 6.6305 0.261531 3.67808C0.460519 1.9933 1.8269 0.672976 3.51944 0.485652C5.73158 0.240821 8.00024 0.181719 10.2397 0.308346C10.384 0.316507 10.4498 0.489453 10.3476 0.590679L9.51264 1.41748C9.44644 1.48304 9.35566 1.51824 9.2621 1.51512C7.38924 1.45256 5.50364 1.52334 3.65959 1.72743C2.54071 1.85126 1.64443 2.7256 1.51478 3.82323C1.17747 6.67921 1.17747 9.56439 1.51478 12.4204C1.64443 13.518 2.54071 14.3923 3.65959 14.5162C6.48252 14.8286 9.4028 14.8286 12.2257 14.5162C13.3446 14.3923 14.2409 13.518 14.3705 12.4204Z" fill="#3A312A"/>
</svg>