<svg xmlns="http://www.w3.org/2000/svg" width="21" height="17" viewBox="0 0 21 17" fill="none">
  <path d="M11.2091 1.27647L13.5647 5.56368C13.7449 5.89185 14.1352 6.11669 14.5832 6.14881L20.3218 6.55937C20.9711 6.63478 21.2301 7.27018 20.7593 7.63606L16.4366 10.5338C16.0866 10.7684 15.9273 11.1371 16.0236 11.4932L17.2801 16.1867C17.3904 16.702 16.7131 17.0958 16.1321 16.8515L11.1233 14.511C10.7383 14.3308 10.2623 14.3308 9.87724 14.511L4.86848 16.8501C4.2892 17.0931 3.61016 16.7006 3.72042 16.1853L4.97698 11.4918C5.07149 11.1357 4.91398 10.767 4.56396 10.5324L0.23948 7.63746C-0.229545 7.27298 0.0294688 6.63618 0.677003 6.56077L6.41556 6.1502C6.86358 6.11809 7.25385 5.89325 7.43411 5.56508L9.78974 1.27787C10.082 0.808651 10.9185 0.808651 11.2091 1.27647Z" fill="#FDD835"/>
</svg>