<svg width="453" height="362" viewBox="0 0 453 362" fill="none" xmlns="http://www.w3.org/2000/svg">
<mask id="mask0_87_4651" style="mask-type:luminance" maskUnits="userSpaceOnUse" x="0" y="0" width="453" height="362">
<rect x="0.0126953" width="452.987" height="362" fill="white"/>
</mask>
<g mask="url(#mask0_87_4651)">
<path d="M172.022 257.28L151.897 244.953L221.326 117.292L241.451 129.619L172.022 257.28Z" fill="#FFB202"/>
<path d="M238.379 135.267L225.005 127.075L225.455 126.249L238.829 134.441L238.379 135.267Z" fill="#FFD0AF"/>
<path d="M235.025 141.434L221.652 133.242L222.101 132.416L235.475 140.607L235.025 141.434Z" fill="#FFD0AF"/>
<path d="M231.672 147.6L218.298 139.409L218.747 138.582L232.121 146.774L231.672 147.6Z" fill="#FFD0AF"/>
<path d="M228.318 153.767L214.944 145.575L215.394 144.749L228.768 152.94L228.318 153.767Z" fill="#FFD0AF"/>
<path d="M224.964 159.933L211.591 151.742L212.04 150.915L225.414 159.107L224.964 159.933Z" fill="#FFD0AF"/>
<path d="M221.611 166.1L208.237 157.908L208.686 157.082L222.06 165.273L221.611 166.1Z" fill="#FFD0AF"/>
<path d="M218.257 172.267L204.883 164.075L205.333 163.248L218.706 171.44L218.257 172.267Z" fill="#FFD0AF"/>
<path d="M214.903 178.433L201.53 170.241L201.979 169.415L215.353 177.607L214.903 178.433Z" fill="#FFD0AF"/>
<path d="M211.549 184.6L198.176 176.408L198.625 175.581L211.999 183.773L211.549 184.6Z" fill="#FFD0AF"/>
<path d="M208.196 190.766L194.822 182.574L195.272 181.748L208.645 189.94L208.196 190.766Z" fill="#FFD0AF"/>
<path d="M204.842 196.933L191.469 188.741L191.918 187.914L205.292 196.106L204.842 196.933Z" fill="#FFD0AF"/>
<path d="M201.488 203.099L188.115 194.907L188.564 194.081L201.938 202.273L201.488 203.099Z" fill="#FFD0AF"/>
<path d="M194.692 215.711L190.236 209.17C187.137 204.624 182.951 201.05 178.115 198.822L127.713 175.577C124.865 174.27 121.549 175.13 119.581 177.687C118.057 179.664 115.687 180.666 113.308 180.341L98.0735 174.311L100.721 183.97L194.692 215.711Z" fill="#FDFFFE"/>
<mask id="mask1_87_4651" style="mask-type:luminance" maskUnits="userSpaceOnUse" x="98" y="174" width="97" height="42">
<path fill-rule="evenodd" clip-rule="evenodd" d="M194.692 215.711L190.236 209.17C187.137 204.624 182.951 201.05 178.115 198.822L127.713 175.577C124.865 174.27 121.549 175.13 119.581 177.687C118.057 179.664 115.687 180.666 113.308 180.341L98.0735 174.311L100.721 183.97L194.692 215.711Z" fill="white"/>
</mask>
<g mask="url(#mask1_87_4651)">
<path d="M199.893 217.818L131.289 185.778L116.786 193.732L183.463 218.805L199.893 217.818Z" fill="#FDFFFE" stroke="#3F3C3F" stroke-width="1.09172" stroke-linecap="round" stroke-linejoin="round"/>
</g>
<path fill-rule="evenodd" clip-rule="evenodd" d="M194.692 215.711L190.236 209.17C187.137 204.624 182.951 201.05 178.115 198.822L127.713 175.577C124.865 174.27 121.549 175.13 119.581 177.687V177.687C118.057 179.664 115.687 180.666 113.308 180.341L98.0735 174.311L100.721 183.97L194.692 215.711Z" stroke="#3F3C3F" stroke-width="1.09172" stroke-linecap="round" stroke-linejoin="round"/>
<ellipse cx="3.14909" cy="3.20798" rx="3.14909" ry="3.20798" transform="matrix(0.812554 -0.582886 0.534644 0.845078 119.848 183.041)" fill="#FDFFFE" stroke="#3F3C3F" stroke-width="1.09172" stroke-linecap="round" stroke-linejoin="round"/>
<path fill-rule="evenodd" clip-rule="evenodd" d="M100.283 184.895C94.0569 182.727 87.1456 183.53 81.6973 187.453C76.3393 191.33 69.602 192.345 63.4471 190.203C52.0626 186.24 46.1044 172.831 50.6686 160.777C54.4123 150.889 64.4453 145.086 74.2298 147.206C81.6991 148.825 87.2304 154.321 89.6312 161.158C91.9526 167.767 96.7663 173.025 103.068 175.219L104.733 175.798L101.74 185.402L100.283 184.895ZM74.2446 156.542C67.4578 154.328 60.2402 158.399 58.1237 165.636C57.1038 169.101 57.4232 172.858 59.011 176.071C60.5988 179.285 63.3236 181.689 66.5801 182.749C73.3669 184.964 80.5846 180.892 82.701 173.655C83.721 170.19 83.4015 166.433 81.8137 163.22C80.2259 160.007 77.5011 157.603 74.2446 156.542Z" fill="#EA7396"/>
<path d="M136.657 264.248L131.729 258.104C128.306 253.835 126.021 248.662 125.114 243.127L115.66 185.465C115.132 182.206 116.691 178.969 119.481 177.527C121.638 176.41 123.106 174.188 123.365 171.644L121.416 154.448L129.611 159.444L136.657 264.248Z" fill="#FDFFFE"/>
<path fill-rule="evenodd" clip-rule="evenodd" d="M136.657 264.248L131.729 258.104C128.306 253.835 126.021 248.662 125.114 243.127L115.66 185.465C115.132 182.206 116.691 178.969 119.481 177.527V177.527C121.638 176.41 123.106 174.188 123.365 171.644L121.416 154.448L129.611 159.444L136.657 264.248Z" stroke="#3F3C3F" stroke-width="1.09172" stroke-linecap="round" stroke-linejoin="round"/>
<path fill-rule="evenodd" clip-rule="evenodd" d="M130.556 159.205L130.679 160.833L121.22 161.697L121.079 159.836C120.547 152.793 116.872 146.577 111.383 142.63C105.706 138.547 101.982 131.532 102.247 123.413C102.594 112.777 110.228 103.73 120.121 102.155C132.182 100.235 143.026 109.537 143.987 122.261C144.506 129.142 142.008 135.891 137.223 140.537C132.374 145.27 130.03 152.246 130.556 159.205ZM121.56 110.007C114.485 110.794 109.319 117.534 110.021 125.061V125.061C110.723 132.588 117.026 138.052 124.101 137.265C131.175 136.478 136.341 129.738 135.64 122.211C134.938 114.684 128.634 109.22 121.56 110.007Z" fill="#EA7396"/>
<path d="M147.276 77.8269L150.641 48.4407C150.875 46.3962 153.509 46.0061 154.239 47.9077L164.739 75.2402L187.673 257.559C188.098 261.004 185.836 264.169 182.609 264.644L176.839 265.498C175.294 265.732 173.726 265.298 172.481 264.293C171.237 263.288 170.42 261.795 170.211 260.145L147.276 77.8269Z" fill="#8A8A6E"/>
<mask id="mask2_87_4651" style="mask-type:luminance" maskUnits="userSpaceOnUse" x="147" y="46" width="41" height="220">
<path fill-rule="evenodd" clip-rule="evenodd" d="M147.276 77.8269L150.641 48.4407C150.875 46.3962 153.509 46.0061 154.239 47.9077L164.739 75.2402L187.673 257.559C188.098 261.004 185.836 264.169 182.609 264.644L176.839 265.498C175.294 265.732 173.726 265.298 172.481 264.293C171.237 263.288 170.42 261.795 170.211 260.145L147.276 77.8269Z" fill="white"/>
</mask>
<g mask="url(#mask2_87_4651)">
<ellipse cx="10.0297" cy="10.2172" rx="10.0297" ry="10.2172" transform="matrix(0.812554 -0.582886 0.534644 0.845078 139.479 42.5872)" fill="#3F3C3F"/>
</g>
<path d="M169.851 115.882L176.366 167.673L169.851 115.882Z" fill="#FDFFFE"/>
<path d="M169.851 115.882L176.366 167.673" stroke="#3F3C3F" stroke-width="1.09172" stroke-linecap="round" stroke-linejoin="round"/>
<path d="M168.476 246.355L185.938 243.768L182.487 216.328L165.024 218.915L168.476 246.355Z" fill="#FFD0AF"/>
<path d="M165.137 229.197L168.611 258.241C168.853 260.261 166.763 261.06 165.756 259.332L151.284 234.494L93.5965 61.2923C92.5098 58.0293 93.7053 54.5902 96.2667 53.6106L100.844 51.8602C103.406 50.8807 106.363 52.7318 107.45 55.9947L165.137 229.197Z" fill="#FDFFFE" stroke="#3F3C3F" stroke-width="1.09172" stroke-linecap="round" stroke-linejoin="round"/>
<path d="M165.754 226.386L149.145 232.737L96.5823 74.9203L113.191 68.5691L165.754 226.386Z" fill="#AC7F8D"/>
<path d="M113.191 68.5691L96.5823 74.9203L105.264 100.988L121.873 94.6365L113.191 68.5691Z" fill="#FFD0AF"/>
<path d="M118.016 71.0271L114.462 72.386L115.72 76.1616L119.273 74.8027L132.955 115.882L134.508 115.288L120.117 72.0828C119.971 71.6449 119.666 71.2874 119.272 71.0893C118.878 70.8911 118.426 70.8687 118.016 71.027V71.0271Z" fill="#FFD0AF"/>
<path d="M213.501 304.05L213.549 294.438C212.297 296.469 202.242 298.23 187.614 299.244C179.215 299.826 169.317 300.163 158.714 300.163C148.111 300.163 138.216 299.826 129.823 299.244C115.205 298.23 105.168 296.469 103.936 294.438L103.887 304.05C103.801 304.174 103.75 304.322 103.74 304.476C103.723 307.873 128.312 310.627 158.662 310.627C189.011 310.627 213.628 307.873 213.645 304.476C213.637 304.322 213.587 304.174 213.501 304.05Z" fill="#B8B7CB"/>
<path d="M213.554 293.586L214.04 196.594H104.426L103.94 293.586C103.853 293.71 103.802 293.858 103.792 294.012C103.8 294.166 103.85 294.313 103.935 294.438C105.168 296.469 115.205 298.23 129.823 299.244C138.216 299.826 148.111 300.163 158.714 300.163C169.317 300.163 179.215 299.826 187.614 299.244C202.242 298.23 212.297 296.469 213.549 294.438C213.745 294.193 213.747 293.833 213.553 293.586H213.554Z" fill="#FDFFFE"/>
<path fill-rule="evenodd" clip-rule="evenodd" d="M213.554 293.586L214.04 196.594H104.426L103.94 293.586C103.853 293.71 103.802 293.858 103.792 294.012C103.8 294.166 103.85 294.313 103.935 294.438C105.168 296.469 115.205 298.23 129.823 299.244C138.216 299.826 148.111 300.163 158.714 300.163C169.317 300.163 179.215 299.826 187.614 299.244C202.242 298.23 212.297 296.469 213.549 294.438C213.745 294.193 213.747 293.833 213.553 293.586H213.554Z" stroke="#3F3C3F" stroke-width="1.09172" stroke-linecap="round" stroke-linejoin="round"/>
<path d="M138.354 160.033L135.856 163.557" stroke="#3F3C3F" stroke-width="1.09172" stroke-linecap="round" stroke-linejoin="round"/>
<path d="M185.901 266.677C182.048 271.574 177.216 275.488 171.76 278.133" stroke="#3F3C3F" stroke-width="1.09172" stroke-linecap="round" stroke-linejoin="round"/>
<path d="M104.021 248.379L104.184 215.711L104.021 248.379Z" fill="#FDFFFE"/>
<path d="M104.021 248.379L104.184 215.711" stroke="#3F3C3F" stroke-width="1.09172" stroke-linecap="round" stroke-linejoin="round"/>
<path d="M241.451 129.619L208.196 190.766" stroke="#3F3C3F" stroke-width="1.09172" stroke-linecap="round" stroke-linejoin="round"/>
<path d="M50.6686 160.777C46.1044 172.831 52.0626 186.239 63.4471 190.203C69.602 192.345 76.3393 191.329 81.6973 187.453" stroke="#3F3C3F" stroke-width="1.09172" stroke-linecap="round" stroke-linejoin="round"/>
<path d="M159.414 174.311L147.276 77.8267" stroke="#3F3C3F" stroke-width="1.09172" stroke-linecap="round" stroke-linejoin="round"/>
<path d="M96.5823 74.9204L105.264 100.988" stroke="#3F3C3F" stroke-width="1.09172" stroke-linecap="round" stroke-linejoin="round"/>
<path d="M103.74 304.476C103.723 307.873 128.312 310.627 158.662 310.627" stroke="#3F3C3F" stroke-width="1.09172" stroke-linecap="round" stroke-linejoin="round"/>
<path d="M391.748 316.832H223.986L225.24 66.52H393.003L391.748 316.832Z" fill="#FFD0AF"/>
<mask id="mask3_87_4651" style="mask-type:luminance" maskUnits="userSpaceOnUse" x="223" y="66" width="171" height="251">
<path fill-rule="evenodd" clip-rule="evenodd" d="M391.748 316.832H223.986L225.24 66.52H393.003L391.748 316.832Z" fill="white"/>
</mask>
<g mask="url(#mask3_87_4651)">
<path d="M385.714 310.504H231.521L232.775 60.1917H386.968L385.714 310.504Z" fill="#FFD0AF"/>
</g>
<path d="M262.698 104.489L248.231 91.8325L225.24 66.52H393.003L369.759 91.8325L262.698 104.489Z" fill="#FFD0AF"/>
<path d="M266.57 254.254L247.23 291.52L223.986 316.832H391.748L368.758 291.52L266.57 254.254Z" fill="#FFD0AF"/>
<path d="M368.759 291.52H247.23L248.231 91.8325H369.759L368.759 291.52Z" fill="#F9B472"/>
<mask id="mask4_87_4651" style="mask-type:luminance" maskUnits="userSpaceOnUse" x="247" y="91" width="123" height="201">
<path fill-rule="evenodd" clip-rule="evenodd" d="M368.759 291.52H247.23L248.231 91.8325H369.759L368.759 291.52Z" fill="white"/>
</mask>
<g mask="url(#mask4_87_4651)">
<path d="M364.342 285.191H242.813L243.813 85.5042H365.342L364.342 285.191Z" fill="white" stroke="#3F3C3F" stroke-width="1.09172" stroke-linecap="round" stroke-linejoin="round"/>
</g>
<path d="M343.677 185.348H273.376C272.597 185.349 271.849 185.019 271.299 184.431C270.749 183.842 270.442 183.043 270.446 182.212L270.45 181.452C270.462 179.717 271.784 178.316 273.411 178.316H343.712C344.491 178.315 345.239 178.645 345.789 179.233C346.339 179.822 346.646 180.621 346.642 181.452L346.638 182.212C346.626 183.947 345.304 185.348 343.677 185.348Z" fill="white" stroke="#3F3C3F" stroke-width="1.09172" stroke-linecap="round" stroke-linejoin="round"/>
<path d="M336.146 203.629H280.723C279.944 203.631 279.196 203.301 278.646 202.712C278.096 202.123 277.789 201.325 277.793 200.493L277.797 199.734C277.809 197.998 279.131 196.598 280.758 196.598H336.181C336.96 196.596 337.708 196.926 338.258 197.515C338.808 198.104 339.115 198.902 339.111 199.734L339.107 200.493C339.095 202.229 337.773 203.629 336.146 203.629Z" fill="white" stroke="#3F3C3F" stroke-width="1.09172" stroke-linecap="round" stroke-linejoin="round"/>
<path d="M341.942 216.989H274.793C274.014 216.99 273.267 216.66 272.717 216.071C272.166 215.483 271.859 214.684 271.864 213.853L271.867 213.093C271.88 211.357 273.202 209.957 274.829 209.957H341.977C342.756 209.955 343.504 210.286 344.054 210.874C344.604 211.463 344.911 212.262 344.907 213.093L344.903 213.853C344.891 215.588 343.569 216.988 341.942 216.989Z" fill="white" stroke="#3F3C3F" stroke-width="1.09172" stroke-linecap="round" stroke-linejoin="round"/>
<path d="M327.328 257.77H288.998C288.125 257.772 287.287 257.401 286.67 256.741C286.053 256.081 285.709 255.186 285.714 254.254C285.727 252.308 287.21 250.738 289.034 250.738H327.363C328.237 250.736 329.075 251.106 329.692 251.766C330.308 252.427 330.653 253.322 330.648 254.254C330.634 256.2 329.152 257.769 327.328 257.77Z" fill="white" stroke="#3F3C3F" stroke-width="1.09172" stroke-linecap="round" stroke-linejoin="round"/>
<path d="M309.328 135.54L306.602 140.273" stroke="#3F3C3F" stroke-width="1.09172" stroke-linecap="round" stroke-linejoin="round"/>
<path d="M365.492 303.041L361.584 307.122" stroke="#3F3C3F" stroke-width="1.09172" stroke-linecap="round" stroke-linejoin="round"/>
<path d="M223.986 316.832L225.24 66.52" stroke="#3F3C3F" stroke-width="1.09172" stroke-linecap="round" stroke-linejoin="round"/>
<path d="M221.475 305.849C226.388 283.077 223.921 188.125 250.993 191.167C255.121 197.017 278.247 229.793 284.843 239.141C285.961 240.726 286.248 241.132 286.47 241.447C286.449 241.336 299.397 311.284 299.443 311.531L221.475 305.849Z" fill="#49ACDC"/>
<mask id="mask5_87_4651" style="mask-type:luminance" maskUnits="userSpaceOnUse" x="221" y="191" width="79" height="121">
<path fill-rule="evenodd" clip-rule="evenodd" d="M221.475 305.849C226.388 283.077 223.921 188.125 250.993 191.167C255.121 197.017 278.247 229.793 284.843 239.141C285.961 240.726 286.248 241.132 286.47 241.447C286.449 241.336 299.397 311.284 299.443 311.531L221.475 305.849Z" fill="white"/>
</mask>
<g mask="url(#mask5_87_4651)">
<path d="M258.339 231.023C236.09 237.179 280.414 325.96 230.401 314.908C317.785 329.348 288.571 321.992 270.861 237.443C268.764 227.019 266.805 224.586 258.835 211.233" fill="#2B8ACD"/>
</g>
<path d="M372.818 313.899L343.506 176.099C343.506 176.099 285.076 173.53 246.822 191.525L269.8 313.899L372.818 313.899Z" fill="#49ACDC"/>
<mask id="mask6_87_4651" style="mask-type:luminance" maskUnits="userSpaceOnUse" x="246" y="175" width="127" height="139">
<path fill-rule="evenodd" clip-rule="evenodd" d="M372.818 313.899L343.506 176.099C343.506 176.099 285.076 173.53 246.822 191.525L269.8 313.899L372.818 313.899Z" fill="white"/>
</mask>
<g mask="url(#mask6_87_4651)">
<path d="M317.138 184.922C310.005 217.123 260.714 227.159 267.607 184.921C274.741 152.721 324.031 142.685 317.138 184.922Z" fill="white"/>
<path d="M318.472 179.398C311.339 211.598 262.049 221.634 268.941 179.397C276.075 147.197 325.366 137.161 318.472 179.398Z" fill="#FDFFFE" stroke="#3F3C3F" stroke-width="1.09172" stroke-linecap="round" stroke-linejoin="round"/>
<path d="M346.948 214.999C331.761 218.433 371.388 274.746 309.921 266.571C287.823 263.633 305.545 263.979 305.545 263.979C301.98 293.178 372.548 302.213 373.167 314.769C377.599 324.211 379.734 265.824 379.891 262.809C380.964 264.655 350.614 190.836 350.536 190.305" fill="#2B8ACD"/>
</g>
<path d="M309.71 180.256C307.617 174.374 302.15 165.191 297.726 147.59L275.641 162.691C275.64 162.261 275.663 172.703 275.687 183.21" fill="#FDFFFE"/>
<path d="M309.71 180.256C307.617 174.374 302.15 165.191 297.726 147.59L275.641 162.691C275.64 162.261 275.663 172.703 275.687 183.21" stroke="#3F3C3F" stroke-width="1.09172" stroke-linecap="round" stroke-linejoin="round"/>
<path d="M295.056 146.527C294.104 132.559 294.008 135.496 283.518 122.004C281.165 111.353 259.919 126.58 254.06 126.731C250.706 171.212 274.198 182.572 288.45 164.83" fill="#FDFFFE"/>
<path d="M295.056 146.527C294.104 132.559 294.008 135.496 283.518 122.004C281.165 111.353 259.919 126.58 254.06 126.731C250.706 171.212 274.198 182.572 288.45 164.83" stroke="#3F3C3F" stroke-width="1.09172" stroke-linecap="round" stroke-linejoin="round"/>
<path d="M291.569 147.245C275.021 136.923 279.188 126.56 279.188 126.56C222.016 169.437 223.323 95.6717 267.685 106.023C267.685 106.023 294.824 82.3041 295.721 115.695C319.084 116.405 295.841 161.234 291.569 147.245Z" fill="#FFBED0"/>
<mask id="mask7_87_4651" style="mask-type:luminance" maskUnits="userSpaceOnUse" x="235" y="97" width="71" height="53">
<path fill-rule="evenodd" clip-rule="evenodd" d="M291.569 147.245C275.021 136.923 279.188 126.56 279.188 126.56C222.016 169.437 223.323 95.6717 267.685 106.023C267.685 106.023 294.824 82.3041 295.721 115.695C319.084 116.405 295.841 161.234 291.569 147.245Z" fill="white"/>
</mask>
<g mask="url(#mask7_87_4651)">
<path d="M266.031 96.6796L267.685 106.023C267.685 106.023 266.589 115.697 272.836 106.516C279.082 97.3354 277.477 93.6194 277.477 93.6194" fill="#3F3C3F"/>
</g>
<path d="M283.36 141.575C297.864 125.968 309.682 147.75 288.406 154.987L283.36 141.575Z" fill="#FDFFFE"/>
<path d="M283.36 141.575C297.864 125.968 309.682 147.75 288.406 154.987" stroke="#3F3C3F" stroke-width="1.09172" stroke-linecap="round" stroke-linejoin="round"/>
<path d="M272.159 315.32C272.123 315.256 192.657 315.366 163.866 315.32C153.122 314.648 154.63 317.444 152.523 312.327C146.64 292.033 112.467 233.998 125.468 234.204C268.788 238.763 222.292 207.395 272.159 315.32Z" fill="#F5B63F"/>
<path d="M319.077 309.414H149.853L152.981 315.32H328.368C327.076 312.58 325.023 310.483 319.077 309.414Z" fill="#FDFFFE" stroke="#3F3C3F" stroke-width="1.09172" stroke-linecap="round" stroke-linejoin="round"/>
<path d="M269.495 315.32C269.459 315.256 189.992 315.366 161.202 315.32C150.458 314.648 151.966 317.444 149.859 312.327C143.976 292.033 109.803 233.998 122.804 234.204C266.124 238.763 219.628 207.395 269.495 315.32Z" fill="#FDB80B"/>
<mask id="mask8_87_4651" style="mask-type:luminance" maskUnits="userSpaceOnUse" x="119" y="233" width="151" height="83">
<path fill-rule="evenodd" clip-rule="evenodd" d="M269.495 315.32C269.459 315.256 189.992 315.366 161.202 315.32C150.458 314.648 151.966 317.444 149.859 312.327C143.976 292.033 109.803 233.998 122.804 234.204C266.124 238.763 219.628 207.395 269.495 315.32Z" fill="white"/>
</mask>
<g mask="url(#mask8_87_4651)">
<path d="M133.084 302.371L272.159 315.32C272.159 315.32 146.891 326.415 145.232 325.978C143.572 325.541 128.002 307.787 128.002 307.787" fill="#FC9905"/>
</g>
<path d="M200.434 272.154C204.808 286.352 183.795 283.093 179.475 272.153C175.101 257.956 196.114 261.215 200.434 272.154Z" fill="white"/>
<path d="M366.943 286.279H409.401C409.312 286.124 374.794 200.187 372.379 194.227C369.758 181.695 348.472 173.814 334.261 175.976L366.943 286.279Z" fill="#49ACDC"/>
<path d="M267.274 281.681C267.274 281.681 269.157 289.938 286.591 274.219C274.968 293.167 323.277 298.586 304.384 287.989C320.063 275.081 344.816 294.256 379.365 307.454C398.781 321.633 424.828 306.754 406.337 282.723C362.798 265.939 325.401 266.809 289.874 262.723C285.096 260.981 267.996 281.236 267.274 281.681Z" fill="#FDFFFE"/>
<path fill-rule="evenodd" clip-rule="evenodd" d="M267.274 281.681C267.274 281.681 269.157 289.938 286.591 274.219C274.968 293.167 323.277 298.586 304.384 287.989C320.063 275.081 344.816 294.256 379.365 307.454C398.781 321.633 424.828 306.754 406.337 282.723C362.798 265.939 325.401 266.809 289.874 262.723C285.096 260.981 267.996 281.236 267.274 281.681Z" stroke="#3F3C3F" stroke-width="1.09172" stroke-linecap="round" stroke-linejoin="round"/>
<path d="M288.408 141.948C292.678 136.984 295.495 143.008 292.894 146.424C290.294 149.841 291.223 142.75 288.408 141.948Z" fill="#3F3C3F"/>
<path d="M277.691 235.667C286.899 252.206 300.96 246.046 300.96 246.046L277.691 235.667Z" fill="#2B8ACD"/>
<ellipse cx="1.57491" cy="1.60437" rx="1.57491" ry="1.60437" transform="matrix(0.812554 -0.582886 0.534644 0.845078 257.12 148.223)" fill="#3F3C3F"/>
<ellipse cx="1.57491" cy="1.60437" rx="1.57491" ry="1.60437" transform="matrix(0.812554 -0.582886 0.534644 0.845078 270.658 145.228)" fill="#3F3C3F"/>
<path d="M265.553 145.731C265.724 150.052 265.786 151.324 265.786 151.324C259.297 152.959 266.728 157.289 266.728 157.289" fill="#FDFFFE"/>
<path d="M265.553 145.731C265.724 150.052 265.786 151.324 265.786 151.324C259.297 152.959 266.728 157.289 266.728 157.289" stroke="#3F3C3F" stroke-width="1.09172" stroke-linecap="round" stroke-linejoin="round"/>
<path d="M270.887 157.156C270.913 158.654 269.948 159.966 268.577 160.295L270.887 157.156Z" fill="#FDFFFE"/>
<path d="M270.887 157.156C270.913 158.654 269.948 159.966 268.577 160.295" stroke="#3F3C3F" stroke-width="1.09172" stroke-linecap="round" stroke-linejoin="round"/>
<path d="M291.444 145.812L294.182 142.243L291.444 145.812Z" fill="#FDFFFE"/>
<path d="M291.444 145.812L294.182 142.243" stroke="#3F3C3F" stroke-width="1.09172" stroke-linecap="round" stroke-linejoin="round"/>
<path d="M346.948 214.999L358.46 257.12" stroke="#3F3C3F" stroke-width="1.09172" stroke-linecap="round" stroke-linejoin="round"/>
<path d="M142.775 234.638L179.051 234.326" stroke="#3F3C3F" stroke-width="1.09172" stroke-linecap="round" stroke-linejoin="round"/>
<path d="M257.804 118.609C256.591 122.121 253.624 124.892 250.196 125.713" stroke="#3F3C3F" stroke-width="1.09172" stroke-linecap="round" stroke-linejoin="round"/>
<path d="M40.7747 216.23C70.2728 190.25 83.8874 197.295 87.4336 232.522C90.9797 267.749 130.588 205.221 137.428 243.531C144.268 281.84 169.495 282.721 179.475 272.153C189.455 261.584 195.629 267.749 195.629 267.749" stroke="#3F3C3F" stroke-width="1.09172" stroke-linecap="round" stroke-linejoin="round"/>
<path fill-rule="evenodd" clip-rule="evenodd" d="M182.918 91.8825C182.88 99.4471 188.631 105.601 195.736 105.601C202.842 105.601 208.653 99.4471 208.691 91.8825C208.729 84.3179 202.98 78.1638 195.874 78.1638C188.768 78.1638 182.956 84.3179 182.918 91.8825ZM191.732 91.8825C191.752 89.4841 193.579 87.5502 195.827 87.5473H195.827C196.904 87.5462 197.936 88.0031 198.696 88.8167C199.457 89.6304 199.881 90.7337 199.877 91.8825C199.857 94.2806 198.031 96.2146 195.783 96.2176C194.706 96.2188 193.674 95.762 192.913 94.9484C192.153 94.1347 191.728 93.0314 191.732 91.8825Z" fill="#29315A"/>
</g>
</svg>
