<svg width="56" height="56" viewBox="0 0 56 56" fill="none" xmlns="http://www.w3.org/2000/svg">
<circle cx="27.5649" cy="28.3262" r="27.5" fill="#C1F8E5"/>
<path fill-rule="evenodd" clip-rule="evenodd" d="M33.0427 22.8476C33.078 22.7696 33.0945 22.6847 33.0911 22.5993H33.1201C32.9958 19.6641 30.5477 17.3477 27.57 17.3477C24.5922 17.3477 22.1441 19.6641 22.0198 22.5993C22.0052 22.6815 22.0052 22.7655 22.0198 22.8476L21.9331 22.8476C20.5092 22.8476 18.9871 23.7781 18.5452 26.2796L17.681 33.0937C16.974 38.0966 19.5763 39.3474 22.974 39.3474H32.1852C35.5731 39.3474 38.0968 37.5363 37.4683 33.0937L36.614 26.2796C36.0935 23.8482 34.6205 22.8476 33.2163 22.8476L33.0427 22.8476ZM31.4459 22.8476C31.4149 22.7683 31.3985 22.6843 31.3975 22.5993C31.3975 20.4901 29.6643 18.7803 27.5264 18.7803C25.3885 18.7803 23.6554 20.4901 23.6554 22.5993C23.67 22.6815 23.67 22.7655 23.6554 22.8476H31.4459ZM24.3392 28.51C23.7968 28.51 23.3572 28.062 23.3572 27.5094C23.3572 26.9568 23.7968 26.5088 24.3392 26.5088C24.8815 26.5088 25.3212 26.9568 25.3212 27.5094C25.3212 28.062 24.8815 28.51 24.3392 28.51ZM29.7891 27.5094C29.7891 28.062 30.2287 28.51 30.7711 28.51C31.3134 28.51 31.7531 28.062 31.7531 27.5094C31.7531 26.9568 31.3134 26.5088 30.7711 26.5088C30.2287 26.5088 29.7891 26.9568 29.7891 27.5094Z" fill="url(#paint0_linear_621_635)"/>
<defs>
<linearGradient id="paint0_linear_621_635" x1="27.5646" y1="17.3477" x2="27.5646" y2="39.3474" gradientUnits="userSpaceOnUse">
<stop stop-color="#C55DF5"/>
<stop offset="1" stop-color="#EB9EDA"/>
</linearGradient>
</defs>
</svg>
