<?xml version="1.0" encoding="UTF-8"?>
<!DOCTYPE svg PUBLIC "-//W3C//DTD SVG 1.1//EN" "http://www.w3.org/Graphics/SVG/1.1/DTD/svg11.dtd">
<svg xmlns="http://www.w3.org/2000/svg" version="1.1" width="91px" height="85px" style="shape-rendering:geometricPrecision; text-rendering:geometricPrecision; image-rendering:optimizeQuality; fill-rule:evenodd; clip-rule:evenodd" xmlns:xlink="http://www.w3.org/1999/xlink">
<g><path style="opacity:1" fill="#f3f6fa" d="M -0.5,-0.5 C 29.8333,-0.5 60.1667,-0.5 90.5,-0.5C 90.5,27.8333 90.5,56.1667 90.5,84.5C 60.1667,84.5 29.8333,84.5 -0.5,84.5C -0.5,56.1667 -0.5,27.8333 -0.5,-0.5 Z"/></g>
<g><path style="opacity:1" fill="#1361aa" d="M 47.5,1.5 C 66.7511,3.57826 79.2511,13.9116 85,32.5C 86.4237,38.8175 84.257,43.3175 78.5,46C 68.5,46.6667 58.5,46.6667 48.5,46C 45.804,45.3102 43.6374,43.8102 42,41.5C 40.4003,30.239 40.0669,18.9056 41,7.5C 42.4936,4.68648 44.6603,2.68648 47.5,1.5 Z"/></g>
<g><path style="opacity:1" fill="#0b5fa8" d="M 26.5,10.5 C 29.0444,10.1043 31.2111,10.771 33,12.5C 33.3333,23.8333 33.6667,35.1667 34,46.5C 35.1411,48.6089 36.6411,50.4422 38.5,52C 50.4041,53.2929 62.4041,53.9596 74.5,54C 76.3249,55.4659 76.8249,57.2992 76,59.5C 67.7271,76.1653 54.2271,83.6653 35.5,82C 12.0679,74.6393 2.2346,58.806 6,34.5C 9.82202,23.8507 16.6554,15.8507 26.5,10.5 Z"/></g>
<g><path style="opacity:1" fill="#f5f7fb" d="M 48.5,10.5 C 61.7854,11.9354 70.9521,18.9354 76,31.5C 76.4966,33.8098 76.6633,36.1432 76.5,38.5C 67.8269,38.6664 59.1603,38.4998 50.5,38C 50,37.5 49.5,37 49,36.5C 48.5002,27.8397 48.3336,19.1731 48.5,10.5 Z"/></g>
</svg>
