<svg width="56" height="56" viewBox="0 0 56 56" fill="none" xmlns="http://www.w3.org/2000/svg">
<circle cx="27.5649" cy="27.9629" r="27.5" fill="#F3C1D8"/>
<path d="M39.4316 20.1843V34.4536C39.4316 35.6177 38.4947 36.6858 37.3443 36.8298L36.9767 36.8778C35.0317 37.1419 32.2921 37.9579 30.0862 38.894C29.3153 39.218 28.4614 38.63 28.4614 37.7779V21.0844C28.4614 20.6404 28.7105 20.2323 29.1018 20.0163C31.2722 18.8282 34.5573 17.7721 36.7869 17.5801H36.8581C38.2812 17.5801 39.4316 18.7442 39.4316 20.1843Z" fill="#FF69B4"/>
<path d="M26.0399 20.0163C23.8695 18.8282 20.5844 17.7721 18.3548 17.5801H18.2718C16.8486 17.5801 15.6982 18.7442 15.6982 20.1843V34.4536C15.6982 35.6177 16.6352 36.6858 17.7855 36.8298L18.1532 36.8778C20.0982 37.1419 22.8378 37.9579 25.0437 38.894C25.8146 39.218 26.6684 38.63 26.6684 37.7779V21.0844C26.6684 20.6284 26.4313 20.2323 26.0399 20.0163ZM19.268 23.6526H21.9364C22.4227 23.6526 22.8259 24.0607 22.8259 24.5527C22.8259 25.0568 22.4227 25.4528 21.9364 25.4528H19.268C18.7818 25.4528 18.3785 25.0568 18.3785 24.5527C18.3785 24.0607 18.7818 23.6526 19.268 23.6526ZM22.8259 29.0531H19.268C18.7818 29.0531 18.3785 28.6571 18.3785 28.153C18.3785 27.661 18.7818 27.253 19.268 27.253H22.8259C23.3121 27.253 23.7154 27.661 23.7154 28.153C23.7154 28.6571 23.3121 29.0531 22.8259 29.0531Z" fill="#FF69B4"/>
</svg>
