<svg width="24" height="25" viewBox="0 0 24 25" fill="none" xmlns="http://www.w3.org/2000/svg">
<path d="M21.3538 21.147L16.4908 16.284C17.7368 14.873 18.4998 13.026 18.4998 11C18.4998 6.589 14.9108 3 10.4998 3C6.08876 3 2.49976 6.589 2.49976 11C2.49976 15.411 6.08876 19 10.4998 19C12.5258 19 14.3728 18.237 15.7838 16.991L20.6468 21.854C20.7448 21.952 20.8728 22 21.0008 22C21.1288 22 21.2568 21.951 21.3548 21.854C21.5488 21.659 21.5488 21.343 21.3538 21.147ZM10.4998 18.001C6.63976 18.001 3.49976 14.861 3.49976 11.001C3.49976 7.14101 6.63976 4.00101 10.4998 4.00101C14.3598 4.00101 17.4998 7.14101 17.4998 11.001C17.4998 14.861 14.3598 18.001 10.4998 18.001Z" fill="#055EA8"/>
</svg>
