<svg width="24" height="22" viewBox="0 0 24 22" fill="none" xmlns="http://www.w3.org/2000/svg">
<path fill-rule="evenodd" clip-rule="evenodd" d="M21.5368 7.58233C21.5105 7.32564 21.4819 7.06926 21.4509 6.81324L21.3819 6.24426C21.1395 4.24385 19.8296 2.77193 18.2918 2.77193L9.55803 2.77193C9.23411 1.25398 8.17556 0.141113 6.91969 0.141113H4.45399C2.85847 0.141113 1.51457 1.71154 1.32434 3.79827L1.03115 7.01446C0.716265 10.4686 0.797531 13.9656 1.27223 17.3879C1.52618 19.2188 2.68861 20.5912 4.09793 20.724L5.72699 20.8775C9.45608 21.229 13.1995 21.229 16.9286 20.8775L18.6909 20.7114C19.5609 20.6295 20.3313 20.0472 20.8275 19.1708C21.4878 18.3365 22.0074 17.3174 22.3436 16.1787L23.688 11.6249C24.2622 9.67981 23.173 7.58233 21.5887 7.58233H21.5368ZM4.45399 2.26718C3.67543 2.26718 3.01964 3.03349 2.92682 4.05176L2.63363 7.26794C2.33803 10.5105 2.41432 13.7931 2.85993 17.0058C2.98154 17.8825 3.53821 18.5398 4.21311 18.6034L4.30565 18.6121L6.81495 10.073C7.25609 8.57187 8.35239 7.58233 9.5744 7.58233H19.9071C19.8913 7.43755 19.8746 7.29289 19.857 7.14835L19.7881 6.57937C19.6707 5.61073 19.0365 4.89799 18.2918 4.89799L8.91686 4.89799C8.43589 4.89799 8.046 4.38439 8.046 3.75084C8.046 2.93143 7.54174 2.26718 6.91969 2.26718H4.45399Z" fill="black"/>
</svg>
