<svg width="188" height="125" viewBox="0 0 188 125" fill="none" xmlns="http://www.w3.org/2000/svg">
<path d="M78.1551 25.9999H54.0001V41.7122H78.1551V25.9999Z" fill="#E0E0E0"/>
<path d="M77.3021 26.6422H54.8401V41.0094H77.3021V26.6422Z" fill="#FAFAFA"/>
<path d="M69.735 31.8792H62.4072V35.8326H69.735V31.8792Z" fill="#E0E0E0"/>
<path d="M36.0001 14.9999V32.2498H47.4633V14.9999H36.0001Z" fill="#E0E0E0"/>
<path d="M36.4689 15.6086V31.6498H46.9511V15.6086H36.4689Z" fill="#FAFAFA"/>
<path d="M40.2898 21.0127V26.2457H43.1742V21.0127H40.2898Z" fill="#E0E0E0"/>
<path d="M88.3134 36.3174H87.6063V42.5657H88.3134V36.3174Z" fill="#E0E0E0"/>
<path d="M111.574 36.3174H110.867V42.5657H111.574V36.3174Z" fill="#E0E0E0"/>
<path d="M114.581 33.8055H85.0001V36.3173H114.581V33.8055Z" fill="#EBEBEB"/>
<path d="M108.737 14.9998H104.658V33.8049H108.737V14.9998Z" fill="#F5F5F5"/>
<path d="M107.588 29.2933C107.588 29.7346 107.226 30.0925 106.78 30.0925C106.334 30.0925 105.972 29.7349 105.972 29.2933C105.972 28.8521 106.334 28.4942 106.78 28.4942C107.226 28.4942 107.588 28.8518 107.588 29.2933Z" fill="#E0E0E0"/>
<path d="M107.369 19.9818H106.121V27.6674H107.369V19.9818Z" fill="#E0E0E0"/>
<path d="M104.594 14.9998H100.516V33.8049H104.594V14.9998Z" fill="#EBEBEB"/>
<path d="M103.445 29.2933C103.445 29.7346 103.083 30.0925 102.637 30.0925C102.191 30.0925 101.829 29.7349 101.829 29.2933C101.829 28.8521 102.191 28.4942 102.637 28.4942C103.084 28.4942 103.445 28.8518 103.445 29.2933Z" fill="#FAFAFA"/>
<path d="M103.226 19.9818H101.979V27.6674H103.226V19.9818Z" fill="#FAFAFA"/>
<path d="M100.649 14.9998H96.5708V33.8049H100.649V14.9998Z" fill="#E0E0E0"/>
<path d="M99.4996 29.2933C99.4996 29.7346 99.1378 30.0925 98.6915 30.0925C98.2455 30.0925 97.8837 29.7349 97.8837 29.2933C97.8837 28.8521 98.2455 28.4942 98.6915 28.4942C99.1378 28.4942 99.4996 28.8518 99.4996 29.2933Z" fill="#FAFAFA"/>
<path d="M99.2805 19.9818H98.033V27.6674H99.2805V19.9818Z" fill="#FAFAFA"/>
<path d="M91.5281 33.5184L96.428 16.9756L94.7382 16.2423L89.7126 32.9188L91.5281 33.5184Z" fill="#E0E0E0"/>
<path d="M103.209 20.9042C103.253 20.9136 103.294 20.923 103.339 20.9325C103.387 20.9429 103.436 20.9523 103.484 20.9627L103.209 20.9042Z" fill="#F5F5F5"/>
<path d="M138.687 15.7237C138.289 14.4835 137.118 13.5701 135.834 13.2899C134.55 13.0097 132.955 12.6238 131.795 13.236C131.07 13.6186 130.378 14.1657 130.104 14.932C129.78 15.8408 130.334 17.5159 130.612 18.4396C130.891 19.3633 131.107 20.4186 130.604 21.2441C130.115 22.048 129.096 22.3745 128.473 23.0812C127.608 24.0611 127.767 25.7498 128.799 26.5555C127.667 26.5101 126.733 27.668 126.792 28.7871C126.852 29.9063 127.698 30.8747 128.717 31.3644C129.736 31.8541 130.904 31.9394 132.036 31.9215C133.44 31.8992 134.842 31.7306 136.21 31.4192C137.338 31.1625 138.512 30.7643 139.234 29.8678C139.896 29.0444 140.064 27.9322 140.047 26.8799C139.987 23.1559 137.945 19.4988 138.736 15.8575" fill="#263238"/>
<path d="M106.135 23.4098C106.135 23.4098 103.898 21.9217 103.349 21.4414C102.326 20.5477 102.404 20.4533 102.527 20.3501C102.857 20.0726 104.384 21.853 104.275 21.2768C104.165 20.7006 102.158 19.3202 102.515 19.0445C102.98 18.6856 104.544 20.5792 104.689 20.7296C104.829 20.8755 105.052 20.6733 104.914 20.5447C104.717 20.3598 102.692 18.3657 103.145 18.0086C103.397 17.8107 103.704 18.3016 103.704 18.3016C103.704 18.3016 105.464 20.3093 105.672 20.1334C105.884 19.9549 104.89 18.741 104.526 18.3554C104.167 17.9747 104.2 17.6464 104.498 17.6246C104.701 17.6097 105.843 18.7631 106.194 19.1526C106.544 19.5421 107.488 20.6279 107.452 19.7079C107.452 19.6934 107.453 19.6801 107.453 19.6659C107.392 18.7607 107.649 18.0437 107.866 17.8863C108.078 17.7326 108.36 17.9287 108.346 18.1899C108.347 18.232 108.343 18.2755 108.325 18.32C108.317 18.3385 108.312 18.3648 108.305 18.386C108.253 18.6411 108.253 19.02 108.264 19.3142C108.274 19.5926 108.33 19.868 108.433 20.1268C108.553 20.4261 108.668 20.6797 108.77 20.89L109.4 22.3067L107.635 23.9521L106.135 23.4098Z" fill="#B78876"/>
<path d="M146.434 70.8875L148.228 111.434L153.322 111.579C153.322 111.579 154.852 89.2253 154.529 86.9839C154.206 84.7426 153.398 72.6585 153.398 72.6585L146.434 70.8875Z" fill="#B78876"/>
<path d="M138.662 70.8875L140.456 111.434L145.551 111.579C145.551 111.579 147.08 89.2253 146.757 86.984C146.434 84.7427 145.626 72.6586 145.626 72.6586L138.662 70.8875Z" fill="#B78876"/>
<path d="M139.416 87.9305L139.477 89.3075L146.775 89.7572V87.738L139.416 87.9305Z" fill="#AA6550"/>
<path d="M147.179 87.7275L147.269 89.7573L154.533 90.2219L154.573 87.5345L147.179 87.7275Z" fill="#AA6550"/>
<path d="M157.203 87.4657C158.268 87.4379 159.088 86.5285 158.993 85.4792C158.525 80.3165 157.216 66.2862 156.394 61.5096C155.53 56.4885 152.87 52.8784 152.097 51.9151L147.092 44.524L147.011 38.7052C147.011 38.7052 147.753 34.5593 147.751 34.4946C147.619 29.6811 140.769 28.9297 137.363 29.5128L135.341 29.5691H134.911L118.526 29.1739L108.904 20.1431L105.928 24.4176L116.582 35.1549L130.788 36.9045C130.803 37.1284 130.761 37.6783 130.71 38.3293C130.553 40.3001 130.475 42.657 133.064 44.7546C135.116 49.2461 136.571 53.0034 136.137 58.0925L136.164 58.0819L136.436 88.0084L157.203 87.4657Z" fill="#455A64"/>
<path d="M146.941 44.4586C146.948 44.4664 146.817 44.5941 146.573 44.8187C146.452 44.9322 146.302 45.0678 146.118 45.2158C145.936 45.365 145.734 45.5414 145.494 45.7166C145.025 46.081 144.442 46.4829 143.773 46.8957C143.1 47.3009 142.338 47.7128 141.51 48.0878C140.679 48.457 139.864 48.7527 139.112 48.9872C138.357 49.2133 137.667 49.3825 137.081 49.4911C136.79 49.5541 136.523 49.5889 136.289 49.6261C136.056 49.6649 135.853 49.6879 135.687 49.703C135.356 49.7366 135.173 49.7502 135.172 49.7393C135.171 49.7284 135.352 49.6945 135.679 49.6422C135.843 49.6176 136.044 49.5859 136.274 49.539C136.505 49.4936 136.77 49.4515 137.058 49.3819C137.638 49.2599 138.321 49.0805 139.068 48.8486C139.812 48.6083 140.619 48.3109 141.444 47.9444C142.265 47.5721 143.023 47.1675 143.696 46.7716C144.365 46.3685 144.951 45.9787 145.426 45.6277C145.668 45.4591 145.875 45.2896 146.062 45.1477C146.249 45.0066 146.405 44.8783 146.532 44.7724C146.788 44.5627 146.933 44.4504 146.941 44.4586Z" fill="#263238"/>
<path d="M147.062 44.5706C147.058 44.5619 147.149 44.5001 147.324 44.4054C147.499 44.3104 147.758 44.1826 148.089 44.0495C148.42 43.916 148.824 43.7783 149.283 43.6648C149.513 43.6082 149.756 43.5565 150.01 43.5153C150.139 43.499 150.261 43.4672 150.413 43.4702C150.487 43.4736 150.575 43.4902 150.647 43.5519C150.719 43.6116 150.751 43.7108 150.746 43.7928C150.737 43.9617 150.648 44.0891 150.555 44.1938C150.457 44.2995 150.34 44.3791 150.219 44.4387C149.975 44.5561 149.722 44.6033 149.487 44.6345C149.016 44.6914 148.589 44.7032 148.231 44.6893C147.873 44.6753 147.586 44.6348 147.389 44.5976C147.193 44.5591 147.088 44.5258 147.09 44.5162C147.094 44.4901 147.527 44.5773 148.233 44.5779C148.585 44.5776 149.006 44.554 149.467 44.4907C149.694 44.4571 149.933 44.4078 150.149 44.3007C150.257 44.2468 150.356 44.1772 150.437 44.0891C150.516 44.0014 150.584 43.8915 150.587 43.7883C150.592 43.6848 150.522 43.6315 150.406 43.627C150.293 43.6231 150.159 43.6524 150.035 43.6682C149.785 43.7066 149.545 43.7544 149.318 43.8065C148.864 43.9103 148.462 44.0353 148.13 44.1539C147.465 44.3918 147.075 44.5939 147.062 44.5706Z" fill="#263238"/>
<path d="M146.96 44.3834C146.95 44.3804 146.973 44.2796 147.034 44.1044C147.096 43.9292 147.198 43.6786 147.359 43.3859C147.52 43.0939 147.737 42.7577 148.026 42.4202C148.17 42.2517 148.33 42.0822 148.507 41.9172C148.596 41.8361 148.688 41.7544 148.786 41.6757C148.833 41.6397 148.879 41.5859 148.976 41.561C149.081 41.5371 149.179 41.6064 149.218 41.68C149.303 41.8519 149.223 41.9953 149.187 42.1046C149.145 42.2235 149.092 42.3361 149.039 42.4453C148.93 42.6636 148.798 42.8578 148.662 43.0343C148.391 43.3881 148.096 43.6595 147.845 43.8792C147.592 44.0968 147.377 44.2594 147.226 44.3689C147.075 44.4782 146.988 44.5339 146.982 44.5254C146.965 44.5057 147.284 44.2448 147.769 43.7966C148.007 43.569 148.289 43.2939 148.545 42.9471C148.672 42.774 148.798 42.5855 148.899 42.3763C148.949 42.2716 148.999 42.1642 149.038 42.0513C149.083 41.9393 149.12 41.8207 149.08 41.7584C149.059 41.7229 149.031 41.709 149.009 41.7151C148.981 41.719 148.934 41.7568 148.886 41.7968C148.791 41.8728 148.701 41.952 148.613 42.0301C148.439 42.1893 148.281 42.3524 148.137 42.5144C147.85 42.8385 147.628 43.1611 147.457 43.4407C147.118 44.0036 146.987 44.3937 146.96 44.3834Z" fill="#263238"/>
<path d="M140.456 34.518L136.137 62.1974H141.385L147.092 37.5108C147.958 33.0693 145.812 31.5891 143.296 31.8185C143.209 31.8264 143.122 31.8372 143.036 31.8512C141.686 32.0688 140.664 33.1813 140.456 34.518Z" fill="#455A64"/>
<path d="M144.432 31.8924C144.432 31.8924 144.378 31.8924 144.273 31.8848C144.169 31.8788 144.014 31.8612 143.81 31.8509C143.408 31.8537 142.786 31.86 142.085 32.1863C141.744 32.3591 141.397 32.6202 141.115 32.9889C140.84 33.3647 140.615 33.8175 140.57 34.3698C140.394 35.4466 140.178 36.6699 139.965 38.0266C139.123 43.4617 137.961 50.9592 136.679 59.2406C136.522 60.2433 136.367 61.2344 136.215 62.2086L136.137 62.1181C137.951 62.119 139.71 62.1199 141.385 62.1206L141.311 62.1787C142.821 55.9534 144.127 50.5688 145.057 46.7332C145.526 44.8248 145.9 43.3019 146.159 42.2493C146.289 41.7321 146.39 41.3308 146.46 41.0518C146.495 40.9204 146.522 40.8187 146.541 40.7434C146.56 40.6741 146.571 40.6393 146.573 40.6399C146.575 40.6405 146.569 40.6765 146.555 40.7467C146.538 40.8227 146.515 40.9256 146.486 41.0581C146.422 41.3384 146.329 41.7418 146.21 42.2617C145.961 43.3167 145.602 44.8429 145.151 46.7559C144.234 50.5949 142.948 55.9839 141.46 62.2144L141.446 62.2728H141.385C139.71 62.2737 137.951 62.2746 136.136 62.2755H136.044L136.058 62.185C136.21 61.2108 136.365 60.2194 136.521 59.2167C137.822 50.9381 139 43.4426 139.853 38.0093C140.074 36.6532 140.298 35.4299 140.482 34.3544C140.506 34.22 140.529 34.0877 140.552 33.9582C140.583 33.8232 140.629 33.7025 140.679 33.5829C140.781 33.346 140.913 33.1347 141.054 32.9441C141.347 32.5682 141.707 32.304 142.058 32.1318C142.778 31.8071 143.407 31.8125 143.811 31.8198C144.016 31.8349 144.17 31.8579 144.274 31.8694C144.379 31.8818 144.432 31.8924 144.432 31.8924Z" fill="#263238"/>
<path d="M134.112 44.8099C134.111 44.8153 134.073 44.8135 134.001 44.8053C133.929 44.7996 133.824 44.7793 133.689 44.7478C133.422 44.6825 133.042 44.5405 132.628 44.2688C132.218 43.9955 131.78 43.5863 131.424 43.0385C131.067 42.4923 130.811 41.8116 130.681 41.0765C130.426 39.5939 130.692 38.2402 130.898 37.3017C131.006 36.829 131.108 36.4507 131.182 36.1901C131.256 35.9296 131.303 35.7873 131.313 35.7897C131.324 35.7925 131.298 35.9398 131.242 36.2047C131.181 36.4988 131.102 36.8747 131.008 37.3244C130.83 38.2653 130.588 39.6027 130.838 41.0493C130.965 41.7665 131.21 42.4284 131.548 42.9608C131.885 43.4949 132.301 43.8998 132.692 44.1771C133.487 44.7342 134.126 44.7736 134.112 44.8099Z" fill="#263238"/>
<path d="M138.916 43.2736C138.919 43.313 138.247 43.2603 137.602 42.7873C136.951 42.3209 136.698 41.7026 136.737 41.6941C136.779 41.6684 137.08 42.221 137.696 42.6602C138.304 43.1084 138.928 43.2261 138.916 43.2736Z" fill="#263238"/>
<path d="M136.576 36.6079C136.574 36.6064 136.581 36.5931 136.596 36.5683C136.611 36.5432 136.635 36.5075 136.672 36.4639C136.745 36.3779 136.867 36.2545 137.066 36.1579C137.261 36.062 137.541 35.9921 137.854 36.0638C138.158 36.1337 138.498 36.3449 138.672 36.7111C138.852 37.0661 138.856 37.5609 138.591 37.961C138.337 38.3351 138.066 38.7337 137.781 39.1528C137.206 39.9923 136.576 40.913 135.913 41.8823L135.898 41.9029L135.875 41.9117C135.807 41.9368 135.734 41.9643 135.661 41.9916C135.052 42.2186 134.458 42.4395 133.889 42.6513L133.784 42.6907L133.784 42.5793C133.787 41.863 133.789 41.1835 133.791 40.5534V40.5313L133.803 40.5138C134.612 39.3586 135.295 38.3832 135.79 37.6766C136.026 37.3476 136.217 37.0819 136.361 36.8815C136.495 36.6993 136.57 36.6037 136.576 36.6079C136.583 36.6122 136.52 36.7163 136.398 36.9066C136.262 37.1124 136.082 37.3857 135.86 37.7238C135.377 38.4386 134.71 39.4252 133.92 40.5931L133.932 40.5534C133.935 41.1835 133.937 41.863 133.939 42.5793L133.834 42.5073C134.402 42.2942 134.996 42.0721 135.604 41.8442C135.678 41.817 135.751 41.7897 135.818 41.7643L135.781 41.7936C136.448 40.827 137.083 39.9088 137.661 39.0717C137.949 38.6559 138.224 38.2606 138.481 37.8899C138.724 37.5334 138.73 37.0852 138.571 36.7583C138.418 36.4218 138.115 36.2221 137.832 36.1482C137.546 36.0741 137.281 36.1295 137.091 36.2127C136.706 36.3912 136.591 36.6255 136.576 36.6079Z" fill="#E0E0E0"/>
<path d="M135.865 41.8134C135.84 41.8491 135.393 41.5843 134.866 41.2217C134.339 40.8591 133.932 40.5362 133.957 40.5005C133.982 40.4648 134.43 40.7296 134.957 41.0925C135.483 41.4547 135.89 41.7776 135.865 41.8134Z" fill="#E0E0E0"/>
<path d="M134.56 42.3046C134.518 42.3228 134.413 42.1633 134.237 42.0192C134.065 41.8718 133.889 41.795 133.9 41.7514C133.906 41.7099 134.135 41.7257 134.34 41.8991C134.547 42.0713 134.6 42.2919 134.56 42.3046Z" fill="#E0E0E0"/>
<path d="M138.571 37.8502C138.545 37.8853 138.117 37.6184 137.614 37.254C137.111 36.8896 136.725 36.5655 136.751 36.5304C136.777 36.4953 137.205 36.7622 137.708 37.1269C138.211 37.4913 138.598 37.8151 138.571 37.8502Z" fill="#E0E0E0"/>
<path d="M134.912 41.0788C134.894 41.0664 135.029 40.8388 135.261 40.4805C135.494 40.1222 135.823 39.6334 136.194 39.0981C136.565 38.5624 136.907 38.0821 137.159 37.7371C137.413 37.39 137.568 37.1863 137.583 37.1896C137.635 37.2214 137.068 38.1166 136.326 39.187C135.955 39.7224 135.61 40.2015 135.354 40.5438C135.097 40.8861 134.93 41.0912 134.912 41.0788Z" fill="#E0E0E0"/>
<path d="M136.382 62.2856L135.939 63.741L131.736 64.4997H139.8L140.506 62.2929L136.382 62.2856Z" fill="#B78876"/>
<path d="M140.261 111.592L140.292 110.411L145.928 110.557L145.889 113.077L145.54 113.093C143.988 113.147 137.645 113.263 136.615 112.932C135.466 112.562 140.261 111.592 140.261 111.592Z" fill="#E8505B"/>
<g opacity="0.4">
<path d="M137.916 112.149C137.916 112.149 136.234 112.593 136.437 112.87C136.64 113.147 143.054 113.269 145.888 113.077L145.882 112.953L138.399 112.874C138.399 112.874 138.243 112.169 137.916 112.149Z" fill="white"/>
</g>
<path d="M145.97 112.951C145.97 112.954 145.937 112.957 145.874 112.96C145.79 112.963 145.699 112.967 145.596 112.971C145.318 112.978 144.977 112.986 144.574 112.995C143.711 113.009 142.518 113.013 141.202 112.989C139.884 112.965 138.693 112.918 137.831 112.872C137.428 112.848 137.088 112.827 136.81 112.81C136.707 112.802 136.616 112.795 136.533 112.789C136.47 112.783 136.437 112.779 136.437 112.777C136.437 112.774 136.47 112.774 136.534 112.775C136.617 112.778 136.708 112.781 136.811 112.784C137.089 112.795 137.43 112.808 137.832 112.824C138.694 112.858 139.886 112.897 141.203 112.922C142.519 112.946 143.711 112.949 144.573 112.947C144.976 112.946 145.317 112.945 145.595 112.944C145.698 112.945 145.79 112.945 145.873 112.946C145.937 112.947 145.97 112.949 145.97 112.951Z" fill="#263238"/>
<path d="M138.399 112.96C138.378 112.963 138.367 112.721 138.218 112.475C138.073 112.226 137.865 112.098 137.877 112.081C137.881 112.065 138.12 112.174 138.276 112.44C138.435 112.705 138.416 112.965 138.399 112.96Z" fill="#263238"/>
<path d="M140.072 112.16C140.056 112.17 139.978 112.072 139.899 111.943C139.82 111.814 139.768 111.701 139.784 111.692C139.8 111.682 139.878 111.779 139.957 111.908C140.037 112.038 140.088 112.15 140.072 112.16Z" fill="#263238"/>
<path d="M140.533 111.93C140.52 111.944 140.432 111.884 140.337 111.796C140.242 111.708 140.175 111.625 140.188 111.612C140.201 111.598 140.288 111.658 140.384 111.746C140.478 111.834 140.545 111.917 140.533 111.93Z" fill="#263238"/>
<path d="M140.83 111.411C140.83 111.43 140.698 111.444 140.536 111.443C140.374 111.441 140.243 111.425 140.243 111.407C140.243 111.388 140.375 111.374 140.537 111.375C140.699 111.376 140.83 111.392 140.83 111.411Z" fill="#263238"/>
<path d="M140.936 111.044C140.942 111.06 140.797 111.121 140.607 111.131C140.416 111.143 140.266 111.098 140.27 111.081C140.273 111.061 140.422 111.075 140.603 111.064C140.784 111.055 140.93 111.025 140.936 111.044Z" fill="#263238"/>
<path d="M139.891 111.671C139.891 111.679 139.752 111.693 139.53 111.662C139.419 111.647 139.288 111.618 139.147 111.571C139.077 111.545 139.004 111.525 138.929 111.477C138.894 111.453 138.854 111.419 138.842 111.365C138.828 111.311 138.858 111.251 138.899 111.223C139.247 111.053 139.589 111.251 139.714 111.43C139.783 111.522 139.813 111.61 139.827 111.671C139.84 111.732 139.838 111.767 139.834 111.767C139.822 111.772 139.813 111.626 139.676 111.46C139.608 111.378 139.505 111.298 139.371 111.256C139.245 111.216 139.063 111.202 138.941 111.277C138.883 111.317 138.904 111.385 138.967 111.423C139.025 111.462 139.102 111.487 139.168 111.513C139.304 111.562 139.43 111.595 139.538 111.616C139.753 111.657 139.891 111.66 139.891 111.671Z" fill="#263238"/>
<path d="M139.797 111.687C139.792 111.691 139.74 111.599 139.76 111.438C139.771 111.36 139.802 111.267 139.864 111.179C139.929 111.101 140.013 110.993 140.168 111.003C140.252 111.015 140.29 111.11 140.276 111.17C140.268 111.232 140.239 111.285 140.211 111.328C140.156 111.416 140.094 111.487 140.037 111.541C139.921 111.648 139.831 111.688 139.827 111.682C139.821 111.673 139.9 111.619 140.002 111.508C140.053 111.452 140.108 111.381 140.158 111.296C140.209 111.222 140.245 111.087 140.155 111.069C140.065 111.058 139.971 111.146 139.914 111.216C139.856 111.292 139.823 111.375 139.807 111.446C139.777 111.591 139.809 111.685 139.797 111.687Z" fill="#263238"/>
<path d="M145.885 111.429C145.883 111.441 145.724 111.41 145.47 111.435C145.218 111.458 144.866 111.554 144.557 111.787C144.248 112.021 144.064 112.333 143.976 112.568C143.885 112.804 143.874 112.964 143.861 112.962C143.857 112.962 143.856 112.922 143.863 112.85C143.871 112.779 143.89 112.675 143.93 112.552C144.009 112.306 144.194 111.978 144.516 111.734C144.838 111.49 145.206 111.399 145.466 111.388C145.597 111.381 145.703 111.389 145.775 111.401C145.847 111.413 145.886 111.425 145.885 111.429Z" fill="#263238"/>
<path d="M143.156 112.438C143.158 112.456 142.791 112.508 142.335 112.504C141.878 112.5 141.512 112.44 141.514 112.423C141.516 112.403 141.883 112.432 142.335 112.436C142.787 112.441 143.154 112.419 143.156 112.438Z" fill="#263238"/>
<path d="M144.257 112.458C144.27 112.472 144.225 112.534 144.186 112.617C144.146 112.699 144.125 112.773 144.105 112.771C144.087 112.77 144.078 112.683 144.124 112.587C144.17 112.492 144.245 112.444 144.257 112.458Z" fill="#263238"/>
<path d="M144.682 111.955C144.695 111.968 144.658 112.025 144.599 112.083C144.539 112.14 144.481 112.175 144.468 112.162C144.455 112.149 144.492 112.091 144.551 112.034C144.61 111.977 144.669 111.941 144.682 111.955Z" fill="#263238"/>
<path d="M145.28 111.732C145.276 111.751 145.201 111.749 145.119 111.776C145.035 111.801 144.975 111.846 144.961 111.833C144.946 111.822 144.995 111.744 145.098 111.712C145.201 111.679 145.286 111.715 145.28 111.732Z" fill="#263238"/>
<path d="M145.705 111.63C145.711 111.648 145.678 111.676 145.631 111.693C145.584 111.71 145.541 111.709 145.535 111.692C145.528 111.674 145.561 111.647 145.608 111.63C145.655 111.613 145.698 111.613 145.705 111.63Z" fill="#263238"/>
<path d="M147.843 111.592L147.874 110.411L153.51 110.557L153.471 113.077L153.122 113.093C151.57 113.147 145.227 113.263 144.197 112.932C143.048 112.562 147.843 111.592 147.843 111.592Z" fill="#E8505B"/>
<g opacity="0.4">
<path d="M145.499 112.149C145.499 112.149 143.816 112.593 144.02 112.87C144.223 113.147 150.637 113.269 153.471 113.077L153.465 112.953L145.982 112.874C145.982 112.874 145.826 112.169 145.499 112.149Z" fill="white"/>
</g>
<path d="M153.553 112.951C153.553 112.954 153.52 112.957 153.457 112.96C153.373 112.963 153.282 112.967 153.179 112.971C152.901 112.978 152.56 112.986 152.157 112.995C151.294 113.009 150.101 113.013 148.784 112.989C147.467 112.965 146.275 112.918 145.413 112.872C145.011 112.848 144.67 112.827 144.393 112.81C144.29 112.802 144.199 112.795 144.116 112.789C144.052 112.783 144.019 112.779 144.019 112.777C144.019 112.774 144.053 112.774 144.116 112.775C144.2 112.778 144.291 112.781 144.394 112.784C144.672 112.795 145.013 112.808 145.415 112.824C146.277 112.858 147.469 112.897 148.785 112.922C150.101 112.946 151.293 112.949 152.156 112.947C152.559 112.946 152.9 112.945 153.178 112.944C153.281 112.945 153.372 112.945 153.456 112.946C153.52 112.947 153.553 112.949 153.553 112.951Z" fill="#263238"/>
<path d="M145.982 112.96C145.961 112.963 145.95 112.721 145.8 112.475C145.655 112.226 145.448 112.098 145.46 112.081C145.464 112.065 145.703 112.174 145.859 112.44C146.019 112.705 145.999 112.965 145.982 112.96Z" fill="#263238"/>
<path d="M147.655 112.16C147.638 112.17 147.561 112.072 147.482 111.943C147.402 111.814 147.351 111.701 147.367 111.692C147.383 111.682 147.461 111.779 147.54 111.908C147.619 112.038 147.671 112.15 147.655 112.16Z" fill="#263238"/>
<path d="M148.115 111.93C148.102 111.944 148.014 111.884 147.919 111.796C147.824 111.708 147.757 111.625 147.77 111.612C147.783 111.598 147.871 111.658 147.966 111.746C148.061 111.834 148.128 111.917 148.115 111.93Z" fill="#263238"/>
<path d="M148.412 111.411C148.412 111.43 148.28 111.444 148.118 111.443C147.956 111.441 147.824 111.425 147.824 111.407C147.824 111.388 147.956 111.374 148.118 111.375C148.281 111.376 148.412 111.392 148.412 111.411Z" fill="#263238"/>
<path d="M148.518 111.044C148.525 111.06 148.38 111.121 148.19 111.131C147.999 111.143 147.849 111.098 147.853 111.081C147.856 111.061 148.005 111.075 148.186 111.064C148.367 111.055 148.513 111.025 148.518 111.044Z" fill="#263238"/>
<path d="M147.474 111.671C147.474 111.679 147.335 111.693 147.113 111.662C147.002 111.647 146.871 111.618 146.73 111.571C146.66 111.545 146.587 111.525 146.512 111.477C146.477 111.453 146.438 111.419 146.425 111.365C146.411 111.311 146.441 111.251 146.482 111.223C146.831 111.053 147.173 111.251 147.297 111.43C147.366 111.522 147.397 111.61 147.41 111.671C147.424 111.732 147.422 111.767 147.418 111.767C147.405 111.772 147.396 111.626 147.259 111.46C147.192 111.378 147.089 111.298 146.955 111.256C146.828 111.216 146.647 111.202 146.524 111.277C146.466 111.317 146.487 111.385 146.55 111.423C146.609 111.462 146.685 111.487 146.751 111.513C146.887 111.562 147.014 111.595 147.121 111.616C147.336 111.657 147.474 111.66 147.474 111.671Z" fill="#263238"/>
<path d="M147.38 111.687C147.375 111.691 147.324 111.599 147.344 111.438C147.354 111.36 147.385 111.267 147.447 111.179C147.512 111.101 147.597 110.993 147.751 111.003C147.835 111.015 147.874 111.11 147.859 111.17C147.852 111.232 147.822 111.285 147.795 111.328C147.739 111.416 147.677 111.487 147.62 111.541C147.505 111.648 147.415 111.688 147.411 111.682C147.404 111.673 147.484 111.619 147.586 111.508C147.636 111.452 147.691 111.381 147.741 111.296C147.792 111.222 147.828 111.087 147.738 111.069C147.648 111.058 147.554 111.146 147.497 111.216C147.439 111.292 147.406 111.375 147.391 111.446C147.36 111.591 147.392 111.685 147.38 111.687Z" fill="#263238"/>
<path d="M153.468 111.429C153.466 111.441 153.307 111.41 153.052 111.435C152.8 111.458 152.449 111.554 152.14 111.787C151.831 112.021 151.646 112.333 151.558 112.568C151.468 112.804 151.457 112.964 151.444 112.962C151.44 112.962 151.439 112.922 151.446 112.85C151.454 112.779 151.473 112.675 151.513 112.552C151.591 112.306 151.777 111.978 152.098 111.734C152.42 111.49 152.789 111.399 153.049 111.388C153.18 111.381 153.286 111.389 153.358 111.401C153.429 111.413 153.468 111.425 153.468 111.429Z" fill="#263238"/>
<path d="M150.738 112.438C150.741 112.456 150.373 112.508 149.917 112.504C149.46 112.5 149.094 112.44 149.096 112.423C149.099 112.403 149.465 112.432 149.917 112.436C150.37 112.441 150.737 112.419 150.738 112.438Z" fill="#263238"/>
<path d="M151.839 112.458C151.853 112.472 151.808 112.534 151.769 112.617C151.728 112.699 151.708 112.773 151.688 112.771C151.67 112.77 151.661 112.683 151.707 112.587C151.753 112.492 151.828 112.444 151.839 112.458Z" fill="#263238"/>
<path d="M152.264 111.955C152.277 111.968 152.24 112.025 152.181 112.083C152.122 112.14 152.063 112.175 152.05 112.162C152.037 112.149 152.074 112.091 152.133 112.034C152.192 111.977 152.251 111.941 152.264 111.955Z" fill="#263238"/>
<path d="M152.863 111.732C152.858 111.751 152.784 111.749 152.701 111.776C152.617 111.801 152.557 111.846 152.543 111.833C152.528 111.822 152.577 111.744 152.68 111.712C152.783 111.679 152.869 111.715 152.863 111.732Z" fill="#263238"/>
<path d="M153.287 111.63C153.294 111.648 153.261 111.676 153.214 111.693C153.167 111.71 153.124 111.709 153.117 111.692C153.111 111.674 153.144 111.647 153.191 111.63C153.238 111.613 153.281 111.613 153.287 111.63Z" fill="#263238"/>
<path d="M140.53 16.3308L140.528 17.2166L140.586 30.4777C140.593 32.0172 139.261 33.2489 137.594 33.2435C135.912 33.238 134.522 31.9739 134.489 30.4189C134.455 28.7868 134.389 27.069 134.389 27.069C134.389 27.069 132.257 26.7573 131.767 24.0215C131.524 22.6611 131.553 20.4228 131.636 18.5921C131.712 16.9443 133.157 15.6901 134.818 15.8345L140.53 16.3308Z" fill="#B78876"/>
<path d="M132.288 20.2616C132.285 20.4474 132.441 20.6036 132.637 20.6105C132.833 20.6175 132.995 20.4728 132.998 20.287C133.002 20.1012 132.845 19.9447 132.649 19.9378C132.453 19.9308 132.291 20.0758 132.288 20.2616Z" fill="#263238"/>
<path d="M132.148 19.7479C132.193 19.793 132.459 19.5911 132.842 19.5854C133.224 19.5742 133.508 19.764 133.549 19.717C133.569 19.6962 133.523 19.6141 133.399 19.5282C133.277 19.4426 133.07 19.3608 132.832 19.366C132.593 19.3714 132.394 19.4619 132.281 19.5527C132.165 19.6441 132.126 19.7276 132.148 19.7479Z" fill="#263238"/>
<path d="M135.914 20.1975C135.911 20.3834 136.068 20.5395 136.264 20.5465C136.459 20.5534 136.621 20.4088 136.625 20.223C136.628 20.0371 136.471 19.8807 136.276 19.8737C136.08 19.8668 135.918 20.0117 135.914 20.1975Z" fill="#263238"/>
<path d="M135.911 19.752C135.956 19.7971 136.222 19.5952 136.605 19.5895C136.987 19.5783 137.271 19.768 137.312 19.7211C137.332 19.7002 137.286 19.6182 137.161 19.5323C137.04 19.4466 136.832 19.3649 136.594 19.3701C136.356 19.3755 136.157 19.466 136.043 19.5568C135.928 19.6482 135.889 19.7317 135.911 19.752Z" fill="#263238"/>
<path d="M134.573 22.5845C134.575 22.563 134.336 22.5264 133.949 22.4846C133.851 22.4765 133.759 22.4589 133.741 22.3929C133.717 22.3236 133.756 22.2186 133.801 22.1051C133.889 21.8694 133.981 21.6227 134.077 21.364C134.459 20.3087 134.734 19.4416 134.691 19.4268C134.648 19.412 134.303 20.2551 133.921 21.3104C133.829 21.5707 133.741 21.8185 133.657 22.0558C133.622 22.1663 133.561 22.2922 133.613 22.4362C133.641 22.5079 133.714 22.5591 133.777 22.5748C133.84 22.5927 133.895 22.5927 133.943 22.5948C134.331 22.6084 134.572 22.606 134.573 22.5845Z" fill="#263238"/>
<path d="M134.389 27.0694C134.389 27.0694 136.257 27.1557 138.085 26.0241C138.085 26.0241 137.218 27.9247 134.438 27.7168L134.389 27.0694Z" fill="#AA6550"/>
<path d="M134.75 23.4936C134.884 23.3111 135.124 23.2082 135.364 23.2293C135.53 23.2442 135.699 23.3204 135.803 23.4524C135.906 23.5843 135.93 23.7741 135.841 23.903C135.741 24.0486 135.525 24.0855 135.342 24.0374C135.158 23.9893 134.999 23.8731 134.847 23.7572C134.805 23.7251 134.763 23.6915 134.736 23.647C134.709 23.6025 134.703 23.5438 134.734 23.506" fill="#AA6550"/>
<path d="M135.704 22.8265C135.641 22.8241 135.648 23.2351 135.298 23.5329C134.948 23.8319 134.505 23.7935 134.502 23.851C134.497 23.8767 134.602 23.9291 134.789 23.9309C134.973 23.9339 135.239 23.8709 135.453 23.6888C135.667 23.506 135.756 23.2657 135.767 23.0968C135.78 22.9246 135.732 22.8235 135.704 22.8265Z" fill="#263238"/>
<path d="M141.224 28.8996C140.401 28.6324 139.428 28.364 139.105 27.5674C138.784 26.7709 138.778 25.869 139.001 25.0401C139.104 24.6563 139.251 24.236 139.075 23.8792C138.947 23.6201 138.679 23.4652 138.459 23.2757C137.965 22.8493 137.696 22.2059 137.641 21.5594C137.586 20.9133 137.73 20.2635 137.959 19.6558C138.084 19.3214 138.237 18.9546 138.109 18.6211C138.019 18.3851 137.807 18.2204 137.617 18.0516C137.217 17.6944 136.881 17.2659 136.631 16.7929C136.455 16.4576 136.321 16.052 136.48 15.7079C136.672 15.2927 137.195 15.1544 137.654 15.1114C138.75 15.0094 139.969 15.2279 140.682 16.0572C141.322 16.801 141.413 17.8503 141.475 18.8251C141.67 21.896 141.863 24.9962 141.381 28.0359" fill="#263238"/>
<path d="M130.543 16.2008C130.681 16.3143 130.873 16.3531 131.021 16.4472C131.171 16.5389 131.28 16.6548 131.428 16.7849C131.5 16.8515 131.58 16.9263 131.65 17.0037C131.669 17.0234 131.681 17.0422 131.702 17.0634L131.781 17.1396C131.845 17.1974 131.911 17.2564 131.977 17.317C132.127 17.4462 132.315 17.6036 132.58 17.7697C132.837 17.9328 133.196 18.1102 133.619 18.197C134.457 18.3662 135.185 18.1713 135.718 17.9062C136.267 17.6293 136.616 17.2803 136.855 16.9695C137.317 16.3388 137.38 15.8337 137.158 15.5638C136.93 15.2857 136.39 15.3423 135.78 15.5017C135.478 15.575 135.155 15.6627 134.876 15.6954C134.587 15.7354 134.322 15.7269 134.154 15.6885C134.078 15.6733 133.977 15.6449 133.816 15.5759C133.661 15.5105 133.464 15.4112 133.238 15.3108C133.126 15.2608 133.006 15.21 132.879 15.1637C132.817 15.1404 132.749 15.1183 132.684 15.0977C132.614 15.0762 132.536 15.052 132.463 15.036C132.169 14.9679 131.891 14.9543 131.632 14.9833C131.113 15.0357 130.673 15.3017 130.507 15.5886C130.336 15.8767 130.41 16.0946 130.543 16.2008Z" fill="#263238"/>
<path d="M135.786 18.2699C135.825 18.3722 136.206 18.3165 136.656 18.3622C137.107 18.3988 137.471 18.5226 137.529 18.4291C137.555 18.3843 137.49 18.2887 137.342 18.1915C137.195 18.0947 136.962 18.0042 136.692 17.9791C136.422 17.9546 136.176 18.0015 136.014 18.0702C135.85 18.1389 135.768 18.2212 135.786 18.2699Z" fill="#263238"/>
<path d="M132.269 18.6489C132.338 18.7336 132.6 18.6398 132.917 18.6301C133.233 18.6093 133.503 18.6777 133.564 18.5866C133.59 18.5424 133.546 18.457 133.427 18.3777C133.31 18.2988 133.116 18.2358 132.898 18.2461C132.68 18.2567 132.493 18.3381 132.384 18.428C132.274 18.5182 132.239 18.6074 132.269 18.6489Z" fill="#263238"/>
<path d="M141.082 15.766C141.883 15.8877 142.747 15.7899 143.415 15.3366C144.083 14.8832 144.5 14.0283 144.289 13.2547C144.14 12.7124 143.718 12.2814 143.251 11.9616C142.83 11.6731 142.334 11.4498 141.823 11.4837C141.156 11.5279 140.583 12.0097 140.252 12.5844C139.86 13.2647 139.754 14.1254 140.072 14.8427C140.39 15.5596 141.167 16.0829 141.955 16.013" fill="#263238"/>
<path d="M142.072 15.875C142.074 15.8938 141.94 15.9313 141.717 15.9253C141.495 15.9201 141.185 15.8572 140.881 15.6992C140.578 15.5403 140.351 15.3224 140.221 15.1439C140.09 14.965 140.046 14.8343 140.063 14.8255C140.103 14.7983 140.381 15.2667 140.956 15.56C141.524 15.8645 142.072 15.8272 142.072 15.875Z" fill="#E8505B"/>
<path d="M138.297 14.983C139.462 14.6873 140.755 14.9303 141.73 15.6279C142.704 16.3255 143.342 17.4643 143.423 18.6519C143.521 20.0761 142.87 21.5675 143.398 22.8958C143.876 24.0954 145.212 24.8363 145.574 26.0747C145.937 27.314 145.206 28.648 145.454 29.9149C145.66 30.9657 146.518 31.843 146.557 32.9125C146.586 33.706 146.132 34.4684 145.494 34.9496C144.855 35.4308 144.053 35.659 143.254 35.7428C142.426 35.83 141.53 35.7531 140.863 35.2586C139.971 34.5976 139.724 33.3958 139.594 32.3012C139.205 29.0584 139.255 25.7648 139.74 22.535" fill="#263238"/>
<path d="M76.0269 76.8339C76.8426 76.7742 77.5485 77.0076 78.2307 77.3424C78.5352 77.4922 78.8936 77.6008 79.2304 77.6008L80.1231 77.5794V65.6437C80.1231 64.6553 79.3589 63.855 78.4158 63.855H67.3447V63.0695C67.3447 62.7043 67.4336 62.3474 67.5853 62.0179C67.9833 61.1555 68.1463 60.1534 67.9748 59.0958C67.6346 56.9973 65.9623 55.4401 63.9527 55.128C59.099 54.3736 58.8228 57.0814 58.8228 59.9284C58.8228 60.6207 58.9632 61.2778 59.2145 61.8723C59.3441 62.1802 59.4194 62.5097 59.4194 62.8463V63.8544H48.6229C47.6798 63.8544 46.9156 64.6553 46.9156 65.6431V97.1128C46.9156 97.9173 47.5383 98.5697 48.3059 98.5697H78.7328C79.5004 98.5697 80.1231 97.9173 80.1231 97.1128V85.74H78.8913C78.6066 85.74 78.3258 85.7991 78.0614 85.9107C77.531 86.1357 76.9524 86.2616 76.345 86.2616C73.7365 86.2616 71.634 83.9912 71.7387 81.2338C71.8316 78.8041 73.7121 77.0034 76.0269 76.8339Z" fill="#E8505B"/>
<g opacity="0.3">
<path d="M76.0269 76.834C76.8426 76.7743 77.5485 77.0077 78.2307 77.3425C78.5352 77.4923 78.8936 77.601 79.2304 77.601L80.1231 77.5795V65.6438C80.1231 64.6555 79.3589 63.8551 78.4158 63.8551H67.3447V63.0697C67.3447 62.7044 67.4336 62.3475 67.5853 62.018C67.9833 61.1556 68.1463 60.1535 67.9748 59.0959C67.6346 56.9974 65.8768 55.3495 63.8576 55.1138C58.4152 54.4787 58.8228 57.0816 58.8228 59.9285C58.8228 60.6208 58.9632 61.2779 59.2145 61.8724C59.3441 62.1804 59.4194 62.5098 59.4194 62.8464V63.8545H48.6229C47.6798 63.8545 46.9156 64.6555 46.9156 65.6432V97.1129C46.9156 97.9175 47.5383 98.5698 48.3059 98.5698H78.7328C79.5004 98.5698 80.1231 97.9175 80.1231 97.1129V85.7401H78.8913C78.6066 85.7401 78.3258 85.7992 78.0614 85.9108C77.531 86.1358 76.9524 86.2617 76.345 86.2617C73.7365 86.2617 71.634 83.9914 71.7387 81.2339C71.8316 78.8042 73.7121 77.0035 76.0269 76.834Z" fill="black"/>
</g>
<path d="M74.1119 76.8339C74.9276 76.7742 75.6335 77.0076 76.3151 77.3424C76.6196 77.4922 76.9786 77.6008 77.3148 77.6008L78.2075 77.5794V65.6437C78.2075 64.6553 77.4433 63.855 76.5002 63.855H65.4291V63.0695C65.4291 62.7043 65.518 62.3474 65.6697 62.0179C66.0677 61.1555 66.2307 60.1534 66.0592 59.0958C65.719 56.9973 64.0564 55.3595 62.0371 55.128C59.2582 54.8092 56.9072 57.0814 56.9072 59.9284C56.9072 60.6207 57.0476 61.2778 57.2989 61.8723C57.4286 62.1802 57.5039 62.5097 57.5039 62.8463V63.8544H46.7073C45.7642 63.8544 45 64.6553 45 65.6431V97.1128C45 97.9173 45.6227 98.5697 46.3903 98.5697H76.8172C77.5848 98.5697 78.2075 97.9173 78.2075 97.1128V85.74H76.9757C76.691 85.74 76.4102 85.7991 76.1458 85.9107C75.6154 86.1357 75.0369 86.2616 74.4294 86.2616C71.8209 86.2616 69.7184 83.9912 69.8231 81.2338C69.916 78.8041 71.7965 77.0034 74.1119 76.8339Z" fill="#E8505B"/>
<path d="M81.4187 85.8157V97.1986C81.4187 98.193 82.1829 98.9987 83.126 98.9987H113.158C113.926 98.9987 114.548 98.3422 114.548 97.5329V65.4532C114.548 64.6439 113.926 63.9874 113.158 63.9874H102.305V65.2861C102.305 65.5863 102.361 65.883 102.468 66.1611C102.682 66.7203 102.802 67.3303 102.802 67.9707C102.802 70.721 100.636 72.9376 98.004 72.8266C95.6853 72.7293 93.7555 70.7538 93.5942 68.3127C93.537 67.4527 93.6972 66.6392 94.017 65.9206C94.1603 65.5995 94.2423 65.2527 94.2423 64.8982V63.988H83.1254C82.1823 63.988 81.4181 64.7937 81.4181 65.7881V77.4605V85.8157H81.4187Z" fill="#263238"/>
<path d="M90.3364 68.3131C90.2792 67.4531 90.4394 66.6396 90.7593 65.921C90.9025 65.5999 90.9846 65.2531 90.9846 64.8986V63.9884H79.8677C78.9246 63.9884 78.1603 64.7942 78.1603 65.7885V77.4609H77.4108C77.0621 77.4609 76.7213 77.3672 76.4077 77.2073C75.5852 76.7877 74.6279 76.6158 73.6191 76.7967C71.6163 77.1554 70.0539 78.9083 69.8326 81.0372C69.5286 83.9671 71.6967 86.4458 74.4139 86.4458C75.0746 86.4458 75.7018 86.2978 76.269 86.0328C76.5628 85.8961 76.8776 85.8167 77.1985 85.8167H78.1603V97.1997C78.1603 98.194 78.9246 98.9998 79.8677 98.9998H109.9C110.668 98.9998 111.29 98.3432 111.29 97.5339V65.4543C111.29 64.645 110.668 63.9884 109.9 63.9884H99.0469V65.2872C99.0469 65.5874 99.1035 65.884 99.2099 66.1621C99.4245 66.7214 99.5445 67.3313 99.5445 67.9718C99.5445 70.722 97.378 72.9387 94.7463 72.8277C92.427 72.7292 90.4978 70.7536 90.3364 68.3131Z" fill="#455A64"/>
<path d="M170.981 113.26C170.981 113.295 135.84 113.324 92.4997 113.324C49.1452 113.324 14.0108 113.295 14.0108 113.26C14.0108 113.224 49.145 113.195 92.4997 113.195C135.839 113.195 170.981 113.224 170.981 113.26Z" fill="#263238"/>
<path d="M167.187 106.764C167.937 106.381 168.82 106.331 169.653 106.467C170.101 106.541 170.567 106.673 170.872 107.006C171.176 107.338 171.234 107.923 170.884 108.209C170.676 108.379 170.386 108.405 170.116 108.402C169.464 108.395 168.741 108.281 168.22 108.669C167.922 108.891 167.725 109.259 167.369 109.368C167.022 109.474 166.629 109.271 166.445 108.961C166.261 108.65 166.255 108.262 166.341 107.913C166.341 107.913 166.431 107.15 167.187 106.764Z" fill="#E8505B"/>
<path d="M165.468 103.481C165.927 104.13 166.818 103.915 167.232 103.519C167.645 103.124 167.82 102.55 167.979 102.003C168.342 100.754 168.708 99.4431 168.438 98.1706C168.358 97.7901 168.214 97.4107 167.943 97.1285C167.673 96.8463 167.258 96.6784 166.878 96.7778C166.428 96.8954 166.149 97.3309 165.947 97.7453C165.353 98.9634 165.039 100.314 165.034 101.666C165.033 102.298 165.108 102.96 165.468 103.481Z" fill="#E8505B"/>
<path d="M164.208 104.411C164.706 103.827 164.801 102.974 164.579 102.241C164.358 101.508 163.857 100.885 163.28 100.376C162.603 99.7793 161.808 99.3151 160.953 99.0177C160.616 98.9007 160.261 98.8084 159.906 98.8419C159.551 98.8754 159.194 99.0549 159.028 99.3677C158.783 99.8297 159.018 100.39 159.272 100.847C159.72 101.653 160.231 102.424 160.8 103.15C161.259 103.734 161.783 104.311 162.481 104.575C163.179 104.839 163.905 104.808 164.275 104.329" fill="#E8505B"/>
<path d="M165.437 113.26C165.445 113.26 165.459 113.155 165.478 112.965C165.499 112.751 165.526 112.481 165.557 112.161C165.595 111.823 165.645 111.42 165.74 110.982C165.835 110.545 165.983 110.071 166.173 109.59C166.37 109.113 166.611 108.679 166.891 108.331C167.17 107.983 167.494 107.73 167.8 107.584C168.103 107.436 168.376 107.376 168.564 107.349C168.754 107.329 168.861 107.315 168.861 107.306C168.861 107.298 168.754 107.297 168.559 107.302C168.366 107.315 168.082 107.363 167.762 107.507C167.441 107.648 167.097 107.904 166.804 108.26C166.509 108.615 166.26 109.059 166.06 109.545C165.866 110.034 165.72 110.513 165.63 110.959C165.539 111.405 165.498 111.812 165.471 112.154C165.445 112.495 165.435 112.771 165.431 112.962C165.426 113.153 165.428 113.259 165.437 113.26Z" fill="#263238"/>
<path d="M165.493 112.641C165.497 112.641 165.5 112.594 165.501 112.504C165.501 112.402 165.5 112.272 165.5 112.114C165.499 111.774 165.499 111.284 165.517 110.677C165.548 109.465 165.653 108.161 165.857 106.321C166.05 104.592 166.309 102.579 166.582 101.27C166.641 100.972 166.7 100.705 166.755 100.47C166.808 100.235 166.854 100.032 166.897 99.8684C166.935 99.7141 166.965 99.5884 166.99 99.4885C167.009 99.4012 167.018 99.3548 167.014 99.3535C167.01 99.3523 166.993 99.3964 166.966 99.4818C166.936 99.5802 166.898 99.704 166.851 99.8562C166.8 100.019 166.748 100.22 166.689 100.454C166.627 100.688 166.561 100.955 166.497 101.252C166.227 102.438 165.941 104.095 165.735 105.939C165.53 107.782 165.438 109.461 165.43 110.676C165.423 111.284 165.436 111.776 165.452 112.115C165.462 112.274 165.47 112.403 165.476 112.505C165.483 112.595 165.489 112.641 165.493 112.641Z" fill="#263238"/>
<path d="M165.501 109.404C165.509 109.404 165.508 109.259 165.498 108.996C165.483 108.734 165.446 108.354 165.372 107.89C165.292 107.426 165.182 106.876 165.008 106.278C164.933 106.005 164.755 105.35 164.327 104.371C163.762 103.045 162.994 101.961 162.326 101.29C162.17 101.111 161.995 100.983 161.856 100.857C161.784 100.796 161.72 100.736 161.655 100.689C161.59 100.644 161.529 100.602 161.472 100.564C161.253 100.415 161.13 100.337 161.125 100.344C161.105 100.371 161.617 100.669 162.264 101.349C162.908 102.028 163.654 103.105 164.214 104.42C164.527 105.133 164.745 105.769 164.899 106.309C165.078 106.902 165.197 107.446 165.286 107.905C165.372 108.365 165.421 108.74 165.451 109C165.475 109.26 165.493 109.405 165.501 109.404Z" fill="#263238"/>
</svg>
