<svg xmlns="http://www.w3.org/2000/svg" width="15" height="18" viewBox="0 0 13 18" fill="none">
  <path d="M8.20384 10.0151C8.47512 9.78949 8.87097 9.83521 9.08799 10.1172C9.30501 10.3992 9.26103 10.8106 8.98975 11.0362L6.89805 12.7756C6.79012 12.8674 6.6523 12.9226 6.50208 12.9231L6.50005 12.9231L6.49474 12.9231C6.34709 12.9218 6.21156 12.8676 6.10483 12.7779L4.01029 11.0362C3.73902 10.8106 3.69503 10.3992 3.91206 10.1172C4.12908 9.83521 4.52492 9.78949 4.7962 10.0151L5.87101 10.9088V7.91026C5.87101 7.54915 6.15264 7.25641 6.50005 7.25641C6.84745 7.25641 7.12908 7.54915 7.12908 7.91026V10.9088L8.20384 10.0151Z" fill="#3A312A"/>
  <path fill-rule="evenodd" clip-rule="evenodd" d="M2.30645 0.5C1.03263 0.5 0 1.57337 0 2.89744V15.1026C0 16.4266 1.03263 17.5 2.30645 17.5H10.6935C11.9674 17.5 13 16.4266 13 15.1026V5.68535C13 5.36617 12.9037 5.05502 12.7246 4.79572L10.1975 1.13602C9.92177 0.736756 9.47791 0.5 9.00509 0.5H2.30645ZM1.25806 2.89744C1.25806 2.29559 1.72744 1.80769 2.30645 1.80769H8.3871V5.64101C8.3871 6.00212 8.66872 6.29486 9.01613 6.29486H11.7419V15.1026C11.7419 15.7044 11.2726 16.1923 10.6935 16.1923H2.30645C1.72744 16.1923 1.25806 15.7044 1.25806 15.1026V2.89744Z" fill="#3A312A"/>
</svg>