<svg width="39" height="40" viewBox="0 0 39 40" fill="none" xmlns="http://www.w3.org/2000/svg">
<g id="survey-line">
<path id="Vector" d="M27.4167 3.33325V6.66659H32.1771C33.0457 6.66659 33.75 7.40817 33.75 8.32225V35.0109C33.75 35.9253 33.0456 36.6666 32.1771 36.6666H6.82288C5.9542 36.6666 5.25 35.9251 5.25 35.0109V8.32225C5.25 7.40785 5.9545 6.66659 6.82288 6.66659H11.5833V3.33325H27.4167ZM11.5833 9.99992H8.41667V33.3333H30.5833V9.99992H27.4167V13.3333H11.5833V9.99992ZM14.75 26.6666V29.9999H11.5833V26.6666H14.75ZM14.75 21.6666V24.9999H11.5833V21.6666H14.75ZM14.75 16.6666V19.9999H11.5833V16.6666H14.75ZM24.25 6.66659H14.75V9.99992H24.25V6.66659Z" fill="#222427"/>
</g>
</svg>
