<svg xmlns="http://www.w3.org/2000/svg" width="94" height="98" viewBox="0 0 94 98" fill="none">
  <path d="M89.9997 68.6007H3.41247C1.70392 68.6007 0.320068 67.1385 0.320068 65.3333V6.51852C0.320068 4.71324 1.70392 3.25104 3.41247 3.25104H89.9997C91.7082 3.25104 93.0921 4.71324 93.0921 6.51852V65.3333C93.0921 67.1385 91.7082 68.6007 89.9997 68.6007Z" fill="url(#paint0_linear_352_701)"/>
  <path opacity="0.3" d="M89.9997 68.6007H3.41247C1.70392 68.6007 0.320068 67.1385 0.320068 65.3333V6.51852C0.320068 4.71324 1.70392 3.25104 3.41247 3.25104H89.9997C91.7082 3.25104 93.0921 4.71324 93.0921 6.51852V65.3333C93.0921 67.1385 91.7082 68.6007 89.9997 68.6007Z" fill="url(#paint1_linear_352_701)"/>
  <path opacity="0.3" d="M90.0154 68.6007H3.42822C1.71966 68.6007 0.335815 67.1385 0.335815 65.3333V6.51852C0.335815 4.71324 1.71966 3.25104 3.42822 3.25104H90.0154C91.724 3.25104 93.1078 4.71324 93.1078 6.51852V65.3333C93.1078 67.1385 91.7162 68.6007 90.0154 68.6007Z" fill="url(#paint2_linear_352_701)"/>
  <path d="M6.50488 9.78607H25.0593V13.0536H6.50488V9.78607Z" fill="#76FF03"/>
  <path d="M63.7135 9.78607H76.0831V13.0536H63.7135V9.78607Z" fill="#76FF03"/>
  <path d="M80.7227 9.78607H86.9075V13.0536H80.7227V9.78607Z" fill="#76FF03"/>
  <path d="M12.6891 19.5887H18.8739V22.8562H12.6891V19.5887Z" fill="#76FF03"/>
  <path d="M6.50488 29.391H18.8745V32.6585H6.50488V29.391Z" fill="#76FF03"/>
  <path d="M6.50488 39.1935H12.6897V42.461H6.50488V39.1935Z" fill="#76FF03"/>
  <path d="M72.9916 39.1935H82.2688V42.461H72.9916V39.1935Z" fill="#76FF03"/>
  <path d="M77.6294 29.391H86.9066V32.6585H77.6294V29.391Z" fill="#76FF03"/>
  <path d="M6.50488 48.9958H18.8745V52.2633H6.50488V48.9958Z" fill="#76FF03"/>
  <path d="M71.4452 48.9958H86.9072V52.2633H71.4452V48.9958Z" fill="#76FF03"/>
  <path d="M74.5372 19.5887H83.8144V22.8562H74.5372V19.5887Z" fill="#76FF03"/>
  <path d="M3.13403 97.992H13.0529C13.9188 97.9185 14.6068 97.0281 14.6068 95.9335V95.4026C14.6068 92.4782 13.3621 89.9214 11.499 88.5C11.499 88.6225 11.5067 88.7451 11.5067 88.8676C11.5067 92.2168 9.97597 94.9288 8.09734 94.9288C6.2187 94.9288 4.68796 92.2168 4.68796 88.8676C4.68796 88.7451 4.69569 88.6225 4.69569 88.5C2.83252 89.9295 1.58783 92.4782 1.58783 95.4026V95.9335C1.5801 97.0363 2.26816 97.9185 3.13403 97.992Z" fill="#26A69A"/>
  <path d="M8.08961 94.9368C15.0475 94.9368 11.499 92.2248 11.499 88.8756C11.499 88.7531 11.4912 88.6306 11.4912 88.508C10.5017 87.7483 9.3343 87.2991 8.08961 87.2991C6.84492 87.2991 5.67754 87.7483 4.68797 88.508C4.68024 88.6306 4.68024 88.7531 4.68024 88.8756C4.67251 92.2248 1.10078 94.9368 8.08961 94.9368Z" fill="#00796B"/>
  <path d="M18.8669 83.9579C18.7818 81.638 17.1429 76.8512 15.0014 76.4509C14.87 76.4264 14.754 76.361 14.6844 76.2467C14.3443 75.6994 13.2542 74.229 11.2596 75.389C10.5174 75.8219 10.2546 76.2058 10.3783 76.7613C10.2855 76.8757 10.1154 77.0145 9.86801 76.9083C9.06398 75.9608 8.07441 75.7647 6.92249 76.7123C5.61596 77.7906 5.61596 78.5584 5.84789 79.3181L5.84016 79.3263C5.84016 79.3263 5.78604 79.8573 5.40722 79.8164C5.01294 79.457 4.54135 79.457 3.79144 80.0288C1.78138 81.5645 2.6086 83.0185 2.94876 83.8763C2.90238 83.9579 2.82507 84.0151 2.70137 84.007C2.43852 83.8599 2.10608 83.8599 1.65768 84.1295C0.590807 84.7748 0.745427 86.8987 1.04694 87.593C1.37937 88.3527 3.21162 91.0157 3.83783 91.7672C3.98472 91.9388 4.16253 92.0613 4.3558 92.143C4.33261 92.1348 4.30942 92.1267 4.29396 92.1185C4.84286 92.4779 5.8015 92.9109 6.73695 92.2982C6.73695 92.2982 7.33224 91.8408 7.38636 91.3588C8.39912 91.9551 9.79843 90.8442 9.79843 90.8442C10.4556 90.3132 10.6256 89.7169 10.6025 89.2023C10.9349 89.4147 11.2982 89.4963 11.6461 89.5045C12.6976 89.5372 13.6639 88.8837 13.6639 88.8837C15.1715 87.977 15.473 87.0294 15.4652 86.4004C16.2461 86.915 17.2125 86.5311 17.2125 86.5311C18.921 85.7061 18.8669 83.9579 18.8669 83.9579Z" fill="url(#paint3_linear_352_701)"/>
  <path d="M80.6918 97.9917H90.6184C90.6184 97.9917 91.0513 89.9946 78.8982 89.6106C66.745 89.2349 80.6918 97.9917 80.6918 97.9917Z" fill="#26A69A"/>
  <path d="M74.1279 87.9118C74.2129 85.5919 75.8519 80.805 77.9934 80.4048C78.1248 80.3802 78.2408 80.3149 78.3104 80.2005C78.6505 79.6532 79.7406 78.1829 81.7352 79.3428C82.4774 79.7758 82.7402 80.1597 82.6165 80.7152C82.7093 80.8295 82.8794 80.9684 83.1268 80.8622C83.9308 79.9146 84.9204 79.7186 86.0723 80.6662C87.3788 81.7444 87.3788 82.5123 87.1469 83.272L87.1546 83.2801C87.1546 83.2801 87.2087 83.8111 87.5875 83.7703C87.9818 83.4108 88.4534 83.4108 89.2033 83.9826C91.2134 85.5184 90.3862 86.9724 90.046 87.8301C90.0924 87.9118 90.162 87.969 90.2934 87.9608C90.5563 87.8138 90.8887 87.8138 91.3371 88.0833C92.404 88.7287 92.2493 90.8525 91.9478 91.5469C91.6154 92.3066 89.7909 94.9696 89.1569 95.7211C89.0101 95.8926 88.8322 96.0152 88.639 96.0969C88.6622 96.0887 88.6853 96.0805 88.7008 96.0723C88.1519 96.4318 87.1933 96.8647 86.2578 96.2521C86.2578 96.2521 85.6625 95.7946 85.6084 95.3127C84.5956 95.909 83.1963 94.798 83.1963 94.798C82.5392 94.2671 82.3691 93.6707 82.3923 93.1561C82.0599 93.3685 81.6965 93.4502 81.3486 93.4584C80.2972 93.491 79.3308 92.8375 79.3308 92.8375C77.8233 91.9308 77.5218 90.9832 77.5295 90.3542C76.7487 90.8689 75.7823 90.485 75.7823 90.485C74.0738 89.6681 74.1279 87.9118 74.1279 87.9118Z" fill="url(#paint4_linear_352_701)"/>
  <path d="M87.0933 96.0069C86.9619 95.9334 86.8382 95.8517 86.7222 95.7455C86.7068 95.7292 86.6836 95.7128 86.6681 95.6883C86.4516 95.4351 86.3898 95.0267 86.9542 94.2098C88.5004 92.0451 89.1111 90.4277 89.1111 90.4277C89.5363 89.2922 89.3817 89.1043 89.3817 89.1043C89.2348 88.8511 88.9333 89.5863 88.9333 89.5863C87.4026 92.5025 86.3511 93.7768 85.895 94.2506C85.8718 94.267 85.8486 94.2833 85.8254 94.2915C85.7404 94.3487 85.6476 94.4058 85.5471 94.4467C85.5085 94.463 85.4621 94.4794 85.4234 94.4957C85.3384 94.5284 85.2456 94.5447 85.1528 94.561C85.1064 94.5692 85.0601 94.5774 85.0059 94.5774C84.9054 94.5774 84.8049 94.5692 84.6967 94.5447C84.6503 94.5365 84.6039 94.5365 84.5575 94.5202C84.4029 94.4712 84.2406 94.414 84.0782 94.3078C84.0009 94.2588 83.9313 94.2098 83.8618 94.1526C83.8308 94.1199 83.7922 94.0873 83.7612 94.0546C83.7303 94.0219 83.6917 93.9892 83.6607 93.9566C83.6221 93.9075 83.5834 93.8504 83.5448 93.8013C83.5293 93.7768 83.5061 93.7523 83.4907 93.7197C83.452 93.6543 83.4211 93.589 83.3902 93.5154C83.3824 93.4909 83.367 93.4664 83.3592 93.4419C83.3283 93.3684 83.3129 93.2867 83.2974 93.205C83.2897 93.1805 83.2819 93.156 83.2742 93.1315C83.2587 93.0498 83.2587 92.96 83.251 92.8783C83.251 92.8456 83.2433 92.8211 83.2433 92.7966C83.2433 92.7067 83.2587 92.6169 83.2742 92.527C83.2819 92.4944 83.2819 92.4617 83.2897 92.4208C83.3051 92.331 83.3438 92.2411 83.3747 92.1431C83.3902 92.1023 83.3979 92.0614 83.4134 92.0287C85.176 89.3984 86.0883 87.103 86.0883 87.103C86.3821 86.4658 86.4903 85.796 86.4903 85.796C86.297 85.4202 85.9878 85.9675 85.9878 85.9675C83.9777 89.9212 82.7871 91.5059 82.7871 91.5059C82.7871 91.5059 81.8517 93.2295 79.803 91.9389C79.803 91.9389 78.7902 91.2527 78.6201 90.7708C78.4732 90.3705 78.3805 89.6598 78.8984 88.6469C78.8984 88.6469 80.1277 85.9921 82.1532 82.6511C82.1532 82.6511 82.2846 82.1283 81.8285 82.4223C81.4729 82.6511 81.2178 83.1248 81.0941 83.2719C81.0941 83.2719 79.8957 84.9628 78.1563 88.3365C78.1563 88.3365 77.7697 89.1125 77.3213 89.4964C76.8807 89.6925 76.324 89.619 75.7133 89.137C74.3913 88.0914 74.8861 86.6292 75.6205 85.1262C76.0225 84.3093 76.9425 82.4713 77.8161 81.001C77.9012 80.9683 77.9862 80.9356 78.0712 80.9193C78.3495 80.8703 78.5737 80.7151 78.7129 80.4863C79.4087 79.3672 78.8598 78.3543 77.8857 79.9145C75.4427 80.3556 73.711 85.4039 73.6259 87.8954C73.6259 87.9852 73.5873 90.0111 75.5664 90.9423C75.6282 90.9668 76.3472 91.2445 77.1203 91.0567C77.3136 91.7347 77.8393 92.527 79.0685 93.2704C79.0917 93.2867 80.1663 93.9811 81.3414 93.9647C81.5579 93.9566 81.7744 93.932 81.9754 93.8749C82.0991 94.2996 82.3619 94.7653 82.8876 95.19C82.9495 95.239 84.1555 96.1948 85.3152 95.9497C85.5394 96.3255 85.8641 96.5869 85.9491 96.6522C86.3047 96.8891 86.6836 97.0117 87.0701 97.0443H87.418C87.9128 97.0117 88.4308 96.8319 88.941 96.497C88.9488 96.497 88.9487 96.4889 88.9565 96.4889C90.1548 95.623 91.8788 92.0042 91.8788 91.6366C91.8865 91.6366 89.2812 96.4072 87.0933 96.0069Z" fill="#EDBD82"/>
  <path d="M67.8427 37.9028H25.5851C21.0315 37.9028 17.3052 42.1016 17.3052 47.2233C17.3052 52.3533 21.0315 56.5438 25.5851 56.5438H67.835C72.3885 56.5438 76.1149 52.3451 76.1149 47.2233C76.1226 42.1016 72.3963 37.9028 67.8427 37.9028Z" fill="#EDC391"/>
  <path d="M46.7141 5.75092C33.2622 5.75092 20.7998 20.9529 20.7998 42.8287C20.7998 64.5902 33.641 75.3484 46.7141 75.3484C59.7872 75.3484 72.6284 64.5902 72.6284 42.8287C72.6284 20.9529 60.166 5.75092 46.7141 5.75092Z" fill="#F9DDBD"/>
  <path d="M34.0038 48.9142C36.1087 48.9142 37.8151 47.049 37.8151 44.7482C37.8151 42.4474 36.1087 40.5822 34.0038 40.5822C31.8988 40.5822 30.1924 42.4474 30.1924 44.7482C30.1924 47.049 31.8988 48.9142 34.0038 48.9142Z" fill="#312D2D"/>
  <path d="M59.4233 48.9142C61.5283 48.9142 63.2347 47.049 63.2347 44.7482C63.2347 42.4474 61.5283 40.5822 59.4233 40.5822C57.3184 40.5822 55.6119 42.4474 55.6119 44.7482C55.6119 47.049 57.3184 48.9142 59.4233 48.9142Z" fill="#312D2D"/>
  <path d="M49.6979 52.3041C49.6128 52.2714 49.5355 52.2469 49.4505 52.2388H43.9847C43.8996 52.2469 43.8146 52.2714 43.7373 52.3041C43.2425 52.5165 42.9719 53.0556 43.2038 53.6356C43.4358 54.2156 44.5258 55.833 46.7214 55.833C48.917 55.833 50.0071 54.2074 50.239 53.6356C50.4632 53.0556 50.1927 52.5165 49.6979 52.3041Z" fill="#DBA689"/>
  <path d="M28.1672 38.1235C30.4788 34.6681 35.7281 34.3414 38.7355 36.9145C39.2148 37.3229 39.8487 37.8947 40.0343 38.5319C40.3435 39.5693 39.4003 40.378 38.4804 40.133C37.8928 39.9778 37.3439 39.6429 36.7641 39.455C35.7049 39.1037 34.9396 39.0057 33.9887 39.0057C32.5816 38.9975 31.6771 39.1854 30.3396 39.7572C29.7907 39.9941 29.3423 40.3699 28.7161 40.0921C28.0049 39.7735 27.7343 38.8096 28.1672 38.1235Z" fill="#454140"/>
  <path d="M63.7764 40.0838C63.5522 39.9776 63.3357 39.8469 63.1115 39.7489C61.7354 39.1444 60.9545 38.9892 59.4625 38.9974C58.1482 39.0056 57.3673 39.1934 56.3391 39.561C55.7129 39.7897 54.9166 40.3616 54.2208 40.141C53.2003 39.8143 53.2313 38.638 53.7879 37.8864C54.4528 37.0042 55.365 36.3344 56.3314 35.8933C58.5734 34.864 61.3102 35.0111 63.4207 36.3426C64.1088 36.7755 64.8587 37.3718 65.2762 38.1233C65.8869 39.1934 64.9669 40.5985 63.7764 40.0838Z" fill="#454140"/>
  <path d="M19.2146 83.5006C19.1219 81.0091 17.3901 75.9609 14.9549 75.5198C13.9885 73.9595 13.4319 74.9725 14.1276 76.0916C14.2668 76.3203 14.4987 76.4673 14.7693 76.5245C14.8544 76.5408 14.9394 76.5735 15.0244 76.6062C15.898 78.0766 16.818 79.9227 17.22 80.7314C17.9545 82.2263 18.4415 83.6885 17.1273 84.7422C16.5165 85.2242 15.9676 85.2977 15.5192 85.1017C15.0786 84.7177 14.6843 83.9417 14.6843 83.9417C12.9448 80.568 11.7465 78.8771 11.7465 78.8771C11.6228 78.7301 11.3754 78.2644 11.012 78.0276C10.5559 77.7335 10.6873 78.2563 10.6873 78.2563C12.7129 81.5891 13.9421 84.2521 13.9421 84.2521C14.4678 85.265 14.375 85.9757 14.2204 86.376C14.0503 86.8579 13.0376 87.5441 13.0376 87.5441C10.9966 88.8348 10.0534 87.1112 10.0534 87.1112C10.0534 87.1112 8.8551 85.5264 6.85277 81.5728C6.85277 81.5728 6.5358 81.0255 6.35026 81.4012C6.35026 81.4012 6.45849 82.0711 6.75227 82.7082C6.75227 82.7082 7.66453 84.9955 9.4272 87.634C9.44266 87.6748 9.45039 87.7156 9.46585 87.7483C9.49677 87.8382 9.5277 87.9362 9.55089 88.0261C9.55862 88.0587 9.55862 88.0914 9.56635 88.1323C9.58182 88.2221 9.59728 88.312 9.59728 88.4018C9.59728 88.4345 9.58955 88.459 9.58955 88.4835C9.58955 88.5734 9.58182 88.6551 9.56635 88.7367C9.55862 88.7612 9.55089 88.7857 9.55089 88.8103C9.53543 88.8919 9.51224 88.9736 9.48131 89.0471C9.47358 89.0717 9.45812 89.0962 9.45039 89.1207C9.41947 89.186 9.38854 89.2595 9.34989 89.3249C9.33442 89.3494 9.31123 89.3739 9.29577 89.4066C9.25711 89.4638 9.21846 89.5128 9.1798 89.5618C9.14888 89.5945 9.11022 89.6271 9.0793 89.6598C9.04838 89.6925 9.01745 89.7252 8.9788 89.7578C8.90922 89.815 8.83191 89.8722 8.76233 89.913C8.59225 90.0111 8.4299 90.0846 8.28301 90.1254C8.23662 90.1418 8.19024 90.1418 8.13612 90.1499C8.02788 90.1663 7.92738 90.1826 7.82688 90.1826C7.78049 90.1826 7.72638 90.1744 7.67999 90.1663C7.58722 90.1499 7.49445 90.1336 7.4094 90.1009C7.37075 90.0846 7.32436 90.0682 7.28571 90.0519C7.19294 90.0111 7.10016 89.9539 7.00739 89.8967C6.9842 89.8804 6.96101 89.8722 6.93781 89.8559C6.48168 89.3821 5.43027 88.1077 3.89953 85.1915C3.89953 85.1915 3.59802 84.4563 3.45113 84.7096C3.45113 84.7096 3.29651 84.9056 3.72172 86.0329C3.72172 86.0329 4.33247 87.6503 5.87867 89.815C6.44303 90.6319 6.38118 91.0403 6.16471 91.2935C6.14925 91.3099 6.12606 91.3262 6.1106 91.3507C6.00236 91.4569 5.87094 91.5386 5.73951 91.6121C3.55164 92.0124 0.946289 87.2337 0.946289 87.2337C0.946289 87.6095 2.6703 91.2282 3.86861 92.0859C3.87634 92.0859 3.87634 92.0941 3.88407 92.0941C4.39432 92.429 4.90456 92.6087 5.40708 92.6414H5.75497C6.14925 92.6087 6.52807 92.4862 6.87597 92.2493C6.96101 92.1839 7.28571 91.9144 7.50991 91.5468C8.66956 91.7918 9.88332 90.8361 9.93744 90.7871C10.4632 90.3623 10.726 89.8967 10.8497 89.4719C11.0507 89.5291 11.2594 89.5618 11.4836 89.5618C12.6588 89.5863 13.7334 88.8838 13.7566 88.8674C14.9858 88.1323 15.5115 87.3317 15.7048 86.6537C16.4779 86.8334 17.1968 86.5639 17.2587 86.5394C19.2533 85.6163 19.2146 83.5904 19.2146 83.5006Z" fill="#EDBD82"/>
  <path d="M82.2685 97.9918V63.0216C82.2685 60.0972 80.011 57.7119 77.2434 57.7119H16.1685C13.4008 57.7119 11.1433 60.0972 11.1433 63.0216V98L82.2685 97.9918Z" fill="url(#paint5_linear_352_701)"/>
  <path d="M58.3023 97.9919C57.8307 96.4153 57.2123 94.6346 56.6866 92.7394C55.6274 88.9328 55.1867 82.5775 55.0012 78.1419C54.8852 75.3401 52.6896 73.1263 50.0147 73.1263H43.4047C40.7298 73.1263 38.5342 75.3319 38.4182 78.1419C38.2327 82.5775 37.792 88.9328 36.7328 92.7394C36.2071 94.6346 35.5964 96.4153 35.1171 97.9919H58.3023Z" fill="url(#paint6_linear_352_701)"/>
  <path d="M46.7135 0C46.7057 0 46.7057 0 46.698 0C46.6903 0 46.6903 0 46.6826 0C11.5606 0.196049 18.7582 42.5917 18.7582 42.5917C18.7582 42.5917 20.3353 46.9619 21.0543 48.8898C21.1548 49.1675 21.5413 49.1348 21.6032 48.8489C22.3531 45.3037 25.0512 32.732 26.4119 28.9091C27.2159 26.6545 29.427 25.3475 31.6612 25.7805C35.1015 26.4421 40.5905 27.259 46.6362 27.259H46.698C46.698 27.259 46.7444 27.259 46.7599 27.259C52.8055 27.259 58.2945 26.4421 61.7348 25.7805C63.9768 25.3475 66.1879 26.6627 66.9842 28.9091C68.3371 32.7157 71.0197 45.2138 71.7774 48.8081C71.8392 49.1021 72.2258 49.1266 72.3263 48.8489L74.6301 42.5835C74.6456 42.5917 81.8431 0.196049 46.7135 0Z" fill="#312D2D"/>
  <path d="M74.6458 42.5917C74.6458 42.5917 81.8433 0.196049 46.7137 0C46.7059 0 46.7059 0 46.6982 0C46.6905 0 46.6905 0 46.6827 0C46.1338 0 45.6004 0.0163372 45.0747 0.0408433C44.031 0.0898556 43.0183 0.171543 42.0441 0.294073C42.0364 0.294073 42.021 0.294073 42.0132 0.294073C41.9436 0.302242 41.8818 0.31858 41.8122 0.326748C12.2489 4.2559 18.7584 42.5917 18.7584 42.5917L21.0622 48.8652C21.1627 49.143 21.5415 49.1185 21.6034 48.8244C22.361 45.2383 25.0514 32.7239 26.4121 28.9173C27.2161 26.6627 29.4272 25.3557 31.6614 25.7886C35.1017 26.4503 40.5907 27.2672 46.6364 27.2672H46.6982C46.6982 27.2672 46.7446 27.2672 46.7601 27.2672C52.8057 27.2672 58.2947 26.4503 61.735 25.7886C63.977 25.3557 66.1881 26.6709 66.9844 28.9173C68.345 32.7402 71.0431 45.3364 71.7853 48.8652C71.8472 49.1593 72.226 49.1838 72.3265 48.9061C73.0609 46.9783 74.6458 42.5917 74.6458 42.5917Z" fill="url(#paint7_radial_352_701)"/>
  <defs>
    <linearGradient id="paint0_linear_352_701" x1="46.7092" y1="3.66617" x2="46.7092" y2="68.6588" gradientUnits="userSpaceOnUse">
      <stop offset="0.0032" stop-color="#424242"/>
      <stop offset="0.2705" stop-color="#353535"/>
      <stop offset="0.7639" stop-color="#131313"/>
      <stop offset="1"/>
    </linearGradient>
    <linearGradient id="paint1_linear_352_701" x1="46.7092" y1="3.66617" x2="46.7092" y2="68.6588" gradientUnits="userSpaceOnUse">
      <stop offset="0.0012" stop-color="#BFBEBE"/>
      <stop offset="0.15" stop-color="#212121" stop-opacity="0"/>
      <stop offset="0.7759" stop-color="#212121" stop-opacity="0"/>
      <stop offset="1" stop-color="#BFBEBE"/>
    </linearGradient>
    <linearGradient id="paint2_linear_352_701" x1="0.923835" y1="35.9243" x2="93.1891" y2="35.9243" gradientUnits="userSpaceOnUse">
      <stop offset="0.0012" stop-color="#BFBEBE"/>
      <stop offset="0.1" stop-color="#212121" stop-opacity="0"/>
      <stop offset="0.9" stop-color="#212121" stop-opacity="0"/>
      <stop offset="1" stop-color="#BFBEBE"/>
    </linearGradient>
    <linearGradient id="paint3_linear_352_701" x1="13.0234" y1="88.9536" x2="4.97741" y2="78.117" gradientUnits="userSpaceOnUse">
      <stop stop-color="#FFD29C"/>
      <stop offset="0.5" stop-color="#F9DDBD"/>
    </linearGradient>
    <linearGradient id="paint4_linear_352_701" x1="79.9657" y1="92.9098" x2="88.0118" y2="82.0732" gradientUnits="userSpaceOnUse">
      <stop stop-color="#FFD29C"/>
      <stop offset="0.5" stop-color="#F9DDBD"/>
    </linearGradient>
    <linearGradient id="paint5_linear_352_701" x1="46.709" y1="57.5926" x2="46.709" y2="113.477" gradientUnits="userSpaceOnUse">
      <stop stop-color="#4DD0E1"/>
      <stop offset="1" stop-color="#00BCD4"/>
    </linearGradient>
    <linearGradient id="paint6_linear_352_701" x1="46.7085" y1="72.3537" x2="46.7085" y2="104.439" gradientUnits="userSpaceOnUse">
      <stop stop-color="#00BCD4"/>
      <stop offset="1" stop-color="#0097A7"/>
    </linearGradient>
    <radialGradient id="paint7_radial_352_701" cx="0" cy="0" r="1" gradientUnits="userSpaceOnUse" gradientTransform="translate(46.7009 35.1808) scale(29.4493 35.1058)">
      <stop offset="0.7945" stop-color="#454140" stop-opacity="0"/>
      <stop offset="1" stop-color="#454140"/>
    </radialGradient>
  </defs>
</svg>