<svg width="21" height="23" viewBox="0 0 21 23" fill="none" xmlns="http://www.w3.org/2000/svg">
<path d="M7.5513 1.59918C7.805 1.13431 7.65444 0.539884 7.21501 0.271491C6.77557 0.00309721 6.21367 0.162374 5.95996 0.627245L3.92658 4.35301H2.46809C1.11498 4.35301 0.0180664 5.51342 0.0180664 6.94485C0.0180664 7.87271 0.478958 8.6867 1.17177 9.14458C1.24232 9.1912 1.3247 9.2127 1.40789 9.2127H19.4534C19.5366 9.2127 19.619 9.1912 19.6896 9.14458C20.3824 8.6867 20.8433 7.87271 20.8433 6.94485C20.8433 5.51342 19.7463 4.35301 18.3932 4.35301H16.9347L14.9014 0.627245C14.6477 0.162374 14.0858 0.00309721 13.6463 0.271491C13.2069 0.539884 13.0563 1.13431 13.31 1.59918L14.813 4.35301H6.04836L7.5513 1.59918Z" fill="black"/>
<path fill-rule="evenodd" clip-rule="evenodd" d="M19.4159 11.4606C19.4422 11.3019 19.3268 11.1566 19.1745 11.1566H1.68679C1.53454 11.1566 1.41915 11.3019 1.44548 11.4606L2.67112 18.8454C2.92609 20.3817 4.08867 21.5686 5.54903 21.7836C8.78786 22.2603 12.0735 22.2603 15.3123 21.7836C16.7727 21.5686 17.9353 20.3817 18.1902 18.8454L19.4159 11.4606ZM8.8994 14.0724C8.8994 13.5356 8.48806 13.1005 7.98064 13.1005C7.47322 13.1005 7.06188 13.5356 7.06188 14.0724V16.6642C7.06188 17.201 7.47323 17.6362 7.98064 17.6362C8.48806 17.6362 8.8994 17.201 8.8994 16.6642V14.0724ZM12.8807 13.1005C13.3881 13.1005 13.7994 13.5356 13.7994 14.0724V16.6642C13.7994 17.201 13.3881 17.6362 12.8807 17.6362C12.3733 17.6362 11.9619 17.201 11.9619 16.6642V14.0724C11.9619 13.5356 12.3733 13.1005 12.8807 13.1005Z" fill="black"/>
</svg>
