<svg width="20" height="20" viewBox="0 0 20 20" fill="none" xmlns="http://www.w3.org/2000/svg">
<path id="trash-Bold" d="M19 3H15.441C15.01 3 14.629 2.72602 14.492 2.31702L14.176 1.36694C13.903 0.549943 13.14 0 12.279 0H7.71997C6.85797 0 6.095 0.550042 5.823 1.36804L5.50702 2.31604C5.37102 2.72504 4.98898 3 4.55798 3H1C0.448 3 0 3.447 0 4C0 4.553 0.448 5 1 5H2.065L2.81598 16.266C2.95498 18.36 4.70801 20 6.80701 20H13.194C15.293 20 17.046 18.359 17.185 16.266L17.936 5H19C19.552 5 20 4.553 20 4C20 3.447 19.552 3 19 3ZM7.72101 2L12.28 1.99902L12.596 2.94897C12.602 2.96697 12.611 2.982 12.618 3H7.38397C7.38997 2.982 7.40001 2.966 7.40601 2.948L7.72101 2ZM15.189 16.1331C15.119 17.1801 14.243 18 13.193 18H6.80603C5.75703 18 4.88 17.1801 4.81 16.1331L4.06897 5H4.55902C4.66602 5 4.77098 4.98598 4.87598 4.97498C4.91898 4.98098 4.95598 5 5.00098 5H15.001C15.045 5 15.083 4.97998 15.126 4.97498C15.231 4.98598 15.335 5 15.443 5H15.933L15.189 16.1331ZM13 9V14C13 14.553 12.552 15 12 15C11.448 15 11 14.553 11 14V9C11 8.447 11.448 8 12 8C12.552 8 13 8.447 13 9ZM9 9V14C9 14.553 8.552 15 8 15C7.448 15 7 14.553 7 14V9C7 8.447 7.448 8 8 8C8.552 8 9 8.447 9 9Z" fill="#41416E"/>
</svg>
