<svg width="25" height="24" viewBox="0 0 25 24" fill="none" xmlns="http://www.w3.org/2000/svg">
<path d="M8.45953 8.70703C8.06853 8.31603 8.06853 7.68397 8.45953 7.29297C8.85053 6.90197 9.48247 6.90197 9.87347 7.29297L11.1665 8.58606V4C11.1665 3.447 11.6145 3 12.1665 3C12.7185 3 13.1665 3.447 13.1665 4V8.58606L14.4595 7.29297C14.8505 6.90197 15.4825 6.90197 15.8735 7.29297C16.2645 7.68397 16.2645 8.31603 15.8735 8.70703L12.8735 11.707C12.6785 11.902 12.4225 12 12.1665 12C11.9105 12 11.6545 11.902 11.4595 11.707L8.45953 8.70703ZM17.1665 10C16.6145 10 16.1665 10.447 16.1665 11C16.1665 11.553 16.6145 12 17.1665 12C18.8205 12 20.1665 13.346 20.1665 15V16C20.1665 17.654 18.8205 19 17.1665 19H7.1665C5.5125 19 4.1665 17.654 4.1665 16V15C4.1665 13.346 5.5125 12 7.1665 12C7.7185 12 8.1665 11.553 8.1665 11C8.1665 10.447 7.7185 10 7.1665 10C4.4095 10 2.1665 12.243 2.1665 15V16C2.1665 18.757 4.4095 21 7.1665 21H17.1665C19.9235 21 22.1665 18.757 22.1665 16V15C22.1665 12.243 19.9235 10 17.1665 10ZM18.1665 15C18.1665 14.448 17.7185 14 17.1665 14C16.6145 14 16.1665 14.448 16.1665 15C16.1665 15.552 16.6145 16 17.1665 16C17.7185 16 18.1665 15.552 18.1665 15Z" fill="white"/>
</svg>
