<svg width="24" height="24" viewBox="0 0 24 24" fill="none" xmlns="http://www.w3.org/2000/svg">
<g id="1 - Light / unlock">
<path id="unlock-Light" d="M14.999 9.49899H8.99902C8.82802 9.49899 8.66502 9.53099 8.49902 9.54999V6.99899C8.49902 5.06899 10.069 3.49899 11.999 3.49899C13.618 3.49899 15.13 4.62699 15.515 6.12399C15.584 6.39199 15.86 6.55398 16.124 6.48398C16.392 6.41498 16.553 6.143 16.484 5.875C15.981 3.919 14.095 2.5 12 2.5C9.519 2.5 7.5 4.519 7.5 7V9.776C5.758 10.397 4.5 12.047 4.5 14V17C4.5 19.481 6.519 21.5 9 21.5H15C17.481 21.5 19.5 19.481 19.5 17V14C19.499 11.517 17.48 9.49899 14.999 9.49899ZM18.499 16.999C18.499 18.929 16.929 20.499 14.999 20.499H8.99902C7.06902 20.499 5.49902 18.929 5.49902 16.999V13.999C5.49902 12.069 7.06902 10.499 8.99902 10.499H14.999C16.929 10.499 18.499 12.069 18.499 13.999V16.999ZM12.499 14.999V16.999C12.499 17.275 12.275 17.499 11.999 17.499C11.723 17.499 11.499 17.275 11.499 16.999V14.999C11.499 14.723 11.723 14.499 11.999 14.499C12.275 14.499 12.499 14.722 12.499 14.999Z" fill="#055EA8"/>
</g>
</svg>
