<svg width="24" height="24" viewBox="0 0 24 24" fill="none" xmlns="http://www.w3.org/2000/svg">
<path d="M17 10.7328H14.52V11.2638C14.52 12.6461 13.4 13.768 12.02 13.768C10.65 13.768 9.52002 12.6461 9.52002 11.2638V10.7328H7C4.52 10.7328 2.5 12.7563 2.5 15.2405V16.2423C2.5 18.7265 4.52 20.75 7 20.75H17C19.49 20.75 21.5 18.7265 21.5 16.2423V15.2405C21.5 12.7563 19.49 10.7328 17 10.7328ZM17 16.4927C16.31 16.4927 15.76 15.9317 15.76 15.2405C15.76 14.5494 16.31 13.9884 17 13.9884C17.7 13.9884 18.26 14.5494 18.26 15.2405C18.26 15.9317 17.7 16.4927 17 16.4927ZM15.73 7.96806C15.54 8.15838 15.28 8.25859 15.02 8.25859C14.77 8.25859 14.51 8.15838 14.32 7.96806L13.02 6.66577V11.2638C13.02 11.8147 12.58 12.2655 12.02 12.2655C11.47 12.2655 11.02 11.8147 11.02 11.2638V6.66577L9.72998 7.96806C9.53998 8.15838 9.28002 8.25859 9.02002 8.25859C8.77002 8.25859 8.51001 8.15838 8.32001 7.96806C7.93001 7.57739 7.93001 6.93636 8.32001 6.54569L11.32 3.54054C11.51 3.35021 11.77 3.25 12.02 3.25C12.28 3.25 12.54 3.35021 12.73 3.54054L15.73 6.54569C16.12 6.93636 16.12 7.57739 15.73 7.96806Z" fill="#044E8C"/>
</svg>
