<svg width="56" height="55" viewBox="0 0 56 55" fill="none" xmlns="http://www.w3.org/2000/svg">
<ellipse cx="28.1841" cy="27.6387" rx="27.5415" ry="27.1592" fill="#055EA8" fill-opacity="0.2"/>
<path d="M20.9489 28.1508C20.9489 27.7265 20.5601 27.3826 20.0806 27.3826C19.6012 27.3826 19.2124 27.7265 19.2124 28.1508V34.2967C19.2124 35.2867 20.1194 36.0893 21.2383 36.0893H35.1295C36.2483 36.0893 37.1553 35.2867 37.1553 34.2967V28.1508C37.1553 27.7265 36.7666 27.3826 36.2871 27.3826C35.8076 27.3826 35.4189 27.7265 35.4189 28.1508L35.4189 34.2967C35.4189 34.4381 35.2893 34.5528 35.1295 34.5528H21.2383C21.0784 34.5528 20.9489 34.4381 20.9489 34.2967V28.1508Z" fill="#363636"/>
<path fill-rule="evenodd" clip-rule="evenodd" d="M25.4459 30.7147C25.4459 31.4219 26.0937 31.9951 26.8929 31.9951H29.4865C30.2857 31.9951 30.9335 31.4219 30.9335 30.7147L30.9335 26.2458C30.9335 26.1014 31.0446 25.9814 31.1884 25.969L31.8319 25.9136C32.8137 25.8292 33.4017 24.9067 32.9754 24.1196C32.0687 22.4456 30.8281 20.9302 29.3131 19.6462L29.1932 19.5446C28.6321 19.0691 27.7473 19.0691 27.1862 19.5446L27.0663 19.6462C25.5513 20.9302 24.3107 22.4456 23.404 24.1196C22.9777 24.9067 23.5657 25.8292 24.5475 25.9136L25.191 25.969C25.3348 25.9814 25.4459 26.1013 25.4459 26.2457V30.7147ZM27.1823 25.2777C27.1823 25.0048 27.021 24.7636 26.7762 24.6272C26.657 24.5608 26.518 24.5192 26.3681 24.5109C26.0314 24.4923 25.695 24.4686 25.3589 24.4397C25.2721 24.4322 25.2227 24.337 25.2676 24.2623C25.8689 23.2624 26.6058 22.3318 27.4616 21.491C27.8673 21.0925 28.5121 21.0925 28.9178 21.4911C29.7736 22.3318 30.5105 23.2624 31.1118 24.2623C31.1567 24.337 31.1073 24.4322 31.0205 24.4397C30.6844 24.4686 30.348 24.4923 30.0113 24.5109C29.5536 24.5362 29.1971 24.872 29.1971 25.2777V29.4513C29.1971 30.0076 28.7461 30.4587 28.1897 30.4587C27.6333 30.4587 27.1823 30.0076 27.1823 29.4513V25.2777Z" fill="#363636"/>
</svg>
