<svg width="13" height="15" viewBox="0 0 13 15" fill="none" xmlns="http://www.w3.org/2000/svg">
<path d="M6.49996 7.7915C7.84383 7.7915 8.93746 6.61375 8.93746 5.1665C8.93746 3.71925 7.84383 2.5415 6.49996 2.5415C5.15608 2.5415 4.06246 3.71925 4.06246 5.1665C4.06246 6.61375 5.15608 7.7915 6.49996 7.7915ZM6.49996 3.12484C7.54538 3.12484 8.39579 4.04067 8.39579 5.1665C8.39579 6.29234 7.54538 7.20817 6.49996 7.20817C5.45454 7.20817 4.60413 6.29234 4.60413 5.1665C4.60413 4.04067 5.45454 3.12484 6.49996 3.12484ZM10.0208 10.6498V11.155C10.0208 11.6012 9.86967 12.0294 9.59451 12.3608C9.54034 12.4249 9.46668 12.4582 9.39247 12.4582C9.32801 12.4582 9.26355 12.4337 9.21209 12.3841C9.10051 12.2767 9.09074 12.0924 9.19041 11.9722C9.37674 11.7482 9.47913 11.4584 9.47913 11.1556V10.6498C9.47913 9.85475 8.9889 9.16642 8.28636 8.97626C8.14986 8.93834 8.00255 8.95933 7.88338 9.03283C7.02538 9.54675 5.97237 9.54501 5.11924 9.03401C4.99737 8.95934 4.85168 8.93775 4.71356 8.97567C4.01101 9.16584 3.52079 9.85416 3.52079 10.6492V11.1544C3.52079 11.4572 3.62318 11.7471 3.80951 11.9711C3.90918 12.0912 3.89941 12.2756 3.78782 12.3829C3.67732 12.4897 3.50562 12.4803 3.40541 12.3602C3.13024 12.0288 2.97913 11.6007 2.97913 11.1544V10.6498C2.97913 9.587 3.63834 8.66592 4.58138 8.41042C4.8533 8.33634 5.14526 8.37892 5.38522 8.52592C6.07205 8.93776 6.92517 8.93891 7.61688 8.52475C7.85413 8.37891 8.14718 8.33751 8.41801 8.41101C9.36159 8.66593 10.0208 9.587 10.0208 10.6498ZM9.4943 2.8355C9.54467 2.68325 9.69904 2.60567 9.84041 2.65759C10.5966 2.94517 11.1041 3.71925 11.1041 4.58317C11.1041 5.16359 10.8739 5.71775 10.472 6.1045C10.4205 6.15409 10.3561 6.17858 10.2916 6.17858C10.2174 6.17858 10.1432 6.14592 10.0896 6.08117C9.98992 5.961 9.99966 5.77667 10.1112 5.66934C10.3978 5.39284 10.5625 4.99675 10.5625 4.58258C10.5625 3.96542 10.1995 3.413 9.6595 3.20767C9.51867 3.154 9.44501 2.98717 9.4943 2.8355ZM11.6458 9.15242V9.57358C11.6458 9.73458 11.5245 9.86525 11.375 9.86525C11.2255 9.86525 11.1041 9.73458 11.1041 9.57358V9.15242C11.1041 8.51192 10.7093 7.95776 10.1443 7.80493C9.99914 7.76584 9.91137 7.60717 9.94766 7.45142C9.9845 7.29508 10.1291 7.19941 10.2765 7.23966C11.0825 7.45725 11.6458 8.24417 11.6458 9.15242ZM2.52791 6.3635C2.12654 5.97617 1.89579 5.422 1.89579 4.84217C1.89579 3.97825 2.40388 3.20417 3.15951 2.91659C3.30088 2.86409 3.4547 2.94225 3.50562 3.0945C3.55545 3.24617 3.48125 3.413 3.34041 3.46667C2.80037 3.672 2.43746 4.22442 2.43746 4.84158C2.43746 5.25575 2.60213 5.65184 2.88867 5.92834C3.00026 6.03567 3.00999 6.22 2.91033 6.34017C2.85616 6.40433 2.7825 6.43758 2.70829 6.43758C2.64383 6.43816 2.57937 6.41367 2.52791 6.3635ZM2.85561 8.0645C2.29065 8.21733 1.89579 8.77151 1.89579 9.41201V9.83317C1.89579 9.99417 1.77446 10.1248 1.62496 10.1248C1.47546 10.1248 1.35413 9.99417 1.35413 9.83317V9.41201C1.35413 8.50376 1.91747 7.71683 2.72347 7.49866C2.86972 7.459 3.01542 7.55467 3.05226 7.71042C3.08855 7.86675 3.00078 8.02483 2.85561 8.0645Z" fill="#022F54"/>
</svg>
