<svg width="14" height="18" viewBox="0 0 14 18" fill="none" xmlns="http://www.w3.org/2000/svg">
<path d="M7 9.84998C9.65388 9.84998 11.8125 7.75218 11.8125 5.17499C11.8125 2.59779 9.65388 0.5 7 0.5C4.34613 0.5 2.1875 2.59779 2.1875 5.17499C2.1875 7.75218 4.34613 9.84998 7 9.84998ZM7 2.2C8.68875 2.2 10.0625 3.53449 10.0625 5.17499C10.0625 6.81548 8.68875 8.14998 7 8.14998C5.31125 8.14998 3.9375 6.81548 3.9375 5.17499C3.9375 3.53449 5.31125 2.2 7 2.2ZM14 14.0719V14.9313C14 15.7779 13.6815 16.5896 13.1031 17.2169C12.9299 17.4047 12.691 17.5 12.4504 17.5C12.243 17.5 12.0339 17.4286 11.8668 17.2832C11.5063 16.9704 11.4765 16.4324 11.7985 16.083C12.089 15.7677 12.2491 15.358 12.2491 14.9313V14.0719C12.2491 12.8828 11.438 11.8543 10.2777 11.5712C10.1097 11.5304 9.93037 11.5508 9.78687 11.6307C8.0535 12.5674 5.93773 12.5623 4.22098 11.6358C4.0696 11.5516 3.89113 11.5304 3.72313 11.5712C2.56025 11.8543 1.75 12.8828 1.75 14.0719V14.9313C1.75 15.3588 1.91014 15.7677 2.20064 16.083C2.52264 16.4324 2.49201 16.9704 2.13239 17.2832C1.77189 17.5968 1.2189 17.5662 0.896896 17.2169C0.318521 16.5896 0 15.7779 0 14.9313V14.0719C0 12.1025 1.3554 10.3956 3.29615 9.92219C3.89727 9.77344 4.54828 9.85935 5.08028 10.1543C6.26065 10.7901 7.73148 10.7952 8.92848 10.1492C9.45261 9.85767 10.1036 9.77261 10.7056 9.92136C12.6446 10.3957 14 12.1017 14 14.0719Z" fill="#45484F"/>
</svg>
