<svg xmlns="http://www.w3.org/2000/svg" width="16" height="21" viewBox="0 0 18 21" fill="none">
  <path fill-rule="evenodd" clip-rule="evenodd" d="M8.65491 7.3123C8.46183 7.19066 8.22136 7.18747 8.02542 7.30396C7.82947 7.42045 7.70835 7.6386 7.70835 7.87503V13.125C7.70835 13.3615 7.82947 13.5796 8.02542 13.6961C8.22136 13.8126 8.46183 13.8094 8.65491 13.6878L12.8216 11.0628C13.0098 10.9442 13.125 10.7305 13.125 10.5C13.125 10.2695 13.0098 10.0559 12.8216 9.9373L8.65491 7.3123ZM11.2852 10.5L8.95835 11.966V9.03409L11.2852 10.5Z" fill="#45484F"/>
  <path fill-rule="evenodd" clip-rule="evenodd" d="M14.1923 4.06115C11.4017 3.83191 8.59838 3.83191 5.80784 4.06115L3.94059 4.21454C2.80512 4.30781 1.87621 5.20137 1.68851 6.3809C1.25454 9.10808 1.25454 11.892 1.68851 14.6191C1.87621 15.7987 2.80512 16.6922 3.94059 16.7855L5.80784 16.9389C8.59838 17.1681 11.4017 17.1681 14.1922 16.9389L16.0595 16.7855C17.195 16.6922 18.1239 15.7987 18.3116 14.6191C18.7455 11.892 18.7455 9.10808 18.3116 6.3809C18.1239 5.20137 17.195 4.30781 16.0595 4.21454L14.1923 4.06115ZM5.90534 5.36965C8.63098 5.14575 11.3691 5.14575 14.0948 5.36965L15.962 5.52304C16.525 5.56929 16.9856 6.01234 17.0787 6.5972C17.4898 9.18117 17.4898 11.8189 17.0787 14.4028C16.9856 14.9877 16.525 15.4308 15.962 15.477L14.0948 15.6304C11.3691 15.8543 8.63098 15.8543 5.90534 15.6304L4.03809 15.477C3.47508 15.4308 3.01449 14.9877 2.92142 14.4028C2.51024 11.8189 2.51024 9.18117 2.92142 6.5972C3.01449 6.01234 3.47508 5.56929 4.03809 5.52304L5.90534 5.36965Z" fill="#45484F"/>
</svg>